<?xml version="1.0" encoding="utf-8"?>
<!-- Generator: Adobe Illustrator 16.0.0, SVG Export Plug-In . SVG Version: 6.00 Build 0)  -->
<!DOCTYPE svg PUBLIC "-//W3C//DTD SVG 1.1//EN" "http://www.w3.org/Graphics/SVG/1.1/DTD/svg11.dtd">
<svg version="1.1" id="Layer_1" xmlns="http://www.w3.org/2000/svg" xmlns:xlink="http://www.w3.org/1999/xlink" x="0px" y="0px"
	 width="3466.63px" height="2452.082px" viewBox="-1435.674 -805.096 3466.63 2452.082"
	 enable-background="new -1435.674 -805.096 3466.63 2452.082" xml:space="preserve">
<g>
	<path fill="#327AB7" d="M2048,764.89c0,62.667,0,125.333,0,188c-5.063,6.603-12.506,9.865-19.568,13.466
		c-70.008,35.689-139.371,72.614-209.115,108.81c-76.84,39.875-153.359,80.371-230.293,120.07
		c-9.465,4.885-18.395,10.831-28.314,14.795c-3.703,1.48-7.906,4.78-11.582-0.438c-1.277-5.432-0.002-10.619,1.248-15.813
		c26.881-111.709,53.23-223.545,79.744-335.341c22.521-94.945,45.166-189.864,67.398-284.879c1.504-6.429,2.244-13.225,6.934-18.481
		c1.242-1.094,2.705-1.675,4.342-1.739c6.115,1.745,11.453,5.173,16.811,8.474c104.123,64.177,208.34,128.2,312.555,192.229
		C2042.632,756.79,2045.828,760.265,2048,764.89z"/>
	<path fill="#D1E2F3" d="M-1448-439.11c0-123.506,0.055-247.012-0.161-370.517c-0.011-6.261,1.43-7.651,7.658-7.643
		c126.834,0.211,253.668,0.158,380.503,0.158c6.838,5.089,7.532,13.149,9.358,20.417c10.551,41.976,21.369,83.881,32.063,125.818
		c15.139,59.367,30.287,118.732,45.383,178.111c1.674,6.585,4.752,13.58-1.672,19.662c-14.888,6.438-30.889,4.112-46.328,5.811
		c-30.737,3.382-61.649,5.027-92.481,7.482c-20.889,1.663-41.796,3.177-62.693,4.771c-30.176,2.306-60.347,4.703-90.518,7.064
		c-21.223,1.66-42.454,3.297-63.682,4.929c-30.837,2.37-61.69,4.545-92.506,7.2C-1431.523-435.114-1440.405-432.667-1448-439.11z"/>
	<path fill="#C3DAED" d="M-820-817.11c69.333,0,138.667,0,208,0c4.753,2.302,5.979,6.818,7.2,11.371
		c30.414,113.428,60.81,226.859,91.047,340.335c2.484,9.321,5.489,18.512,7.429,27.97c0.992,4.838,2.43,9.91-2.289,13.927
		c-3.389,1.957-7.036,1.943-10.716,1.512c-62.114-7.295-124.337-13.603-186.481-20.617c-51.568-5.821-103.224-10.916-154.774-16.884
		c-27.717-3.209-55.665-4.566-83.122-10.213c-7.053-1.45-14.592-0.729-21.749-2.369c-1.692-0.128-3.432-0.156-4.982-1.004
		c-0.958-0.563-1.672-1.37-2.123-2.37c2.842-20.528,14.16-37.813,22.284-56.249c35.786-81.219,72.627-161.969,108.602-243.104
		c4.982-11.238,10.105-22.425,15.239-33.602C-824.872-811.814-822.938-814.794-820-817.11z"/>
	<path fill="#82A4D2" d="M-1012,1662.89c-61.333,0-122.667,0-184,0c-4.059-3.844-3.997-8.869-4.071-13.901
		c-0.562-38.202-1.444-76.417-2.576-114.583c-0.867-29.231,0.392-58.546-1.826-87.648c-2.179-28.604,0.154-57.215-1.948-85.668
		c-1.768-23.924-1.22-47.747-1.13-71.643c0.204-2.9,1.616-5.024,4.083-6.469c4.702-1.962,9.656-2.193,14.687-2.189
		c39.975,0.025,80.023-1.52,119.907,0.402c52.951,2.552,105.925-0.57,158.766,2.002c51.29,2.496,102.532,0.672,153.785,1.557
		c7.056,0.122,13.953,0.47,20.43,3.352c1.084,0.243,2.135,0.724,3.031,1.363c3.944,5.611-0.743,9.351-3.427,13.081
		c-10.295,14.318-21.325,28.097-31.907,42.202c-70.899,94.496-142.577,188.405-213.344,283.002
		c-6.777,9.062-14.142,17.676-20.655,26.932C-1004.774,1658.345-1008.128,1660.875-1012,1662.89z"/>
	<path fill="#C3DBEE" d="M-1448-439.11c18.52-1.276,37.039-2.57,55.561-3.822c11.255-0.76,22.525-1.31,33.769-2.207
		c22.459-1.792,44.902-3.788,67.357-5.639c9.914-0.817,19.836-1.55,29.762-2.212c21.181-1.413,42.383-2.539,63.545-4.19
		c21.137-1.648,42.227-3.901,63.355-5.68c11.569-0.975,23.177-1.487,34.764-2.255c20.85-1.383,41.713-2.602,62.542-4.259
		c21.133-1.682,42.229-3.813,63.342-5.746c0.662-0.954,1.326-1.007,1.992-0.005l0.022,0.022c0.688,0.784,1.042,1.696,1.07,2.731
		c-8.755,23.488-22.002,44.775-33.513,66.879c-18.769,36.036-37.678,72.011-56.462,108.039
		c-41.575,79.743-83.413,159.351-124.812,239.187c-1.687,3.254-3.352,6.54-6.347,8.853c-5.536,3.854-9.996,1.006-14.422-2.313
		c-21.548-16.159-41.49-34.286-62.583-51.01c-45.044-35.715-89.344-72.354-133.834-108.749
		c-15.146-12.392-30.606-24.444-45.108-37.624C-1448-312.443-1448-375.777-1448-439.11z"/>
	<path fill="#6390C3" d="M2048-177.11c0,60.667,0,121.333,0,182c-2.326,3.998-4.295,8.132-7.869,11.39
		c-43.998,40.118-86.887,81.424-130.428,122.025c-26.512,24.722-52.439,50.085-79.65,74.06c-2.246,1.979-4.285,4.208-7.221,5.264
		c-0.994,0.202-1.963,0.166-2.926-0.109c-0.912-0.412-1.719-0.979-2.426-1.676c-3.395-3.655-6.543-7.498-9.322-11.673
		c-59.018-88.61-119.166-176.461-178.643-264.763c-21.557-32.006-42.582-64.381-64.982-95.819c-2.504-3.516-5.023-7.063-6.746-11.06
		c-2.225-5.158-1.41-9.113,4.66-10.951c5.053-1.162,10.068-0.761,15.051-0.767c39.311-0.047,78.623-0.392,117.928,0.044
		c111.568,1.232,223.098-3.328,334.66-2.033C2036.302-181.106,2042.921-182.377,2048-177.11z"/>
	<path fill="#7D9CCC" d="M2048-749.11c0,34.667,0,69.333,0,104c-3.979,6.055-10.146,9.468-16.027,13.203
		c-103.639,65.851-207.059,132.044-310.734,197.836c-18.227,11.564-35.799,24.229-55.154,34.018
		c-1.057,0.031-2.006-0.245-2.885-0.809c-3.521-3.371-4.018-8.188-5.932-12.339c-42.521-114.196-83.828-228.835-126.283-343.051
		c-1.975-5.307-3.857-10.648-5.512-16.063c-1.063-3.483-2.262-7.129,1.078-10.27c1.016-0.643,2.076-1.034,3.25-1.228
		c27.652-1.049,55.07,2.071,82.537,4.064c12.59,0.914,25.227,1.667,37.797,2.238c48.469,2.203,96.818,6.229,145.27,8.75
		c42.779,2.226,85.553,5.019,128.289,8.005c37.781,2.642,75.605,4.685,113.367,7.624C2041.146-752.808,2044.994-752.202,2048-749.11
		z"/>
	<path fill="#8EB3DA" d="M-1448,1256.89c0-4.667,0-9.333,0-14c33.332-99.876,73.701-197.143,109.786-295.998
		c1.801-4.936,2.986-10.368,7.998-13.496c1.008-0.503,2.054-0.797,3.153-0.932c57.463,9.66,113.811,24.54,170.782,36.5
		c39.09,8.207,78.027,17.108,117.014,25.79c5.771,1.284,11.963,1.657,16.729,5.831c3.727,5.468-0.423,9.495-2.917,13.518
		c-17.385,28.041-35.674,55.506-53.547,83.234c-36.651,56.858-73.752,113.43-110.199,170.421
		c-5.86,9.163-11.431,18.247-23.964,18.868c-32.546-2.625-64.85-6.881-97.213-10.536c-38.976-4.4-77.996-8.429-116.91-13.354
		C-1434.416,1261.837-1442.08,1262.291-1448,1256.89z"/>
	<path fill="#276FB1" d="M1550.011,1210.901c8.143-3.75,16.439-7.192,24.396-11.304c28.973-14.971,57.82-30.188,86.736-45.27
		c47.805-24.935,95.635-49.818,143.438-74.761c28.322-14.778,56.598-29.651,84.918-44.434
		c46.912-24.485,93.838-48.942,140.775-73.381c5.857-3.051,11.814-5.913,17.727-8.863c0,106,0,212,0,318
		c-2.482,12.967-4.305,26.169-13.113,36.926c-0.881,0.7-1.844,1.188-2.908,1.515c-6.039,1.135-11.947,0.186-17.832-1.06
		c-83.377-17.624-167.025-33.924-250.684-50.107c-66.016-12.771-131.625-27.562-197.85-39.239
		c-4.619-0.814-9.104-1.986-13.416-3.848c-1.02-0.596-1.789-1.416-2.326-2.459
		C1549.916,1212.045,1549.962,1211.472,1550.011,1210.901z"/>
	<path fill="#1761A8" d="M2042,1662.89c-64.666,0-129.332,0-194,0c-4.555-2.193-8.148-5.459-11.447-9.305
		c-43.008-50.146-87.041-99.406-129.734-149.826c-3.68-4.343-6.742-10.356-14.318-8.467c-3.719-2.373-3.414-6.022-3.162-9.663
		c0.129-1.046,0.443-2.031,0.906-2.958c2.77-4.519,7.498-6.424,11.934-8.629c61.938-30.773,123.023-63.212,184.682-94.535
		c42.977-21.834,85.471-44.625,128.643-66.088c5.686-2.825,11.416-6.896,18.377-3.088c0.852,1.604,0.979,3.309,1.152,5.049
		c2.598,10.78,3.348,21.668,3.08,32.69c-1.008,41.533,1.754,83.016,2.59,124.513c0.543,26.868-0.496,53.876,1.787,80.631
		c2.775,32.525-0.121,65.09,2.453,97.558C2045.273,1655,2045.742,1659.527,2042,1662.89z"/>
	<path fill="#789ACA" d="M-1012,1662.89c22.896-30.553,45.743-61.143,68.699-91.649c33.739-44.836,67.528-89.634,101.346-134.411
		c35.814-47.423,71.683-94.805,107.563-142.179c0.573-0.757,1.581-1.187,2.386-1.769c6.399,0.637,7.14,6.268,8.723,10.602
		c14.154,38.748,28.353,77.48,42.313,116.298c26.794,74.504,53.864,148.907,80.791,223.363c2.259,6.245,7.122,12.558,2.181,19.745
		C-736,1662.89-874,1662.89-1012,1662.89z"/>
	<path fill="#7392C5" d="M1665.99-401.124c6.926-5.076,13.6-10.546,20.818-15.164c35.557-22.747,71.27-45.247,106.902-67.873
		c56.395-35.808,112.787-71.614,169.143-107.484c24.953-15.884,49.793-31.952,74.734-47.855c3.314-2.113,6.934-3.751,10.412-5.607
		c0,130.667,0,261.333,0,392c-5.277,2.443-9.742-0.598-14.262-2.344c-92.793-35.866-185.518-71.907-278.209-108.028
		c-25.418-9.905-50.873-19.729-76.359-29.464C1674.335-394.793,1668.699-395.703,1665.99-401.124z"/>
	<path fill="#A9CDE6" d="M-84-817.11c2.667,0,5.333,0,8,0c15.087,8.242,26.546,21.01,39.307,32.064
		c50.303,43.578,100.159,87.691,149.622,132.203c45.025,40.521,91.688,79.188,135.815,120.7c1.938,1.823,4.043,3.489,5.652,5.635
		c3.093,4.121,1.914,7-2.941,7.831c-4.57,0.781-9.26,0.896-13.985,1.534c-40.268-1.351-80.416-2.892-120.517-5.571
		c-15.904-1.063-31.89-1.354-47.789-1.814c-22.92-0.665-45.859-1.771-68.713-2.967c-34.809-1.822-69.693-2.188-104.457-5.191
		c-15.524-1.342-31.201-1.496-46.775-1.989c-34.538-1.093-68.999-3.784-103.546-4.407c-3.022-0.055-5.894-1.042-8.835-1.225
		c-1.704-0.208-3.283-0.812-4.517-2.045c-3.154-6.487,1.887-10.785,4.815-15.146c12.063-17.959,24.178-35.887,36.378-53.754
		c44.67-65.422,89.266-130.895,133.62-196.53C-90.394-811.439-87.434-814.456-84-817.11z"/>
	<path fill="#397FBB" d="M848,1662.89c-111.332,0-222.666,0-334,0c-15.406-5.512-26.346-17.604-39.123-26.918
		c-21.467-15.649-42.238-32.247-63.225-48.543c-4.004-3.108-10.66-5.621-7.584-13.246c3.398-3.219,7.795-3.713,12.018-4.534
		c102.307-19.887,204.604-39.843,306.889-59.839c108.82-21.273,217.693-42.274,326.49-63.667c6.479-1.274,13.012-3.104,19.703-1.673
		c7.08,3.92,2.254,7.889-0.533,10.99c-7.779,8.653-15.74,17.279-24.67,24.686c-19.242,15.958-36.361,34.156-54.357,51.361
		c-36.76,35.145-74.104,69.688-110.34,105.395C869.66,1646.371,860.238,1656.425,848,1662.89z"/>
	<path fill="#6D96C7" d="M1665.99-401.124c24.545,9.279,49.141,18.431,73.625,27.867c51.779,19.957,103.516,40.031,155.246,60.12
		c40.891,15.879,81.752,31.833,122.609,47.797c10.209,3.99,20.354,8.148,30.529,12.229c0,25.333,0,50.667,0,76
		c-163.334,0.671-326.668,1.342-490,2.013c-0.957,0.702-1.824,0.604-2.605-0.288c-0.449-0.936-0.619-1.92-0.529-2.944
		c3.99-11.271,9.115-22.067,14.371-32.792c30.684-62.61,60.244-125.765,90.865-188.422c1.01-1.257,2.15-2.174,3.898-1.589
		C1664.664-401.127,1665.326-401.125,1665.99-401.124z"/>
	<path fill="#97BFE0" d="M384-817.11c160.668,0,321.334,0,482,0c4.355,4.156,4.139,9.595,4.035,14.921
		c-0.611,31.276,1.805,62.484,2.541,93.729c0.934,39.522,3.506,79.015,3.586,118.584c0.014,6.312-1.561,12.573-0.391,18.792
		c-1.83,8.687-7.984,5.502-12.465,3.672c-16.324-6.666-32.213-14.354-48.346-21.485C721.826-630.07,628.876-671.662,535.816-713
		c-48.961-21.75-97.768-43.872-146.754-65.575c-8.365-3.706-16.395-9.241-26.379-7.704c-3.242,0.024-4.449-2.047-4.979-4.818
		c-0.115-1.014-0.043-2.024,0.176-3.018c0.236-0.971,0.646-1.88,1.168-2.717C366.13-805.083,373.621-812.875,384-817.11z"/>
	<path fill="#BED8EC" d="M-508.003-425.113c-3.608-15.161-6.869-30.416-10.884-45.47c-19.271-72.235-38.788-144.404-58.126-216.624
		c-11.344-42.364-22.512-84.776-33.783-127.161c-0.254-0.953-0.796-1.83-1.204-2.742c94.667,0,189.333,0,284,0
		c7.352,3.201,13.529,8.071,19.375,13.458c2.924,2.692,6.19,4.919,10.177,5.892c2.27,1.56,2.936,3.823,2.917,6.408
		c-0.056,1.005-0.255,1.979-0.546,2.928c-51.637,92.338-104.181,184.178-156.331,276.24c-16.233,28.656-32.111,57.514-49.032,85.795
		c-1.009,1.207-2.25,2.01-3.797,2.313C-506.299-424.047-507.221-424.395-508.003-425.113z"/>
	<path fill="#A3C9E4" d="M359.98-795.125c0.006,0.671,0.01,1.342,0.016,2.013c-3.875,28.03-17.057,52.988-26.529,79.127
		c-21.578,59.535-43.584,118.919-65.929,178.173c-2.543,6.744-3.978,14.286-10.761,18.729c-5.66,1.253-11.665,3.861-14.775-4.021
		c3.938-0.24,7.876-0.48,11.814-0.721c-2.578-2.734-4.96-5.69-7.764-8.17c-21.604-19.093-43.354-38.018-64.925-57.146
		c-14.39-12.76-28.427-25.919-42.858-38.631c-19.393-17.08-39.079-33.827-58.508-50.867c-8.977-7.873-17.578-16.173-26.46-24.156
		c-25.89-23.271-51.764-46.559-77.786-69.681c-14.86-13.203-30.04-26.048-44.97-39.176c-2.463-2.166-4.376-4.955-6.544-7.457
		c21.333,0,42.667,0,64,0c13.465,2.088,27.104,1.545,40.608,1.74c30.891,0.447,61.813,0.999,92.612,2.709
		c41.73,2.316,83.481,4.622,125.21,6.979c31.795,1.797,63.581,4.646,95.485,4.586C348.5-801.107,355.433-801.557,359.98-795.125z"/>
	<path fill="#89A9D5" d="M-1448,1256.89c15.815,1.611,31.636,3.165,47.443,4.85c15.475,1.648,30.935,3.436,46.401,5.155
		c13.5,1.501,27.01,2.924,40.5,4.513c14.794,1.743,29.566,3.669,44.355,5.455c15.775,1.906,31.551,3.805,47.343,5.563
		c3.955,0.439,7.972,0.331,11.96,0.475c1.584,1.919,4.421,0.06,6.001,1.989c-0.667,1.333-1.333,2.667-2,4
		c0.714,6.152-1.129,11.766-3.498,17.317c-49.065,115.066-97.55,230.38-146.603,345.451c-1.858,4.36-3.927,8.429-7.903,11.23
		c-18.667,0-37.333,0-56,0c-7.023-10.021-4.657-21.886-5.679-32.838c-2.901-31.104-5.312-62.267-7.674-93.421
		c-2.188-28.845-4.206-57.713-6.847-86.512c-3.585-39.094-4.634-78.302-6.783-117.46c-0.074-1.354-0.216-2.638-1.017-3.771
		C-1448,1304.89-1448,1280.89-1448,1256.89z"/>
	<path fill="#8AB0D8" d="M1108-817.11c82.668,0,165.334,0,248,0c28.199,11.834,54.072,28.063,80.746,42.774
		c2.604,1.438,5.176,3.082,5.99,6.331c-0.021,1.071-0.34,2.023-0.938,2.895c-5.504,5.349-12.912,6.812-19.727,9.197
		c-85.486,29.934-170.82,60.297-256.254,90.378c-91.4,32.182-182.662,64.758-274.1,96.841c-4.691,1.646-9.273,3.728-14.439,2.996
		c-0.975-0.384-1.666-1.074-2.061-2.034c3.369-9.286,10.416-16.059,16.961-22.86c45.434-47.226,89.529-95.705,134.561-143.309
		c22.154-23.42,44.645-46.587,65.688-71.061C1096.791-810.036,1101.703-814.479,1108-817.11z"/>
	<path fill="#4B86BE" d="M1820.011,216.89c0.662-0.006,1.324-0.011,1.986-0.015c4.205-1.796,7.791,0.215,11.375,1.933
		c45.246,21.669,90.553,43.213,135.801,64.877c22.172,10.614,44.234,21.476,66.682,31.513c4.91,2.195,9.701,4.449,12.145,9.692
		c0,12.667,0,25.333,0,38c-2.156,5.288-6.625,8.007-11.354,10.646c-68.844,38.42-137.678,76.862-206.658,115.039
		c-36.674,20.298-73.092,41.058-109.867,61.173c-4.486,2.454-8.959,6.13-14.619,2.583c-1.688-4.848,0.309-9.245,1.813-13.599
		c35.787-103.648,70.707-207.593,106.404-311.271c1.199-3.487,2.707-6.797,4.936-9.759
		C1819.105,217.427,1819.558,217.159,1820.011,216.89z"/>
	<path fill="#1F6DB2" d="M1692.011,1482.89c-0.008,0.663-0.016,1.326-0.021,1.989c-2.455,5.13-5.711,9.585-9.949,13.482
		c-41.037,37.749-81.033,76.597-121.385,115.067c-14.172,13.511-28.502,26.863-42.332,40.726c-4.156,4.165-9.488,5.937-14.322,8.734
		c-28.668,0-57.334,0-86,0c-4.621-2.188-6.264-6.633-8.27-10.831c-29.965-62.694-59.711-125.491-89.033-188.487
		c-3.229-6.935-7.305-13.465-9.91-20.683c-1.445-4.001-3.68-7.981-1.34-12.464c0.789-0.851,1.693-1.453,2.758-1.875
		c3.619-0.946,7.215-0.996,10.91-0.478c88.65,12.438,177.439,23.859,266.084,36.354c31.293,4.411,62.754,7.623,93.893,13.181
		C1686.312,1478.943,1689.757,1479.918,1692.011,1482.89z"/>
	<path fill="#729CCC" d="M-598,1662.89c-4.314-13.238-8.333-26.581-13.005-39.691c-10.151-28.485-20.639-56.853-30.983-85.27
		c-15.688-43.096-31.403-86.18-47.042-129.291c-11.785-32.492-23.413-65.041-35.245-97.518c-2.257-6.195-5.138-12.165-7.731-18.238
		c-0.003-0.668-0.006-1.335-0.009-2.004c0.373-0.317,0.746-0.637,1.113-0.957c5.221-1.525,8.96,1.723,12.708,4.283
		c69.671,47.626,140.203,93.979,209.737,141.803c6.469,4.447,14.365,7.203,18.79,14.467c0.334,1.115,0.538,2.192,0.664,3.344
		c1.934,16.04-0.795,31.939-1.763,47.786c-0.891,14.563-1.915,29.225-2.762,43.783c-2.066,35.521-4.5,71.022-6.464,106.552
		c-0.228,4.107-0.914,7.943-4.009,10.951C-535.333,1662.89-566.667,1662.89-598,1662.89z"/>
	<path fill="#CEE0F1" d="M-972.012-475.124l-0.996,0.007l-0.996-0.002c-2.781-13.285-5.157-26.672-8.426-39.836
		c-7.606-30.639-15.621-61.178-23.511-91.745c-15.028-58.227-30.101-116.441-45.116-174.672
		c-3.066-11.891-5.967-23.823-8.943-35.737c80,0,160,0,240,0c-4.521,11.033-8.785,22.18-13.609,33.079
		c-16.251,36.716-32.688,73.351-49.079,110.005c-11.923,26.661-23.889,53.303-35.826,79.957
		c-16.954,37.857-33.896,75.721-50.856,113.576C-970.186-478.674-971.129-476.913-972.012-475.124z"/>
	<path fill="#B7D5EA" d="M-1448,242.89c0-99.333,0-198.667,0-298c2.628-1.657,5.535-2.054,8.583-2.069
		c44.802-0.253,89.55,1.415,134.279,3.735c5.313,0.274,10.633,0.418,15.938,0.229c25.59-0.916,51.051,1.703,76.523,2.583
		c4.394,0.815,8.621,2.44,12.91,3.636c5.806,4.896,1.158,9.019-1.474,12.708c-7.925,11.112-16.714,21.579-25.152,32.305
		c-63.196,80.316-125.893,161.025-189.303,241.175c-3.248,4.104-5.852,8.979-11.091,11.217
		C-1434.944,250.934-1442.067,248.584-1448,242.89z"/>
	<path fill="#6995C6" d="M-504,1662.89c1.296-21.451,2.603-42.902,3.882-64.354c0.729-12.218,1.368-24.439,2.122-36.656
		c1.264-20.457,2.717-40.902,3.843-61.367c0.909-16.526,1.453-33.073,2.158-49.61c0.78-0.654,1.678-1.016,2.687-1.093
		c5.335,1.043,9.81,3.985,14.398,6.654c46.029,26.773,91.842,53.919,137.938,80.584c40.619,23.498,81.364,46.797,121.581,71.004
		c23.939,14.409,48.41,27.951,72.394,42.31c3.372,2.02,7.491,3.243,8.152,8.019c-0.007,3.465-3.388,3.063-5.154,4.513
		C-261.333,1662.89-382.667,1662.89-504,1662.89z"/>
	<path fill="#5787BD" d="M2048,324.89c-47.408-22.698-94.807-45.415-142.227-68.088c-27.908-13.345-55.85-26.619-83.775-39.927
		c7.658-7.319,15.305-14.651,22.975-21.959c28.16-26.828,56.271-53.711,84.518-80.452c21.23-20.104,42.537-40.131,64-59.987
		c18.027-16.683,36.33-33.069,54.512-49.587C2048,111.557,2048,218.223,2048,324.89z"/>
	<path fill="#437FBA" d="M1706.011,552.89c7.977-4.005,16.102-7.739,23.9-12.062c34.264-18.983,68.453-38.1,102.631-57.239
		c43.15-24.169,86.229-48.473,129.406-72.596c25.795-14.411,51.729-28.574,77.578-42.89c2.898-1.604,5.652-3.471,8.473-5.215
		c0,68,0,136,0,204c-4.555,4.572-10.328,4.496-15.916,3.463c-8.27-1.529-16.561-1.291-24.867-1.388
		c-46.527-0.54-92.982-3.364-139.504-4.447c-34.854-0.813-69.717-2.481-104.557-3.979c-17.689-0.761-36.014,1.359-53.158-5.644
		c-1.33,0.002-2.658,0.004-3.986,0.006l-0.594-0.588v-0.835L1706.011,552.89z"/>
	<path fill="#2A76B7" d="M1158,1662.89c-26,0-52,0-78,0c-5.195-2.793-6.027-7.689-5.803-12.818
		c0.75-17.249-0.133-34.49-0.393-51.721c-0.594-39.46-2.553-78.898-1.916-118.382c0.037-2.325-0.115-4.651-0.621-6.933
		c-2.232-10.071-1.791-19.75,4.17-28.627c9.285-5.608,19.895-4.729,29.965-5.337c39.424-2.377,78.824-5.047,118.229-7.704
		c23.51-1.586,47.057-2.7,70.525-4.405c3.877,0.659,7.873,0.846,11.707,1.729c6.029,5.916,1.156,11.041-1.777,15.705
		c-10.797,17.168-22.141,33.986-33.234,50.965c-34.014,52.052-67.99,104.126-101.955,156.208
		C1165.974,1656.052,1163.064,1660.493,1158,1662.89z"/>
	<path fill="#3B79B6" d="M1709.998,554.895c29.865,0.674,59.734,1.257,89.598,2.056c17.563,0.471,35.115,1.312,52.678,1.936
		c19.885,0.707,39.771,1.332,59.658,2.044c17.229,0.617,34.449,1.342,51.678,1.953c20.219,0.718,40.443,1.258,60.656,2.097
		c7.926,0.328,15.824,1.256,23.734,1.911c0,66,0,132,0,198c-23.309-14.639-46.539-29.402-69.941-43.887
		c-33.582-20.782-67.291-41.354-100.939-62.027c-54.006-33.181-108.014-66.359-161.984-99.598
		C1713.224,558.204,1711.701,556.404,1709.998,554.895z"/>
	<path fill="#84A1CF" d="M-1364,1662.89c7.723-18.74,15.319-37.533,23.198-56.207c11.765-27.885,23.779-55.665,35.596-83.528
		c14.413-33.982,28.701-68.02,43.097-102.011c18.676-44.096,37.406-88.17,56.113-132.254c0.664,2.486,1.857,4.961,1.913,7.46
		c0.785,35.202,1.435,70.406,2.079,105.61c0.692,37.866,1.285,75.734,2.034,113.6c0.564,28.551,1.238,57.1,1.996,85.646
		c0.546,20.564,1.309,41.123,1.975,61.686C-1252,1662.89-1308,1662.89-1364,1662.89z"/>
	<path fill="#2570B2" d="M1158,1662.89c15.377-23.725,30.764-47.439,46.125-71.172c22.945-35.445,45.887-70.894,68.803-106.356
		c11.723-18.138,23.385-36.313,35.072-54.472c0.66-0.473,1.324-0.475,1.99-0.011c3.918,8.751,7.727,17.554,11.773,26.243
		c12.754,27.395,25.529,54.776,38.418,82.105c17.996,38.159,36.113,76.26,54.133,114.408c1.416,2.996,2.467,6.164,3.686,9.253
		C1331.333,1662.89,1244.667,1662.89,1158,1662.89z"/>
	<path fill="#B2D3E8" d="M-298.005-789.115c0.001-0.665,0.003-1.33,0.005-1.995c2.266-4.414,6.346-5.409,10.808-5.992
		c43.862-5.729,87.672-11.918,131.651-16.664c15.107-1.631,30.408-1.518,45.541-3.343c8.667,0,17.333,0,26,0
		c-3.141,5.411-5.976,11.027-9.469,16.199c-28.615,42.371-57.318,84.685-86.065,126.967
		c-27.807,40.898-55.689,81.748-83.569,122.598c-1.489,2.181-3.26,4.17-4.899,6.248c-0.492-0.347-0.984-0.693-1.479-1.028
		c-5.682-8.09-5.057-17.769-6.193-26.834c-6.652-53.009-13.122-106.042-19.42-159.094c-1.682-14.168-3.6-28.314-4.942-42.524
		C-300.513-779.597-300.363-784.504-298.005-789.115z"/>
	<path fill="#819BCB" d="M2048-749.11c-21.832-1.282-43.666-2.585-65.5-3.839c-13.242-0.761-26.5-1.288-39.732-2.201
		c-16.184-1.117-32.342-2.607-48.521-3.787c-11.57-0.844-23.154-1.561-34.742-2.122c-16.238-0.787-32.506-1.063-48.725-2.127
		c-25.459-1.668-50.881-3.856-76.326-5.732c-11.238-0.829-22.488-1.556-33.744-2.108c-16.236-0.799-32.506-1.086-48.723-2.155
		c-25.111-1.655-50.18-3.968-75.289-5.65c-16.217-1.086-32.477-1.545-48.717-2.284c-0.252-0.429-0.502-0.854-0.756-1.281
		c0.188-0.989,0.615-1.863,1.266-2.621c21.896-11.949,43.42-24.723,67.512-32.089c148,0,296,0.061,444-0.192
		c6.848-0.012,8.41,1.313,8.209,8.198C2047.621-789.121,2048-769.11,2048-749.11z"/>
	<path fill="#2F78B6" d="M1076,1444.922c-2.211,10.156-1.951,20.146-0.428,30.541c1.531,10.426,0.285,21.244,0.447,31.889
		c0.621,40.77,1.336,81.538,1.975,122.307c0.107,6.865-0.221,13.745,0.1,20.598c0.197,4.231,1.242,8.425,1.906,12.636
		c-77.332,0-154.666,0-232,0c6.832-6.76,13.645-13.539,20.512-20.262c1.42-1.392,3.139-2.476,4.566-3.854
		c20.355-19.645,40.637-39.363,61.029-58.968c32.381-31.125,64.865-62.141,97.236-93.272c13.643-13.121,27.109-26.424,40.656-39.644
		c0.172-1.201,0.896-1.959,1.959-2.449c0.367-0.034,0.734-0.067,1.102-0.103C1075.375,1444.533,1075.689,1444.727,1076,1444.922z"/>
	<path fill="#C2DBED" d="M-1209.998-47.106c-30.927-0.673-61.855-1.277-92.779-2.042c-21.93-0.543-43.854-1.32-65.782-1.962
		c-23.593-0.69-47.189-1.283-70.778-2.089c-2.906-0.1-5.776-1.248-8.662-1.911c0-64.667,0-129.333,0-194
		c4.391,2.088,9.38,3.432,13.069,6.395c15.236,12.236,29.952,25.117,45.094,37.472c21.285,17.366,42.885,34.349,64.161,51.727
		c30.776,25.138,61.367,50.503,92.07,75.73c10.491,8.62,20.962,17.274,31.744,25.521c1.84,1.407,5.203,0.822,7.863,1.157
		c1.674,3.521-0.166,5.318-3.326,5.068C-1201.544-46.375-1205.935-45.034-1209.998-47.106z"/>
	<path fill="#9DC2E1" d="M-1448,920.89c0-102.667,0-205.333,0-308c6.292-5.709,14.384-6.418,22.181-8
		c2.352,0.313,4.155,1.338,4.903,3.732c1.279,13.382,6.354,25.804,10.046,38.557c25.731,88.871,52.142,177.543,78,266.377
		c0.837,2.876,1.64,5.76,2.337,8.676c1.86,7.78,0.079,13.229-8.935,14.231c-21.325-0.575-42.307-4.231-63.438-6.403
		c-9.907-1.02-19.791-2.313-29.708-3.264C-1438.3,926.25-1443.926,925.609-1448,920.89z"/>
	<path fill="#4D84BD" d="M364,1662.89c-106,0-212,0-318,0c-7.461-10.671-5.323-22.633-4.644-34.398
		c2.503-4.23,6.775-4.989,11.117-5.631c56.298-8.313,112.694-15.93,169.028-23.983c43.486-6.216,86.958-12.536,130.461-18.63
		c14.49-2.03,29.006-3.879,43.59-4.938c1.648-0.502,3.318-0.579,4.975-0.037c1.043,0.402,1.805,1.13,2.264,2.138
		c1.73,4.859-0.428,9.164-2.332,13.34c-9.637,21.131-19.168,42.31-28.592,63.534C370.169,1658.104,367.667,1660.976,364,1662.89z"/>
	<path fill="#97BBDE" d="M-1448,920.89c20.589,2.512,41.158,5.2,61.773,7.479c16.047,1.773,32.151,3.037,48.23,4.527
		c2.247,2.35,5.787-0.49,8,1.993c-18.623,49.511-37.238,99.023-55.872,148.53c-19.336,51.375-38.668,102.752-58.112,154.086
		c-0.762,2.015-2.654,3.6-4.02,5.384C-1448,1135.557-1448,1028.223-1448,920.89z"/>
	<path fill="#1963AB" d="M1504,1662.89c15.617-14.834,31.23-29.675,46.861-44.494c1.443-1.369,3.088-2.529,4.514-3.913
		c23.619-22.917,47.021-46.063,70.881-68.724c21.652-20.564,43.803-40.607,65.734-60.879c0.67,3.336,1.34,6.673,2.01,10.01
		c7.301,9.206,4.67,20.553,5.492,30.719c3.104,38.415,5.354,76.907,8.215,115.354c0.553,7.424,2.258,15.434-3.707,21.929
		C1637.333,1662.89,1570.667,1662.89,1504,1662.89z"/>
	<path fill="#93BADD" d="M876-569.111c-0.004,0.663-0.008,1.327-0.01,1.989c-0.338,0.176-0.674,0.351-1.012,0.524
		c-0.338-0.176-0.674-0.351-1.01-0.526c-0.656-5.249-1.779-10.487-1.895-15.749c-0.813-36.906-1.313-73.82-2.123-110.729
		c-0.445-20.257-1.314-40.504-1.967-60.756c-0.678-20.917-1.324-41.836-1.984-62.754c41.332,0,82.666,0,124,0
		c2.162,4.214-0.225,7.765-1.826,11.313c-22.68,50.285-46.068,100.244-69.244,150.301c-9.215,19.901-18.373,39.83-27.492,59.772
		C887.121-586.286,882.296-577.316,876-569.111z"/>
	<path fill="#8FB5DB" d="M876-569.111c4.053-9.439,7.879-18.985,12.199-28.302c18.443-39.779,37.102-79.461,55.551-119.237
		c15.51-33.443,30.84-66.971,46.25-100.46c39.334,0,78.668,0,118,0c-7.223,8.218-14.229,16.64-21.715,24.609
		c-15.018,15.989-30.479,31.563-45.428,47.614c-22.623,24.289-44.93,48.873-67.441,73.266
		c-10.363,11.229-20.83,22.363-31.371,33.425c-16.053,16.843-32.225,33.573-48.32,50.375
		C887.781-581.617,881.906-575.349,876-569.111z"/>
	<path fill="#145DA5" d="M1704,1662.89c-1.293-20.752-2.613-41.502-3.871-62.256c-0.697-11.512-1.266-23.031-1.936-34.545
		c-1.383-23.734-2.793-47.468-4.193-71.199c0.445-2.215,0.889-4.429,1.334-6.643c1.912,1.453,4.133,2.635,5.688,4.402
		c24.328,27.655,48.729,55.25,72.787,83.139c24.912,28.877,49.477,58.056,74.191,87.102C1800,1662.89,1752,1662.89,1704,1662.89z"/>
	<path fill="#ADD0E8" d="M-1448,242.89c7.333,1.996,14.666,3.992,21.999,5.988c0.334,0.553,0.668,1.104,1.005,1.647
		c1.729,4.154,1.046,8.534,1.049,12.82c0.027,49.906-0.11,99.813,0.074,149.721c0.108,29.59-1.168,59.226,0.244,88.752
		c1.287,26.921,1.596,53.81,1.731,80.729c0.03,6.003-0.197,11.962-1.269,17.821c-0.127,1.127-0.46,2.245-0.959,3.266
		c-4.336,4.707-7.578,1.403-10.45-1.779c-5.21-5.775-9.916-11.959-13.424-18.965C-1448,469.557-1448,356.223-1448,242.89z"/>
	<path fill="#427DB9" d="M364,1662.89c12.676-28.663,25.352-57.326,38.027-85.989c0.654-0.645,1.314-0.616,1.979-0.011
		c29.273,22.635,58.58,45.229,87.803,67.931c7.531,5.852,14.803,12.037,22.191,18.069C464,1662.89,414,1662.89,364,1662.89z"/>
	<path fill="#8DABD6" d="M-1448,1328.89c1.304,4.05,3.389,8.029,3.764,12.163c1.108,12.203,1.313,24.483,2.287,36.702
		c1.683,21.104,3.683,42.182,5.542,63.271c0.785,8.903,1.696,17.799,2.3,26.716c1.454,21.479,2.504,42.989,4.201,64.448
		c1.59,20.111,3.95,40.16,5.687,60.262c1.026,11.88,1.512,23.808,2.216,35.714c0.685,11.573,1.337,23.149,2.003,34.725
		c-8.333,0-16.67-0.141-24.998,0.082c-2.613,0.069-3.433-0.46-3.058-3.09c0.28-1.96,0.055-3.992,0.055-5.992
		C-1448,1545.557-1448,1437.223-1448,1328.89z"/>
	<path fill="#ADCFE8" d="M359.98-795.125c-9.248-0.662-18.494-1.37-27.746-1.978c-20.172-1.324-40.344-2.637-60.521-3.877
		c-12.578-0.772-25.159-1.548-37.75-2.065c-19.572-0.805-39.162-1.22-58.73-2.11c-26.174-1.192-52.337-2.646-78.501-4.058
		c-23.173-1.25-46.354-2.396-69.506-3.979C14.122-814.089,1.073-815.778-12-817.11c126,0,252,0,378,0
		c3.605,8.861-1.621,15.313-6.01,21.989L359.98-795.125z"/>
	<path fill="#88ABD6" d="M1527.99-783.113c0,0.665-0.004,1.329-0.01,1.994c-0.658,0.003-1.316,0.008-1.973,0.016
		c-2.703,3.161-6.146,4.935-10.23,5.598c-20.596,3.347-41.129,7.063-61.709,10.492c-4.213,0.703-8.598,1.748-12.068-2.098
		c-13.109-7.554-26.158-15.217-39.348-22.627c-13.793-7.749-27.752-15.202-41.561-22.925c-1.924-1.075-3.406-2.945-5.092-4.447
		c26,0,52,0,78,0c31.371,6.765,60.035,21.363,90.346,31.229C1525.898-785.392,1527.171-784.549,1527.99-783.113z"/>
	<path fill="#1158A0" d="M2042,1662.89c-0.676-31.844-1.291-63.689-2.047-95.532c-0.557-23.536-1.342-47.064-1.941-70.601
		c-0.727-28.52-1.314-57.041-2.057-85.56c-0.578-22.204-1.189-44.411-2.002-66.608c-0.387-10.575-1.275-21.133-1.938-31.699
		c3.51-5.119,6.094-1.586,8.572,1.036c3.98,4.207,5.348,9.771,7.412,14.964c0,109-0.014,218,0.047,327
		C2048.048,1660.252,2048.876,1664.736,2042,1662.89z"/>
	<path fill="#5A8ABF" d="M-140,1662.89c1.335-1.334,2.67-2.667,4.005-4c0.701-0.926,1.547-1.691,2.531-2.301
		c13.343-5.767,27.855-6.25,41.853-8.896c38.934-7.355,78.057-13.686,117.102-20.438c4.533-0.785,9.164-2.239,13.693,0.139
		c3.164,2.545,2.578,6.184,1.613,9.11c-3.078,9.329-5.548,19.048-12.797,26.386C-28,1662.89-84,1662.89-140,1662.89z"/>
	<path fill="#BCD9EB" d="M-110-817.11c-5.742,1.126-11.443,2.569-17.234,3.323c-28.162,3.669-56.351,7.142-84.527,10.703
		c-27.518,3.479-55.034,6.972-82.543,10.521c-1.273,0.165-2.466,0.953-3.695,1.451c-0.665-2-1.33-4-1.995-5.999
		c-6.923-5.548-8.54-12.158-4.005-20C-239.333-817.11-174.667-817.11-110-817.11z"/>
	<path fill="#8EB0D8" d="M1524-783.111c-11.574-3.975-23.207-7.788-34.709-11.959c-16.85-6.108-33.621-12.434-50.381-18.784
		c-1.791-0.679-3.281-2.151-4.91-3.256c24,0,48,0,72,0C1514.781-807.25,1523.423-797.315,1524-783.111z"/>
	<path fill="#8CAAD5" d="M1524-783.111c-4.678-8.349-9.424-16.66-13.998-25.064c-1.557-2.856-2.68-5.95-4.002-8.935c18,0,36,0,54,0
		c1.719,4.823-2.078,7.252-4.621,9.989c-8.297,8.93-16.986,17.446-27.367,24.019l-0.021-0.011
		C1526.66-783.112,1525.33-783.111,1524-783.111z"/>
	<path fill="#86A0CD" d="M1528.011-783.102c8.031-8.368,16.09-16.71,24.078-25.12c2.73-2.874,5.279-5.92,7.91-8.888c12,0,24,0,36,0
		c-14,7.333-27.926,14.813-42.027,21.944C1545.46-790.862,1536.673-787.105,1528.011-783.102z"/>
	<path fill="#ABCDE7" d="M-1448,582.89c4.094,4.168,8.164,8.361,12.291,12.497c3.196,3.203,6.464,6.334,9.7,9.498
		c0.512,0.442,0.683,0.888,0.513,1.333c-0.17,0.443-0.34,0.667-0.511,0.666c-7.331,2.002-14.662,4.004-21.992,6.006
		C-1448,602.89-1448,592.89-1448,582.89z"/>
	<path fill="#5481B8" d="M28,1662.89c2.365-6.729,4.724-13.459,7.098-20.186c1.626-4.604,3.274-9.203,4.913-13.805
		c0.332-0.175,0.663-0.349,0.995-0.523c0.333,0.174,0.666,0.346,0.999,0.518c1.332,11.332,2.663,22.664,3.995,33.996
		C40,1662.89,34,1662.89,28,1662.89z"/>
	<path fill="#C6DDEE" d="M-304-817.11c1.335,6.667,2.67,13.333,4.005,20c-0.754,0.753-2.107,2.218-2.177,2.16
		c-8.671-7.314-17.247-14.74-25.828-22.16C-320-817.11-312-817.11-304-817.11z"/>
	<path fill="#2466A8" d="M2034.029,1306.912c4.656-12.008,9.313-24.015,13.971-36.021c0,11.333,0,22.667,0,34
		C2043.916,1309.518,2039.476,1311.692,2034.029,1306.912z"/>
	<path fill="#A2C7E4" d="M359.99-795.12c2.004-7.329,4.006-14.659,6.01-21.989c6,0,12,0,18,0
		C375.996-809.78,367.994-802.449,359.99-795.12z"/>
	<path fill="#175A9F" d="M2034.029,1306.912c4.658-0.674,9.313-1.348,13.971-2.021c0,8,0,16,0,24
		c-3.258-4.505-6.283-9.211-9.9-13.408c-1.291-1.498-4.014-1.764-6.084-2.592c0.002-1.326,0.006-2.652,0.008-3.979
		c0.105-1.216,1.359-1.304,1.982-2.012L2034.029,1306.912z"/>
	<path fill="#3783BF" d="M1706.011,554.901c-15.328,64.609-30.621,129.229-45.996,193.827
		c-14.299,60.085-28.709,120.144-43.021,180.226c-12.158,51.032-24.314,102.064-36.35,153.126
		c-9.902,42.004-19.625,84.05-29.455,126.07c-0.225,0.956-0.777,1.835-1.18,2.751c0.002,0-0.01-0.011-0.01-0.011
		c-6.254,1.844-9.904-2.876-13.896-5.954c-39.279-30.276-78.479-60.664-117.563-91.192
		c-94.959-74.17-190.275-147.878-285.369-221.876c-5.746-4.471-11.713-8.684-16.027-14.732c-0.184-1.002-0.117-1.979,0.133-2.945
		c1.947-4.729,6.385-6.641,10.412-8.854c75.266-41.339,150.846-82.104,226.207-123.265c84.125-45.943,168.396-91.614,252.41-137.766
		c29.463-16.186,58.91-32.405,88.66-48.065c3.432-1.806,6.902-4.534,11.023-1.377L1706.011,554.901z"/>
	<path fill="#B7D4E9" d="M-972.001-473.112c0.001-0.663,0.005-1.326,0.012-1.989c1.33-0.001,2.661-0.003,3.991-0.005
		c46.283,9.515,90.976,24.691,136.068,38.414c27.722,8.435,55.532,16.57,83.259,24.99c46.535,14.134,93.182,27.9,139.669,42.191
		c27.375,8.415,55.175,15.415,82.252,24.806c0.844,0.608,1.393,1.428,1.655,2.417c-0.284,5.649-4.657,8.709-8.245,11.955
		c-20.486,18.533-41.076,36.953-61.701,55.333c-29.567,26.351-58.908,52.95-88.602,79.161
		c-47.906,42.289-95.176,85.292-142.995,127.686c-35.112,31.129-70.015,62.51-104.816,93.992
		c-32.583,29.477-65.568,58.506-98.439,87.657c-4.075,3.614-7.813,9.751-15.225,7.076c-0.749-0.867-1.262-1.799-1.612-2.872
		c-2.253-14.846,2.057-29.171,3.702-43.615c6.784-59.522,14.323-118.963,21.557-178.436c6.067-49.896,12.431-99.762,18.443-149.665
		c5.733-47.584,11.486-95.17,17.435-142.724C-982.389-422.362-982.313-448.698-972.001-473.112z"/>
	<path fill="#B8D4EA" d="M-526-343.11c-13.099-3.165-26.343-5.832-39.268-9.594c-34.342-9.989-68.579-20.339-102.791-30.765
		c-23.423-7.138-46.678-14.826-70.113-21.92c-16.126-4.88-32.517-8.885-48.639-13.774c-24.42-7.405-48.658-15.412-73.073-22.833
		c-14.563-4.426-29.421-7.885-43.961-12.376c-21.471-6.633-42.777-13.797-64.153-20.734c14.821,1.511,29.65,2.951,44.463,4.55
		c16.118,1.738,32.223,3.61,48.331,5.449c15.451,1.765,30.896,3.594,46.35,5.335c14.147,1.594,28.304,3.098,42.455,4.656
		c16.772,1.847,33.538,3.757,50.316,5.551c14.487,1.55,28.997,2.898,43.48,4.478c15.133,1.649,30.239,3.541,45.372,5.188
		c15.468,1.684,30.961,3.135,46.431,4.809c15.134,1.64,30.244,3.506,45.379,5.135c15.797,1.7,31.611,3.235,47.418,4.844
		c0.67,0.003,1.341,0.007,2.011,0.01c3.353,3.35,2.418,7.396,1.455,11.188c-5.124,20.164-9.535,40.498-14.635,60.665
		C-520.202-349.173-521.063-344.69-526-343.11z"/>
	<path fill="#87ADD7" d="M-1203.996,1284.89c-2-0.663-4.001-1.326-6.001-1.99c6.214,1.207,8.889-3.121,11.654-7.392
		c16.059-24.804,32.134-49.598,48.215-74.388c31.618-48.742,63.274-97.462,94.851-146.231c11.185-17.274,22.183-34.669,33.266-52.01
		c-0.419-2.111,0.77-2.369,2.414-2.106c15.33,11.437,25.493,27.967,39.908,40.38c22.222,19.138,41.984,40.845,62.857,61.393
		c57.382,56.487,115.067,112.668,171.785,169.827c4.882,4.921,10.422,9.344,13.604,15.773c0.148,0.984-0.052,1.895-0.544,2.744
		c0,0-0.027-0.01-0.028-0.01C-889.342,1288.884-1046.669,1286.886-1203.996,1284.89z"/>
	<path fill="#B8D6EA" d="M-972.001-473.112c-3.352,27.624-6.591,55.263-10.088,82.869c-2.998,23.661-6.477,47.263-9.397,70.934
		c-2.436,19.733-4.26,39.542-6.56,59.293c-2.109,18.103-4.493,36.173-6.756,54.258c-1.728,13.806-3.483,27.607-5.178,41.417
		c-2.179,17.765-4.286,35.537-6.467,53.302c-1.815,14.792-3.67,29.58-5.546,44.364c-2.542,20.046-5.246,40.073-7.646,60.136
		c-2.284,19.085-4.117,38.226-6.43,57.307c-2.231,18.416-4.911,36.776-7.197,55.187c-0.612,4.932-0.509,9.951-0.733,14.93
		c-6.206,3.328-9.426-1.668-12.344-5.182c-15.517-18.678-31.847-36.626-48.108-54.638c-21.602-23.929-42.983-48.053-64.749-71.834
		c-10.09-11.024-20.35-21.924-28.794-34.336c-4.001-0.667-8.002-1.333-12.003-1.999c3.485-0.015,7.058,0.432,10.421-0.212
		c2.027-0.389,3.729-2.472,5.578-3.792c7.056-12.781,14.351-25.438,21.117-38.372c12.646-24.18,24.896-48.566,37.476-72.782
		c24.842-47.829,49.778-95.609,74.706-143.394c14.924-28.609,29.879-57.202,44.866-85.777
		c13.751-26.218,27.554-52.407,41.376-78.587C-973.854-471.166-972.83-472.087-972.001-473.112z"/>
	<path fill="#5895C8" d="M1819.99,214.89c0.006,0.667,0.014,1.333,0.02,2c0.002,0,0.002,0.039,0.002,0.039
		c-2.5,4.683-6.717,7.087-11.422,9.136c-96.125,41.864-192.389,83.409-288.604,125.063
		c-55.594,24.068-111.053,48.447-166.781,72.196c-5.443,2.319-11.447,6.903-17.215,0.023c-5.707-16.616-5.611-34.094-7.707-51.184
		c-7.484-60.995-14.273-122.074-21.498-183.103c-4.92-41.567-9.4-83.188-14.479-124.739c-0.488-3.995,0.336-7.974-0.262-11.925
		c0.037-1.147,0.334-2.242,0.855-3.249c5.027-5.09,10.563-2.252,15.867-0.762c25.678,7.215,50.855,16.035,76.221,24.233
		c86.887,28.084,173.924,55.708,260.773,83.906c51.029,16.568,102.227,32.623,153.266,49.17
		C1806.345,208.072,1813.433,210.842,1819.99,214.89z"/>
	<path fill="#6398C9" d="M1819.99,214.89c-3.574-0.642-7.275-0.885-10.699-1.985c-29.775-9.577-59.477-19.38-89.246-28.979
		c-57.625-18.581-115.281-37.067-172.922-55.605c-36.102-11.61-72.176-23.31-108.301-34.851
		c-44.994-14.375-90.018-28.655-135.061-42.877c-3.113-0.983-6.486-1.146-9.74-1.691c-0.578-0.811-0.766-1.701-0.572-2.678
		c0.717-1.867,2.039-3.214,3.678-4.283c79.563-68.364,159.428-136.376,239.264-204.426c5.828-4.97,10.504-12.457,19.609-12.619
		c0.668,0.003,1.334,0.006,2,0.008c4.664,7.989,8.955,16.224,14.059,23.92c15.262,23.012,30.83,45.82,46.297,68.696
		c33.172,49.061,66.35,98.117,99.535,147.168c30.576,45.19,61.156,90.38,91.762,135.551
		C1813.003,205.185,1816.539,210.01,1819.99,214.89z"/>
	<path fill="#7CA2D1" d="M1664-401.132c-0.666,0.672-1.332,1.345-2,2.019c-10.297,8.763-22.969,13.271-34.904,18.938
		c-37.832,17.97-75.629,36.01-113.459,53.979c-4.723,2.242-9.191,5.635-15.021,4.271c-1.055-0.488-1.861-1.2-2.488-2.151
		c-0.543-1.025-0.922-2.092-1.172-3.222c-5.152-25.147-7.494-50.688-10.705-76.087c-7.057-55.792-13.777-111.63-20.943-167.408
		c-7.635-59.414-14.922-118.871-22.586-178.28c-0.385-2.98-0.486-5.979,0.111-8.884c1.971-6.61,5.391-6.861,9.791-2.006
		c2.02,2.229,3.451,4.891,5,7.45c63.242,104.484,127.09,208.601,190.34,313.08c5.17,8.54,8.605,17.954,14.037,26.325
		C1661.333-409.118,1662.666-405.125,1664-401.132z"/>
	<path fill="#81A4D2" d="M1660-413.11c-6.178-9.039-12.75-17.836-18.469-27.157c-27.426-44.699-54.666-89.514-81.885-134.341
		c-27.563-45.396-55.031-90.849-82.527-136.283c-9.795-16.187-19.52-32.414-29.416-48.537c-0.588-0.957-2.439-1.139-3.703-1.681
		c-4.57-0.697-3.438-3.297-2-5.998v-0.004c17.912-2.973,35.824-5.938,53.734-8.918c10.094-1.68,20.182-3.383,30.273-5.074
		c12.928,35.229,25.877,70.453,38.773,105.692c10.734,29.328,21.357,58.696,32.121,88.014
		c18.664,50.833,37.436,101.627,56.064,152.474C1655.593-427.755,1657.669-420.386,1660-413.11z"/>
	<path fill="#96BEDF" d="M-1329.997,934.89c-2.667-0.664-5.333-1.329-8-1.993c5.104,0.101,6.227-2.093,4.772-6.934
		c-3.923-13.052-7.346-26.25-11.165-39.333c-12.578-43.084-25.219-86.149-37.881-129.209
		c-10.506-35.728-21.082-71.434-31.615-107.151c-3.48-11.8-6.887-23.621-10.413-35.407c-0.813-2.716-1.889-5.292,2.298-5.978
		c5.715-4.009,10.979-0.378,16.102,1.315c58.841,19.456,117.506,39.451,176.425,58.667c97.877,31.922,195.541,64.478,293.175,97.158
		c2.349,1.25,4.886,2.219,6.649,4.354c0.444,1.021,0.454,2.054,0.049,3.078c-2.975,3.968-7.618,5.229-11.88,6.963
		c-121.289,49.377-242.581,98.75-363.762,148.392c-7.357,3.014-14.711,5.771-22.759,6.071
		C-1328.667,934.887-1329.332,934.889-1329.997,934.89z"/>
	<path fill="#8FB9DD" d="M-1328.001,934.885c25.44-10.6,50.854-21.259,76.327-31.778c36.259-14.975,72.536-29.908,108.854-44.738
		c32.009-13.07,64.09-25.966,96.13-38.96c34.813-14.118,69.606-28.286,104.437-42.362c3.992-1.613,8.163-2.784,12.251-4.161
		c0.709,0.813,1.066,1.76,1.083,2.83c-0.916,4.575-2.432,8.972-4.16,13.311c-26.752,67.185-54.095,134.131-80.281,201.539
		c-1.338,3.443-3.117,6.607-5.305,9.568c-0.443,0.259-0.888,0.511-1.332,0.763c-0.672,0.662-1.343,1.323-2.014,1.985
		c-19.692-4.599-39.344-9.38-59.086-13.755c-37.574-8.322-75.203-16.395-112.802-24.604c-42.457-9.271-84.906-18.574-127.354-27.883
		C-1323.522,936.142-1325.753,935.474-1328.001,934.885z"/>
	<path fill="#317EBC" d="M1118,876.89c11.926,8.932,23.955,17.727,35.756,26.818c40.711,31.368,81.447,62.705,121.975,94.311
		c44.193,34.463,88.072,69.327,132.266,103.792c27.457,21.413,55.25,42.397,82.873,63.598
		c19.727,15.141,39.422,30.319,59.133,45.481c0,0.667,0,1.333,0,2c-0.025,0.476-0.051,0.951-0.068,1.423
		c-7.707,10.983-18.609,18.774-28.346,27.647c-25.527,23.265-51.076,46.511-76.697,69.674
		c-34.49,31.178-68.609,62.764-103.318,93.701c-10.115,9.016-18.703,19.938-31.58,25.543v0.002c-0.664,0-1.326,0.005-1.99,0.01
		c-4,0-8,0-12,0c7.203-6.426,4.445-13.5,1.764-20.922c-20.936-57.896-40.355-116.32-60.564-174.469
		c-17.805-51.233-35.508-102.515-53.076-153.837c-13.9-40.61-27.717-81.254-42.131-121.692
		c-9.037-25.354-17.613-50.892-25.674-76.585c-0.41-1.309-0.334-2.623-0.092-3.958C1116.55,878.387,1117.146,877.547,1118,876.89z"
		/>
	<path fill="#216DB1" d="M2034.005,1306.9c-0.662,0.671-1.324,1.342-1.984,2.012c-42.393,21.521-84.838,42.938-127.164,64.586
		c-44.98,23.005-89.84,46.241-134.766,69.349c-26.012,13.378-52.053,26.698-78.082,40.045c-2.67-0.667-5.34-1.334-8.01-2
		c-1.693-2.646,6.783,1.33,2.406-4.5c-10.01-13.332-16.137-29.063-23.93-43.748c-28.563-53.822-56.805-107.818-85.316-161.67
		c-8.258-15.596-16.1-31.408-24.568-46.892c-1.896-3.469-4.408-6.843-2.592-11.19c13.055,2.243,26.168,4.19,39.154,6.78
		c54.281,10.827,108.504,21.943,162.785,32.769c53.643,10.697,107.336,21.129,160.99,31.756
		c36.73,7.275,73.428,14.727,110.162,21.973C2026.64,1306.867,2030.363,1306.677,2034.005,1306.9z"/>
	<path fill="#9EC7E3" d="M242-521.106c5.327,0.663,10.655,1.326,15.983,1.989c0.245,0.435,0.489,0.867,0.741,1.303
		c0.517,2.601-0.22,4.979-1.273,7.312c-10.826,32.518-23.979,64.154-36.071,96.189c-34.877,92.398-70.202,184.629-105.242,276.967
		c-1.653,4.356-3.153,8.793-6.909,11.926c-1.413,0.849-2.857,0.877-4.307,0.147c-21.08-21.713-40.879-44.641-61.121-67.149
		c-26.703-29.694-53.394-59.405-80.049-89.145c-46.229-51.575-92.498-103.115-138.98-154.463
		c-27.25-30.104-54.152-60.52-81.541-90.497c-4.266-4.669-10.342-8.746-9.23-16.583c25.23,0.677,50.469,1.131,75.688,2.089
		c28.165,1.067,56.311,2.619,84.467,3.913c29.818,1.371,59.639,2.678,89.458,4.027c29.154,1.319,58.308,2.662,87.461,3.988
		c29.486,1.341,58.975,2.642,88.459,4.019C187.023-523.791,214.511-522.431,242-521.106z"/>
	<path fill="#A4CCE3" d="M-266-543.11c11.329,12.996,22.602,26.042,34.001,38.976c15.133,17.168,30.28,34.324,45.579,51.345
		c14.406,16.027,29.104,31.796,43.518,47.815c20.611,22.909,41.021,45.997,61.63,68.908c15.52,17.254,31.318,34.257,46.807,51.539
		c20.809,23.22,41.395,46.639,62.165,69.892c8.184,9.161,16.729,18,24.9,27.172c17.871,20.058,35.608,40.231,53.4,60.358
		c-4.852,4.137-9.546,1.037-14.067-0.563c-45.558-16.123-90.95-32.703-136.421-49.064c-87.805-31.598-175.588-63.252-263.377-94.895
		c-29.785-10.735-59.651-21.249-89.3-32.364c-3.735-1.401-7.624-2.529-10.509-5.546c-0.678-0.797-1.133-1.716-1.384-2.713
		c-0.288-5.37,2.926-9.408,5.483-13.627c42.961-70.862,85.055-142.252,128.819-212.629c1.055-1.694,1.774-3.577,2.843-5.283
		c1.068-1.152,2.242-1.979,3.912-1.327l-0.003,0.02C-267.335-544.435-266.668-543.773-266-543.11z"/>
	<path fill="#418AC3" d="M404.005,1576.89c-0.66,0-1.32,0.004-1.979,0.01c0,0.001-0.031-0.031-0.031-0.031
		c-7.988-10.302-6.072-22.958-7.48-34.563c-8.1-66.712-16.053-133.442-23.902-200.186c-8.939-75.998-18.248-151.954-26.732-228.006
		c-1.799-16.13-5.723-32.099-4.266-48.453c4.125-7.6,9.836-3.67,14.545-1.279c16.936,8.592,33.77,17.4,50.537,26.313
		c38.543,20.485,77.404,40.355,115.988,60.758c62.438,33.019,125.061,65.687,187.646,98.414
		c80.016,41.844,160.02,83.709,240.063,125.498c38.689,20.198,77.264,40.623,115.896,60.931c3.506,1.842,7.314,3.367,9.422,7.113
		c0.104,0.495,0.195,0.988,0.287,1.481c-0.666,0.667-1.332,1.333-2,2c-16.99,2.892-34.039,5.473-50.959,8.729
		c-49.85,9.596-99.643,19.476-149.465,29.213c-42.014,8.211-84.031,16.399-126.053,24.563
		c-57.646,11.197-115.311,22.296-172.941,33.559c-48.852,9.546-97.676,19.239-146.498,28.938
		C418.685,1573.361,411.363,1575.215,404.005,1576.89z"/>
	<path fill="#6E9FCD" d="M1556-175.105c-21.371,18.356-42.66,36.812-64.135,55.048c-24.756,21.021-49.783,41.723-74.49,62.802
		c-20.934,17.86-41.479,36.173-62.377,54.075c-18.873,16.168-37.992,32.051-57.004,48.06c-3.705-5.345,0.117-9.637,2.377-13.761
		c22.414-40.899,44.938-81.741,67.404-122.614c35.461-64.52,70.953-129.021,106.414-193.543c4.813-8.759,9.703-17.474,14.414-26.291
		c2.293-4.287,4.283-9.23,9.99-10.429c5.031,1.188,6.314,5.58,7.859,9.521c16.094,41.069,31.783,82.296,47.693,123.438
		c1.465,3.785,2.059,7.665,1.854,11.692C1556-176.44,1556-175.772,1556-175.105z"/>
	<path fill="#739ECD" d="M1556-177.107c-4.654-10.961-9.602-21.809-13.906-32.902c-13.721-35.351-27.184-70.802-40.828-106.182
		c-0.689-1.793-2.158-3.287-3.266-4.92c-0.461-0.667-0.479-1.331,0.012-1.993c2.18-0.758,4.455-1.313,6.521-2.307
		c36.18-17.367,72.328-34.808,108.5-52.192c13.449-6.464,26.91-12.906,40.451-19.174c2.635-1.22,5.668-1.581,8.516-2.338
		c-1.211,3.745-2.002,7.694-3.697,11.206c-13.744,28.458-27.74,56.796-41.498,85.246c-16.215,33.531-32.24,67.153-48.408,100.708
		C1564.378-193.615,1560.138-185.386,1556-177.107z"/>
	<path fill="#95BFE0" d="M362-787.108c-0.104-4.416,1.238-6.155,5.965-4.082c12.777,5.605,25.738,10.789,38.533,16.354
		c21.604,9.397,43.182,18.854,64.682,28.487c17.541,7.859,34.877,16.176,52.434,23.999c33.082,14.74,66.275,29.222,99.383,43.907
		c18.527,8.219,36.936,16.703,55.461,24.931c15.686,6.966,31.479,13.688,47.178,20.627c3.627,1.604,6.967,3.852,10.586,5.475
		c42.117,18.897,84.25,37.761,126.424,56.534c3.615,1.609,7.545,2.52,11.326,3.753l0.041,0.018c0.158,0.579,0.318,1.157,0.479,1.737
		c-0.604,1.071-1.439,1.91-2.492,2.526c-20.348,5.35-41.365,6.527-62.09,9.5c-60.627,8.696-121.328,16.886-182.012,25.2
		c-63.979,8.767-127.941,17.651-191.936,26.316c-5.549,0.752-11.242,0.328-16.762,1.642c-1.193,0.04-2.379,0.079-3.568,0.128
		c-4.773,0.313-9.816,1.314-12.105-4.698c7.195-6.329,5.172-14.147,3.617-22.003c-12.152-61.422-23.555-122.987-35.512-184.447
		c-4.006-20.591-8.275-41.139-11.631-61.853C359.212-777.909,357.537-782.968,362-787.108z"/>
	<path fill="#9AC4E2" d="M362-787.108c2.795,16.622,5.307,33.297,8.439,49.854c8.357,44.205,17.021,88.354,25.49,132.537
		c5.666,29.565,11.18,59.161,16.814,88.733c1.957,10.275,1.988,10.315-8.744,10.875c-2.936,3.627-7.008,3.498-10.988,3.049
		c-41.586-4.688-83.234-8.778-124.829-13.393c-3.703-0.41-7.185-1.333-10.181-3.659l-0.017-0.008
		c7.021-19.316,13.971-38.66,21.081-57.944c10.557-28.63,21.243-57.212,31.847-85.825c15.789-42.609,31.547-85.23,47.357-127.832
		c0.33-0.889,1.141-1.6,1.727-2.394C360.664-791.112,361.332-789.11,362-787.108z"/>
	<path fill="#B4D3E8" d="M-268-545.117c-0.667,0.67-1.333,1.339-2,2.008c-4.233,5.333-9.696,8.916-15.834,11.778
		c-56.426,26.322-111.567,55.222-166.89,83.737c-13.024,6.714-26.21,13.048-39.363,19.469c-3.785,1.849-7.592,4.8-11.908,1.019
		c13.181-23.465,26.328-46.947,39.549-70.389c13.22-23.438,26.522-46.83,39.771-70.255c15.374-27.185,30.697-54.397,46.099-81.567
		c12.778-22.542,25.683-45.014,38.45-67.562c12.279-21.684,24.419-43.446,36.725-65.114c1.458-2.567,3.582-4.758,5.397-7.122
		c2.524,19.989,5.134,39.971,7.549,59.975c2.259,18.705,4.237,37.443,6.478,56.15c2.357,19.683,4.876,39.346,7.328,59.016
		c2.208,17.711,4.417,35.422,6.635,53.132C-269.359-555.599-268.673-550.359-268-545.117z"/>
	<path fill="#B0D1E7" d="M-503.995-427.107c12.924-5.806,25.96-11.374,38.733-17.493c8.937-4.282,17.438-9.461,26.265-13.986
		c32.199-16.513,64.366-33.091,96.714-49.307c23.959-12.01,48.18-23.497,72.283-35.217c-5.24,9.541-10.181,19.262-15.773,28.593
		c-22.32,37.243-44.784,74.401-67.312,111.521c-18.217,30.018-36.601,59.932-54.909,89.892c-3.823,4.081-8.521,3.052-13.034,1.97
		c-31.94-7.656-63.76-15.81-95.706-23.447c-3.832-0.916-7.865-1.959-9.263-6.522c-0.001-0.668-0.002-1.335-0.003-2.003
		c6.669-27.331,13.338-54.662,20.008-81.993C-505.326-425.771-504.66-426.439-503.995-427.107z"/>
	<path fill="#83AAD5" d="M874.011-565.104c0-0.667-0.002-1.335-0.002-2.002c0.66-0.002,1.32-0.007,1.98-0.016
		c26.357-9.186,52.73-18.322,79.066-27.573c14.424-5.067,28.75-10.412,43.174-15.483c50.492-17.753,101.023-35.4,151.512-53.167
		c43.586-15.338,87.15-30.729,130.691-46.195c53.875-19.137,107.713-38.373,161.566-57.565c0.666,2,1.332,3.999,2,5.998
		c1.611,15.156,3.076,30.329,4.875,45.463c2.229,18.752,4.736,37.471,7.121,56.204c2.971,23.338,5.943,46.676,8.902,70.015
		c2.377,18.735,4.721,37.475,7.104,56.208c2.426,19.062,4.918,38.112,7.314,57.176c2.271,18.085,4.406,36.188,6.691,54.271
		c2.328,18.407,4.834,36.791,7.131,55.202c1.725,13.807,3.242,27.64,4.852,41.461c-4.828,4.173-9.723,1.208-14.082-0.499
		c-74.146-29.025-148.414-57.729-222.602-86.652c-79.154-30.859-158.439-61.386-237.615-92.196
		c-46.578-18.124-93.232-36.048-139.693-54.474C880.328-560.387,876.404-561.536,874.011-565.104z"/>
	<path fill="#4C8CC3" d="M1338.011,424.895c12.314-4.825,24.752-9.366,36.926-14.532c32.713-13.885,65.357-27.932,97.943-42.112
		c34.117-14.846,68.076-30.048,102.205-44.864c36.254-15.74,72.656-31.142,108.938-46.822c28.053-12.125,56.027-24.433,84.02-36.701
		c17.342-7.602,34.646-15.286,51.969-22.933c-4.834,15.521-9.504,31.094-14.557,46.543c-3.82,11.679-8.236,23.161-12.197,34.796
		c-14.248,41.841-28.316,83.744-42.645,125.56c-14.752,43.062-29.727,86.045-44.604,129.063c0.002,0-0.01,0-0.01,0
		c-5.318,2.229-10.395,0.693-15.43-1.051c-82.793-28.68-165.502-57.599-248.197-86.552c-31.129-10.898-62.387-21.434-93.428-32.581
		c-3.127-1.121-6.432-1.8-9.252-3.72c-0.883-0.657-1.521-1.494-1.936-2.505C1337.839,425.953,1337.925,425.425,1338.011,424.895z"/>
	<path fill="#2372B5" d="M1550,1212.89c17.637,32.784,35.463,65.469,52.852,98.383c14.604,27.643,28.547,55.635,43.063,83.323
		c14.057,26.81,28.336,53.506,42.826,80.084c3.734,6.853-0.404,6.26-4.74,6.21c-16.746-2.155-33.498-4.253-50.234-6.48
		c-18.369-2.445-36.729-4.971-55.082-7.537c-21.963-3.071-43.902-6.308-65.875-9.318c-17.055-2.337-34.152-4.363-51.213-6.67
		c-17.711-2.396-35.389-5.038-53.1-7.433c-21.654-2.927-43.322-5.745-64.994-8.532c-11.16-1.436-22.34-2.698-33.512-4.039
		c9.547-9.181,18.92-18.549,28.691-27.484c9.533-8.72,19.654-16.796,29.195-25.507c18.627-17.002,36.885-34.41,55.563-51.354
		c25.047-22.726,50.383-45.132,75.521-67.755c9.373-8.435,18.463-17.184,27.826-25.629
		C1534.414,1226.273,1542.253,1219.635,1550,1212.89z"/>
	<path fill="#6AA0CD" d="M-489.996,1450.901l-1-0.002l-0.999,0.001c-0.001-0.666-0.003-1.332-0.005-1.999
		c-0.319-5.075,2.792-8.788,5.226-12.688c84.441-135.34,169.294-270.42,253.919-405.645c30.377-48.541,60.115-97.493,91.637-145.383
		c1.4-1.133,2.928-1.508,4.66-1.088c1.087,0.592,1.847,1.447,2.322,2.588c4.222,10.543,2.518,21.8,3.392,32.636
		c2.538,31.483,4.743,63.01,7.07,94.516c2.278,30.833,4.538,61.674,6.994,92.495c1.743,21.875,3.202,43.785,4.862,65.674
		c2.439,32.157,4.649,64.332,7.226,96.48c1.727,21.546,3.077,43.126,4.729,64.682c2.489,32.485,4.917,64.979,7.235,97.477
		c1.369,19.2,4.063,38.37,3.008,57.72c-0.387,1.218-1.033,2.272-1.909,3.179c-7.072,3.092-14.431,1.503-21.575,0.766
		c-45.575-4.7-91.194-8.975-136.767-13.687c-43.264-4.471-86.553-8.704-129.814-13.194c-29.387-3.051-58.783-6.13-88.233-8.575
		C-475.728,1456.211-482.616,1452.677-489.996,1450.901z"/>
	<path fill="#74A5D1" d="M-140,886.89c-7.274,12.254-14.321,24.65-21.862,36.738c-37.495,60.108-75.096,120.151-112.71,180.188
		c-25.076,40.023-50.3,79.956-75.348,119.998c-39.51,63.162-78.871,126.418-118.434,189.548
		c-7.554,12.052-15.748,23.702-23.646,35.538c-5.201-2.822-10.659-5.258-15.56-8.529c-30.649-20.466-61.195-41.086-91.734-61.715
		c-40.713-27.502-81.368-55.091-122.121-82.533c-3.232-2.177-7.034-3.508-10.572-5.231c-0.003-0.663-0.005-1.326-0.005-1.989
		c0.169-0.456,0.339-0.912,0.504-1.369c0.535-0.814,1.173-1.544,1.896-2.189c27.812-20.042,56.342-39.062,84.68-58.346
		c115.03-78.282,229.736-157.041,344.715-235.397c48.687-33.18,97.258-66.53,145.939-99.72
		C-150.087,889.035-146.142,884.535-140,886.89z"/>
	<path fill="#B0D2E8" d="M-1197.995-45.107c2.916,2.013,6.324,3.571,8.66,6.117c9.407,10.242,18.468,20.805,27.686,31.224
		c15.146,17.12,30.268,34.263,45.487,51.317c12.58,14.097,25.362,28.013,37.908,42.139c7.253,8.167,13.97,16.821,21.413,24.804
		c3.719,3.987,8.526,6.958,12.841,10.389l0.003,0.02c0.672,0.945,0.71,1.916,0.117,2.915c-1.762,2.084-3.951,3.469-6.627,4.057
		c-8.925,3.715-18.095,6.743-27.263,9.785c-110.682,36.723-221.167,74.041-332.126,109.921c-5.138,1.661-10.387,5.323-16.104,1.316
		c0,0-0.001-0.016-0.001-0.017c8.939-11.929,17.703-23.993,26.849-35.763c32.772-42.168,65.599-84.294,98.546-126.324
		c32.333-41.248,64.854-82.349,97.236-123.557C-1201.335-39.354-1199.776-42.318-1197.995-45.107z"/>
	<path fill="#6597C8" d="M-489.996,1450.901c18.435,1.795,36.87,3.592,55.306,5.384c15.813,1.537,31.631,3.017,47.437,4.617
		c17.769,1.799,35.521,3.764,53.291,5.55c15.479,1.557,30.98,2.901,46.461,4.45c17.771,1.778,35.523,3.738,53.295,5.507
		c15.811,1.573,31.645,2.922,47.455,4.499c17.442,1.74,34.866,3.668,52.307,5.437c9.223,0.935,18.471,1.631,27.692,2.573
		c4.926,0.503,9.821,1.3,14.729,1.963c3.433,5.095,1.282,10.301,0.016,15.313c-11.996,47.462-24.112,94.893-36.538,142.244
		c-1.03,3.923-2.312,7.658-5.465,10.442c-0.661,0.007-1.322,0.011-1.984,0.011c-7.777-4.882-15.443-9.955-23.36-14.6
		c-10.57-6.197-21.409-11.938-32.003-18.097c-28.848-16.772-57.608-33.694-86.441-50.495c-16.021-9.333-32.189-18.415-48.152-27.845
		c-11.396-6.732-22.411-14.113-33.863-20.744c-20.339-11.776-41.021-22.963-61.299-34.84
		C-444.224,1478.734-467.048,1464.713-489.996,1450.901z"/>
	<path fill="#458DC4" d="M1338.011,426.895c5.785,1.369,11.738,2.252,17.33,4.183c42.133,14.55,84.191,29.317,126.281,43.989
		c59.369,20.694,118.74,41.384,178.127,62.031c15.387,5.35,30.832,10.532,46.25,15.792c-0.002,0.658-0.004,1.315-0.01,1.975
		c-4.125,2.06-8.307,4.019-12.369,6.194c-27.273,14.611-54.609,29.112-81.762,43.95c-38.523,21.053-76.867,42.432-115.363,63.537
		c-18.672,10.235-37.566,20.063-56.262,30.26c-33.871,18.473-67.656,37.106-101.504,55.624
		c-16.344,8.94-32.766,17.743-49.125,26.653c-36.514,19.889-73,39.825-109.52,59.702c-16.949,9.227-33.961,18.333-50.912,27.553
		c-3.793,2.062-7.453,4.364-11.174,6.558c-0.332-0.389-0.664-0.777-1-1.162c-0.402-0.958-0.566-1.957-0.518-2.981
		c0.533-4.044,2.582-7.52,4.367-11.076c34.207-68.111,67.354-136.748,101.332-204.975c35.609-71.501,70.514-143.354,106.521-214.657
		c2.238-4.434,4.002-9.189,7.912-12.592C1337.082,427.261,1337.546,427.079,1338.011,426.895z"/>
	<path fill="#327FBD" d="M1118,878.885c12.572,36.015,25.281,71.98,37.668,108.061c8.488,24.72,16.313,49.668,24.82,74.38
		c10.354,30.07,21.248,59.954,31.664,90.003c8.355,24.108,16.26,48.373,24.539,72.51c4.313,12.571,9.168,24.959,13.488,37.528
		c8.604,25.029,16.973,50.141,25.51,75.193c4.271,12.543,8.699,25.033,13.055,37.549c5.439,15.641,10.682,31.353,16.41,46.885
		c2.295,6.225,0.92,8.621-5.729,8.15c-1.096-0.078-2.281,1.131-3.426,1.746c-26.395,1.922-52.785,3.924-79.188,5.734
		c-13.549,0.93-27.117,1.559-40.684,2.256c-14.559,0.746-29.133,1.264-43.684,2.154c-18.824,1.153-37.631,2.577-56.447,3.887v-0.042
		c-2.791-2.899-2.973-6.551-2.949-10.257c0.143-22.283,1.963-44.49,3.738-66.668c1.773-22.183,3.197-44.392,5.07-66.567
		c2.826-33.429,4.807-66.923,7.504-100.368c1.654-20.521,3.154-41.077,4.537-61.63c2.299-34.14,4.844-68.256,7.529-102.367
		c1.615-20.531,3.123-41.082,4.424-61.638c1.846-29.182,4.475-58.301,6.363-87.479C1112.46,884.158,1112.523,879.599,1118,878.885z"
		/>
	<path fill="#3B88C1" d="M1118,878.885c-0.645,1.489-1.766,2.948-1.861,4.474c-0.816,13.249-1.193,26.529-2.197,39.763
		c-1.678,22.135-3.752,44.236-5.594,66.358c-0.824,9.912-1.594,19.832-2.211,29.76c-0.805,12.918-1.209,25.863-2.188,38.767
		c-1.703,22.465-3.74,44.903-5.586,67.358c-0.814,9.913-1.6,19.831-2.219,29.76c-0.809,12.916-1.217,25.861-2.193,38.765
		c-1.701,22.466-3.729,44.906-5.57,67.36c-0.813,9.913-1.605,19.83-2.229,29.758c-0.811,12.917-1.213,25.862-2.201,38.765
		c-1.746,22.796-4.01,45.552-5.652,68.354c-1.121,15.559-1.557,31.168-2.297,46.756c-0.668,0.003-1.334,0.006-2,0.01l-0.031-0.021
		c-3.527-4.557-5.475-9.616-6.514-15.388c-32.039-178.021-63.994-356.058-96.197-534.05c-0.99-5.472-2.615-11.22,1.676-16.294
		c5.043-4.046,11-4.449,17.016-4.26c30.813,0.972,61.502-3.317,92.322-2.144c6.963,0.267,13.715-2.236,20.744-1.912
		c5.336,0.246,10.633,0.278,14.984,4.029v0.042c0,0.665,0,1.33,0,1.995C1118,877.555,1118,878.22,1118,878.885z"/>
	<path fill="#9DC5E3" d="M-1049.983,124.906c1.992-0.674,3.985-1.349,5.979-2.023c2.555-1.658,4.032-0.729,4.776,1.974
		c-1.511,6.706,0.103,13.247,1.283,19.772c11.385,62.915,22.226,125.929,33.479,188.866
		c20.396,114.074,40.271,228.242,60.825,342.289c4.607,25.562,8.766,51.202,13.632,76.719c0.749,3.923,1.477,7.938,0.584,11.903
		c-0.748,3.319-1.738,6.893-6.577,4.484c-9.829-2.937-19.742-5.616-29.473-8.85c-68.191-22.649-136.315-45.5-204.517-68.119
		c-82.062-27.216-164.179-54.267-246.276-81.375c-1.888-0.624-3.821-1.11-5.733-1.661c-1.335-0.667-2.671-1.334-4.006-2
		c0.003-0.667,0.002-1.334-0.002-2l0.007,0.004c1.828-5.736,4.759-10.792,8.492-15.564
		c61.146-78.175,122.582-156.121,183.886-234.172c56.983-72.55,114.057-145.028,170.911-217.679
		C-1058.957,132.673-1054.261,129.055-1049.983,124.906z"/>
	<path fill="#5192C8" d="M342.074,1062.894c1.49,14.825,2.828,29.669,4.514,44.472c1.611,14.141,3.619,28.233,5.393,42.354
		c2.557,20.361,5.156,40.72,7.553,61.102c2.281,19.405,4.213,38.853,6.5,58.258c2.326,19.724,4.984,39.408,7.336,59.13
		c1.686,14.141,3.041,28.319,4.652,42.47c2.172,19.083,4.422,38.157,6.689,57.229c1.721,14.463,3.527,28.914,5.293,43.371
		c2.486,20.371,5.08,40.729,7.42,61.116c1.699,14.805,3.061,29.647,4.572,44.475c-1.332,0.007-2.664,0.015-3.996,0.021
		c-27.162,0.337-53.354-6.562-79.809-11.126c-129.75-22.391-259.424-45.216-389.208-67.409c-5.89-1.007-11.84-1.904-17.103-4.975
		c-0.932-0.481-1.704-1.195-2.264-2.075c-0.776-5.391,2.992-8.503,6.224-11.74c50.104-50.181,99.536-101.063,150.671-150.173
		c31.938-30.674,63.373-61.83,94.498-93.287c55.726-56.317,113.76-110.283,169.192-166.892c2.969-3.032,5.707-6.66,10.568-6.93
		C341.21,1062.486,341.642,1062.69,342.074,1062.894z"/>
	<path fill="#548EC4" d="M-90,1490.89c40.439,7.137,80.858,14.391,121.323,21.378c40.795,7.045,81.656,13.698,122.448,20.761
		c35.573,6.158,71.075,12.733,106.637,18.96c32.949,5.771,65.957,11.204,98.894,17.026c12.959,2.291,25.803,5.229,38.697,7.875
		c-11.313,1.99-22.584,4.256-33.943,5.91c-21.926,3.191-43.912,5.977-65.855,9.048c-20.963,2.934-41.904,6.021-62.856,9.032
		c-21.277,3.059-42.549,6.165-63.838,9.145c-21.617,3.025-43.274,5.771-64.875,8.916c-21.567,3.141-43.086,6.622-64.626,9.953
		L42,1628.859c-4.602-3.288-8.775-7.04-12.739-11.087c-31.86-32.53-65.003-63.794-95.807-97.375
		c-6.033-6.577-13.77-11.517-19.704-18.298C-89.027,1498.926-92.657,1495.928-90,1490.89z"/>
	<path fill="#A8CCE6" d="M-1049.983,124.906c-5.979,8.261-11.687,16.737-17.984,24.747c-35.27,44.85-70.773,89.513-106.009,134.387
		c-25.197,32.091-49.948,64.531-75.169,96.604c-33.424,42.502-67.214,84.715-100.652,127.206
		c-22.36,28.414-44.361,57.111-66.575,85.641c-3.054,3.922-6.412,7.606-9.629,11.4c0-21.321,0.257-42.646-0.066-63.962
		c-0.382-25.251-1.739-50.493-1.839-75.742c-0.269-67.546-0.131-135.094-0.007-202.642c0.009-4.551,1.248-9.1,1.914-13.648
		c60.015-19.674,120.067-39.233,180.033-59.054c63.458-20.975,126.833-42.197,190.249-63.299
		C-1053.834,125.917-1051.896,125.449-1049.983,124.906z"/>
	<path fill="#5C91C5" d="M-90,1490.89c5.019,6.016,9.684,12.376,15.142,17.962c7.346,7.517,15.558,14.185,22.952,21.655
		c29.66,29.968,59.179,60.074,88.637,90.24c2.209,2.262,3.534,5.388,5.27,8.11c-0.663,0.017-1.326,0.029-1.989,0.041
		c-17.938,2.978-35.892,5.855-53.81,8.95c-36.504,6.304-72.987,12.722-109.479,19.098c-3.581,0.626-7.155,1.287-10.733,1.934
		c3.502-14.831,6.816-29.709,10.542-44.482c10.391-41.195,20.952-82.349,31.446-123.518c0.013-0.66,0.022-1.32,0.027-1.979
		c0.663-0.705,1.327-0.705,1.99,0C-90.004,1489.564-90.002,1490.227-90,1490.89z"/>
	<path fill="#A9CEE5" d="M-1039.997,124.89c-1.336-0.669-2.672-1.339-4.008-2.009c0.004-0.659,0.007-1.32,0.008-1.98
		c13.474-11.811,26.928-23.645,40.428-35.423c14.5-12.65,29.076-25.214,43.556-37.889c7.246-6.343,14.383-12.811,21.513-19.283
		c15.245-13.842,30.355-27.832,45.698-41.563c23-20.585,46.161-40.989,69.236-61.491c12.906-11.467,25.786-22.962,38.66-34.466
		c18.564-16.588,37.127-33.178,55.663-49.799c13.844-12.414,27.584-24.944,41.477-37.304c22.813-20.296,45.79-40.407,68.549-60.765
		c15.843-14.172,31.373-28.69,47.157-42.93c15.278-13.783,30.703-27.404,46.063-41.097c23.798,5.968,47.59,11.957,71.396,17.896
		c11.599,2.894,23.197,5.793,34.845,8.479c3.842,0.886,7.837,1.104,11.762,1.628c0.002,0.669,0.004,1.338,0.006,2.007
		c0.095,0.496,0.19,0.991,0.288,1.483c-2.18,14.45-10.194,26.627-16.262,39.398C-456.847-201-489.59-131.715-522.329-62.432
		c-43.701,92.477-87.749,184.792-131.209,277.384c-5.429,11.565-8.933,24.459-18.857,33.631c-4.432,1.557-8.576,0.075-12.659-1.299
		c-114.448-38.499-228.939-76.87-343.371-115.418C-1032.712,130.421-1037.69,129.772-1039.997,124.89z"/>
	<path fill="#87B0D8" d="M-731.992,1288.901c-4.152-3.819-8.441-7.503-12.435-11.483c-25.481-25.393-50.861-50.888-76.367-76.256
		c-4.69-4.665-10.003-8.703-14.695-13.365c-45.288-45.001-90.514-90.065-135.738-135.131c-15.02-14.969-30.035-29.941-44.91-45.054
		c-1.753-1.78-2.596-4.456-3.86-6.717l-0.006-0.016c8.021-9.979,20.097-13.865,30.69-19.72
		c35.374-19.546,70.889-38.844,106.376-58.186c2.908-1.585,5.761-3.318,9.237-3.452c1.066,0.06,2.036,0.366,2.942,0.896
		c8.635,12.445,12.861,26.911,18.105,40.827c24.767,65.722,50.063,131.239,74.999,196.896
		c14.653,38.582,29.653,77.032,44.184,115.662c1.8,4.786,5.028,9.68,1.479,15.097H-731.992L-731.992,1288.901z"/>
	<path fill="#6BA4D0" d="M1294.011,46.908c-0.002,0.664,0.002,1.328,0.01,1.993c-0.021,0.657-0.035,1.314-0.041,1.973
		c-1.096,5.235-4.906,8.579-8.486,12.04c-30.184,29.174-58.436,60.232-87.75,90.252c-34.887,35.726-68.768,72.44-104.186,107.663
		c-3.512,3.492-6.611,7.565-11.596,9.316c-1.066,0.147-2.068,0.022-3.059-0.357c-1.475-0.892-2.266-2.229-2.643-3.857
		c-9.77-44.599-21.719-88.655-32.641-132.965c-29.984-121.636-61.574-242.867-91.555-364.505c-1.418-5.756-3.857-11.46-2.057-17.574
		c5.771-6.639,9.643-0.305,13.105,2.618c18.063,15.244,35.709,30.979,53.5,46.542c89.713,78.471,179.369,157.002,269.047,235.512
		C1289.166,38.622,1294.648,40.635,1294.011,46.908z"/>
	<path fill="#5C9BCB" d="M1082.011,268.896c8.521-8.86,16.998-17.764,25.572-26.573c25.973-26.69,52.023-53.307,77.965-80.029
		c17.131-17.646,34.131-35.422,51.18-53.147c16.355-17.008,32.674-34.054,49.078-51.014c2.527-2.61,5.439-4.849,8.174-7.259
		c1.307,7.457,2.943,14.872,3.857,22.377c3.473,28.535,6.824,57.087,10.004,85.657c3.547,31.865,6.654,63.781,10.33,95.631
		c2.918,25.273,6.607,50.457,9.574,75.726c2.393,20.354,4.156,40.779,6.318,61.161c1.186,11.171,2.621,22.314,3.945,33.471v0.006
		c-6.109,2.461-10.152-2.078-14.461-4.702c-58.336-35.512-116.551-71.219-174.855-106.782
		c-19.34-11.797-38.656-23.628-57.885-35.607C1087.218,275.57,1082.941,273.836,1082.011,268.896z"/>
	<path fill="#72A5D0" d="M1294.011,46.908c-39.781-34.779-79.543-69.58-119.35-104.329c-30.799-26.885-61.703-53.649-92.475-80.565
		c-40.779-35.669-81.469-71.444-122.23-107.133c-2.49-2.181-5.297-4-7.957-5.986c-0.602-1.162-0.559-2.3,0.115-3.412
		c2.398-3.243,5.984-3.998,9.654-4.485c57.688-7.659,115.451-14.741,173.162-22.218c48.479-6.28,96.975-12.425,145.463-18.638
		c61.027-7.82,122.049-15.688,183.094-23.375c11.553-1.454,23.016-3.479,34.512,0.111l0.01,0.02
		c-0.004,0.665-0.008,1.329-0.01,1.993c-24.002,43.368-48.094,86.688-71.979,130.122c-16.996,30.906-33.582,62.041-50.59,92.94
		c-19.57,35.554-39.529,70.896-59.057,106.474c-6.543,11.923-12.277,24.29-18.381,36.453
		C1296.666,45.555,1295.339,46.232,1294.011,46.908z"/>
	<path fill="#7EACD5" d="M1498-323.123c-14.805,1.714-29.619,3.353-44.412,5.16c-18.088,2.211-36.158,4.549-54.232,6.862
		c-23.004,2.944-46.002,5.937-69.008,8.877c-18.729,2.395-37.463,4.744-56.195,7.112c-17.75,2.243-35.504,4.463-53.252,6.732
		c-18.729,2.396-37.449,4.838-56.176,7.263c-18.396,2.382-36.791,4.786-55.189,7.144c-18.074,2.314-36.158,4.561-54.232,6.874
		c-18.729,2.396-37.447,4.864-56.176,7.247c-12.818,1.631-25.656,3.113-38.469,4.79c-2.922,0.382-5.773,1.292-8.656,1.959
		c-1.051,0.673-2.064,0.623-3.045-0.145c-0.807-0.783-1.424-1.697-1.863-2.728c-4.262-8.084-5.477-17.101-7.59-25.805
		c-20.658-85.166-41.615-170.259-62.861-255.279c-1.455-5.822-2.627-11.705-3.838-17.579c-0.74-3.589-1.553-7.259,1.176-10.491
		l0.031,0.023c5.982,1.895,12.088,3.467,17.924,5.733c54.207,21.063,108.332,42.343,162.557,63.358
		c32.535,12.61,65.273,24.69,97.799,37.327c44.592,17.326,89.035,35.04,133.607,52.422c27.236,10.623,54.656,20.785,81.889,31.423
		c39.299,15.354,78.486,30.989,117.77,46.38c3.975,1.558,8.281,2.253,12.436,3.35C1497.996-324.448,1497.998-323.786,1498-323.123z"
		/>
	<path fill="#9CC5E3" d="M-1039.997,124.89c33.124,10.921,66.268,21.78,99.366,32.778c42.593,14.153,85.17,28.354,127.714,42.653
		c43.144,14.502,86.231,29.175,129.37,43.691c3.744,1.26,7.689,1.921,11.541,2.859c0.624,0.848,0.931,1.796,0.932,2.838
		c-0.645,4.347-2.616,8.22-4.588,12.056c-24.808,48.254-47.811,97.396-71.909,145.999
		c-41.099,82.892-81.575,166.091-122.396,249.119c-16.738,34.043-33.694,67.984-50.295,102.099
		c-2.032,4.174-3.963,8.414-6.955,12.051c-0.964,0.627-1.888,0.576-2.775-0.14c-2.004-0.668-4.007-1.337-6.011-2.005
		c5.31-1.322,4.025-5.236,3.4-8.812c-3.932-22.49-7.943-44.97-11.839-67.468c-3.668-21.181-7.093-42.403-10.868-63.563
		c-3.66-20.513-7.813-40.938-11.423-61.458c-5.621-31.949-10.857-63.969-16.467-95.921c-3.609-20.553-7.712-41.019-11.378-61.562
		c-3.375-18.911-6.339-37.896-9.707-56.81c-4.001-22.473-8.348-44.884-12.346-67.355c-4.7-26.416-9.107-52.885-13.788-79.304
		c-4.157-23.46-8.527-46.882-12.771-70.325c-0.531-2.938-1.26-5.937-1.07-8.853C-1044.197,126.516-1041.493,125.743-1039.997,124.89
		z"/>
	<path fill="#8BB8DC" d="M-929.992,770.895c0.658-0.008,1.316-0.015,1.975-0.021c2.824-3.949,6.774-6.157,11.267-7.807
		c112.745-41.368,225.183-83.571,338.063-124.566c8.82-3.203,16.997-9.703,27.371-7.25c4.943,5.015,0.102,7.985-2.826,10.449
		c-30.057,25.303-58.473,52.438-87.902,78.439c-30.417,26.874-60.432,54.225-90.913,81.021
		c-32.741,28.784-64.44,58.73-97.727,86.898c-10.667,9.027-20.132,19.404-31.068,28.146c-3.018,2.412-5.429,6.19-10.245,4.688
		c-0.667-0.002-1.334-0.004-2.002-0.006c-8.439-12.474-12.774-26.81-18.138-40.635c-12.005-30.944-23.976-61.903-36.022-92.831
		c-1.601-4.108-2.827-8.118-1.84-12.534c-0.001-0.668-0.002-1.337-0.003-2.005C-929.999,772.222-929.996,771.558-929.992,770.895z"
		/>
	<path fill="#8CB7DC" d="M-930,774.89c9.949,24.829,19.956,49.635,29.828,74.494c8.058,20.289,16.027,40.615,23.85,60.996
		c1.271,3.313,1.572,6.997,2.322,10.51c-11.386,6.679-22.63,13.615-34.185,19.987c-35.633,19.648-71.378,39.094-107.109,58.563
		c-1.412,0.771-3.133,0.973-4.71,1.439c5.164-14.296,9.944-28.744,15.559-42.861c23.271-58.521,46.783-116.949,70.269-175.386
		C-933.09,779.928-931.406,777.466-930,774.89z"/>
	<path fill="#94C4DF" d="M-407.989-311.099c29.179,10.29,58.397,20.471,87.526,30.899c29.764,10.655,59.434,21.57,89.153,32.348
		c53.496,19.396,106.984,38.813,160.505,58.144c27.858,10.063,55.793,19.912,83.664,29.938
		c28.809,10.36,57.574,20.838,86.384,31.195c2.15,0.773,4.5,0.993,6.757,1.472c0.661,0.662,1.321,1.323,1.982,1.983
		c0.49,0.428,0.98,0.854,1.475,1.269c5.011,14.609,2.237,29.564,1.766,44.398c-0.104,3.276-1.194,6.55-1.082,9.897
		c1.295,38.622-1.421,77.188-2.48,115.749c-1.307,47.507-1.552,95.081-4.831,142.495c-0.063,2.477-1.018,4.625-2.633,6.445
		c-5.615,4.868-12.535,7.353-19.359,10.013c-114.279,44.553-228.485,89.293-342.613,134.232
		c-34.425,13.556-68.954,26.844-103.328,40.527c-4.283,1.705-8.548,3.981-13.517,2.532c-1.129-0.49-1.956-1.244-2.556-2.291
		c-0.463-1.156-0.64-2.331-0.563-3.572c-1.509-7.208-2.188-14.438-2.396-21.803c-1.208-42.851-2.87-85.684-5.649-128.467
		c-1.034-15.918-1.171-31.908-1.682-47.824c-0.755-23.591-1.867-47.202-2.965-70.756c-1.718-36.831-2.211-73.73-5.244-110.506
		c-1.339-16.229-1.271-32.572-1.777-48.815c-0.755-24.258-1.83-48.537-2.971-72.754c-1.734-36.829-3.607-73.691-4.794-110.515
		c-0.814-25.292-6.956-50.984,1.232-76.223L-407.989-311.099z"/>
	<path fill="#91C0DF" d="M107.982-125.121c11.255-29.813,22.479-59.64,33.773-89.438c13.533-35.71,27.121-71.4,40.695-107.095
		c14.991-39.423,29.994-78.84,44.992-118.259c8.384-22.035,16.748-44.078,25.178-66.098c0.934-2.439,2.243-4.738,3.378-7.102
		c7.283,0.8,7.126,6.85,8.053,11.83c6.749,36.298,12.994,72.687,19.39,109.048c14.231,80.913,28.82,161.763,42.953,242.692
		c1.367,7.834,2.566,15.69,2.682,23.707c-0.539,1.19-1.355,2.083-2.471,2.733c-4.355,2.146-9.023,2.065-13.686,2.065
		c-42.218,0.006-84.465,0.974-126.641-0.389c-23.228-0.75-46.445-1.392-69.681-1.609c-3.05-0.027-5.96-0.414-8.589-2.076
		L107.982-125.121z"/>
	<path fill="#92C0E0" d="M328.005-127.11c-2.645-11.547-5.729-23.015-7.852-34.656c-5.883-32.258-11.357-64.589-17.008-96.889
		c-6.394-36.539-12.76-73.081-19.215-109.608c-4.842-27.401-9.835-54.776-14.703-82.174c-3.128-17.605-6.037-35.25-9.323-52.825
		c-0.638-3.407-2.571-6.573-3.906-9.85c0.667-2,1.335-3.999,2.002-5.998c1.914-0.358,3.875-1.191,5.733-1.003
		c22.403,2.266,44.805,4.565,67.18,7.094c21.383,2.416,42.73,5.142,64.104,7.644c2.965,0.348,5.986,0.191,8.982,0.27
		c4.004,0.667,8.006,1.335,12.01,2.002c3.65,4.174,2.104,8.818,1.047,13.31c-21.043,89.453-41.518,179.038-62.621,268.479
		c-6.496,27.539-12.475,55.201-19.252,82.673C334.115-134.309,334.816-128.165,328.005-127.11z"/>
	<path fill="#408DC4" d="M972,880.912c3.314,16.903,6.791,33.776,9.898,50.719c4.428,24.144,8.57,48.341,12.863,72.51
		c6.438,36.249,12.836,72.506,19.375,108.736c4.773,26.447,9.834,52.844,14.607,79.291c6.537,36.23,12.875,72.498,19.389,108.734
		c5.457,30.367,11.082,60.704,16.555,91.068c3.176,17.619,6.193,35.266,9.281,52.898c-34.441-18.068-68.842-36.214-103.334-54.186
		c-30.344-15.811-60.852-31.307-91.168-47.165c-25.633-13.408-51.039-27.244-76.65-40.688c-16.76-8.798-33.777-17.104-50.557-25.864
		c-24.465-12.775-48.789-25.821-73.23-38.641c-17.643-9.251-35.428-18.23-53.068-27.487c-24.438-12.824-48.77-25.856-73.207-38.684
		c-17.344-9.104-34.85-17.9-52.18-27.032c-31.186-16.434-62.201-33.189-93.463-49.476c-21.527-11.212-43.35-21.855-65.037-32.753
		h-0.09c-0.637-1.049-0.563-2.045,0.217-2.989c0.797-0.768,1.725-1.324,2.77-1.674c32.254-11.797,65.668-19.723,98.594-29.273
		c168.594-48.907,337.283-97.484,506.014-145.923c6.861-1.97,13.615-5.938,21.279-3.282
		C971.242,880.137,971.621,880.524,972,880.912z"/>
	<path fill="#88B9DB" d="M328.005-127.11c4.523-17.958,9.252-35.868,13.521-53.888c6.352-26.81,12.311-53.712,18.555-80.547
		c15.725-67.576,31.537-135.132,47.264-202.708c3.006-12.924,5.783-25.899,8.664-38.854c0.666,0,1.33,0.001,1.994,0.003
		c20.488,3.011,37.701,14.433,55.904,22.829c60.105,27.724,119.814,56.313,179.875,84.153
		c60.053,27.836,119.844,56.237,179.766,84.352c31.008,14.548,62.037,29.086,93.379,42.925c8.24,3.639,16.203,7.753,23.051,13.733
		c0.012,0.67,0.021,1.34,0.033,2.011c0.531,2.1-0.771,3.161-2.303,4.091c-56.104,12.856-112.664,23.596-168.973,35.534
		c-94.068,19.941-188.352,38.842-282.457,58.6c-52.096,10.938-104.236,21.665-156.393,32.311c-2.611,0.532-5.201,1.174-7.902,0.958
		c-1.16,0.067-2.26-0.149-3.309-0.635c-1.1-0.751-1.324-1.709-0.676-2.871C328.001-125.778,328.003-126.444,328.005-127.11z"/>
	<path fill="#89B7DB" d="M949.98-255.11c-3.742-1.22-7.645-2.09-11.201-3.715c-17.764-8.118-35.439-16.426-53.139-24.686
		c-12.322-5.752-24.652-11.494-36.941-17.317c-15.527-7.355-30.986-14.854-46.529-22.176c-20.393-9.606-40.809-19.167-61.27-28.631
		c-24.059-11.127-48.23-22.004-72.246-33.219c-26.08-12.18-51.99-24.729-78.064-36.92c-25.232-11.799-50.637-23.23-75.861-35.044
		c-27.002-12.646-53.891-25.529-80.809-38.352c-5.352-2.549-10.611-5.286-15.914-7.936c34.467-4.698,68.949-9.288,103.396-14.128
		c30.838-4.333,61.621-9.067,92.461-13.39c21.656-3.034,43.385-5.584,65.057-8.516c21.996-2.976,43.961-6.187,65.947-9.232
		c21.334-2.954,42.684-5.803,64.02-8.749c17.393-2.4,34.766-4.946,52.168-7.27c4.266-0.569,8.615-0.512,12.928-0.742
		c21.73,88.189,43.479,176.376,65.176,264.574C942.876-285.433,946.376-270.259,949.98-255.11z"/>
	<path fill="#539ACB" d="M1082.011,268.896c26.381,16.037,52.787,32.035,79.141,48.123c34.004,20.761,67.941,41.628,101.949,62.384
		c24.938,15.221,49.938,30.336,74.908,45.498c0.002,0.665,0.002,1.329,0,1.994c0.002,0-0.01-0.005-0.01-0.005
		c-5.18,6.19-12.697,8.391-19.74,11.201c-51.293,20.463-102.318,41.575-153.508,62.294
		c-82.021,33.198-163.973,66.569-245.938,99.904c-5.109,2.078-10.098,5.458-16.158,3.607c-0.93-0.563-1.471-1.387-1.639-2.443
		c5.049-14.123,13.246-26.704,20.25-39.835c33.502-62.791,67.148-125.506,100.883-188.173
		c18.436-34.252,35.99-68.988,55.633-102.594c0.689-0.719,1.438-1.363,2.25-1.938
		C1080.691,268.913,1081.351,268.906,1082.011,268.896z"/>
	<path fill="#7BAFD6" d="M-140,886.89c-20.747,13.811-41.613,27.446-62.219,41.463c-56.065,38.139-112.035,76.418-168.015,114.683
		c-37.043,25.32-74.021,50.737-111.058,76.065c-40.881,27.957-81.794,55.865-122.699,83.786
		c-42.001,28.669-84.01,57.329-126.015,85.992c-2.942-6.651-0.698-13.089,1.063-19.426c17.043-61.305,34.242-122.563,51.442-183.824
		c40.072-142.717,79.976-285.479,120.025-428.2c2.247-8.007,4.444-16.024,8.297-23.438c0.02-1.622,0.558-3.003,1.975-3.918
		c6.575-1.005,11.305,3.203,16.229,6.264c64.156,39.855,128.379,79.604,192.458,119.587
		c66.324,41.383,133.209,81.866,199.008,124.109c0.807,0.592,1.471,1.306,1.993,2.151c0.339,0.986,0.211,1.895-0.455,2.711
		C-138.646,885.56-139.323,886.225-140,886.89z"/>
	<path fill="#609ECD" d="M342.056,1060.909c-0.014,0.662-0.037,1.324-0.07,1.985c-6.502,6.172-13.127,12.221-19.482,18.539
		c-21.244,21.118-42.309,42.419-63.593,63.496c-58.624,58.052-117.317,116.031-175.998,174.026
		c-55.365,54.72-110.744,109.426-166.144,164.109c-2.116,2.089-4.509,3.896-6.772,5.834c0,0.001-0.995,0.001-0.995,0.001
		l-0.995-0.001c-1.335-16.849-2.613-33.703-4.021-50.547c-1.849-22.125-3.841-44.239-5.688-66.365
		c-0.855-10.247-1.62-20.504-2.232-30.769c-0.791-13.254-1.115-26.54-2.131-39.774c-1.674-21.806-3.766-43.578-5.63-65.37
		c-0.819-9.583-1.633-19.169-2.241-28.768c-1.427-22.518-2.477-45.061-4.151-67.558c-1.6-21.477-3.854-42.902-5.707-64.361
		c-0.856-9.912-1.54-19.843-2.126-29.776c-0.783-13.254-1.133-26.539-2.141-39.773c-1.661-21.808-4.011-43.563-5.484-65.382
		c-1.248-18.49-1.666-37.038-2.451-55.562c0.806-0.737,1.755-1.134,2.837-1.195c22.054,5.396,42.858,14.44,64.089,22.229
		c113.19,41.526,225.863,84.448,339.119,125.807c23.432,8.558,47.147,16.484,69.875,26.929
		C340.859,1059.204,341.566,1059.953,342.056,1060.909z"/>
	<path fill="#64A6D1" d="M-134,884.89c-0.666-0.001-1.332,0.001-1.998,0.005l-0.986-0.001c0,0-0.986,0.001-0.985,0.001
		c-0.003-0.659-0.008-1.319-0.015-1.979c0.497-1.007,1.223-1.806,2.169-2.398c13.559-6.676,28.437-9.182,42.83-13.069
		c113.956-30.782,227.922-61.525,341.856-92.387c4.163-1.127,8.281-2.582,12.732-1.944c1.117,0.27,2.073,0.807,2.893,1.589
		c2.062,4.727,0.201,9.229-1.109,13.613c-9.253,30.952-17.831,62.101-27.166,93.026c-1.445,4.789-2.784,9.661-7.279,12.813
		c-14.989,5.267-30.265,2.562-45.435,1.827c-2.95-0.143-5.903-1.03-8.905-0.938c-39.925,1.232-79.768-1.96-119.671-2.146
		c-36.234-0.168-72.512-1.058-108.658-2.662c-25.451-1.129-51.296,1.864-76.502-4.279C-131.508,885.65-132.851,885.639-134,884.89z"
		/>
	<path fill="#83B2D8" d="M-548.017,632.864c-3.921,15.423-7.574,30.919-11.813,46.254c-11.865,42.927-23.967,85.786-35.987,128.67
		c-12.647,45.12-25.315,90.235-37.963,135.356c-12.021,42.883-24.018,85.771-36.04,128.655
		c-12.739,45.439-25.573,90.854-38.216,136.323c-7.474,26.877-14.655,53.836-21.969,80.758c-0.662,0.006-1.323,0.014-1.984,0.02
		c-7.91-21.134-15.735-42.3-23.748-63.395c-15.229-40.094-30.502-80.168-45.875-120.205
		c-13.704-35.689-27.671-71.278-41.329-106.985c-9.849-25.744-19.383-51.607-29.057-77.42c9.166-8.168,18.294-16.378,27.505-24.495
		c15.433-13.598,30.984-27.062,46.356-40.728c9.434-8.386,18.513-17.171,27.95-25.553c28.284-25.119,56.689-50.104,84.999-75.196
		c7.952-7.049,15.668-14.363,23.607-21.427c16.61-14.775,33.339-29.419,49.937-44.209c8.43-7.513,16.606-15.309,25.035-22.821
		c10.898-9.715,21.96-19.246,32.877-28.94c1.463-1.299,2.495-3.082,3.727-4.641C-549.349,632.271-548.686,632.264-548.017,632.864z"
		/>
	<path fill="#4B94C8" d="M902,602.896c26.51-10.597,53.049-21.12,79.523-31.805c44.963-18.146,89.895-36.372,134.824-54.604
		c68.016-27.597,136.014-55.232,204.029-82.824c5.83-2.365,11.746-4.521,17.623-6.773c-1.502,3.676-2.773,7.467-4.541,11.011
		c-23.777,47.683-47.729,95.28-71.432,143c-31.695,63.808-63.252,127.687-94.791,191.571
		c-16.502,33.429-32.836,66.938-49.248,100.413c-5.943,2.407-8.365-2.552-11.105-5.802c-14.361-17.026-27.76-34.832-41.484-52.368
		c-50.607-64.666-101.604-129.026-152.266-193.65c-2.432-3.103-4.459-6.688-8.822-7.588
		C900.949,610.509,899.681,607.089,902,602.896z"/>
	<path fill="#4693C7" d="M905.99,612.894c2.152-5.747,4.18-0.815,5.219,0.429c5.521,6.621,10.689,13.534,16.031,20.308
		c29.367,37.233,58.799,74.42,88.109,111.698c17.627,22.419,34.988,45.048,52.629,67.456c14.982,19.033,30.164,37.911,45.355,56.778
		c1.152,1.43,3.086,2.229,4.656,3.322c0.004,0.655,0.006,1.313,0.01,1.969c-25.869,0.688-51.738,1.312-77.604,2.091
		c-17.893,0.539-35.781,1.191-53.66,2.021c-4.934,0.229-9.826,1.273-14.736,1.944c0,0.001-0.012-0.052-0.012-0.052
		c-4.359-3.762-5.057-9.17-6.422-14.279c-16.494-61.639-31.164-123.736-46.936-185.558c-4.518-17.705-9.6-35.268-13.682-53.082
		C903.802,622.924,901.402,617.606,905.99,612.894z"/>
	<path fill="#9CC7E1" d="M-407.984-311.085c0.671,24.587,1.149,49.182,2.062,73.76c1.121,30.188,2.627,60.36,3.925,90.541
		c1.368,31.847,2.678,63.692,4.032,95.538c0.635,14.926,1.324,29.848,1.974,44.771c1.343,30.847,2.671,61.693,4.012,92.539
		c1.326,30.514,2.664,61.025,3.991,91.54c1.341,30.847,2.67,61.692,4.01,92.539c1.326,30.514,2.698,61.024,3.955,91.542
		c0.236,5.729,0.024,11.478,0.02,17.217c-4.806,3.497-8.985,0.233-13.038-1.538c-43.876-19.172-87.37-39.2-131.037-58.84
		c-45.789-20.595-91.661-41.011-137.249-62.053c-3.604-1.664-7.53-2.787-10.059-6.2c-0.207-0.468-0.408-0.935-0.609-1.399
		c-0.002-0.665-0.005-1.33-0.009-1.996c6.746-14.817,13.294-29.73,20.279-44.436c15.698-33.041,31.707-65.935,47.419-98.968
		c24.275-51.043,48.416-102.149,72.6-153.236c11.38-24.039,22.713-48.101,34.092-72.14c23.897-50.486,47.808-100.966,71.718-151.444
		C-419.938-285.933-413.957-298.506-407.984-311.085z"/>
	<path fill="#6DAAD3" d="M948-251.107c0.67-0.664,1.34-1.329,2.01-1.992c0.664-0.004,1.328-0.005,1.99-0.003c0,0.665,0,1.33,0,1.995
		c3.316,14.552,6.398,29.16,9.99,43.644c13.59,54.831,27.301,109.633,41.045,164.425c25.064,99.912,50.211,199.805,75.17,299.742
		c0.795,3.184-0.098,6.786-0.205,10.193c-3.898,4.493-9.027,3.637-13.926,2.911c-87.492-12.964-175.037-25.562-262.557-38.332
		c-69.088-10.082-138.193-20.035-207.256-30.299c-3.623-0.538-7.293-0.852-10.357-3.002c-5.301-5.046-1.174-9.148,1.801-12.923
		c10.932-13.856,22.316-27.351,33.553-40.962C686.035,63.388,752.73-17.586,819.417-98.564
		c39.797-48.326,79.758-96.521,119.469-144.918C941.474-246.637,944.503-249.113,948-251.107z"/>
	<path fill="#62A5D1" d="M582.017,194.906c12.051,1.988,24.078,4.125,36.154,5.932c20.293,3.035,40.621,5.815,60.924,8.785
		c20.625,3.019,41.225,6.213,61.855,9.186c20.311,2.926,40.66,5.564,60.965,8.519c20.953,3.048,41.869,6.356,62.809,9.49
		c35.346,5.288,70.689,10.568,106.045,15.777c32.408,4.774,64.828,9.488,97.262,14.116c3.266,0.467,6.645,0.144,9.971,0.188
		c0.678,0.673,1.355,1.346,2.031,2.02c-0.012,0.658-0.023,1.315-0.031,1.975c-3.537,4.971-8.221,8.521-13.367,11.772
		c-130.438,82.447-261.037,164.641-391.326,247.321c-4.203,2.669-8.344,5.548-13.537,6.18c-1.104-0.09-2.07-0.452-2.959-1.078
		c-0.818-0.744-1.479-1.596-2.02-2.554c-7.691-26.166-13.199-52.873-19.418-79.389c-18.521-78.98-37.443-157.865-55.881-236.864
		c-1.553-6.655-4.717-13.389-0.783-20.324C581.146,195.599,581.582,195.252,582.017,194.906z"/>
	<path fill="#91BEDF" d="M-548.017,632.864c-0.663,0.008-1.325,0.016-1.988,0.021c-3.526,0.758-7.202,1.105-10.554,2.337
		c-38.674,14.208-77.312,28.515-115.932,42.865c-44.536,16.55-89.018,33.248-133.576,49.735
		c-34.279,12.686-68.64,25.148-102.969,37.698c-4.98,1.82-9.987,3.57-14.982,5.354c1.364-4.046,2.29-8.306,4.162-12.1
		c12.965-26.259,26.225-52.372,39.2-78.626c18.717-37.873,37.284-75.821,55.894-113.748c16.558-33.744,33.078-67.506,49.628-101.253
		c17.723-36.139,35.464-72.268,53.188-108.403c16.698-34.046,33.37-68.104,50.113-102.128c1.008-2.048,2.544-3.837,3.835-5.746
		c0-0.001-0.006,0.023-0.006,0.023c3.831,3.929,5.762,8.825,7.468,13.937c39.016,116.9,77.857,233.858,116.923,350.742
		c1.584,4.737,3.235,9.456,3.171,14.561c-0.274,1.061-0.799,1.974-1.567,2.747C-546.678,631.543-547.348,632.203-548.017,632.864z"
		/>
	<path fill="#7CB6D9" d="M-136.026,882.864c-0.653,0.017-1.306,0.033-1.958,0.052c0,0.002-0.025-0.043-0.025-0.043
		c-2.413-1.757-5.05-3.265-6.629-5.95c-30.713-60.557-59.155-122.216-88.56-183.402c-46.418-96.594-92.475-193.363-139.126-289.848
		c-2.896-5.991-5.146-12.253-7.249-18.577c-0.065-1.626,0.502-3.003,1.595-4.178c30.604-11.983,61.199-23.987,91.813-35.945
		c56.609-22.112,113.255-44.134,169.838-66.313c45.453-17.816,90.807-35.888,136.261-53.702
		c25.961-10.176,52.033-20.063,78.056-30.082c0.346,0.404,0.691,0.809,1.039,1.204c1.193,4.426-0.267,8.584-1.614,12.638
		c-24.268,72.966-49.382,145.646-74.469,218.332C12.63,456.942,2.545,486.918-7.635,516.853
		c-31.829,93.604-64.33,186.976-95.889,280.671c-8.181,24.287-16.759,48.445-24.781,72.79
		C-129.904,875.164-132.023,879.558-136.026,882.864z"/>
	<path fill="#7CB6D9" d="M328-123.11c0.668-0.002,1.334-0.004,2-0.005c4.133,1.251,6.4,4.688,8.824,7.806
		C388.71-51.19,439.718,12.044,489.794,76.016c28.324,36.183,57.172,71.965,85.613,108.062c3.375,4.285,9.588,8.902,2.143,15.187
		c-8.895,2.979-17.986,2.209-26.795,1.118c-8.967-1.109-17.879-1.385-26.848-1.386c-128.064-0.013-256.13-0.005-384.194-0.014
		c-10.964-0.001-21.941,0.37-32.85-1.104c-1.916-0.059-3.872,0.15-5.696-0.696c-1.13-0.613-2.167-1.358-3.112-2.232l-0.066-0.076
		c0.672-1.327,1.344-2.653,2.016-3.98c5.067-14.033,15.08-24.954,23.584-36.739c63.87-88.527,127.524-177.211,191.453-265.696
		C318.484-116.309,321.16-122.085,328-123.11z"/>
	<path fill="#8EBFDE" d="M-545.995,628.901c-15.271-45.452-30.593-90.886-45.8-136.358c-15.731-47.035-31.339-94.112-47.025-141.164
		c-10.209-30.622-20.492-61.221-30.652-91.858c-1.142-3.442-1.701-7.078-2.53-10.624c13.127,5.562,26.353,10.901,39.363,16.724
		c46.372,20.748,92.694,41.608,138.99,62.527c30.565,13.812,61.03,27.849,91.593,41.666c7.24,3.272,14.695,6.07,22.052,9.089
		c0.001,0.668,0.003,1.337,0.005,2.005c2.205,4.563-0.129,8.102-2.413,11.834c-10.42,17.026-22.139,33.175-33.249,49.736
		c-39.088,58.266-78.22,116.5-117.731,174.479c-2.988,4.386-5.694,8.99-9.901,12.414
		C-544.285,629.714-545.184,629.554-545.995,628.901z"/>
	<path fill="#88BDDC" d="M328-123.11c-23.799,32.732-47.646,65.431-71.382,98.209c-31.53,43.538-63.004,87.117-94.442,130.723
		c-19.408,26.917-38.694,53.922-58.086,80.852c-1.132,1.572-2.712,2.82-4.084,4.221c0-14.327-0.226-28.658,0.05-42.979
		c0.503-26.254,1.26-52.502,1.99-78.751c0.593-21.255,1.354-42.504,1.947-63.759c0.732-26.248,1.293-52.502,2.074-78.749
		c0.515-17.259,1.287-34.51,1.944-51.764c1.553-0.584,3.112-1.693,4.658-1.674c20.899,0.268,41.796,0.674,62.693,1.096
		c3.646,0.073,7.286,0.546,10.929,0.549c47.236,0.039,94.473,0.025,141.709,0.025C328-124.445,328-123.778,328-123.11z"/>
	<path fill="#87BBDB" d="M-544.003,628.885c5.2-8.429,10.154-17.02,15.646-25.251c16.026-24.022,32.265-47.904,48.427-71.836
		c31.583-46.764,63.198-93.504,94.698-140.322c2.175-3.233,3.507-7.034,5.231-10.57c0.674,0.004,1.347,0.007,2.021,0.011
		c-0.007,1.325-0.014,2.649-0.021,3.975c3.461,12.771-0.562,25.146-2.463,37.506c-8.445,54.9-17.108,109.771-25.635,164.658
		c-0.668,4.3-1.542,8.525-4.18,12.139c-3.731,4.253-8.958,5.413-14.119,6.594c-34.191,7.82-68.371,15.69-102.539,23.611
		C-532.518,630.691-538.461,633.47-544.003,628.885z"/>
	<path fill="#509ACB" d="M660.011,534.906c0.66-0.009,1.32-0.018,1.98-0.024c5.064-2.539,10.184-2.039,15.451-0.567
		c71.646,20.025,143.25,40.21,214.85,60.409c3.818,1.077,7.816,2.004,9.707,6.173c0,0.667,0,1.333,0,2
		c1.33,3.333,2.66,6.666,3.99,9.999c3.438,15.209,6.566,30.495,10.367,45.613c11.67,46.411,23.602,92.758,35.422,139.131
		c6.32,24.796,12.65,49.588,18.893,74.402c0.721,2.868,0.895,5.876,1.318,8.818c-16.975,4.67-33.984,9.214-50.916,14.036
		c-42.213,12.021-84.41,24.099-126.574,36.29c-38.656,11.178-77.236,22.612-115.893,33.79
		c-34.816,10.067-69.709,19.879-104.533,29.922c-38.66,11.148-77.27,22.479-115.926,33.64
		c-30.672,8.854-61.375,17.585-92.078,26.328c-7.334,2.089-14.719,4.011-22.078,6.009c-3.832-6.42,1.301-10.762,4.021-15.249
		c27.779-45.816,55.447-91.702,83.232-137.516C503.552,788.879,575.564,669.469,647.9,550.254c2.924-4.818,5.604-9.835,9.506-14.016
		C658.169,535.584,659.039,535.143,660.011,534.906z"/>
	<path fill="#59A0CE" d="M659.968,536.852c-22.729,37.514-45.471,75.019-68.182,112.542
		c-25.811,42.645-51.594,85.304-77.385,127.959c-34.045,56.304-68.049,112.632-102.141,168.907
		c-21.35,35.243-42.852,70.395-64.201,105.637c-1.689,2.79-2.729,5.976-4.068,8.978c-0.646,0.021-1.291,0.03-1.938,0.033
		c-0.686-0.006-1.369-0.012-2.055-0.018c-3.354-2.717-6.441-5.603-8.873-9.288c-32.152-48.755-65.307-96.839-97.547-145.534
		c-2.954-4.461-7.809-8.854-3.585-15.178c10.52-36.502,21.03-73.006,31.583-109.498c0.641-2.215,1.61-4.334,2.427-6.497
		c1.438-6.024,6.932-7.793,11.362-10.448c66.571-39.901,132.834-80.313,199.247-120.479
		c57.002-34.479,114.041-68.901,170.93-103.568C649.791,537.81,653.974,533.121,659.968,536.852z"/>
	<path fill="#7CB4D8" d="M580,194.89c-23.781-29.796-47.688-59.494-71.313-89.413c-24.656-31.224-48.93-62.749-73.592-93.969
		c-17.053-21.585-34.617-42.766-51.709-64.319c-17.721-22.348-35.152-44.919-52.658-67.437c-0.555-0.714-0.498-1.9-0.729-2.867
		c5.375-1.478,10.691-3.227,16.135-4.386c45.789-9.758,91.588-19.471,137.41-29.069c38.666-8.102,77.354-16.112,116.059-24.021
		c76.766-15.688,153.572-31.168,230.318-46.959c35.771-7.358,71.422-15.289,107.158-22.821c3.535-0.744,7.275-0.514,10.92-0.734
		c-7.889,10.217-15.604,20.575-23.707,30.618c-14.162,17.547-28.51,34.943-42.881,52.319
		c-14.375,17.379-28.936,34.607-43.309,51.989c-16.697,20.191-33.258,40.497-49.918,60.719C773.636-37.8,759-20.211,744.457-2.546
		c-13.49,16.388-26.891,32.852-40.363,49.252c-14.104,17.17-28.229,34.32-42.377,51.454c-17.104,20.716-34.264,41.388-51.357,62.114
		c-9.49,11.507-18.896,23.085-28.342,34.632l-0.002,0.003C581.335,195.869,580.664,195.863,580,194.89z"/>
	<path fill="#579FCE" d="M902,600.895c-60.438-16.912-120.877-33.814-181.311-50.742c-17.268-4.836-34.504-9.786-51.785-14.563
		c-2.201-0.609-4.604-0.49-6.912-0.709c33.889-21.604,67.754-43.243,101.674-64.798c21.875-13.9,43.824-27.688,65.752-41.506
		c55.105-34.72,110.232-69.405,165.322-104.146c26.141-16.484,52.217-33.072,78.338-49.588c2.244-1.418,4.611-2.641,6.922-3.953
		c-5.932,11.838-11.666,23.778-17.846,35.485c-6.814,12.908-14.18,25.526-21.057,38.403c-17.359,32.506-34.527,65.115-51.875,97.63
		c-20.154,37.782-40.379,75.527-60.652,113.245c-7.07,13.151-14.32,26.207-21.639,39.223C905.679,597.103,903.664,598.9,902,600.895
		z"/>
	<path fill="#7FB5D8" d="M-544.003,628.885c24.938-5.533,49.895-10.98,74.807-16.626c19.095-4.327,38.133-8.903,57.196-13.369
		c3.479-1.605,6.07,0.521,7.79,2.756c7.343,9.542,17.301,16.443,24.971,25.731c13.948,16.892,31.103,30.844,45.511,47.275
		c13.393,15.273,27.904,29.361,42.334,43.538c14.216,13.966,26.56,29.618,41.095,43.341c14.202,13.407,27.786,27.574,40.43,42.596
		c10.69,12.697,23.621,23.283,35.144,35.261c11.563,12.02,21.933,24.907,32.727,37.502c1.33,1.994,2.66,3.988,3.99,5.982
		c-7.537-4.118-15.291-7.888-22.576-12.411c-41.802-25.958-83.425-52.205-125.236-78.148
		c-60.173-37.337-120.479-74.458-180.68-111.752c-26.565-16.458-53.008-33.114-79.507-49.681c0.007-0.66,0.012-1.32,0.014-1.979
		C-545.331,628.898-544.667,628.892-544.003,628.885z"/>
	<path fill="#5FA2CF" d="M229.995,890.89c1.86,4.146,3.175,8.655,5.664,12.38c32.83,49.131,65.844,98.138,98.735,147.226
		c2.182,3.256,3.752,6.92,5.605,10.396c-10.648-3.681-21.363-7.181-31.934-11.073c-41.522-15.295-83.011-30.683-124.486-46.102
		c-21.204-7.883-42.343-15.944-63.535-23.858c-33.308-12.438-66.636-24.825-99.957-37.229
		c-40.222-14.975-80.454-29.918-120.662-44.93c-11.179-4.173-22.286-8.534-33.427-12.809c6.984,0,13.971-0.092,20.954,0.016
		c41.837,0.64,83.674,1.235,125.508,2.024c26.207,0.493,52.408,1.318,78.612,1.957c28.531,0.693,57.067,1.236,85.595,2.059
		c13.905,0.399,27.792,1.462,41.697,1.827C222.224,892.875,226.117,891.557,229.995,890.89z"/>
	<path fill="#67ABD5" d="M659.968,536.852c-9.285,5.071-18.771,9.805-27.818,15.271c-42.344,25.582-84.545,51.396-126.834,77.066
		c-42.857,26.018-85.73,52.012-128.646,77.928c-37.518,22.656-75.105,45.19-112.664,67.778c-0.67-0.001-1.34-0.003-2.01-0.005
		c-5.315-2.98-6.009-8.588-7.415-13.611c-21.175-75.654-42.676-151.216-63.927-226.848
		c-25.935-92.304-51.914-184.595-77.991-276.857c-4.255-15.056-8.387-30.146-12.604-45.215c-1.613-5.766-3.023-11.615-0.043-17.433
		c1.328-0.012,2.656-0.021,3.984-0.033c30.452,13.755,57.584,33.225,86.103,50.281c82.001,49.05,163.529,98.885,245.168,148.537
		c65.135,39.618,130.643,78.629,195.418,118.838c10.129,6.286,21.184,11.173,29.301,20.334c0.008,0.675,0.016,1.349,0.021,2.021
		C659.996,535.554,659.982,536.204,659.968,536.852z"/>
	<path fill="#6EADD5" d="M100.016,194.927c3.193,12.522,6.16,25.108,9.617,37.559c14.767,53.163,29.608,106.307,44.559,159.418
		c11.708,41.598,23.646,83.128,35.426,124.704c12.776,45.095,25.557,90.189,38.206,135.32
		c11.481,40.962,22.788,81.973,34.172,122.962c-25.276,6.98-50.529,14.051-75.835,20.928
		C129.438,811.232,72.694,826.571,15.949,841.9c-50.651,13.685-101.316,27.313-151.976,40.965
		c17.024-50.081,34.061-100.158,51.063-150.245c3.959-11.66,7.743-23.381,11.714-35.036c20.924-61.42,41.88-122.826,62.829-184.236
		c18.369-53.851,36.761-107.691,55.11-161.549C62.5,299.522,80.269,247.232,98.056,194.95
		C98.709,194.928,99.362,194.92,100.016,194.927z"/>
	<path fill="#6DADD6" d="M659.99,532.884c-11.766-6.741-23.646-13.29-35.273-20.261c-33.605-20.145-67.135-40.423-100.646-60.722
		c-18.75-11.355-37.371-22.924-56.121-34.278c-22.992-13.924-46.127-27.609-69.072-41.607
		c-23.486-14.328-46.707-29.091-70.242-43.337c-35.789-21.667-71.812-42.948-107.613-64.598
		c-23.258-14.063-46.245-28.575-69.454-42.72c-13.338-8.128-26.935-15.832-40.279-23.95c-2.737-1.665-4.873-4.32-7.286-6.519
		c143.922,0.002,287.843-0.04,431.765,0.093c11.59,0.012,23.174,1.41,34.771,1.779c3.131,0.1,6.309-1.211,9.463-1.875
		c0.672,0.006,1.344,0.012,2.018,0.019c0.588,4.912,0.711,9.935,1.836,14.719c12.984,55.189,26.154,110.336,39.213,165.51
		c11.299,47.747,22.523,95.513,33.76,143.274C657.955,523.219,658.939,528.059,659.99,532.884z"/>
	<path fill="#7FB6D9" d="M-142,876.89c-5.735-5.396-11.596-10.663-17.184-16.208c-15.705-15.585-31.348-31.234-46.893-46.979
		c-3.012-3.05-5.22-6.893-8.227-9.946c-15.463-15.709-31.132-31.217-46.578-46.94c-4.171-4.246-7.677-9.136-11.731-13.504
		c-10.558-11.375-20.672-23.253-32.063-33.735c-10.047-9.244-18.796-19.428-27.811-29.575
		c-11.762-13.237-25.469-24.745-38.279-37.06c-1.901-1.827-3.401-4.063-5.217-5.988c-11.986-12.707-24.008-25.38-36.018-38.063
		c5.917-36.984,11.99-73.944,17.702-110.961c5.056-32.759,9.693-65.582,14.583-98.367c0.24-1.606,1.129-3.117,1.715-4.672
		c2.95,5.9,5.97,11.769,8.837,17.709c7.955,16.483,15.785,33.028,23.777,49.494c13.081,26.953,26.38,53.803,39.342,80.813
		c9.642,20.092,18.762,40.434,28.36,60.545c10.882,22.806,22.074,45.461,33.067,68.212c18.087,37.434,36.155,74.874,54.167,112.343
		c15.139,31.49,30.202,63.019,45.244,94.556C-143.928,871.237-143.059,874.109-142,876.89z"/>
</g>
</svg>
