<?xml version="1.0" encoding="utf-8"?>
<!-- Generator: Adobe Illustrator 16.0.0, SVG Export Plug-In . SVG Version: 6.00 Build 0)  -->
<!DOCTYPE svg PUBLIC "-//W3C//DTD SVG 1.1//EN" "http://www.w3.org/Graphics/SVG/1.1/DTD/svg11.dtd">
<svg version="1.1" id="Layer_1" xmlns="http://www.w3.org/2000/svg" xmlns:xlink="http://www.w3.org/1999/xlink" x="0px" y="0px"
	 width="141.732px" height="95.667px" viewBox="0 0 141.732 95.667" enable-background="new 0 0 141.732 95.667"
	 xml:space="preserve">
<g>
	<path fill="#FFFFFF" d="M3.075,57.876c0.07,0.098,0.151,0.191,0.209,0.297c0.303,0.543,0.881,0.808,1.456,0.658
		c0.591-0.15,0.993-0.66,0.991-1.256c0-0.597-0.406-1.109-0.993-1.258c-0.568-0.146-1.153,0.125-1.456,0.664
		c-0.06,0.104-0.138,0.198-0.208,0.301 M36.699,95.021c0.364-0.122,0.573-0.488,0.611-0.909c0.051-0.61-0.228-0.92-0.834-0.918
		c-0.026,0-0.053-0.022-0.104-0.047c-0.105-0.305-0.218-0.634-0.345-1.005c0.601-0.191,1.17-0.375,1.78-0.569
		c0.129,0.358,0.243,0.683,0.356,1.003c-0.113,0.102-0.225,0.159-0.272,0.252c-0.075,0.141-0.159,0.308-0.148,0.459
		c0.042,0.573,0.631,0.987,1.216,0.885c0.491-0.084,0.859-0.676,0.749-1.199c-0.101-0.48-0.279-0.622-0.787-0.62
		c-0.039,0.002-0.079-0.019-0.132-0.038c-0.104-0.3-0.206-0.602-0.324-0.95c4.027-1.266,8.021-2.524,12.04-3.788
		c0.08,0.144,0.141,0.269,0.217,0.381c0.406,0.604,0.771,1.246,1.237,1.804c1.428,1.709,3.275,2.546,5.501,2.554
		c1.667,0.005,3.187-0.472,4.57-1.378c0.542-0.353,1.061-0.74,1.573-1.13c0.577-0.438,1.178-0.575,1.848-0.244
		c0.021,0.011,0.052-0.003,0.11-0.009c0.07-0.093,0.154-0.198,0.23-0.296c-0.08-0.157-0.147-0.28-0.204-0.409
		c-0.296-0.672-0.189-1.185,0.376-1.657c0.235-0.197,0.496-0.376,0.771-0.512c1.577-0.785,3.257-1.123,5.01-1.087
		c0.577,0.012,1.148,0.1,1.676,0.356c0.712,0.346,1.035,0.936,0.947,1.715c-0.012,0.094-0.026,0.188-0.045,0.31
		c0.134,0.049,0.262,0.092,0.373,0.132c0.129-0.129,0.223-0.234,0.326-0.328c0.533-0.474,1.141-0.707,1.859-0.566
		c0.182,0.035,0.36,0.064,0.54,0.093c0.817,0.131,1.628,0.307,2.452,0.38c1.96,0.181,3.794-0.279,5.503-1.23
		c1.115-0.617,2.003-1.492,2.707-2.553c0.131-0.197,0.269-0.307,0.509-0.277c0.111,0.017,0.226,0.004,0.339,0.004
		c8.539,0,17.078,0,25.618-0.004c0.351,0,0.704-0.006,1.047-0.054c1.848-0.271,3.31-1.181,4.401-2.69
		c0.19-0.262,0.308-0.307,0.602-0.188c0.17,0.07,0.321,0.179,0.47,0.282c0.229,0.158,0.455,0.329,0.679,0.497
		c0.771,0.579,1.566,0.596,2.402,0.134c1.077-0.594,2.023-1.318,2.658-2.396c0.134-0.231,0.291-0.449,0.43-0.678
		c1.219-2.029,2.256-4.146,3.135-6.342c0.167-0.415,0.284-0.857,0.373-1.294c0.479-2.315,0.942-4.628,1.406-6.945
		c0.117-0.59,0.252-1.183,0.314-1.782c0.132-1.274-0.958-2.293-2.184-2.074c-0.099,0.166-0.033,0.279,0.104,0.394
		c0.14,0.117,0.276,0.24,0.39,0.384c0.38,0.48,0.3,0.94-0.259,1.207c-0.31,0.147-0.664,0.229-1.005,0.276
		c-0.679,0.089-1.342-0.063-1.998-0.216c-2.015-0.469-3.958-1.162-5.887-1.896c-0.455-0.174-0.457-0.174-0.457-0.661
		c-0.003-4.898-0.001-9.793,0-14.689c0-0.134,0.017-0.269,0.026-0.486c0.16,0.153,0.271,0.239,0.352,0.345
		c0.404,0.522,0.854,1.019,1.182,1.586c0.417,0.711,0.736,1.482,1.097,2.226c0.181,0.38,0.34,0.772,0.558,1.129
		c0.239,0.394,0.597,0.664,1.077,0.754c0.045-0.069,0.09-0.122,0.117-0.187c0.137-0.322,0.139-0.655,0.06-0.989
		c-0.157-0.667-0.46-1.27-0.824-1.841c-0.324-0.509-0.674-1.001-1.01-1.501c-0.419-0.62-0.801-1.261-1.021-1.982
		c-0.085-0.275-0.145-0.561-0.199-0.779c0.52-0.27,0.981-0.5,1.431-0.752c0.234-0.132,0.425-0.169,0.698-0.051
		c1.104,0.479,2.291,0.192,3-0.7c0.151,0.087,0.306,0.176,0.413,0.239c0.366-0.199,0.69-0.375,1.029-0.557
		c-0.057-0.093-0.13-0.195-0.188-0.305c-0.104-0.207-0.067-0.315,0.153-0.385c0.146-0.043,0.305-0.047,0.453-0.083
		c0.087-0.021,0.187-0.052,0.251-0.11c0.167-0.148,0.338-0.301,0.474-0.477c0.122-0.161,0.248-0.345,0.29-0.537
		c0.043-0.195,0.117-0.324,0.267-0.446c0.604-0.495,0.94-1.169,1.228-1.854c-0.139-0.261-0.369-0.301-0.582-0.368
		c-0.188-0.057-0.385-0.09-0.563-0.169c-0.302-0.132-0.315-0.231-0.11-0.498c0.16-0.204,0.159-0.286-0.049-0.448
		c-0.108-0.082-0.24-0.166-0.371-0.183c-0.263-0.032-0.531-0.032-0.794-0.023c-0.322,0.011-0.644,0.045-0.965,0.064
		c-0.423,0.024-0.801-0.115-1.142-0.359c-0.138-0.099-0.267-0.207-0.407-0.301c-1.064-0.71-2.227-1.045-3.507-0.953
		c-0.265,0.018-0.525,0.087-0.788,0.124c-0.337,0.047-0.649-0.035-0.909-0.244c-0.11-0.089-0.226-0.248-0.23-0.375
		c-0.012-0.418,0.106-0.788,0.481-1.054c0.409-0.294,0.814-0.603,1.174-0.951c0.404-0.392,0.76-0.831,1.124-1.261
		c0.725-0.862,1.607-1.479,2.688-1.808c1.411-0.432,2.695-1.127,3.898-1.966c1.103-0.771,2.184-1.577,3.257-2.395
		c0.235-0.18,0.448-0.451,0.549-0.728c0.284-0.752,0.501-1.529,0.754-2.312c-0.252,0-0.494,0.227-0.759-0.042
		c0.083-0.153,0.171-0.315,0.3-0.552c-0.158,0.024-0.271,0.011-0.316,0.058c-0.18,0.192-0.389,0.381-0.489,0.613
		c-0.15,0.345-0.229,0.721-0.307,1.09c-0.249,1.174-0.239,1.183-1.304,1.768c-0.629,0.343-1.281,0.643-1.901,0.995
		c-0.428,0.242-0.871,0.491-1.212,0.833c-0.545,0.543-1.18,0.89-1.911,1.096c-0.676,0.19-1.324,0.447-1.951,0.78
		c-0.251,0.138-0.542,0.227-0.828,0.289c-0.28,0.059-0.537-0.033-0.742-0.265c0.233-0.263,0.527-0.333,0.799-0.434
		c0.36-0.134,0.617-0.354,0.802-0.701c0.122-0.229,0.338-0.402,0.505-0.604c0.122-0.15,0.265-0.291,0.34-0.463
		c0.094-0.218,0.212-0.394,0.418-0.507c0.256-0.136,0.364-0.366,0.343-0.631c-0.014-0.247-0.047-0.512-0.154-0.728
		c-0.302-0.613-0.738-1.092-1.426-1.289c-0.186-0.056-0.383-0.124-0.532-0.244c-0.277-0.227-0.579-0.242-0.908-0.2
		c-0.451,0.057-0.815,0.299-1.186,0.529c-0.214,0.131-0.409,0.174-0.665,0.075c-0.467-0.181-0.776-0.045-1.012,0.398
		c-0.083,0.159-0.148,0.334-0.202,0.507c-0.105,0.352-0.198,0.704-0.299,1.067c0.043,0.051,0.092,0.103,0.134,0.157
		c0.042,0.056,0.075,0.119,0.119,0.174c0.174,0.227,0.256,0.251,0.542,0.15c0.117-0.042,0.232-0.108,0.353-0.134
		c0.082-0.018,0.172,0.021,0.279,0.039c-0.147,0.467-0.11,0.895-0.043,1.331c0.057,0.347,0.091,0.697-0.147,0.977
		c-0.543,0.087-1.051,0.06-1.573,0.011c-0.666-0.064-1.347-0.012-2.016,0.031c-1.136,0.075-2.245,0.09-3.269-0.526
		c-0.354-0.213-0.77-0.248-1.177-0.291c-0.514-0.056-1.031-0.12-1.538-0.223c-0.509-0.101-1.001-0.268-1.507-0.39
		c-0.948-0.233-1.796-0.115-2.515,0.638c-0.294,0.31-0.701,0.512-1.048,0.773c-0.225,0.169-0.469,0.326-0.639,0.538
		c-0.15,0.188-0.293,0.258-0.526,0.258c-2.104-0.007-4.213-0.003-6.316-0.005c-0.122,0-0.24-0.019-0.348-0.029
		c-0.016-0.068-0.025-0.092-0.025-0.121c0-0.042,0.002-0.085,0.012-0.125c0.357-1.58,0.033-3.073-0.613-4.515
		c-0.361-0.812-0.896-1.493-1.674-1.954c-0.047-0.028-0.105-0.039-0.164-0.06c0.023-0.035,0.045-0.069,0.066-0.104
		c0.605-0.094,1.214-0.178,1.819-0.284c2.382-0.421,4.781-0.666,7.202-0.666c1.097,0,2.187-0.009,3.273,0.18
		c1.493,0.261,2.59,1.026,3.268,2.386c0.1,0.2,0.207,0.4,0.322,0.592c0.153,0.25,0.302,0.512,0.486,0.74
		c0.158,0.191,0.345,0.375,0.554,0.508c0.425,0.277,0.744,0.195,0.955-0.275c0.157-0.352,0.286-0.74,0.334-1.125
		c0.259-2.113,0.242-4.236,0.061-6.356c-0.152-1.797-0.519-3.56-0.905-5.318c-0.209-0.949-0.482-1.883-0.917-2.757
		c-0.184-0.359-0.395-0.717-0.649-1.027c-0.486-0.58-0.946-0.543-1.352,0.085c-0.171,0.27-0.319,0.566-0.426,0.868
		c-0.19,0.557-0.39,1.118-0.503,1.698c-0.243,1.256-0.897,2.259-1.824,3.102c-0.946,0.861-1.993,1.589-3.242,1.902
		c-4.723,1.183-9.442,2.392-14.188,3.471c-5.473,1.244-10.974,2.366-16.462,3.538c-0.478,0.101-0.957,0.185-1.474,0.28
		c-0.071-0.357-0.14-0.683-0.206-1.005c-0.369-0.195-0.759-0.051-1.167-0.112c-0.063-0.508-0.12-1.017-0.179-1.519
		c0.159-0.089,0.279-0.157,0.401-0.223c0.16-0.09,0.256-0.193,0.229-0.402c-0.026-0.208-0.14-0.294-0.313-0.343
		c-0.563-0.162-1.08-0.049-1.57,0.246c-0.166,0.101-0.231,0.221-0.204,0.415c0.025,0.202,0.116,0.303,0.313,0.331
		c0.134,0.018,0.268,0.063,0.411,0.099c0.101,0.521,0.2,1.03,0.307,1.554c-0.321,0.113-0.605,0.213-0.908,0.321
		c0.063,0.406,0.124,0.775,0.188,1.177c-0.315,0.056-0.598,0.11-0.896,0.164c-0.078-0.408-0.148-0.763-0.219-1.115
		c-0.361-0.183-0.736-0.051-1.124-0.108c-0.057-0.501-0.116-1-0.174-1.503c0.146-0.091,0.275-0.174,0.407-0.249
		c0.14-0.079,0.185-0.187,0.167-0.349c-0.018-0.174-0.08-0.286-0.251-0.345c-0.495-0.172-0.974-0.125-1.425,0.117
		c-0.381,0.206-0.542,0.207-0.302,0.807c0.212,0.045,0.439,0.094,0.688,0.145c0.098,0.512,0.19,1.019,0.282,1.521
		c-0.338,0.118-0.629,0.218-0.942,0.326c0.068,0.436,0.129,0.845,0.197,1.292c-0.359,0.07-0.679,0.136-1.022,0.204
		c-0.085-0.423-0.157-0.791-0.238-1.204c-0.387,0-0.744,0-1.118,0c-0.066-0.563-0.127-1.073-0.186-1.566
		c0.181-0.098,0.319-0.166,0.451-0.244c0.136-0.08,0.254-0.164,0.218-0.362c-0.034-0.187-0.118-0.3-0.301-0.359
		c-0.502-0.162-0.97-0.08-1.425,0.155c-0.411,0.216-0.423,0.248-0.277,0.748c0.124,0.033,0.259,0.08,0.395,0.094
		c0.146,0.021,0.234,0.079,0.261,0.229c0.087,0.465,0.178,0.932,0.268,1.414c-0.323,0.115-0.624,0.22-0.941,0.333
		c0.073,0.44,0.136,0.852,0.206,1.291c-2.143,0.432-4.241,0.855-6.35,1.279c-0.093-0.133-0.176-0.242-0.254-0.359
		c-0.545-0.821-1.089-1.638-1.636-2.459c-1.987-2.982-3.973-5.968-5.959-8.95c-0.118-0.176-0.226-0.345-0.235-0.573
		c-0.022-0.787-0.082-1.573-0.089-2.36c-0.003-0.331,0.02-0.7,0.158-0.986c0.23-0.471,0.133-0.798-0.244-1.099
		c-0.054-0.042-0.098-0.101-0.146-0.15c-1.409-1.399-2.869-2.738-4.429-3.963c-0.087-0.07-0.166-0.146-0.245-0.221
		c0.043-0.111,0.078-0.202,0.114-0.291c0.598-1.508-0.149-3.09-1.69-3.586c-0.115-0.037-0.221-0.113-0.34-0.139
		C42.139,0.59,41.707,0.6,41.5,0.64c-0.138,0.024-0.258,0.101-0.389,0.146c-1.456,0.468-2.229,1.987-1.745,3.437
		c0.092,0.28,0.193,0.559,0.289,0.838c0.089,0.259,0.174,0.522,0.273,0.815c-0.255,0.075-0.464,0.136-0.659,0.195
		c-0.542-0.691-0.465-0.575-1.174-0.375c-0.066,0.019-0.135,0.038-0.202,0.056c-0.2,0.061-0.299,0.202-0.313,0.402
		c-0.035,0.467,0.079,0.896,0.368,1.267c0.13,0.167,0.299,0.252,0.519,0.167c0.091-0.037,0.19-0.056,0.282-0.085
		c0.632-0.193,0.632-0.193,0.646-0.838c0-0.028,0.017-0.05,0.037-0.106c0.206-0.063,0.427-0.129,0.679-0.206
		c0.225,0.632,0.437,1.221,0.655,1.837c-0.26,0.077-0.471,0.143-0.689,0.208c-0.075-0.11-0.14-0.2-0.204-0.291
		c-0.132-0.19-0.308-0.307-0.538-0.211c-0.32,0.129-0.759,0.054-0.918,0.488c-0.021,0.063-0.03,0.141-0.021,0.208
		c0.045,0.247,0.061,0.507,0.15,0.735c0.241,0.61,0.406,0.676,1.026,0.498c0.615-0.179,0.625-0.191,0.649-0.837
		c0.002-0.026,0.021-0.051,0.049-0.112c0.199-0.059,0.42-0.124,0.67-0.2c0.117,0.328,0.223,0.615,0.328,0.902
		c0.107,0.299,0.216,0.599,0.329,0.915c-0.149,0.05-0.252,0.092-0.359,0.12c-0.117,0.035-0.237,0.059-0.348,0.085
		c-0.048-0.06-0.073-0.091-0.099-0.125c-0.284-0.427-0.352-0.451-0.829-0.313c-0.147,0.043-0.296,0.089-0.439,0.139
		c-0.199,0.064-0.291,0.208-0.306,0.411c-0.025,0.453,0.099,0.862,0.364,1.229c0.132,0.187,0.309,0.281,0.547,0.181
		c0.077-0.035,0.16-0.054,0.24-0.078c0.653-0.199,0.652-0.199,0.676-0.857c0-0.024,0.022-0.049,0.047-0.098
		c0.207-0.063,0.433-0.129,0.689-0.207c0.234,0.615,0.455,1.198,0.693,1.822c-0.286,0.089-0.52,0.162-0.76,0.239
		c-0.07-0.112-0.119-0.195-0.178-0.273c-0.197-0.277-0.313-0.315-0.643-0.221c-0.068,0.019-0.135,0.042-0.2,0.064
		c-0.653,0.198-0.732,0.32-0.617,0.996c0.018,0.096,0.043,0.191,0.077,0.282c0.24,0.658,0.44,0.759,1.104,0.552
		c0.59-0.183,0.597-0.193,0.599-0.826c0-0.026,0.021-0.051,0.049-0.11c0.227-0.068,0.474-0.146,0.749-0.228
		c0.158,0.364,0.312,0.693,0.446,1.031c0.124,0.317,0.333,0.547,0.639,0.691c0.672,0.32,1.338,0.648,2.015,0.956
		c0.188,0.085,0.328,0.197,0.443,0.368c2.202,3.315,4.41,6.623,6.614,9.934c0.067,0.103,0.122,0.211,0.202,0.349
		c-0.729,0.103-1.405,0.188-2.082,0.294c-0.853,0.129-1.685,0.334-2.436,0.77c-0.28,0.166-0.557,0.223-0.874,0.223
		c-6.757-0.007-13.513-0.007-20.268,0.002c-0.53,0.001-1.07,0.043-1.587,0.157c-2.973,0.656-5.034,3.379-5.016,6.326
		c0.024,4.377,0.007,8.751,0.007,13.126c0,3.884,0,7.767,0,11.651c0,0.146-0.009,0.291-0.016,0.522
		c-0.229-0.232-0.378-0.399-0.545-0.545c-0.446-0.395-0.959-0.575-1.555-0.491c-0.963,0.138-2.005,1.202-2.089,2.172
		c-0.091,1.035,0.229,1.913,1.079,2.556c0.28,0.211,0.566,0.414,0.839,0.635c0.278,0.231,0.272,0.322-0.008,0.566
		c-0.104,0.094-0.216,0.182-0.334,0.253c-0.298,0.188-0.592,0.38-0.899,0.546c-0.438,0.231-0.69,0.578-0.688,1.072
		c0.004,0.395-0.005,0.797,0.087,1.172c0.146,0.582,0.369,1.146,0.568,1.717c0.129,0.373,0.287,0.731,0.406,1.107
		c0.115,0.369,0.132,0.752,0.003,1.124c-0.313,0.888-0.826,1.62-1.642,2.122c-0.191,0.117-0.373,0.254-0.551,0.393
		c-0.15,0.116-0.197,0.264-0.078,0.441c0.053,0.08,0.097,0.17,0.151,0.25c0.271,0.395,0.617,0.479,1.012,0.202
		c0.282-0.2,0.587-0.427,0.759-0.714c0.322-0.53,0.742-0.946,1.2-1.342c0.129-0.105,0.23-0.248,0.351-0.365
		c0.503-0.502,0.727-1.084,0.561-1.801c-0.054-0.244-0.04-0.498,0.045-0.742c0.264,0.105,0.302,0.103,0.39,0.3
		c0.145,0.336,0.258,0.681,0.38,1.024c0.143,0.41,0.259,0.832,0.428,1.229c0.096,0.228,0.152,0.442,0.15,0.688
		c-0.008,1.334-0.013,2.672-0.003,4.008c0.017,1.826,0.71,3.369,2.029,4.617c1.263,1.193,2.782,1.754,4.518,1.754
		c7.163-0.002,14.326,0,21.488,0c0.177,0,0.354,0,0.54,0c0.07,0.418,0.127,0.773,0.191,1.168c-4.22,1.625-8.418,3.24-12.665,4.875
		c-0.125-0.362-0.235-0.688-0.339-0.996c0.394-0.313,0.428-0.362,0.432-0.582c0.01-0.582-0.502-1.049-1.109-1.018
		c-0.529,0.025-0.966,0.576-0.895,1.123c0.059,0.453,0.286,0.657,0.752,0.68c0.052,0,0.104,0.014,0.178,0.025
		c0.113,0.334,0.226,0.66,0.346,1.01c-0.553,0.209-1.056,0.397-1.586,0.599c-0.121-0.361-0.226-0.66-0.321-0.944
		c0.214-0.183,0.438-0.291,0.438-0.582c0-0.382-0.234-0.761-0.614-0.936c-0.362-0.164-0.719-0.155-1.02,0.125
		c-0.308,0.283-0.458,0.636-0.331,1.063c0.119,0.395,0.275,0.51,0.699,0.54c0.054,0.003,0.106,0.015,0.188,0.022
		c0.109,0.313,0.218,0.629,0.327,0.937c-0.354,0.322-0.721,0.482-1.207,0.351c-0.044-0.109-0.084-0.246-0.151-0.366
		c-0.052-0.091-0.124-0.21-0.21-0.233c-0.403-0.099-0.796-0.08-1.144,0.202c0.061,0.19,0.108,0.353,0.167,0.543
		c-0.125,0.087-0.249,0.177-0.341,0.246c0.031,0.185,0.05,0.303,0.073,0.425c-0.322,0.186-0.624,0.362-0.953,0.553
		c0.134,0.389,0.261,0.75,0.397,1.139c0.388-0.055,0.744-0.104,1.099-0.155c0.073,0.136,0.131,0.247,0.189,0.354
		c0.148,0.016,0.284,0.028,0.423,0.043c0.082,0.176,0.156,0.334,0.229,0.49c0.342-0.019,0.596-0.16,0.828-0.35
		c0.202-0.169,0.31-0.359,0.167-0.625c-0.047-0.082-0.057-0.186-0.092-0.314c0.18-0.129,0.343-0.315,0.543-0.373
		c0.438-0.125,0.896-0.186,1.376-0.275c0.122,0.352,0.242,0.688,0.354,1.012c-0.59,0.521-0.54,1.085,0.099,1.495
		c0.059,0.038,0.103,0.097,0.166,0.122C36.18,95.078,36.539,95.076,36.699,95.021z M9.051,66.432
		c0.008,0.712,0.582,1.282,1.292,1.282c0.702,0,1.291-0.586,1.295-1.291c0.007-0.721-0.588-1.303-1.32-1.295
		C9.598,65.14,9.047,65.708,9.051,66.432z M17.999,46.265c-0.005-0.714-0.587-1.291-1.292-1.286
		c-0.704,0.003-1.284,0.589-1.291,1.296c-0.003,0.721,0.594,1.308,1.324,1.298C17.456,47.561,18.006,46.986,17.999,46.265z
		 M6.691,46.294c-0.729,0.009-1.268,0.559-1.266,1.292c0.004,0.725,0.562,1.28,1.284,1.28c0.727,0,1.317-0.599,1.294-1.32
		C7.983,46.828,7.414,46.288,6.691,46.294z M74.46,27.89c-0.156-0.953-0.303-1.836-0.451-2.745c0.106-0.038,0.192-0.087,0.284-0.099
		c2.822-0.46,5.647-0.915,8.473-1.375c2.852-0.465,5.702-0.928,8.553-1.395c1.232-0.2,2.464-0.408,3.698-0.601
		c0.561-0.089,1.099,0.012,1.572,0.324c0.254,0.17,0.511,0.364,0.699,0.601c1.008,1.256,1.423,2.686,1.195,4.292
		c-0.017,0.124-0.052,0.248-0.087,0.37c-0.18,0.628-0.182,0.628-0.825,0.628c-7.509,0-15.02,0-22.529,0
		C74.861,27.89,74.68,27.89,74.46,27.89L74.46,27.89z M131.541,63c-0.023,0.338-0.021,0.617-0.067,0.888
		c-0.043,0.263-0.108,0.528-0.207,0.774c-0.484,1.172-0.782,2.402-1.091,3.629c-0.166,0.649-0.276,1.323-0.323,1.99
		c-0.089,1.327-0.428,2.576-1.013,3.76c-0.898,1.819-1.96,3.543-3.11,5.207c-0.331,0.479-0.769,0.897-1.202,1.291
		c-0.589,0.537-1.303,0.615-2.054,0.399c-0.704-0.2-1.289-0.603-1.874-1.099c0.43-0.989,0.622-2.029,0.563-3.207
		c0.214,0.121,0.371,0.174,0.479,0.279c0.246,0.229,0.468,0.483,0.695,0.732c0.242,0.27,0.475,0.554,0.73,0.813
		c0.202,0.205,0.451,0.334,0.742,0.373c0.496,0.06,0.909-0.091,1.136-0.543c0.169-0.347,0.315-0.728,0.369-1.107
		c0.063-0.455,0.03-0.926,0.014-1.391c-0.016-0.395-0.25-0.66-0.616-0.766c-0.318-0.094-0.656-0.156-0.985-0.169
		c-0.604-0.024-1.211,0.009-1.813,0.001c-0.232-0.003-0.465-0.045-0.714-0.068c0-0.677,0-1.301,0-1.964
		c0.704,0.089,1.322-0.145,1.957-0.325c0.252-0.074,0.524-0.09,0.787-0.121c0.408-0.049,0.709,0.106,0.896,0.481
		c0.137,0.277,0.282,0.548,0.426,0.82c0.117,0.225,0.23,0.45,0.363,0.669c0.076,0.124,0.186,0.232,0.287,0.361
		c0.313-0.185,0.471-0.424,0.449-0.744c-0.014-0.219-0.056-0.448-0.136-0.65c-0.197-0.507-0.51-0.939-0.94-1.277
		c-0.274-0.216-0.565-0.414-0.843-0.627c-0.233-0.182-0.465-0.367-0.686-0.562c-0.244-0.216-0.344-0.47-0.288-0.824
		c0.109-0.692,0.37-1.321,0.679-1.94c0.218-0.44,0.443-0.879,0.638-1.328c0.153-0.346,0.264-0.709,0.235-1.123
		c-0.237-0.02-0.382,0.121-0.484,0.274c-0.162,0.246-0.324,0.5-0.423,0.773c-0.308,0.848-0.691,1.655-1.117,2.452
		c-0.125,0.234-0.221,0.484-0.316,0.736c-0.177,0.448-0.1,0.854,0.246,1.201c0.089,0.09,0.183,0.186,0.241,0.292
		c0.083,0.151,0.142,0.32,0.228,0.526c-0.638,0.166-1.207,0.279-1.798,0.181c-0.108-0.016-0.231-0.108-0.289-0.202
		c-0.19-0.307-0.191-0.641-0.038-0.968c0.047-0.099,0.11-0.194,0.186-0.276c0.771-0.85,1.075-1.896,1.258-2.99
		c0.15-0.891,0.157-1.791,0.017-2.688c-0.01-0.068-0.031-0.134-0.049-0.195c-0.349,0.006-0.44,0.066-0.48,0.334
		c-0.011,0.082-0.014,0.17,0,0.25c0.134,0.64,0.042,1.265-0.125,1.877c-0.187,0.677-0.413,1.342-0.631,2.007
		c-0.036,0.125-0.113,0.237-0.242,0.333c0-2.775,0-5.551,0-8.385c0.16,0.056,0.298,0.101,0.436,0.15
		c1.375,0.53,2.754,1.057,4.186,1.411c1.216,0.299,2.451,0.5,3.708,0.456c0.519-0.018,1.033-0.083,1.55-0.13
		C131.208,63.041,131.33,63.023,131.541,63L131.541,63z M125.075,67.822c1.055,0.379,2.08,0.745,3.109,1.113
		c0.24-0.465,0.185-0.889-0.217-1.277c-0.527-0.505-1.174-0.719-1.895-0.639C125.617,67.071,125.254,67.289,125.075,67.822z
		 M125.82,64.657c-0.17,0.677-0.005,0.996,0.608,1.193c0.253,0.082,0.512,0.146,0.774,0.192c0.799,0.129,1.44,0.441,1.702,1.291
		c0.087,0.285,0.321,0.405,0.624,0.375c0.15-0.614,0.011-1.112-0.479-1.463c-0.316-0.225-0.679-0.396-1.037-0.543
		C127.261,65.399,126.46,65.216,125.82,64.657z M113.568,27.864c-1.58,0-3.156,0-4.806,0c0.236-0.362,0.421-0.69,0.654-0.979
		c0.313-0.383,0.751-0.415,1.195-0.303c0.214,0.056,0.427,0.148,0.613,0.267c0.62,0.406,1.303,0.651,2.007,0.847
		c0.118,0.033,0.23,0.077,0.348,0.115C113.575,27.828,113.572,27.847,113.568,27.864L113.568,27.864z M72.073,27.87
		c-0.408,0-0.754,0-1.15,0c-0.143-0.697-0.285-1.392-0.438-2.125c0.369-0.078,0.706-0.151,1.092-0.235
		C71.791,26.279,71.909,27.047,72.073,27.87z M59.789,27.798c1.442-0.233,2.883-0.465,4.356-0.705
		c0.049,0.287,0.085,0.517,0.127,0.775c-1.516,0-2.987,0-4.456,0C59.808,27.845,59.799,27.821,59.789,27.798z M66.824,26.513
		c0.396-0.079,0.735-0.145,1.111-0.22c0.107,0.537,0.208,1.038,0.313,1.575c-0.403,0-0.749,0-1.148,0
		C67.011,27.432,66.92,26.988,66.824,26.513L66.824,26.513z M113.157,29.256c1.683,0,3.158,0.53,4.381,1.66
		c1.278,1.181,1.951,2.639,1.966,4.365c0.013,1.263,0.008,2.528,0,3.792l0.004,13.324c0,3.668,0,7.34,0,11.013
		c0,4.135-0.02,8.274,0.006,12.412c0.018,2.785-1.979,5.359-4.863,5.979c-0.5,0.105-1.024,0.146-1.54,0.146l-70.538,0.01
		c-0.376,0-0.751,0-1.127,0c-0.214,0-0.43,0-0.648,0c-0.189,0-0.381,0-0.57,0c-1.26,0-2.522,0-3.783-0.006c-0.002,0-0.004,0-0.005,0
		c-0.083,0-0.155,0.01-0.221,0.029c-0.243,0-0.485,0-0.729,0c-2.317,0-4.632,0-6.947,0c-1.683,0-3.155-0.527-4.382-1.656
		c-1.275-1.181-1.949-2.643-1.966-4.369c-0.011-1.263-0.005-2.526,0.001-3.789l-0.003-13.322c0-3.672,0-7.342,0-11.012
		c0-4.141,0.019-8.275-0.007-12.414c-0.019-2.787,1.979-5.36,4.862-5.981c0.501-0.106,1.026-0.146,1.542-0.146l70.538-0.007
		c2.043,0,4.088-0.003,6.129,0.005c0,0,0,0,0.002,0c0.085,0,0.158-0.01,0.224-0.031c0.244,0,0.485,0,0.729,0
		C108.526,29.256,110.842,29.256,113.157,29.256"/>
	<g>
		<path id="path39_3_" fill="#FFFFFF" d="M44.24,36.671c-0.423,0-0.828,0-1.263,0c0-0.277,0-0.522,0-0.807
			c0.108-0.008,0.229-0.028,0.35-0.028c1.447-0.001,2.896-0.012,4.34,0.005C48.084,35.846,48.51,35.9,48.914,36
			c0.977,0.244,1.582,0.874,1.796,1.864c0.131,0.615,0.113,1.229-0.083,1.832c-0.281,0.859-0.848,1.441-1.712,1.721
			c-0.105,0.035-0.21,0.071-0.308,0.104c0.649,1.113,1.298,2.212,1.938,3.318c0.148,0.256,0.351,0.388,0.65,0.383
			c0.11-0.001,0.221,0.012,0.369,0.021c0,0.253,0,0.497,0,0.792c-0.427,0.033-0.867,0.072-1.301-0.068
			c-0.289-0.092-0.438-0.339-0.58-0.583c-0.53-0.911-1.063-1.824-1.593-2.734c-0.534-0.918-0.543-0.925-1.596-0.925
			c-0.378,0-0.756,0-1.127,0c-0.092,0.322-0.124,2.686-0.045,3.479c0.406,0,0.818,0,1.263,0c0,0.298,0,0.542,0,0.849
			c-1.192,0.017-2.39,0.003-3.613,0.008c0-0.284,0-0.529,0-0.822c0.418,0,0.833,0,1.232,0C44.299,44.896,44.325,37.3,44.24,36.671z
			 M45.316,40.815c0.129,0.012,0.234,0.026,0.345,0.026c0.687,0.003,1.373,0.009,2.06,0c1.105-0.01,1.863-0.651,2.021-1.747
			c0.167-1.198-0.334-2.235-1.719-2.343c-0.862-0.066-1.735-0.04-2.603-0.054c-0.035,0-0.069,0.038-0.103,0.057
			C45.316,38.106,45.316,39.449,45.316,40.815z"/>
		<path id="path41_3_" fill="#FFFFFF" d="M64.137,35.655c2.928,0,5.217,2.287,5.226,5.217c0.01,2.998-2.299,5.362-5.236,5.36
			c-2.915-0.003-5.192-2.352-5.19-5.353C58.936,37.938,61.207,35.657,64.137,35.655z M64.098,45.317
			c1.138-0.019,2.089-0.392,2.854-1.162c1.148-1.153,1.533-2.555,1.265-4.142c-0.292-1.74-1.664-3.085-3.431-3.392
			c-1.666-0.287-3.379,0.545-4.236,2.059c-0.943,1.667-0.698,3.87,0.608,5.3C61.958,44.859,62.959,45.298,64.098,45.317z"/>
		<g>
			<path id="path29_3_" fill="#FFFFFF" d="M60.252,66.991c0,1.476,0,2.902,0,4.382c0.891,0,1.767,0,2.674,0c0,1.592,0,3.131,0,4.698
				c-7.438,0-14.859,0-22.279,0c-0.085-0.294-0.118-3.917-0.035-4.67c0.699-0.03,1.411,0.007,2.116-0.021
				c0.023-0.303-0.611-2.698-0.913-3.433c-2.188,0-4.386,0-6.654,0c-0.317,1.111-0.638,2.25-0.979,3.445c0.781,0,1.49,0,2.228,0
				c0,1.582,0,3.12,0,4.683c-3.597,0-7.175,0-10.749,0c-0.089-0.293-0.124-3.889-0.038-4.673c0.687-0.034,1.381,0.007,2.109-0.024
				c2.357-7.082,4.713-14.159,7.069-21.237c2.475,0,4.916,0,7.403,0c2.354,7.067,4.708,14.142,7.065,21.228c1.479,0,2.938,0,4.391,0
				c0.094-0.31,0.113-16.024,0.019-16.516c-0.915,0-1.837,0-2.745,0c-0.104-0.333-0.122-4.227-0.031-4.71
				c0.117-0.007,0.24-0.019,0.364-0.019c4.112,0,8.229-0.01,12.345,0.012c1.25,0.007,2.496,0.094,3.719,0.39
				c3.133,0.759,5.178,3.097,5.532,6.304c0.139,1.264,0.066,2.504-0.303,3.717c-0.566,1.865-1.738,3.25-3.389,4.254
				c-0.145,0.087-0.286,0.174-0.459,0.279c0.104,0.075,0.172,0.137,0.25,0.184c0.604,0.369,1.062,0.865,1.386,1.496
				c0.618,1.197,1.261,2.386,1.856,3.595c0.343,0.707,0.883,1.024,1.642,1.031c0.32,0.003,0.641,0,0.954,0
				c0.099,0.329,0.132,3.868,0.05,4.68c-0.1,0.013-0.206,0.033-0.313,0.033c-1.418,0-2.837,0.014-4.255-0.005
				c-0.444-0.008-0.894-0.075-1.333-0.166c-0.672-0.139-1.207-0.516-1.599-1.083c-0.151-0.222-0.287-0.451-0.411-0.688
				c-1.03-1.966-2.055-3.938-3.08-5.906c-0.091-0.174-0.188-0.347-0.296-0.511c-0.207-0.317-0.503-0.528-0.871-0.627
				C61.895,66.897,61.083,67.005,60.252,66.991L60.252,66.991z M60.254,61.889c0.166,0.009,0.301,0.022,0.438,0.024
				c0.549,0,1.096,0.006,1.644-0.002c0.52-0.011,1.04-0.009,1.557-0.063c1.281-0.134,2.17-0.913,2.458-2.146
				c0.167-0.722,0.171-1.449,0.042-2.18c-0.2-1.132-0.862-1.827-1.969-2.109c-0.082-0.021-0.161-0.049-0.245-0.063
				c-1.269-0.221-2.547-0.145-3.823-0.127c-0.024,0-0.049,0.023-0.101,0.052C60.254,57.449,60.254,59.641,60.254,61.889z
				 M38.502,55.498c-0.343,2.557-1.326,4.944-1.916,7.431c0.415,0.098,3.452,0.091,3.809-0.003
				C39.803,60.447,38.873,58.054,38.502,55.498z"/>
			<path id="path31_3_" fill="#FFFFFF" d="M96.87,66.916c1.921,0,3.812,0,5.725,0c0.014,0.127,0.032,0.232,0.034,0.34
				c0.005,0.451,0.015,0.899,0,1.351c-0.021,0.752,0.329,1.287,0.955,1.665c0.529,0.313,1.106,0.479,1.71,0.559
				c0.923,0.127,1.851,0.133,2.754-0.125c0.333-0.097,0.667-0.23,0.958-0.416c0.977-0.619,1.16-1.822,0.399-2.695
				c-0.26-0.301-0.592-0.566-0.941-0.764c-0.521-0.298-1.075-0.545-1.635-0.768c-1.107-0.441-2.23-0.843-3.343-1.28
				c-1.033-0.409-2.033-0.888-2.952-1.519c-1.43-0.982-2.449-2.264-2.846-3.983c-0.359-1.54-0.324-3.073,0.147-4.584
				c0.573-1.821,1.796-3.082,3.487-3.909c1.125-0.549,2.322-0.848,3.557-0.985c2.127-0.239,4.231-0.106,6.299,0.489
				c0.81,0.231,1.587,0.559,2.305,1.012c0.516,0.324,0.979,0.707,1.352,1.195c0.441,0.568,0.729,1.209,0.739,1.935
				c0.021,1.294,0.01,2.587,0.012,3.883c0,0.056-0.019,0.108-0.032,0.188c-1.906,0-3.807,0-5.765,0c0-0.438-0.022-0.857,0.005-1.271
				c0.052-0.814-0.226-1.261-1.094-1.589c-1.122-0.423-2.287-0.453-3.433-0.115c-1.284,0.376-1.688,1.657-0.9,2.752
				c0.296,0.408,0.679,0.722,1.118,0.944c0.617,0.308,1.238,0.599,1.877,0.85c1.124,0.44,2.265,0.831,3.39,1.271
				c0.918,0.358,1.792,0.805,2.606,1.362c1.314,0.898,2.325,2.045,2.747,3.615c0.774,2.891,0.207,7.01-3.989,9.022
				c-1.331,0.639-2.741,0.979-4.208,1.118c-1.878,0.18-3.729,0.051-5.548-0.451c-1.158-0.318-2.252-0.787-3.227-1.508
				c-1.019-0.756-1.794-1.702-2.106-2.959c-0.104-0.42-0.16-0.861-0.172-1.291c-0.023-1.026-0.009-2.055-0.005-3.08
				C96.845,67.106,96.857,67.033,96.87,66.916z"/>
			<path id="path33_3_" fill="#FFFFFF" d="M97.254,50.144c0,2.914,0,5.792,0,8.669c-0.319,0.083-4.924,0.099-5.424,0.01
				c0-0.589,0-1.19,0-1.792c0-0.589,0-1.177,0-1.796c-1.036,0-2.04,0-3.064,0c0,5.386,0,10.74,0,16.142c0.95,0,1.886,0,2.848,0
				c0,1.59,0,3.125,0,4.694c-4.069,0-8.134,0-12.229,0c0-1.548,0-3.086,0-4.673c0.948,0,1.884,0,2.845,0c0-5.4,0-10.754,0-16.111
				c-0.275-0.104-2.398-0.133-3.058-0.033c-0.021,0.584-0.005,1.183-0.009,1.779c-0.002,0.594-0.002,1.184-0.002,1.764
				c-0.31,0.101-4.886,0.125-5.403,0.033c0-2.887,0-5.776,0-8.686C81.593,50.144,89.398,50.144,97.254,50.144L97.254,50.144z"/>
			<path id="path35_3_" fill="#FFFFFF" d="M71.046,36.674c-0.423,0-0.827,0-1.266,0c0-0.273,0-0.519,0-0.803
				c0.087-0.011,0.19-0.035,0.298-0.035c1.487-0.003,2.978-0.012,4.464,0.007c0.404,0.003,0.815,0.063,1.206,0.164
				c0.976,0.251,1.574,0.894,1.776,1.881c0.119,0.585,0.109,1.177-0.07,1.752c-0.28,0.892-0.856,1.503-1.759,1.786
				c-0.093,0.028-0.186,0.061-0.303,0.103c0.157,0.253,0.316,0.495,0.463,0.744c0.491,0.834,0.986,1.671,1.463,2.516
				c0.171,0.303,0.398,0.447,0.748,0.439c0.531-0.012,1.063-0.002,1.656-0.002c0.225-2.85,0.448-5.671,0.681-8.551
				c-0.463,0-0.876,0-1.317,0c0-0.299,0-0.545,0-0.815c0.819,0,1.611,0,2.438,0c1.052,2.381,2.108,4.769,3.177,7.187
				c1.061-2.395,2.115-4.779,3.179-7.183c0.807,0,1.613,0,2.44,0c0,0.267,0,0.512,0,0.808c-0.438,0-0.853,0-1.32,0
				c0.224,2.876,0.446,5.699,0.671,8.558c0.453,0,0.857,0,1.296,0c0,0.279,0,0.526,0,0.801c-1.183,0-2.366,0-3.583,0
				c0-0.249,0-0.497,0-0.798c0.417,0,0.829,0,1.284,0c-0.194-2.54-0.387-5.015-0.583-7.547c-0.976,2.158-1.935,4.273-2.897,6.401
				c-0.315,0-0.62,0-0.968,0c-0.967-2.125-1.939-4.266-2.916-6.406c-0.191,2.491-0.383,4.981-0.579,7.539c0.438,0,0.852,0,1.283,0
				c0,0.301,0,0.545,0,0.817c-0.141,0.009-0.265,0.024-0.387,0.024c-1.261,0.001-2.527,0.001-3.792,0
				c-0.11,0-0.221-0.007-0.334-0.009c-0.418-0.005-0.721-0.188-0.93-0.549c-0.28-0.489-0.568-0.972-0.853-1.458
				c-0.333-0.573-0.674-1.137-0.993-1.715c-0.229-0.41-0.552-0.615-1.023-0.604c-0.519,0.012-1.035,0.003-1.575,0.003
				c0,1.176,0,2.306,0,3.491c0.425,0,0.841,0,1.28,0c0,0.294,0,0.54,0,0.812c-1.209,0-2.409,0-3.632,0c0-0.259,0-0.505,0-0.794
				c0.43,0,0.845,0,1.247,0C71.106,44.894,71.13,37.313,71.046,36.674L71.046,36.674z M72.118,36.758c0,1.347,0,2.691,0,4.057
				c0.113,0.012,0.208,0.026,0.301,0.026c0.719,0.003,1.433,0.012,2.146,0c1.047-0.012,1.792-0.625,1.965-1.664
				c0.237-1.405-0.441-2.341-1.704-2.426c-0.878-0.059-1.763-0.035-2.644-0.045C72.168,36.706,72.158,36.722,72.118,36.758z"/>
			<path id="path37_3_" fill="#FFFFFF" d="M97.78,45.235c0.481,0,0.896,0,1.334,0c0,0.288,0,0.53,0,0.801c-1.221,0-2.423,0-3.649,0
				c0-0.259,0-0.505,0-0.796c0.423,0,0.836,0,1.239,0c0.09-0.347,0.115-7.952,0.031-8.556c-0.404,0-0.817,0-1.263,0
				c0-0.291,0-0.537,0-0.834c0.375-0.033,0.763-0.011,1.15-0.016c0.376-0.003,0.756,0,1.144,0c1.996,2.82,3.986,5.626,5.964,8.42
				c0.075-0.252,0.107-6.838,0.021-7.574c-0.418,0-0.843,0-1.292,0c0-0.303,0-0.547,0-0.818c1.216,0,2.414,0,3.645,0
				c0,0.252,0,0.498,0,0.792c-0.418,0-0.833,0-1.306,0c-0.016,1.08-0.005,2.115-0.005,3.149c-0.005,1.027-0.005,2.055-0.005,3.081
				c0,1.04,0,2.078,0,3.172c-0.305,0-0.582,0.009-0.854-0.005c-0.071-0.004-0.151-0.062-0.208-0.115
				c-0.069-0.068-0.117-0.16-0.172-0.239c-1.749-2.464-3.496-4.931-5.245-7.397c-0.159-0.227-0.306-0.461-0.491-0.691
				C97.78,40.128,97.782,42.646,97.78,45.235z"/>
			<path id="path43_3_" fill="#FFFFFF" d="M115.563,38.767c-0.35,0-0.625,0-0.965,0c-0.003-0.195-0.028-0.387-0.013-0.575
				c0.044-0.517-0.214-0.854-0.628-1.101c-0.403-0.244-0.849-0.375-1.307-0.448c-0.729-0.12-1.456-0.117-2.172,0.071
				c-1.662,0.436-2.822,1.822-2.991,3.578c-0.075,0.793-0.033,1.577,0.254,2.327c0.587,1.543,1.71,2.444,3.339,2.667
				c0.857,0.118,1.71,0.024,2.534-0.256c0.262-0.089,0.518-0.222,0.749-0.373c0.315-0.2,0.479-0.501,0.474-0.89
				c-0.009-0.491-0.003-0.979-0.003-1.521c-0.711,0-1.39,0-2.096,0c0-0.294,0-0.54,0-0.815c1.003,0,2.003,0,3.031,0
				c0.011,0.133,0.023,0.258,0.023,0.38c0.003,0.688-0.012,1.378,0.007,2.066c0.017,0.674-0.272,1.164-0.816,1.524
				c-0.547,0.362-1.158,0.556-1.797,0.685c-1.104,0.216-2.207,0.246-3.285-0.122c-1.914-0.648-3.031-2.007-3.412-3.979
				c-0.187-0.97-0.115-1.934,0.191-2.874c0.627-1.934,2.333-3.27,4.375-3.432c1.049-0.08,2.074,0.02,3.057,0.417
				c0.395,0.16,0.763,0.362,1.061,0.676c0.251,0.263,0.393,0.577,0.391,0.949C115.563,38.056,115.563,38.39,115.563,38.767
				L115.563,38.767z"/>
			<path id="path45_3_" fill="#FFFFFF" d="M34.954,45.234c0.428,0,0.831,0,1.223,0c0.104-0.328,0.137-7.804,0.046-8.542
				c-0.404,0-0.815,0-1.266,0c0-0.292,0-0.538,0-0.847c2.374-0.021,4.76-0.01,7.174-0.007c0,0.714,0,1.381,0,2.078
				c-0.294,0-0.565,0-0.886,0c-0.018-0.401-0.033-0.798-0.051-1.214c-1.313,0-2.585,0-3.852,0c-0.085,0.319-0.11,3.099-0.032,3.766
				c1.247,0.028,2.505-0.002,3.797,0.019c0,0.272,0,0.528,0,0.836c-1.256,0-2.512,0-3.754,0c-0.097,0.343-0.122,3.244-0.043,3.85
				c1.375,0,2.756,0,4.188,0c0-0.425,0-0.838,0-1.278c0.322,0,0.594,0,0.891,0c0,0.719,0,1.416,0,2.139c-2.476,0-4.94,0-7.435,0
				C34.954,45.786,34.954,45.542,34.954,45.234z"/>
			<path id="path49_3_" fill="#FFFFFF" d="M53.048,36.667c-0.4,0-0.816,0-1.254,0c0-0.292,0-0.538,0-0.808c2.273,0,4.525,0,6.838,0
				c0.013,0.705,0.013,1.402-0.001,2.123c-0.293,0-0.552,0-0.868,0c0-0.394,0-0.794,0-1.174c-0.364-0.117-3.202-0.131-3.622-0.031
				c0,1.245,0,2.494,0,3.797c1.221,0.023,2.437-0.001,3.679,0.014c0,0.289,0,0.549,0,0.864c-1.21,0.021-2.426-0.001-3.668,0.014
				c0,1.25,0,2.466,0,3.745c0.444,0,0.895,0,1.374,0c0,0.303,0,0.548,0,0.822c-1.238,0-2.464,0-3.729,0
				c-0.009-0.122-0.021-0.242-0.027-0.362c-0.005-0.127,0-0.252,0-0.427c0.441,0,0.856,0,1.254,0
				C53.139,44.901,53.156,37.136,53.048,36.667z"/>
			<path id="path51_3_" fill="#FFFFFF" d="M94.924,35.864c0,0.272,0,0.507,0,0.791c-0.429,0-0.843,0-1.241,0
				c-0.098,0.345-0.124,7.932-0.038,8.554c0.403,0,0.814,0,1.263,0c0,0.292,0,0.54,0,0.789c-0.284,0.08-2.844,0.11-3.632,0.033
				c-0.01-0.112-0.021-0.232-0.028-0.352c-0.003-0.124,0-0.252,0-0.439c0.446,0,0.871,0,1.317,0c0-2.881,0-5.699,0-8.563
				c-0.435,0-0.848,0-1.289,0c0-0.293,0-0.537,0-0.813C92.482,35.864,93.682,35.864,94.924,35.864z"/>
			<path fill="#FFFFFF" d="M27.966,36.671c-0.422,0-0.825,0-1.261,0c0-0.277,0-0.522,0-0.807c0.11-0.008,0.229-0.028,0.349-0.028
				c1.503-0.001,3.006-0.01,4.51,0.003c0.359,0.005,0.736,0.033,1.08,0.131c1.124,0.317,1.771,1.099,1.99,2.229
				c0.119,0.596,0.095,1.204-0.09,1.792c-0.383,1.212-1.343,1.942-2.679,1.998c-0.771,0.033-1.545,0.016-2.316,0.019
				c-0.151,0.001-0.307,0-0.447,0c-0.102,0.32-0.125,2.634-0.035,3.21c0.406,0,0.82,0,1.263,0c0,0.291,0,0.537,0,0.812
				c-1.204,0-2.402,0-3.628,0c0-0.254,0-0.499,0-0.791c0.421,0,0.834,0,1.239,0C28.028,44.894,28.051,37.289,27.966,36.671z
				 M29.042,41.154c0.961-0.024,1.899,0.068,2.831-0.061c1.017-0.143,1.646-0.782,1.777-1.792c0.028-0.208,0.029-0.423,0.017-0.631
				c-0.059-0.909-0.582-1.812-1.73-1.907c-0.933-0.075-1.874-0.047-2.813-0.063c-0.021,0-0.047,0.028-0.08,0.05
				C29.042,38.2,29.042,39.653,29.042,41.154z"/>
		</g>
	</g>
</g>
</svg>
