<?xml version="1.0" encoding="utf-8"?>
<!-- Generator: Adobe Illustrator 16.0.0, SVG Export Plug-In . SVG Version: 6.00 Build 0)  -->
<!DOCTYPE svg PUBLIC "-//W3C//DTD SVG 1.1//EN" "http://www.w3.org/Graphics/SVG/1.1/DTD/svg11.dtd">
<svg version="1.1" id="Layer_1" xmlns="http://www.w3.org/2000/svg" xmlns:xlink="http://www.w3.org/1999/xlink" x="0px" y="0px"
	 width="377.154px" height="217.479px" viewBox="0 0 377.154 217.479" enable-background="new 0 0 377.154 217.479"
	 xml:space="preserve">
<g>
	<path fill="#FFFFFF" d="M26.116,71.976c0.438,5.84,4.38,9.782,12.41,9.782c6.862,0,12.41-3.212,12.41-9.052
		c0-0.876-0.146-1.606-0.292-2.19c-0.438-1.168-3.796-4.234-9.782-6.132l-11.826-3.942C6.406,54.311,2.902,40.003,2.756,30.805
		c0-9.198,3.358-16.498,9.928-22.191S27.722,0,37.941,0s18.542,2.774,24.965,8.468c6.424,5.548,9.636,13.14,9.636,22.921H48.161
		c0-6.278-3.504-9.344-10.512-9.344c-6.57,0-10.658,3.212-10.658,8.03c0,3.65,3.066,6.278,9.344,8.176l11.534,3.65
		c18.542,5.694,27.885,15.914,27.885,30.659c0,7.008-2.044,12.994-5.986,17.812c-8.03,9.49-18.979,12.848-31.243,12.848
		c-11.242,0-20.293-2.774-27.009-8.468S1.442,81.466,1.442,71.976H26.116z"/>
	<path fill="#FFFFFF" d="M83.348,1.314h24.527V65.26c0,4.38,1.46,8.03,4.526,10.804s6.716,4.234,10.658,4.234
		s7.446-1.46,10.512-4.234s4.672-6.424,4.672-10.804V1.314h24.527V65.26c0,11.242-3.942,20.293-11.826,27.447
		c-7.738,7.008-17.082,10.512-27.885,10.512s-20.147-3.504-28.031-10.512c-7.738-7.154-11.68-16.206-11.68-27.447V1.314z"/>
	<path fill="#FFFFFF" d="M195.474,71.976c0.438,5.84,4.38,9.782,12.41,9.782c6.862,0,12.41-3.212,12.41-9.052
		c0-0.876-0.146-1.606-0.292-2.19c-0.438-1.168-3.796-4.234-9.782-6.132l-11.826-3.942c-22.629-6.132-26.133-20.439-26.279-29.637
		c0-9.198,3.358-16.498,9.928-22.191S197.08,0,207.3,0s18.542,2.774,24.965,8.468c6.424,5.548,9.637,13.14,9.637,22.921H217.52
		c0-6.278-3.504-9.344-10.512-9.344c-6.57,0-10.658,3.212-10.658,8.03c0,3.65,3.066,6.278,9.344,8.176l11.534,3.65
		c18.541,5.694,27.885,15.914,27.885,30.659c0,7.008-2.043,12.994-5.985,17.812c-8.03,9.49-18.979,12.848-31.243,12.848
		c-11.242,0-20.293-2.774-27.009-8.468s-10.074-13.286-10.074-22.775H195.474z"/>
	<path fill="#FFFFFF" d="M252.707,1.314h24.527V65.26c0,4.38,1.46,8.03,4.526,10.804c3.065,2.774,6.715,4.234,10.657,4.234
		s7.446-1.46,10.512-4.234s4.672-6.424,4.672-10.804V1.314h24.527V65.26c0,11.242-3.942,20.293-11.825,27.447
		c-7.738,7.008-17.082,10.512-27.886,10.512s-20.147-3.504-28.031-10.512c-7.737-7.154-11.68-16.206-11.68-27.447V1.314z"/>
	<path fill="#FFFFFF" d="M357.955,66.906c10.6,0,19.199,7.8,19.199,18.2c0,10.6-8.6,18.6-19.199,18.6c-10.399,0-18.8-8-18.8-18.6
		C339.155,74.706,347.556,66.906,357.955,66.906z"/>
</g>
<g>
	<path fill="#FFFFFF" d="M5.609,130.813c3.794-3.794,8.358-5.719,13.693-5.719c5.389,0,9.954,1.925,13.693,5.719
		c3.794,3.794,5.664,8.359,5.664,13.748c0,5.334-1.87,9.954-5.664,13.748c-3.74,3.794-8.304,5.665-13.693,5.665
		c-5.334,0-9.844-1.87-13.638-5.665S0,149.896,0,144.561C0,139.172,1.87,134.607,5.609,130.813z M26.451,151.765
		c1.98-1.98,2.97-4.399,2.97-7.204s-0.99-5.224-2.97-7.204c-1.979-2.035-4.344-3.024-7.149-3.024s-5.169,0.99-7.094,3.024
		c-1.924,1.98-2.915,4.399-2.915,7.204s0.99,5.224,2.915,7.204c1.925,1.979,4.29,2.97,7.094,2.97S24.526,153.745,26.451,151.765z"/>
	<path fill="#FFFFFF" d="M59.508,137.852h8.744v25.626h-8.744v-4.015c-0.385,1.485-1.375,2.585-2.86,3.355
		c-1.485,0.77-2.969,1.155-4.344,1.155c-6.764,0-10.229-4.51-10.229-12.648v-13.473h8.744v13.198c0,3.08,1.98,4.454,4.18,4.454
		c2.419,0,4.509-1.155,4.509-4.179V137.852z"/>
	<path fill="#FFFFFF" d="M82.224,163.479h-8.744v-25.626h8.304v6.324c1.265-4.62,4.509-6.984,8.084-6.984
		c1.485,0,2.75,0.22,3.794,0.715l-2.145,8.249c-1.21-0.44-2.53-0.66-3.96-0.66c-3.574,0-5.334,2.31-5.334,9.568V163.479z"/>
	<path fill="#FFFFFF" d="M114.343,152.205c0.165,2.2,1.649,3.685,4.674,3.685c2.584,0,4.674-1.21,4.674-3.41
		c0-0.33-0.055-0.605-0.11-0.825c-0.165-0.44-1.43-1.595-3.685-2.31l-4.455-1.484c-8.524-2.31-9.844-7.699-9.898-11.164
		c0-3.465,1.265-6.214,3.739-8.359c2.475-2.145,5.664-3.245,9.514-3.245s6.984,1.045,9.404,3.189c2.42,2.09,3.629,4.949,3.629,8.634
		h-9.184c0-2.365-1.32-3.52-3.959-3.52c-2.475,0-4.015,1.21-4.015,3.025c0,1.375,1.155,2.364,3.52,3.079l4.345,1.375
		c6.984,2.145,10.503,5.994,10.503,11.548c0,2.64-0.77,4.895-2.255,6.709c-3.024,3.574-7.149,4.839-11.768,4.839
		c-4.234,0-7.644-1.045-10.174-3.19c-2.53-2.145-3.794-5.004-3.794-8.579H114.343z"/>
	<path fill="#FFFFFF" d="M147.782,128.668v9.184h5.389v6.434h-5.389v19.192h-8.634v-19.192h-4.675v-6.434h4.675v-9.184H147.782z"/>
	<path fill="#FFFFFF" d="M173.191,137.852h8.744v25.626h-8.744v-4.015c-0.385,1.485-1.375,2.585-2.86,3.355
		c-1.484,0.77-2.969,1.155-4.344,1.155c-6.764,0-10.229-4.51-10.229-12.648v-13.473h8.744v13.198c0,3.08,1.98,4.454,4.18,4.454
		c2.419,0,4.509-1.155,4.509-4.179V137.852z"/>
	<path fill="#FFFFFF" d="M205.255,124.379h8.744v39.1h-8.249v-3.685c-1.375,2.805-4.455,4.18-7.589,4.18
		c-3.354,0-6.269-1.21-8.744-3.685s-3.739-5.665-3.739-9.679c0-4.015,1.265-7.204,3.739-9.679s5.389-3.74,8.744-3.74
		c2.915,0,5.279,0.99,7.094,3.025V124.379z M196.126,154.459c2.145,2.035,5.5,2.035,7.534,0c2.145-2.145,2.145-5.499,0-7.534
		c-2.035-2.145-5.389-2.145-7.534,0C194.092,148.96,194.092,152.315,196.126,154.459z"/>
	<path fill="#FFFFFF" d="M244.524,153.085h-18.368c0.275,2.365,2.97,3.904,5.884,3.904c2.035,0,3.686-0.715,4.895-2.145
		c0.385,0.33,1.43,1.1,3.08,2.254c1.705,1.155,2.694,1.87,2.97,2.09c-2.42,3.189-6.27,4.785-11.604,4.785
		c-3.795,0-6.984-1.265-9.679-3.74c-2.64-2.53-3.959-5.774-3.959-9.733c0-3.905,1.32-7.094,3.959-9.569
		c2.694-2.475,5.884-3.74,9.679-3.74c3.794,0,6.929,1.21,9.458,3.63c2.585,2.364,3.85,5.554,3.85,9.458
		C244.688,150.72,244.634,151.655,244.524,153.085z M236.385,148.19c-0.715-2.859-3.134-3.794-5.114-3.794
		c-0.604,0-1.209,0.055-1.814,0.22c-1.154,0.275-2.915,1.595-3.3,3.574H236.385z"/>
	<path fill="#FFFFFF" d="M256.846,163.479h-8.744v-25.626h8.744v4.014c0.385-1.485,1.375-2.584,2.859-3.409
		c1.54-0.825,2.97-1.265,4.345-1.265c6.764,0,10.229,4.51,10.229,12.648v13.638h-8.744v-13.363c0-3.08-1.979-4.455-4.18-4.455
		c-2.364,0-4.509,1.32-4.509,4.345V163.479z"/>
	<path fill="#FFFFFF" d="M290.065,128.668v9.184h5.39v6.434h-5.39v19.192h-8.634v-19.192h-4.675v-6.434h4.675v-9.184H290.065z"/>
	<path fill="#FFFFFF" d="M305.245,153.47c-3.024-0.825-5.225-2.31-6.27-3.41c-0.495-0.55-0.935-1.209-1.21-2.035
		c-0.494-1.595-0.439-2.035-0.439-3.189c0-1.979,1.045-3.739,3.079-5.279c2.09-1.595,4.564-2.365,7.369-2.365
		c5.39,0,11.219,2.255,11.219,8.854h-8.194c0-1.54-0.88-2.31-2.584-2.31c-1.43,0-2.145,0.495-2.145,1.43
		c0,0.825,0.659,1.375,1.924,1.65l4.564,1.265c3.08,0.825,5.225,2.365,6.05,3.959c0.88,1.595,1.1,2.695,1.1,3.794
		c0,2.64-1.155,4.674-3.52,6.049c-2.364,1.375-5.06,2.09-8.084,2.09c-2.915,0-5.554-0.825-7.809-2.42
		c-2.255-1.65-3.354-3.85-3.354-6.654h8.193c0,1.319,0.99,2.64,2.97,2.64c1.485,0,2.694-0.66,2.694-1.705
		c0-0.715-0.385-0.99-2.31-1.485L305.245,153.47z"/>
	<path fill="#FFFFFF" d="M321.636,138.017c2.364-3.245,3.52-7.369,3.52-12.483h6.819c0,3.299-0.715,6.214-2.09,8.688
		c-1.375,2.475-2.915,4.51-4.675,5.995L321.636,138.017z"/>
	<path fill="#FFFFFF" d="M1.705,179.588h9.239v24.087c0,1.65,0.55,3.024,1.705,4.069c1.155,1.045,2.529,1.595,4.014,1.595
		s2.805-0.55,3.959-1.595s1.76-2.419,1.76-4.069v-24.087h9.239v24.087c0,4.234-1.485,7.644-4.455,10.339
		c-2.915,2.64-6.434,3.959-10.503,3.959s-7.589-1.32-10.559-3.959c-2.915-2.695-4.399-6.104-4.399-10.339V179.588z"/>
	<path fill="#FFFFFF" d="M44.934,217.479h-8.744v-25.626h8.744v4.014c0.385-1.485,1.375-2.584,2.859-3.409
		c1.54-0.825,2.97-1.265,4.345-1.265c6.764,0,10.229,4.51,10.229,12.648v13.638h-8.744v-13.363c0-3.08-1.98-4.455-4.18-4.455
		c-2.365,0-4.509,1.32-4.509,4.345V217.479z"/>
	<path fill="#FFFFFF" d="M71.004,178.379c2.915,0,5.224,2.145,5.224,4.949s-2.31,5.004-5.224,5.004c-2.86,0-5.279-2.31-5.279-5.004
		C65.725,180.523,68.144,178.379,71.004,178.379z M75.403,191.852v25.626h-8.744v-25.626H75.403z"/>
	<path fill="#FFFFFF" d="M82.499,214.234c-2.64-2.475-3.959-5.719-3.959-9.624c0-3.959,1.32-7.204,3.959-9.679
		c2.694-2.475,5.884-3.74,9.624-3.74c3.794,0,6.984,1.265,9.679,3.74s4.069,5.719,4.069,9.679c0,3.904-1.375,7.149-4.069,9.624
		s-5.884,3.74-9.679,3.74C88.383,217.974,85.193,216.708,82.499,214.234z M88.328,208.405c2.145,2.035,5.499,2.035,7.534,0
		c2.145-2.145,2.145-5.5,0-7.534c-2.035-2.145-5.39-2.145-7.534,0C86.293,202.905,86.293,206.26,88.328,208.405z"/>
	<path fill="#FFFFFF" d="M117.752,217.479h-8.744v-25.626h8.744v4.014c0.385-1.485,1.375-2.584,2.859-3.409
		c1.54-0.825,2.97-1.265,4.345-1.265c6.764,0,10.229,4.51,10.229,12.648v13.638h-8.744v-13.363c0-3.08-1.98-4.455-4.18-4.455
		c-2.365,0-4.509,1.32-4.509,4.345V217.479z"/>
</g>
</svg>
