<?xml version="1.0" encoding="utf-8"?>
<!-- Generator: Adobe Illustrator 16.0.3, SVG Export Plug-In . SVG Version: 6.00 Build 0)  -->
<!DOCTYPE svg PUBLIC "-//W3C//DTD SVG 1.1//EN" "http://www.w3.org/Graphics/SVG/1.1/DTD/svg11.dtd">
<svg version="1.1" id="Layer_1" xmlns="http://www.w3.org/2000/svg" xmlns:xlink="http://www.w3.org/1999/xlink" x="0px" y="0px"
	 width="88.884px" height="80.836px" viewBox="0 0 88.884 80.836" enable-background="new 0 0 88.884 80.836" xml:space="preserve">
<g>
	<path fill="#FFFFFF" d="M26.844,31.527c0,3.45-2.474,7.119-6.915,7.119c-4.33,0-6.919-3.668-6.919-7.119V0H0.243v32.368
		c0,5.498,2.117,10.477,5.956,14.022c3.646,3.362,8.521,5.214,13.73,5.214c5.175,0,10.019-1.854,13.636-5.217
		c3.813-3.543,5.912-8.523,5.912-14.019V0H26.844V31.527"/>
	<path fill="#FFFFFF" d="M89.107,45.073c0,3.607-2.926,6.531-6.533,6.531c-3.607,0-6.533-2.924-6.533-6.531
		c0-3.609,2.926-6.533,6.533-6.533C86.181,38.54,89.107,41.464,89.107,45.073"/>
	<path fill="#FFFFFF" d="M63.683,28.339L57.8,26.744c-1.408-0.36-2.752-0.735-2.752-1.987c0-1.081,0.952-2.083,3.11-2.083
		c0.941,0,3.134,0.652,3.197,2.789l0.003,0.104h11.418v-0.109c-0.038-4.252-1.758-7.675-4.979-9.899
		c-2.624-1.809-6.255-2.806-10.238-2.806c-7.624,0-14.383,5.152-14.466,11.023c-0.069,3.028-0.212,9.333,11.096,12.47l4.538,1.218
		c2.509,0.678,2.714,1.357,2.714,2.113c0,1.299-1.713,2.161-3.298,2.215c-2.224,0-4.173-1.426-4.351-3.181l-0.01-0.096H42.43
		l0.003,0.108c0.188,8.434,8.09,12.982,15.429,12.982c4.052,0,7.871-1.021,10.745-2.872c3.405-2.196,5.209-5.362,5.209-9.156
		C73.816,37.607,73.087,30.975,63.683,28.339"/>
	<path fill="#FFFFFF" d="M0.243,63.831V58.42h2.033v5.411c0,0.768,0.629,1.273,1.258,1.273c0.632,0,1.261-0.505,1.261-1.273V58.42
		h2.029v5.411c0,1.965-1.557,3.211-3.291,3.211C1.804,67.042,0.243,65.796,0.243,63.831"/>
	<path fill="#FFFFFF" d="M9.754,66.931H7.829v-5.754h1.925v0.902c0.195-0.731,1.088-1.051,1.584-1.051
		c1.512,0,2.252,1.051,2.252,2.84v3.063h-1.925v-2.999c0-0.768-0.521-1.001-0.917-1.001c-0.438,0-0.994,0.233-0.994,0.973V66.931"/>
	<path fill="#FFFFFF" d="M14.762,66.931h1.925v-5.754h-1.925V66.931z M15.718,58.149c0.643,0,1.146,0.481,1.146,1.11
		c0,0.617-0.504,1.126-1.146,1.126c-0.629,0-1.161-0.509-1.161-1.126C14.557,58.631,15.088,58.149,15.718,58.149"/>
	<path fill="#FFFFFF" d="M20.593,65.237c0.643,0,1.178-0.542,1.178-1.197c0-0.653-0.535-1.197-1.178-1.197
		c-0.639,0-1.171,0.544-1.171,1.197C19.422,64.694,19.954,65.237,20.593,65.237 M17.608,64.04c0-1.826,1.4-3.013,2.984-3.013
		c1.613,0,3.027,1.187,3.027,3.013c0,1.816-1.414,3.002-3.027,3.002C19.008,67.042,17.608,65.855,17.608,64.04"/>
	<path fill="#FFFFFF" d="M26.462,66.931h-1.925v-5.754h1.925v0.902c0.191-0.731,1.088-1.051,1.585-1.051
		c1.512,0,2.252,1.051,2.252,2.84v3.063h-1.925v-2.999c0-0.768-0.518-1.001-0.921-1.001c-0.435,0-0.991,0.233-0.991,0.973V66.931"/>
	<path fill="#FFFFFF" d="M2.043,75.452c0.024,0.46,0.327,0.827,1.029,0.827c0.521,0,1.028-0.233,1.028-0.765
		c0-0.134,0-0.417-0.833-0.704l-0.98-0.332c-1.863-0.52-2.179-1.729-2.179-2.509c0-1.553,1.244-2.606,2.916-2.606
		c1.647,0,2.867,0.976,2.867,2.657H3.871c0-0.456-0.253-0.789-0.872-0.789c-0.542,0-0.883,0.27-0.883,0.676
		c0,0.162,0.049,0.471,0.775,0.693l0.955,0.311c2.189,0.69,2.311,1.988,2.311,2.591c0,1.88-1.682,2.596-3.085,2.596
		C1.209,78.098,0,77.061,0,75.452H2.043"/>
	<path fill="#FFFFFF" d="M9.79,76.292c0.639,0,1.171-0.542,1.171-1.195c0-0.655-0.532-1.201-1.171-1.201
		c-0.643,0-1.175,0.545-1.175,1.201C8.615,75.75,9.146,76.292,9.79,76.292 M6.797,75.097c0-1.83,1.404-3.015,2.993-3.015
		c1.608,0,3.023,1.185,3.023,3.015c0,1.814-1.415,3-3.023,3C8.201,78.098,6.797,76.911,6.797,75.097"/>
	<path fill="#FFFFFF" d="M17.494,72.229h1.925v5.756h-1.925v-0.898c-0.195,0.726-1.088,1.011-1.585,1.011
		c-1.512,0-2.252-1.049-2.252-2.841v-3.028h1.925v2.966c0,0.767,0.521,1.001,0.921,1.001c0.435,0,0.991-0.198,0.991-0.938V72.229"/>
	<polyline fill="#FFFFFF" points="23.105,72.229 24.294,72.229 24.294,73.674 23.105,73.674 23.105,77.985 21.208,77.985 
		21.208,73.674 20.179,73.674 20.179,72.229 21.208,72.229 21.208,70.166 23.105,70.166 23.105,72.229 	"/>
	<path fill="#FFFFFF" d="M26.952,77.985h-1.921v-8.781h1.921v3.928c0.195-0.728,1.091-1.049,1.588-1.049
		c1.508,0,2.249,1.049,2.249,2.839v3.063h-1.922v-2.999c0-0.683-0.525-1.004-0.921-1.004c-0.438,0-0.994,0.25-0.994,0.979V77.985"/>
	<path fill="#FFFFFF" d="M34.768,76.305c0.643,0,1.175-0.542,1.175-1.195c0-0.655-0.532-1.197-1.175-1.197s-1.171,0.542-1.171,1.197
		C33.596,75.763,34.125,76.305,34.768,76.305 M35.942,72.229h1.925v5.756h-1.925V77.33c-0.351,0.507-0.942,0.768-1.561,0.768
		c-1.393,0-2.745-1.138-2.745-3c0-1.868,1.352-3.015,2.745-3.015c0.57,0,1.209,0.257,1.561,0.765V72.229z"/>
	<path fill="#FFFFFF" d="M44.498,77.985h-1.936v-2.999c0-0.768-0.521-1.004-0.924-1.004c-0.431,0-0.845,0.236-0.845,0.979v3.025
		h-1.921v-5.756h1.921v0.903c0.195-0.728,0.945-1.049,1.442-1.049c1.102,0,1.717,0.431,2.019,1.223
		c0.435-0.902,1.185-1.223,1.682-1.223c1.707,0,2.251,1.049,2.251,2.839v3.063h-1.925v-2.999c0-0.768-0.518-1.004-0.917-1.004
		c-0.438,0-0.848,0.236-0.848,0.979V77.985"/>
	<path fill="#FFFFFF" d="M52.216,73.872c-0.643,0-1.175,0.582-1.175,1.237c0,0.653,0.532,1.163,1.175,1.163s1.171-0.547,1.171-1.199
		C53.387,74.416,52.859,73.872,52.216,73.872 M51.041,80.826h-1.925v-8.597h1.814v0.831c0.327-0.681,1.053-0.977,1.671-0.977
		c1.394,0,2.749,1.135,2.749,3.002c0,1.863-1.355,3.013-2.749,3.013c-0.678,0-1.199-0.236-1.561-0.645V80.826z"/>
	<polyline fill="#FFFFFF" points="58.651,72.229 59.836,72.229 59.836,73.674 58.651,73.674 58.651,77.985 56.75,77.985 
		56.75,73.674 55.722,73.674 55.722,72.229 56.75,72.229 56.75,70.166 58.651,70.166 58.651,72.229 	"/>
	<path fill="#FFFFFF" d="M63.151,76.292c0.64,0,1.175-0.542,1.175-1.195c0-0.655-0.535-1.201-1.175-1.201
		c-0.643,0-1.174,0.545-1.174,1.201C61.978,75.75,62.509,76.292,63.151,76.292 M60.163,75.097c0-1.83,1.404-3.015,2.988-3.015
		c1.613,0,3.023,1.185,3.023,3.015c0,1.814-1.411,3-3.023,3C61.567,78.098,60.163,76.911,60.163,75.097"/>
	<path fill="#FFFFFF" d="M69.018,77.985h-1.922v-5.756h1.922v0.903c0.195-0.728,1.091-1.049,1.588-1.049
		c1.512,0,2.249,1.049,2.249,2.839v3.063h-1.922v-2.999c0-0.768-0.518-1.004-0.921-1.004c-0.434,0-0.994,0.236-0.994,0.979V77.985"
		/>
</g>
</svg>
