<?xml version="1.0" encoding="utf-8"?>
<!-- Generator: Adobe Illustrator 16.0.0, SVG Export Plug-In . SVG Version: 6.00 Build 0)  -->
<!DOCTYPE svg PUBLIC "-//W3C//DTD SVG 1.1//EN" "http://www.w3.org/Graphics/SVG/1.1/DTD/svg11.dtd">
<svg version="1.1" id="Snapchat" xmlns="http://www.w3.org/2000/svg" xmlns:xlink="http://www.w3.org/1999/xlink" x="0px" y="0px"
	 width="841.89px" height="841.891px" viewBox="0 174.33 841.89 841.891" enable-background="new 0 174.33 841.89 841.891"
	 xml:space="preserve">
<path fill="#FFFFFF" d="M0,174.33v841.891h841.89V174.33H0z M651.105,719.275c-2.756,6.436-15.16,15.564-58.555,22.271
	c-3.545,0.545-4.92,5.163-7.033,14.85c-0.77,3.525-1.553,6.988-2.621,10.631c-0.924,3.16-2.896,4.637-6.211,4.637h-0.539
	c-2.299,0-5.568-0.409-9.711-1.221c-7.342-1.438-15.582-2.762-26.059-2.762c-6.121,0-12.455,0.533-18.82,1.586
	c-13.02,2.172-24.074,9.977-35.77,18.248c-17.008,12.022-34.563,24.431-61.926,24.431c-1.188,0-2.357-0.031-3.526-0.09
	c-0.746,0.059-1.521,0.09-2.307,0.09c-27.351,0-44.903-12.408-61.88-24.408c-11.724-8.284-22.782-16.102-35.815-18.272
	c-6.358-1.053-12.692-1.586-18.807-1.586c-11.022,0-19.719,1.703-26.064,2.94c-3.854,0.758-7.181,1.4-9.712,1.4
	c-2.64,0-5.504-0.564-6.75-4.816c-1.079-3.688-1.863-7.252-2.614-10.7c-1.94-8.884-3.314-14.345-7.04-14.914
	c-43.375-6.699-55.792-15.841-58.56-22.32c-0.391-0.926-0.616-1.857-0.667-2.775c-0.141-2.491,1.625-4.688,4.085-5.094
	c66.685-10.981,96.591-79.139,97.831-82.029c0.032-0.084,0.07-0.159,0.103-0.235c4.085-8.275,4.881-15.455,2.39-21.34
	c-4.58-10.783-19.507-15.523-29.386-18.658c-2.415-0.766-4.708-1.487-6.513-2.204c-19.719-7.79-21.357-15.794-20.586-19.869
	c1.324-6.946,10.611-11.789,18.12-11.789c2.055,0,3.873,0.365,5.395,1.075c8.87,4.156,16.861,6.263,23.759,6.263
	c9.525,0,13.688-4.005,14.195-4.532c-0.244-4.512-0.54-9.227-0.849-14.092c-1.99-31.526-4.451-70.699,5.523-93.062
	c29.895-67.031,93.289-72.237,112.007-72.237c0.481,0,8.208-0.083,8.208-0.083l1.104-0.003c18.762,0,82.293,5.216,112.205,72.283
	c9.982,22.371,7.508,61.581,5.523,93.087l-0.082,1.368c-0.277,4.387-0.547,8.65-0.766,12.732c0.475,0.485,4.305,4.168,12.943,4.499
	h0.006c6.564-0.25,14.111-2.344,22.391-6.224c2.428-1.13,5.125-1.372,6.957-1.372c2.801,0,5.645,0.544,8.002,1.526l0.143,0.062
	c6.699,2.373,11.086,7.065,11.182,11.973c0.084,4.617-3.439,11.564-20.738,18.396c-1.791,0.707-4.084,1.437-6.514,2.204
	c-9.887,3.138-24.807,7.875-29.379,18.658c-2.506,5.885-1.703,13.059,2.375,21.331c0.039,0.078,0.078,0.154,0.109,0.244
	c1.24,2.892,31.119,71.027,97.838,82.023c2.459,0.404,4.219,2.602,4.084,5.094C651.728,717.421,651.501,718.363,651.105,719.275z"/>
</svg>
