<?xml version="1.0" encoding="UTF-8" standalone="no"?>
<!-- Created with Inkscape (http://www.inkscape.org/) -->

<svg
   xmlns:dc="http://purl.org/dc/elements/1.1/"
   xmlns:cc="http://creativecommons.org/ns#"
   xmlns:rdf="http://www.w3.org/1999/02/22-rdf-syntax-ns#"
   xmlns:svg="http://www.w3.org/2000/svg"
   xmlns="http://www.w3.org/2000/svg"
   xmlns:sodipodi="http://sodipodi.sourceforge.net/DTD/sodipodi-0.dtd"
   xmlns:inkscape="http://www.inkscape.org/namespaces/inkscape"
   width="70"
   height="70"
   id="svg2"
   version="1.1"
   inkscape:version="0.48.5 r10040"
   inkscape:export-filename="/home/corin/CodeBase/PA/rewrite/img/icons/susu.png"
   inkscape:export-xdpi="90"
   inkscape:export-ydpi="90"
   sodipodi:docname="susu.svg">
  <defs
     id="defs4" />
  <sodipodi:namedview
     id="base"
     pagecolor="#00a500"
     bordercolor="#666666"
     borderopacity="1.0"
     inkscape:pageopacity="0"
     inkscape:pageshadow="2"
     inkscape:zoom="5.6"
     inkscape:cx="54.290151"
     inkscape:cy="42.077671"
     inkscape:document-units="px"
     inkscape:current-layer="layer1"
     showgrid="false"
     inkscape:window-width="1309"
     inkscape:window-height="744"
     inkscape:window-x="57"
     inkscape:window-y="24"
     inkscape:window-maximized="1" />
  <metadata
     id="metadata7">
    <rdf:RDF>
      <cc:Work
         rdf:about="">
        <dc:format>image/svg+xml</dc:format>
        <dc:type
           rdf:resource="http://purl.org/dc/dcmitype/StillImage" />
        <dc:title></dc:title>
      </cc:Work>
    </rdf:RDF>
  </metadata>
  <g
     inkscape:label="Layer 1"
     inkscape:groupmode="layer"
     id="layer1"
     transform="translate(0,-982.36218)">
    <path
       style="opacity:0.93004114;fill:#ffffff;fill-opacity:1;stroke:#ffffff;stroke-width:0;stroke-linecap:butt;stroke-linejoin:round;stroke-miterlimit:29.39999962;stroke-opacity:1;stroke-dasharray:none;stroke-dashoffset:0"
       d="m 5.9739546,982.40236 c -3.3096949,0 -5.97841889,2.66702 -5.97841889,5.9746 l 0,57.97934 c 0,3.3076 2.66872399,5.9746 5.97841889,5.9746 l 58.0163764,0 c 3.309695,0 5.978419,-2.667 5.978419,-5.9746 l 0,-57.97934 c 0,-3.30758 -2.668724,-5.9746 -5.978419,-5.9746 z"
       id="rect2985"
       inkscape:connector-curvature="0"
       sodipodi:nodetypes="sssssssss" />
    <g
       transform="scale(0.99159465,1.0084766)"
       style="font-size:43.82660675px;font-style:normal;font-variant:normal;font-weight:normal;font-stretch:normal;line-height:125%;letter-spacing:0px;word-spacing:0px;fill:#ff0000;fill-opacity:1;stroke:none;font-family:Futura Md BT;-inkscape-font-specification:Futura Md BT"
       id="text3755" />
    <path
       sodipodi:nodetypes="sssssssssssssssssssssssscscsssssssssssssssssssscsssscssssssssssssssssssssssssscssssssssssccssssssssssssscsssssssssssssssssssssss"
       inkscape:connector-curvature="0"
       id="path2989"
       d="m 21.001857,1033.0399 c -0.100838,-0.05 -0.344607,-0.3077 -0.482223,-0.5104 -0.158319,-0.2331 -0.225242,-0.4068 -0.250371,-0.6497 -0.03608,-0.3487 -0.01042,-0.4396 0.299431,-1.0612 0.421174,-0.8449 0.56003,-1.2523 0.838726,-2.4609 0.09016,-0.391 0.18629,-0.7859 0.213611,-0.8777 0.09003,-0.3023 0.159367,-0.2739 -0.669074,-0.2741 -1.178406,-4e-4 -2.112391,-0.089 -3.193751,-0.3025 -2.114493,-0.4177 -3.925004,-1.2248 -5.412499,-2.4128 -0.396694,-0.3168 -1.08784,-0.9973 -1.355442,-1.3345 -0.34708,-0.4374 -0.673371,-0.9697 -0.854961,-1.3947 -0.1876724,-0.4393 -0.3418904,-0.9933 -0.3795294,-1.3634 -0.0095,-0.094 -0.02526,-0.1578 -0.03492,-0.1421 -0.02971,0.048 -0.05297,-0.4867 -0.03456,-0.7946 0.0096,-0.1602 0.02501,-0.2695 0.03431,-0.243 0.01066,0.03 0.02254,-0.012 0.03217,-0.1153 0.03631,-0.3888 0.158502,-0.8632 0.3951824,-1.5344 0.187345,-0.5313 0.344719,-0.8492 0.649322,-1.3119 1.256439,-1.9084 3.608084,-3.7638 6.65473,-5.2506 3.262737,-1.5921 6.876292,-2.6472 10.056201,-2.9362 1.350328,-0.1227 2.83095,-0.1228 4.012501,-2e-4 2.897438,0.3004 5.58844,1.2938 7.387499,2.7271 0.36781,0.293 1.068466,0.9976 1.379675,1.3875 0.300333,0.3762 0.714905,0.9954 0.941105,1.4058 0.77387,1.4037 1.132995,2.9797 0.836678,3.6716 -0.04288,0.1002 -0.06359,0.1206 -0.13587,0.1342 -0.119212,0.022 -1.914522,9e-4 -1.95323,-0.023 -0.02409,-0.015 -0.01611,-0.045 0.03345,-0.1244 0.112525,-0.1807 0.302652,-0.5964 0.368297,-0.8052 0.358228,-1.1398 0.16122,-2.488 -0.522747,-3.5774 -0.762145,-1.2139 -2.103493,-2.1503 -3.968365,-2.7703 -0.83397,-0.2772 -1.865341,-0.514 -2.666493,-0.6121 -1.948704,-0.2387 -4.265818,-0.063 -6.924999,0.5261 -2.591209,0.5737 -5.88579,1.715 -7.975001,2.7628 -2.058758,1.0325 -3.715177,2.1725 -4.951465,3.408 -1.133232,1.1324 -1.751353,2.1477 -1.991749,3.2715 -0.06263,0.2928 -0.06782,0.3612 -0.06775,0.8921 8.2e-5,0.6335 0.02626,0.8148 0.186769,1.2939 0.885859,2.6441 4.43888,4.1784 8.581121,3.7055 0.339062,-0.039 0.667458,-0.1145 1.309623,-0.3023 0.384699,-0.1125 0.404829,-0.1156 0.70845,-0.1117 0.505295,0.01 0.766585,0.093 0.985998,0.3281 0.331696,0.3546 0.421297,0.9301 0.293693,1.8865 -0.07904,0.5924 -0.127216,1.0869 -0.145861,1.4973 -0.0161,0.3542 -0.01509,0.3652 0.03347,0.3652 0.03239,0 0.283274,-0.2362 0.710433,-0.6687 1.27864,-1.2949 2.342817,-2.5104 2.949421,-3.3688 l 0.198099,-0.2804 0.406121,-0.08 c 1.866963,-0.3691 3.905622,-0.9392 5.456121,-1.5256 0.715794,-0.2707 1.187638,-0.4752 1.85,-0.8017 0.91286,-0.4499 1.62572,-0.8947 2.189117,-1.3658 l 0.24531,-0.2051 0.654117,0.028 c 0.658676,0.028 1.604861,4e-4 1.947606,-0.057 0.07488,-0.013 0.141509,-0.018 0.148062,-0.011 0.02388,0.024 -0.226015,0.3579 -0.46764,0.6251 -0.708493,0.7836 -1.797972,1.5583 -3.124948,2.2221 -1.5429,0.7719 -3.346932,1.3598 -5.566625,1.8141 -1.171335,0.2398 -1.975342,0.5801 -2.65,1.1216 -0.29342,0.2355 -0.460102,0.4233 -0.949871,1.0701 -1.126557,1.4877 -1.773624,2.2442 -2.691197,3.1466 -0.9391,0.9236 -1.844978,1.6278 -2.783881,2.1644 -0.438172,0.2504 -0.603504,0.2941 -0.7814,0.2064 z m 31.96885,-8.8995 c -0.04812,-0.01 -0.2225,-0.04 -0.3875,-0.075 -0.24042,-0.052 -0.511013,-0.1496 -1.3625,-0.4899 -1.201813,-0.4804 -1.5983,-0.6597 -2.4875,-1.1246 -1.200698,-0.6277 -1.93027,-1.0447 -2.73318,-1.5621 -0.889655,-0.5732 -1.281446,-0.7744 -1.835223,-0.9421 -0.732537,-0.2219 -1.44228,-0.2558 -2.781597,-0.1328 -0.887095,0.082 -2.042538,0.1427 -2.694908,0.1427 -2.010762,0 -4.050923,-0.3717 -6.205092,-1.1306 -1.364377,-0.4807 -2.168746,-0.9384 -2.909917,-1.656 -0.786055,-0.7611 -1.275711,-1.6468 -1.48634,-2.6884 -0.178446,-0.8825 -0.147785,-1.9238 0.08465,-2.875 0.131709,-0.539 0.378395,-1.2637 0.457327,-1.3436 0.01689,-0.017 0.09227,-0.042 0.167497,-0.056 0.172921,-0.032 0.581948,-0.073 0.601644,-0.061 0.0082,0 -0.02729,0.1314 -0.07881,0.2808 -0.210142,0.6093 -0.290872,1.3178 -0.222171,1.9499 0.182337,1.6777 1.255056,3.0913 3.148615,4.1492 0.636675,0.3557 0.994299,0.5133 1.65,0.7269 2.045297,0.6662 4.951242,0.9929 8.054,0.9055 1.11092,-0.031 2.463362,-0.1081 2.91158,-0.1653 0.0978,-0.012 0.124222,9e-4 0.516155,0.2609 1.23278,0.8178 3.114097,1.9305 4.27456,2.5281 0.372285,0.1917 0.396207,0.1887 0.3452,-0.043 -0.05347,-0.2429 -0.168338,-0.5173 -0.489533,-1.1696 -0.496938,-1.0092 -0.598127,-1.3135 -0.598952,-1.8013 -5e-4,-0.2978 5.75e-4,-0.3035 0.09244,-0.4894 0.117637,-0.238 0.302454,-0.4176 0.550409,-0.5347 0.245418,-0.116 0.45836,-0.156 0.99921,-0.1878 2.224125,-0.1305 4.181925,-0.8182 5.719338,-2.0089 0.337968,-0.2618 0.986927,-0.9048 1.251965,-1.2404 0.684233,-0.8665 1.25447,-2.0067 1.38785,-2.775 0.06216,-0.3581 0.03824,-0.9756 -0.05083,-1.3125 -0.476737,-1.803 -2.502089,-3.391 -5.675889,-4.4503 -4.154278,-1.3866 -9.56757,-1.6155 -14.496253,-0.6129 -0.26331,0.053 -0.613748,0.1215 -0.778748,0.1511 -0.833122,0.1492 -1.803634,0.4028 -2.662499,0.6959 -1.676058,0.572 -3.029982,1.3476 -3.886697,2.2266 -0.120988,0.1241 -0.127124,0.127 -0.2375,0.1127 -0.06232,-0.01 -0.274179,-0.022 -0.470804,-0.031 l -0.357501,-0.017 0.142347,-0.175 c 0.222125,-0.2731 0.939573,-0.9718 1.305911,-1.2719 2.730007,-2.236 6.359651,-3.6081 10.654244,-4.0276 0.475634,-0.046 1.458872,-0.1118 1.748585,-0.1163 0.147657,0 0.186812,-0.01 0.126415,-0.02 -0.155368,-0.029 1.309342,-0.054 2.021577,-0.035 0.380007,0.01 0.651548,0.026 0.603423,0.035 -0.06083,0.011 -0.02273,0.017 0.125,0.02 0.27474,0 1.18583,0.069 1.65,0.1167 2.943305,0.3024 5.507347,0.9962 7.625,2.0632 0.977955,0.4928 1.531367,0.88 2.176735,1.523 0.62564,0.6234 1.004905,1.1442 1.338245,1.8377 0.353337,0.7351 0.51054,1.4213 0.509562,2.2243 -0.0022,1.7798 -0.939647,3.5271 -2.999027,5.5896 -0.583873,0.5847 -0.91796,0.8837 -1.450515,1.2981 -1.51393,1.1781 -3.187355,1.9875 -4.75625,2.3004 -0.114543,0.023 -0.14375,0.038 -0.14375,0.076 0,0.111 1.476004,2.223 2.084422,2.9826 0.329833,0.4117 0.526418,0.7032 0.64929,0.9625 0.07353,0.1552 0.07879,0.1847 0.07879,0.4413 0,0.351 -0.05926,0.5526 -0.236153,0.8035 -0.06922,0.098 -0.14208,0.1847 -0.161912,0.1923 -0.05493,0.021 -0.31589,0.037 -0.414435,0.026 z"
       style="fill:#000000;stroke-width:1;stroke-miterlimit:4;stroke-dasharray:none;stroke:#000000" />
  </g>
</svg>
