<?xml version="1.0" encoding="utf-8"?>
<!-- Generator: Adobe Illustrator 16.0.0, SVG Export Plug-In . SVG Version: 6.00 Build 0)  -->
<!DOCTYPE svg PUBLIC "-//W3C//DTD SVG 1.1//EN" "http://www.w3.org/Graphics/SVG/1.1/DTD/svg11.dtd">
<svg version="1.1" id="Twitter" xmlns="http://www.w3.org/2000/svg" xmlns:xlink="http://www.w3.org/1999/xlink" x="0px" y="0px"
	 width="841.89px" height="841.891px" viewBox="0 0 841.89 841.891" enable-background="new 0 0 841.89 841.891"
	 xml:space="preserve">
<path fill="#FFFFFF" d="M0,0h841.89v841.891H0V0z M656.673,274.73c-17.344,7.695-35.982,12.891-55.553,15.229
	c19.969-11.974,35.307-30.928,42.527-53.512c-18.689,11.08-39.391,19.135-61.418,23.471c-17.646-18.801-42.785-30.541-70.605-30.541
	c-53.422,0-96.73,43.306-96.73,96.72c0,7.586,0.857,14.966,2.507,22.044c-80.39-4.033-151.659-42.54-199.363-101.063
	c-8.328,14.284-13.097,30.901-13.097,48.629c0,33.556,17.076,63.158,43.028,80.509c-15.856-0.501-30.771-4.855-43.809-12.103
	c-0.009,0.404-0.009,0.812-0.009,1.22c0,46.863,33.342,85.956,77.591,94.846c-8.119,2.209-16.665,3.391-25.484,3.391
	c-6.233,0-12.293-0.608-18.2-1.733c12.31,38.425,48.032,66.392,90.357,67.175c-33.105,25.941-74.81,41.4-120.128,41.4
	c-7.807,0-15.506-0.455-23.072-1.348c42.807,27.445,93.646,43.453,148.271,43.453c177.916,0,275.207-147.386,275.207-275.206
	c0-4.194-0.1-8.363-0.283-12.514C627.306,311.16,643.71,294.126,656.673,274.73z"/>
</svg>
