<?xml version="1.0" encoding="utf-8"?>
<!-- Generator: Adobe Illustrator 16.0.0, SVG Export Plug-In . SVG Version: 6.00 Build 0)  -->
<!DOCTYPE svg PUBLIC "-//W3C//DTD SVG 1.1//EN" "http://www.w3.org/Graphics/SVG/1.1/DTD/svg11.dtd">
<svg version="1.1" id="Layer_1" xmlns="http://www.w3.org/2000/svg" xmlns:xlink="http://www.w3.org/1999/xlink" x="0px" y="0px"
	 width="3466.63px" height="2452.082px" viewBox="0 0 3466.63 2452.082" enable-background="new 0 0 3466.63 2452.082"
	 xml:space="preserve">
<g>
	<path fill-rule="evenodd" clip-rule="evenodd" fill="#905DA1" d="M3483.675,1569.986c0,62.667,0,125.333,0,188
		c-4.607,8.011-12.735,11.623-20.363,15.455c-40.488,20.335-80.456,41.676-120.627,62.612
		c-77.381,40.328-154.723,80.73-232.061,121.14c-34.53,18.042-69.368,35.52-103.457,54.409c-5.828,3.23-12.446,4.411-18.643,6.757
		c-1.684-0.242-3.033-1.008-3.989-2.433c-1.419-6.65-0.71-13.129,0.874-19.713c29.694-123.434,58.76-247.017,88.059-370.544
		c19.07-80.404,38.388-160.752,57.012-241.263c2.03-8.776,3.945-17.597,9.463-25.052c1.19-1.171,2.632-1.787,4.279-1.894
		c27.623,11.813,52.011,29.31,77.466,44.887c67.552,41.341,134.931,82.966,202.41,124.426c15.308,9.405,30.48,19.035,45.954,28.162
		C3476.27,1558.604,3481.365,1562.945,3483.675,1569.986z"/>
	<path fill-rule="evenodd" clip-rule="evenodd" fill="#A24793" d="M615.675-12.014c69.333,0,138.667,0,208,0
		c5.497,2.395,7.322,7.269,8.755,12.564c14.434,53.325,28.7,106.696,42.994,160.059c17.309,64.615,34.509,129.26,51.972,193.833
		c2.086,7.711,4.268,15.442,2.866,23.613c-2.305,6.643-7.835,6.585-13.22,6.012c-30.771-3.275-61.505-6.895-92.279-10.131
		c-45.664-4.802-91.266-10.169-136.922-15.037c-46.318-4.938-92.567-10.559-138.922-15.097
		c-26.154-2.562-51.914-7.434-77.894-10.855c-2.293-0.389-4.159-1.668-5.989-2.976c-3.863-7.938,0.597-14.889,3.345-21.611
		c8.556-20.929,18.587-41.221,27.697-61.92c13.671-31.063,27.378-62.121,41.344-93.041c17.803-39.412,35.571-78.843,53.221-118.324
		c4.881-10.919,9.898-21.778,14.658-32.748C607.741-3.297,610.768-8.279,615.675-12.014z"/>
	<path fill-rule="evenodd" clip-rule="evenodd" fill="#BB6CBC" d="M423.675,2467.986c-61.333,0-122.667,0-184,0
		c-4.583-3.485-4.712-8.594-4.719-13.6c-0.044-31.641-2.035-63.223-2.444-94.869c-0.84-64.919-2.803-129.829-4.277-194.74
		c-0.537-23.648-1.185-47.18,0.446-70.766c0.171-2.02,0.802-3.841,2.256-5.312c6.081-3.286,12.731-3.532,19.402-3.546
		c32.613-0.068,65.301-1.453,97.823,0.319c51.901,2.829,103.836-0.451,155.644,1.986c52.905,2.488,105.779,0.639,158.65,1.795
		c12.612,0.275,25.216,1.526,37.627,3.862c1.105,0.162,2.173,0.538,3.129,1.092c3.698,8.141-1.849,13.714-6.08,19.104
		c-19.919,25.37-38.811,51.508-58.29,77.204c-56.423,74.433-112.677,148.993-168.843,223.619
		c-10.988,14.599-22.232,29.012-33.015,43.766C433.493,2462.68,428.769,2465.496,423.675,2467.986z"/>
	<path fill-rule="evenodd" clip-rule="evenodd" fill="#903E85" d="M-12.325,553.986c0-62.667,0-125.333,0-188
		c2.7-3.455,6.469-4.339,10.601-4.646c45.147-3.352,90.3-6.673,135.415-10.413c47.437-3.933,94.91-7.404,142.356-11.194
		c38.157-3.047,76.328-6.01,114.518-8.669c19.917-1.388,39.733-4.331,59.753-3.807c3.357,0.575,6.65,1.532,9.979,2.21
		c5.623,2.858,3.41,6.945,1.78,11.055c-8.36,21.075-19.257,40.944-30.019,60.791c-10.317,19.027-20.102,38.335-30.066,57.522
		c-28.691,55.25-57.636,110.37-86.326,165.62c-21.938,42.246-44.082,84.389-66.131,126.579c-2.147,4.11-3.954,8.604-9.246,9.778
		c-1.505,0.447-2.999,0.409-4.478-0.059c-50.777-38.539-98.976-80.302-148.686-120.196c-29.782-23.9-58.931-48.596-88.762-72.448
		C-6.431,564.277-9.862,559.526-12.325,553.986z"/>
	<path fill-rule="evenodd" clip-rule="evenodd" fill="#884B91" d="M3483.675,627.986c0,60.667,0,121.333,0,182
		c-3.422,9.407-10.241,15.844-17.816,22.101c-12.533,10.354-23.851,22.141-35.582,33.374c-28.3,27.097-57.088,53.678-85.583,80.557
		c-24.853,23.443-49.197,47.479-75.089,69.826c-3.551,3.064-7.5,5.418-11.401,7.931c-0.991,0.203-1.97,0.182-2.95-0.044
		c-1.38-0.617-2.619-1.43-3.615-2.578c-49.393-67.762-94.519-138.449-141.905-207.59c-37.634-54.909-74.673-110.23-111.815-165.478
		c-1.673-2.488-3.4-4.965-4.813-7.584c-3.353-6.224-3.323-11.566,4.732-14.181c4.626-1.195,9.3-1.208,13.955-1.165
		c150.113,1.372,300.2-3.277,450.312-1.943C3469.491,623.278,3477.659,621.159,3483.675,627.986z"/>
	<path fill-rule="evenodd" clip-rule="evenodd" fill="#B361B6" d="M3483.675,55.986c0,34.667,0,69.333,0,104
		c-3.404,6.354-8.766,10.626-14.75,14.413c-62.997,39.87-125.813,80.026-188.758,119.981
		c-49.184,31.221-98.185,62.729-147.316,94.033c-10.09,6.429-19.948,13.26-31.375,17.294c-1.065-0.035-2.042-0.33-2.959-0.863
		c-4.536-4.685-7.133-10.386-8.777-16.604c-0.072-4.368-0.988-8.507-2.822-12.524c-18.947-41.499-32.654-85.007-48.577-127.657
		c-26.056-69.789-51.438-139.831-76.976-209.813c-1.971-5.4-5.768-11.119,0.634-16.332c1.104-0.45,2.232-0.706,3.425-0.792
		c39.668-1.781,78.99,3.392,118.46,5.396c24.578,1.248,49.128,2.891,73.68,4.545c39.143,2.639,78.308,4.944,117.458,7.457
		c25.546,1.64,51.12,3.02,76.666,4.7c40.473,2.663,81.017,4.26,121.414,8.055C3477.208,51.66,3480.987,52.534,3483.675,55.986z"/>
	<path fill-rule="evenodd" clip-rule="evenodd" fill="#A46AB7" d="M2989.58,2015.89c8.967-5.087,17.785-10.459,26.925-15.213
		c56.733-29.509,113.577-58.806,170.311-88.314c60.864-31.658,121.677-63.418,182.454-95.243
		c34.515-18.073,68.899-36.396,103.388-54.519c3.512-1.846,7.338-3.092,11.018-4.615c0,106,0,212,0,318
		c-3.313,12.913-2.156,27.354-12.904,37.735c-0.951,0.567-1.969,0.917-3.064,1.06c-1.108,0.104-2.212,0.158-3.324,0.168
		c-27.42-1.298-53.764-8.824-80.447-14.174c-126.518-25.363-253.221-49.789-379.678-75.454c-4.564-0.927-9.206-1.577-13.021-4.618
		C2989.959,2019.341,2989.464,2017.72,2989.58,2015.89z"/>
	<path fill-rule="evenodd" clip-rule="evenodd" fill="#71306B" d="M235.718,757.938c1.31,0.029,2.621,0.059,3.931,0.088
		c5.237,0.634,8.875,3.41,12.335,7.454c18.609,21.745,37.896,42.903,57.063,64.152c24.742,27.428,48.819,55.451,74.062,82.429
		c3.662,3.913,5.229,9.23,8.409,13.522c0.224,1.035,0.18,2.045-0.111,3.058c-0.689,1.465-1.688,2.659-3.018,3.576
		c-0.955,0.47-1.945,0.844-2.969,1.127c-79.67,30.179-161.209,54.869-241.896,82.059c-40.352,13.598-80.934,26.545-121.355,39.96
		c-5.45,1.809-10.792,3.479-16.452,1.025c-0.935-0.484-1.702-1.164-2.303-2.021c-7.726-11.77-12.014-24.961-15.74-38.382
		c0-88,0-176,0-264c3.2-4.228,7.873-4.599,12.585-4.699c41.6-0.895,83.107,1.716,124.636,3.411
		c5.657,0.231,11.319,0.612,16.963,0.367c25.988-1.125,51.843,2.16,77.792,2.208C225.418,753.285,230.84,754.738,235.718,757.938z"
		/>
	<path fill-rule="evenodd" clip-rule="evenodd" fill="#9F4391" d="M-12.325,59.986c0-21.667,0.274-43.339-0.178-64.996
		c-0.125-5.987,1.213-7.179,7.179-7.169c127,0.218,254,0.165,381,0.165c6.34,2.754,7.758,8.605,9.21,14.49
		c11.229,45.52,23.18,90.856,34.72,136.297c13.994,55.105,28.102,110.185,42.212,165.262c1.894,7.393,4.219,14.796,1.604,22.507
		c-6.054,6.269-11.866,1.168-16.941-1.193c-13.263-6.169-25.62-14.115-38.336-21.354c-66.47-37.842-132.334-76.737-199.016-114.215
		c-21.741-12.219-43.053-25.216-64.825-37.374c-36.244-20.24-72.337-40.747-108.482-61.16C22.519,83.733,9.189,76.249-3.916,68.375
		C-7.543,66.195-9.255,62.498-12.325,59.986z"/>
	<path fill-rule="evenodd" clip-rule="evenodd" fill="#B977D0" d="M3465.646,2112.052c0.679-0.01,1.357-0.02,2.036-0.029
		c2.624,2.311,4.029,5.27,4.415,8.689c0.821,7.262,2.584,14.423,2.387,21.792c-1.167,43.563,1.522,87.077,2.53,130.589
		c1.263,54.494,2.608,108.972,2.747,163.482c0.019,7.124,1.13,14.248,0.972,21.412c-0.08,3.627,0.062,7.307-3.059,9.998
		c-64.667,0-129.333,0-194,0c-15.184-7.018-23.163-21.524-33.717-33.176c-21.139-23.338-41.149-47.686-62.141-71.178
		c-14.801-16.563-29.108-33.572-43.307-50.66c-4.596-5.532-9.188-10.366-17.286-8.606c-5.351-3.452-2.079-8.749-2.864-13.175
		c-0.084-1.053,0.079-2.072,0.467-3.045c2.564-5.037,7.088-7.787,11.956-10.118c30.962-14.821,61.035-31.378,91.64-46.896
		c54.674-27.724,108.858-56.402,163.658-83.883c6.84-3.43,13.232-7.718,20.186-10.979
		C3429.959,2127.973,3446.636,2117.443,3465.646,2112.052z"/>
	<path fill-rule="evenodd" clip-rule="evenodd" fill="#AF5FB2" d="M423.675,2467.986c32.933-43.917,65.785-87.895,98.815-131.737
		c54.253-72.011,108.596-143.954,162.978-215.868c5.8-7.67,12.112-14.951,18.187-22.414c7.939,2.077,9.479,9.399,11.794,15.482
		c5.206,13.681,10.101,27.489,15.041,41.275c35.817,99.94,72.719,199.49,108.145,299.572c1.656,4.681,4.111,9.46-0.959,13.689
		C699.675,2467.986,561.675,2467.986,423.675,2467.986z"/>
	<path fill-rule="evenodd" clip-rule="evenodd" fill="#A050A5" d="M3101.602,403.921c11.243-7.671,22.293-15.646,33.761-22.966
		c105.545-67.369,211.148-134.646,316.777-201.88c10.363-6.597,21.017-12.737,31.535-19.09c0,130.667,0,261.333,0,392
		c-4.93,3.82-9.615,0.969-14.131-0.789c-49.984-19.454-99.95-38.957-149.975-58.306c-69.287-26.798-138.494-53.802-207.754-80.668
		C3107.539,410.564,3102.582,409.668,3101.602,403.921z"/>
	<path fill-rule="evenodd" clip-rule="evenodd" fill="#76356F" d="M1351.675-12.014c2.667,0,5.333,0,8,0
		c17.953,8.189,30.624,23.181,45.086,35.714c32.686,28.329,65.003,57.09,97.403,85.748c25.428,22.49,50.82,45.029,76.271,67.494
		c30.936,27.308,61.606,54.921,92.992,81.716c6.337,5.409,11.973,11.554,18.43,16.86c3.326,2.734,5.732,6.816,1.807,11.353
		c-13.12,3.766-26.645,2.841-39.671,1.451c-19.595-2.091-39.257-1.957-58.82-2.822c-37.222-1.646-74.476-3.23-111.689-4.981
		c-49.506-2.329-99.067-3.712-148.519-7.279c-15.921-1.149-31.922-1.319-47.868-1.962c-33.248-1.339-66.471-3.205-99.72-4.475
		c-4.367-0.166-8.56-1.239-12.828-1.771c-1.148-0.084-2.299-0.277-3.414-0.562c-1.007-0.432-1.853-1.102-2.51-1.964
		c-0.857-8.198,4.059-14.488,8.133-20.469c31.641-46.439,63.098-93.004,94.738-139.443c23.404-34.352,46.999-68.574,69.96-103.224
		C1342.694-5.519,1347.048-8.818,1351.675-12.014z"/>
	<path fill-rule="evenodd" clip-rule="evenodd" fill="#A04493" d="M-12.325,59.986c9.201,4.436,18.665,8.401,27.553,13.393
		c29.176,16.386,58.143,33.143,87.188,49.758c44.969,25.723,89.937,51.445,134.904,77.17
		c54.802,31.351,109.575,62.748,164.415,94.031c19.905,11.355,39.965,22.438,59.954,33.645c1.322-1.184,2.646-1.184,3.973-0.007
		c1.338,0.664,2.675,1.328,4.013,1.992c-0.902,1.501-2.274,2.233-3.972,2.431c-4.656-0.986-9.29-2.742-14.047-0.423
		c-25.5,1.834-50.999,3.661-76.498,5.507c-20.538,1.486-41.08,2.924-61.61,4.513c-31.449,2.435-62.887,5.017-94.334,7.465
		c-20.199,1.572-40.413,2.949-60.611,4.532c-31.115,2.437-62.208,5.191-93.338,7.402c-25.841,1.836-51.725,3.084-77.589,4.592
		C-12.325,263.986-12.325,161.986-12.325,59.986z"/>
	<path fill-rule="evenodd" clip-rule="evenodd" fill="#8B5B9B" d="M2283.675,2467.986c-111.333,0-222.667,0-334,0
		c-16.963-4.605-28.81-17.313-42.225-27.309c-19.403-14.457-38.557-29.277-57.658-44.146c-4.908-3.82-10.419-7.217-12.284-13.833
		c-0.005-1.126,0.255-2.167,0.745-3.172c4.211-5.371,10.721-4.975,16.398-6.126c57.791-11.72,115.724-22.729,173.59-34.066
		c96.772-18.962,193.563-37.834,290.357-56.678c55.917-10.885,111.777-22.072,167.773-32.553c6.274-1.174,12.508-1.873,18.813-0.758
		c9.093,6.089,0.721,11.008-2.172,14.262c-10.153,11.422-20.854,22.434-32.579,32.328c-2.288,1.931-4.742,3.68-6.805,5.854
		c-21.767,22.961-45.331,44.096-68.329,65.747c-32.201,30.316-63.311,61.797-96.421,91.16
		C2294.241,2462.811,2288.821,2465.03,2283.675,2467.986z"/>
	<path fill-rule="evenodd" clip-rule="evenodd" fill="#9A56A0" d="M3101.602,403.921c31.688,12.021,63.448,23.857,95.053,36.097
		c92.671,35.889,185.28,71.934,277.904,107.942c3.093,1.203,6.08,2.678,9.116,4.025c0,25.333,0,50.667,0,76
		c-163.328,0.685-326.657,1.37-489.986,2.055c-0.43-0.275-0.858-0.551-1.288-0.824c-0.667-0.789-1.099-1.691-1.296-2.701
		c1.137-13.358,8.498-24.44,14.12-35.931c21.78-44.517,42.518-89.533,64.517-133.944c8.252-16.659,14.649-34.255,25.717-49.445
		c0.792-1.087,1.661-2.07,2.754-2.853c0.477-0.14,0.954-0.279,1.432-0.419C3100.296,403.925,3100.948,403.925,3101.602,403.921z"/>
	<path fill-rule="evenodd" clip-rule="evenodd" fill="#783C77" d="M1819.675-12.014c160.667,0,321.333,0,482,0
		c4.563,3.48,4.817,8.578,4.702,13.568c-0.638,27.606,1.756,55.134,2.554,82.692c1.26,43.481,2.543,86.983,4.506,130.432
		c1.337,7.357-2.676,13.925-3.167,20.993c-1.753,4.946-5.182,3.618-8.972,2.731c-18.002-4.213-33.994-13.36-50.693-20.669
		c-66.167-28.96-131.931-58.83-197.958-88.109c-58.417-25.905-116.821-51.844-175.052-78.168
		c-23.351-10.557-46.927-20.612-70.238-31.255c-4.474-2.042-9.264-3.961-11.694-8.849c1.621-9.07,7.792-14.615,15.123-19.136
		C1813.567-9.499,1816.954-10.082,1819.675-12.014z"/>
	<path fill-rule="evenodd" clip-rule="evenodd" fill="#8F3E84" d="M927.713,375.99c-32.416-120.981-64.83-241.963-97.25-362.942
		c-2.24-8.36-4.524-16.708-6.788-25.062c94.667,0,189.333,0,284,0c12.409,3.995,20.936,13.243,29.805,22.033
		c0.534,0.833,0.873,1.736,1.023,2.713c0.787,7.716-2.509,14.359-6.053,20.699c-27.464,49.134-55.474,97.961-83.088,147.009
		c-27.285,48.464-55.094,96.629-82.242,145.17c-10.209,18.251-19.765,36.979-32.693,53.606c-1.125,1.057-2.442,1.607-4.002,1.509
		C927.988,380.028,929.184,377.245,927.713,375.99z"/>
	<path fill-rule="evenodd" clip-rule="evenodd" fill="#672D62" d="M1691.642,281.998c-15.91-13.594-31.942-27.049-47.703-40.813
		c-26.785-23.392-53.424-46.952-80.079-70.493c-19.187-16.943-38.263-34.011-57.452-50.95
		c-25.914-22.876-51.941-45.623-77.821-68.536c-22.403-19.836-44.679-39.814-66.958-59.79c-0.929-0.833-1.314-2.272-1.953-3.429
		c22.667,0,45.333,0,68,0c10.799,2.045,21.805,1.605,32.654,1.784c43.979,0.728,87.99,1.362,131.876,3.787
		c53.753,2.969,107.571,4.994,161.25,9.307c8.295,0.666,16.638,0.215,24.957,0.332c5.083,0.072,9.922,0.795,14.173,3.799
		c1.12,0.409,2.123,1.03,2.989,1.846c1.08,1.364,1.369,3.078,1.953,4.647c-6.221,25.902-16.896,50.292-26.044,75.191
		c-21.359,58.146-42.904,116.226-64.779,174.18c-2.766,7.325-2.828,16.831-12.219,20.419
		C1693.401,283.151,1692.454,282.722,1691.642,281.998z"/>
	<path fill-rule="evenodd" clip-rule="evenodd" fill="#B46AB7" d="M231.695,2090.029c-0.013,1.332-0.026,2.665-0.04,3.998
		c-37.097,104.751-85.346,204.888-127.271,307.641c-7.416,18.174-15.275,36.155-22.877,54.246c-2.188,5.208-5.3,9.068-9.832,12.072
		c-18,0-36,0-54,0c-4.428-1.996-6.188-5.536-6.601-10.275c-2.197-25.193-4.1-50.41-6.168-75.614
		c-2.476-30.175-5.042-60.346-7.233-90.539c-2.144-29.529-5.005-59-6.228-88.616c-0.95-22.985,0.202-46.127-3.77-68.955
		c0-24,0-48,0-72c3.297-4.264,7.784-4.443,12.626-3.889c59.754,6.842,119.522,13.568,179.274,20.431
		c14.525,1.669,29.113,2.796,43.547,5.245C226.738,2084.821,229.763,2086.676,231.695,2090.029z"/>
	<path fill-rule="evenodd" clip-rule="evenodd" fill="#A15BA1" d="M2543.675-12.014c82.667,0,165.333,0,248,0
		c28.958,8.863,53.319,26.785,79.793,40.543c4.115,2.139,8.551,4.399,7.432,10.44c-2.951,4.8-7.507,7.268-12.672,9.054
		c-62.014,21.443-123.844,43.412-185.688,65.333c-104.537,37.053-209.143,73.909-313.715,110.864
		c-17.441,6.163-34.296,14.883-53.369,15.725c-1.014-0.305-1.862-0.865-2.547-1.666c-0.486-0.903-0.674-1.873-0.569-2.886
		c13.706-19.646,30.333-36.867,46.785-54.095c35.38-37.045,70.042-74.762,105.198-112.015
		c21.665-22.957,43.857-45.488,64.243-69.642C2531.257-5.916,2537.356-9.037,2543.675-12.014z"/>
	<path fill-rule="evenodd" clip-rule="evenodd" fill="#683D76" d="M3255.718,1022.017c0.646-0.021,1.292-0.045,1.938-0.069
		c4.692-2.09,8.94-0.781,13.344,1.277c24.679,11.535,49.258,23.285,73.817,35.062c42.238,20.255,84.459,40.545,126.914,60.342
		c5.424,2.529,9.373,6.087,11.943,11.357c0,12.667,0,25.333,0,38c-2.309,6.822-7.774,10.118-13.741,13.48
		c-71.92,40.538-144.255,80.332-216.31,120.626c-31.665,17.708-63.135,35.793-95.259,52.668c-3.209,1.686-4.28,4.97-7.205,6.542
		c-2.095,0.589-3.919-0.113-5.665-1.184c-1.291-0.02-2.582-0.039-3.872-0.059c-0.4-0.347-0.801-0.692-1.202-1.038
		c-0.564-0.915-0.862-1.911-0.897-2.983c-0.331-9.636,3.823-18.188,7.039-26.83c12.761-34.298,23.537-69.269,35.532-103.825
		c21.373-61.573,42.008-123.407,63.188-185.052c2.183-6.353,4.958-12.303,9.021-17.646
		C3254.774,1022.462,3255.246,1022.24,3255.718,1022.017z"/>
	<path fill-rule="evenodd" clip-rule="evenodd" fill="#CC8EE0" d="M3127.751,2288.005c-0.047,0.639-0.089,1.278-0.124,1.918
		c-3.749,10.459-11.413,17.688-19.765,24.495c-14.984,12.216-28.27,26.338-42.12,39.724c-24.181,23.369-48.941,46.146-72.825,69.84
		c-12.267,12.17-25.614,23.307-37.447,35.945c-4.482,4.787-10.983,4.534-15.795,8.059c-28.667,0-57.333,0-86,0
		c-5.074-2.354-7.945-6.366-10.391-11.43c-26.797-55.504-52.46-111.544-79.141-167.104c-5.91-12.308-11.609-24.727-17.611-36.998
		c-2.82-5.765-4.276-11.753-2.447-18.188c1.118-1.408,2.58-2.105,4.351-2.223c27.019,1.089,53.54,6.252,80.254,9.739
		c78.593,10.262,157.071,21.368,235.651,31.731c20.459,2.697,40.959,5.228,61.279,8.945
		C3128.211,2283.587,3129.372,2285.262,3127.751,2288.005z"/>
	<path fill-rule="evenodd" clip-rule="evenodd" fill="#A762AC" d="M837.675,2467.986c-6.342-18.573-12.424-37.239-19.074-55.701
		c-18.173-50.453-36.589-100.82-54.899-151.224c-19.222-52.91-38.427-105.825-57.679-158.724c-0.561-1.54-1.568-2.917-2.368-4.37
		c-0.007-0.653-0.016-1.308-0.025-1.96c0.588-0.825,1.354-1.418,2.298-1.779c5.973-0.229,10.796,2.555,15.507,5.787
		c70.923,48.663,142.864,95.818,213.786,144.48c5.55,3.809,10.981,7.631,11.721,15.181c2.711,16.321-0.271,32.534-1.232,48.673
		c-1.619,27.16-3.055,54.345-5.023,81.493c-1.633,22.509-2.451,45.078-4.35,67.577c-0.347,4.114-1.218,7.876-4.66,10.566
		C900.342,2467.986,869.008,2467.986,837.675,2467.986z"/>
	<path fill-rule="evenodd" clip-rule="evenodd" fill="#A64797" d="M465.662,327.975c-1.324,0.002-2.648,0.005-3.973,0.007
		c-5.418-23.003-10.53-46.084-16.315-68.995c-15.088-59.757-30.421-119.453-45.755-179.148
		c-7.872-30.646-15.956-61.236-23.944-91.853c80,0,160,0,240,0c-6.173,14.999-12.046,30.131-18.578,44.973
		c-16.068,36.51-32.415,72.898-48.696,109.315c-20.21,45.201-40.498,90.367-60.688,135.577
		C480.269,294.517,473.007,311.265,465.662,327.975z"/>
	<path fill-rule="evenodd" clip-rule="evenodd" fill="#9B579C" d="M223.658,2088.039c-27.772-2.976-55.552-5.88-83.313-8.945
		c-33.053-3.648-66.09-7.447-99.137-11.16c-17.842-2.004-35.688-3.967-53.533-5.947c0-4.667,0-9.333,0-14
		c30.699-99.825,72.132-195.713,107.766-293.729c1.446-3.978,2.183-8.521,6.613-10.722c7.042-2.991,9.733,1.98,12.065,6.912
		c4.136,8.747,6.868,18.059,10.152,27.135c34.685,95.85,68.985,191.838,103.814,287.637c2.661,7.317,8.304,15.059,1.738,23.341
		C227.715,2089,225.604,2089.494,223.658,2088.039z"/>
	<path fill-rule="evenodd" clip-rule="evenodd" fill="#93549B" d="M931.675,2467.986c1.879-31.84,3.754-63.68,5.638-95.52
		c0.687-11.61,1.454-23.217,2.079-34.83c1.466-27.215,2.867-54.434,4.295-81.65c0.765-0.656,1.647-1.032,2.648-1.131
		c25.735,10.212,49.106,24.907,72.701,39.049c41.979,25.16,84.673,49.084,126.753,74.063c44.346,26.324,89.49,51.283,133.581,78.045
		c3.702,2.247,7.534,4.266,11.247,6.461c4.466,2.64,9.574,5.021,10.526,11.138c-0.307,3.356-3.647,2.914-5.469,4.375
		C1174.342,2467.986,1053.008,2467.986,931.675,2467.986z"/>
	<path fill-rule="evenodd" clip-rule="evenodd" fill="#733C7F" d="M3483.675,1129.986c-75.34-36.012-150.679-72.024-226.019-108.037
		c14.05-13.646,27.937-27.467,42.198-40.888c13.541-12.742,27.664-24.864,41.193-37.618c28.775-27.125,57.201-54.622,86.024-81.695
		c18.634-17.502,37.72-34.524,56.603-51.762C3483.675,916.653,3483.675,1023.319,3483.675,1129.986z"/>
	<path fill-rule="evenodd" clip-rule="evenodd" fill="#653974" d="M3151.686,1359.949c-4.696-2.747-4.292-4.692,0.467-7.288
		c24.841-13.55,49.567-27.308,74.288-41.077c44.785-24.947,89.518-49.986,134.308-74.925
		c37.521-20.891,75.097-41.683,112.632-62.546c3.489-1.939,6.866-4.08,10.295-6.127c0,68,0,136,0,204
		c-3.832,4.897-9.331,5.058-14.59,4.321c-23.144-3.238-46.5-1.729-69.72-2.766c-28.849-1.288-57.818-1.95-86.692-3.059
		c-49.47-1.898-99.002-2.488-148.411-5.885C3159.724,1364.287,3154.807,1364.376,3151.686,1359.949z"/>
	<path fill-rule="evenodd" clip-rule="evenodd" fill="#B079C3" d="M2593.675,2467.986c-26,0-52,0-78,0
		c-4.57-2.922-6.787-7.069-6.646-12.519c0.042-1.653-0.19-3.317-0.15-4.976c1.243-52.115-3.223-104.155-2.098-156.271
		c0.15-6.974,0.14-13.974-1.27-20.841c-1.619-7.888,1.427-15.035,3.177-22.396c0.449-1.222,1.207-2.214,2.265-2.968
		c8.648-4.285,18.258-3.607,27.354-4.209c24.808-1.641,49.639-3.078,74.444-4.775c36.71-2.512,73.479-4.126,110.144-7.314
		c5.317-0.463,10.6-0.729,15.796,0.691c1.011,0.396,2.058,0.773,3.084,1.101c4.628,6.719,2.53,13.185-1.509,19.003
		c-28.461,41.013-54.718,83.474-82.265,125.087c-16.883,25.503-33.471,51.215-50.057,76.92
		C2604.237,2460.265,2599.886,2465.036,2593.675,2467.986z"/>
	<path fill-rule="evenodd" clip-rule="evenodd" fill="#724283" d="M3151.686,1359.949c46.218,1.369,92.438,2.647,138.65,4.136
		c36.56,1.177,73.116,2.492,109.664,3.97c27.899,1.129,55.784,2.608,83.675,3.932c0,66,0,132,0,198
		c-32.748-20.382-65.425-40.881-98.261-61.121c-78.434-48.349-156.945-96.569-235.399-144.885c-1.666-1.026-3.018-2.563-4.518-3.862
		C3147.559,1360.062,3149.622,1360.005,3151.686,1359.949z"/>
	<path fill-rule="evenodd" clip-rule="evenodd" fill="#AA5DAF" d="M71.675,2467.986c13.452-32.226,26.791-64.499,40.381-96.666
		c25.118-59.449,50.409-118.824,75.576-178.253c12.973-30.633,25.786-61.334,38.83-91.937c1.12-2.629,3.434-4.749,5.193-7.104
		c0.689,45.563,1.297,91.125,2.097,136.685c0.507,28.92,1.303,57.833,1.96,86.75c0.68,29.914,1.277,59.831,2.044,89.743
		c0.52,20.264,1.271,40.521,1.919,60.782C183.675,2467.986,127.675,2467.986,71.675,2467.986z"/>
	<path fill-rule="evenodd" clip-rule="evenodd" fill="#B67BC9" d="M2593.675,2467.986c10.389-16.239,20.666-32.551,31.191-48.702
		c23.787-36.503,47.793-72.863,71.522-109.403c15.925-24.523,31.528-49.256,47.275-73.895c0.583-0.565,1.188-0.618,1.816-0.074
		c7.416,16.676,14.532,33.492,22.307,49.998c20.241,42.98,40.825,85.799,61.161,128.734c8.389,17.711,16.493,35.557,24.727,53.342
		C2767.008,2467.986,2680.342,2467.986,2593.675,2467.986z"/>
	<path fill-rule="evenodd" clip-rule="evenodd" fill="#7F3876" d="M1351.675-12.014c-10.753,16.788-21.242,33.753-32.324,50.321
		c-14.433,21.578-29.406,42.794-44.021,64.251c-34.483,50.623-68.889,101.299-103.35,151.938c-1.307,1.92-2.854,3.677-4.289,5.509
		c-4.346-2.052-6.236-5.673-6.582-10.278c-9.128-69.938-17.136-140.019-25.833-210.017c-1.081-8.699,0.479-17.233,1.775-25.778
		c2.174-4.898,6.341-6.111,11.263-6.729c57.417-7.213,114.64-16.234,172.605-18.248c1.059-0.037,1.895-0.486,2.756-0.968
		C1333.008-12.014,1342.342-12.014,1351.675-12.014z"/>
	<path fill-rule="evenodd" clip-rule="evenodd" fill="#A454A9" d="M3483.675,55.986c-29.818-1.881-59.637-3.763-89.455-5.643
		c-12.264-0.772-24.523-1.618-36.792-2.297c-37.801-2.094-75.614-3.973-113.406-6.216c-41.761-2.479-83.501-5.291-125.253-7.919
		c-43.078-2.711-86.161-5.36-129.24-8.072c-8.612-0.542-17.215-1.247-25.821-1.877c-2.166-2.751-0.927-5.003,1.019-7.156
		c10.567-2.217,19.116-8.604,28.207-13.876c12.127-7.033,25.102-11.848,38.742-14.944c148,0,296,0.061,444-0.192
		c6.849-0.012,8.411,1.313,8.209,8.198C3483.296,15.975,3483.675,35.986,3483.675,55.986z"/>
	<path fill-rule="evenodd" clip-rule="evenodd" fill="#9965AB" d="M2509.841,2250.566c0.649,36.602,1.255,73.203,1.962,109.803
		c0.584,30.273,1.21,60.547,2.011,90.815c0.148,5.613,1.217,11.202,1.861,16.802c-77.333,0-154.667,0-232,0
		c19.094-18.5,38.166-37.021,57.299-55.48c3.345-3.227,7.066-6.061,10.407-9.29c23.208-22.429,46.261-45.019,69.558-67.354
		c26.167-25.087,52.56-49.937,78.788-74.958c2.872-2.739,5.31-5.935,7.948-8.918c-0.51-0.334-0.757-0.736-0.742-1.209
		c0.016-0.508,0.09-0.762,0.22-0.762c0.643-0.525,1.369-0.701,2.181-0.522C2509.502,2249.85,2509.671,2250.208,2509.841,2250.566z"
		/>
	<path fill-rule="evenodd" clip-rule="evenodd" fill="#7F3677" d="M235.718,757.938c-36.209-0.673-72.422-1.177-108.626-2.063
		c-46.476-1.136-92.945-2.579-139.417-3.89c0-66,0-132,0-198c24.938,19.955,49.975,39.788,74.789,59.896
		c27.918,22.625,55.643,45.487,83.437,68.265c27.794,22.778,55.596,45.547,83.308,68.426
		C231.704,752.633,233.563,755.464,235.718,757.938z"/>
	<path fill-rule="evenodd" clip-rule="evenodd" fill="#733A73" d="M-12.325,1725.986c0-102.667,0-205.333,0-308
		c5.117-6.314,12.353-7.727,19.843-8.578c1.117-0.054,2.193,0.105,3.25,0.463c1.599,0.73,2.692,1.928,3.326,3.55
		c31.642,103.409,61.057,207.483,91.894,311.138c3.412,11.467,1.715,14.609-9.597,18.489c-32.834-2.275-65.332-7.528-98.073-10.478
		C-6.586,1732.128-9.365,1729.121-12.325,1725.986z"/>
	<path fill-rule="evenodd" clip-rule="evenodd" fill="#683A75" d="M1839.718,2381.943c0.088,0.617,0.16,1.235,0.216,1.856
		c1.228,7.089-2.706,12.853-5.344,18.735c-8.11,18.082-16.154,36.197-24.57,54.146c-2.376,5.067-5.332,8.962-10.345,11.306
		c-106,0-212,0-318,0c-5.692-5.146-6.403-12.174-5.853-18.946c0.426-5.229-0.037-10.367,0.171-15.534
		c2.208-5.068,6.816-5.726,11.532-6.465c50.678-7.941,101.589-14.23,152.34-21.668c49.433-7.245,98.931-14.06,148.367-21.285
		c14.503-2.119,29.269-1.473,43.633-4.662c1.756-0.437,3.488-0.422,5.184,0.276
		C1838.107,2380.247,1838.997,2380.994,1839.718,2381.943z"/>
	<path fill-rule="evenodd" clip-rule="evenodd" fill="#864988" d="M-12.325,1725.986c36.658,4.009,73.316,8.018,109.974,12.026
		c2.414,2.274,5.75-0.355,8.233,1.549c1.451,2.878-1.197,4.369-2.174,6.426c-31.873,84.558-63.738,169.117-95.625,253.669
		c-5.275,13.988-10.562,27.974-16.045,41.881c-0.929,2.357-2.883,4.31-4.364,6.449
		C-12.325,1940.653-12.325,1833.319-12.325,1725.986z"/>
	<path fill-rule="evenodd" clip-rule="evenodd" fill="#BE7CD4" d="M2939.675,2467.986c16.664-15.68,33.45-31.232,49.968-47.065
		c36.926-35.396,73.661-70.991,110.606-106.368c8.861-8.485,18.238-16.433,27.379-24.629c0.673,4.693,1.347,9.387,2.021,14.08
		c4.494,2.054,4.326,6.325,4.765,10.231c3.043,27.09,3.771,54.357,6.207,81.49c1.367,15.229,1.843,30.507,3.172,45.74
		c0.781,8.958,3.5,18.677-4.117,26.521C3073.008,2467.986,3006.342,2467.986,2939.675,2467.986z"/>
	<path fill-rule="evenodd" clip-rule="evenodd" fill="#874988" d="M2307.692,215.961c-0.713-35.858-1.235-71.722-2.191-107.573
		c-1.07-40.14-2.533-80.269-3.826-120.402c41.333,0,82.667,0,124,0c3.101,3.762,1.477,7.459-0.084,11.211
		c-8.806,21.174-18.853,41.791-28.522,62.564c-22.572,48.492-44.618,97.228-67.405,145.621
		c-4.857,10.317-11.514,19.372-17.974,28.613l-0.002,0.007c-1.097,0.703-2.018,0.521-2.763-0.546
		C2307.876,228.999,2309.9,222.346,2307.692,215.961z"/>
	<path fill-rule="evenodd" clip-rule="evenodd" fill="#955294" d="M2311.689,235.996c8.556-19.076,16.954-38.226,25.697-57.215
		c28.474-61.844,57.072-123.63,85.632-185.435c0.836-1.81,1.769-3.574,2.656-5.36c39.333,0,78.667,0,118,0
		c-7.23,8.223-14.233,16.659-21.73,24.631c-34.582,36.778-69.357,73.375-103.955,110.139
		c-29.356,31.195-58.557,62.538-87.845,93.799C2324.035,223.075,2317.843,229.517,2311.689,235.996z"/>
	<path fill-rule="evenodd" clip-rule="evenodd" fill="#B26EC9" d="M3139.675,2467.986c-1.879-29.807-3.799-59.61-5.626-89.42
		c-1.522-24.851-2.938-49.709-4.399-74.563c0.008-1.329-0.162-2.689,0.064-3.98c0.428-2.457,1.082-4.873,1.644-7.307
		c1.85,1.68,3.883,3.199,5.522,5.065c24.732,28.153,49.588,56.202,74.059,84.584c24.452,28.361,48.507,57.065,72.736,85.62
		C3235.675,2467.986,3187.675,2467.986,3139.675,2467.986z"/>
	<path fill-rule="evenodd" clip-rule="evenodd" fill="#592456" d="M9.675,1411.986c-0.654,0.039-1.308,0.059-1.962,0.058
		c-9.155-2.142-12.418-10.074-16.621-17.03c-1.342-2.221-1.332-5.139-3.418-7.027c0-113.333,0-226.667,0-340
		c7.913-7.201,12.612-0.129,17.964,4.044c0.032,0.62,0.06,1.241,0.082,1.862c4.33,2.11,6.25,5.621,6.486,10.389
		c0.249,4.997,0.327,9.99,0.329,14.988c0.022,56.652-0.176,113.306,0.092,169.957c0.126,26.629-0.366,53.232,1.424,79.901
		c1.779,26.507,1.463,53.232-2.104,79.735C11.469,1410.106,10.71,1411.147,9.675,1411.986z"/>
	<path fill-rule="evenodd" clip-rule="evenodd" fill="#653875" d="M1799.675,2467.986c11.001-24.563,21.911-49.168,33.098-73.646
		c1.74-3.808,4.74-7.04,7.159-10.54c18.064,13.505,36.262,26.835,54.152,40.565c18.685,14.339,37.073,29.063,55.591,43.62
		C1899.675,2467.986,1849.675,2467.986,1799.675,2467.986z"/>
	<path fill-rule="evenodd" clip-rule="evenodd" fill="#AA63AF" d="M-12.325,2133.986c1.316,4.396,3.442,8.724,3.822,13.199
		c3.484,41.054,6.75,82.127,9.906,123.207c2.241,29.16,4.042,58.354,6.355,87.509c2.312,29.146,4.99,58.263,7.567,87.386
		c0.67,7.576,1.561,15.134,2.35,22.699c-8.333,0-16.683-0.313-24.993,0.128c-4.33,0.23-5.186-0.827-5.136-5.13
		c0.271-23.663,0.129-47.331,0.129-70.998C-12.325,2305.986-12.325,2219.986-12.325,2133.986z"/>
	<path fill-rule="evenodd" clip-rule="evenodd" fill="#5D275A" d="M1795.61,9.936c-24.552-1.32-49.11-2.534-73.655-3.983
		c-42.12-2.487-84.229-5.173-126.349-7.666c-15.596-0.924-31.213-1.489-46.816-2.307c-38.497-2.017-76.993-4.062-115.484-6.197
		c-1.904-0.105-3.755-1.176-5.631-1.797c120.667,0,241.333,0,362,0c7.746,4.398,6.523,12.06,6.955,19.117
		C1796.623,8.167,1796.283,9.111,1795.61,9.936z"/>
	<path fill-rule="evenodd" clip-rule="evenodd" fill="#B067B1" d="M2877.65,37.947c-20.831-11.742-41.72-23.382-62.462-35.278
		c-8.01-4.594-15.686-9.771-23.514-14.683c26,0,52,0,78,0c25.79,3.991,49.404,14.753,73.635,23.61
		c6.01,2.196,11.447,5.118,15.563,10.166c0.314,1.065,0.321,2.127,0.048,3.194c-1.643,4.516-5.687,5-9.614,5.887
		c-17.176,3.879-34.64,6.12-51.945,9.259c-4.677,0.849-9.04,2.06-12.376,5.69c-2.247,1.537-3.191,4.979-6.721,4.643
		C2872.372,46.545,2875.196,42.237,2877.65,37.947z"/>
	<path fill-rule="evenodd" clip-rule="evenodd" fill="#AA64C2" d="M3477.675,2467.986c-0.689-31.257-1.343-62.515-2.081-93.771
		c-0.604-25.598-1.312-51.192-1.969-76.788c-1.339-52.191-2.614-104.384-4.065-156.572c-0.267-9.621-1.233-19.222-1.877-28.832
		c0.661-0.011,1.322-0.02,1.983-0.026c4.667-4.184,9.335-5.659,14.009-0.011c0,116.333-0.012,232.667,0.046,349
		C3483.724,2465.347,3484.551,2469.832,3477.675,2467.986z"/>
	<path fill-rule="evenodd" clip-rule="evenodd" fill="#784184" d="M1295.675,2467.986c1.338-1.329,2.677-2.657,4.016-3.986
		c0.646-0.948,1.444-1.745,2.393-2.391c13.064-7.547,28.071-7.254,42.238-9.965c38.095-7.288,76.391-13.521,114.633-20.018
		c4.854-0.825,9.745-2.394,14.656-0.209c1.043,0.413,1.914,1.064,2.605,1.946c1.493,13.591-1.854,25.435-12.541,34.622
		C1407.675,2467.986,1351.675,2467.986,1295.675,2467.986z"/>
	<path fill-rule="evenodd" clip-rule="evenodd" fill="#793371" d="M1323.675-12.014c-16.303,2.651-32.559,5.654-48.919,7.881
		c-33.51,4.56-67.08,8.668-100.616,13.034c-12.156,1.583-24.286,3.372-36.428,5.066c-1.242-0.071-1.357-1.318-2.048-1.965
		l0.046-0.061c-3.255-7.672-11.868-13.994-6.035-23.956C1194.342-12.014,1259.008-12.014,1323.675-12.014z"/>
	<path fill-rule="evenodd" clip-rule="evenodd" fill="#A35EA6" d="M2957.675,22.003c-27.365-10.141-54.742-20.254-82.077-30.476
		c-2.119-0.792-3.955-2.344-5.923-3.542c24,0,48,0,72,0c9.61,6.212,13.729,16.495,18.852,25.935
		C2962.095,16.811,2963.119,20.914,2957.675,22.003z"/>
	<path fill-rule="evenodd" clip-rule="evenodd" fill="#AB62B0" d="M2957.675,22.003c-3.096-6.651-6.176-13.312-9.294-19.952
		c-2.208-4.702-4.469-9.378-6.706-14.065c18,0,36,0,54,0c4.218,4.991,0.759,8.488-2.416,11.935
		c-7.445,8.081-16.927,13.579-25.642,20.05c-1.304,1.331-2.607,2.662-3.911,3.993c-0.694,0.022-1.389,0.045-2.084,0.067
		c-1.327,1.162-2.642,1.019-3.947-0.038C2957.675,23.33,2957.675,22.667,2957.675,22.003z"/>
	<path fill-rule="evenodd" clip-rule="evenodd" fill="#A054A6" d="M2967.617,19.97c7.119-7.44,14.359-14.771,21.295-22.38
		c2.616-2.871,4.529-6.384,6.763-9.604c12,0,24,0,36,0C3010.322-1.352,2988.97,9.309,2967.617,19.97z"/>
	<path fill-rule="evenodd" clip-rule="evenodd" fill="#522353" d="M-12.325,1387.986c6.679,8.019,13.358,16.038,20.038,24.057
		c-6.679,1.981-13.358,3.963-20.038,5.943C-12.325,1407.986-12.325,1397.986-12.325,1387.986z"/>
	<path fill-rule="evenodd" clip-rule="evenodd" fill="#6A3377" d="M1463.675,2467.986c4.022-11.298,8.044-22.596,12.066-33.893
		c0.638-0.541,1.286-0.553,1.944-0.037c1.33,11.31,2.659,22.62,3.989,33.93C1475.675,2467.986,1469.675,2467.986,1463.675,2467.986z
		"/>
	<path fill-rule="evenodd" clip-rule="evenodd" fill="#672A63" d="M5.639,1052.03c-5.988-1.348-11.976-2.696-17.964-4.044
		c0-10.667,0-21.333,0-32C-6.337,1028-0.349,1040.015,5.639,1052.03z"/>
	<path fill-rule="evenodd" clip-rule="evenodd" fill="#813779" d="M1129.675-12.014c2.012,7.985,4.022,15.972,6.034,23.957
		c-9.345-7.986-18.689-15.972-28.034-23.957C1115.008-12.014,1122.342-12.014,1129.675-12.014z"/>
	<path fill-rule="evenodd" clip-rule="evenodd" fill="#9659AC" d="M3483.675,2111.986c-4.67,0.004-9.339,0.007-14.009,0.011
		c4.67-12.004,9.339-24.007,14.009-36.011C3483.675,2087.986,3483.675,2099.986,3483.675,2111.986z"/>
	<path fill-rule="evenodd" clip-rule="evenodd" fill="#643065" d="M1795.61,9.936c0.013-0.667,0.025-1.333,0.039-2
		c0.559-7.088-2.646-15.313,6.025-19.95c6,0,12,0,18,0c-7.344,7.324-14.688,14.648-22.031,21.973
		c-0.605,1.032-1.248,1.003-1.921,0.065L1795.61,9.936z"/>
	<path fill-rule="evenodd" clip-rule="evenodd" fill="#522352" d="M1801.675-12.014c-2.009,6.65-4.017,13.301-6.025,19.951
		c-1.992-6.651-3.983-13.301-5.975-19.951C1793.675-12.014,1797.675-12.014,1801.675-12.014z"/>
	<path fill-rule="evenodd" clip-rule="evenodd" fill="#9B6CAA" d="M3141.623,1360.06c-29.648,124.668-59.325,249.33-88.936,374.008
		c-17.765,74.805-35.412,149.639-53.14,224.452c-4.525,19.099-9.158,38.171-13.741,57.256c-5.528,3.463-9.394-0.23-13.29-3.229
		c-44.301-34.1-88.28-68.614-132.437-102.901c-40.744-31.638-81.455-63.318-122.182-94.98
		c-49.137-38.2-98.149-76.561-147.379-114.642c-6.776-5.242-13.073-11.12-18.603-17.755c-0.167-0.994-0.107-1.971,0.154-2.938
		c6.148-8.284,15.107-13.002,23.818-17.644c56.719-30.219,112.976-61.288,169.367-92.102
		c69.248-37.838,138.578-75.524,207.813-113.387c57.258-31.312,114.44-62.775,172.107-93.335c5.042-2.672,10.215-6.803,16.611-3.046
		L3141.623,1360.06z"/>
	<path fill-rule="evenodd" clip-rule="evenodd" fill="#AC79BD" d="M2553.53,1681.776c20.148,15.279,40.456,30.353,60.417,45.872
		c94.366,73.366,188.583,146.923,282.973,220.258c29.437,22.871,59.246,45.263,88.886,67.871c1.259,0.037,2.518,0.076,3.775,0.113
		c0.707,0.667,1.416,1.335,2.125,2.003c-0.539,2.147-2.326,2.902-4.092,3.678c-31.229,28.9-62.741,57.498-94.313,86.017
		c-39.002,35.229-77.223,71.33-117.048,105.647c-8.948,7.711-15.513,18.704-28.568,20.767c-0.733,0.637-1.468,1.274-2.203,1.91
		c-0.607,0.026-1.213,0.052-1.818,0.074c-0.663-0.001-1.326-0.005-1.989-0.011c-3.344-3.784-5.6-8.098-7.233-12.918
		c-21.261-62.715-43.01-125.262-64.617-187.857c-33.55-97.196-67.245-194.341-100.604-291.604
		c-5.391-15.718-12.145-30.992-14.655-47.594c-0.562-3.709-3.717-6.279-4.558-9.901
		C2550.138,1683.806,2550.547,1681.739,2553.53,1681.776z"/>
	<path fill-rule="evenodd" clip-rule="evenodd" fill="#954288" d="M927.713,375.99c0.664,1.341,1.328,2.683,1.992,4.023
		c3.857,2.382,3.724,5.962,2.836,9.701c-5.295,22.328-10.07,44.781-16.024,66.954c-0.909,3.387-2.886,5.924-5.064,8.438
		c-0.887,0.695-1.885,1.156-2.982,1.383c-18.932-0.573-36.183-8.165-53.886-13.507C733.289,416.38,611.926,380.011,490.532,343.74
		c-6.054-1.809-12.069-3.756-18.085-5.682c-3.72-1.19-7.805-2.633-6.771-8.067c1.332-0.008,2.665-0.016,3.998-0.023
		c52.479,5.894,104.946,11.901,157.442,17.646c45.565,4.985,91.178,9.542,136.744,14.525c45.563,4.983,91.094,10.261,136.64,15.408
		c6.271,0.709,12.538,1.876,18.813,1.913C922.106,379.477,924.913,377.216,927.713,375.99z"/>
	<path fill-rule="evenodd" clip-rule="evenodd" fill="#A961A9" d="M223.658,2088.039c2.011-0.032,4.021-0.064,6.032-0.097
		c9.387-23.687,25.295-43.515,38.91-64.621c44.489-68.971,89.268-137.756,133.647-206.799c2.159-3.359,4.374-6.699,8.07-8.634
		c8.129-2.657,13.174,2.372,18.188,7.364c34.433,34.278,68.299,69.14,103.246,102.882c50.742,48.991,100.398,99.065,150.564,148.631
		c7.826,7.733,13.629,17.227,22.183,24.232c0.707,0.655,1.253,1.426,1.664,2.295c0.229,0.967,0.07,1.864-0.478,2.693
		c-0.685,0.007-1.37,0.014-2.056,0.021c-58.541-0.693-117.081-1.37-175.62-2.086c-52.549-0.642-105.098-1.308-157.646-1.998
		c-46.224-0.607-92.446-1.262-138.67-1.895C229.016,2089.366,226.337,2088.702,223.658,2088.039z"/>
	<path fill-rule="evenodd" clip-rule="evenodd" fill="#924186" d="M465.677,329.991c15.79,5.115,31.496,10.509,47.385,15.294
		c56.707,17.08,113.492,33.897,170.216,50.918c73.296,21.994,146.562,44.087,219.836,66.151c1.589,0.479,3.126,1.133,4.687,1.705
		c-0.313,9.663-7.349,15.137-13.663,20.598c-22.886,19.797-45.237,40.189-67.866,60.271c-34.816,30.896-69.266,62.2-104.199,92.969
		c-21.204,18.678-42.081,37.737-63.152,56.573c-29.749,26.593-59.457,53.231-89.277,79.745c-21.37,19-42.546,38.229-63.881,57.272
		c-28.525,25.463-56.645,51.388-85.737,76.209c-6.57,5.605-11.639,12.945-19.438,17.088c-4.112,2.185-8.615,4.975-11.387-1.914
		c-3.285-13.407,0.615-26.424,2.226-39.48c7.895-64.017,15.429-128.076,23.38-192.085c7.787-62.69,15.332-125.41,23.114-188.102
		c5.733-46.188,11.199-92.415,16.698-138.635c0.955-8.03,3.732-15.459,5.83-23.124c0.849-3.103,3.126-5.986,1.247-9.438
		c-3.346-0.011-6.691-0.021-10.037-0.03C456.329,331.314,461.003,330.652,465.677,329.991z"/>
	<path fill-rule="evenodd" clip-rule="evenodd" fill="#883B7E" d="M461.693,332.005c-0.072,6.483,0.472,13.042-0.312,19.438
		c-8.36,68.226-16.989,136.418-25.425,204.635c-7.417,59.978-14.688,119.973-22.011,179.961
		c-6.64,54.383-13.304,108.763-19.855,163.155c-1.071,8.894-1.617,17.851-2.406,26.777c-0.651,0.713-1.339,0.748-2.06,0.106
		c-13.68-14.937-27.463-29.778-41.009-44.834c-13.779-15.315-27.326-30.841-40.971-46.277
		c-22.667-25.646-45.331-51.295-67.996-76.942c7.813-14.301,15.865-28.479,23.395-42.928
		c20.778-39.876,41.256-79.908,62.003-119.801c32.422-62.344,64.929-124.644,97.48-186.921
		c11.414-21.837,23.111-43.526,34.563-65.343C458.937,339.519,460.175,335.689,461.693,332.005z"/>
	<path fill-rule="evenodd" clip-rule="evenodd" fill="#81548B" d="M3253.718,1019.992c0.666,0.675,1.332,1.35,1.999,2.025
		c0.001,0,0.038,0.14,0.038,0.14c-4.156,6.351-9.989,10.173-16.998,13.201c-73.085,31.58-146.163,63.178-219.152,94.977
		c-51.002,22.22-102.158,44.089-153.153,66.323c-23.208,10.119-46.578,19.863-69.675,30.233c-6.709,3.013-13.75,4.662-20.962,5.87
		c-1.717-0.456-3.104-1.344-4.07-2.856c-7.8-22.591-7.746-46.408-10.655-69.72c-6.087-48.779-11.443-97.65-17.153-146.479
		c-5.556-47.507-10.9-95.039-16.693-142.519c-0.567-4.654,1.431-9.244,0.048-13.864c-0.408-1.806-0.134-3.506,0.81-5.094
		c0.692-0.932,1.6-1.587,2.685-1.968c13.924,0.214,26.652,5.668,39.541,9.867c85.532,27.871,171.322,54.94,256.893,82.692
		c68.77,22.303,137.686,44.158,206.522,66.258C3241.166,1011.463,3247.96,1014.702,3253.718,1019.992z"/>
	<path fill-rule="evenodd" clip-rule="evenodd" fill="#905A98" d="M3253.718,1019.992c-3.867-0.955-7.809-1.678-11.591-2.896
		c-85.915-27.693-171.799-55.486-257.719-83.164c-72.284-23.285-144.618-46.417-216.904-69.697
		c-12.011-3.868-23.89-8.147-35.829-12.237c-1.623-1.699-1.436-3.525-0.397-5.413c19.614-15.27,37.472-32.604,56.566-48.514
		c30.64-25.527,60.622-51.838,91.013-77.668c30.383-25.822,60.724-51.705,90.696-78.01c4.257-3.734,9.049-6.775,13.104-10.759
		c3.159-3.102,6.927-3.697,10.984-1.691c0,0,0.047,0.098,0.047,0.099c9.661,15.465,18.921,31.197,29.061,46.341
		c28.87,43.121,58.105,85.997,87.184,128.979c45.855,67.778,91.715,135.554,137.51,203.374
		C3249.837,1012.281,3251.64,1016.23,3253.718,1019.992z"/>
	<path fill-rule="evenodd" clip-rule="evenodd" fill="#BB6FBC" d="M2879.664,49.981c0.003-2.665,0.007-5.329,0.011-7.994
		c6.273-2.569,8.271,2.393,10.592,6.265c11.971,19.976,24.44,39.646,36.444,59.599c20.239,33.642,40.877,67.041,61.14,100.668
		c29.356,48.718,59.444,96.992,88.594,145.837c6.467,10.836,10.532,22.906,17.269,33.604c1.978,5.322,3.954,10.644,5.931,15.965
		c0-0.001,0.031,0.065,0.031,0.065c-10.867,13.163-26.959,17.867-41.463,24.778c-21.256,10.13-42.516,20.277-63.752,30.447
		c-16.16,7.738-32.674,14.729-48.584,22.988c-3.563,1.85-7.244,3.439-11.442,1.977c-1.049-0.484-1.899-1.181-2.595-2.093
		c-0.569-1.027-0.95-2.109-1.16-3.264c-6.294-20.18-6.962-41.256-9.591-61.975c-7.789-61.368-15.621-122.731-23.341-184.108
		c-7.223-57.421-14.307-114.858-21.605-172.27C2875.608,56.271,2875.458,52.464,2879.664,49.981z"/>
	<path fill-rule="evenodd" clip-rule="evenodd" fill="#BE6FBF" d="M3093.713,387.959c-5.012-6.829-10.526-13.349-14.953-20.538
		c-29.509-47.934-58.89-95.947-88.109-144.059c-35.096-57.785-69.976-115.701-105.01-173.523c-1.694-2.796-3.964-5.243-5.966-7.853
		c3.899-1.992,7.599-4.989,11.73-5.808c22.03-4.362,44.169-8.181,66.27-12.187c1.316,0.013,2.632,0.025,3.947,0.038
		c13.185,36.268,26.3,72.561,39.572,108.796c18.081,49.36,36.295,98.672,54.427,148.014c11.591,31.541,23.175,63.084,34.657,94.665
		C3091.745,379.54,3092.583,383.802,3093.713,387.959z"/>
	<path fill-rule="evenodd" clip-rule="evenodd" fill="#C083D4" d="M2985.644,2018.052c2.021-0.053,4.041-0.104,6.063-0.158
		c58.424,11.626,116.844,23.271,175.271,34.876c99.555,19.773,199.113,39.521,298.669,59.281c-2.974,2.468-5.615,5.582-8.971,7.306
		c-61.319,31.497-122.748,62.781-184.103,94.207c-48.311,24.745-96.552,49.623-144.823,74.441c-0.685-1.345-1.37-2.688-2.055-4.033
		c-5.411-1.278-8.06-5.33-10.423-9.925c-27.982-54.419-57.088-108.248-85.379-162.507c-14.146-27.128-28.724-54.03-42.662-81.271
		C2985.147,2026.197,2983.609,2022.466,2985.644,2018.052z"/>
	<path fill-rule="evenodd" clip-rule="evenodd" fill="#642D61" d="M9.675,1411.986c-0.001-0.667-0.002-1.333-0.003-2
		c4.522-19.061,19.486-31.359,30.702-45.809c38.157-49.162,76.686-98.041,115.244-146.895
		c50.516-64.005,100.531-128.403,151.127-192.346c20.237-25.576,40.438-51.188,60.31-77.051
		c5.367-6.985,11.992-12.355,18.607-17.882c0.664-0.018,1.327-0.029,1.99-0.035c9.628-1.915,8.829,6.559,9.802,11.256
		c2.085,10.065,3.848,20.24,5.601,30.395c9.161,53.059,18.916,106.013,28.162,159.055c12.729,73.021,25.925,145.96,38.652,218.982
		c12.101,69.429,24.781,138.757,36.831,208.195c0.64,3.69,0.028,7.304,0.388,10.833c0.749,7.365-3.221,8.553-9.014,8.29
		c-6.842,0.435-13.144-1.702-19.481-3.813c-72.013-23.988-143.86-48.485-216.071-71.863
		c-78.86-25.531-157.327-52.232-236.042-78.191c-5.629-1.856-11.724-3.096-14.764-9.177
		C11.035,1413.282,10.355,1412.634,9.675,1411.986z"/>
	<path fill-rule="evenodd" clip-rule="evenodd" fill="#793671" d="M389.625,926.079c0.687-0.035,1.373-0.07,2.06-0.106
		c18.295-15.962,36.681-31.82,54.863-47.909c29.153-25.794,58.208-51.699,87.235-77.636c21.339-19.068,42.525-38.308,63.855-57.386
		c29.263-26.172,58.618-52.24,87.896-78.396c20.845-18.621,41.597-37.347,62.447-55.962c29.285-26.146,58.77-52.072,87.896-78.395
		c24.178-21.851,47.961-44.139,71.921-66.231c0.632-0.006,1.262-0.023,1.892-0.051c2.147-0.481,3,0.877,3.632,2.548
		c0.609,4.773-0.993,9.229-2.131,13.724c-23.372,92.353-45.011,185.14-68.939,277.348c-19.913,76.73-37.629,153.998-57.476,230.74
		c-2.336,9.033-4.82,18.037-8.016,26.746c-3.051,8.313-4.607,16.558-3.679,25.323c-1.462,5.019-4.068,9.355-7.779,13.012
		c-7.023,3.945-13.595,0.696-20.145-1.465c-85.981-28.367-171.469-58.203-257.48-86.485c-27.507-9.045-55.019-18.084-82.361-27.635
		c-6.201-2.166-11.423-4.994-15.648-9.861C389.655,927.36,389.641,926.719,389.625,926.079z"/>
	<path fill-rule="evenodd" clip-rule="evenodd" fill="#662E61" d="M389.668,928.001c59.338,19.664,118.715,39.21,178.002,59.024
		c60.872,20.344,121.65,40.97,182.495,61.396c4.382,1.472,8.971,2.331,13.463,3.475c0.737,0.741,1.147,1.633,1.231,2.673
		c-1.338,6.188-3.149,12.26-6.05,17.878c-14.053,27.216-26.353,55.278-40.204,82.593c-27.403,54.039-53.515,108.719-80.305,163.061
		c-33.703,68.363-66.826,137.014-100.821,205.237c-8.587,17.234-15.011,35.57-26.499,51.316c-1.203,1.649-2.167,3.338-4.321,3.853
		c-3.353,0.055-6.979,0.551-6.994-4.518c6.521-0.478,3.836-4.836,3.271-8.075c-6.105-35.06-12.316-70.102-18.424-105.161
		c-7.761-44.549-15.299-89.138-23.215-133.658c-8.32-46.799-17.141-93.508-25.438-140.311
		c-8.355-47.133-16.259-94.346-24.51-141.497c-6.13-35.036-12.413-70.047-18.895-105.02c-0.668-3.605-3.158-6.874-4.804-10.299
		C388.323,929.313,388.996,928.657,389.668,928.001z"/>
	<path fill-rule="evenodd" clip-rule="evenodd" fill="#5F295C" d="M385.661,930.004c-10.247,13.87-20.18,27.986-30.8,41.565
		c-35.26,45.088-70.784,89.969-106.175,134.954c-46.09,58.584-92.168,117.177-138.214,175.796
		c-31.864,40.564-63.658,81.185-95.511,121.758c-1.629,2.074-3.521,3.943-5.29,5.908c0-11.223,0.06-22.445-0.011-33.668
		c-0.652-103.23-1.305-206.461-2.074-309.69c-0.032-4.249-1.218-8.489-1.866-12.734c5.169-1.142,10.485-1.837,15.485-3.49
		c118.63-39.228,237.227-78.562,355.834-117.859C379.882,931.602,382.786,930.847,385.661,930.004z"/>
	<path fill-rule="evenodd" clip-rule="evenodd" fill="#672E62" d="M1691.642,281.998c0.678-0.004,1.355-0.008,2.033-0.012
		c0.902,0.627,1.627,1.418,2.174,2.371c0.801,2.608,1.434,5.229,0.568,7.951c-6.367,10.615-8.72,22.812-13.047,34.218
		c-42.365,111.686-85.434,223.104-127.362,334.957c-2.696,7.194-5.833,14.118-11.474,19.599c-3.966,1.872-7.274,0.78-10.152-2.215
		c-1.551-3.891-3.411-7.331-6.484-10.633c-31.518-33.869-62.26-68.444-92.973-103.045c-17.447-19.654-35.049-39.18-52.719-58.63
		c-38.491-42.37-76.387-85.275-114.942-127.585c-31.378-34.433-62.117-69.444-93.77-103.629c-3.494-3.773-6.478-7.781-3.813-13.355
		c39.866,1.369,79.737,2.605,119.597,4.152c27.554,1.068,55.09,2.604,82.637,3.861c45.145,2.062,90.291,4.061,135.437,6.097
		c29.211,1.317,58.42,2.659,87.63,3.98c29.209,1.322,58.417,2.703,87.634,3.843C1685.594,284.04,1688.631,282.675,1691.642,281.998z
		"/>
	<path fill-rule="evenodd" clip-rule="evenodd" fill="#703269" d="M1169.681,261.99c8.531,10.177,16.756,20.63,25.646,30.482
		c45.438,50.357,91.113,100.502,136.578,150.836c35.655,39.474,71.122,79.118,106.682,118.678
		c29.55,32.875,59.129,65.723,88.646,98.627c3.327,3.709,6.45,7.622,9.364,11.658c0.483,0.671-0.598,2.471-0.956,3.749
		c-4.701,5.57-10.013,2.074-14.67,0.437c-26.701-9.391-53.354-18.929-79.943-28.633c-54.743-19.98-109.653-39.496-164.451-59.322
		c-75.155-27.191-150.349-54.273-225.584-81.24c-6.232-2.234-11.147-7.48-18.18-7.835c-2.197-0.38-3.717-1.946-5.477-3.097
		c-0.83-0.687-1.444-1.533-1.865-2.518c-0.304-0.986-0.404-2.004-0.33-3.023c2.954-11.162,10.229-20.072,16.061-29.662
		c36.308-59.702,72.107-119.71,108.252-179.511c3.978-6.581,9.098-12.222,13.413-18.497c0.587-0.774,1.307-1.391,2.18-1.823
		c0.985-0.206,1.863-0.002,2.617,0.682C1168.335,261.981,1169.008,261.986,1169.681,261.99z"/>
	<path fill-rule="evenodd" clip-rule="evenodd" fill="#843B7A" d="M1167.663,261.977c-0.646,0.033-1.293,0.054-1.939,0.06
		c-4.53-4.01-4.426-8.03-0.029-12.062c0.665,3.343,1.331,6.687,1.996,10.029C1167.68,260.663,1167.67,261.32,1167.663,261.977z"/>
	<path fill-rule="evenodd" clip-rule="evenodd" fill="#855B93" d="M1839.718,2381.943c-0.65-0.018-1.301-0.038-1.951-0.062
		c-8.54-9.604-7.106-21.979-8.458-33.255c-9.391-78.336-18.772-156.675-27.969-235.034c-8.965-76.378-18.174-152.729-27.041-229.119
		c-0.593-5.101-0.118-9.928,0.814-14.818c0.327-1.064,0.901-1.997,1.685-2.771c7.05-2.835,13.18,0.982,18.74,3.859
		c34.314,17.754,68.673,35.434,102.689,53.758c16.425,8.848,33.046,17.334,49.607,25.897
		c63.914,33.049,127.404,66.905,191.262,100.062c55.869,29.008,111.534,58.414,167.313,87.602
		c56.072,29.342,111.964,59.027,168.186,88.086c8.278,4.279,16.357,8.955,24.578,13.363c4.105,2.202,9.385,4.091,8.551,10.566
		c-0.008,0.636-0.023,1.272-0.049,1.908c-26.82,4.877-53.693,9.477-80.45,14.678c-110.379,21.458-220.713,43.146-331.081,64.655
		c-84.248,16.419-168.524,32.692-252.779,49.071C1842.097,2380.637,1840.931,2381.414,1839.718,2381.943z"/>
	<path fill-rule="evenodd" clip-rule="evenodd" fill="#9C60A2" d="M2933.826,481.957c0.608,0.021,1.216,0.046,1.823,0.076
		c3.926,1.785,5.77,5.135,7.301,8.983c16.074,40.404,31.014,81.249,47.168,121.62c2.009,5.018,0.038,10.735,3.498,15.279
		c0.009,0.676,0.018,1.352,0.025,2.027c-11.882,9.579-23.957,18.93-35.606,28.784c-30.705,25.975-61.264,52.121-91.806,78.287
		c-25.496,21.843-50.836,43.868-76.341,65.701c-17.424,14.915-34.997,29.657-52.576,44.39c-0.859,0.721-2.416,0.608-3.648,0.884
		c-3.3-3.799-1.61-7.501,0.367-11.063c30.313-54.632,60.276-109.456,90.438-164.17c20.375-36.96,40.788-73.901,60.887-111.014
		c12.186-22.501,24.74-44.8,36.926-67.303c2.512-4.638,5.389-9.217,10.109-12.131
		C2932.87,482.191,2933.349,482.074,2933.826,481.957z"/>
	<path fill-rule="evenodd" clip-rule="evenodd" fill="#A965AE" d="M2993.616,627.916c-2.229-3.064-5.234-5.825-6.566-9.24
		c-15.893-40.743-31.573-81.569-47.194-122.417c-1.761-4.605-2.82-9.479-4.205-14.227c54.675-26.014,109.35-52.027,164.024-78.042
		c-8.254,17.819-16.291,35.743-24.806,53.438c-21.526,44.736-43.342,89.334-64.873,134.069
		C3004.225,603.487,2999.06,615.768,2993.616,627.916z"/>
	<path fill-rule="evenodd" clip-rule="evenodd" fill="#7B417A" d="M2307.692,215.961c0.688,6.698,1.375,13.396,2.063,20.095
		c5.636,8.037,8.502,17.126,10.77,26.593c19.745,82.427,40.196,164.681,60.692,246.923c2.412,9.68,4.337,19.464,6.606,29.173
		c0.814,3.486,1.99,7.135,0.045,10.694c-7.143,5.842-14.156,1.298-20.299-1.406c-19.796-8.714-39.351-18-58.924-27.22
		c-79.805-37.589-159.881-74.596-239.747-112.05c-46.717-21.908-93.575-43.519-140.157-65.719
		c-22.236-10.598-44.841-20.42-66.861-31.482c-4.269-2.144-8.681-4.149-6.956-10.349c2.771-4.513,7.338-5.315,12.024-5.968
		c87.252-12.147,174.535-24.067,261.814-36.021c50.722-6.946,101.414-14.099,152.149-20.946c8.993-1.214,17.825-1.154,26.752-0.289
		C2307.673,230.647,2307.683,223.304,2307.692,215.961z"/>
	<path fill-rule="evenodd" clip-rule="evenodd" fill="#753A72" d="M2307.664,237.99c-15.655,2.665-31.261,5.677-46.976,7.93
		c-46.02,6.598-92.074,12.947-138.129,19.295c-50.658,6.983-101.33,13.87-151.999,20.775c-35.205,4.798-70.424,9.498-105.609,14.432
		c-3.178,0.446-6.159,2.284-9.232,3.476c-1.661,1.021-3.268,0.698-4.852-0.191c-0.894-0.727-1.608-1.602-2.143-2.62
		c-6.519-10.542-7.055-22.774-9.279-34.425c-14.464-75.764-29.066-151.501-43.571-227.256c-1.617-8.447-4.039-16.905-0.217-25.407
		c0.021-1.325,0.043-2.649,0.064-3.974c0.642-0.024,1.282-0.046,1.923-0.065c30.898,13.97,61.764,28.017,92.706,41.889
		c40.36,18.095,80.778,36.063,121.181,54.064c44.655,19.897,89.322,39.769,133.981,59.657c40.71,18.129,81.422,36.252,122.12,54.405
		C2280.996,225.935,2294.321,231.983,2307.664,237.99z"/>
	<path fill-rule="evenodd" clip-rule="evenodd" fill="#8D3F82" d="M1165.694,249.975c0.009,4.021,0.019,8.04,0.029,12.062
		l-0.003-0.01c-5.674,6.241-12.609,10.582-20.072,14.485c-65.421,34.215-131.721,66.685-197.775,99.638
		c-4.894,2.442-10.083,7.745-16.192,1.85c35.081-61.646,70.231-123.253,105.222-184.95c29.899-52.72,59.714-105.487,89.296-158.386
		c3.969-7.099,6.35-15.086,9.466-22.661c0.683,0.655,1.365,1.311,2.048,1.965c2.918,25.687,5.746,51.383,8.774,77.056
		c4.35,36.872,8.835,73.728,13.284,110.587C1161.717,217.735,1163.718,233.854,1165.694,249.975z"/>
	<path fill-rule="evenodd" clip-rule="evenodd" fill="#843B7A" d="M931.681,378c3.976-1.659,8.064-3.093,11.91-5.012
		c52.972-26.425,105.943-52.854,158.839-79.43c17.522-8.804,34.804-18.085,52.262-27.019c3.523-1.803,7.345-3.023,11.028-4.513
		c-8.378,14.702-16.463,29.58-25.186,44.074c-36.698,60.983-73.586,121.854-110.423,182.754c-0.683,1.13-1.605,2.114-2.416,3.167
		c-3.901,4.04-8.47,4.363-13.735,3.104c-31.313-7.487-62.386-15.949-93.778-23.117c-3.501-0.8-7.177-1.912-8.479-6.054
		c-0.671-0.649-1.342-1.299-2.012-1.948c6.671-27.998,13.343-55.996,20.015-83.994C930.364,379.342,931.022,378.671,931.681,378z"/>
	<path fill-rule="evenodd" clip-rule="evenodd" fill="#662E62" d="M1795.657,13.998c6.003,30.334,12.104,60.648,17.99,91.005
		c12.73,65.652,25.35,131.326,38.016,196.991c-2.748,4.051-6.822,3.356-10.802,3.032c-29.447-2.399-58.767-6.041-88.144-9.127
		c-15.514-1.63-31.037-3.166-46.528-5.026c-5.28-0.635-9.672-2.006-12.467-6.782c-0.016-0.701-0.032-1.403-0.048-2.104
		c9.699-25.43,19.572-50.796,29.064-76.303c22.595-60.711,44.982-121.498,67.569-182.211
		C1791.558,20.116,1793.851,17.147,1795.657,13.998z"/>
	<path fill-rule="evenodd" clip-rule="evenodd" fill="#AE64AE" d="M2879.664,49.981c5.774,45.148,11.604,90.29,17.31,135.447
		c5.663,44.831,11.159,89.683,16.806,134.515c5.688,45.16,11.499,90.305,17.181,135.465c1.036,8.232,1.713,16.51,2.555,24.766
		c-2.724,3.005-5.848,1.985-9.225,1.302c-13.841-2.801-26.572-8.796-39.57-13.862c-134.417-52.396-268.926-104.557-403.371-156.879
		c-51.543-20.06-103.165-39.914-154.582-60.29c-6.104-2.419-14.003-3.402-14.963-12.364c53.093-18.611,106.201-37.178,159.273-55.85
		c38.313-13.479,76.561-27.142,114.863-40.647c94.506-33.321,189.029-66.593,283.53-99.928c2.813-0.992,5.457-2.461,8.18-3.708
		C2878.321,41.958,2878.993,45.969,2879.664,49.981z"/>
	<path fill-rule="evenodd" clip-rule="evenodd" fill="#935494" d="M2311.804,238.08c11.565,5.025,22.979,10.444,34.721,15.014
		c126.014,49.04,252.092,97.914,378.126,146.901c65.812,25.581,131.562,51.316,197.369,76.907c3.697,1.438,7.659,2.194,11.496,3.271
		c0.091,0.598,0.194,1.192,0.31,1.784c0.001,0-0.401,0.049-0.401,0.049c-7.674,7.323-17.813,7.025-27.207,8.169
		c-82.194,10.014-164.306,20.698-246.439,31.175c-41.888,5.344-83.772,10.83-125.628,16.478
		c-42.837,5.779-85.822,10.454-128.629,16.51c-5.299,0.75-10.628-0.683-15.93,0.174c-1.201-0.146-2.301-0.562-3.299-1.246
		c-1.002-0.876-1.257-1.932-0.764-3.168c-21.639-88.145-43.34-176.274-64.859-264.447c-4.012-16.44-7.296-33.059-10.915-49.594
		c0.645-0.025,1.289-0.044,1.933-0.053C2311.726,236.695,2311.765,237.387,2311.804,238.08z"/>
	<path fill-rule="evenodd" clip-rule="evenodd" fill="#7C548A" d="M2774.017,1229.998c1.208-0.006,2.417-0.012,3.626-0.019
		c21.802,0.763,40.953,10.992,60.953,17.77c35.331,11.973,70.486,24.507,105.71,36.813c61.963,21.648,123.885,43.414,185.955,64.753
		c4.782,1.644,9.547,3.229,11.422,8.665c0.036,0.613,0.071,1.227,0.105,1.84c-17.05,8.977-34.195,17.778-51.131,26.968
		c-41.814,22.691-83.534,45.558-125.29,68.358c-56.354,30.772-112.691,61.579-169.065,92.318
		c-46.736,25.484-93.54,50.844-140.265,76.35c-34.163,18.648-68.244,37.446-102.362,56.177c-0.387-0.323-0.773-0.647-1.162-0.97
		c-0.537-0.873-0.817-1.822-0.843-2.843c-0.289-5.26,2.293-9.618,4.522-14.058c43.164-85.937,85.108-172.477,128.004-258.547
		c21.666-43.474,42.916-87.164,64.608-130.631c6.819-13.664,12.864-27.765,21.938-40.204c0.462-0.888,1.083-1.645,1.864-2.27
		C2773.077,1230.312,2773.547,1230.155,2774.017,1229.998z"/>
	<path fill-rule="evenodd" clip-rule="evenodd" fill="#70497D" d="M3141.683,1357.98c-42.156-14.443-84.348-28.784-126.456-43.364
		c-32.367-11.207-64.611-22.767-96.942-34.076c-43.948-15.375-87.937-30.634-131.872-46.044c-3.073-1.078-5.853-2.991-8.769-4.516
		c58.322-25.326,116.652-50.636,174.967-75.981c59.229-25.744,118.441-51.529,177.665-77.289
		c41.823-18.191,83.651-36.371,125.479-54.555c-3.74,12.078-7.198,24.25-11.267,36.215c-29.164,85.78-58.426,171.526-87.728,257.26
		C3151.913,1329.807,3146.718,1343.867,3141.683,1357.98z"/>
	<path fill-rule="evenodd" clip-rule="evenodd" fill="#CE93E2" d="M2985.644,2018.052c17.634,33.224,35.314,66.424,52.893,99.678
		c28.471,53.857,56.877,107.748,85.286,161.638c0.769,1.459,1.255,3.066,1.873,4.604c-8.481-0.063-17.082,0.772-25.425-0.338
		c-50.777-6.758-101.479-14.094-152.242-20.972c-52.406-7.101-104.874-13.753-157.271-20.929c-14.44-1.978-28.72-5.123-43.072-7.732
		c15.832-14.706,31.569-29.515,47.521-44.091c19.157-17.508,38.487-34.828,57.759-52.211
		C2897.186,2097.812,2941.416,2057.934,2985.644,2018.052z"/>
	<path fill-rule="evenodd" clip-rule="evenodd" fill="#905694" d="M705.686,2095.985c-0.038-0.579-0.07-1.158-0.097-1.737
		c0.022-0.481,0.045-0.962,0.067-1.442c4.502-6.658,10.5-11.604,17.135-16.108c85.358-57.96,170.383-116.408,255.66-174.488
		c53.625-36.521,107.142-73.204,160.703-109.818c45.317-30.979,90.681-61.894,135.871-93.061c5.065-3.494,9.71-8.328,16.636-8.319
		c5.396,1.091,5.63,4.376,4.394,9.005c-2.396,8.971-8.349,15.926-13.087,23.464c-56.54,89.961-112.698,180.161-169.193,270.149
		c-52.605,83.79-104.954,167.741-157.325,251.679c-2.528,4.053-5.584,7.421-9.404,10.183c-0.455,0.169-0.911,0.338-1.366,0.507
		c-0.664-0.006-1.328-0.009-1.992-0.011c-70.471-47.435-140.937-94.874-211.414-142.298
		C723.439,2107.744,714.55,2101.884,705.686,2095.985z"/>
	<path fill-rule="evenodd" clip-rule="evenodd" fill="#985497" d="M411.726,1810.046c-17.879,28.097-35.598,56.297-53.67,84.269
		c-39.587,61.272-79.317,122.453-119.131,183.579c-2.449,3.76-6.127,6.718-9.234,10.049c-7.721-22.661-15.222-45.399-23.208-67.966
		c-16.324-46.121-32.813-92.185-49.415-138.206c-15.354-42.563-30.872-85.069-46.582-127.503c-1.171-3.163-4.468-5.539-6.776-8.281
		c0.665-1.991,1.33-3.983,1.994-5.976c0.608-0.989,1.444-1.716,2.505-2.183c28.786,0.977,56.09,9.99,83.936,15.879
		c67.998,14.378,135.743,29.931,203.62,44.876c6.072,1.337,13.74,0.67,16.999,8.305
		C412.805,1808.069,412.457,1809.121,411.726,1810.046z"/>
	<path fill-rule="evenodd" clip-rule="evenodd" fill="#915799" d="M1301.61,2463.916c-0.64,0.032-1.28,0.061-1.92,0.084
		c-19.938-11.969-39.791-24.078-59.834-35.866c-19.475-11.453-39.184-22.506-58.715-33.862
		c-42.511-24.717-84.966-49.528-127.459-74.275c-33.884-19.732-67.801-39.408-101.665-59.174c-2.276-1.329-4.233-3.204-6.339-4.825
		l0.005-0.032c3.096-2.78,6.5-4.24,10.878-3.82c40.042,3.836,80.053,7.972,120.079,11.949c36.717,3.648,73.426,7.378,110.144,11.016
		c48.297,4.784,96.567,9.845,144.893,14.355c3.834,0.358,6.689,2.851,10.21,3.744c1.105,0.4,2.081,1.021,2.911,1.844
		c1.938,5.828,1.188,11.736-0.245,17.439c-11.717,46.634-23.491,93.252-35.846,139.723
		C1307.461,2456.902,1305.127,2460.712,1301.61,2463.916z"/>
	<path fill-rule="evenodd" clip-rule="evenodd" fill="#A775B8" d="M2551.837,1685.953c2.028,3.264,4.758,6.285,5.982,9.827
		c23.162,67.002,46.094,134.084,69.184,201.111c25.257,73.317,50.623,146.597,75.947,219.891
		c12.282,35.546,24.645,71.063,36.767,106.664c1.342,3.941,1.338,8.342,1.958,12.529c-28.406,1.874-56.812,3.754-85.218,5.62
		c-10.901,0.717-21.802,1.47-32.71,2.09c-37.359,2.126-74.722,4.2-112.083,6.295c-2.504-2.602-2.981-5.845-2.952-9.257
		c0.191-22.274,0.982-44.515,2.844-66.728c2.723-32.496,4.882-65.036,7.298-97.557c2.366-31.855,4.722-63.712,7.139-95.563
		c2.317-30.526,4.45-61.068,6.728-91.599c2.524-33.846,4.941-67.698,7.474-101.543c2.21-29.537,3.999-59.105,6.714-88.604
		C2547.345,1694.364,2546.106,1688.806,2551.837,1685.953z"/>
	<path fill-rule="evenodd" clip-rule="evenodd" fill="#8C619B" d="M2551.837,1685.953c-2.588,36.473-5.205,72.943-7.753,109.42
		c-1.528,21.891-2.839,43.797-4.446,65.682c-2.388,32.486-5.004,64.955-7.422,97.439c-1.605,21.552-2.967,43.121-4.555,64.674
		c-2.443,33.148-4.992,66.29-7.489,99.436c-1.374,18.23-2.866,36.455-4.07,54.697c-1.599,24.219-2.969,48.452-4.438,72.68
		c-0.619,0.156-1.228,0.35-1.823,0.581c0,0.005-0.209-0.765-0.209-0.765c-5.039-6.065-7.305-13.158-8.644-20.871
		c-14.527-83.691-29.95-167.223-44.966-250.827c-16.606-92.458-33.439-184.876-49.796-277.379
		c-1.011-5.714-3.263-11.851,2.104-16.913c7.192-4.318,15.138-4.669,23.202-4.681c34.948-0.049,69.839-1.894,104.741-3.423
		c6.026-0.264,11.958,0.406,17.273,3.702l0.127,0.586c-0.042,0.597-0.09,1.193-0.144,1.787
		C2552.966,1683.167,2552.401,1684.56,2551.837,1685.953z"/>
	<path fill-rule="evenodd" clip-rule="evenodd" fill="#7E568B" d="M2407.735,1686.376c5.22,27.083,10.674,54.124,15.611,81.259
		c10.539,57.91,20.808,115.87,31.191,173.81c17.13,95.581,34.267,191.161,51.388,286.744c1.289,7.195,2.474,14.408,3.706,21.609
		c-0.633,0.118-1.269,0.211-1.908,0.278c-11.608-6.487-23.07-13.258-34.853-19.413c-51.372-26.838-102.874-53.428-154.261-80.238
		c-56.992-29.735-113.922-59.594-170.858-89.436c-39.234-20.564-78.419-41.226-117.655-61.786
		c-57.53-30.146-115.094-60.229-172.63-90.364c-25.964-13.598-51.897-27.255-77.844-40.885c-0.661-0.997-0.667-1.998-0.021-3.001
		c5.478-4.558,11.897-6.951,18.699-8.915c112.912-32.594,225.871-65.027,338.772-97.657c82.836-23.94,165.731-47.683,248.534-71.74
		c6.471-1.88,12.941-5.83,20.229-2.896C2406.771,1684.408,2407.401,1685.286,2407.735,1686.376z"/>
	<path fill-rule="evenodd" clip-rule="evenodd" fill="#7A3E79" d="M107.646,1739.923c-0.649,0.015-1.297,0.044-1.944,0.088
		c-2.684-0.666-5.368-1.333-8.053-1.999c6.545-0.774,5.883-4.881,4.517-9.502c-10.266-34.727-20.501-69.462-30.716-104.204
		c-17.243-58.647-34.462-117.301-51.692-175.952c-2.528-8.605-5.208-17.171-7.5-25.84c-0.719-2.719-0.393-5.714-0.544-8.584
		c4.176,1.095,8.428,1.963,12.518,3.318c152.083,50.402,304.147,100.859,456.231,151.255c6.313,2.093,12.798,3.67,19.202,5.486
		c2.673,0.631,5.346,1.263,8.019,1.895c1.11-0.592,1.927-0.315,2.451,0.828c-0.175,2.406-1.663,3.658-3.805,4.334
		c-101.735,43.75-204.922,83.973-307.291,126.188c-21.215,8.748-42.795,16.627-63.643,26.25
		C126.543,1737.571,117.185,1739.028,107.646,1739.923z"/>
	<path fill-rule="evenodd" clip-rule="evenodd" fill="#744D80" d="M1777.804,1868.07c2.835,25.42,5.553,50.854,8.533,76.256
		c4.335,36.96,8.874,73.896,13.298,110.844c4.504,37.609,9.043,75.213,13.439,112.834c4.975,42.573,9.73,85.172,14.733,127.742
		c2.869,24.42,6.073,48.801,9.042,73.211c0.521,4.282,0.621,8.617,0.916,12.926c-1.353,0.043-2.706,0.087-4.06,0.131
		c-31.924,1.07-62.653-7.192-93.711-12.453c-93.862-15.898-187.603-32.516-281.409-48.742c-31.816-5.503-63.587-11.264-95.45-16.496
		c-6-0.985-11.396-3.588-16.807-6.161c-0.957-0.638-1.859-1.346-2.706-2.123l-0.054,0.006c-0.482-0.858-0.609-1.765-0.384-2.722
		c6.236-9.551,14.625-17.173,22.605-25.156c42.163-42.182,83.644-85.08,126.728-126.301
		c61.873-59.197,120.914-121.237,182.697-180.479c29.821-28.594,58.686-58.119,88.393-86.803
		C1767.517,1870.809,1771.099,1865.923,1777.804,1868.07z"/>
	<path fill-rule="evenodd" clip-rule="evenodd" fill="#794B84" d="M1345.622,2296.031c82.212,14.361,164.412,28.793,246.64,43.063
		c75.348,13.076,150.73,25.953,226.082,39.012c5.19,0.898,10.244,2.586,15.362,3.908c-16.697,2.637-33.367,5.462-50.097,7.875
		c-58.902,8.5-117.82,16.892-176.742,25.257c-39.827,5.655-79.672,11.18-119.501,16.822c-3.26,0.462-6.455,1.381-9.681,2.088
		c-0.649-0.002-1.298,0.01-1.945,0.036c0.001,0.002-0.064-0.164-0.064-0.164c-9.194-4.078-14.285-12.621-21.013-19.369
		c-34.097-34.2-68.355-68.238-102.477-102.414C1347.784,2307.734,1342.519,2303.553,1345.622,2296.031z"/>
	<path fill-rule="evenodd" clip-rule="evenodd" fill="#834E8D" d="M1345.622,2296.031c2.728,3.689,5.044,7.789,8.245,11.008
		c35.471,35.681,71.19,71.115,106.539,106.916c5.841,5.916,10.217,13.279,15.27,19.974c-40.323,6.935-80.646,13.866-120.969,20.809
		c-17.7,3.048-35.396,6.119-53.096,9.18c2.601-10.948,5.073-21.928,7.823-32.837c11.352-45.026,22.786-90.031,34.189-135.043
		C1344.29,2296.03,1344.956,2296.027,1345.622,2296.031z"/>
	<path fill-rule="evenodd" clip-rule="evenodd" fill="#894B88" d="M705.589,2094.248c-0.586-0.137-1.177-0.252-1.771-0.347
		c-12.785-14.771-17.826-33.311-24.583-50.963c-34.267-89.518-68.444-179.068-102.682-268.597
		c-4.517-11.811-9.434-23.475-13.457-35.473c-1.267-3.778-2.826-7.514-2.148-11.642c7.043-16.012,22.044-24.655,34.233-35.605
		c21.765-19.553,43.593-39.061,65.525-58.438c29.905-26.421,59.609-53.074,89.321-79.712c27.744-24.873,55.824-49.37,83.297-74.552
		c16.649-15.261,33.917-29.837,51.5-44.062c2.18-0.805,4.146-0.512,5.88,1.07c3.803,6.325,0.566,12.434-1.101,18.282
		c-12.225,42.896-24.072,85.899-36.099,128.852c-27.732,99.044-55.633,198.041-83.273,297.111
		c-18.337,65.728-36.921,131.386-55.232,197.12c-1.772,6.361-5.471,11.283-9.22,16.347L705.589,2094.248z"/>
	<path fill-rule="evenodd" clip-rule="evenodd" fill="#9F599D" d="M563.657,1726.011c18,47.315,35.979,94.639,54.005,141.944
		c28.702,75.321,57.434,150.632,86.154,225.945c-3.24-2.839-6.653-5.507-9.697-8.544c-41.468-41.373-82.76-82.924-124.345-124.178
		c-48.891-48.501-97.984-96.796-147.156-145.011c-2.872-2.815-7.229-4.117-10.893-6.123c-0.016-0.68-0.031-1.36-0.047-2.041
		c1.061-1.609,1.448-3.717,3.434-4.64c44.206-27.447,90.723-50.741,136.27-75.781c3.529-1.94,6.871-4.141,11.148-2.516
		C562.907,1725.381,563.282,1725.697,563.657,1726.011z"/>
	<path fill-rule="evenodd" clip-rule="evenodd" fill="#8F5593" d="M2387.615,552.007c24.358-3.341,48.706-6.77,73.078-10.004
		c44.475-5.902,88.941-11.87,133.454-17.472c40.883-5.144,81.838-9.705,122.729-14.784c25.4-3.154,50.728-6.896,76.11-10.193
		c40.53-5.267,81.077-10.401,121.624-15.545c6.257-0.794,12.545-1.342,18.816-2.004c-4.893,9.773-9.483,19.709-14.723,29.291
		c-20.428,37.354-41.07,74.592-61.615,111.884c-28.249,51.275-56.512,102.544-84.709,153.849
		c-12.978,23.613-25.814,47.305-38.716,70.96c-0.663,1.336-1.326,2.672-1.989,4.008c-0.655-0.011-1.311-0.019-1.966-0.023
		c-4.026,2.597-6.861,0.183-9.706-2.285c-27.375-23.737-54.516-47.742-81.868-71.502c-29.597-25.71-59.072-51.561-88.621-77.322
		c-23.784-20.736-47.471-41.592-71.183-62.415c-23.961-21.042-47.82-42.203-72.082-62.899c-7.334-6.255-13.786-13.285-19.604-20.937
		C2386.653,553.626,2386.993,552.764,2387.615,552.007z"/>
	<path fill-rule="evenodd" clip-rule="evenodd" fill="#75457A" d="M2387.733,553.926c14.954,12.668,30.032,25.192,44.836,38.034
		c30.377,26.352,60.638,52.837,90.887,79.335c23.752,20.807,47.363,41.774,71.13,62.564c29.518,25.82,59.152,51.507,88.694,77.299
		c15.521,13.552,30.955,27.207,46.428,40.815c0.006,1.321,0.012,2.643,0.018,3.965c-0.662,6.485-5.028,10.653-9.314,14.865
		c-28.689,28.19-56.067,57.669-84.003,86.584c-34.857,36.079-69.036,72.819-104.7,108.12c-4.561,4.516-8.826,10.419-16.872,7.515
		c-4.779-5.529-6.155-12.437-7.845-19.202c-32.016-128.19-63.931-256.406-96.23-384.525c-8.215-32.59-16.721-65.109-24.715-97.755
		C2384.607,565.665,2381.729,559.261,2387.733,553.926z"/>
	<path fill-rule="evenodd" clip-rule="evenodd" fill="#6D4576" d="M2517.7,1071.979c21.031-21.204,42.067-42.403,63.086-63.62
		c1.399-1.414,2.602-3.022,3.991-4.446c28.533-29.229,57.128-58.397,85.608-87.678c16.896-17.371,33.584-34.942,50.444-52.349
		c2.759-2.849,5.919-5.308,8.895-7.947c1.965,13.769,4.18,27.508,5.843,41.313c3.934,32.658,7.597,65.35,11.384,98.026
		c4.056,34.989,8.152,69.973,12.185,104.964c4.982,43.249,9.918,86.503,14.877,129.755c0.004,0-0.437-0.039-0.437-0.039
		c-7.059,3.174-12.317-1.481-17.435-4.674c-29.927-18.669-60.174-36.813-90.23-55.267c-46.218-28.374-92.634-56.426-138.812-84.866
		c-4.309-2.653-8.544-5.227-10.202-10.412C2516.854,1073.728,2517.123,1072.808,2517.7,1071.979z"/>
	<path fill-rule="evenodd" clip-rule="evenodd" fill="#622C5E" d="M763.613,1054c0.006-0.7,0.011-1.4,0.016-2.102
		c1.354-3.957,2.71-7.914,4.065-11.871c8.446-25.595,19.056-50.303,30.82-74.518c27.647-56.91,54.357-114.267,81.494-171.42
		c29.992-63.167,59.84-126.404,89.815-189.58c15.986-33.69,31.662-67.532,47.873-101.117c2.023-4.192,3.276-9.893,9.981-9.436
		l0.067,0.328c3.078,3.791,4.047,8.336,4.503,13.012c2.556,26.174,3.076,52.484,3.985,78.719
		c1.913,55.187,4.947,110.322,6.773,165.515c1.474,44.529,3.477,89.07,5.829,133.566c2.738,51.811,3.848,103.692,7.319,155.47
		c1.134,16.912,1.327,33.902,2.023,50.85c1.132,27.583,2.469,55.165,3.455,82.758c0.147,4.142-0.265,7.969-3.197,11.106
		c-4.78,3.358-9.346,1.543-14.072-0.48c-31.478-13.473-62.502-27.955-93.745-41.948c-57.938-25.948-115.646-52.411-173.666-78.176
		c-5.005-2.222-9.189-5.221-12.745-9.263C764.011,1054.942,763.813,1054.47,763.613,1054z"/>
	<path fill-rule="evenodd" clip-rule="evenodd" fill="#77346F" d="M1027.679,493.957c-22.941,48.398-45.883,96.796-68.822,145.195
		c-13.396,28.266-26.766,56.543-40.188,84.796C879.687,806,840.728,888.064,801.659,970.077
		c-11.146,23.399-22.634,46.638-33.965,69.95c1.518-7.485,2.772-15.035,4.593-22.446c19.856-80.835,39.624-161.692,59.766-242.457
		c24.812-99.491,49.935-198.904,75.033-298.323c0.95-3.764,3.051-7.235,4.615-10.844c22.226,5.073,44.439,10.197,66.68,15.205
		c16.42,3.698,32.875,7.245,49.314,10.859C1027.689,492.667,1027.684,493.311,1027.679,493.957z"/>
	<path fill-rule="evenodd" clip-rule="evenodd" fill="#643062" d="M889.625,1436.408c-1.341,0.477-2.683,0.953-4.024,1.431
		c-23.331,15.52-50.311,22.566-76.111,32.132c-95.22,35.302-190.4,70.711-285.751,105.657c-4.67,1.712-9.271,4.303-14.076,0.39
		c-0.66-0.036-1.319-0.08-1.979-0.132c8.549-18.404,16.761-36.974,25.709-55.181c30.849-62.765,62.056-125.353,92.936-188.102
		c35.287-71.705,70.329-143.531,105.569-215.26c10.412-21.193,21.136-42.234,31.717-63.345c-0.001,0.001,0.052-0.019,0.052-0.019
		c5.408,5.25,8.238,11.847,10.584,18.9c37.709,113.389,75.532,226.739,113.345,340.094c2.117,6.348,3.775,12.74,4.236,19.426
		c-0.054,1.088-0.375,2.087-0.962,3.002C890.455,1435.739,890.04,1436.074,889.625,1436.408z"/>
	<path fill-rule="evenodd" clip-rule="evenodd" fill="#562654" d="M1031.673,495.926c20.45,6.984,40.991,13.715,61.333,21.003
		c54.528,19.534,108.971,39.311,163.449,58.985c78.587,28.382,157.165,56.79,235.774,85.108
		c14.402,5.188,28.938,10.008,43.412,14.997c2.629,1.294,5.259,2.588,7.889,3.882c0.568,0.303,1.137,0.606,1.706,0.906
		c3.927,4.078,3.345,9.354,3.142,14.184c-1.532,36.523-0.896,73.115-3.508,109.601c-0.118,1.66-0.283,3.322-0.235,4.983
		c1.103,38.595-2.101,77.103-2.517,115.68c-0.242,22.504-0.444,45.197-3.448,67.622c-0.044,1.156-0.177,2.327-0.379,3.467
		c-0.354,1.031-0.948,1.935-1.732,2.674c-6.152,3.072-10.108-1.267-13.923-4.687c-7.432-6.665-14.243-13.997-21.308-21.059
		c-39.56-39.54-78.375-79.86-118.854-118.438c-62.185-59.265-122.708-120.2-182.648-181.665
		c-53.222-54.575-107.663-107.915-160.878-162.478C1035.087,506.733,1028.706,503.476,1031.673,495.926z"/>
	<path fill-rule="evenodd" clip-rule="evenodd" fill="#512450" d="M1543.53,679.902c27.442-72.116,54.904-144.226,82.321-216.352
		c21.979-57.822,43.904-115.666,65.853-173.5c8.254,0.236,7.759,7.216,8.72,12.25c5.607,29.383,10.616,58.878,15.809,88.339
		c15.001,85.107,29.902,170.233,45.175,255.293c1.649,9.186,1.966,18.455,3.092,27.664c0.405,3.307,0.135,6.743-3.381,8.747
		c-5.318,2.477-10.994,2.462-16.644,2.471c-42.196,0.072-84.413,0.831-126.58-0.315c-20.891-0.568-41.786-1.556-62.7-1.777
		c-4.001-0.042-7.99-0.344-11.459-2.725L1543.53,679.902z"/>
	<path fill-rule="evenodd" clip-rule="evenodd" fill="#582856" d="M1761.686,679.966c-4.238-24.922-8.372-49.862-12.733-74.764
		c-15.102-86.217-30.176-172.438-45.516-258.613c-3.372-18.942-7.794-37.698-11.732-56.54c0.673-1.986,1.345-3.974,2.018-5.96
		c22.696,2.624,45.387,5.291,68.088,7.859c29.946,3.389,59.901,6.7,89.854,10.045l-0.004,0.005c3.623,5.55,2.634,11.411,1.25,17.341
		c-16.022,68.646-31.918,137.321-47.941,205.967c-10.885,46.626-21.519,93.312-32.513,139.912
		c-1.286,5.454-2.186,11.229-7.534,14.65C1763.855,680.382,1762.777,680.414,1761.686,679.966z"/>
	<path fill-rule="evenodd" clip-rule="evenodd" fill="#542552" d="M1031.673,495.926c2.399,2.752,4.681,5.62,7.224,8.233
		c5.573,5.728,11.294,11.311,16.928,16.98c102.788,103.448,205.406,207.065,308.425,310.283
		c53.851,53.954,108.399,107.212,162.66,160.755c2.122,2.094,4.535,3.893,6.813,5.829c-0.914,7.611-7.227,9.492-12.883,11.73
		c-75.85,30.012-151.896,59.527-227.811,89.372c-72.818,28.627-145.732,57.013-218.455,85.882
		c-5.657,2.245-11.377,3.657-17.473,3.51c-2.168-0.725-4.031-1.674-3.424-4.498c1.177-2.471,3.462-4.991,3.354-7.404
		c-0.842-18.908-2.452-37.783-3.226-56.693c-1.006-24.586-1.118-49.211-2.231-73.792c-1.623-35.842-3.849-71.656-5.71-107.487
		c-0.845-16.265-1.569-32.537-2.106-48.814c-0.812-24.596-1.078-49.214-2.181-73.795c-1.638-36.507-3.853-72.988-5.724-109.485
		c-0.833-16.265-1.563-32.538-2.096-48.815c-0.816-24.929-1.237-49.871-2.162-74.796c-1.098-29.554-2.551-59.096-3.85-88.639
		C1029.055,494.832,1030.364,495.378,1031.673,495.926z"/>
	<path fill-rule="evenodd" clip-rule="evenodd" fill="#6B4373" d="M1777.804,1868.07c-3.481,3.077-7.126,5.99-10.421,9.256
		c-82.82,82.083-165.563,164.244-248.406,246.305c-54.669,54.152-109.45,108.193-164.278,162.186
		c-3.231,3.183-7.337,5.478-11.036,8.186c-0.518-0.297-1.034-0.593-1.56-0.882c-4.697-3.935-4.742-9.461-5.098-14.892
		c-3.517-42.066-6.416-84.175-9.561-126.263c-2.328-31.151-4.483-62.323-6.803-93.477c-2.32-31.15-4.604-62.308-7.05-93.45
		c-2.369-30.147-4.453-60.321-6.702-90.481c-2.496-33.472-5.242-66.931-7.374-100.42c-1.704-26.782-6.128-53.493-3.497-80.466
		c-0.354-1.144-0.484-2.32-0.391-3.512c0.192-0.546,0.388-1.102,0.576-1.652c0.64-0.993,1.526-1.684,2.641-2.064
		c2.293-0.475,4.322,0.514,6.396,1.204c24.741,8.786,49.55,17.412,74.172,26.589c67.106,25.012,134.211,50.028,201.389,74.846
		c56.867,21.009,113.514,42.615,170.554,63.154c8.18,2.945,15.605,7.426,23.736,10.373c0.985,0.313,1.946,0.686,2.884,1.12
		c0.878,0.603,1.492,1.405,1.843,2.409c-0.057,0.606-0.122,1.212-0.195,1.816C1779.016,1867.978,1778.409,1868.016,1777.804,1868.07
		z"/>
	<path fill-rule="evenodd" clip-rule="evenodd" fill="#623262" d="M1763.654,680.007c20.148-86.481,40.302-172.963,60.441-259.447
		c9.202-39.517,18.376-79.041,27.563-118.562c1.353,0.634,2.705,1.267,4.059,1.899c35.937,16.675,71.894,33.307,107.805,50.036
		c68.203,31.773,136.389,63.583,204.565,95.414c33.185,15.494,66.344,31.044,99.492,46.616
		c35.56,16.704,71.077,33.498,106.661,50.152c3.596,1.683,7.518,2.669,11.287,3.979c0.148,0.545,0.249,1.097,0.302,1.657
		c0.721,2.017-0.468,3.2-1.867,4.29c-38.231,11.881-77.845,17.639-116.875,25.9c-50.809,10.754-101.7,21.156-152.57,31.635
		c-75.986,15.652-151.939,31.467-227.907,47.209c-34.563,7.162-69.178,14.064-103.701,21.415c-6.07,1.292-12.386,3.527-18.306-0.788
		C1764.287,680.945,1763.971,680.476,1763.654,680.007z"/>
	<path fill-rule="evenodd" clip-rule="evenodd" fill="#5F3664" d="M2383.729,553.978c0.7-0.741,1.399-1.482,2.101-2.225
		c0.596,0.09,1.191,0.175,1.787,0.254c0.013,0.642,0.051,1.281,0.117,1.92c1.506,7.483,2.709,15.043,4.563,22.439
		c40.473,161.46,81.011,322.903,121.589,484.337c0.964,3.836,2.53,7.521,3.814,11.275c0.021,0.635,0.045,1.271,0.071,1.905
		c-0.418,0.407-0.835,0.814-1.252,1.222c-24.582,2.927-48.188-4.188-72.099-7.47c-85.438-11.726-170.711-24.62-256.052-37.03
		c-54.037-7.858-108.146-15.254-162.02-23.976c-11.281-4.199-13.002-8.131-5.992-17.146c16.944-21.791,34.875-42.794,52.434-64.093
		c33.008-40.037,65.972-80.109,98.96-120.162c33.2-40.309,66.519-80.521,99.71-120.836c29.593-35.945,59.323-71.777,88.754-107.856
		C2367.079,568.12,2373.119,558.597,2383.729,553.978z"/>
	<path fill-rule="evenodd" clip-rule="evenodd" fill="#6A4675" d="M2773.545,1231.886c-1.614,3.993-2.968,8.116-4.881,11.961
		c-20.767,41.736-41.71,83.385-62.431,125.145c-30.484,61.437-60.838,122.938-91.227,184.423
		c-20.504,41.482-40.974,82.982-61.458,124.475c-6.575,1.384-10.671-2.399-14.25-7.001c-24.889-31.996-50.037-63.791-75.005-95.725
		c-33.56-42.92-67.723-85.373-101.238-128.333c-5.301-6.796-11.635-12.94-15.281-20.854c-1.99-4.32-6.029-4.775-9.352-6.738
		c-3.229-3.448-4.246-7.359-2.548-11.845c6.128-5.221,13.329-8.785,20.653-11.767c77.399-31.498,154.848-62.876,232.284-94.282
		c55.532-22.523,111.021-45.155,166.54-67.71C2761.244,1231.242,2767.136,1228.877,2773.545,1231.886z"/>
	<path fill-rule="evenodd" clip-rule="evenodd" fill="#573861" d="M2773.545,1231.886c-58.288,23.538-116.586,47.053-174.861,70.623
		c-42.553,17.212-85.067,34.517-127.614,51.744c-44.391,17.976-88.8,35.908-133.201,53.859c-1.906,0.565-2.726-0.518-3.213-2.106
		c10.453-21.12,21.963-41.698,33.084-62.474c18.534-34.628,37.05-69.268,55.689-103.841c26.065-48.344,52.053-96.729,77.721-145.284
		c3.431-6.49,8.949-11.557,12.48-17.99c1.137-0.948,2.509-1.499,3.777-2.226c0,0,0.361-0.306,0.361-0.308
		c71.029,43.405,142.052,86.821,213.091,130.209c14.206,8.676,28.478,17.246,42.718,25.865
		C2773.6,1230.601,2773.589,1231.244,2773.545,1231.886z"/>
	<path fill-rule="evenodd" clip-rule="evenodd" fill="#6E4A7A" d="M2341.634,1418.043c5.623-4.676,6.767,2.017,8.457,4.104
		c11.924,14.723,23.212,29.957,34.938,44.844c40.522,51.448,81.164,102.801,121.707,154.232
		c11.936,15.143,23.58,30.517,35.612,45.581c3.257,4.077,7.443,7.412,11.202,11.086c0.007,0.507,0.007,1.015-0.002,1.52
		c-19.514,0.868-39.03,1.688-58.54,2.627c-29.093,1.4-58.183,2.885-87.273,4.337c0.001,0.003-0.149-0.765-0.149-0.765
		c-5.791-3.979-6.687-10.427-8.275-16.502c-17.404-66.555-33.767-133.371-50.495-200.096c-3.313-13.214-7.47-26.205-10.268-39.557
		C2337.616,1425.017,2336.878,1420.844,2341.634,1418.043z"/>
	<path fill-rule="evenodd" clip-rule="evenodd" fill="#774379" d="M1297.638,1688.516c-0.023,0.555-0.043,1.109-0.061,1.664
		c-0.973,2.77-4.014,2.388-5.852,3.839c-94.048,64.234-188.089,128.479-282.146,192.701
		c-84.708,57.838-169.423,115.666-254.16,173.461c-16.486,11.244-33.092,22.314-49.641,33.463
		c8.509-31.158,16.874-62.352,25.551-93.459c22.73-81.496,45.564-162.963,68.417-244.426
		c23.212-82.745,46.485-165.473,69.753-248.203c6.674-23.728,13.416-47.437,20.127-71.151c-0.001,0.003,0.021-0.591,0.021-0.591
		c6.929-1.963,12.164,2.186,17.382,5.329c42.767,25.764,84.915,52.533,127.384,78.781c69.64,43.041,138.947,86.618,208.788,129.331
		c17.033,10.418,32.887,22.527,49.807,33.07C1295.237,1683.715,1297.299,1685.554,1297.638,1688.516z"/>
	<path fill-rule="evenodd" clip-rule="evenodd" fill="#89548F" d="M1291.726,1694.019c1.951-1.28,3.902-2.562,5.853-3.841
		c2.022,23.513,4.172,47.014,6.039,70.537c2.655,33.472,5.13,66.959,7.632,100.443c1.512,20.229,2.893,40.466,4.397,60.694
		c2.517,33.816,5.133,67.626,7.615,101.445c1.558,21.226,2.856,42.47,4.434,63.693c2.412,32.491,5.001,64.969,7.444,97.457
		c1.571,20.891,3.047,41.788,4.505,62.687c0.765,10.946,1.4,21.901,2.094,32.853c2.509,4.41-0.672,9.603,1.925,14
		c0,0-0.001,0.013-0.001,0.014c-0.03,0.68-0.061,1.36-0.093,2.041c-47.633-4.745-95.275-9.4-142.896-14.262
		c-49.604-5.064-99.178-10.42-148.783-15.47c-35.387-3.602-70.803-6.907-106.206-10.347c6.765-11.805,13.155-23.842,20.354-35.376
		c60.652-97.183,121.419-194.294,182.22-291.384c42.95-68.585,86.017-137.097,129.009-205.655
		c4.952-7.898,9.887-15.814,14.511-23.905C1292.58,1698.238,1291.783,1695.917,1291.726,1694.019z"/>
	<path fill-rule="evenodd" clip-rule="evenodd" fill="#8A4A89" d="M415.689,1806.019c-1.337,0.662-2.674,1.323-4.011,1.985
		c-22.994-5.338-45.947-10.853-68.987-15.982c-78.332-17.439-156.694-34.742-235.045-52.098
		c23.984-9.969,47.915-20.067,71.961-29.883c104.567-42.684,209.164-85.294,313.768-127.885c3.997-1.628,8.187-2.786,12.285-4.163
		c0.691,0.785,1.202,1.674,1.533,2.664c-2.457,18.761-11.691,35.178-18.378,52.447c-20.152,52.047-41.08,103.789-61.709,155.647
		C424.459,1795.406,420.896,1801.189,415.689,1806.019z"/>
	<path fill-rule="evenodd" clip-rule="evenodd" fill="#593963" d="M2341.634,1418.043c3.164,13.256,6.19,26.546,9.513,39.762
		c18.35,72.993,36.78,145.965,55.129,218.958c0.724,2.879,0.887,5.898,1.31,8.849c-63.029,18.138-126.061,36.273-189.088,54.42
		c-125.42,36.111-250.836,72.237-376.26,108.334c-20.789,5.983-41.613,11.85-62.42,17.771c-0.742-0.093-1.484-0.188-2.228-0.282
		c-0.986-5.603,1.5-10.259,4.216-14.762c71.701-118.848,143.74-237.492,215.539-356.282c27.2-45.003,54.327-90.052,81.777-134.903
		c4.311-7.043,10.292-12.958,13.804-20.553c0.72-0.779,1.563-1.362,2.534-1.779c1.033-0.288,2.078-0.447,3.148-0.486
		c27.427,2.203,52.881,12.46,79.091,19.531c48.119,12.983,95.996,26.857,143.968,40.379c5.438,1.533,12.394,1.311,13.997,9.035
		c0.733,0.691,1.468,1.384,2.202,2.076C2339.124,1411.423,2340.379,1414.734,2341.634,1418.043z"/>
	<path fill-rule="evenodd" clip-rule="evenodd" fill="#7D417B" d="M505.669,1579.991c0.006-0.665,0.004-1.331-0.008-1.997
		c1.334-0.659,2.668-1.318,4.001-1.978c60.866-22.631,121.717-45.303,182.601-67.883c57.764-21.423,115.551-42.783,173.364-64.071
		c6.535-2.406,13.311-4.163,19.974-6.223c-13.87,12.823-27.607,25.795-41.645,38.433c-15.539,13.989-31.395,27.624-47.035,41.501
		c-29.299,25.992-58.582,52.003-87.794,78.094c-21.047,18.797-41.924,37.784-62.957,56.597
		c-27.462,24.563-55.005,49.036-82.513,73.548l-0.018,0.045c-4.679-0.954-7.159-3.914-8.868-8.344
		c-15.628-40.513-31.512-80.927-47.085-121.461C505.69,1591.055,504.436,1585.647,505.669,1579.991z"/>
	<path fill-rule="evenodd" clip-rule="evenodd" fill="#8E4C8C" d="M505.669,1579.991c17.896,45.332,35.788,90.666,53.702,135.99
		c1.341,3.391,2.843,6.718,4.27,10.074c-45.961,25.252-91.911,50.522-137.906,75.709c-3.173,1.738-6.688,2.852-10.045,4.255
		c11.134-28.473,22.2-56.973,33.415-85.414c17.078-43.306,34.239-86.578,51.429-129.84
		C501.999,1587.077,503.945,1583.578,505.669,1579.991z"/>
	<path fill-rule="evenodd" clip-rule="evenodd" fill="#4F234D" d="M1053.677,1184.003c1.357,0.675,2.714,1.349,4.071,2.022
		c0.666,0.739,1.012,1.606,1.039,2.599c-9.166,18.526-20.521,35.732-32.282,52.652c-26.991,38.827-52.48,78.67-79.58,117.417
		c-13.932,19.919-26.3,40.875-40.707,60.477c-4.16,5.659-8.351,11.163-13.895,15.526c-1.002,0.199-1.876-0.063-2.644-0.718
		c-14.317-42.591-28.705-85.159-42.938-127.778c-26.571-79.564-53.065-159.153-79.532-238.752
		c-1.461-4.396-2.375-8.975-3.544-13.469c27.06,11.869,54.196,23.566,81.162,35.644c52.745,23.624,105.403,47.44,158.078,71.219
		C1019.86,1168.496,1036.755,1176.28,1053.677,1184.003z"/>
	<path fill-rule="evenodd" clip-rule="evenodd" fill="#5D305E" d="M889.68,1433.979c0.662-0.003,1.324-0.008,1.986-0.017
		c4.474-3.502,9.151-6.464,14.858-7.765c36.016-8.207,71.931-16.853,107.991-24.868c2.249-0.5,4.502-1.283,6.858-0.934
		c4.83,0.838,8.215,3.966,11.607,7.244c34.436,33.281,66.648,68.735,100.217,102.868c14.894,15.144,29.883,30.271,44.423,45.788
		c32.947,35.162,66.921,69.335,100.049,104.319c5.892,6.222,10.077,14.124,18.324,17.939c1.747,1.884,2.146,4.333,2.789,6.679
		c-0.083,0.986-0.427,1.868-1.073,2.627c0,0-0.072,0.646-0.072,0.651c-30.314-18.624-60.688-37.159-90.932-55.899
		c-66.72-41.345-133.373-82.799-200.059-124.198c-38.994-24.208-78-48.399-117.001-72.6
		C889.661,1435.202,889.672,1434.59,889.68,1433.979z"/>
	<path fill-rule="evenodd" clip-rule="evenodd" fill="#3D1C3F" d="M1297.576,1686.058c-1.323-1.354-2.646-2.707-3.969-4.062
		c-22.49-28.296-33.839-62.543-49.862-94.257c-9.293-18.391-17.828-37.245-26.821-55.807
		c-28.461-58.741-56.311-117.774-84.791-176.507c-22.808-47.036-44.825-94.458-67.924-141.356
		c-2.979-6.049-3.813-12.759-6.771-18.75c-0.868-2.468-0.746-4.905,0.215-7.318c0.026-0.659,0.058-1.317,0.094-1.976
		c118.291-46.42,236.57-92.869,354.879-139.242c37.164-14.566,74.424-28.891,111.591-43.449c3.35-1.313,6.345-3.53,9.504-5.327
		c0.639-0.029,1.275-0.062,1.913-0.098c0.956,0.598,1.65,1.416,2.089,2.453c0.312,1.053,0.386,2.125,0.239,3.207
		c-6.348,21.678-13.946,42.945-21.264,64.318c-28.907,84.424-57.994,168.787-86.728,253.269
		c-20.583,60.52-41.261,121.01-61.875,181.519c-19.437,57.049-38.39,114.271-58.872,170.959
		C1307.229,1679.156,1306.49,1686.667,1297.576,1686.058z"/>
	<path fill-rule="evenodd" clip-rule="evenodd" fill="#38193B" d="M1535.708,1000.036c-0.024-0.708-0.049-1.416-0.074-2.125
		c0.016-0.641,0.034-1.28,0.058-1.92c7.54-23.063,24.548-40.135,38.119-59.269c53.324-75.181,107.766-149.563,161.308-224.591
		c5.412-7.582,11.333-14.794,16.433-22.601c3.39-5.188,8.089-7.723,14.317-7.311c8.728,2.064,12.404,9.802,17.251,15.922
		c75.449,95.285,150.827,190.626,226.16,286.004c3.028,3.834,6.734,7.418,7.454,12.733c0.59,4.354,0.374,8.099-5.033,9.161
		c-16.721,2.711-33.198-1.333-49.819-1.304c-128.406,0.228-256.813,0.094-385.22,0.181c-12.664,0.009-25.242-0.465-37.727-2.667
		C1537.737,1001.69,1536.661,1000.952,1535.708,1000.036z"/>
	<path fill-rule="evenodd" clip-rule="evenodd" fill="#441E44" d="M1765.663,683.992c-3.476,2.896-7.74,5.222-10.312,8.773
		c-56.214,77.671-112.246,155.475-168.299,233.263c-15.57,21.608-31.082,43.259-46.676,64.85c-1.345,1.861-3.114,3.416-4.686,5.113
		c0.681-39.897,1.158-79.8,2.096-119.691c1.1-46.846,2.559-93.684,3.945-140.522c0.551-18.597,1.327-37.188,2.002-55.781
		c5.224-0.664,10.452-1.941,15.669-1.901c67.429,0.515,134.855,1.217,202.282,1.872c0.656,0.019,1.313,0.032,1.969,0.041l0.02-0.014
		C1764.892,681.05,1766.77,681.778,1765.663,683.992z"/>
	<path fill-rule="evenodd" clip-rule="evenodd" fill="#3B1F41" d="M1297.576,1686.058c4.555-10.583,9.794-20.93,13.544-31.791
		c15.648-45.319,30.728-90.834,46.241-136.199c20.892-61.09,42.087-122.076,62.974-183.167
		c23.044-67.398,45.832-134.884,68.835-202.296c13.65-40.003,27.468-79.95,41.319-119.885c1.289-3.717,3.363-7.161,5.073-10.731
		c5.416,3.544,7.337,9.181,8.969,14.987c28.004,99.631,56.186,199.212,84.2,298.84c23.149,82.326,46.535,164.586,69.485,246.969
		c1.614,5.796,3.415,11.521,1.763,17.625c-0.737,1.515-1.873,2.682-3.191,3.688c-10.149,6.26-21.887,7.843-33.07,10.87
		c-107.061,28.981-214.168,57.789-321.225,86.787c-13.971,3.783-28.068,7.98-42.926,6.373c-0.622-0.064-1.242-0.153-1.857-0.267
		C1297.665,1687.26,1297.62,1686.659,1297.576,1686.058z"/>
	<path fill-rule="evenodd" clip-rule="evenodd" fill="#452B4E" d="M1695.614,1581.939c0.706-0.669,1.412-1.338,2.117-2.007
		c3.946-7.542,11.377-11.092,18.129-15.117c68.663-40.934,136.821-82.703,205.216-124.079
		c51.292-31.03,102.63-61.989,153.841-93.157c5.975-3.637,11.607-11.214,20.473-5.859c-44.39,73.489-88.783,146.976-133.168,220.467
		c-42.15,69.791-84.199,139.644-126.479,209.355c-19.152,31.579-38.754,62.886-58.153,94.313c0-0.001-0.93,0.048-0.93,0.048
		l-0.932-0.007c-1.128-1.15-2.095-2.424-2.89-3.825c-16.184-45.044-26.951-91.669-40.036-137.614
		c-10.368-36.409-19.969-73.04-30.452-109.417c-2.849-9.882-3.041-20.317-6.991-29.896
		C1695.434,1584.075,1695.52,1583.006,1695.614,1581.939z"/>
	<path fill-rule="evenodd" clip-rule="evenodd" fill="#53325A" d="M1775.659,1862.01c0.023,1.296,0.046,2.591,0.069,3.886
		c-28.778-10.393-57.626-20.599-86.322-31.213c-67.716-25.048-135.356-50.299-203.032-75.451
		c-58.633-21.791-117.279-43.546-175.896-65.383c-2.449-0.912-4.648-2.496-6.965-3.768c19.7-6.252,39.9-5.473,60.111-4.137
		c3.968,0.262,7.911,1.184,11.91,1.075c44.575-1.206,89.096,1.548,133.624,2.509c50.812,1.098,101.676,1.6,152.393,4.506
		c5.366,0.688,8.781,4.064,11.633,8.423c29.002,44.328,59.419,87.708,88.564,131.939
		C1767.451,1843.049,1770.239,1853.199,1775.659,1862.01z"/>
	<path fill-rule="evenodd" clip-rule="evenodd" fill="#4C2D54" d="M1665.659,1698.007c-42.92-0.682-85.842-1.279-128.759-2.073
		c-27.267-0.505-54.528-1.303-81.792-1.967c-27.598-0.673-55.195-1.315-82.791-2.021c-22.935-0.586-45.867-1.242-68.802-1.866
		c-1.316-0.65-2.632-1.302-3.947-1.953c112.066-30.218,224.126-60.464,336.207-90.63c19.901-5.356,39.892-10.381,59.84-15.559
		c0.683,0.021,1.365,0.04,2.049,0.061c1.52,7.894,1.245,15.788-1.042,23.43c-7.913,26.438-15.093,53.09-23.227,79.458
		C1671.903,1689.725,1671.697,1695.695,1665.659,1698.007z"/>
	<path fill-rule="evenodd" clip-rule="evenodd" fill="#744D80" d="M1343.663,2293.988c-0.643-4.666-1.283-9.334-1.925-14
		C1342.38,2284.655,1343.021,2289.322,1343.663,2293.988z"/>
	<path fill-rule="evenodd" clip-rule="evenodd" fill="#562D59" d="M1765.663,683.992c-0.663-1.333-1.326-2.665-1.99-3.998
		c22.207-4.225,44.474-8.158,66.609-12.726c87.344-18.022,174.63-36.326,261.97-54.371c93.188-19.253,186.411-38.342,279.631-57.444
		c3.886-0.796,7.894-0.997,11.845-1.475c-10.895,13.832-21.565,27.849-32.725,41.465c-43.023,52.495-86.172,104.887-129.33,157.271
		c-53.313,64.709-106.679,129.373-160.028,194.051c-12.913,15.656-25.707,31.416-38.888,46.846c-3.23,3.782-3.456,5.999,0.964,8.307
		c-1.343,2.03-3.259,2.446-5.498,1.953c-1.01-0.398-1.788-1.066-2.335-2.003c-11.013-14.527-21.795-29.236-33.079-43.548
		c-44.23-56.097-88.61-112.075-132.952-168.084C1821.809,754.808,1793.729,719.405,1765.663,683.992z"/>
	<path fill-rule="evenodd" clip-rule="evenodd" fill="#45284D" d="M2017.606,1002.038c2.037-0.04,4.075-0.08,6.113-0.12
		c29.646,4.156,59.309,8.201,88.935,12.494c58.275,8.445,116.526,17.061,174.796,25.545c74.07,10.785,148.15,21.504,222.221,32.299
		c2.618,0.381,5.162,1.277,7.738,1.935c-0.572,0.603-1.143,1.203-1.713,1.804c-11.82,16.19-29.986,23.978-46.144,34.234
		c-46.897,29.77-93.842,59.471-140.897,88.995c-51.281,32.175-102.144,65.012-153.6,96.918
		c-16.092,9.979-32.174,20.058-47.893,30.662c-9.053,6.106-18.167,12.114-29.486,13.161c-0.6,0.066-1.2,0.115-1.803,0.146
		c-1.064-0.413-1.934-1.081-2.605-2.005c-3.204-5.152-4.979-10.852-6.371-16.696c-23.883-100.241-47.316-200.589-71.026-300.871
		C2014.442,1014.496,2010.756,1007.587,2017.606,1002.038z"/>
	<path fill-rule="evenodd" clip-rule="evenodd" fill="#4A2E53" d="M2097.677,1339.964c44.106-28.019,88.182-56.089,132.33-84.043
		c42.198-26.719,84.454-53.349,126.721-79.961c52.971-33.353,105.977-66.647,158.969-99.967c-3.389,6.821-6.617,13.728-10.191,20.45
		c-21.703,40.811-43.467,81.588-65.244,122.358c-31.49,58.955-62.939,117.932-94.667,176.759c-2.204,4.087-6.569,7.009-9.93,10.473
		c-75.111-21.13-150.22-42.272-225.345-63.355C2106.178,1341.516,2101.894,1340.858,2097.677,1339.964z"/>
	<path fill-rule="evenodd" clip-rule="evenodd" fill="#28142F" d="M2095.532,1338.029c0.113,0.693,0.227,1.387,0.341,2.08
		c-0.158,0.539-0.319,1.076-0.481,1.612c-21.449,12.674-42.998,25.182-64.324,38.057c-78.274,47.253-156.49,94.605-234.697,141.972
		c-28.723,17.396-57.325,34.992-86.069,52.352c-3.931,2.374-8.368,3.908-12.57,5.831c-22.18-78.843-44.364-157.685-66.539-236.528
		c-24.518-87.178-49.054-174.351-73.524-261.542c-7.464-26.597-14.74-53.247-22.104-79.873c0.052-0.651,0.1-1.303,0.145-1.954
		c0.656-0.026,1.313-0.044,1.972-0.053c27.508,7.599,49.447,25.564,73.296,39.837c79.16,47.376,157.852,95.531,236.693,143.438
		c58.35,35.454,116.784,70.77,175.132,106.229c19.354,11.762,38.757,23.444,58.107,35.212
		C2086.817,1328.291,2090.96,1333.264,2095.532,1338.029z"/>
	<path fill-rule="evenodd" clip-rule="evenodd" fill="#522753" d="M1057.653,1188.001c0.678,1.993,1.355,3.986,2.034,5.979
		c-1.472,39.332-10.74,77.594-16.077,116.396c-3.807,27.68-8.456,55.245-12.961,82.825c-0.749,4.59-1.012,9.548-6.975,10.793
		c-41.374,9.668-82.745,19.351-124.132,28.969c-2.564,0.596-5.248,0.68-7.877,1.001c3.736-6.246,7.194-12.68,11.252-18.709
		c35.981-53.472,72.06-106.878,108.13-160.29c13.383-19.819,26.786-39.625,40.27-59.376
		C1053.166,1192.88,1055.528,1190.522,1057.653,1188.001z"/>
	<path fill-rule="evenodd" clip-rule="evenodd" fill="#522A54" d="M1023.675,1403.994c6.002-37.701,12.055-75.394,17.99-113.104
		c4.801-30.5,9.408-61.03,14.311-91.513c0.313-1.947,2.432-3.604,3.711-5.397c8.604,17.256,17.395,34.42,25.758,51.791
		c9.24,19.193,17.911,38.661,27.141,57.859c28.42,59.116,57.056,118.129,85.48,177.242c31.02,64.511,61.903,129.087,92.805,193.654
		c1.14,2.381,1.836,4.975,2.737,7.47c-17.07-17.274-34.145-34.546-51.202-51.833c-1.401-1.421-2.635-3.008-4.031-4.435
		c-31.911-32.613-63.935-65.119-95.729-97.846c-38.513-39.64-76.839-79.461-115.222-119.228
		C1026.044,1407.227,1024.919,1405.553,1023.675,1403.994z"/>
	<path fill-rule="evenodd" clip-rule="evenodd" fill="#311936" d="M2095.532,1338.029c-17.531-10.193-35.203-20.152-52.564-30.627
		c-45.626-27.528-91.113-55.285-136.661-82.943c-85.69-52.037-171.368-104.094-257.083-156.091
		c-34.172-20.729-68.439-41.301-102.624-62.008c-3.117-1.889-5.954-4.241-8.92-6.378c142.808,0.003,285.616-0.055,428.425,0.092
		c16.594,0.018,33.187,1.169,49.781,1.793c0.575,0.053,1.148,0.109,1.721,0.17c3.754,17.532,7.209,35.134,11.314,52.583
		c21.012,89.291,42.197,178.541,63.296,267.812C2093.438,1327.603,2094.433,1332.829,2095.532,1338.029z"/>
	<path fill-rule="evenodd" clip-rule="evenodd" fill="#482C51" d="M1665.659,1698.007c5.286-19.51,10.504-39.039,15.88-58.524
		c5.292-19.184,10.743-38.324,16.125-57.483c6.774,23.324,13.802,46.578,20.276,69.984c19.355,69.977,38.495,140.013,57.719,210.025
		c-1.746-1.98-3.741-3.794-5.202-5.966c-33.628-49.999-67.211-100.028-100.74-150.094
		C1668.074,1703.497,1666.999,1700.664,1665.659,1698.007z"/>
</g>
</svg>
