<?xml version="1.0" encoding="utf-8"?>
<!-- Generator: Adobe Illustrator 16.0.0, SVG Export Plug-In . SVG Version: 6.00 Build 0)  -->
<!DOCTYPE svg PUBLIC "-//W3C//DTD SVG 1.1//EN" "http://www.w3.org/Graphics/SVG/1.1/DTD/svg11.dtd">
<svg version="1.1" id="Layer_1" xmlns="http://www.w3.org/2000/svg" xmlns:xlink="http://www.w3.org/1999/xlink" x="0px" y="0px"
	 width="800px" height="600px" viewBox="0 0 800 600" style="enable-background:new 0 0 800 600;" xml:space="preserve">
<style type="text/css">
<![CDATA[
	.st0{fill:none;stroke:#FFFFFF;stroke-miterlimit:10;}
	.st1{fill-rule:evenodd;clip-rule:evenodd;fill:none;stroke:#FFFFFF;stroke-miterlimit:10;}
]]>
</style>
<image style="display:none;overflow:visible;" width="320" height="227" xlink:href="New PA Web/img/pa.png"  transform="matrix(0.24 0 0 0.24 362 273)">
</image>
<g>
	<path class="st0" d="M233.16,32.4c177.28,0,354.561,0,531.841,0c0,178.88,0,357.76,0,536.641c-188,0-376,0-564.001,0
		c1.753-1.321,3.275-2.773,3.481-5.165c0.3-3.468-1.286-5.238-4.755-5.221c-0.142,0-0.284-0.125-0.58-0.265
		c-0.599-1.751-1.236-3.612-1.958-5.72c3.431-1.092,6.668-2.122,10.139-3.228c0.728,2.035,1.386,3.875,2.035,5.69
		c-0.646,0.571-1.281,0.905-1.558,1.429c-0.427,0.808-0.902,1.766-0.84,2.623c0.235,3.262,3.586,5.615,6.921,5.028
		c2.785-0.489,4.881-3.845,4.262-6.82c-0.57-2.736-1.594-3.534-4.485-3.521c-0.217,0.001-0.435-0.127-0.752-0.227
		c-0.582-1.694-1.169-3.409-1.848-5.388c22.935-7.206,45.692-14.356,68.578-21.547c0.456,0.806,0.797,1.517,1.233,2.164
		c2.318,3.441,4.392,7.093,7.046,10.257c8.134,9.696,18.653,14.473,31.345,14.516c9.488,0.032,18.134-2.674,26.026-7.822
		c3.078-2.008,6.032-4.213,8.961-6.436c3.275-2.483,6.698-3.278,10.519-1.393c0.118,0.059,0.303-0.02,0.63-0.05
		c0.404-0.517,0.879-1.124,1.307-1.669c-0.447-0.901-0.83-1.604-1.152-2.332c-1.687-3.821-1.08-6.738,2.141-9.423
		c1.341-1.117,2.821-2.135,4.38-2.911c8.98-4.471,18.552-6.387,28.54-6.182c3.277,0.067,6.537,0.558,9.553,2.026
		c4.042,1.971,5.895,5.315,5.389,9.748c-0.062,0.542-0.156,1.079-0.258,1.769c0.776,0.273,1.488,0.524,2.127,0.75
		c0.727-0.733,1.26-1.333,1.855-1.861c3.034-2.695,6.492-4.019,10.595-3.219c1.02,0.198,2.045,0.366,3.07,0.529
		c4.652,0.742,9.282,1.737,13.964,2.165c11.159,1.021,21.607-1.608,31.349-7.008c6.337-3.512,11.398-8.486,15.411-14.5
		c0.751-1.126,1.531-1.756,2.911-1.571c0.629,0.085,1.278,0.015,1.918,0.015c48.637,0,97.272,0.003,145.909-0.014
		c1.994-0.001,4.011-0.038,5.979-0.323c10.52-1.526,18.841-6.712,25.074-15.295c1.077-1.484,1.743-1.746,3.423-1.058
		c0.947,0.389,1.813,1.002,2.663,1.591c1.314,0.91,2.59,1.877,3.87,2.835c4.398,3.29,8.918,3.379,13.686,0.749
		c6.119-3.375,11.526-7.484,15.137-13.628c0.77-1.309,1.659-2.546,2.442-3.848c6.94-11.533,12.855-23.58,17.869-36.063
		c0.947-2.356,1.612-4.857,2.127-7.349c2.718-13.148,5.36-26.312,7.996-39.476c0.674-3.369,1.439-6.739,1.795-10.147
		c0.758-7.247-5.451-13.049-12.436-11.793c-0.566,0.936-0.177,1.589,0.584,2.232c0.789,0.667,1.578,1.369,2.217,2.177
		c2.171,2.744,1.698,5.354-1.479,6.866c-1.762,0.84-3.774,1.312-5.724,1.567c-3.862,0.508-7.639-0.344-11.386-1.215
		c-11.472-2.668-22.534-6.612-33.521-10.788c-2.591-0.985-2.597-0.997-2.598-3.764c-0.003-27.838-0.002-55.676,0.004-83.513
		c0-0.764,0.08-1.527,0.148-2.759c0.913,0.875,1.55,1.35,2.017,1.955c2.291,2.972,4.841,5.801,6.723,9.018
		c2.371,4.053,4.183,8.433,6.237,12.67c1.044,2.152,1.938,4.397,3.18,6.429c1.365,2.233,3.392,3.767,6.127,4.283
		c0.257-0.396,0.523-0.699,0.674-1.053c0.781-1.838,0.787-3.734,0.335-5.646c-0.895-3.784-2.614-7.211-4.689-10.455
		c-1.854-2.896-3.842-5.703-5.766-8.554c-2.378-3.523-4.533-7.169-5.803-11.258c-0.487-1.57-0.816-3.188-1.129-4.431
		c2.951-1.541,5.584-2.841,8.14-4.28c1.337-0.752,2.422-0.96,3.979-0.285c6.285,2.727,13.038,1.09,17.085-3.982
		c0.854,0.494,1.727,0.999,2.346,1.356c2.082-1.127,3.932-2.128,5.872-3.178c-0.33-0.525-0.75-1.101-1.072-1.728
		c-0.605-1.18-0.386-1.795,0.872-2.187c0.829-0.258,1.732-0.271,2.583-0.476c0.5-0.121,1.05-0.299,1.422-0.628
		c0.954-0.842,1.923-1.704,2.693-2.705c0.705-0.916,1.411-1.97,1.652-3.065c0.242-1.101,0.661-1.831,1.518-2.533
		c3.439-2.819,5.356-6.646,6.986-10.523c-0.8-1.489-2.101-1.719-3.312-2.089c-1.067-0.326-2.189-0.52-3.203-0.964
		c-1.728-0.757-1.808-1.316-0.63-2.827c0.903-1.159,0.899-1.633-0.283-2.546c-0.613-0.474-1.37-0.942-2.11-1.036
		c-1.489-0.189-3.014-0.188-4.521-0.142c-1.835,0.057-3.665,0.259-5.499,0.364c-2.419,0.138-4.564-0.646-6.509-2.036
		c-0.78-0.558-1.514-1.184-2.311-1.717c-6.045-4.043-12.686-5.952-19.965-5.421c-1.509,0.11-2.995,0.493-4.499,0.706
		c-1.915,0.271-3.698-0.197-5.181-1.388c-0.622-0.5-1.277-1.395-1.298-2.127c-0.066-2.379,0.607-4.479,2.733-6.003
		c2.328-1.669,4.64-3.416,6.688-5.405c2.288-2.222,4.318-4.719,6.382-7.163c4.132-4.893,9.166-8.398,15.314-10.28
		c8.033-2.459,15.346-6.403,22.191-11.18c6.295-4.392,12.462-8.973,18.563-13.63c1.334-1.018,2.545-2.565,3.132-4.125
		c1.612-4.281,2.862-8.698,4.284-13.146c-1.43-0.003-2.809,1.29-4.323-0.232c0.473-0.874,0.975-1.8,1.703-3.146
		c-0.892,0.146-1.543,0.054-1.801,0.329c-1.021,1.091-2.222,2.167-2.791,3.492c-0.842,1.958-1.309,4.101-1.749,6.203
		c-1.398,6.669-1.345,6.715-7.422,10.035c-3.577,1.954-7.293,3.658-10.835,5.67c-2.42,1.375-4.945,2.787-6.892,4.718
		c-3.126,3.102-6.726,5.073-10.882,6.232c-3.862,1.077-7.558,2.55-11.104,4.45c-1.454,0.78-3.104,1.288-4.725,1.635
		c-1.597,0.341-3.059-0.188-4.235-1.5c1.33-1.502,3.005-1.901,4.555-2.472c2.053-0.756,3.514-2.008,4.565-3.978
		c0.688-1.29,1.924-2.282,2.876-3.439c0.695-0.845,1.518-1.657,1.943-2.633c0.538-1.234,1.21-2.246,2.385-2.882
		c1.438-0.779,2.052-2.078,1.946-3.584c-0.097-1.403-0.278-2.911-0.885-4.146c-1.709-3.476-4.204-6.195-8.118-7.321
		c-1.06-0.305-2.189-0.701-3.025-1.377c-1.593-1.291-3.298-1.387-5.187-1.146c-2.561,0.327-4.627,1.709-6.732,3.005
		c-1.225,0.754-2.325,0.991-3.782,0.432c-2.669-1.025-4.44-0.246-5.774,2.272c-0.483,0.911-0.848,1.9-1.149,2.889
		c-0.606,1.984-1.132,3.994-1.71,6.062c0.252,0.291,0.523,0.576,0.762,0.887c0.242,0.317,0.434,0.672,0.676,0.988
		c0.994,1.301,1.459,1.436,3.088,0.857c0.677-0.24,1.315-0.627,2.008-0.771c0.458-0.096,0.98,0.123,1.598,0.22
		c-0.851,2.658-0.631,5.104-0.245,7.565c0.309,1.974,0.519,3.965-0.841,5.558c-3.107,0.49-5.998,0.345-8.968,0.062
		c-3.789-0.36-7.662-0.07-11.483,0.183c-6.451,0.426-12.783,0.521-18.611-2.994c-2.012-1.213-4.373-1.409-6.697-1.656
		c-2.934-0.312-5.874-0.678-8.762-1.266c-2.892-0.588-5.711-1.523-8.582-2.224c-5.399-1.315-10.227-0.64-14.318,3.639
		c-1.681,1.758-3.988,2.909-5.97,4.391c-1.271,0.952-2.668,1.845-3.637,3.061c-0.856,1.074-1.679,1.469-2.995,1.465
		c-12-0.038-23.998-0.02-35.998-0.03c-0.68,0-1.359-0.115-1.965-0.17c-0.088-0.378-0.152-0.53-0.153-0.682
		c0-0.238,0.019-0.482,0.071-0.714c2.032-8.991,0.19-17.476-3.488-25.671c-2.07-4.613-5.112-8.482-9.538-11.114
		c-0.276-0.164-0.613-0.225-0.922-0.334c0.121-0.2,0.243-0.4,0.365-0.601c3.453-0.533,6.918-1.003,10.358-1.611
		c13.573-2.396,27.235-3.774,41.029-3.775c6.236,0,12.453-0.059,18.649,1.019c8.489,1.477,14.742,5.823,18.601,13.562
		c0.571,1.144,1.173,2.277,1.837,3.369c0.871,1.433,1.71,2.908,2.764,4.201c0.896,1.098,1.971,2.125,3.153,2.896
		c2.42,1.578,4.249,1.108,5.437-1.559c0.898-2.019,1.639-4.209,1.906-6.39c1.479-12.032,1.376-24.101,0.35-36.162
		c-0.87-10.217-2.965-20.238-5.163-30.231c-1.186-5.393-2.748-10.697-5.221-15.658c-1.026-2.058-2.233-4.091-3.701-5.849
		c-2.757-3.303-5.374-3.1-7.691,0.484c-0.989,1.531-1.834,3.209-2.429,4.93c-1.095,3.167-2.22,6.363-2.858,9.64
		c-1.396,7.159-5.124,12.852-10.403,17.653c-5.386,4.899-11.345,9.04-18.456,10.818c-26.9,6.727-53.774,13.589-80.811,19.729
		c-31.168,7.079-62.496,13.452-93.758,20.117c-2.716,0.579-5.456,1.048-8.395,1.608c-0.418-2.043-0.797-3.891-1.174-5.73
		c-2.1-1.104-4.311-0.29-6.655-0.629c-0.339-2.883-0.679-5.779-1.015-8.638c0.914-0.508,1.605-0.897,2.301-1.276
		c0.906-0.493,1.443-1.095,1.306-2.281c-0.138-1.178-0.781-1.668-1.776-1.953c-3.204-0.918-6.152-0.284-8.958,1.409
		c-0.94,0.567-1.298,1.251-1.155,2.359c0.146,1.134,0.658,1.71,1.788,1.868c0.77,0.107,1.519,0.368,2.346,0.577
		c0.581,2.964,1.145,5.841,1.73,8.829c-1.829,0.644-3.451,1.214-5.168,1.819c0.371,2.312,0.708,4.408,1.075,6.7
		c-1.806,0.33-3.405,0.622-5.1,0.931c-0.457-2.318-0.856-4.339-1.251-6.341c-2.062-1.033-4.191-0.283-6.405-0.612
		c-0.326-2.853-0.65-5.681-0.979-8.553c0.832-0.511,1.559-0.989,2.316-1.416c0.797-0.449,1.052-1.061,0.957-1.985
		c-0.103-0.991-0.465-1.62-1.433-1.957c-2.817-0.982-5.546-0.703-8.122,0.672c-2.174,1.161-3.075,1.177-1.716,4.584
		c1.209,0.254,2.515,0.529,3.928,0.826c0.543,2.915,1.077,5.783,1.609,8.645c-1.936,0.668-3.582,1.236-5.368,1.853
		c0.374,2.469,0.726,4.801,1.11,7.339c-2.035,0.404-3.862,0.766-5.826,1.156c-0.477-2.405-0.89-4.489-1.354-6.831
		c-2.195,0-4.231,0-6.361,0c-0.381-3.194-0.728-6.098-1.062-8.901c1.03-0.553,1.815-0.95,2.575-1.389
		c0.782-0.452,1.446-0.938,1.242-2.064c-0.193-1.063-0.682-1.7-1.724-2.038c-2.849-0.924-5.521-0.461-8.108,0.887
		c-2.345,1.222-2.415,1.406-1.579,4.255c0.705,0.175,1.465,0.438,2.246,0.537c0.827,0.105,1.33,0.45,1.486,1.281
		c0.499,2.653,1.005,5.305,1.526,8.048c-1.855,0.655-3.558,1.256-5.36,1.893c0.399,2.506,0.77,4.834,1.166,7.323
		c-12.199,2.456-24.156,4.863-36.163,7.279c-0.535-0.753-1.009-1.387-1.449-2.044c-3.11-4.655-6.212-9.315-9.318-13.972
		c-11.316-16.965-22.63-33.932-33.951-50.894c-0.667-1-1.281-1.961-1.32-3.263c-0.135-4.476-0.479-8.948-0.52-13.424
		c-0.018-1.881,0.105-3.97,0.903-5.604c1.304-2.672,0.756-4.527-1.393-6.236c-0.311-0.247-0.553-0.577-0.837-0.858
		c-8.013-7.949-16.327-15.561-25.208-22.54c-0.489-0.384-0.931-0.827-1.403-1.25c0.25-0.632,0.452-1.147,0.656-1.663
		c3.399-8.562-0.854-17.556-9.628-20.38C234.439,32.981,233.808,32.667,233.16,32.4z"/>
	<path class="st1" d="M9.48,354.48c0-107.36,0-214.72,0-322.081c72.96,0,145.92,0,218.88,0c-0.735,0.279-1.461,0.591-2.208,0.833
		c-8.298,2.682-12.694,11.31-9.94,19.544c0.532,1.592,1.102,3.171,1.644,4.759c0.507,1.485,1,2.975,1.557,4.637
		c-1.438,0.424-2.63,0.776-3.75,1.106c-3.079-3.931-2.646-3.259-6.674-2.125c-0.385,0.108-0.771,0.211-1.154,0.322
		c-1.146,0.332-1.715,1.149-1.796,2.287c-0.19,2.653,0.46,5.089,2.106,7.197c0.738,0.946,1.703,1.43,2.957,0.944
		c0.52-0.202,1.073-0.314,1.608-0.477c3.598-1.098,3.596-1.099,3.665-4.769c0.003-0.149,0.099-0.296,0.209-0.606
		c1.171-0.353,2.435-0.733,3.871-1.166c1.286,3.598,2.48,6.94,3.735,10.449c-1.481,0.445-2.683,0.807-3.937,1.183
		c-0.434-0.622-0.79-1.14-1.153-1.653c-0.76-1.075-1.757-1.745-3.072-1.208c-1.831,0.749-4.318,0.32-5.226,2.778
		c-0.133,0.361-0.177,0.802-0.113,1.182c0.237,1.407,0.335,2.884,0.853,4.189c1.366,3.451,2.304,3.833,5.845,2.82
		c3.505-1.001,3.572-1.09,3.706-4.756c0.005-0.146,0.12-0.288,0.271-0.629c1.134-0.34,2.4-0.719,3.819-1.145
		c0.678,1.864,1.277,3.503,1.872,5.145c0.615,1.695,1.226,3.39,1.872,5.177c-0.848,0.291-1.437,0.521-2.041,0.694
		c-0.669,0.191-1.353,0.332-1.984,0.484c-0.263-0.342-0.417-0.52-0.547-0.714c-1.62-2.417-2.007-2.567-4.727-1.778
		c-0.844,0.245-1.683,0.509-2.517,0.784c-1.12,0.37-1.65,1.181-1.721,2.339c-0.158,2.58,0.551,4.91,2.054,6.99
		c0.768,1.062,1.77,1.596,3.12,1.025c0.439-0.186,0.912-0.294,1.371-0.435c3.713-1.137,3.711-1.137,3.848-4.875
		c0.005-0.142,0.132-0.28,0.269-0.552c1.186-0.355,2.464-0.739,3.938-1.181c1.333,3.502,2.597,6.819,3.943,10.355
		c-1.621,0.51-2.952,0.929-4.326,1.361c-0.406-0.628-0.688-1.104-1.009-1.552c-1.126-1.569-1.79-1.794-3.667-1.263
		c-0.384,0.109-0.76,0.248-1.142,0.365c-3.714,1.135-4.154,1.833-3.508,5.67c0.092,0.548,0.25,1.092,0.441,1.615
		c1.36,3.74,2.508,4.307,6.286,3.135c3.356-1.04,3.398-1.102,3.403-4.698c0-0.141,0.123-0.281,0.279-0.618
		c1.284-0.393,2.705-0.828,4.264-1.305c0.905,2.073,1.778,3.944,2.54,5.859c0.717,1.803,1.896,3.119,3.641,3.948
		c3.825,1.817,7.63,3.679,11.483,5.437c1.066,0.486,1.865,1.114,2.515,2.089c12.548,18.836,25.12,37.656,37.68,56.484
		c0.381,0.572,0.688,1.194,1.137,1.979c-4.134,0.575-8.001,1.065-11.852,1.66c-4.843,0.748-9.591,1.903-13.865,4.39
		c-1.599,0.931-3.172,1.268-4.986,1.267c-38.479-0.033-76.958-0.044-115.436,0.014c-3.016,0.004-6.098,0.246-9.036,0.893
		c-16.935,3.732-28.665,19.197-28.564,35.968c0.149,24.878,0.039,49.758,0.039,74.637c0,22.079,0,44.158-0.003,66.237
		c0,0.825-0.043,1.65-0.08,2.97c-1.31-1.32-2.154-2.273-3.104-3.107c-2.532-2.223-5.467-3.259-8.857-2.781
		c-5.492,0.773-11.417,6.818-11.901,12.346c-0.515,5.888,1.304,10.874,6.156,14.532c1.597,1.204,3.228,2.365,4.771,3.634
		c1.58,1.299,1.547,1.815-0.034,3.195c-0.601,0.524-1.238,1.021-1.913,1.443c-1.691,1.062-3.373,2.151-5.134,3.089
		c-2.486,1.324-3.927,3.297-3.909,6.118c0.013,2.225-0.038,4.524,0.493,6.652c0.828,3.318,2.1,6.528,3.23,9.769
		c0.736,2.11,1.638,4.167,2.309,6.297c0.66,2.094,0.757,4.271,0.017,6.375c-1.776,5.048-4.698,9.226-9.346,12.073
		c-1.086,0.666-2.113,1.438-3.122,2.22c-0.867,0.672-1.128,1.517-0.461,2.514c0.311,0.464,0.553,0.976,0.872,1.434
		c1.55,2.229,3.513,2.729,5.756,1.147c1.614-1.138,3.355-2.414,4.345-4.05c1.825-3.016,4.213-5.391,6.832-7.633
		c0.725-0.62,1.299-1.413,1.98-2.089c2.87-2.849,4.149-6.159,3.207-10.229c-0.321-1.385-0.234-2.823,0.244-4.222
		c1.511,0.593,1.72,0.589,2.211,1.714c0.826,1.893,1.479,3.862,2.167,5.813c0.821,2.326,1.484,4.717,2.447,6.981
		c0.548,1.29,0.851,2.523,0.845,3.912c-0.033,7.6-0.07,15.2-0.002,22.799c0.093,10.385,4.046,19.153,11.552,26.248
		c7.187,6.793,15.85,9.989,25.731,9.986c40.798-0.011,81.597-0.004,122.396-0.004c1.005,0,2.01,0,3.08,0
		c0.388,2.368,0.721,4.397,1.088,6.635c-24.034,9.234-47.947,18.422-72.146,27.719c-0.703-2.072-1.328-3.914-1.923-5.669
		c2.24-1.786,2.431-2.055,2.456-3.321c0.064-3.289-2.856-5.963-6.319-5.785c-3.01,0.153-5.498,3.285-5.086,6.402
		c0.34,2.573,1.63,3.729,4.279,3.852c0.301,0.014,0.599,0.093,1.012,0.16c0.65,1.896,1.284,3.744,1.97,5.745
		c-3.139,1.181-6.009,2.261-9.036,3.399c-0.696-2.049-1.274-3.751-1.826-5.376c1.212-1.034,2.507-1.645,2.509-3.303
		c0.002-2.166-1.351-4.332-3.506-5.31c-2.07-0.939-4.09-0.89-5.812,0.699c-1.756,1.622-2.605,3.627-1.877,6.052
		c0.672,2.238,1.554,2.896,3.961,3.071c0.311,0.023,0.62,0.079,1.075,0.139c0.624,1.781,1.25,3.567,1.866,5.327
		c-2.017,1.839-4.11,2.742-6.874,1.98c-0.25-0.621-0.476-1.392-0.859-2.073c-0.293-0.52-0.715-1.212-1.203-1.332
		c-2.298-0.565-4.532-0.463-6.511,1.15c0.336,1.095,0.614,1.996,0.95,3.088c-0.711,0.509-1.416,1.013-1.938,1.387
		c0.178,1.053,0.293,1.729,0.411,2.421c-1.835,1.061-3.553,2.053-5.435,3.14c0.77,2.205,1.496,4.283,2.262,6.476
		c2.223-0.31,4.253-0.594,6.271-0.875c0.414,0.776,0.745,1.397,1.073,2.015c0.847,0.086,1.63,0.166,2.401,0.244
		c0.465,0.995,0.891,1.904,1.311,2.801c1.948-0.126,3.396-0.919,4.708-2c1.149-0.947,1.762-2.043,0.949-3.557
		c-0.255-0.474-0.314-1.052-0.521-1.787c1.025-0.731,1.954-1.8,3.095-2.124c2.503-0.713,5.113-1.048,7.835-1.566
		c0.703,1.992,1.382,3.919,2.032,5.763c-3.357,2.97-3.074,6.158,0.562,8.494c0.325,0.209,0.626,0.457,0.938,0.688
		c-62.56,0-125.12,0-187.68,0c0-70.4,0-140.801,0-211.201c0.403,0.564,0.863,1.096,1.2,1.697c1.723,3.08,5.023,4.587,8.29,3.748
		c3.359-0.863,5.656-3.77,5.649-7.149c-0.006-3.383-2.32-6.311-5.655-7.157c-3.231-0.819-6.575,0.717-8.296,3.777
		C10.328,353.362,9.879,353.907,9.48,354.48z M117.411,139.037c-1.208-0.209-2.049-0.127-2.385,1.096
		c-0.38,1.385-0.928,2.741-1.148,4.15c-0.9,5.756,0.069,10.991,4.527,15.172c2.201,2.064,4.831,3.362,7.618,4.425
		c8.784,3.352,17.864,4.181,27.132,3.077c4.739-0.564,8.954,0.372,12.991,2.991c3.61,2.343,7.439,4.381,11.303,6.288
		c2.708,1.336,5.599,2.346,8.482,3.271c1.968,0.632,2.979-0.285,3.173-2.355c0.141-1.498-0.667-2.584-1.467-3.688
		c-1.924-2.653-3.86-5.296-5.765-7.962c-0.344-0.481-0.565-1.049-0.858-1.607c0.392-0.19,0.592-0.333,0.814-0.389
		c10.348-2.591,17.895-9.029,23.594-17.703c4.68-7.123,3.645-14.654-2.299-20.767c-2.799-2.879-6.271-4.662-9.914-6.147
		c-7.866-3.207-16.104-4.609-24.557-4.878c-9.406-0.298-18.699,0.402-27.702,3.381c-7.147,2.365-13.672,5.813-19.018,11.236
		c-0.409,0.415-0.708,0.937-1.141,1.52c2.218,0.247,2.14,0.134,3.503-0.815c2.155-1.5,4.329-3.026,6.67-4.19
		c3.957-1.966,8.264-2.911,12.582-3.797c11.719-2.404,23.462-2.856,35.256-0.652c6.003,1.122,11.804,2.862,17.103,5.997
		c2.496,1.477,4.769,3.232,6.458,5.637c2.187,3.113,2.662,6.414,1.164,9.982c-2.157,5.142-5.677,9.017-10.57,11.668
		c-4.304,2.332-8.955,3.336-13.79,3.671c-3.689,0.255-5.014,2.163-3.814,5.631c0.494,1.427,1.279,2.75,1.874,4.146
		c0.353,0.83,0.591,1.708,1.052,3.069c-1.256-0.613-1.983-0.912-2.655-1.307c-3.376-1.983-6.79-3.911-10.081-6.029
		c-1.496-0.962-2.926-1.334-4.698-1.205c-7.028,0.513-14.06,0.571-21.064-0.398c-5.418-0.75-10.686-1.957-15.357-5.023
		C117.855,152.221,115.663,146.931,117.411,139.037z M99.631,194.091c0-1.061-0.042-1.669,0.008-2.271
		c0.15-1.83,0.452-3.656,0.482-5.487c0.052-3.163-1.572-4.542-4.696-4.161c-0.393,0.048-0.783,0.156-1.163,0.274
		c-4.69,1.461-9.461,1.495-14.237,0.631c-4.397-0.795-8.46-2.397-11.699-5.636c-3.831-3.831-4.827-8.896-2.759-13.918
		c1.052-2.554,2.683-4.712,4.586-6.682c3.251-3.366,7.012-6.074,11.082-8.333c11.678-6.484,24.199-10.407,37.456-11.859
		c7.006-0.768,13.931-0.089,20.438,2.82c2.304,1.03,4.526,2.415,6.487,4.005c4.051,3.285,6.489,9.764,3.634,15.381
		c-0.129,0.254-0.1,0.588-0.153,0.942c1.921,0,3.716,0,5.455,0c0.584-2.154,0.617-3.241,0.019-5.336
		c-2.054-7.19-6.354-12.648-12.845-16.338c-7.054-4.011-14.757-5.605-22.779-5.733c-7.408-0.118-14.652,1.102-21.731,3.25
		c-9.237,2.803-18.008,6.596-25.75,12.486c-3.2,2.435-6.155,5.149-8.291,8.584c-2.564,4.125-3.91,8.574-2.768,13.484
		c0.825,3.548,2.805,6.42,5.412,8.88c6.072,5.731,13.486,8.391,21.628,9.301c2.444,0.273,4.908,0.361,7.514,0.545
		c-0.706,3.792-1.498,7.421-3.279,10.779c-1.108,2.088-0.86,3.749,0.519,5.304c0.744,0.838,1.563,1.116,2.533,0.518
		c1.428-0.88,2.874-1.745,4.218-2.743c4.667-3.469,8.555-7.734,11.842-12.479c2.891-4.173,6.779-6.34,11.649-7.238
		c5.601-1.033,11.009-2.742,16.11-5.32c3.229-1.631,6.246-3.579,8.731-6.25c0.403-0.434,0.699-0.966,1.233-1.72
		c-2.572,0-4.79-0.051-7.003,0.036c-0.568,0.022-1.143,0.44-1.677,0.745c-2.84,1.617-5.567,3.472-8.521,4.842
		c-5.896,2.735-12.18,4.346-18.528,5.659c-1.169,0.242-1.953,0.729-2.735,1.654c-2.89,3.414-5.912,6.716-8.899,10.048
		C100.807,193.142,100.37,193.449,99.631,194.091z M43.536,406.491c0.039,4.058,3.307,7.3,7.357,7.298
		c4.004-0.002,7.343-3.323,7.374-7.335c0.032-4.116-3.349-7.419-7.534-7.361C46.639,399.149,43.497,402.379,43.536,406.491z
		 M94.495,291.812c-0.038-4.048-3.349-7.334-7.356-7.302c-4.013,0.033-7.326,3.35-7.354,7.366c-0.029,4.114,3.38,7.453,7.539,7.385
		C91.389,299.193,94.533,295.928,94.495,291.812z M30.084,292c-4.148,0.046-7.213,3.177-7.194,7.348
		c0.02,4.122,3.185,7.278,7.298,7.279c4.157,0,7.518-3.412,7.391-7.504C37.452,295.035,34.211,291.954,30.084,292z"/>
	<path class="st1" d="M197.16,569.041c-0.312-0.23-0.613-0.479-0.938-0.688c-3.635-2.336-3.919-5.524-0.562-8.494
		c-0.65-1.844-1.33-3.771-2.032-5.763c-2.722,0.519-5.333,0.854-7.835,1.566c-1.141,0.324-2.07,1.393-3.095,2.124
		c0.207,0.735,0.267,1.313,0.521,1.787c0.813,1.514,0.201,2.609-0.949,3.557c-1.312,1.081-2.76,1.874-4.708,2
		c-0.419-0.896-0.845-1.806-1.311-2.801c-0.771-0.078-1.554-0.158-2.401-0.244c-0.329-0.617-0.66-1.238-1.073-2.015
		c-2.018,0.281-4.047,0.565-6.271,0.875c-0.766-2.192-1.492-4.271-2.262-6.476c1.882-1.087,3.6-2.079,5.435-3.14
		c-0.117-0.691-0.232-1.368-0.411-2.421c0.522-0.374,1.227-0.878,1.938-1.387c-0.336-1.092-0.614-1.993-0.95-3.088
		c1.979-1.613,4.212-1.716,6.511-1.15c0.487,0.12,0.91,0.812,1.203,1.332c0.384,0.682,0.61,1.452,0.859,2.073
		c2.763,0.762,4.856-0.142,6.874-1.98c-0.616-1.76-1.242-3.546-1.866-5.327c-0.456-0.06-0.764-0.115-1.075-0.139
		c-2.407-0.175-3.289-0.833-3.961-3.071c-0.728-2.425,0.121-4.43,1.877-6.052c1.722-1.589,3.742-1.639,5.812-0.699
		c2.156,0.978,3.508,3.144,3.506,5.31c-0.002,1.658-1.297,2.269-2.509,3.303c0.552,1.625,1.13,3.327,1.826,5.376
		c3.027-1.139,5.897-2.219,9.036-3.399c-0.686-2.001-1.32-3.85-1.97-5.745c-0.414-0.067-0.711-0.146-1.012-0.16
		c-2.649-0.123-3.938-1.278-4.279-3.852c-0.412-3.117,2.076-6.249,5.086-6.402c3.462-0.178,6.383,2.496,6.319,5.785
		c-0.024,1.267-0.216,1.535-2.456,3.321c0.595,1.755,1.22,3.597,1.923,5.669c24.199-9.297,48.112-18.484,72.146-27.719
		c-0.367-2.237-0.7-4.267-1.088-6.635c-1.07,0-2.075,0-3.08,0c-40.799,0-81.597-0.007-122.396,0.004
		c-9.881,0.003-18.544-3.193-25.731-9.986c-7.506-7.095-11.459-15.863-11.552-26.248c-0.068-7.599-0.031-15.199,0.002-22.799
		c0.006-1.389-0.296-2.622-0.845-3.912c-0.963-2.265-1.626-4.655-2.447-6.981c-0.688-1.951-1.341-3.921-2.167-5.813
		c-0.491-1.125-0.7-1.121-2.211-1.714c-0.478,1.398-0.564,2.837-0.244,4.222c0.942,4.069-0.337,7.38-3.207,10.229
		c-0.681,0.676-1.255,1.469-1.98,2.089c-2.619,2.242-5.007,4.617-6.832,7.633c-0.99,1.636-2.73,2.912-4.345,4.05
		c-2.243,1.582-4.206,1.082-5.756-1.147c-0.319-0.458-0.561-0.97-0.872-1.434c-0.667-0.997-0.406-1.842,0.461-2.514
		c1.009-0.782,2.036-1.554,3.122-2.22c4.648-2.848,7.57-7.025,9.346-12.073c0.74-2.104,0.644-4.281-0.017-6.375
		c-0.671-2.13-1.573-4.187-2.309-6.297c-1.13-3.24-2.402-6.45-3.23-9.769c-0.531-2.128-0.48-4.428-0.493-6.652
		c-0.018-2.821,1.423-4.794,3.909-6.118c1.761-0.938,3.442-2.026,5.134-3.089c0.675-0.423,1.312-0.919,1.913-1.443
		c1.582-1.38,1.614-1.896,0.034-3.195c-1.543-1.269-3.175-2.43-4.771-3.634c-4.852-3.658-6.671-8.645-6.156-14.532
		c0.484-5.527,6.409-11.572,11.901-12.346c3.39-0.478,6.325,0.559,8.857,2.781c0.95,0.834,1.793,1.787,3.104,3.107
		c0.037-1.319,0.08-2.145,0.08-2.97c0.003-22.079,0.003-44.158,0.003-66.237c0-24.879,0.111-49.759-0.039-74.637
		c-0.101-16.771,11.63-32.236,28.564-35.968c2.938-0.647,6.02-0.888,9.036-0.893c38.478-0.058,76.957-0.046,115.436-0.014
		c1.814,0.001,3.387-0.336,4.986-1.267c4.274-2.487,9.022-3.643,13.865-4.39c3.851-0.595,7.718-1.085,11.852-1.66
		c-0.449-0.786-0.756-1.407-1.137-1.979c-12.56-18.828-25.132-37.648-37.68-56.484c-0.649-0.975-1.448-1.603-2.515-2.089
		c-3.853-1.758-7.658-3.62-11.483-5.437c-1.745-0.829-2.923-2.145-3.641-3.948c-0.762-1.915-1.635-3.786-2.54-5.859
		c-1.559,0.478-2.979,0.912-4.264,1.305c-0.156,0.337-0.279,0.478-0.279,0.618c-0.005,3.597-0.047,3.658-3.403,4.698
		c-3.778,1.171-4.926,0.604-6.286-3.135c-0.19-0.523-0.349-1.067-0.441-1.615c-0.646-3.837-0.206-4.536,3.508-5.67
		c0.382-0.117,0.757-0.256,1.142-0.365c1.877-0.531,2.541-0.306,3.667,1.263c0.321,0.448,0.603,0.924,1.009,1.552
		c1.374-0.432,2.705-0.851,4.326-1.361c-1.347-3.536-2.61-6.853-3.943-10.355c-1.474,0.442-2.752,0.826-3.938,1.181
		c-0.137,0.272-0.264,0.41-0.269,0.552c-0.137,3.739-0.135,3.739-3.848,4.875c-0.459,0.14-0.931,0.249-1.371,0.435
		c-1.35,0.571-2.352,0.037-3.12-1.025c-1.503-2.08-2.212-4.41-2.054-6.99c0.071-1.159,0.601-1.97,1.721-2.339
		c0.834-0.275,1.673-0.539,2.517-0.784c2.72-0.79,3.107-0.639,4.727,1.778c0.13,0.194,0.284,0.372,0.547,0.714
		c0.632-0.152,1.315-0.292,1.984-0.484c0.604-0.173,1.193-0.403,2.041-0.694c-0.646-1.787-1.257-3.482-1.872-5.177
		c-0.595-1.641-1.193-3.281-1.872-5.145c-1.419,0.425-2.685,0.805-3.819,1.145c-0.151,0.341-0.266,0.483-0.271,0.629
		c-0.134,3.667-0.201,3.755-3.706,4.756c-3.541,1.012-4.479,0.631-5.845-2.82c-0.517-1.306-0.615-2.782-0.853-4.189
		c-0.064-0.379-0.02-0.82,0.113-1.182c0.908-2.458,3.396-2.03,5.226-2.778c1.315-0.538,2.312,0.133,3.072,1.208
		c0.363,0.513,0.719,1.031,1.153,1.653c1.253-0.376,2.455-0.738,3.937-1.183c-1.254-3.509-2.449-6.852-3.735-10.449
		c-1.437,0.433-2.7,0.813-3.871,1.166c-0.11,0.31-0.206,0.458-0.209,0.606c-0.069,3.67-0.067,3.671-3.665,4.769
		c-0.535,0.163-1.088,0.275-1.608,0.477c-1.253,0.486-2.218,0.002-2.957-0.944c-1.646-2.108-2.297-4.544-2.106-7.197
		c0.082-1.138,0.65-1.956,1.796-2.287c0.383-0.111,0.77-0.214,1.154-0.322c4.028-1.133,3.595-1.805,6.674,2.125
		c1.119-0.33,2.312-0.682,3.75-1.106c-0.558-1.662-1.05-3.152-1.557-4.637c-0.542-1.588-1.112-3.167-1.644-4.759
		c-2.754-8.234,1.642-16.862,9.94-19.544c0.748-0.242,1.473-0.553,2.208-0.833c1.6,0,3.2,0,4.8,0
		c0.647,0.268,1.279,0.582,1.943,0.795c8.773,2.824,13.027,11.818,9.628,20.38c-0.204,0.515-0.406,1.031-0.656,1.663
		c0.472,0.423,0.914,0.866,1.403,1.25c8.881,6.979,17.195,14.59,25.208,22.54c0.284,0.282,0.526,0.612,0.837,0.858
		c2.149,1.709,2.697,3.564,1.393,6.236c-0.797,1.634-0.92,3.724-0.903,5.604c0.041,4.476,0.385,8.948,0.52,13.424
		c0.039,1.302,0.653,2.263,1.32,3.263c11.32,16.962,22.635,33.929,33.951,50.894c3.106,4.657,6.208,9.317,9.318,13.972
		c0.439,0.657,0.914,1.291,1.449,2.044c12.006-2.417,23.964-4.824,36.163-7.279c-0.396-2.489-0.767-4.817-1.166-7.323
		c1.802-0.637,3.504-1.238,5.36-1.893c-0.521-2.743-1.027-5.395-1.526-8.048c-0.156-0.832-0.659-1.176-1.486-1.281
		c-0.781-0.099-1.541-0.362-2.246-0.537c-0.836-2.849-0.766-3.034,1.579-4.255c2.587-1.348,5.26-1.811,8.108-0.887
		c1.042,0.338,1.531,0.975,1.724,2.038c0.205,1.126-0.459,1.613-1.242,2.064c-0.76,0.439-1.545,0.836-2.575,1.389
		c0.335,2.804,0.681,5.708,1.062,8.901c2.13,0,4.166,0,6.361,0c0.464,2.341,0.877,4.426,1.354,6.831
		c1.964-0.39,3.791-0.752,5.826-1.156c-0.384-2.538-0.736-4.87-1.11-7.339c1.786-0.616,3.432-1.185,5.368-1.853
		c-0.533-2.862-1.066-5.73-1.609-8.645c-1.413-0.297-2.719-0.572-3.928-0.826c-1.359-3.408-0.458-3.424,1.716-4.584
		c2.576-1.375,5.305-1.654,8.122-0.672c0.968,0.337,1.33,0.966,1.433,1.957c0.095,0.924-0.159,1.536-0.957,1.985
		c-0.757,0.426-1.484,0.904-2.316,1.416c0.329,2.872,0.652,5.7,0.979,8.553c2.213,0.329,4.343-0.421,6.405,0.612
		c0.395,2.001,0.794,4.023,1.251,6.341c1.695-0.31,3.294-0.602,5.1-0.931c-0.368-2.292-0.704-4.388-1.075-6.7
		c1.717-0.604,3.339-1.175,5.168-1.819c-0.586-2.988-1.15-5.865-1.73-8.829c-0.827-0.209-1.576-0.47-2.346-0.577
		c-1.13-0.157-1.642-0.733-1.788-1.868c-0.144-1.107,0.215-1.792,1.155-2.359c2.806-1.693,5.753-2.327,8.958-1.409
		c0.995,0.285,1.639,0.775,1.776,1.953c0.138,1.186-0.399,1.788-1.306,2.281c-0.695,0.379-1.387,0.768-2.301,1.276
		c0.336,2.859,0.676,5.755,1.015,8.638c2.345,0.339,4.556-0.475,6.655,0.629c0.377,1.839,0.756,3.687,1.174,5.73
		c2.938-0.56,5.679-1.029,8.395-1.608c31.262-6.665,62.59-13.038,93.758-20.117c27.036-6.14,53.91-13.002,80.811-19.729
		c7.111-1.778,13.07-5.919,18.456-10.818c5.279-4.801,9.007-10.494,10.403-17.653c0.639-3.276,1.764-6.473,2.858-9.64
		c0.595-1.72,1.439-3.399,2.429-4.93c2.317-3.583,4.935-3.787,7.691-0.484c1.468,1.758,2.675,3.791,3.701,5.849
		c2.473,4.961,4.035,10.266,5.221,15.658c2.198,9.993,4.293,20.014,5.163,30.231c1.026,12.061,1.13,24.13-0.35,36.162
		c-0.268,2.181-1.008,4.372-1.906,6.39c-1.188,2.667-3.017,3.137-5.437,1.559c-1.183-0.771-2.258-1.798-3.153-2.896
		c-1.054-1.292-1.893-2.768-2.764-4.201c-0.664-1.092-1.266-2.225-1.837-3.369c-3.858-7.739-10.111-12.085-18.601-13.562
		c-6.196-1.078-12.413-1.02-18.649-1.019c-13.794,0.001-27.456,1.378-41.029,3.775c-3.44,0.608-6.905,1.078-10.358,1.611
		c-0.122,0.201-0.244,0.401-0.365,0.601c0.309,0.109,0.646,0.17,0.922,0.334c4.426,2.632,7.468,6.5,9.538,11.114
		c3.679,8.195,5.521,16.68,3.488,25.671c-0.053,0.232-0.071,0.476-0.071,0.714c0.001,0.152,0.065,0.304,0.153,0.682
		c0.605,0.055,1.285,0.169,1.965,0.17c12,0.011,23.998-0.007,35.998,0.03c1.316,0.004,2.139-0.391,2.995-1.465
		c0.969-1.215,2.365-2.109,3.637-3.061c1.981-1.482,4.289-2.633,5.97-4.391c4.092-4.279,8.919-4.955,14.318-3.639
		c2.871,0.7,5.69,1.636,8.582,2.224c2.888,0.587,5.828,0.953,8.762,1.266c2.324,0.248,4.686,0.443,6.697,1.656
		c5.828,3.515,12.16,3.42,18.611,2.994c3.821-0.252,7.694-0.542,11.483-0.183c2.97,0.282,5.86,0.428,8.968-0.062
		c1.359-1.592,1.149-3.583,0.841-5.558c-0.386-2.461-0.605-4.907,0.245-7.565c-0.617-0.097-1.14-0.315-1.598-0.22
		c-0.692,0.144-1.331,0.531-2.008,0.771c-1.629,0.579-2.094,0.444-3.088-0.857c-0.242-0.316-0.434-0.671-0.676-0.988
		c-0.238-0.311-0.51-0.596-0.762-0.887c0.578-2.068,1.104-4.078,1.71-6.062c0.302-0.989,0.666-1.978,1.149-2.889
		c1.334-2.518,3.105-3.297,5.774-2.272c1.457,0.56,2.558,0.322,3.782-0.432c2.105-1.295,4.172-2.678,6.732-3.005
		c1.889-0.241,3.594-0.146,5.187,1.146c0.836,0.677,1.966,1.073,3.025,1.377c3.914,1.126,6.409,3.845,8.118,7.321
		c0.606,1.235,0.788,2.744,0.885,4.146c0.105,1.506-0.508,2.806-1.946,3.584c-1.175,0.636-1.847,1.648-2.385,2.882
		c-0.426,0.976-1.248,1.788-1.943,2.633c-0.952,1.157-2.188,2.149-2.876,3.439c-1.052,1.97-2.513,3.221-4.565,3.978
		c-1.55,0.571-3.225,0.97-4.555,2.472c1.177,1.313,2.639,1.842,4.235,1.5c1.621-0.347,3.271-0.855,4.725-1.635
		c3.546-1.9,7.241-3.373,11.104-4.45c4.156-1.159,7.756-3.13,10.882-6.232c1.946-1.931,4.472-3.343,6.892-4.718
		c3.542-2.012,7.258-3.716,10.835-5.67c6.077-3.32,6.023-3.366,7.422-10.035c0.44-2.103,0.907-4.245,1.749-6.203
		c0.569-1.325,1.77-2.401,2.791-3.492c0.258-0.275,0.909-0.184,1.801-0.329c-0.729,1.346-1.23,2.272-1.703,3.146
		c1.515,1.522,2.894,0.229,4.323,0.232c-1.422,4.449-2.672,8.866-4.284,13.146c-0.587,1.56-1.798,3.107-3.132,4.125
		c-6.102,4.657-12.269,9.238-18.563,13.63c-6.846,4.777-14.158,8.721-22.191,11.18c-6.148,1.882-11.183,5.387-15.314,10.28
		c-2.063,2.444-4.094,4.94-6.382,7.163c-2.049,1.99-4.36,3.736-6.688,5.405c-2.126,1.524-2.8,3.624-2.733,6.003
		c0.021,0.732,0.676,1.627,1.298,2.127c1.482,1.191,3.266,1.66,5.181,1.388c1.504-0.213,2.99-0.596,4.499-0.706
		c7.279-0.531,13.92,1.378,19.965,5.421c0.797,0.533,1.53,1.159,2.311,1.717c1.944,1.39,4.09,2.174,6.509,2.036
		c1.834-0.104,3.664-0.307,5.499-0.364c1.507-0.046,3.031-0.047,4.521,0.142c0.74,0.094,1.497,0.562,2.11,1.036
		c1.183,0.913,1.187,1.388,0.283,2.546c-1.178,1.511-1.098,2.07,0.63,2.827c1.014,0.444,2.136,0.638,3.203,0.964
		c1.212,0.37,2.513,0.6,3.312,2.089c-1.63,3.877-3.547,7.704-6.986,10.523c-0.856,0.703-1.275,1.433-1.518,2.533
		c-0.241,1.095-0.947,2.149-1.652,3.065c-0.771,1.001-1.739,1.863-2.693,2.705c-0.372,0.329-0.922,0.507-1.422,0.628
		c-0.851,0.205-1.754,0.218-2.583,0.476c-1.258,0.392-1.478,1.007-0.872,2.187c0.322,0.626,0.742,1.203,1.072,1.728
		c-1.94,1.05-3.79,2.051-5.872,3.178c-0.619-0.358-1.491-0.862-2.346-1.356c-4.047,5.072-10.8,6.708-17.085,3.982
		c-1.558-0.675-2.643-0.467-3.979,0.285c-2.556,1.439-5.188,2.739-8.14,4.28c0.312,1.243,0.642,2.861,1.129,4.431
		c1.27,4.089,3.425,7.735,5.803,11.258c1.924,2.851,3.912,5.658,5.766,8.554c2.075,3.244,3.795,6.671,4.689,10.455
		c0.452,1.912,0.446,3.809-0.335,5.646c-0.15,0.354-0.417,0.657-0.674,1.053c-2.735-0.517-4.762-2.05-6.127-4.283
		c-1.242-2.031-2.136-4.276-3.18-6.429c-2.055-4.237-3.866-8.617-6.237-12.67c-1.882-3.217-4.432-6.045-6.723-9.018
		c-0.467-0.605-1.104-1.08-2.017-1.955c-0.068,1.232-0.148,1.996-0.148,2.759c-0.006,27.837-0.007,55.675-0.004,83.513
		c0.001,2.767,0.007,2.778,2.598,3.764c10.987,4.176,22.05,8.12,33.521,10.788c3.747,0.871,7.523,1.723,11.386,1.215
		c1.949-0.256,3.962-0.728,5.724-1.567c3.178-1.513,3.65-4.122,1.479-6.866c-0.639-0.808-1.428-1.51-2.217-2.177
		c-0.761-0.644-1.15-1.297-0.584-2.232c6.984-1.256,13.193,4.546,12.436,11.793c-0.355,3.408-1.121,6.778-1.795,10.147
		c-2.636,13.164-5.278,26.327-7.996,39.476c-0.515,2.491-1.18,4.992-2.127,7.349c-5.014,12.483-10.929,24.53-17.869,36.063
		c-0.783,1.302-1.673,2.539-2.442,3.848c-3.61,6.144-9.018,10.253-15.137,13.628c-4.768,2.63-9.287,2.541-13.686-0.749
		c-1.28-0.958-2.556-1.925-3.87-2.835c-0.85-0.589-1.716-1.202-2.663-1.591c-1.68-0.688-2.346-0.427-3.423,1.058
		c-6.233,8.583-14.555,13.769-25.074,15.295c-1.968,0.285-3.984,0.322-5.979,0.323c-48.637,0.017-97.272,0.014-145.909,0.014
		c-0.64,0-1.289,0.07-1.918-0.015c-1.38-0.185-2.16,0.445-2.911,1.571c-4.013,6.014-9.074,10.988-15.411,14.5
		c-9.741,5.399-20.189,8.028-31.349,7.008c-4.682-0.428-9.312-1.423-13.964-2.165c-1.025-0.163-2.051-0.331-3.07-0.529
		c-4.103-0.8-7.561,0.523-10.595,3.219c-0.596,0.528-1.129,1.128-1.855,1.861c-0.639-0.226-1.351-0.477-2.127-0.75
		c0.102-0.689,0.195-1.227,0.258-1.769c0.506-4.433-1.347-7.777-5.389-9.748c-3.016-1.469-6.275-1.959-9.553-2.026
		c-9.988-0.205-19.56,1.711-28.54,6.182c-1.56,0.776-3.04,1.794-4.38,2.911c-3.221,2.685-3.828,5.602-2.141,9.423
		c0.322,0.729,0.705,1.431,1.152,2.332c-0.427,0.545-0.903,1.152-1.307,1.669c-0.327,0.03-0.512,0.108-0.63,0.05
		c-3.821-1.886-7.244-1.091-10.519,1.393c-2.929,2.223-5.884,4.428-8.961,6.436c-7.893,5.148-16.538,7.854-26.026,7.822
		c-12.692-0.043-23.211-4.819-31.345-14.516c-2.654-3.164-4.728-6.815-7.046-10.257c-0.436-0.647-0.778-1.358-1.233-2.164
		c-22.886,7.19-45.643,14.341-68.578,21.547c0.679,1.979,1.267,3.693,1.848,5.388c0.317,0.1,0.535,0.228,0.752,0.227
		c2.891-0.013,3.915,0.785,4.485,3.521c0.62,2.976-1.477,6.331-4.262,6.82c-3.335,0.587-6.686-1.767-6.921-5.028
		c-0.062-0.857,0.414-1.815,0.84-2.623c0.276-0.523,0.911-0.857,1.558-1.429c-0.649-1.815-1.307-3.655-2.035-5.69
		c-3.471,1.105-6.708,2.136-10.139,3.228c0.721,2.107,1.358,3.969,1.958,5.72c0.296,0.14,0.438,0.265,0.58,0.265
		c3.469-0.018,5.055,1.753,4.755,5.221c-0.207,2.392-1.728,3.844-3.481,5.165C199.72,569.041,198.44,569.041,197.16,569.041z
		 M396.115,196.993c-82.317,0-164.634,0-246.951,0c-0.88,0-1.76-0.009-2.64,0.003c-4.572,0.059-8.901,1.152-12.818,3.486
		c-9.042,5.389-13.801,13.403-13.81,23.948c-0.05,58.398-0.024,116.797-0.024,175.194c0,22.56-0.006,45.119,0.003,67.678
		c0.003,7.565,2.641,14.095,8.007,19.424c5.632,5.593,12.525,7.945,20.431,7.944c165.195-0.031,330.39-0.023,495.584-0.024
		c0.801,0,1.602,0.008,2.4-0.019c11.404-0.375,21.502-8.047,24.913-18.932c0.966-3.082,1.252-6.244,1.251-9.468
		c-0.019-80.238-0.015-160.476-0.015-240.713c0-0.72,0.009-1.44-0.01-2.16c-0.155-5.955-2.04-11.32-5.756-15.957
		c-5.606-6.997-12.958-10.413-21.935-10.412C561.87,196.997,478.993,196.993,396.115,196.993z M416.084,187.354
		c1.253,0,2.28,0,3.307,0c42.774,0,85.548,0,128.321,0c3.661,0,3.666,0.001,4.701-3.58c0.199-0.689,0.394-1.388,0.494-2.096
		c1.292-9.125-1.07-17.264-6.808-24.403c-1.078-1.341-2.537-2.442-3.987-3.402c-2.702-1.79-5.761-2.354-8.955-1.852
		c-7.022,1.103-14.036,2.271-21.053,3.414c-16.24,2.645-32.479,5.299-48.722,7.933c-16.085,2.608-32.174,5.193-48.258,7.805
		c-0.514,0.083-0.998,0.347-1.614,0.57C414.362,176.91,415.191,181.938,416.084,187.354z M741.188,386.972
		c-1.194,0.136-1.901,0.23-2.612,0.294c-2.943,0.261-5.883,0.643-8.831,0.741c-7.165,0.24-14.182-0.894-21.116-2.6
		c-8.17-2.01-16.011-4.999-23.846-8.007c-0.777-0.298-1.57-0.555-2.481-0.874c0,16.128,0,31.909,0,47.69
		c0.731-0.544,1.161-1.183,1.39-1.887c1.232-3.795,2.527-7.574,3.583-11.42c0.955-3.48,1.48-7.045,0.719-10.673
		c-0.096-0.459-0.072-0.963-0.003-1.431c0.225-1.51,0.753-1.871,2.739-1.89c0.09,0.352,0.218,0.722,0.277,1.102
		c0.799,5.102,0.757,10.214-0.092,15.29c-1.038,6.212-2.782,12.166-7.165,16.993c-0.426,0.468-0.794,1.019-1.062,1.591
		c-0.874,1.856-0.857,3.745,0.22,5.495c0.327,0.531,1.041,1.047,1.647,1.147c3.361,0.554,6.614-0.09,10.238-1.03
		c-0.494-1.176-0.81-2.129-1.288-2.992c-0.342-0.617-0.869-1.147-1.373-1.657c-1.959-1.982-2.394-4.274-1.4-6.838
		c0.548-1.414,1.087-2.847,1.803-4.179c2.425-4.513,4.598-9.127,6.354-13.949c0.565-1.553,1.488-3.003,2.416-4.387
		c0.586-0.875,1.414-1.68,2.757-1.569c0.167,2.36-0.469,4.423-1.332,6.39c-1.123,2.559-2.396,5.053-3.642,7.557
		c-1.75,3.518-3.237,7.098-3.863,11.034c-0.318,2,0.252,3.454,1.641,4.691c1.251,1.115,2.574,2.152,3.904,3.174
		c1.584,1.218,3.238,2.346,4.811,3.579c2.445,1.918,4.227,4.375,5.354,7.249c0.456,1.164,0.696,2.461,0.774,3.714
		c0.114,1.817-0.773,3.179-2.563,4.229c-0.589-0.729-1.203-1.341-1.641-2.062c-0.746-1.227-1.389-2.517-2.061-3.788
		c-0.82-1.554-1.646-3.106-2.433-4.678c-1.062-2.123-2.776-3.014-5.096-2.738c-1.503,0.178-3.04,0.282-4.483,0.695
		c-3.6,1.029-7.128,2.358-11.138,1.849c0,3.778,0,7.331,0,11.156c1.413,0.145,2.739,0.384,4.067,0.398
		c3.438,0.035,6.882-0.142,10.314-0.01c1.89,0.072,3.809,0.432,5.629,0.958c2.083,0.604,3.423,2.12,3.506,4.373
		c0.098,2.631,0.293,5.307-0.07,7.891c-0.304,2.162-1.143,4.323-2.119,6.3c-1.273,2.581-3.631,3.436-6.455,3.079
		c-1.661-0.21-3.079-0.955-4.22-2.102c-1.463-1.47-2.769-3.094-4.169-4.627c-1.291-1.415-2.561-2.857-3.952-4.169
		c-0.629-0.593-1.529-0.896-2.748-1.579c0.332,6.68-0.752,12.59-3.195,18.225c3.321,2.828,6.667,5.104,10.666,6.254
		c4.275,1.228,8.339,0.773,11.697-2.271c2.473-2.24,4.948-4.615,6.838-7.337c6.569-9.46,12.613-19.259,17.726-29.602
		c3.333-6.743,5.259-13.839,5.766-21.382c0.256-3.804,0.903-7.63,1.838-11.329c1.761-6.962,3.451-13.96,6.209-20.635
		c0.575-1.391,0.938-2.898,1.184-4.388C741.061,390.486,741.055,388.896,741.188,386.972z M638.825,187.205
		c0.022-0.102,0.046-0.204,0.068-0.305c-0.657-0.22-1.307-0.47-1.974-0.654c-4.018-1.111-7.899-2.516-11.433-4.807
		c-1.055-0.684-2.275-1.213-3.494-1.522c-2.53-0.642-5.025-0.453-6.799,1.724c-1.332,1.636-2.378,3.506-3.746,5.565
		C620.855,187.205,629.84,187.205,638.825,187.205z M402.483,187.234c-0.929-4.672-1.607-9.04-2.83-13.43
		c-2.2,0.478-4.126,0.896-6.211,1.35c0.857,4.166,1.672,8.119,2.488,12.081C398.19,187.234,400.163,187.234,402.483,187.234z
		 M332.514,186.835c0.05,0.128,0.101,0.257,0.152,0.386c8.374,0,16.749,0,25.39,0c-0.239-1.468-0.45-2.765-0.718-4.408
		C348.939,184.174,340.727,185.504,332.514,186.835z M372.585,179.514c0.55,2.704,1.062,5.227,1.565,7.702c2.29,0,4.263,0,6.562,0
		c-0.609-3.046-1.179-5.899-1.787-8.943C376.77,178.695,374.843,179.072,372.585,179.514z M603.194,186.729
		c0.078,0.202,0.157,0.404,0.235,0.606c1.479,0,2.958,0.012,4.438-0.004c0.991-0.011,1.392-0.72,1.533-1.535
		c0.171-0.979-0.511-1.59-1.329-1.638c-0.894-0.053-1.924,0.073-2.687,0.496C604.533,185.126,603.914,186.02,603.194,186.729z"/>
	<path class="st1" d="M9.48,354.48c0.399-0.573,0.848-1.118,1.188-1.725c1.721-3.061,5.065-4.597,8.296-3.777
		c3.335,0.847,5.649,3.774,5.655,7.157c0.007,3.38-2.29,6.286-5.649,7.149c-3.267,0.839-6.567-0.668-8.29-3.748
		c-0.336-0.602-0.797-1.133-1.2-1.697C9.48,356.721,9.48,355.601,9.48,354.48z"/>
	<path class="st1" d="M117.411,139.037c-1.748,7.894,0.444,13.185,7.012,17.496c4.672,3.067,9.939,4.273,15.357,5.023
		c7.004,0.97,14.036,0.912,21.064,0.398c1.772-0.129,3.203,0.242,4.698,1.205c3.291,2.118,6.705,4.045,10.081,6.029
		c0.671,0.395,1.399,0.693,2.655,1.307c-0.46-1.361-0.699-2.239-1.052-3.069c-0.594-1.396-1.38-2.719-1.874-4.146
		c-1.2-3.469,0.125-5.376,3.814-5.631c4.835-0.334,9.486-1.339,13.79-3.671c4.893-2.651,8.414-6.527,10.57-11.668
		c1.498-3.568,1.022-6.87-1.164-9.982c-1.689-2.405-3.961-4.16-6.458-5.637c-5.299-3.135-11.1-4.875-17.103-5.997
		c-11.794-2.204-23.538-1.752-35.256,0.652c-4.318,0.886-8.625,1.831-12.582,3.797c-2.341,1.164-4.516,2.69-6.67,4.19
		c-1.363,0.949-1.285,1.062-3.503,0.815c0.433-0.583,0.732-1.105,1.141-1.52c5.346-5.422,11.87-8.871,19.018-11.236
		c9.003-2.979,18.295-3.679,27.702-3.381c8.454,0.269,16.691,1.671,24.557,4.878c3.643,1.485,7.114,3.269,9.914,6.147
		c5.944,6.113,6.979,13.644,2.299,20.767c-5.699,8.673-13.246,15.112-23.594,17.703c-0.222,0.056-0.422,0.199-0.814,0.389
		c0.293,0.558,0.514,1.126,0.858,1.607c1.905,2.666,3.841,5.309,5.765,7.962c0.8,1.104,1.608,2.19,1.467,3.688
		c-0.195,2.07-1.205,2.987-3.173,2.355c-2.883-0.926-5.774-1.935-8.482-3.271c-3.864-1.906-7.693-3.945-11.303-6.288
		c-4.037-2.619-8.252-3.556-12.991-2.991c-9.268,1.104-18.348,0.275-27.132-3.077c-2.787-1.063-5.417-2.361-7.618-4.425
		c-4.458-4.181-5.427-9.416-4.527-15.172c0.22-1.409,0.768-2.765,1.148-4.15C115.362,138.909,116.203,138.827,117.411,139.037z"/>
	<path class="st1" d="M99.631,194.091c0.739-0.643,1.176-0.949,1.522-1.336c2.987-3.332,6.01-6.634,8.899-10.048
		c0.783-0.925,1.566-1.412,2.735-1.654c6.348-1.313,12.631-2.924,18.528-5.659c2.954-1.37,5.681-3.225,8.521-4.842
		c0.534-0.304,1.108-0.722,1.677-0.745c2.213-0.087,4.431-0.036,7.003-0.036c-0.534,0.753-0.83,1.286-1.233,1.72
		c-2.485,2.672-5.502,4.619-8.731,6.25c-5.101,2.578-10.509,4.287-16.11,5.32c-4.87,0.898-8.758,3.065-11.649,7.238
		c-3.287,4.745-7.175,9.011-11.842,12.479c-1.344,0.999-2.79,1.863-4.218,2.743c-0.97,0.599-1.79,0.321-2.533-0.518
		c-1.379-1.555-1.627-3.216-0.519-5.304c1.781-3.358,2.574-6.987,3.279-10.779c-2.605-0.184-5.07-0.271-7.514-0.545
		c-8.142-0.91-15.556-3.57-21.628-9.301c-2.607-2.46-4.587-5.332-5.412-8.88c-1.142-4.91,0.204-9.359,2.768-13.484
		c2.135-3.435,5.091-6.15,8.291-8.584c7.742-5.891,16.514-9.684,25.75-12.486c7.079-2.148,14.323-3.368,21.731-3.25
		c8.022,0.128,15.725,1.722,22.779,5.733c6.491,3.69,10.791,9.148,12.845,16.338c0.598,2.095,0.566,3.182-0.019,5.336
		c-1.739,0-3.534,0-5.455,0c0.053-0.354,0.024-0.688,0.153-0.942c2.854-5.618,0.417-12.096-3.634-15.381
		c-1.961-1.59-4.183-2.975-6.487-4.005c-6.507-2.91-13.432-3.588-20.438-2.82c-13.257,1.452-25.778,5.375-37.456,11.859
		c-4.069,2.259-7.83,4.967-11.082,8.333c-1.903,1.97-3.534,4.128-4.586,6.682c-2.068,5.021-1.072,10.087,2.759,13.918
		c3.239,3.239,7.302,4.841,11.699,5.636c4.776,0.864,9.546,0.831,14.237-0.631c0.38-0.118,0.77-0.227,1.163-0.274
		c3.124-0.382,4.748,0.998,4.696,4.161c-0.03,1.831-0.332,3.657-0.482,5.487C99.589,192.422,99.631,193.03,99.631,194.091z"/>
	<path class="st1" d="M43.536,406.491c-0.039-4.112,3.103-7.342,7.198-7.398c4.185-0.058,7.565,3.245,7.534,7.361
		c-0.031,4.012-3.37,7.333-7.374,7.335C46.842,413.791,43.574,410.549,43.536,406.491z"/>
	<path class="st1" d="M94.495,291.812c0.039,4.115-3.105,7.381-7.171,7.448c-4.159,0.068-7.568-3.271-7.539-7.385
		c0.029-4.016,3.341-7.333,7.354-7.366C91.146,284.479,94.457,287.765,94.495,291.812z"/>
	<path class="st1" d="M30.084,292c4.127-0.045,7.368,3.035,7.495,7.123c0.127,4.092-3.233,7.504-7.391,7.504
		c-4.113-0.001-7.278-3.157-7.298-7.279C22.871,295.177,25.936,292.045,30.084,292z"/>
	<path class="st1" d="M396.115,196.993c82.878,0,165.755,0.003,248.633-0.006c8.977-0.001,16.328,3.415,21.935,10.412
		c3.716,4.637,5.601,10.002,5.756,15.957c0.019,0.719,0.01,1.44,0.01,2.16c0,80.237-0.004,160.475,0.015,240.713
		c0.001,3.224-0.285,6.386-1.251,9.468c-3.411,10.885-13.509,18.557-24.913,18.932c-0.799,0.026-1.6,0.019-2.4,0.019
		c-165.194,0.001-330.389-0.007-495.584,0.024c-7.906,0.001-14.799-2.352-20.431-7.944c-5.366-5.329-8.004-11.858-8.007-19.424
		c-0.009-22.559-0.003-45.118-0.003-67.678c0-58.397-0.026-116.796,0.024-175.194c0.009-10.545,4.768-18.56,13.81-23.948
		c3.917-2.334,8.246-3.427,12.818-3.486c0.88-0.012,1.76-0.003,2.64-0.003C231.481,196.993,313.798,196.993,396.115,196.993z
		 M335.151,409.668c4.744,0.09,9.359-0.53,13.908,0.692c2.084,0.56,3.758,1.767,4.954,3.567c0.618,0.931,1.169,1.909,1.687,2.899
		c5.851,11.194,11.683,22.4,17.542,33.591c0.703,1.342,1.474,2.66,2.333,3.907c2.227,3.23,5.277,5.374,9.113,6.167
		c2.492,0.515,5.056,0.897,7.594,0.935c8.078,0.117,16.158,0.049,24.237,0.037c0.608-0.001,1.216-0.123,1.784-0.185
		c0.46-4.615,0.266-24.75-0.288-26.62c-1.773,0-3.604,0.012-5.436-0.002c-4.312-0.032-7.377-1.838-9.347-5.849
		c-3.382-6.887-7.054-13.632-10.567-20.455c-1.843-3.581-4.459-6.41-7.892-8.503c-0.444-0.271-0.843-0.616-1.424-1.046
		c0.992-0.604,1.803-1.099,2.615-1.591c9.39-5.7,16.078-13.581,19.291-24.182c2.092-6.901,2.521-13.957,1.73-21.127
		c-2.011-18.25-13.669-31.533-31.51-35.841c-6.969-1.682-14.071-2.189-21.187-2.222c-23.438-0.107-46.876-0.063-70.314-0.069
		c-0.7-0.001-1.399,0.077-2.061,0.116c-0.517,2.754-0.413,24.888,0.16,26.786c5.187,0,10.439,0,15.644,0
		c0.543,2.773,0.433,92.126-0.094,93.902c-8.278,0-16.575,0-25.005,0c-13.433-40.287-26.846-80.517-40.245-120.705
		c-14.177,0-28.073,0-42.168,0c-13.422,40.257-26.833,80.479-40.262,120.754c-4.15,0.167-8.119-0.062-12.013,0.136
		c-0.487,4.451-0.298,24.912,0.207,26.567c20.368,0,40.735,0,61.224,0c0-8.891,0-17.638,0-26.622c-4.189,0-8.236,0-12.682,0
		c1.934-6.796,3.774-13.266,5.576-19.598c12.906,0,25.431,0,37.889,0c1.708,4.18,5.344,17.793,5.194,19.53
		c-4.016,0.143-8.065-0.064-12.049,0.115c-0.472,4.268-0.292,24.879,0.194,26.552c42.271,0,84.543,0,126.897,0
		c0-8.921,0-17.675,0-26.716c-5.167,0-10.161,0-15.23,0C335.151,426.185,335.151,418.064,335.151,409.668z M543.711,409.239
		c-0.068,0.676-0.144,1.07-0.144,1.465c-0.007,5.838-0.096,11.679,0.043,17.515c0.059,2.455,0.371,4.958,0.969,7.339
		c1.793,7.146,6.202,12.521,12.019,16.828c5.535,4.099,11.763,6.765,18.363,8.576c10.368,2.847,20.917,3.576,31.611,2.567
		c8.35-0.788,16.379-2.727,23.966-6.362c23.893-11.452,27.141-34.862,22.72-51.311c-2.398-8.928-8.15-15.434-15.637-20.55
		c-4.642-3.172-9.629-5.718-14.853-7.753c-6.402-2.493-12.909-4.717-19.305-7.226c-3.637-1.427-7.192-3.087-10.688-4.835
		c-2.516-1.258-4.692-3.05-6.364-5.367c-4.481-6.212-2.188-13.503,5.126-15.642c6.535-1.911,13.159-1.745,19.557,0.666
		c4.94,1.862,6.52,4.398,6.221,9.024c-0.152,2.363-0.026,4.744-0.026,7.225c11.142,0,21.969,0,32.836,0
		c0.076-0.449,0.173-0.756,0.173-1.062c-0.002-7.358,0.062-14.717-0.055-22.073c-0.065-4.129-1.701-7.766-4.206-11.016
		c-2.127-2.759-4.768-4.941-7.697-6.788c-4.088-2.578-8.512-4.411-13.14-5.744c-11.762-3.386-23.749-4.153-35.87-2.788
		c-7.024,0.792-13.842,2.482-20.237,5.604c-9.645,4.708-16.604,11.874-19.865,22.239c-2.697,8.575-2.9,17.302-0.859,26.05
		c2.278,9.772,8.075,17.063,16.223,22.651c5.239,3.593,10.932,6.32,16.818,8.637c6.32,2.486,12.723,4.764,19.031,7.277
		c3.184,1.27,6.341,2.682,9.317,4.369c1.979,1.123,3.871,2.626,5.364,4.341c4.327,4.969,3.285,11.801-2.274,15.322
		c-1.661,1.051-3.568,1.827-5.465,2.369c-5.154,1.472-10.426,1.436-15.698,0.729c-3.433-0.461-6.725-1.412-9.727-3.201
		c-3.575-2.131-5.562-5.168-5.441-9.456c0.07-2.557,0.022-5.118,0.001-7.678c-0.005-0.612-0.117-1.224-0.191-1.941
		C565.418,409.239,554.661,409.239,543.711,409.239z M545.91,313.883c-44.745,0-89.196,0-133.818,0c0,16.546,0,32.977,0,49.382
		c2.946,0.524,29.01,0.387,30.781-0.18c0-3.311-0.012-6.666,0.003-10.021c0.015-3.398-0.067-6.803,0.054-10.134
		c3.738-0.561,15.831-0.384,17.411,0.195c0,30.451,0,60.898,0,91.609c-5.488,0-10.81,0-16.209,0c0,9.014,0,17.762,0,26.571
		c23.312,0,46.46,0,69.646,0c0-8.918,0-17.666,0-26.689c-5.487,0-10.805,0-16.212,0c0-30.725,0-61.174,0-91.792
		c5.829,0,11.533,0,17.443,0c0,3.523,0,6.874,0,10.225c0,3.415,0,6.831,0,10.188c2.857,0.503,29.077,0.412,30.901-0.073
		C545.91,346.816,545.91,330.451,545.91,313.883z M396.639,237.295c0.478,3.634,0.331,46.724-0.185,48.688c-2.291,0-4.655,0-7.104,0
		c0,1.65,0,3.043,0,4.526c6.97,0,13.797,0,20.685,0c0-1.558,0-2.949,0-4.628c-2.502,0-4.858,0-7.29,0c0-6.724,0-13.156,0-19.842
		c3.086,0,6.027,0.052,8.967-0.016c2.693-0.062,4.533,1.101,5.829,3.436c1.823,3.285,3.771,6.502,5.667,9.746
		c1.614,2.761,3.25,5.51,4.843,8.284c1.182,2.058,2.927,3.103,5.294,3.13c0.64,0.007,1.279,0.048,1.919,0.049
		c7.199,0.004,14.398,0.007,21.598-0.002c0.698,0,1.396-0.085,2.193-0.137c0-1.539,0-2.932,0-4.657c-2.468,0-4.81,0-7.31,0
		c1.121-14.516,2.217-28.687,3.311-42.852c5.546,12.171,11.095,24.348,16.601,36.433c1.971,0,3.702,0,5.507,0
		c5.494-12.113,10.949-24.139,16.514-36.406c1.116,14.396,2.208,28.479,3.326,42.907c-2.6,0-4.946,0-7.311,0c0,1.724,0,3.119,0,4.54
		c6.917,0,13.669,0,20.389,0c0-1.576,0-2.969,0-4.564c-2.496,0-4.792,0-7.378,0c-1.271-16.238-2.528-32.289-3.81-48.65
		c2.669,0,5.022,0,7.515,0c0-1.682,0-3.078,0-4.594c-4.714,0-9.299,0-13.896,0c-6.06,13.672-12.064,27.218-18.104,40.844
		c-6.088-13.747-12.102-27.327-18.095-40.858c-4.709,0-9.238,0-13.884,0c0,1.535,0,2.927,0,4.625c2.5,0,4.853,0,7.495,0
		c-1.309,16.376-2.591,32.424-3.885,48.613c-3.364,0-6.396-0.048-9.427,0.017c-1.981,0.043-3.278-0.771-4.257-2.5
		c-2.717-4.801-5.534-9.546-8.333-14.301c-0.831-1.413-1.729-2.786-2.63-4.229c0.667-0.226,1.191-0.415,1.723-0.581
		c5.137-1.606,8.416-5.07,10.008-10.145c1.026-3.271,1.085-6.647,0.401-9.971c-1.154-5.602-4.575-9.258-10.119-10.688
		c-2.223-0.573-4.565-0.906-6.858-0.936c-8.478-0.109-16.958-0.05-25.438-0.037c-0.604,0.001-1.207,0.14-1.693,0.2
		c0,1.607,0,2.999,0,4.557C391.923,237.295,394.224,237.295,396.639,237.295z M548.912,285.968
		c0.008-14.722-0.014-29.033,0.191-43.352c1.076,1.308,1.909,2.651,2.821,3.938c9.944,14.026,19.901,28.042,29.855,42.062
		c0.323,0.457,0.593,0.969,0.986,1.354c0.314,0.308,0.771,0.634,1.18,0.654c1.564,0.076,3.134,0.031,4.887,0.031
		c0-6.227,0-12.132,0-18.036c0-5.839-0.008-11.678,0.003-17.517c0.01-5.884-0.048-11.77,0.041-17.914c2.694,0,5.055,0,7.431,0
		c0-1.666,0-3.061,0-4.509c-7.001,0-13.837,0-20.756,0c0,1.546,0,2.939,0,4.659c2.557,0,4.98,0,7.353,0
		c0.501,4.178,0.318,41.633-0.114,43.056c-11.262-15.872-22.589-31.836-33.962-47.865c-2.21,0-4.365-0.019-6.521,0.005
		c-2.205,0.024-4.421-0.109-6.549,0.09c0,1.688,0,3.082,0,4.747c2.539,0,4.894,0,7.194,0c0.475,3.414,0.339,46.656-0.183,48.627
		c-2.286,0-4.647,0-7.048,0c0,1.664,0,3.061,0,4.533c6.988,0,13.823,0,20.773,0c0-1.537,0-2.929,0-4.561
		C554.004,285.968,551.637,285.968,548.912,285.968z M243.946,237.278c0.489,3.584,0.345,46.754-0.182,48.724
		c-2.284,0-4.644,0-7.036,0c0,1.667,0,3.062,0,4.672c6.983-0.026,13.806,0.054,20.592-0.053c0-1.741,0-3.132,0-4.826
		c-2.536,0-4.883,0-7.185,0c-0.447-4.509-0.277-17.936,0.26-19.762c2.105,0,4.26,0,6.416,0c5.988,0.002,6.033,0.03,9.08,5.251
		c3.023,5.18,6.044,10.361,9.077,15.535c0.813,1.387,1.645,2.801,3.298,3.328c2.472,0.789,4.979,0.573,7.406,0.385
		c0-1.684,0-3.078,0-4.509c-0.832-0.05-1.469-0.131-2.104-0.119c-1.694,0.033-2.856-0.722-3.703-2.182
		c-3.644-6.28-7.329-12.537-11.035-18.865c0.56-0.187,1.154-0.391,1.751-0.585c4.921-1.604,8.142-4.904,9.747-9.797
		c1.123-3.424,1.227-6.923,0.475-10.419c-1.208-5.618-4.678-9.203-10.223-10.582c-2.304-0.573-4.729-0.874-7.104-0.904
		c-8.238-0.107-16.479-0.046-24.719-0.035c-0.687,0.001-1.373,0.107-2,0.16c0,1.618,0,3.009,0,4.583
		C239.243,237.278,241.542,237.278,243.946,237.278z M357.285,231.514c-16.698,0.004-29.62,12.957-29.629,29.7
		c-0.009,17.05,12.972,30.407,29.56,30.418c16.729,0.011,29.874-13.419,29.823-30.468
		C386.988,244.499,373.955,231.511,357.285,231.514z M650.19,249.195c0-2.146-0.007-4.049,0.001-5.952
		c0.009-2.111-0.784-3.886-2.229-5.395c-1.695-1.769-3.78-2.927-6.022-3.832c-5.606-2.262-11.448-2.832-17.42-2.363
		c-11.635,0.915-21.352,8.5-24.933,19.502c-1.738,5.343-2.141,10.826-1.075,16.339c2.167,11.207,8.526,18.926,19.43,22.619
		c6.14,2.08,12.424,1.917,18.714,0.68c3.632-0.715,7.121-1.819,10.239-3.888c3.088-2.051,4.742-4.831,4.646-8.645
		c-0.1-3.916-0.016-7.835-0.028-11.753c-0.002-0.702-0.085-1.403-0.135-2.174c-5.864,0-11.567,0-17.283,0c0,1.576,0,2.97,0,4.648
		c4.027,0,7.898,0,11.951,0c0,3.073-0.03,5.858,0.01,8.643c0.031,2.201-0.901,3.907-2.689,5.052
		c-1.333,0.854-2.775,1.617-4.27,2.124c-4.687,1.589-9.56,2.121-14.438,1.452c-9.275-1.271-15.668-6.371-19.022-15.151
		c-1.633-4.274-1.868-8.73-1.438-13.233c0.955-9.982,7.561-17.875,17.031-20.34c4.083-1.062,8.223-1.083,12.37-0.407
		c2.619,0.427,5.145,1.152,7.442,2.531c2.364,1.418,3.827,3.326,3.585,6.264c-0.088,1.071,0.039,2.159,0.069,3.28
		C646.618,249.195,648.205,249.195,650.19,249.195z M191.064,285.953c0,1.758,0,3.155,0,4.554c14.207,0,28.235,0,42.345,0
		c0-4.122,0-8.077,0-12.153c-1.691,0-3.239,0-5.076,0c0,2.489,0,4.844,0,7.268c-8.149,0-16.009,0-23.844,0
		c-0.449-3.455-0.299-19.942,0.248-21.898c7.07,0,14.221,0,21.373,0c0-1.739,0-3.197,0-4.759
		c-7.355-0.114-14.518,0.059-21.627-0.099c-0.441-3.803-0.29-19.597,0.191-21.406c7.22,0,14.468,0,21.938,0
		c0.098,2.353,0.192,4.614,0.288,6.896c1.821,0,3.375,0,5.039,0c0-3.954,0-7.75,0-11.807c-13.737-0.016-27.341-0.073-40.848,0.034
		c0,1.759,0,3.15,0,4.825c2.548,0,4.894,0,7.19,0c0.53,4.178,0.33,46.695-0.252,48.546
		C195.8,285.953,193.503,285.953,191.064,285.953z M151.261,237.278c0.487,3.52,0.351,46.748-0.171,48.718c-2.287,0-4.648,0-7.048,0
		c0,1.666,0,3.061,0,4.5c6.981,0,13.806,0,20.659,0c0-1.571,0-2.962,0-4.62c-2.521,0-4.881,0-7.184,0
		c-0.515-3.265-0.381-16.414,0.194-18.244c0.812,0,1.682,0.004,2.551-0.001c4.398-0.025,8.802,0.074,13.194-0.108
		c7.616-0.314,13.085-4.471,15.261-11.364c1.059-3.354,1.193-6.802,0.529-10.203c-1.254-6.416-4.939-10.864-11.341-12.664
		c-1.971-0.554-4.103-0.713-6.165-0.732c-8.558-0.078-17.116-0.037-25.674-0.026c-0.687,0.001-1.373,0.104-1.987,0.154
		c0,1.623,0,3.016,0,4.589C146.563,237.278,148.862,237.278,151.261,237.278z M294.125,237.261
		c0.612,2.668,0.509,46.813-0.142,48.771c-2.264,0-4.623,0-7.147,0c0,0.985-0.022,1.698,0.006,2.409
		c0.028,0.688,0.109,1.374,0.167,2.067c7.181,0,14.172,0,21.223,0c0-1.559,0-2.95,0-4.674c-2.73,0-5.31,0-7.829,0
		c0-7.258,0-14.179,0-21.287c7.077-0.085,13.995,0.046,20.889-0.075c0-1.799,0-3.274,0-4.911c-7.08-0.103-13.993,0.048-20.952-0.088
		c0-7.418,0-14.514,0-21.583c2.394-0.566,18.552-0.488,20.623,0.179c0,2.154,0,4.418,0,6.672c1.812,0,3.289,0,4.951,0
		c0.077-4.121,0.077-8.067,0.013-12.072c-13.176,0-26.009,0-38.951,0c0,1.538,0,2.931,0,4.591
		C289.471,237.261,291.832,237.261,294.125,237.261z M532.628,232.695c-7.069,0-13.897,0-20.777,0c0,1.563,0,2.954,0,4.611
		c2.513,0,4.871,0,7.336,0c0,16.294,0,32.318,0,48.697c-2.547,0-4.964,0-7.498,0c0,1.07-0.021,1.786,0.006,2.5
		c0.026,0.683,0.102,1.364,0.151,2.001c4.49,0.431,19.06,0.261,20.677-0.197c0-1.42,0-2.813,0-4.488c-2.535,0-4.886,0-7.179,0
		c-0.496-3.531-0.346-46.668,0.203-48.627c2.282,0,4.644,0,7.081,0C532.628,235.579,532.628,234.235,532.628,232.695z"/>
	<path class="st1" d="M416.084,187.354c-0.893-5.416-1.722-10.444-2.573-15.612c0.616-0.223,1.101-0.487,1.614-0.57
		c16.084-2.612,32.173-5.197,48.258-7.805c16.242-2.634,32.481-5.289,48.722-7.933c7.017-1.143,14.03-2.311,21.053-3.414
		c3.194-0.502,6.253,0.062,8.955,1.852c1.45,0.96,2.909,2.062,3.987,3.402c5.737,7.139,8.1,15.278,6.808,24.403
		c-0.101,0.708-0.295,1.407-0.494,2.096c-1.035,3.581-1.04,3.58-4.701,3.58c-42.773,0-85.547,0-128.321,0
		C418.364,187.354,417.337,187.354,416.084,187.354z"/>
	<path class="st1" d="M741.188,386.972c-0.133,1.924-0.127,3.515-0.383,5.062c-0.245,1.489-0.608,2.997-1.184,4.388
		c-2.758,6.675-4.448,13.673-6.209,20.635c-0.935,3.699-1.582,7.525-1.838,11.329c-0.507,7.543-2.433,14.639-5.766,21.382
		c-5.112,10.343-11.156,20.142-17.726,29.602c-1.89,2.722-4.365,5.097-6.838,7.337c-3.358,3.044-7.422,3.498-11.697,2.271
		c-3.999-1.149-7.345-3.426-10.666-6.254c2.443-5.635,3.527-11.545,3.195-18.225c1.219,0.683,2.119,0.986,2.748,1.579
		c1.392,1.312,2.661,2.754,3.952,4.169c1.4,1.533,2.706,3.157,4.169,4.627c1.141,1.146,2.559,1.892,4.22,2.102
		c2.824,0.356,5.182-0.498,6.455-3.079c0.977-1.977,1.815-4.138,2.119-6.3c0.363-2.584,0.168-5.26,0.07-7.891
		c-0.083-2.253-1.423-3.77-3.506-4.373c-1.82-0.526-3.739-0.886-5.629-0.958c-3.433-0.132-6.876,0.045-10.314,0.01
		c-1.328-0.015-2.654-0.254-4.067-0.398c0-3.825,0-7.378,0-11.156c4.01,0.51,7.538-0.819,11.138-1.849
		c1.443-0.413,2.98-0.518,4.483-0.695c2.319-0.275,4.034,0.615,5.096,2.738c0.786,1.571,1.612,3.124,2.433,4.678
		c0.672,1.271,1.314,2.562,2.061,3.788c0.438,0.721,1.052,1.333,1.641,2.062c1.79-1.051,2.678-2.412,2.563-4.229
		c-0.078-1.253-0.318-2.55-0.774-3.714c-1.128-2.874-2.909-5.331-5.354-7.249c-1.572-1.233-3.227-2.361-4.811-3.579
		c-1.33-1.021-2.653-2.059-3.904-3.174c-1.389-1.237-1.959-2.691-1.641-4.691c0.626-3.937,2.113-7.517,3.863-11.034
		c1.245-2.504,2.519-4.998,3.642-7.557c0.863-1.967,1.499-4.029,1.332-6.39c-1.343-0.11-2.171,0.694-2.757,1.569
		c-0.928,1.384-1.851,2.834-2.416,4.387c-1.757,4.822-3.93,9.437-6.354,13.949c-0.716,1.332-1.255,2.765-1.803,4.179
		c-0.993,2.563-0.559,4.855,1.4,6.838c0.504,0.51,1.031,1.04,1.373,1.657c0.479,0.863,0.794,1.816,1.288,2.992
		c-3.624,0.94-6.877,1.584-10.238,1.03c-0.606-0.101-1.32-0.616-1.647-1.147c-1.077-1.75-1.094-3.639-0.22-5.495
		c0.269-0.572,0.637-1.123,1.062-1.591c4.383-4.827,6.127-10.781,7.165-16.993c0.849-5.076,0.891-10.188,0.092-15.29
		c-0.06-0.38-0.188-0.75-0.277-1.102c-1.986,0.019-2.515,0.38-2.739,1.89c-0.069,0.468-0.093,0.972,0.003,1.431
		c0.762,3.628,0.236,7.192-0.719,10.673c-1.056,3.846-2.351,7.625-3.583,11.42c-0.229,0.704-0.658,1.343-1.39,1.887
		c0-15.781,0-31.562,0-47.69c0.911,0.319,1.704,0.576,2.481,0.874c7.835,3.008,15.676,5.997,23.846,8.007
		c6.935,1.706,13.951,2.84,21.116,2.6c2.948-0.099,5.888-0.48,8.831-0.741C739.286,387.202,739.993,387.107,741.188,386.972z
		 M704.355,414.403c6.028,2.151,11.869,4.236,17.726,6.326c1.368-2.649,1.043-5.06-1.251-7.258
		c-3.001-2.875-6.666-4.087-10.774-3.633C707.449,410.127,705.381,411.373,704.355,414.403z M708.611,396.403
		c-0.961,3.842-0.024,5.666,3.463,6.789c1.44,0.464,2.926,0.834,4.418,1.077c4.546,0.739,8.207,2.521,9.688,7.349
		c0.497,1.622,1.838,2.313,3.557,2.133c0.851-3.494,0.06-6.324-2.742-8.313c-1.799-1.277-3.857-2.253-5.912-3.088
		C716.818,400.619,712.254,399.569,708.611,396.403z"/>
	<path class="st1" d="M638.825,187.205c-8.985,0-17.97,0-27.377,0c1.368-2.059,2.414-3.929,3.746-5.565
		c1.773-2.176,4.269-2.366,6.799-1.724c1.219,0.31,2.439,0.838,3.494,1.522c3.533,2.291,7.415,3.695,11.433,4.807
		c0.667,0.185,1.316,0.435,1.974,0.654C638.871,187.001,638.848,187.103,638.825,187.205z"/>
	<path class="st1" d="M402.483,187.234c-2.32,0-4.293,0-6.553,0c-0.816-3.961-1.63-7.915-2.488-12.081
		c2.085-0.453,4.011-0.872,6.211-1.35C400.876,178.194,401.555,182.562,402.483,187.234z"/>
	<path class="st1" d="M332.514,186.835c8.212-1.331,16.425-2.661,24.824-4.022c0.268,1.643,0.479,2.94,0.718,4.408
		c-8.641,0-17.016,0-25.39,0C332.615,187.092,332.564,186.963,332.514,186.835z"/>
	<path class="st1" d="M372.585,179.514c2.258-0.442,4.185-0.819,6.34-1.241c0.608,3.044,1.178,5.897,1.787,8.943
		c-2.298,0-4.272,0-6.562,0C373.647,184.741,373.135,182.218,372.585,179.514z"/>
	<path class="st1" d="M603.194,186.729c0.72-0.71,1.339-1.603,2.19-2.075c0.763-0.423,1.793-0.549,2.687-0.496
		c0.818,0.048,1.5,0.659,1.329,1.638c-0.142,0.815-0.542,1.523-1.533,1.535c-1.479,0.016-2.958,0.004-4.438,0.004
		C603.352,187.134,603.272,186.932,603.194,186.729z"/>
	<path class="st1" d="M335.151,409.668c0,8.396,0,16.517,0,24.924c5.07,0,10.064,0,15.23,0c0,9.041,0,17.795,0,26.716
		c-42.354,0-84.625,0-126.897,0.001c-0.487-1.674-0.667-22.285-0.194-26.553c3.983-0.18,8.033,0.027,12.049-0.115
		c0.15-1.737-3.486-15.351-5.194-19.53c-12.458,0-24.983,0-37.889,0c-1.802,6.332-3.642,12.802-5.576,19.598
		c4.446,0,8.493,0,12.682,0c0,8.984,0,17.731,0,26.622c-20.489,0-40.856,0-61.224,0c-0.505-1.655-0.694-22.116-0.207-26.567
		c3.895-0.197,7.863,0.031,12.013-0.136c13.429-40.275,26.839-80.497,40.262-120.754c14.095,0,27.991,0,42.168,0
		c13.399,40.188,26.812,80.418,40.245,120.705c8.43,0,16.727,0,25.005,0c0.527-1.776,0.637-91.129,0.094-93.902
		c-5.205,0-10.457,0-15.644,0c-0.572-1.898-0.676-24.032-0.16-26.786c0.662-0.039,1.361-0.117,2.061-0.116
		c23.438,0.006,46.876-0.038,70.314,0.069c7.115,0.032,14.218,0.54,21.187,2.222c17.841,4.308,29.5,17.591,31.51,35.841
		c0.79,7.17,0.361,14.226-1.73,21.127c-3.213,10.601-9.901,18.481-19.291,24.182c-0.812,0.492-1.623,0.986-2.615,1.591
		c0.581,0.43,0.979,0.775,1.424,1.046c3.432,2.093,6.048,4.922,7.892,8.503c3.513,6.823,7.185,13.568,10.567,20.455
		c1.97,4.011,5.035,5.816,9.347,5.849c1.831,0.014,3.662,0.002,5.436,0.002c0.554,1.87,0.748,22.005,0.288,26.62
		c-0.568,0.062-1.176,0.184-1.784,0.185c-8.079,0.012-16.159,0.08-24.237-0.037c-2.538-0.037-5.102-0.42-7.594-0.935
		c-3.836-0.793-6.887-2.937-9.113-6.167c-0.859-1.247-1.63-2.565-2.333-3.907c-5.86-11.19-11.691-22.396-17.542-33.591
		c-0.518-0.99-1.069-1.969-1.687-2.899c-1.196-1.801-2.87-3.008-4.954-3.567C344.51,409.138,339.895,409.758,335.151,409.668z
		 M335.157,380.658c0.94,0.051,1.719,0.126,2.499,0.129c3.12,0.015,6.24,0.05,9.359-0.006c2.956-0.054,5.926-0.049,8.86-0.356
		c7.31-0.768,12.355-5.198,13.992-12.2c0.957-4.096,0.97-8.242,0.238-12.387c-1.136-6.434-4.909-10.401-11.217-12
		c-0.465-0.117-0.923-0.275-1.394-0.355c-7.225-1.242-14.507-0.82-21.777-0.724c-0.137,0.002-0.273,0.143-0.561,0.303
		C335.157,355.423,335.157,367.87,335.157,380.658z M211.268,344.314c-1.943,14.539-7.539,28.111-10.906,42.249
		c2.351,0.552,19.662,0.52,21.675-0.021C218.684,372.455,213.374,358.852,211.268,344.314z"/>
	<path class="st1" d="M543.711,409.239c10.95,0,21.707,0,32.614,0c0.074,0.718,0.187,1.329,0.191,1.941
		c0.021,2.56,0.069,5.121-0.001,7.678c-0.12,4.288,1.866,7.325,5.441,9.456c3.002,1.789,6.294,2.74,9.727,3.201
		c5.272,0.707,10.544,0.743,15.698-0.729c1.896-0.542,3.804-1.318,5.465-2.369c5.56-3.521,6.602-10.354,2.274-15.322
		c-1.493-1.715-3.385-3.218-5.364-4.341c-2.977-1.688-6.134-3.1-9.317-4.369c-6.309-2.514-12.711-4.791-19.031-7.277
		c-5.887-2.316-11.579-5.044-16.818-8.637c-8.147-5.588-13.944-12.879-16.223-22.651c-2.041-8.748-1.838-17.475,0.859-26.05
		c3.262-10.365,10.221-17.531,19.865-22.239c6.396-3.121,13.213-4.812,20.237-5.604c12.121-1.365,24.108-0.598,35.87,2.788
		c4.628,1.333,9.052,3.166,13.14,5.744c2.93,1.847,5.57,4.029,7.697,6.788c2.505,3.25,4.141,6.887,4.206,11.016
		c0.116,7.356,0.053,14.715,0.055,22.073c0,0.307-0.097,0.613-0.173,1.062c-10.867,0-21.694,0-32.836,0
		c0-2.48-0.126-4.861,0.026-7.225c0.299-4.626-1.28-7.162-6.221-9.024c-6.397-2.411-13.021-2.577-19.557-0.666
		c-7.314,2.139-9.607,9.43-5.126,15.642c1.672,2.317,3.849,4.109,6.364,5.367c3.496,1.748,7.052,3.408,10.688,4.835
		c6.396,2.509,12.902,4.732,19.305,7.226c5.224,2.035,10.211,4.581,14.853,7.753c7.486,5.116,13.238,11.622,15.637,20.55
		c4.421,16.448,1.173,39.858-22.72,51.311c-7.587,3.636-15.616,5.574-23.966,6.362c-10.694,1.009-21.243,0.279-31.611-2.567
		c-6.601-1.812-12.828-4.478-18.363-8.576c-5.816-4.308-10.226-9.682-12.019-16.828c-0.598-2.381-0.91-4.884-0.969-7.339
		c-0.139-5.836-0.05-11.677-0.043-17.515C543.567,410.31,543.643,409.915,543.711,409.239z"/>
	<path class="st1" d="M545.91,313.883c0,16.568,0,32.934,0,49.28c-1.824,0.485-28.044,0.576-30.901,0.073c0-3.356,0-6.772,0-10.188
		c0-3.351,0-6.701,0-10.225c-5.91,0-11.614,0-17.443,0c0,30.618,0,61.067,0,91.792c5.407,0,10.725,0,16.212,0
		c0,9.023,0,17.771,0,26.689c-23.186,0-46.333,0-69.646,0c0-8.81,0-17.558,0-26.571c5.399,0,10.721,0,16.209,0
		c0-30.711,0-61.158,0-91.609c-1.58-0.579-13.673-0.756-17.411-0.195c-0.121,3.331-0.039,6.735-0.054,10.134
		c-0.015,3.355-0.003,6.711-0.003,10.021c-1.771,0.566-27.835,0.704-30.781,0.18c0-16.405,0-32.836,0-49.382
		C456.714,313.883,501.165,313.883,545.91,313.883z"/>
	<path class="st1" d="M396.639,237.295c-2.415,0-4.716,0-7.222,0c0-1.558,0-2.949,0-4.557c0.486-0.06,1.09-0.199,1.693-0.2
		c8.479-0.013,16.96-0.072,25.438,0.037c2.293,0.029,4.636,0.362,6.858,0.936c5.544,1.431,8.965,5.087,10.119,10.688
		c0.684,3.323,0.625,6.7-0.401,9.971c-1.592,5.075-4.871,8.539-10.008,10.145c-0.531,0.166-1.056,0.355-1.723,0.581
		c0.9,1.443,1.799,2.816,2.63,4.229c2.799,4.755,5.616,9.5,8.333,14.301c0.979,1.729,2.275,2.542,4.257,2.5
		c3.03-0.065,6.062-0.017,9.427-0.017c1.294-16.189,2.576-32.237,3.885-48.613c-2.643,0-4.995,0-7.495,0c0-1.698,0-3.09,0-4.625
		c4.646,0,9.175,0,13.884,0c5.993,13.532,12.007,27.112,18.095,40.858c6.04-13.626,12.045-27.172,18.104-40.844
		c4.597,0,9.182,0,13.896,0c0,1.517,0,2.913,0,4.594c-2.492,0-4.846,0-7.515,0c1.281,16.362,2.538,32.413,3.81,48.65
		c2.586,0,4.882,0,7.378,0c0,1.595,0,2.988,0,4.564c-6.72,0-13.472,0-20.389,0c0-1.42,0-2.816,0-4.54c2.364,0,4.711,0,7.311,0
		c-1.118-14.427-2.21-28.511-3.326-42.907c-5.564,12.268-11.02,24.293-16.514,36.406c-1.805,0-3.536,0-5.507,0
		c-5.506-12.084-11.055-24.262-16.601-36.433c-1.094,14.166-2.189,28.336-3.311,42.852c2.5,0,4.842,0,7.31,0
		c0,1.726,0,3.118,0,4.657c-0.797,0.052-1.495,0.137-2.193,0.137c-7.199,0.009-14.398,0.006-21.598,0.002
		c-0.64,0-1.279-0.042-1.919-0.049c-2.367-0.028-4.112-1.073-5.294-3.13c-1.593-2.773-3.229-5.522-4.843-8.284
		c-1.896-3.244-3.844-6.461-5.667-9.746c-1.296-2.335-3.136-3.499-5.829-3.436c-2.939,0.068-5.881,0.016-8.967,0.016
		c0,6.686,0,13.118,0,19.842c2.432,0,4.788,0,7.29,0c0,1.679,0,3.07,0,4.628c-6.888,0-13.714,0-20.685,0c0-1.482,0-2.875,0-4.526
		c2.449,0,4.813,0,7.104,0C396.97,284.019,397.117,240.929,396.639,237.295z M402.729,237.771c0,7.662,0,15.299,0,23.063
		c0.656,0.065,1.192,0.163,1.729,0.165c4.072,0.012,8.146,0.053,12.218-0.006c5.962-0.086,10.194-3.565,11.184-9.472
		c1.337-7.987-2.497-13.306-9.709-13.786c-5.003-0.333-10.038-0.188-15.059-0.25C403.031,237.484,402.97,237.577,402.729,237.771z"
		/>
	<path class="st1" d="M548.912,285.968c2.725,0,5.092,0,7.584,0c0,1.632,0,3.024,0,4.561c-6.95,0-13.785,0-20.773,0
		c0-1.473,0-2.869,0-4.533c2.4,0,4.762,0,7.048,0c0.521-1.971,0.657-45.213,0.183-48.627c-2.301,0-4.655,0-7.194,0
		c0-1.665,0-3.059,0-4.747c2.128-0.199,4.344-0.065,6.549-0.09c2.155-0.024,4.311-0.005,6.521-0.005
		c11.373,16.029,22.7,31.994,33.962,47.865c0.433-1.423,0.615-38.878,0.114-43.056c-2.372,0-4.796,0-7.353,0
		c0-1.719,0-3.112,0-4.659c6.919,0,13.755,0,20.756,0c0,1.448,0,2.843,0,4.509c-2.376,0-4.736,0-7.431,0
		c-0.089,6.144-0.031,12.03-0.041,17.914c-0.011,5.839-0.003,11.678-0.003,17.517c0,5.904,0,11.809,0,18.036
		c-1.753,0-3.322,0.045-4.887-0.031c-0.408-0.02-0.865-0.346-1.18-0.654c-0.394-0.385-0.663-0.897-0.986-1.354
		c-9.954-14.019-19.911-28.036-29.855-42.062c-0.912-1.287-1.745-2.629-2.821-3.938C548.898,256.935,548.92,271.246,548.912,285.968
		z"/>
	<path class="st1" d="M243.946,237.278c-2.405,0-4.704,0-7.188,0c0-1.574,0-2.966,0-4.583c0.627-0.052,1.313-0.159,2-0.16
		c8.239-0.011,16.48-0.072,24.719,0.035c2.375,0.031,4.801,0.332,7.104,0.904c5.545,1.378,9.015,4.963,10.223,10.582
		c0.752,3.497,0.648,6.995-0.475,10.419c-1.605,4.893-4.826,8.194-9.747,9.797c-0.598,0.195-1.192,0.398-1.751,0.585
		c3.707,6.328,7.391,12.584,11.035,18.865c0.847,1.459,2.009,2.214,3.703,2.182c0.635-0.013,1.271,0.068,2.104,0.119
		c0,1.431,0,2.825,0,4.509c-2.427,0.188-4.934,0.403-7.406-0.385c-1.653-0.527-2.485-1.941-3.298-3.328
		c-3.033-5.174-6.054-10.355-9.077-15.535c-3.047-5.221-3.092-5.249-9.08-5.251c-2.155,0-4.31,0-6.416,0
		c-0.538,1.826-0.708,15.253-0.26,19.762c2.302,0,4.648,0,7.185,0c0,1.694,0,3.085,0,4.826c-6.787,0.107-13.609,0.027-20.592,0.053
		c0-1.61,0-3.005,0-4.672c2.392,0,4.752,0,7.036,0C244.292,284.033,244.436,240.863,243.946,237.278z M250.084,260.832
		c0.728,0.065,1.344,0.165,1.96,0.167c3.91,0.014,7.819,0.04,11.729-0.001c6.304-0.067,10.61-3.712,11.495-9.947
		c0.967-6.812-1.901-12.697-9.783-13.312c-4.916-0.384-9.873-0.23-14.811-0.297c-0.199-0.003-0.401,0.211-0.59,0.317
		C250.084,245.435,250.084,253.067,250.084,260.832z"/>
	<path class="st1" d="M357.285,231.514c16.67-0.003,29.703,12.984,29.753,29.65c0.051,17.049-13.094,30.479-29.823,30.468
		c-16.588-0.011-29.569-13.368-29.56-30.418C327.665,244.471,340.586,231.518,357.285,231.514z M357.057,286.429
		c6.481-0.1,11.897-2.22,16.272-6.6c6.534-6.541,8.724-14.525,7.194-23.548c-1.678-9.901-9.484-17.541-19.535-19.273
		c-9.494-1.637-19.25,3.092-24.136,11.7c-5.383,9.483-3.981,22.003,3.466,30.144C344.869,283.826,350.579,286.33,357.057,286.429z"
		/>
	<path class="st1" d="M650.19,249.195c-1.985,0-3.572,0-5.494,0c-0.03-1.121-0.157-2.209-0.069-3.28
		c0.242-2.938-1.221-4.846-3.585-6.264c-2.298-1.379-4.823-2.104-7.442-2.531c-4.147-0.677-8.287-0.656-12.37,0.407
		c-9.471,2.464-16.076,10.358-17.031,20.34c-0.431,4.502-0.195,8.959,1.438,13.233c3.354,8.78,9.747,13.88,19.022,15.151
		c4.879,0.669,9.752,0.137,14.438-1.452c1.494-0.507,2.937-1.27,4.27-2.124c1.788-1.145,2.721-2.851,2.689-5.052
		c-0.04-2.784-0.01-5.569-0.01-8.643c-4.053,0-7.924,0-11.951,0c0-1.679,0-3.072,0-4.648c5.716,0,11.419,0,17.283,0
		c0.05,0.771,0.133,1.473,0.135,2.174c0.013,3.918-0.071,7.838,0.028,11.753c0.097,3.814-1.558,6.594-4.646,8.645
		c-3.118,2.069-6.607,3.173-10.239,3.888c-6.29,1.238-12.574,1.4-18.714-0.68c-10.903-3.693-17.263-11.413-19.43-22.619
		c-1.065-5.513-0.663-10.996,1.075-16.339c3.581-11.001,13.298-18.587,24.933-19.502c5.972-0.469,11.813,0.101,17.42,2.363
		c2.242,0.905,4.327,2.063,6.022,3.832c1.444,1.508,2.237,3.283,2.229,5.395C650.184,245.146,650.19,247.049,650.19,249.195z"/>
	<path class="st1" d="M191.064,285.953c2.439,0,4.735,0,6.965,0c0.582-1.851,0.782-44.368,0.252-48.546c-2.296,0-4.642,0-7.19,0
		c0-1.674,0-3.065,0-4.825c13.506-0.107,27.11-0.049,40.848-0.034c0,4.057,0,7.854,0,11.807c-1.663,0-3.217,0-5.039,0
		c-0.095-2.283-0.189-4.544-0.288-6.896c-7.471,0-14.719,0-21.938,0c-0.481,1.809-0.633,17.604-0.191,21.406
		c7.109,0.158,14.271-0.015,21.627,0.099c0,1.562,0,3.021,0,4.759c-7.151,0-14.302,0-21.373,0
		c-0.546,1.956-0.696,18.443-0.248,21.898c7.835,0,15.694,0,23.844,0c0-2.424,0-4.779,0-7.268c1.836,0,3.384,0,5.076,0
		c0,4.077,0,8.032,0,12.153c-14.11,0-28.139,0-42.345,0C191.064,289.107,191.064,287.711,191.064,285.953z"/>
	<path class="st1" d="M151.261,237.278c-2.399,0-4.698,0-7.182,0c0-1.573,0-2.966,0-4.589c0.614-0.05,1.301-0.153,1.987-0.154
		c8.558-0.011,17.117-0.052,25.674,0.026c2.062,0.019,4.194,0.178,6.165,0.732c6.401,1.8,10.087,6.248,11.341,12.664
		c0.665,3.401,0.53,6.849-0.529,10.203c-2.176,6.893-7.645,11.049-15.261,11.364c-4.392,0.182-8.796,0.083-13.194,0.108
		c-0.869,0.005-1.738,0.001-2.551,0.001c-0.575,1.831-0.709,14.979-0.194,18.244c2.303,0,4.663,0,7.184,0c0,1.657,0,3.049,0,4.62
		c-6.853,0-13.678,0-20.659,0c0-1.44,0-2.835,0-4.5c2.4,0,4.761,0,7.048,0C151.612,284.026,151.749,240.798,151.261,237.278z
		 M157.389,262.766c5.483-0.133,10.818,0.39,16.131-0.349c5.776-0.804,9.365-4.441,10.124-10.188
		c0.156-1.18,0.165-2.398,0.086-3.589c-0.34-5.162-3.308-10.294-9.853-10.827c-5.318-0.434-10.684-0.273-16.029-0.362
		c-0.129-0.002-0.26,0.158-0.46,0.288C157.389,245.963,157.389,254.23,157.389,262.766z"/>
	<path class="st1" d="M294.125,237.261c-2.293,0-4.654,0-7.148,0c0-1.66,0-3.053,0-4.591c12.941,0,25.775,0,38.951,0
		c0.064,4.005,0.064,7.951-0.013,12.072c-1.663,0-3.14,0-4.951,0c0-2.254,0-4.518,0-6.672c-2.071-0.667-18.229-0.745-20.623-0.179
		c0,7.069,0,14.164,0,21.583c6.958,0.136,13.872-0.014,20.952,0.088c0,1.636,0,3.111,0,4.911c-6.895,0.122-13.812-0.01-20.889,0.075
		c0,7.108,0,14.029,0,21.287c2.52,0,5.099,0,7.829,0c0,1.724,0,3.115,0,4.674c-7.051,0-14.042,0-21.223,0
		c-0.058-0.693-0.139-1.379-0.167-2.067c-0.029-0.711-0.006-1.424-0.006-2.409c2.525,0,4.883,0,7.147,0
		C294.635,284.074,294.737,239.929,294.125,237.261z"/>
	<path class="st1" d="M532.628,232.695c0,1.541,0,2.884,0,4.497c-2.438,0-4.799,0-7.081,0c-0.549,1.959-0.699,45.096-0.203,48.627
		c2.293,0,4.644,0,7.179,0c0,1.675,0,3.068,0,4.488c-1.617,0.458-16.187,0.628-20.677,0.197c-0.05-0.637-0.125-1.318-0.151-2.001
		c-0.026-0.714-0.006-1.43-0.006-2.5c2.534,0,4.951,0,7.498,0c0-16.379,0-32.403,0-48.697c-2.465,0-4.823,0-7.336,0
		c0-1.657,0-3.048,0-4.611C518.73,232.695,525.559,232.695,532.628,232.695z"/>
	<path class="st1" d="M704.355,414.403c1.025-3.03,3.094-4.276,5.7-4.564c4.108-0.454,7.773,0.758,10.774,3.633
		c2.294,2.198,2.619,4.608,1.251,7.258C716.225,418.64,710.384,416.555,704.355,414.403z"/>
	<path class="st1" d="M708.611,396.403c3.643,3.166,8.207,4.216,12.471,5.946c2.055,0.835,4.113,1.811,5.912,3.088
		c2.802,1.989,3.593,4.819,2.742,8.313c-1.719,0.181-3.06-0.511-3.557-2.133c-1.48-4.827-5.142-6.609-9.688-7.349
		c-1.492-0.243-2.978-0.613-4.418-1.077C708.587,402.069,707.65,400.245,708.611,396.403z"/>
	<path class="st1" d="M335.157,380.658c0-12.788,0-25.235,0-37.597c0.288-0.16,0.424-0.301,0.561-0.303
		c7.271-0.097,14.552-0.519,21.777,0.724c0.471,0.08,0.929,0.238,1.394,0.355c6.308,1.599,10.081,5.566,11.217,12
		c0.731,4.145,0.719,8.291-0.238,12.387c-1.637,7.002-6.682,11.433-13.992,12.2c-2.934,0.308-5.905,0.303-8.86,0.356
		c-3.119,0.056-6.24,0.021-9.359,0.006C336.876,380.784,336.097,380.709,335.157,380.658z"/>
	<path class="st1" d="M211.268,344.314c2.106,14.537,7.416,28.141,10.769,42.228c-2.013,0.541-19.325,0.573-21.675,0.021
		C203.729,372.426,209.325,358.854,211.268,344.314z"/>
	<path class="st1" d="M402.729,237.771c0.241-0.194,0.303-0.286,0.362-0.286c5.021,0.062,10.056-0.083,15.059,0.25
		c7.212,0.48,11.046,5.799,9.709,13.786c-0.989,5.907-5.222,9.385-11.184,9.472c-4.071,0.059-8.146,0.018-12.218,0.006
		c-0.536-0.001-1.072-0.1-1.729-0.165C402.729,253.07,402.729,245.433,402.729,237.771z"/>
	<path class="st1" d="M250.084,260.832c0-7.765,0-15.397,0-23.075c0.188-0.106,0.391-0.32,0.59-0.317
		c4.938,0.067,9.896-0.086,14.811,0.297c7.881,0.615,10.75,6.5,9.783,13.312c-0.885,6.235-5.191,9.88-11.495,9.947
		c-3.909,0.042-7.819,0.016-11.729,0.001C251.428,260.997,250.812,260.897,250.084,260.832z"/>
	<path class="st1" d="M357.057,286.429c-6.478-0.099-12.188-2.603-16.739-7.578c-7.447-8.141-8.849-20.66-3.466-30.144
		c4.886-8.607,14.642-13.337,24.136-11.7c10.05,1.732,17.856,9.372,19.535,19.273c1.53,9.022-0.66,17.007-7.194,23.548
		C368.954,284.209,363.538,286.329,357.057,286.429z"/>
	<path class="st1" d="M157.389,262.766c0-8.535,0-16.802,0-25.028c0.2-0.13,0.332-0.29,0.46-0.288
		c5.345,0.089,10.711-0.071,16.029,0.362c6.544,0.533,9.513,5.666,9.853,10.827c0.079,1.19,0.07,2.409-0.086,3.589
		c-0.759,5.747-4.348,9.385-10.124,10.188C168.207,263.156,162.872,262.632,157.389,262.766z"/>
</g>
</svg>
