<?xml version="1.0" encoding="utf-8"?>
<!-- Generator: Adobe Illustrator 16.0.0, SVG Export Plug-In . SVG Version: 6.00 Build 0)  -->
<!DOCTYPE svg PUBLIC "-//W3C//DTD SVG 1.1//EN" "http://www.w3.org/Graphics/SVG/1.1/DTD/svg11.dtd">
<svg version="1.1" id="Layer_1" xmlns="http://www.w3.org/2000/svg" xmlns:xlink="http://www.w3.org/1999/xlink" x="0px" y="0px"
	 width="3466.629px" height="2452.085px" viewBox="0 0 3466.629 2452.085" enable-background="new 0 0 3466.629 2452.085"
	 xml:space="preserve">
<path fill-rule="evenodd" clip-rule="evenodd" fill="#2F9558" d="M3482.617,1570.508c0,63.333,0,126.667,0,190
	c-5.021,6.654-12.474,9.91-19.537,13.513c-69.732,35.561-138.903,72.202-208.289,108.425
	c-82.085,42.852-164.371,85.324-246.126,128.807c-5.294,2.816-10.617,5.592-16.288,7.586c-3.168,1.114-6.488,2.352-8.682-1.741
	c-1.35-5.752,0.172-11.245,1.492-16.751c32.992-137.604,65.439-275.338,98.138-413.012c16.463-69.317,33.003-138.617,49.21-207.995
	c1.359-5.817,2.27-11.829,6.41-16.576c1.204-1.118,2.632-1.762,4.267-1.926c6.304,0.54,10.862,4.809,15.874,7.875
	c104.537,63.979,208.838,128.343,313.197,192.611C3476.331,1563.816,3479.858,1566.673,3482.617,1570.508z"/>
<path fill-rule="evenodd" clip-rule="evenodd" fill="#C7EAE3" d="M614.617-9.492c69.333,0,138.667,0,208,0
	c5.154,2.483,6.221,7.474,7.527,12.306c22.077,81.606,43.684,163.34,65.645,244.979c10.635,39.531,21.37,79.037,31.648,118.663
	c1.527,5.887,4.41,12.291-1.478,17.757c-5.648,3.103-11.621,2.21-17.56,1.37c-44.408-6.28-89.064-10.354-133.626-15.291
	c-38.952-4.314-77.878-8.916-116.851-13.013c-39.307-4.132-78.545-8.88-117.874-12.79c-24.753-2.462-49.329-6.294-73.99-9.339
	c-1.093-0.226-2.1-0.683-3-1.345c-3.681-6.357,0.829-11.589,2.979-16.714c7.722-18.396,15.929-36.595,24.128-54.788
	c39.088-86.72,77.798-173.609,116.758-260.386C608.84-2.349,610.615-6.657,614.617-9.492z"/>
<path fill-rule="evenodd" clip-rule="evenodd" fill="#80BA94" d="M422.617,2470.508c-61.333,0-122.667,0-184,0
	c-3.751-3.555-3.979-8.178-4.058-12.919c-0.65-38.896-1.503-77.806-2.598-116.672c-0.843-29.924,0.288-59.928-1.862-89.728
	c-1.97-27.313,0.155-54.62-1.859-81.785c-1.8-24.279-1.381-48.471-1.15-72.725c0.314-2.839,1.76-4.888,4.282-6.191
	c4.728-1.944,9.697-2.104,14.723-2.101c32.988,0.021,66.051-1.414,98.948,0.343c53.954,2.881,107.947-0.524,161.802,2.069
	c51.969,2.503,103.891,0.624,155.821,1.581c12.004,0.221,23.841,1.951,35.692,3.312c1.096,0.199,2.144,0.613,3.094,1.206
	c4.835,6.237-1.086,9.894-3.889,13.684c-22.77,30.781-45.689,61.454-68.834,91.954c-49.71,65.509-99.269,131.131-148.687,196.861
	c-15.403,20.489-31.146,40.726-46.373,61.349C430.645,2464.843,427.274,2468.354,422.617,2470.508z"/>
<path fill-rule="evenodd" clip-rule="evenodd" fill="#C7EAE4" d="M-13.383,556.508c0-62.667,0-125.333,0-188
	c2.723-2.793,6.136-3.774,9.93-3.975c38.161-2.009,76.245-5.285,114.306-8.474c37.737-3.161,75.495-6.157,113.249-9.055
	c30.474-2.339,60.981-4.478,91.455-6.823c37.094-2.854,74.217-5.472,111.261-9.055c10.832-1.047,21.816-2.544,32.796-0.861
	c1.171,0.504,2.165,1.245,2.985,2.219l0.03,0.033c0.685,0.782,1.047,1.692,1.099,2.73c-1.124,7.082-5.081,12.979-8.317,19.114
	c-31.824,60.341-63.066,120.984-94.764,181.389c-37.572,71.602-74.759,143.403-112.386,214.976
	c-2.454,4.667-4.604,9.799-10.746,10.913c-5.183-0.832-8.9-4.212-12.773-7.352C159.007,701,94.01,646.811,28.205,593.604
	C13.811,581.968-2.346,572.018-13.383,556.508z"/>
<path fill-rule="evenodd" clip-rule="evenodd" fill="#5BA77C" d="M3482.617,630.508c0,60.667,0,121.333,0,182
	c-2.597,5.925-6.758,10.443-11.792,14.515c-14.775,11.949-27.692,25.951-41.498,38.951
	c-37.569,35.374-75.347,70.534-112.919,105.905c-19.342,18.207-37.625,37.693-59.096,53.61c-0.986,0.236-1.973,0.233-2.966,0.053
	c-1.46-0.495-2.668-1.357-3.672-2.514c-29.78-42.939-58.86-86.366-88.057-129.705c-54.128-80.348-108.6-160.464-162.709-240.823
	c-2.602-3.862-5.403-7.618-7.351-11.877c-2.524-5.518-1.738-9.744,4.833-11.554c3.3-0.834,6.646-0.679,9.966-0.648
	c152.135,1.395,304.242-3.24,456.375-1.987C3470.238,626.487,3477.241,624.926,3482.617,630.508z"/>
<path fill-rule="evenodd" clip-rule="evenodd" fill="#7AB48D" d="M3482.617,58.508c0,34.667,0,69.333,0,104
	c-1.999,4.05-5.455,6.528-9.155,8.889c-72.095,45.986-144.288,91.819-216.373,137.821c-47.964,30.608-95.915,61.236-143.965,91.709
	c-3.929,2.491-7.748,5.164-12.292,6.502c-1.046,0.01-1.996-0.282-2.868-0.855c-3.669-3.249-4.253-8.038-6.108-12.197
	c-43.956-117.389-86.639-235.245-129.896-352.89c-1.702-4.628-4.216-9.161-2.546-14.427c0.548-1.06,1.335-1.871,2.364-2.472
	c1.099-0.514,2.242-0.805,3.446-0.896c29.977-1.446,59.673,2.599,89.493,4.264c24.908,1.39,49.799,3.035,74.7,4.519
	c28.529,1.699,57.052,3.526,85.569,5.422c24.209,1.608,48.441,2.982,72.663,4.494c29.188,1.82,58.373,3.731,87.561,5.514
	c25.878,1.581,51.732,3.67,77.652,4.672C3463.006,52.968,3473.555,52.283,3482.617,58.508z"/>
<path fill-rule="evenodd" clip-rule="evenodd" fill="#248A4A" d="M2984.628,2018.517c23.779-11.909,47.701-23.543,71.306-35.791
	c35.735-18.542,71.169-37.664,106.873-56.268c85.305-44.446,170.684-88.748,256.05-133.076
	c21.222-11.021,42.505-21.919,63.761-32.874c0,106,0,212,0,318c-2.555,12.935-4.15,26.21-13.106,36.887
	c-0.881,0.674-1.852,1.15-2.911,1.467c-18.884,0.281-36.719-5.822-54.961-9.288c-95.475-18.139-190.664-37.733-285.998-56.594
	c-42.767-8.461-85.557-16.81-128.31-25.348c-3.59-0.717-7.185-1.443-10.55-2.986c-1.005-0.587-1.77-1.399-2.302-2.433
	C2984.527,2019.647,2984.577,2019.082,2984.628,2018.517z"/>
<path fill-rule="evenodd" clip-rule="evenodd" fill="#D8F1EF" d="M-13.383,60.508c0-21,0.282-42.006-0.178-62.996
	c-0.131-5.988,1.213-7.179,7.179-7.169c127,0.218,254,0.165,381,0.165c4.842,3.293,6.036,8.535,7.376,13.721
	c16.916,65.472,33.406,131.052,50.218,196.549c9.689,37.749,18.997,75.598,29.099,113.241c1.295,4.829,2.84,9.651,0.885,14.67
	c-5.477,5.255-9.91,0.144-13.929-2.076c-26.517-14.645-52.728-29.838-79.055-44.823c-82.747-47.098-165.406-94.349-248.155-141.443
	C79.394,116.636,37.984,92.479-3.866,69.098C-7.779,66.911-10.744,63.962-13.383,60.508z"/>
<path fill-rule="evenodd" clip-rule="evenodd" fill="#147C38" d="M3476.617,2470.508c-64.667,0-129.333,0-194,0
	c-4.543-2.197-8.156-5.425-11.482-9.252c-43.758-50.363-87.557-100.691-131.217-151.141c-3.39-3.917-6.159-9.057-12.834-7.206
	c-3.708-2.369-3.391-6.013-3.092-9.655c0.152-1.035,0.484-2.012,0.962-2.941c2.755-4.527,7.417-6.537,11.862-8.741
	c61.363-30.421,121.801-62.648,182.886-93.616c44.179-22.396,87.835-45.827,132.202-67.864c5.278-2.621,10.845-6.892,16.96-1.313
	c1.328,9.135,0.006,18.571,3.302,27.474c0.192,0.992,0.409,1.975,0.384,2.978c-1.011,39.271,1.879,78.47,2.588,117.709
	c0.564,31.243-0.024,62.595,2.103,93.726c2.227,32.593-0.266,65.19,2.314,97.707
	C3479.891,2462.603,3480.375,2467.142,3476.617,2470.508z"/>
<path fill-rule="evenodd" clip-rule="evenodd" fill="#74B18A" d="M422.617,2470.508c47.501-63.151,94.98-126.319,142.51-189.45
	c43.739-58.096,87.521-116.159,131.337-174.196c1.764-2.335,4.081-4.252,6.14-6.364c6.596,0.556,6.896,6.45,8.502,10.715
	c12.429,32.989,24.236,66.207,36.212,99.363c29.487,81.64,59.276,163.17,88.463,244.919c1.717,4.808,5.085,9.768,0.837,15.014
	C698.617,2470.508,560.617,2470.508,422.617,2470.508z"/>
<path fill-rule="evenodd" clip-rule="evenodd" fill="#6DAA83" d="M3100.595,406.489c19.851-13.23,39.507-26.764,59.591-39.632
	c50.355-32.264,100.864-64.289,151.387-96.292c56.972-36.087,114.026-72.044,171.045-108.058c0,130.667,0,261.333,0,392
	c-3.753,2.021-7.126,0.168-10.49-1.131c-68.258-26.347-136.445-52.872-204.62-79.433c-51.441-20.041-102.989-39.807-154.392-59.95
	C3108.561,412.209,3103.375,411.308,3100.595,406.489z"/>
<path fill-rule="evenodd" clip-rule="evenodd" fill="#AADED0" d="M1350.617-9.492c2.667,0,5.333,0,8,0
	c11.268,5.497,19.419,14.972,28.549,23.047c69.499,61.47,139.266,122.638,208.671,184.215
	c29.105,25.822,58.569,51.241,87.447,77.322c1.728,1.561,3.646,2.939,5.091,4.772c4.189,5.313,3.138,8.284-3.692,9.307
	c-3.595,0.538-7.212,1.225-10.904,1.334c-40.905-1.142-81.755-2.923-122.565-5.617c-15.592-1.029-31.26-1.226-46.848-1.732
	c-21.941-0.714-43.871-2.045-65.805-2.845c-46.514-1.696-93.001-4.215-139.514-6.131c-26.564-1.095-53.111-2.725-79.687-3.837
	c-15.908-0.666-31.892-1.103-47.731-3.002c-1.698-0.201-3.281-0.722-4.561-1.922c-3.374-6.466,1.5-10.794,4.492-15.193
	c24.537-36.079,48.959-72.236,73.529-108.292c31.697-46.515,63.461-92.983,94.963-139.631
	C1343.057-2.146,1346.134-6.42,1350.617-9.492z"/>
<path fill-rule="evenodd" clip-rule="evenodd" fill="#D7F0EE" d="M-13.383,60.508c28.016,15.597,56.15,30.985,84.022,46.835
	c51.612,29.35,103.047,59.01,154.599,88.464c49.212,28.117,98.507,56.088,147.713,84.217c29.274,16.735,58.446,33.65,87.665,50.484
	c0.625,0.441,0.832,0.883,0.624,1.324c-0.208,0.439-0.417,0.66-0.627,0.66c-46.558,3.951-93.1,8.09-139.677,11.784
	c-30.413,2.413-60.898,3.926-91.315,6.302c-37.991,2.967-75.935,6.541-113.919,9.599c-28.754,2.314-57.533,4.349-86.317,6.276
	c-14.238,0.954-28.511,1.387-42.768,2.055C-13.383,265.841-13.383,163.175-13.383,60.508z"/>
<path fill-rule="evenodd" clip-rule="evenodd" fill="#359A5F" d="M2282.617,2470.508c-111.333,0-222.667,0-334,0
	c-8.748-3.464-16.094-9.057-23.488-14.762c-25.805-19.911-51.531-39.927-77.497-59.631c-4.482-3.401-12.167-5.854-8.825-14.473
	c3.101-2.919,7.122-3.523,11.023-4.272c104.255-20.03,208.404-40.597,312.609-60.886c103.547-20.161,207.081-40.385,310.637-60.499
	c10.037-1.949,20.01-5.305,30.508-3.966c7.364,3.696,2.641,7.793-0.158,10.932c-7.752,8.691-15.74,17.302-24.671,24.719
	c-19.245,15.981-36.39,34.182-54.396,51.402c-36.782,35.176-74.164,69.736-110.424,105.471
	C2304.322,2454.018,2294.916,2464.109,2282.617,2470.508z"/>
<path fill-rule="evenodd" clip-rule="evenodd" fill="#67AC83" d="M3100.595,406.489c19.631,7.166,39.378,14.032,58.871,21.555
	c54.583,21.064,109.093,42.32,163.572,63.65c53.23,20.842,106.389,41.868,159.579,62.813c0,25.333,0,50.667,0,76
	c-163.33,0.672-326.659,1.343-489.988,2.014c-0.949,0.708-1.818,0.621-2.609-0.259c-0.457-0.926-0.639-1.903-0.559-2.931
	c3.071-10.237,8.09-19.692,12.758-29.188c29.625-60.266,57.645-121.303,87.53-181.439c2.06-4.146,3.769-8.55,7.46-11.67
	c0.464-0.187,0.931-0.367,1.396-0.549C3099.269,406.488,3099.932,406.489,3100.595,406.489z"/>
<path fill-rule="evenodd" clip-rule="evenodd" fill="#98D3BA" d="M1818.617-9.492c160.667,0,321.333,0,482,0
	c4.4,4.127,4.146,9.563,4.055,14.879c-0.545,31.563,1.556,63.08,2.615,94.582c1.539,45.766,3.168,91.526,4.128,137.297
	c-0.099,1.182-0.388,2.332-0.841,3.42c-0.552,0.992-1.342,1.782-2.332,2.349c-6.766-0.358-12.638-3.683-18.605-6.278
	c-52.244-22.726-104.295-45.907-156.293-69.18c-68.727-30.758-137.676-61.015-206.319-91.944
	c-40.395-18.201-81.021-35.875-121.379-54.153c-3.926-1.778-8.143-3.199-10.124-7.591c0.896-10.189,8.946-14.667,16.035-19.83
	C1813.665-7.478,1816.492-7.839,1818.617-9.492z"/>
<path fill-rule="evenodd" clip-rule="evenodd" fill="#C0E8E0" d="M926.614,382.507c-7.009-28.011-13.683-56.109-21.091-84.014
	c-19.44-73.223-39.172-146.369-58.849-219.528c-7.937-29.508-16.033-58.973-24.058-88.457c94.667,0,189.333,0,284,0
	c7.797,3.159,14.02,8.573,20.188,14.069c2.741,2.441,5.829,4.288,9.406,5.271c2.247,1.57,2.921,3.841,2.899,6.432
	c-0.058,0.999-0.255,1.974-0.545,2.931c-64.27,115.402-130.169,229.893-194.967,345.004c-3.269,5.805-6.923,11.359-10.404,17.033
	c-1.013,1.198-2.261,2-3.813,2.298C928.32,383.573,927.397,383.225,926.614,382.507z"/>
<path fill-rule="evenodd" clip-rule="evenodd" fill="#A4DBCB" d="M1678.615,286.516c3.365-0.563,6.73-1.126,10.097-1.688
	c-2.388-2.16-4.761-4.335-7.163-6.478c-37.147-33.121-74.164-66.391-111.485-99.314c-41.785-36.86-83.946-73.295-125.757-110.128
	c-28.395-25.016-56.473-50.391-84.644-75.659c-0.647-0.58-0.71-1.813-1.046-2.74c21.333,0,42.667,0,64,0
	c13.104,2.55,26.433,1.237,39.608,1.655c30.524,0.97,61.104,1.156,91.599,2.618c30.469,1.461,60.989,2.392,91.398,5.219
	c13.203,1.228,26.539,1.602,39.754,2.005c31.199,0.954,62.263,4.376,93.484,4.527c4.354,0.021,8.613,0.687,12.627,2.469
	c1.052,0.528,2.05,1.166,2.977,1.881c0.784,0.84,1.264,1.847,1.43,2.986c0.033,6.765-2.152,13.068-4.489,19.264
	c-30.081,79.744-59.215,159.84-89.148,239.639c-2.415,6.437-3.894,13.591-10.387,17.733
	C1686.42,291.636,1681.015,293.891,1678.615,286.516z"/>
<path fill-rule="evenodd" clip-rule="evenodd" fill="#87BE99" d="M230.622,2092.508c-0.667,1.333-1.334,2.667-2.001,4
	c0.329,5.745-1.067,11.137-3.285,16.379c-48.732,115.195-97.691,230.295-146.387,345.507c-1.966,4.651-3.99,9.149-8.332,12.114
	c-18.667,0-37.333,0-56,0c-2.821-2.722-3.708-6.189-3.939-9.955c-1.587-25.898-3.936-51.742-6.043-77.6
	c-3.132-38.437-6.201-76.88-9.442-115.309c-3.129-37.093-6.06-74.218-6.559-111.473c-0.088-6.624-0.07-13.24-2.017-19.664
	c0-24,0-48,0-72c3.415-3.438,7.66-3.528,12.082-3.063c34.005,3.577,67.949,7.7,101.925,11.534
	c39.585,4.467,79.21,8.625,118.731,13.658c1.323,0.169,2.622,0.437,3.913,0.775C226.173,2088.451,228.924,2089.725,230.622,2092.508
	z"/>
<path fill-rule="evenodd" clip-rule="evenodd" fill="#8AC7A4" d="M2542.617-9.492c82.667,0,165.333,0,248,0
	c28.279,11.749,54.146,28.063,80.854,42.78c2.607,1.438,5.167,3.115,5.898,6.39c-0.038,1.061-0.367,2.018-0.971,2.889
	c-5.498,5.35-12.902,6.82-19.717,9.206c-85.791,30.027-171.423,60.507-257.158,90.691c-91.072,32.064-182.007,64.526-273.113,96.499
	c-4.698,1.649-9.303,3.621-14.452,3.015c-0.99-0.348-1.689-1.019-2.089-1.989c3.443-9.236,10.184-16.175,16.786-23.039
	c44.976-46.755,88.663-94.722,133.221-141.872c22.147-23.437,44.608-46.635,65.737-71.041
	C2530.395-1.486,2535.562-6.73,2542.617-9.492z"/>
<path fill-rule="evenodd" clip-rule="evenodd" fill="#449D6E" d="M3254.618,1024.514c0.663-0.007,1.326-0.014,1.989-0.02
	c4.191-1.803,7.784,0.169,11.387,1.867c41.175,19.418,82.136,39.282,123.293,58.738c26.734,12.639,53.232,25.779,80.135,38.067
	c4.626,2.112,8.908,4.492,11.195,9.341c0,12.667,0,25.333,0,38c-2.146,5.285-6.574,8.047-11.311,10.688
	c-62.457,34.836-125.013,69.495-187.443,104.378c-40.364,22.553-80.773,45.025-121.283,67.311
	c-6.813,3.748-13.164,10.636-22.494,7.03c-1.758-5.19,0.49-9.865,2.097-14.513c35.642-103.156,70.374-206.623,105.858-309.833
	c1.092-3.175,2.587-6.116,4.199-9.028C3252.837,1025.634,3253.631,1024.96,3254.618,1024.514z"/>
<path fill-rule="evenodd" clip-rule="evenodd" fill="#208843" d="M3126.629,2290.508c-0.008,0.663-0.016,1.326-0.023,1.988
	c-2.643,6.7-7.621,11.559-12.799,16.269c-25.059,22.796-49.387,46.358-73.825,69.815c-29.468,28.285-59.593,55.889-88.496,84.761
	c-3.757,3.753-8.64,4.69-12.868,7.167c-28.667,0-57.333,0-86,0c-3.752-1.892-5.918-5.019-7.704-8.781
	c-32.705-68.897-64.913-138.03-97.863-206.813c-2.529-5.28-5.995-10.631-2.93-17.001c0.805-0.816,1.738-1.406,2.81-1.804
	c6.69-2.128,13.287-0.121,19.789,0.797c56.324,7.956,112.711,15.452,169.085,23.029c57.033,7.667,114.012,15.745,171.097,23.025
	c6.577,0.839,13.281,1.637,18.743,6.078C3125.974,2289.527,3126.301,2290.018,3126.629,2290.508z"/>
<path fill-rule="evenodd" clip-rule="evenodd" fill="#6DB289" d="M836.617,2470.508c-9.032-26.02-17.812-52.131-27.148-78.041
	c-20.842-57.84-41.878-115.608-62.997-173.348c-14.481-39.592-29.235-79.085-43.868-118.622c-0.003-0.671-0.006-1.341-0.01-2.012
	c0.372-0.318,0.744-0.637,1.114-0.959c5.227-1.556,8.981,1.68,12.734,4.245c69.479,47.473,139.789,93.717,209.135,141.383
	c6.729,4.627,15.032,7.438,19.458,15.14c0.296,1.11,0.491,2.215,0.615,3.354c1.942,15.995-0.787,31.889-1.768,47.718
	c-0.901,14.551-1.899,29.201-2.768,43.748c-2.12,35.49-4.424,70.975-6.462,106.472c-0.236,4.117-0.935,7.929-4.036,10.923
	C899.284,2470.508,867.95,2470.508,836.617,2470.508z"/>
<path fill-rule="evenodd" clip-rule="evenodd" fill="#D4EFEC" d="M460.613,332.492c0.002-0.661,0.003-1.323,0.003-1.984
	c-7.452-30.625-14.634-61.319-22.408-91.863c-21.063-82.746-42.376-165.429-63.591-248.137c80,0,160,0,240,0
	c-10.062,23.46-19.875,47.029-30.231,70.357c-27.334,61.568-54.86,123.051-82.397,184.527
	c-13.025,29.078-26.253,58.064-39.389,87.092c-0.001,0-0.993,0.01-0.993,0.01L460.613,332.492z"/>
<path fill-rule="evenodd" clip-rule="evenodd" fill="#8EC8A7" d="M224.617,2090.52c-33.914-3.645-67.837-7.201-101.739-10.958
	c-32.254-3.574-64.48-7.407-96.73-11.027c-13.162-1.478-26.353-2.692-39.53-4.026c0-4.667,0-9.333,0-14
	c32.61-98.509,72.63-194.273,108.151-291.706c2.051-5.625,2.485-12.742,9.686-15.309c4.564,0.643,5.39,4.525,6.596,7.891
	c12.345,34.453,24.69,68.918,37.407,103.222c20.121,54.277,38.381,109.228,59.428,163.165c4.834,12.389,8.577,25.189,13.162,37.695
	c4,10.911,7.514,21.987,12.658,32.454C232.027,2093.503,228.186,2091.535,224.617,2090.52z"/>
<path fill-rule="evenodd" clip-rule="evenodd" fill="#B8E3DB" d="M-13.383,1050.508c0-98.667,0-197.333,0-296
	c3.538-3.774,8.158-4.037,12.901-4.074c41.903-0.33,83.74,1.489,125.564,3.778c5.322,0.292,10.658,0.369,15.974,0.159
	c26.309-1.037,52.481,1.954,78.724,2.497c4.921,1.036,9.761,2.463,14.621,3.76c6.749,4.566,1.711,8.869-0.818,12.47
	c-7.853,11.181-16.704,21.622-25.15,32.359c-63.257,80.415-126.03,161.209-189.519,241.441c-3.246,4.103-5.853,9-11.125,11.166
	C-0.355,1058.598-7.469,1056.229-13.383,1050.508z"/>
<path fill-rule="evenodd" clip-rule="evenodd" fill="#62AB81" d="M930.617,2470.508c3.294-54.126,6.656-108.248,9.842-162.38
	c0.973-16.521,1.458-33.071,2.167-49.608c0.776-0.656,1.672-1.008,2.688-1.063c20.604,8.672,38.946,21.447,58.243,32.465
	c42.155,24.071,83.898,48.862,125.889,73.225c33.946,19.694,67.79,39.565,101.586,59.519c20.049,11.838,40.669,22.702,60.267,35.31
	c3.288,2.115,7.369,3.439,8.36,7.981c0.139,3.53-3.299,3.101-5.041,4.552C1173.284,2470.508,1051.95,2470.508,930.617,2470.508z"/>
<path fill-rule="evenodd" clip-rule="evenodd" fill="#4F9F72" d="M3482.617,1132.508c-75.337-36.005-150.674-72.009-226.01-108.014
	c27.158-25.895,54.25-51.857,81.502-77.652c14.229-13.47,28.768-26.612,43.117-39.956c33.813-31.442,67.596-62.916,101.391-94.378
	C3482.617,919.175,3482.617,1025.841,3482.617,1132.508z"/>
<path fill-rule="evenodd" clip-rule="evenodd" fill="#299150" d="M2592.617,2470.508c-26,0-52,0-78,0
	c-5.207-2.794-5.912-7.684-5.902-12.851c0.01-5.325-0.049-10.661,0.05-15.974c0.839-45.313-3.194-90.539-2.259-135.853
	c0.213-10.309,0.335-20.617-1.493-30.891c-1.589-8.927,0.351-17.193,6.899-23.962c6.978-3.827,14.953-3.668,22.325-3.925
	c26.175-0.91,52.244-3.327,78.364-4.875c25.438-1.508,50.892-3.168,76.319-5.05c14.515-1.074,29.075-2.114,43.638-2.607
	c2.807,0.313,5.528,1.07,8.241,1.811c6.104,5.495,1.516,10.282-1.317,14.83c-14.967,24.02-30.769,47.505-46.203,71.224
	c-29.598,45.485-59.421,90.825-88.81,136.448C2601.376,2463.637,2598.225,2468.297,2592.617,2470.508z"/>
<path fill-rule="evenodd" clip-rule="evenodd" fill="#3C9866" d="M3140.618,1360.508c31.161-16.972,62.423-33.765,93.462-50.958
	c44.424-24.608,88.697-49.491,133.015-74.292c38.521-21.558,77.017-43.165,115.522-64.75c0,68,0,136,0,204
	c-3.344,3.421-7.547,3.77-12.008,3.524c-30.842-1.694-61.716-2.526-92.587-3.522c-42.165-1.359-84.331-2.828-126.48-4.447
	c-28.853-1.108-57.752-1.532-86.591-3.336c-7.081-0.442-13.813-1.562-20.334-4.213c-1.33,0.004-2.659,0.007-3.988,0.011
	l-0.596-0.587l-0.003-0.835L3140.618,1360.508z"/>
<path fill-rule="evenodd" clip-rule="evenodd" fill="#33935D" d="M3144.617,1362.514c50.418,1.34,100.839,2.55,151.251,4.061
	c37.119,1.113,74.233,2.461,111.337,4.001c25.148,1.044,50.275,2.604,75.412,3.933c0,65.333,0,130.667,0,196
	c-27.328-16.414-54.78-32.624-81.96-49.28c-81.099-49.699-162.101-99.558-243.099-149.423
	C3153.048,1369.027,3148.922,1365.625,3144.617,1362.514z"/>
<path fill-rule="evenodd" clip-rule="evenodd" fill="#80B792" d="M70.617,2470.508c18.872-45.079,37.629-90.207,56.642-135.227
	c27.041-64.029,54.263-127.982,81.418-191.964c6.626-15.612,13.294-31.207,19.943-46.81c0.665,2.49,1.865,4.971,1.913,7.473
	c0.781,40.56,1.301,81.124,2.111,121.684c1.238,62.072,2.598,124.142,4.026,186.21c0.45,19.55,1.287,39.09,1.947,58.634
	C182.617,2470.508,126.617,2470.508,70.617,2470.508z"/>
<path fill-rule="evenodd" clip-rule="evenodd" fill="#238B48" d="M2592.617,2470.508c49.225-75.526,98.455-151.049,147.641-226.601
	c1.056-1.623,1.592-3.585,2.371-5.388c0.653-0.493,1.313-0.477,1.977-0.023c7.348,16.686,14.33,33.541,22.107,50.023
	c26.08,55.267,52.457,110.394,78.677,165.595c2.562,5.393,4.825,10.926,7.228,16.394
	C2765.95,2470.508,2679.284,2470.508,2592.617,2470.508z"/>
<path fill-rule="evenodd" clip-rule="evenodd" fill="#B3E2D7" d="M1136.611,18.5c0.002-0.664,0.003-1.328,0.006-1.993
	c2.266-4.395,6.297-5.449,10.786-6.024c43.878-5.628,87.687-11.84,131.662-16.648c15.11-1.652,30.437-1.206,45.552-3.326
	c8.667,0,17.333,0,26,0c-15.285,23.249-30.275,46.698-45.912,69.708c-45.894,67.53-92.045,134.887-138.095,202.311
	c-0.557-0.225-1.114-0.449-1.675-0.67c-3.219-2.474-3.782-6.101-4.246-9.774c-8.79-69.672-16.749-139.446-25.571-209.115
	C1134.091,34.855,1132.319,26.415,1136.611,18.5z"/>
<path fill-rule="evenodd" clip-rule="evenodd" fill="#7DB28D" d="M3482.617,58.508c-49.279-3.285-98.556-6.62-147.84-9.833
	c-23.167-1.51-46.353-2.722-69.523-4.178c-51.279-3.224-102.549-6.606-153.834-9.743c-26.42-1.615-52.866-2.802-79.297-4.259
	c-23.179-1.277-46.353-2.661-69.528-3.997c-1.087-3.118,0.96-4.708,3.042-6.286c11.902-5.137,23.137-11.631,34.734-17.395
	c9.791-4.866,19.468-9.913,30.246-12.31c148,0,296,0.061,444-0.192c6.849-0.012,8.411,1.313,8.209,8.198
	C3482.238,18.497,3482.617,38.508,3482.617,58.508z"/>
<path fill-rule="evenodd" clip-rule="evenodd" fill="#2C9355" d="M2512.617,2252.52c-1.328,6.393-3.83,12.793-3.785,19.176
	c0.218,30.553,0.969,61.105,1.835,91.649c0.79,27.89,1.961,55.769,2.983,83.651c0.288,7.838,0.643,15.675,0.967,23.512
	c-77.333,0-154.667,0-232,0c20.225-19.729,40.307-39.606,60.721-59.138c15.363-14.698,31.357-28.738,46.709-43.448
	c38.203-36.604,76.205-73.42,114.259-110.18c0.938-0.905,1.548-2.148,2.312-3.234c0.125-1.258,0.82-2.142,1.839-2.816
	c0.723-0.323,1.481-0.464,2.272-0.432C2511.51,2251.45,2512.133,2251.882,2512.617,2252.52z"/>
<path fill-rule="evenodd" clip-rule="evenodd" fill="#C4E9E3" d="M222.621,760.514c-53.776-1.344-107.553-2.678-161.329-4.038
	c-24.892-0.63-49.783-1.311-74.674-1.968c0-66,0-132,0-198c12.754,9.898,25.688,19.576,38.227,29.741
	c28.822,23.365,57.505,46.903,86.145,70.492c41.923,34.53,83.759,69.167,125.632,103.758
	C231.955,762.077,227.289,762.048,222.621,760.514z"/>
<path fill-rule="evenodd" clip-rule="evenodd" fill="#9DD5BC" d="M-13.383,1728.508c0-102.667,0-205.333,0-308
	c6.336-5.56,13.939-7.334,22.12-7.413c1.64,0.558,2.777,1.659,3.502,3.213c15.599,51.321,30.264,102.922,45.439,154.372
	c14.703,49.853,29.431,99.697,43.895,149.619c0.927,3.201,1.839,6.403,2.603,9.65c1.853,7.877-0.246,13.17-9.088,14.205
	c-22.365-0.059-44.27-4.742-66.458-6.612c-9.265-0.78-18.502-2.078-27.764-2.997C-4.603,1734.002-9.688,1733.02-13.383,1728.508z"/>
<path fill-rule="evenodd" clip-rule="evenodd" fill="#459C6D" d="M1798.617,2470.508c-106,0-212,0-318,0
	c-7.886-10.529-5.398-22.575-5.035-34.319c2.783-4.51,7.399-5.136,12.074-5.822c50.628-7.432,101.322-14.392,151.971-21.678
	c54.593-7.854,109.266-15.15,163.797-23.43c9.543-1.448,19.216-1.259,28.749-2.601c0.556-0.009,1.123-0.012,1.678-0.025
	c1.095,0.174,2.085,0.618,2.951,1.31c2.578,4.644,1.062,9.072-0.911,13.376c-9.849,21.496-19.809,42.942-29.329,64.588
	C1804.867,2465.76,1802.277,2468.575,1798.617,2470.508z"/>
<path fill-rule="evenodd" clip-rule="evenodd" fill="#97CFB2" d="M-13.383,1728.508c36.667,4.002,73.333,8.004,110,12.006
	c2.354,2.265,5.566-0.189,8.033,1.459c0.584,0.853,0.57,1.696-0.04,2.529c-14.142,36.834-28.439,73.609-42.393,110.515
	c-23.949,63.34-47.666,126.768-71.583,190.12c-0.759,2.009-2.652,3.59-4.017,5.371
	C-13.383,1943.175-13.383,1835.841-13.383,1728.508z"/>
<path fill-rule="evenodd" clip-rule="evenodd" fill="#177F3B" d="M2938.617,2470.508c40.972-39.301,81.818-78.732,122.965-117.848
	c21.4-20.343,43.332-40.127,65.023-60.164c0.671,3.338,1.342,6.675,2.012,10.012c7.334,9.184,4.851,20.538,5.58,30.695
	c2.713,37.796,5.322,75.602,8.083,113.397c0.588,8.038,2.79,16.76-3.663,23.907
	C3071.95,2470.508,3005.284,2470.508,2938.617,2470.508z"/>
<path fill-rule="evenodd" clip-rule="evenodd" fill="#94D0B2" d="M2310.617,238.507c-0.01,0.661-0.018,1.323-0.022,1.984
	c-0.642,0.628-1.298,0.643-1.966,0.043c-1.346-42.504-2.678-85.007-4.04-127.51c-1.308-40.84-2.646-81.678-3.972-122.517
	c41.333,0,82.667,0,124,0c2.182,4.201-0.165,7.766-1.765,11.321c-22.36,49.701-45.526,99.031-68.376,148.508
	c-9.473,20.513-18.882,41.057-28.373,61.562C2321.746,221.313,2316.717,230.183,2310.617,238.507z"/>
<path fill-rule="evenodd" clip-rule="evenodd" fill="#8FCBAB" d="M2310.617,238.507c11.844-26.328,23.482-52.752,35.574-78.966
	c26.019-56.401,52.27-112.695,78.426-169.033c39.333,0,78.667,0,118,0c-17.922,19.588-35.637,39.371-53.808,58.726
	c-44.794,47.711-89.813,95.211-134.708,142.828C2339.553,207.492,2325.109,223.022,2310.617,238.507z"/>
<path fill-rule="evenodd" clip-rule="evenodd" fill="#107835" d="M3138.617,2470.508c-3.29-49.371-6.624-98.739-9.816-148.116
	c-0.427-6.604-0.14-13.255-0.184-19.884c0.452-2.204,0.903-4.408,1.355-6.611c1.55,0.889,3.488,1.441,4.596,2.715
	c47.867,55.083,95.668,110.225,143.438,165.392c1.731,2,3.082,4.329,4.61,6.505
	C3234.617,2470.508,3186.617,2470.508,3138.617,2470.508z"/>
<path fill-rule="evenodd" clip-rule="evenodd" fill="#AEDFD1" d="M-13.383,1050.508c7.333,1.994,14.666,3.988,21.999,5.983
	c0.336,0.548,0.672,1.096,1.012,1.642c1.736,4.155,1.061,8.534,1.063,12.818c0.026,48.559-0.359,97.12,0.162,145.672
	c0.328,30.557-1.363,61.144,0.135,91.633c1.354,27.574,1.613,55.115,1.755,82.688c0.029,5.673-0.301,11.288-1.265,16.848
	c-0.114,1.137-0.413,2.247-0.876,3.295c-4.231,4.93-7.531,1.701-10.51-1.463c-5.383-5.718-9.425-12.431-13.474-19.115
	C-13.383,1277.175-13.383,1163.841-13.383,1050.508z"/>
<path fill-rule="evenodd" clip-rule="evenodd" fill="#3A9764" d="M1798.617,2470.508c12.676-28.659,25.353-57.318,38.028-85.978
	c0.655-0.62,1.314-0.656,1.978-0.011c34.855,26.771,69.725,53.525,104.537,80.353c2.05,1.579,3.648,3.743,5.457,5.636
	C1898.617,2470.508,1848.617,2470.508,1798.617,2470.508z"/>
<path fill-rule="evenodd" clip-rule="evenodd" fill="#8BBF9B" d="M-13.383,2136.508c1.975,12.973,4.719,25.882,5.778,38.928
	c3.11,38.302,5.232,76.683,8.33,114.984c4.317,53.395,9.224,106.74,13.719,160.12c0.557,6.613,0.14,13.31,0.173,19.968
	c-9.333,0-22.309,3.643-26.976-1.024c-4.667-4.667-1.024-17.643-1.024-26.976C-13.383,2340.508-13.383,2238.508-13.383,2136.508z"/>
<path fill-rule="evenodd" clip-rule="evenodd" fill="#ADDED2" d="M1794.572,12.488c-36.746-1.997-73.491-3.995-110.237-5.989
	c-49.332-2.678-98.666-5.328-147.996-8.038c-35.42-1.945-70.838-3.938-106.249-6.027c-2.521-0.148-4.983-1.262-7.473-1.926
	c125.333,0,250.667,0,376,0C1804.847-0.771,1798.448,5.626,1794.572,12.488z"/>
<path fill-rule="evenodd" clip-rule="evenodd" fill="#87C19C" d="M2876.617,40.504c-26.395-14.856-52.809-29.681-79.154-44.621
	c-2.496-1.415-4.574-3.565-6.846-5.375c26,0,52,0,78,0c31.324,7.215,60.538,20.377,90.291,32.038c1.3,1,2.286,2.136,1.697,3.945
	l0.023,0.025c-2.705,3.148-6.11,5.012-10.213,5.643c-20.636,3.174-41.075,7.499-61.74,10.501
	C2884.431,43.277,2880.074,44.362,2876.617,40.504z"/>
<path fill-rule="evenodd" clip-rule="evenodd" fill="#0B7332" d="M3476.617,2470.508c-1.344-57.832-2.63-115.664-4.047-173.494
	c-1.245-50.837-2.636-101.67-3.963-152.506c-2.083-7.422-0.683-14.994-0.891-22.492c-0.139-5.05,2.854-4.269,5.806-2.435
	c6.247,3.881,6.737,10.919,9.095,16.927c0,109-0.013,218,0.047,327C3482.666,2467.869,3483.493,2472.354,3476.617,2470.508z"/>
<path fill-rule="evenodd" clip-rule="evenodd" fill="#52A174" d="M1294.617,2470.508c1.335-1.332,2.67-2.664,4.006-3.995
	c0.696-0.926,1.537-1.693,2.519-2.308c13.236-6.188,27.779-6.511,41.796-9c38.671-6.868,77.379-13.541,116.09-20.188
	c4.844-0.831,9.787-2.551,14.687-0.057c4.861,14.513-3.903,24.785-11.097,35.547
	C1406.617,2470.508,1350.617,2470.508,1294.617,2470.508z"/>
<path fill-rule="evenodd" clip-rule="evenodd" fill="#BEE6DF" d="M1324.617-9.492c-17.867,2.665-35.701,5.573-53.607,7.946
	c-38.625,5.118-77.292,9.929-115.931,14.951c-6.184,0.804-12.31,2.057-18.462,3.102c-0.665-2-1.329-4-1.994-6
	c-6.996-5.532-8.601-12.146-4.006-19.999C1195.284-9.492,1259.95-9.492,1324.617-9.492z"/>
<path fill-rule="evenodd" clip-rule="evenodd" fill="#8DC5A2" d="M2958.617,24.508c-30-11.334-60-22.667-90-34c24,0,48,0,72,0
	C2949.326,0.407,2958.271,10.182,2958.617,24.508z"/>
<path fill-rule="evenodd" clip-rule="evenodd" fill="#8ABE9A" d="M2958.617,24.508c-6-11.334-12-22.667-18-34c18,0,36,0,54,0
	c3.289,5.043-0.84,7.913-3.472,10.945c-7.126,8.21-15.433,15.108-24.542,21.039c-1.336,1.335-2.672,2.671-4.009,4.006
	c-0.663-0.001-1.326-0.003-1.989-0.007C2959.943,25.83,2959.28,25.169,2958.617,24.508z"/>
<path fill-rule="evenodd" clip-rule="evenodd" fill="#83B592" d="M2966.604,22.492c9.338-10.662,18.676-21.323,28.014-31.984
	c12,0,24,0,36,0C3009.279,1.169,2987.941,11.83,2966.604,22.492z"/>
<path fill-rule="evenodd" clip-rule="evenodd" fill="#A9DCCB" d="M-13.383,1390.508c4.528,4.793,8.985,9.657,13.612,14.353
	c2.651,2.69,5.581,5.107,8.385,7.647c0.451,0.444,0.601,0.889,0.451,1.333c-0.149,0.444-0.299,0.667-0.45,0.667
	c-7.333,2-14.666,4-21.999,6C-13.383,1410.508-13.383,1400.508-13.383,1390.508z"/>
<path fill-rule="evenodd" clip-rule="evenodd" fill="#4A986D" d="M1462.617,2470.508c4.004-11.33,8.008-22.659,12.012-33.988
	c0.331-0.175,0.662-0.349,0.994-0.522c0.331,0.174,0.663,0.348,0.994,0.522c1.333,11.329,2.667,22.658,4,33.988
	C1474.617,2470.508,1468.617,2470.508,1462.617,2470.508z"/>
<path fill-rule="evenodd" clip-rule="evenodd" fill="#C8EAE5" d="M1130.617-9.492c1.335,6.666,2.67,13.333,4.006,19.999
	c-1.04,0.583-2.708,1.91-3.026,1.641c-8.412-7.112-16.684-14.39-24.979-21.64C1114.617-9.492,1122.617-9.492,1130.617-9.492z"/>
<path fill-rule="evenodd" clip-rule="evenodd" fill="#1F8144" d="M3468.64,2114.52c4.662-12.004,9.325-24.008,13.988-36.012
	c0,11.333,0,22.667,0,34C3478.7,2118.291,3474.071,2119.201,3468.64,2114.52z"/>
<path fill-rule="evenodd" clip-rule="evenodd" fill="#117435" d="M3468.629,2114.52c4.662-0.671,9.325-1.342,13.988-2.012
	c0,8,0,16,0,24c-4.167-5.307-8.333-10.613-12.5-15.919c-0.5,6.986-1.009,13.972-1.492,20.96c-0.068,0.982-0.015,1.973-0.018,2.959
	c-0.659-9.329-1.319-18.659-1.979-27.988c0.122-1.205,1.372-1.296,1.988-2.012L3468.629,2114.52z"/>
<path fill-rule="evenodd" clip-rule="evenodd" fill="#A3D8C3" d="M1794.572,12.488c1.349-7.327,2.696-14.653,4.045-21.98
	c6.667,0,13.333,0,20,0c-7.335,7.33-14.67,14.66-22.006,21.99c-0.654,1.026-1.315,0.979-1.982,0.014L1794.572,12.488z"/>
<path fill-rule="evenodd" clip-rule="evenodd" fill="#369F61" d="M3140.629,1362.524c-30.654,129.223-61.325,258.44-91.954,387.668
	c-20.98,88.519-41.9,177.052-62.872,265.572c-0.227,0.956-0.776,1.836-1.175,2.752l-0.011-0.003
	c-6.654,1.834-10.471-3.249-14.688-6.521c-49.688-38.545-99.309-77.175-148.967-115.757
	c-84.602-65.731-169.008-131.716-253.612-197.444c-5.004-3.888-9.706-8.066-14.36-12.345c-0.654-0.778-1.065-1.667-1.291-2.651
	c-0.025-1.02,0.177-1.992,0.58-2.926c8.064-9.467,19.844-13.194,30.216-18.867c87.017-47.596,174.042-95.176,261.173-142.563
	c78.357-42.616,156.686-85.287,235.045-127.899c16.667-9.063,33.257-18.271,49.982-27.227c3.671-1.966,7.332-5.162,11.899-1.843
	L3140.629,1362.524z"/>
<path fill-rule="evenodd" clip-rule="evenodd" fill="#BBE5DC" d="M926.614,382.507c0.672,0.003,1.345,0.007,2.017,0.01
	c3.386,3.343,2.466,7.405,1.495,11.204c-5.243,20.526-9.714,41.236-14.889,61.777c-0.893,3.542-2.083,7.001-4.938,9.56
	c-5.367,3.829-10.939,1.696-16.308,0.228c-34.99-9.572-69.576-20.513-104.288-31.024c-76.749-23.243-153.627-46.063-230.404-69.212
	c-29.931-9.024-59.552-19.129-89.875-26.848c-2.576-0.655-5.238-1.181-6.813-3.695c0.002-0.663,0.008-1.325,0.017-1.988
	c29.306,2.99,58.621,5.885,87.913,8.995c33.571,3.565,67.119,7.348,100.682,10.989c32.583,3.535,65.182,6.917,97.754,10.544
	c26.967,3.002,53.909,6.229,80.854,9.417c27.276,3.228,54.535,6.605,81.822,9.731C916.588,382.76,921.625,382.425,926.614,382.507z"
	/>
<path fill-rule="evenodd" clip-rule="evenodd" fill="#86C4A0" d="M224.617,2090.52c2.67-1.337,5.339-2.674,8.009-4.012
	c-0.396-4.012,2.011-6.932,3.964-9.995c33.494-52.536,67.665-104.636,101.399-157.017c21.287-33.052,42.964-65.853,64.148-98.972
	c2.493-3.897,4.654-8.213,9.758-9.454c9.419,1.271,15.165,8.611,20.64,14.71c11.843,13.189,25.645,24.204,37.992,36.8
	c31.012,31.633,61.983,63.343,94.016,93.929c42.377,40.464,83.564,82.108,125.073,123.437c4.915,4.895,10.304,9.455,13.563,15.806
	c0.136,0.981-0.05,1.9-0.549,2.757c0,0-0.036-0.021-0.037-0.022c-59.213-0.664-118.427-1.295-177.64-2.003
	c-51.554-0.616-103.107-1.296-154.66-1.992c-46.558-0.63-93.115-1.319-139.672-1.982
	C228.62,2091.845,226.618,2091.182,224.617,2090.52z"/>
<path fill-rule="evenodd" clip-rule="evenodd" fill="#B9E4DB" d="M462.611,334.506c18.258,4.646,36.666,8.776,54.741,14.048
	c32.718,9.542,65.218,19.827,97.843,29.688c66.252,20.025,132.465,40.185,198.821,59.863c31.384,9.307,63.06,17.632,94.603,26.402
	c0.478,0.869,0.641,1.793,0.498,2.773c-8.578,14.372-22.682,23.245-34.652,34.139c-28.792,26.204-57.915,52.053-87.018,77.919
	c-35.568,31.614-70.925,63.466-106.455,95.123c-33.544,29.886-66.971,59.902-100.484,89.821
	c-35.251,31.47-70.431,63.017-105.719,94.444c-22.115,19.696-44.256,39.373-66.131,59.341c-5.389,4.919-10.472,10.313-17.83,12.437
	c-4.875,0.434-8.216-2.372-11.122-5.646c-28.923-32.585-58.063-64.978-87.015-97.536c-14.365-16.155-28.82-32.229-43.26-48.314
	c-4.669-5.202-9.548-10.211-12.806-16.495c-4.668-0.667-9.336-1.333-14.004-2c4.667-0.005,9.333-0.01,14-0.015
	c8.566-14.462,17.804-28.573,25.586-43.445c37.158-71.016,73.83-142.286,110.856-213.371c28.57-54.852,57.404-109.565,86.16-164.319
	C460.134,337.629,461.473,336.12,462.611,334.506z"/>
<path fill-rule="evenodd" clip-rule="evenodd" fill="#53AB7B" d="M3254.618,1024.514c-0.009,0.656-0.016,1.313-0.022,1.97
	c-7.426,7.202-17.325,9.854-26.397,13.772c-110.971,47.93-221.703,96.409-332.721,144.23
	c-36.085,15.543-71.952,31.594-108.181,46.807c-4.25,1.784-8.342,4.238-13.213,4.196c-1.119-0.306-2.045-0.896-2.813-1.764
	c-0.679-0.959-1.135-2.006-1.393-3.146c-5.956-28.048-7.579-56.663-11.074-85.024c-4.555-36.952-8.626-73.967-12.909-110.954
	c-5.124-44.253-10.425-88.485-15.346-132.762c-1.54-13.858-4.063-27.627-3.892-41.637c0.002-1.146,0.262-2.243,0.761-3.277
	c5.33-5.588,11.188-2.36,16.724-0.699c31.576,9.478,62.824,20,94.197,30.114c120.11,38.72,240.365,76.99,360.424,115.871
	c13.301,4.308,26.698,8.328,39.98,12.708c5.14,1.694,9.905,3.869,13.885,7.589
	C3253.292,1023.177,3253.955,1023.845,3254.618,1024.514z"/>
<path fill-rule="evenodd" clip-rule="evenodd" fill="#5DAD81" d="M3252.629,1022.508c-17.806-5.373-35.699-10.47-53.4-16.166
	c-86.457-27.825-172.838-55.885-259.293-83.715c-66.813-21.507-133.688-42.819-200.563-64.128
	c-3.428-1.092-7.127-1.333-10.699-1.971c-0.606-0.799-0.79-1.693-0.614-2.675c0.712-1.872,2.018-3.238,3.671-4.305
	c69.699-59.924,139.719-119.477,209.601-179.191c12.913-11.034,25.657-22.269,38.806-33.027c3.07-2.512,5.898-5.58,10.48-4.816
	c0.67,0.003,1.341,0.005,2.012,0.008c9.846,15.735,19.294,31.736,29.613,47.154c29.981,44.793,60.306,89.357,90.507,134.003
	c44.557,65.867,89.14,131.716,133.646,197.616C3248.779,1014.825,3250.564,1018.761,3252.629,1022.508z"/>
<path fill-rule="evenodd" clip-rule="evenodd" fill="#79B990" d="M3094.617,394.508c1.33,3.993,2.659,7.986,3.988,11.979
	c0-0.001,0.012,0.023,0.012,0.023c-2.633,4.114-6.724,6.287-10.943,8.351c-47.512,23.236-95.547,45.376-143.134,68.453
	c-3.57,1.731-7.181,3.669-11.434,2.342c-1.025-0.508-1.827-1.244-2.439-2.209c-0.516-1.031-0.886-2.104-1.133-3.227
	c-4.782-20.468-5.983-41.44-8.748-62.184c-6.675-50.094-12.923-100.246-19.052-150.41c-6.17-50.501-12.845-100.938-19.155-151.42
	c-2.269-18.145-4.503-36.293-6.857-54.426c-0.516-3.974-1.087-7.921-0.352-11.903c4.413-7.177,6.622-7.409,11.515-0.031
	c9.2,13.874,17.408,28.381,26.041,42.61c54.061,89.11,108.419,178.039,162.563,267.098
	C3082.408,370.934,3087.948,383.019,3094.617,394.508z"/>
<path fill-rule="evenodd" clip-rule="evenodd" fill="#7FBB93" d="M3094.617,394.508c-12.162-19.006-24.628-37.824-36.431-57.051
	c-43.409-70.712-86.65-141.526-129.84-212.372c-15.029-24.652-29.685-49.532-44.652-74.222c-1.099-1.813-3.363-2.918-5.086-4.352
	c-4.556-0.711-3.432-3.305-1.991-6.004v-0.004c28.004-4.662,56.008-9.325,84.012-13.987c17.701,48.698,35.319,97.427,53.127,146.086
	c20.895,57.093,42.002,114.106,62.912,171.193C3082.835,360.632,3088.644,377.601,3094.617,394.508z"/>
<path fill-rule="evenodd" clip-rule="evenodd" fill="#309858" d="M2552.617,1684.53c17.19,12.863,34.577,25.474,51.538,38.632
	c89.635,69.54,179.146,139.238,268.735,208.836c37.197,28.896,74.481,57.681,111.727,86.516c0,0.664,0,1.329,0,1.994
	c-0.021,0.474-0.043,0.948-0.061,1.423c-7.955,12.142-20.027,20.158-30.442,29.75c-25.897,23.849-51.986,47.497-78.128,71.083
	c-33.047,29.815-65.599,60.178-99.008,89.588c-10.413,9.166-19.107,20.5-32.373,26.145c0,0,0.001,0.001,0,0
	c-0.659,0.006-1.318,0.014-1.977,0.023c-2.671-0.008-5.342-0.016-8.012-0.023c2.162-6.699,0.262-12.92-1.899-19.262
	c-30.186-88.585-61.214-176.879-91.596-265.395c-23.246-67.728-46.857-135.328-69.995-203.093
	c-6.346-18.582-13.571-36.869-18.606-55.882C2551.623,1691.479,2549.48,1687.938,2552.617,1684.53z"/>
<path fill-rule="evenodd" clip-rule="evenodd" fill="#208744" d="M3468.617,2114.508c-0.662,0.67-1.326,1.341-1.988,2.012
	c-113.334,57.996-226.667,115.992-340,173.988l-0.034-0.022c-5.408-3.751-8.361-9.353-11.265-14.984
	c-42.068-81.612-85.824-162.337-128.194-243.79c-1.825-3.511-4.349-6.864-2.519-11.197v-0.006
	c31.6,5.752,63.275,11.112,94.785,17.324c118.699,23.401,237.34,47.094,356.013,70.63
	C3446.448,2110.65,3457.549,2112.5,3468.617,2114.508z"/>
<path fill-rule="evenodd" clip-rule="evenodd" fill="#9DD9C8" d="M1678.615,286.516c4.657,0.658,9.313,1.317,13.971,1.976
	c0.268,0.432,0.535,0.863,0.81,1.294c0.659,2.601,0.14,5.07-0.825,7.492c-26.613,71.707-54.359,142.985-81.482,214.5
	c-19.812,52.237-39.587,104.49-59.602,156.65c-1.901,4.953-3.326,10.161-7.639,13.774c-1.416,0.835-2.85,0.855-4.291,0.071
	c-34.503-36.99-67.8-75.089-101.863-112.491c-39.225-43.067-77.782-86.733-117.014-129.798
	c-32.49-35.666-64.546-71.736-96.663-107.747c-16.173-18.134-32.222-36.388-48.668-54.283c-3.42-3.722-8.288-7.078-6.731-13.446
	c54.05,2.014,108.106,3.88,162.148,6.086c43.074,1.759,86.13,3.962,129.197,5.916c59.637,2.706,119.277,5.352,178.916,8.048
	C1652.127,285.157,1665.37,285.86,1678.615,286.516z"/>
<path fill-rule="evenodd" clip-rule="evenodd" fill="#A2DBCC" d="M1168.617,264.508c21.196,24.19,42.157,48.592,63.638,72.526
	c42.118,46.932,84.552,93.578,126.806,140.388c50.654,56.118,101.304,112.24,151.842,168.462
	c10.165,11.309,19.823,23.073,29.715,34.627c-5.708,4.049-11.006,0.486-16.066-1.328c-43.877-15.735-87.695-31.635-131.563-47.395
	c-79.274-28.48-158.477-57.16-237.752-85.64c-41.351-14.854-82.832-29.358-123.883-45.051c-2.03-0.761-3.657-2.051-4.972-3.749
	c-0.55-0.888-0.854-1.862-0.935-2.902c0.409-5.585,3.803-9.866,6.538-14.382c43.646-72.051,86.954-144.305,130.729-216.282
	c1.067-1.14,2.25-1.93,3.902-1.286l-0.007,0.03C1167.279,263.187,1167.948,263.848,1168.617,264.508z"/>
<path fill-rule="evenodd" clip-rule="evenodd" fill="#3FA36C" d="M1838.623,2384.52l-0.989-0.001c0,0-0.989,0.011-0.989,0.012
	c0.001,0-0.044-0.045-0.044-0.045c-8.027-10.285-6.102-22.95-7.528-34.554c-6.776-55.107-13.363-110.24-19.757-165.394
	c-6.854-59.124-14.117-118.198-20.861-177.336c-4.634-40.63-9.852-81.193-14.449-121.83c-0.454-4.021-0.871-7.921,0.138-11.853
	c3.904-7.879,9.696-4.034,14.421-1.685c19.374,9.633,38.466,19.837,57.573,29.987c33.808,17.959,67.762,35.64,101.672,53.401
	c80.797,42.32,161.6,84.633,242.391,126.966c45.704,23.947,91.381,47.951,137.113,71.845
	c57.835,30.216,115.723,60.329,173.426,90.798c2.933,1.548,6.008,2.975,7.606,6.189c0.099,0.493,0.189,0.99,0.281,1.486
	c-0.67,0.667-1.339,1.334-2.009,2c-30.333,5.559-60.719,10.85-90.99,16.725c-125.402,24.334-250.765,48.878-376.155,73.275
	c-65.785,12.799-131.601,25.448-197.392,38.222C1840.858,2382.967,1839.772,2383.906,1838.623,2384.52z"/>
<path fill-rule="evenodd" clip-rule="evenodd" fill="#69B489" d="M2990.617,632.514c-44.535,38.191-88.987,76.479-133.629,114.545
	c-41.355,35.267-82.913,70.297-124.383,105.431c-3.725-5.331,0.049-9.65,2.331-13.765c18.429-33.209,36.575-66.573,54.927-99.824
	c35.896-65.041,71.572-130.202,107.419-195.27c8.841-16.049,17.351-32.283,26.611-48.096c2.28-3.895,3.951-8.676,9.358-9.681
	c5.004,1.192,6.327,5.561,7.875,9.508c16.098,41.071,31.786,82.303,47.697,123.448c1.467,3.792,1.978,7.682,1.794,11.703
	C2990.618,631.18,2990.617,631.847,2990.617,632.514z"/>
<path fill-rule="evenodd" clip-rule="evenodd" fill="#6EB48A" d="M2990.618,630.514c-8.309-20.603-16.627-41.201-24.924-61.809
	c-11.03-27.396-22.045-54.798-33.065-82.197c-0.469-0.662-0.492-1.324,0-1.986c16.586-7.633,33.232-15.137,49.745-22.924
	c38.781-18.29,77.499-36.716,116.243-55.087c-8.515,18.335-16.844,36.758-25.578,54.987
	c-26.101,54.473-52.35,108.875-78.594,163.278C2993.455,626.827,2991.906,628.607,2990.618,630.514z"/>
<path fill-rule="evenodd" clip-rule="evenodd" fill="#82C29C" d="M2876.617,40.508c0.664,2.002,1.327,4.003,1.991,6.004
	c3.649,31.262,7.142,62.543,10.986,93.78c4.858,39.462,10.005,78.888,15.024,118.33c5.688,44.7,11.436,89.394,17.04,134.105
	c3.751,29.913,7.298,59.853,10.936,89.78c-6.107,4.635-11.643,0.172-16.872-1.689c-22.266-7.926-44.163-16.852-66.185-25.437
	c-126.857-49.46-253.839-98.6-380.696-148.061c-49.006-19.107-98.076-38.051-147.043-57.257c-4.335-1.7-8.719-3.291-12.441-6.218
	c-0.265-0.447-0.525-0.896-0.787-1.347c0.021-0.655,0.041-1.311,0.059-1.967c0.655-0.014,1.311-0.027,1.966-0.042
	c60.22-21.117,120.461-42.176,180.654-63.37c51.422-18.105,102.798-36.344,154.18-54.564
	C2722.498,95.227,2799.555,67.859,2876.617,40.508z"/>
<path fill-rule="evenodd" clip-rule="evenodd" fill="#88CDAF" d="M2306.599,242.46c0.657,0.011,1.315,0.023,1.972,0.04l0.123-0.001
	c4.438,3.114,5.879,7.881,7.075,12.793c22.924,94.172,46.104,188.281,69.47,282.346c1.116,4.494,2.341,9.081,0.842,13.777
	c-5.037,6.317-10.463,2.292-15.176-0.039c-28.652-14.17-57.956-26.932-86.896-40.476c-67.52-31.598-134.872-63.55-202.563-94.783
	c-73.132-33.743-145.765-68.556-218.83-102.444c-4.062-1.884-13.594-2.084-8.394-11.632c5.787-4.063,12.722-3.81,19.199-4.662
	c75.445-9.936,150.772-20.723,226.176-30.957c50.372-6.837,100.738-13.742,151.065-20.916c13.481-1.922,26.985-3.775,40.509-5.452
	C2296.675,239.372,2301.737,239.837,2306.599,242.46z"/>
<path fill-rule="evenodd" clip-rule="evenodd" fill="#96D4BC" d="M2306.599,242.46c-32.515,4.304-65.038,8.55-97.543,12.927
	c-42.027,5.659-84.046,11.383-126.059,17.155c-45.299,6.225-90.587,12.527-135.878,18.815c-31.5,4.372-62.996,8.776-94.493,13.166
	c-0.776,0.924-1.714,1.633-2.813,2.133c-4.209,0.74-8.465,1.57-9.639-4.379c4.847-5.9,3.287-12.611,1.982-19.048
	c-8.398-41.433-15.9-83.036-23.961-124.534c-8.059-41.493-16.234-82.966-23.771-124.56c-1.195-6.597-1.473-13.102,0.188-19.63
	c0.003-0.665,0.009-1.33,0.016-1.994c0.661-0.004,1.323-0.008,1.983-0.013c18.36,8.463,36.641,17.104,55.096,25.354
	c46.997,21.011,94.07,41.852,141.117,62.752c41.291,18.343,82.619,36.6,123.871,55.027c52.147,23.294,104.271,46.64,156.318,70.154
	C2284.396,230.93,2295.413,236.881,2306.599,242.46z"/>
<path fill-rule="evenodd" clip-rule="evenodd" fill="#B6E3D9" d="M1166.617,262.496c-0.666,0.671-1.333,1.341-2,2.011
	c-3.042,3.072-6.194,5.897-10.125,7.947c-69.836,36.415-140.554,71.082-210.966,106.354c-3.942,1.975-8.063,5.307-12.9,1.706
	c29.736-52.651,59.437-105.322,89.219-157.948c30.271-53.489,60.563-106.966,90.973-160.376
	c8.366-14.695,17.184-29.133,25.794-43.689c4.268,36.446,8.438,72.904,12.83,109.335c4.273,35.445,8.74,70.867,13.194,106.291
	C1163.827,243.6,1165.283,253.041,1166.617,262.496z"/>
<path fill-rule="evenodd" clip-rule="evenodd" fill="#AFE1D5" d="M930.626,380.514c3.969-1.654,8.06-3.067,11.89-4.997
	c70.082-35.314,140.128-70.704,210.211-106.019c3.829-1.93,7.921-3.339,11.891-4.991c-11.01,19.224-21.68,38.651-33.095,57.63
	c-33.824,56.238-67.939,112.301-101.964,168.419c-0.848,1.398-1.951,2.642-2.936,3.956c-3.822,4.134-8.548,3.075-13.066,1.988
	c-31.715-7.623-63.326-15.676-95.064-23.206c-3.539-0.84-7.154-1.831-9.38-5.187c-0.169-0.532-0.332-1.068-0.495-1.604
	c0.002-0.666,0.003-1.331,0.002-1.996c6.671-27.33,13.341-54.661,20.012-81.991C929.296,381.849,929.961,381.182,930.626,380.514z"
	/>
<path fill-rule="evenodd" clip-rule="evenodd" fill="#9BD7C3" d="M1794.612,14.506c10.969,57.232,21.953,114.461,32.9,171.697
	c6.841,35.769,13.539,71.563,20.515,107.305c1.287,6.592-0.552,9.606-7.407,9.007c-3.247,3.941-7.663,3.458-11.968,3.021
	c-41.644-4.239-83.234-8.98-124.877-13.223c-4.039-0.412-7.888-1.217-11.158-3.805c0,0-0.03-0.016-0.031-0.016
	c18.563-50.412,37.065-100.846,55.706-151.229c13.925-37.639,28.013-75.216,42.069-112.805
	C1791.623,21.083,1793.188,17.82,1794.612,14.506z"/>
<path fill-rule="evenodd" clip-rule="evenodd" fill="#47A472" d="M2774.595,1234.491c28.163-12.608,56.237-25.42,84.507-37.784
	c59.078-25.838,118.244-51.474,177.402-77.129c62.512-27.109,125.035-54.192,187.607-81.161
	c10.016-4.316,20.316-7.973,30.484-11.934c-25.718,75.497-51.417,151-77.16,226.488c-12.229,35.86-24.543,71.691-36.817,107.536
	l-0.011-0.004c-10.179,3.972-18.908-1.804-27.68-4.855c-42.077-14.644-84.255-29.014-126.235-43.913
	c-46.678-16.567-93.713-32.113-140.187-49.271c-18.7-6.904-37.725-12.982-56.57-19.527
	C2784.39,1241.01,2778.143,1240.139,2774.595,1234.491z"/>
<path fill-rule="evenodd" clip-rule="evenodd" fill="#248C47" d="M2984.617,2020.514c32.104,60.879,64.15,121.789,96.337,182.625
	c14.449,27.311,29.195,54.463,43.743,81.722c0.918,1.723,1.277,3.743,1.897,5.625c-67.917-9.364-135.839-18.688-203.748-28.104
	c-56.427-7.824-112.836-15.772-169.262-23.601c-2.949-0.409-5.983-0.203-8.979-0.284c16.453-15.389,32.772-30.923,49.394-46.127
	c19.082-17.456,38.451-34.598,57.66-51.916C2895.99,2100.486,2940.299,2060.495,2984.617,2020.514z"/>
<path fill-rule="evenodd" clip-rule="evenodd" fill="#65B58B" d="M944.624,2258.52l-0.999-0.002c0,0-1,0.001-0.999,0.002
	c-0.003-0.667-0.006-1.334-0.009-2c-0.327-5.447,3.085-9.374,5.699-13.541c98.888-157.603,197.604-315.313,296.243-473.071
	c14.29-22.854,28.281-45.907,43.282-68.312c2.259-3.373,3.574-8.271,9.309-7.56c1.001,0.604,1.822,1.366,2.52,2.299
	c5.292,12.663,3.485,26.255,4.683,39.364c3.085,33.77,5.38,67.624,7.724,101.459c2.183,31.521,4.531,63.035,6.797,94.55
	c2.217,30.84,4.621,61.676,7.126,92.499c1.724,21.214,3.058,42.466,4.661,63.693c2.48,32.825,4.779,65.663,7.373,98.48
	c1.678,21.219,3.205,42.457,4.572,63.7c0.982,15.249,3.23,30.448,2.222,45.8c-0.355,1.221-0.975,2.296-1.832,3.234
	c-6.704,3.268-13.793,1.649-20.571,0.954c-59.786-6.13-119.606-11.896-179.404-17.896c-59.469-5.967-118.916-12.152-178.417-17.808
	C957.588,2263.699,951.234,2260.64,944.624,2258.52z"/>
<path fill-rule="evenodd" clip-rule="evenodd" fill="#70BB94" d="M1294.623,1694.51c-13.078,21.57-25.912,43.292-39.273,64.685
	c-61.494,98.452-123.135,196.813-184.725,295.206c-41.647,66.534-83.294,133.07-124.992,199.572
	c-0.666,1.062-1.996,1.707-3.016,2.546c-8.979-5.518-18.148-10.747-26.903-16.601c-60.454-40.42-120.79-81.018-181.245-121.434
	c-10.411-6.961-21.216-13.333-31.838-19.977c-0.003-0.663-0.004-1.326-0.002-1.988c0.168-0.457,0.335-0.914,0.498-1.373
	c0.535-0.813,1.163-1.549,1.889-2.198c30.021-21.536,60.778-42.013,91.304-62.816c140.285-95.605,280.212-191.733,420.548-287.265
	c21.462-14.609,42.795-29.413,64.293-43.969C1285.097,1696.232,1288.894,1692.113,1294.623,1694.51z"/>
<path fill-rule="evenodd" clip-rule="evenodd" fill="#8ECAA9" d="M412.607,1812.496c-14.547,21.796-29.333,43.436-43.595,65.416
	c-42.905,66.123-85.588,132.389-128.431,198.552c-2.311,3.569-5.289,6.706-7.956,10.044c-2.773-3.357-6.756-6.282-8.135-10.138
	c-15.116-42.263-29.516-84.782-44.739-127.006c-13.91-38.581-28.726-76.834-42.889-115.325
	c-10.954-29.771-21.517-59.686-32.254-89.537c0.004-0.664,0.007-1.329,0.01-1.994c0.729-0.907,1.646-1.539,2.75-1.906
	c25.948,1.935,50.87,9.289,76.091,14.885c70.062,15.546,140.225,30.639,210.227,46.452c6.62,1.495,14.103,1.36,19.079,7.367
	C413.333,1810.398,413.278,1811.463,412.607,1812.496z"/>
<path fill-rule="evenodd" clip-rule="evenodd" fill="#B1E1D5" d="M236.625,762.514c3.121,2.699,6.568,5.104,9.311,8.144
	c23.749,26.334,47.399,52.757,71.021,79.205c21.188,23.722,42.23,47.575,63.54,71.188c2.756,3.054,6.727,5.01,10.135,7.475
	c0.689,0.864,0.779,1.787,0.275,2.774c-1.195,1.738-2.859,2.879-4.743,3.754c-0.965,0.384-1.958,0.668-2.97,0.894
	c-56.596,19.85-113.617,38.406-170.64,56.978c-62.726,20.429-125.243,41.5-187.839,62.326c-5.121,1.703-10.397,5.311-16.099,1.265
	l-0.001-0.023c18.317-23.967,36.439-48.085,54.992-71.868c37.54-48.123,75.312-96.064,112.99-144.079
	c18.224-23.224,36.478-46.424,54.648-69.689C233.274,768.258,234.843,765.303,236.625,762.514z"/>
<path fill-rule="evenodd" clip-rule="evenodd" fill="#5EAD80" d="M944.624,2258.52c31.608,3.079,63.222,6.124,94.825,9.249
	c28.978,2.865,57.947,5.805,86.918,8.735c38.178,3.861,76.347,7.826,114.534,11.595c29.641,2.925,59.308,5.585,88.955,8.445
	c4.268,0.411,8.491,1.283,12.735,1.941c3.467,3.898,1.826,8.266,0.803,12.343c-12.254,48.804-24.761,97.543-37.527,146.215
	c-0.952,3.628-2.428,6.902-5.262,9.453c-0.66,0.008-1.321,0.014-1.982,0.017c-41.744-24.55-83.417-49.222-125.248-73.621
	c-73.548-42.9-147.198-85.624-220.771-128.48C949.764,2262.757,947.275,2260.497,944.624,2258.52z"/>
<path fill-rule="evenodd" clip-rule="evenodd" fill="#329A5B" d="M2552.617,1684.53c13.977,40.909,27.934,81.825,41.935,122.727
	c15.606,45.594,31.116,91.221,46.913,136.749c24.635,71.002,49.553,141.906,74.184,212.91c8.169,23.547,15.602,47.35,23.87,70.859
	c2.118,6.021,0.948,9.064-4.901,10.721c-48.535,3.281-97.064,6.669-145.609,9.8c-25.448,1.641-50.926,2.83-76.391,4.224
	c-0.678-0.012-1.355-0.023-2.033-0.034c-2.775-2.912-2.943-6.567-2.92-10.272c0.143-22.285,1.89-44.502,3.69-66.678
	c1.802-22.183,3.206-44.394,5.093-66.57c2.842-33.429,4.797-66.926,7.504-100.371c1.661-20.524,3.158-41.08,4.535-61.634
	c2.288-34.141,4.86-68.257,7.535-102.37c1.611-20.533,3.166-41.083,4.41-61.642c1.807-29.852,4.812-59.613,6.372-89.481
	c0.196-3.748,0.312-8.309,5.813-8.971V1684.53z"/>
<path fill-rule="evenodd" clip-rule="evenodd" fill="#43A670" d="M2774.595,1234.491c24.829,8.181,49.741,16.12,74.465,24.61
	c25.661,8.814,51.13,18.188,76.7,27.27c33.362,11.849,66.7,23.766,100.125,35.432c24.086,8.407,48.287,16.488,72.458,24.65
	c14.066,4.749,28.175,9.371,42.265,14.051c0.002,0.656-0.002,1.313-0.013,1.968c-24.362,12.906-48.831,25.618-73.063,38.765
	c-41.222,22.362-82.281,45.023-123.434,67.514c-71.51,39.081-143.017,78.166-214.565,117.175
	c-47.022,25.637-94.129,51.12-141.169,76.726c-11.972,6.517-23.834,13.236-35.746,19.863c-0.333-0.387-0.666-0.774-1.004-1.157
	c-0.404-0.952-0.572-1.947-0.527-2.979c0.479-4.069,2.541-7.54,4.326-11.096c34.209-68.117,67.35-136.762,101.336-204.99
	c35.468-71.206,70.224-142.768,106.086-213.78c2.389-4.729,4.285-9.79,8.39-13.464c0.463-0.189,0.928-0.372,1.394-0.556
	C2773.276,1234.491,2773.936,1234.491,2774.595,1234.491z"/>
<path fill-rule="evenodd" clip-rule="evenodd" fill="#3AA468" d="M2552.617,1684.496c-1.313,11.085-3.077,22.139-3.856,33.261
	c-2.898,41.352-5.173,82.747-8.241,124.085c-4.344,58.502-9.393,116.951-13.74,175.452c-3.071,41.338-5.381,82.731-8.211,124.088
	c-2.533,37.043-5.313,74.069-7.984,111.104c-0.653,0.012-1.306,0.02-1.959,0.022c0.001,0-0.058-0.047-0.058-0.047
	c-9.128-12.898-8.651-28.471-11.314-42.985c-17.287-94.212-34.06-188.52-51.124-282.773
	c-13.509-74.609-26.829-149.253-40.347-223.86c-0.989-5.459-2.594-11.221,1.845-16.181c5.018-4.016,10.971-4.377,16.982-4.19
	c30.788,0.955,61.453-3.316,92.247-2.128c6.638,0.256,13.04-2.259,19.731-1.894c5.615,0.307,11.289,0.176,16.007,3.995l0.022,0.069
	C2552.617,1683.175,2552.617,1683.836,2552.617,1684.496z"/>
<path fill-rule="evenodd" clip-rule="evenodd" fill="#9ED8C4" d="M384.631,932.526c0.664-0.005,1.329-0.01,1.993-0.015
	c8.635,0.524,8.117,7.866,9.047,13.232c4.036,23.286,8.426,46.507,12.531,69.779c17.639,99.979,35.359,199.943,53.108,299.903
	c14.78,83.241,29.552,166.485,44.186,249.754c0.568,3.234-0.3,6.742,1.761,9.701c0.371,1.102,0.386,2.211,0.06,3.319
	c-0.624,0.951-1.474,1.64-2.528,2.067c-12.363,0.614-23.339-4.887-34.578-8.558c-77.275-25.234-154.157-51.666-231.49-76.723
	c-71.63-23.209-142.922-47.43-214.396-71.104c-4.931-1.634-10.592-2.238-13.701-7.388c-0.669-0.663-1.337-1.326-2.006-1.989
	c0-0.667-0.001-1.333-0.001-2v-0.006c6.261-17.799,20.357-30.217,31.439-44.546c35.042-45.307,70.692-90.146,105.98-135.267
	c31.389-40.136,62.965-80.128,94.486-120.161c31.93-40.554,63.661-81.271,95.708-121.729
	C351.888,971.027,365.575,949.51,384.631,932.526z"/>
<path fill-rule="evenodd" clip-rule="evenodd" fill="#97D3B9" d="M10.622,1416.497c33.541,10.832,67.149,21.459,100.61,32.532
	c119.728,39.619,239.398,79.413,359.115,119.063c11.335,3.754,22.851,6.964,34.282,10.427c0.702,0.918,0.761,1.875,0.182,2.873
	c-3.182,3.705-7.725,5.122-11.997,6.86c-120.886,49.178-241.74,98.43-362.521,147.865c-7.65,3.132-15.272,6.157-23.68,6.38
	c-0.665,0.002-1.329,0.005-1.994,0.01c-2.667-0.665-5.335-1.33-8.002-1.994c1.399-2.947,4.588-6.392,3.929-8.766
	c-9.779-35.184-19.984-70.249-30.256-105.293c-19.986-68.182-40.092-136.329-60.047-204.52
	C9.763,1420.3,10.469,1418.317,10.622,1416.497z"/>
<path fill-rule="evenodd" clip-rule="evenodd" fill="#4DA979" d="M1776.709,1870.527c3.609,31.905,7.172,63.816,10.843,95.715
	c3.634,31.572,7.331,63.139,11.088,94.697c4.267,35.835,8.665,71.653,12.941,107.487c3.727,31.229,7.34,62.473,11.047,93.705
	c3.667,30.903,7.439,61.793,11.056,92.702c1.154,9.863,1.955,19.767,2.917,29.651c-0.661,0.011-1.322,0.015-1.983,0.014
	c-19.075,0.506-37.719-3.042-56.327-6.411c-83.453-15.105-167.17-28.688-250.65-43.631c-54.671-9.786-109.347-19.536-164.167-28.466
	c-5.851-0.953-11.975-1.272-17.169-4.704c-0.829-0.628-1.523-1.406-2.062-2.301c-0.841-5.416,2.898-8.555,6.134-11.796
	c50.112-50.191,99.558-101.079,150.7-150.202c31.702-30.451,62.911-61.373,93.811-92.598
	c55.975-56.563,114.231-110.798,169.93-167.631c2.971-3.031,5.717-6.665,10.598-6.862
	C1775.846,1870.104,1776.277,1870.316,1776.709,1870.527z"/>
<path fill-rule="evenodd" clip-rule="evenodd" fill="#4DA575" d="M1344.623,2298.52c47.003,8.015,94.028,15.899,141.002,24.086
	c39.165,6.826,78.234,14.207,117.409,20.98c53.184,9.195,106.457,17.88,159.633,27.12c24.056,4.18,47.972,9.171,71.95,13.793
	c-21.256,3.324-42.479,6.872-63.774,9.925c-40.687,5.832-81.417,11.353-122.121,17.061c-44.97,6.306-89.938,12.623-134.892,19.053
	c-12.436,1.778-24.811,3.977-37.213,5.982l-0.001-0.045c-4.613-3.284-8.819-7.01-12.786-11.068
	c-32.113-32.852-65.718-64.237-96.546-98.355c-5.132-5.679-12.022-9.514-16.981-15.43
	C1347.122,2307.827,1343.381,2304.244,1344.623,2298.52z"/>
<path fill-rule="evenodd" clip-rule="evenodd" fill="#A8DCCE" d="M384.631,932.526c-12.927,17.233-25.62,34.648-38.836,51.656
	c-20.757,26.712-41.855,53.159-62.83,79.702c-31.87,40.331-63.877,80.555-95.605,120.997c-31.731,40.446-63.072,81.2-94.807,121.644
	c-27.818,35.451-55.947,70.66-83.938,105.977c-0.666-46.588-1.685-93.175-1.912-139.766c-0.329-67.521-0.124-135.043,0-202.564
	c0.008-4.554,1.247-9.105,1.914-13.657c53.344-17.672,106.667-35.409,160.038-53C240.627,979.793,312.637,956.184,384.631,932.526z"
	/>
<path fill-rule="evenodd" clip-rule="evenodd" fill="#55A779" d="M1344.623,2298.52c15.996,16.994,31.709,34.265,48.053,50.919
	c25.555,26.042,51.579,51.622,77.271,77.531c2.687,2.709,4.469,6.315,6.67,9.505c-0.662,0.018-1.325,0.033-1.988,0.045
	c-36.502,6.275-73.007,12.545-109.508,18.83c-21.507,3.702-43.01,7.43-64.514,11.146c8.509-34.451,16.963-68.916,25.547-103.35
	c5.379-21.578,10.953-43.108,16.439-64.661c0.021-0.651,0.033-1.304,0.038-1.955c0.662-0.716,1.324-0.716,1.986,0
	C1344.617,2297.193,1344.619,2297.856,1344.623,2298.52z"/>
<path fill-rule="evenodd" clip-rule="evenodd" fill="#86C8A4" d="M412.607,1812.496c-0.004-0.672-0.008-1.344-0.013-2.016
	c-0.624-1.702,0.235-2.878,1.388-3.953c45.529-26.683,92.531-50.71,138.59-76.448c3.441-1.923,7.059-3.972,11.248-1.761
	c3.564,2.851,4.943,7.001,6.483,11.031c42.979,112.463,85.892,224.951,128.909,337.399c2.37,6.196,7.046,12.37,3.413,19.759
	c0,0,0.003,0.011,0.003,0.012c-24.417-24.084-48.853-48.147-73.246-72.254c-58.685-57.994-117.274-116.084-176.08-173.954
	C440.11,1837.328,426.192,1825.082,412.607,1812.496z"/>
<path fill-rule="evenodd" clip-rule="evenodd" fill="#A8DED1" d="M390.614,930.5c0.005-0.659,0.011-1.317,0.018-1.976
	c24.44-21.452,48.968-42.807,73.303-64.379c41.729-36.99,83.392-74.056,124.977-111.207c27.733-24.776,55.205-49.844,82.937-74.622
	c41.582-37.154,83.342-74.111,124.926-111.264c27.732-24.776,55.287-49.752,82.932-74.628c9.622-8.657,19.273-17.281,28.912-25.921
	v0.03c3.053,4.375,1.663,8.961,0.53,13.469c-29.364,116.857-58.296,233.822-87.893,350.622
	c-15.286,60.321-30.101,120.77-44.961,181.202c-2.848,11.582-7.859,22.627-8.637,34.724c-0.427,4.201-2.156,7.57-6.069,9.547
	c-5.15,1.685-9.857-0.367-14.549-1.941c-114.88-38.56-229.641-77.473-344.668-115.593
	C397.799,937.049,392.376,936.315,390.614,930.5z"/>
<path fill-rule="evenodd" clip-rule="evenodd" fill="#66BB93" d="M2728.654,854.532c-0.002,0.665,0.004,1.331,0.019,1.996
	c-0.048,0.651-0.077,1.304-0.089,1.956c-1.054,5.238-4.839,8.591-8.407,12.06c-30.05,29.212-58.448,60.043-87.584,90.137
	c-36.994,38.21-73.7,76.707-110.854,114.769c-0.936,0.958-1.977,1.774-3.194,2.38c-0.999,0.359-2.018,0.482-3.074,0.397
	c-2.358-0.438-3.835-1.82-4.461-4.124c-12.654-55.804-27.392-111.094-41.085-166.642c-27.311-110.789-56.157-221.192-83.461-331.982
	c-1.342-5.442-3.494-10.839-1.986-16.634c4.372-6.5,8.238-1.382,11.367,1.069c14.15,11.087,27.309,23.36,40.83,35.192
	c52.092,45.583,104.188,91.161,156.306,136.713c43.097,37.667,86.036,75.513,129.249,113.045
	C2725.218,847.46,2728.461,850.019,2728.654,854.532z"/>
<path fill-rule="evenodd" clip-rule="evenodd" fill="#4FB284" d="M2516.595,1076.496c0.667-0.009,1.334-0.019,2.001-0.028
	c4.785-0.876,8.281,2.054,11.889,4.276c77.584,47.793,155.441,95.14,233.21,142.629c3.813,2.328,6.856,5.183,8.911,9.118
	c0.004,0.667,0.008,1.333,0.012,2v0.017c-3.557,4.14-8.063,6.711-13.114,8.745c-122.521,49.35-244.718,99.499-367.237,148.852
	c-14.197,5.719-28.173,11.982-42.506,17.362c-3.988,1.498-7.922,3.747-12.467,2.078c-0.929-0.549-1.482-1.362-1.668-2.425
	c4.583-14.737,13.539-27.308,20.695-40.73c28.166-52.831,56.51-105.569,84.779-158.346c21.201-39.581,42.609-79.052,63.48-118.81
	c2.309-4.396,5.388-8.353,8.208-12.449C2513.958,1077.857,2515.451,1077.469,2516.595,1076.496z"/>
<path fill-rule="evenodd" clip-rule="evenodd" fill="#58B285" d="M2772.605,1232.491c-57.627-35.108-115.313-70.12-172.856-105.366
	c-27.192-16.655-54.11-33.757-81.153-50.656c1.517-2.49,2.64-5.356,4.609-7.41c20.248-21.111,40.612-42.113,60.985-63.105
	c45.151-46.521,90.315-93.028,135.518-139.499c2.766-2.844,5.909-5.321,8.876-7.97c2.674,20.327,5.515,40.635,7.989,60.985
	c5.317,43.74,10.587,87.487,15.61,131.262c4.346,37.86,8.265,75.77,12.486,113.645
	C2767.202,1187.094,2769.953,1209.787,2772.605,1232.491z"/>
<path fill-rule="evenodd" clip-rule="evenodd" fill="#6EBB93" d="M2728.654,854.532c-33.986-29.647-67.942-59.329-101.965-88.935
	c-34.771-30.257-69.692-60.344-104.392-90.683c-29.219-25.546-58.14-51.431-87.337-77.001
	c-15.961-13.979-32.22-27.615-48.344-41.406c-0.619-1.152-0.577-2.279,0.125-3.384c2.913-3.923,7.273-4.158,11.601-4.721
	c68.259-8.866,136.56-17.411,204.832-26.174c70.591-9.06,141.201-17.965,211.772-27.183c31.657-4.136,63.345-8.046,95.013-12.107
	c7.591-0.974,15.23-0.91,22.646,1.547c0,0,0.022,0.035,0.023,0.035c-0.003,0.662-0.003,1.324,0,1.986
	c-35.208,63.786-70.483,127.535-105.601,191.37c-27.425,49.852-54.693,99.788-81.928,149.743
	c-4.438,8.14-8.343,16.571-12.495,24.868C2731.289,853.17,2729.972,853.852,2728.654,854.532z"/>
<path fill-rule="evenodd" clip-rule="evenodd" fill="#7CC39F" d="M2932.605,484.486c-34.517,4.295-69.04,8.537-103.549,12.898
	c-39.438,4.984-78.86,10.086-118.293,15.116c-39.433,5.031-78.868,10.05-118.305,15.051c-39.438,5.002-78.894,9.86-118.313,14.999
	c-29.199,3.807-58.354,7.963-87.528,11.963c-0.667,0.562-1.347,0.551-2.037,0.045c-0.537-0.685-0.51-1.368,0.004-2.051
	c-25.298-103.336-50.595-206.673-75.891-310.009c22.4,8.258,44.921,16.203,67.179,24.827
	c104.089,40.331,208.101,80.859,312.146,121.298c78.964,30.69,157.937,61.361,236.926,91.986c2.43,0.942,5.095,1.278,7.65,1.897
	C2932.605,483.167,2932.609,483.827,2932.605,484.486z"/>
<path fill-rule="evenodd" clip-rule="evenodd" fill="#90D4C2" d="M1030.618,498.493c29.825,10.29,59.749,20.306,89.454,30.932
	c53.535,19.149,106.911,38.742,160.403,58.011c84.778,30.538,169.598,60.963,254.406,91.416c1.869,0.672,3.821,1.111,5.735,1.659
	c0.653,0.658,1.307,1.316,1.961,1.975c0.493,0.417,0.986,0.835,1.486,1.247c5.082,14.909,2.346,30.138,1.684,45.261
	c-0.129,2.939-1.06,5.889-0.954,8.885c1.315,37.53-1.281,75.012-2.527,112.463c-1.29,38.762-0.029,77.646-4.093,116.304
	c-3.671,9.84-2.002,20.232-3.021,30.336c-1.749,5.039-5.002,4.557-8.612,2.212c-3.662-2.378-6.531-5.67-9.591-8.726
	c-53.266-53.194-105.767-107.178-159.928-159.444c-37.153-35.854-72.043-73.885-109.108-109.793
	c-13.873-13.439-28.849-25.68-42.078-39.805c-54.658-58.352-112.309-113.752-168.454-170.636
	C1034.083,507.447,1029.012,504.695,1030.618,498.493z"/>
<path fill-rule="evenodd" clip-rule="evenodd" fill="#8DD2BD" d="M1542.578,682.485c27.345-71.991,54.68-143.986,82.038-215.972
	c20.64-54.308,41.302-108.606,61.988-162.896c1.18-3.097,2.668-6.076,4.013-9.11c7.247,0.799,7.176,6.774,8.105,11.797
	c7.392,39.904,14.333,79.889,21.257,119.876c9.479,54.737,19.87,109.313,29.064,164.099c4.619,27.529,10.589,54.831,13.96,82.57
	c0.537,4.412,0.858,8.708-3.457,11.679c-4.288,2.468-9.025,2.051-13.659,2.057c-42.29,0.05-84.608,0.956-126.859-0.354
	c-22.599-0.701-45.19-1.441-67.801-1.625c-3.054-0.025-5.971-0.413-8.598-2.096L1542.578,682.485z"/>
<path fill-rule="evenodd" clip-rule="evenodd" fill="#90D3BE" d="M1760.617,682.502c-4.276-25.155-8.466-50.326-12.844-75.464
	c-13.71-78.71-27.492-157.407-41.242-236.109c-4.051-23.188-8.014-46.39-12.24-69.545c-0.444-2.435-2.413-4.592-3.674-6.877
	c0.667-2,1.333-3.999,2-5.999c14.085,1.025,28.199,1.754,42.249,3.135c35.267,3.467,70.505,7.229,105.754,10.872
	c3.338,0.668,6.676,1.335,10.014,2.003c3.406,5.045,1.698,10.319,0.494,15.456c-18.089,77.181-35.906,154.425-53.823,231.646
	c-9.107,39.252-18.157,78.519-27.413,117.736c-1.121,4.75-1.403,10.058-6.063,13.268
	C1762.737,683.16,1761.666,683.118,1760.617,682.502z"/>
<path fill-rule="evenodd" clip-rule="evenodd" fill="#8ED3C1" d="M1030.618,498.493c17.482,17.82,34.865,35.74,52.47,53.44
	c29.84,30.002,59.819,59.864,89.74,89.785c44.702,44.703,89.404,89.405,134.106,134.107
	c72.483,72.482,144.961,144.97,217.47,217.426c2.575,2.574,5.461,4.837,8.201,7.244c0.12,0.512,0.24,1.023,0.363,1.534
	c-0.267,1.035-0.777,1.935-1.521,2.702c-16.44,9.739-34.747,15.148-52.359,22.082c-98.613,38.816-197.349,77.321-295.991,116.063
	c-38.153,14.984-76.24,30.146-114.56,44.706c-4.324,1.644-8.596,3.823-13.513,2.619c-2.56-1.007-3.661-2.793-2.988-5.541
	c-1.522-29.859-2.425-59.74-3.771-89.592c-2.111-46.812-4.176-93.621-6.065-140.443c-1.22-30.212-2.501-60.432-3.928-90.635
	c-2.227-47.142-4.285-94.281-6.078-141.441c-1.147-30.211-2.158-60.463-4.046-90.618c-2.221-35.488-1.959-71.085-5.353-106.506
	c-0.889-9.274,0.093-18.543,2.421-27.617c0.471-0.43,0.942-0.856,1.414-1.284C1027.961,497.181,1029.289,497.837,1030.618,498.493z"
	/>
<path fill-rule="evenodd" clip-rule="evenodd" fill="#A7DDD0" d="M764.624,1046.523c7.328-30.652,14.4-61.369,22.026-91.947
	c40.579-162.699,81.297-325.365,121.967-488.042c39.335,9.326,78.671,18.652,118.006,27.978c0.003,0.671,0.006,1.342,0.008,2.014
	l0.012,0.021c-2.157,14.741-9.441,27.594-15.721,40.672c-33.168,69.076-65.762,138.424-98.515,207.694
	c-43.715,92.456-87.792,184.743-130.95,277.463c-2.813,6.043-5.668,12.08-9.006,17.844
	C770.728,1043.196,769.503,1047.266,764.624,1046.523z"/>
<path fill-rule="evenodd" clip-rule="evenodd" fill="#3FA870" d="M2406.629,1688.547c6.637,35.514,13.415,71.002,19.879,106.547
	c9.734,53.521,19.248,107.083,28.859,160.627c15.119,84.229,30.244,168.455,45.359,252.684c2.635,14.682,5.229,29.372,7.842,44.058
	c-80.27-41.803-160.576-83.533-240.795-125.433c-51.622-26.963-103.083-54.234-154.675-81.259
	c-86.978-45.56-173.978-91.074-261.018-136.515c-25.039-13.072-50.245-25.828-75.373-38.729c0.001,0-0.108-0.016-0.108-0.016
	c-0.635-1.051-0.56-2.049,0.219-2.995c0.796-0.768,1.723-1.323,2.771-1.674c32.443-11.173,65.638-19.853,98.579-29.363
	c168.668-48.694,337.363-97.293,506.058-145.897c6.853-1.975,13.614-5.968,21.271-3.209
	C2405.875,1687.762,2406.252,1688.154,2406.629,1688.547z"/>
<path fill-rule="evenodd" clip-rule="evenodd" fill="#85CDB2" d="M1762.611,682.499c12.004-51.345,24.049-102.68,36.003-154.036
	c17.374-74.641,34.683-149.296,52.02-223.945c0.664-0.003,1.328-0.001,1.992,0.006c33.271,15.88,66.492,31.867,99.833,47.603
	c24.326,11.48,48.832,22.578,73.218,33.935c64.788,30.171,129.588,60.315,194.316,90.611
	c50.865,23.808,101.619,47.854,152.47,71.691c3.844,1.802,8.072,2.782,12.121,4.145c0.015,0.669,0.029,1.338,0.045,2.007
	c-0.257,0.502-0.514,1.004-0.768,1.508c-4.584,4.462-10.63,5.211-16.47,6.417c-107.297,22.163-214.55,44.538-321.854,66.661
	c-87.732,18.087-175.417,36.401-263.163,54.425c-5.198,1.067-10.367,2.54-15.772,2.259c-1.144,0.157-2.246,0.007-3.308-0.442
	C1762.189,684.605,1761.963,683.657,1762.611,682.499z"/>
<path fill-rule="evenodd" clip-rule="evenodd" fill="#78C6A2" d="M1294.623,1694.51c-39.9,27.011-79.872,53.917-119.688,81.052
	c-100.256,68.325-200.439,136.756-300.654,205.141c-56.558,38.594-113.118,77.182-169.678,115.772
	c-2.916-6.276-0.94-12.401,0.744-18.453c18.504-66.432,37.173-132.816,55.792-199.217
	c38.672-137.914,77.329-275.834,115.903-413.775c2.238-8.005,5.271-15.763,7.115-23.873c0.56-1.516,1.513-2.716,2.905-3.548
	c7.535-1.862,12.595,3.4,18.026,6.792c49.687,31.028,99.559,61.758,149.28,92.729c72.039,44.872,144.327,89.346,216.196,134.49
	c8.146,5.117,16.64,9.729,24.273,15.653c0.821,0.531,1.54,1.178,2.175,1.92c0.516,0.841,0.797,1.757,0.857,2.74
	c-0.144,0.981-0.577,1.818-1.294,2.508C1295.926,1694.453,1295.274,1694.477,1294.623,1694.51z"/>
<path fill-rule="evenodd" clip-rule="evenodd" fill="#5CB589" d="M1296.578,1694.441c0.024-0.638,0.059-1.275,0.103-1.912
	c1.662-1.539,3.583-2.324,5.877-2.036c115.314,41.656,229.967,85.128,344.978,127.63c42.5,15.706,85.229,30.84,127.163,48.063
	c0.899,0.59,1.563,1.378,1.998,2.359c-0.02,0.656-0.052,1.312-0.097,1.967c-2.266,1.936-4.666,3.734-6.776,5.826
	c-82.468,81.747-164.873,163.557-247.367,245.277c-57.194,56.658-114.501,113.2-171.782,169.77c-1.88,1.855-4.031,3.437-6.057,5.146
	l-0.993-0.001c0,0-0.994,0-0.994,0.001c-2.004-23.405-4.134-46.8-5.985-70.217c-3.339-42.243-6.58-84.494-9.729-126.752
	c-2.215-29.728-4.091-59.479-6.327-89.206c-3.128-41.593-6.539-83.165-9.653-124.76c-1.633-21.804-2.694-43.651-4.36-65.452
	C1303.373,1778.232,1299.924,1736.341,1296.578,1694.441z"/>
<path fill-rule="evenodd" clip-rule="evenodd" fill="#83C9A7" d="M886.593,1440.467c-7.205,27.271-14.111,54.625-21.671,81.798
	c-27.344,98.297-54.874,196.542-82.398,294.788c-25.283,90.248-50.652,180.471-75.958,270.713c-0.802,2.861-1.314,5.805-1.962,8.709
	c-0.659,0.022-1.318,0.033-1.979,0.033c-23.404-61.482-46.818-122.962-70.212-184.449c-23.276-61.176-46.533-122.359-69.799-183.539
	c-0.118-1.513,0.322-2.871,1.119-4.135c16.137-17.279,34.681-31.96,52.189-47.748c27.396-24.703,54.909-49.282,82.575-73.687
	c28.663-25.284,57.061-50.868,85.563-76.332c27.761-24.801,55.665-49.443,83.213-74.48c5.185-4.712,10.46-9.186,16.676-12.47
	C884.951,1439.535,885.832,1439.805,886.593,1440.467z"/>
<path fill-rule="evenodd" clip-rule="evenodd" fill="#90CFB1" d="M414.612,1808.491c-0.673,0.663-1.345,1.326-2.017,1.989
	c-47.572-10.649-95.13-21.362-142.72-31.932c-54.406-12.083-108.841-24.039-163.263-36.051
	c47.646-19.539,95.281-39.105,142.94-58.611c81.226-33.245,162.464-66.463,243.717-99.641c3.678-1.502,7.558-2.508,11.344-3.744
	c0.713,0.813,1.075,1.76,1.097,2.838c-0.999,4.893-2.605,9.591-4.448,14.231c-26.497,66.727-53.79,133.135-79.723,200.086
	C419.938,1801.791,417.445,1805.216,414.612,1808.491z"/>
<path fill-rule="evenodd" clip-rule="evenodd" fill="#9DD8C6" d="M390.614,930.5c77.627,25.991,155.258,51.969,232.878,77.979
	c45.719,15.319,91.419,30.691,137.128,46.04c0.757,0.696,1.319,1.525,1.697,2.482c0.87,5.355-1.935,9.687-4.165,14.082
	c-27.436,54.07-53.484,108.824-80.331,163.185c-35.398,71.68-70.849,143.344-105.565,215.352
	c-19.096,39.607-39.927,78.362-57.896,118.515c-1.606,3.588-3.095,7.533-7.781,8.373c-2.6-8.489-6.099-16.817-7.661-25.493
	c-14.753-81.889-29.239-163.825-43.676-245.771c-15.645-88.801-31.117-177.632-46.74-266.437
	c-5.859-33.303-11.877-66.577-18.024-99.828c-0.428-2.314-2.53-4.319-3.854-6.468C387.954,931.841,389.284,931.17,390.614,930.5z"/>
<path fill-rule="evenodd" clip-rule="evenodd" fill="#48AD7A" d="M2336.629,1410.524c58.507-23.593,117.03-47.146,175.516-70.793
	c46.492-18.799,92.914-37.769,139.408-56.56c40.324-16.296,80.707-32.448,121.064-48.664c-1.21,3.078-2.197,6.266-3.663,9.217
	c-54.187,109.156-108.459,218.271-162.621,327.439c-18.049,36.379-35.833,72.889-53.738,109.338
	c-6.949,2.57-9.388-3.287-12.439-7.116c-31.923-40.045-63.291-80.527-95.042-120.708c-33.201-42.018-66.149-84.234-99.235-126.343
	c-1.938-2.468-4.048-4.28-6.983-5.224C2335.558,1418.136,2334.258,1414.72,2336.629,1410.524z"/>
<path fill-rule="evenodd" clip-rule="evenodd" fill="#45AE78" d="M2340.616,1420.514c2.212,0.629,5.354,0.528,6.503,1.992
	c44.24,56.39,88.228,112.978,132.41,169.412c22.299,28.482,44.879,56.744,67.454,85.008c1.31,1.641,3.716,2.404,5.611,3.576
	c0.005,0.648,0.005,1.296,0,1.943c-44.41,1.362-88.821,2.682-133.228,4.159c-4.263,0.142-8.493,1.271-12.738,1.942l-0.023-0.084
	c-3.487-2.986-4.655-7.126-5.773-11.344c-21.289-80.309-40.203-161.221-61.313-241.575
	C2338.215,1430.583,2335.98,1425.2,2340.616,1420.514z"/>
<path fill-rule="evenodd" clip-rule="evenodd" fill="#8FD2BA" d="M506.579,1576.508c35.18-71.67,70.371-143.334,105.536-215.011
	c33.845-68.989,67.747-137.95,101.454-207.006c15.891-32.556,31.384-65.305,47.057-97.967c0.956-0.726,1.923-0.738,2.899-0.043
	c3.711,4.457,5.275,9.908,7.058,15.261c25.523,76.667,50.892,153.384,76.165,230.134c13.102,39.79,26.441,79.506,39.638,119.267
	c1.571,4.735,3.288,9.431,3.47,14.498c-0.083,1.098-0.501,2.049-1.248,2.855c-0.672,0.658-1.343,1.314-2.015,1.972
	c-0.66,0.012-1.321,0.023-1.981,0.034c-25.155,14.129-52.935,21.783-79.712,31.794c-76.798,28.709-153.742,57.028-230.652,85.438
	c-18.445,6.813-36.78,13.938-55.419,20.216c-3.937,1.326-8.016,3.944-12.243,0.535
	C506.588,1577.825,506.586,1577.166,506.579,1576.508z"/>
<path fill-rule="evenodd" clip-rule="evenodd" fill="#8BCEB1" d="M506.585,1578.484c76.043-28.007,152.087-56.01,228.128-84.022
	c47.066-17.339,94.121-34.71,141.209-51.988c2.766-1.015,5.787-1.33,8.689-1.972c-20.102,18.318-40.091,36.761-60.334,54.92
	c-21.991,19.727-44.244,39.162-66.338,58.775c-41.215,36.586-82.427,73.177-123.582,109.831
	c-23.309,20.759-46.501,41.648-69.746,62.479c-7.282,2.342-8.235-3.775-9.909-7.961c-9.368-23.431-18.498-46.957-27.593-70.495
	c-6.582-17.033-13.364-33.989-19.841-51.064c-1.789-4.715-3.383-9.354-2.651-14.479c-0.001-0.668-0.002-1.337-0.003-2.006
	c0.004-0.661,0.009-1.322,0.014-1.983C505.28,1578.508,505.933,1578.496,506.585,1578.484z"/>
<path fill-rule="evenodd" clip-rule="evenodd" fill="#8DCEAE" d="M504.617,1582.508c16.006,40.354,31.881,80.762,48.131,121.018
	c3.214,7.96,7.872,15.337,11.863,22.982c-0.665,0.67-1.331,1.341-1.997,2.011c-46.874,25.715-93.74,51.442-140.644,77.104
	c-2.291,1.253-4.898,1.926-7.358,2.869c10.084-26.606,19.886-53.325,30.316-79.796c18.592-47.181,37.552-94.217,56.428-141.285
	C502.071,1585.627,503.514,1584.135,504.617,1582.508z"/>
<path fill-rule="evenodd" clip-rule="evenodd" fill="#98D7C6" d="M762.62,1056.52c-0.665-0.002-1.33,0-1.995,0.005
	c-0.001-0.668-0.003-1.337-0.005-2.006c1.335-2.665,2.669-5.33,4.004-7.995c10.823-21.686,21.939-43.23,32.394-65.092
	c13.192-27.586,25.655-55.52,38.764-83.146c39.481-83.215,79.149-166.342,118.692-249.528
	c24.106-50.713,48.115-101.473,72.168-152.211c2.005,55.393,3.926,110.787,6.049,166.174c1.13,29.499,2.656,58.983,3.921,88.478
	c2.062,48.064,4.025,96.133,6.088,144.197c1.251,29.162,2.654,58.317,3.914,87.479c2.706,62.645,5.427,125.289,7.923,187.942
	c0.207,5.197-1.24,10.46-1.919,15.692c-4.899,2.494-9.16-0.198-13.247-2.059c-56.93-25.907-114.058-51.373-171.006-77.237
	c-30.896-14.032-61.828-27.984-92.851-41.733C770.596,1063.299,765.786,1061.139,762.62,1056.52z"/>
<path fill-rule="evenodd" clip-rule="evenodd" fill="#69C19B" d="M2384.629,554.515c0.662-0.002,1.325-0.003,1.988-0.001
	c0,0.664,0,1.329,0,1.994c8.293,34.544,16.309,69.156,24.927,103.619c33.695,134.747,67.599,269.441,101.281,404.191
	c0.796,3.186-0.098,6.793-0.203,10.203c-3.876,4.519-9.003,3.694-13.901,2.965c-82.835-12.336-165.728-24.286-248.608-36.305
	c-71.03-10.301-142.016-20.921-213.082-30.981c-6.188-0.876-12.648-1.007-18.318-4.236c-5.88-5.504-1.12-9.818,2.044-13.716
	c14.274-17.582,28.732-35.016,43.115-52.51c73.18-89.017,146.659-177.785,219.83-266.81c29.182-35.504,58.563-70.845,87.559-106.502
	c3.827-4.705,8.317-8.601,13.357-11.913L2384.629,554.515z"/>
<path fill-rule="evenodd" clip-rule="evenodd" fill="#5EBC95" d="M2016.637,1002.524c26.135,4.001,52.256,8.097,78.408,11.983
	c71.352,10.603,142.708,21.168,214.077,31.65c64.497,9.475,129.011,18.839,193.529,28.168c3.265,0.472,6.645,0.148,9.971,0.195
	c1.324,0.658,2.648,1.317,3.973,1.976c-0.659,0.672-1.318,1.344-1.978,2.017c-3.548,4.937-8.164,8.548-13.307,11.799
	c-130.495,82.48-261.151,164.707-391.494,247.429c-4.199,2.665-8.325,5.556-13.526,6.052c-1.088-0.104-2.059-0.484-2.94-1.126
	c-0.809-0.746-1.469-1.6-2.01-2.554c-5.385-14.73-7.887-30.207-11.436-45.388c-18.461-78.992-37.324-157.89-55.923-236.849
	c-3.049-12.946-5.903-25.938-9.104-38.85c-1.27-5.123-2.791-10.398,0.441-15.461
	C2015.755,1003.217,2016.195,1002.871,2016.637,1002.524z"/>
<path fill-rule="evenodd" clip-rule="evenodd" fill="#4DB484" d="M2094.64,1342.535c0.657-0.013,1.313-0.025,1.97-0.039
	c5.851-2.491,11.716-1.571,17.527,0.063c70.546,19.842,141.127,39.557,211.632,59.544c4.104,1.162,8.508,2.13,10.849,6.416
	c0.004,0.668,0.008,1.336,0.012,2.005c1.329,3.33,2.658,6.659,3.986,9.989c7.65,31.279,15.162,62.594,22.979,93.832
	c13.715,54.803,27.629,109.557,41.401,164.346c0.803,3.19,1.086,6.512,1.609,9.771c-37.093,10.512-74.217,20.914-111.273,31.555
	c-116.978,33.59-233.942,67.226-350.887,100.933c-52.403,15.104-104.744,30.427-157.126,45.61c-2.852,0.827-5.809,1.287-8.717,1.918
	c-3.854-6.409,1.251-10.769,3.974-15.26c27.778-45.822,55.451-91.708,83.238-137.523
	c72.314-119.235,144.327-238.652,216.672-357.869c2.923-4.817,5.624-9.823,9.541-13.982
	C2092.794,1343.199,2093.666,1342.765,2094.64,1342.535z"/>
<path fill-rule="evenodd" clip-rule="evenodd" fill="#53B88C" d="M2336.617,1408.52c-40.947-11.322-81.883-22.686-122.845-33.955
	c-39.04-10.74-78.108-21.382-117.163-32.068c64.526-40.922,129.038-81.867,193.586-122.758
	c49.125-31.12,98.261-62.223,147.46-93.227c25.579-16.119,51.304-32.006,76.962-47.998c-10.681,20.66-21.148,41.436-32.091,61.956
	c-17.38,32.593-35.136,64.985-52.626,97.52c-29.627,55.111-59.155,110.276-88.807,165.375
	C2340.042,1405.319,2338.129,1406.812,2336.617,1408.52z"/>
<path fill-rule="evenodd" clip-rule="evenodd" fill="#82CEB8" d="M1762.611,682.499c0.002,0.669,0.004,1.338,0.006,2.006
	c1.814,4.309-1.497,6.859-3.529,9.684c-70.815,98.436-141.836,196.725-212.554,295.23c-2.323,3.236-4.501,6.692-8.098,8.715
	c-3.32,1.867-5.011,0.775-4.815-3.087c0.554-8.848-1.135-17.763,0.99-26.536c1.347-53.83,2.583-107.663,4.073-161.489
	c1.149-41.509,2.618-83.009,3.945-124.513c19.512-0.65,39.022-1.784,58.535-1.808c17.892-0.022,35.78,1.566,53.676,1.717
	c35.257,0.295,70.518,0.085,105.776,0.084C1761.282,682.506,1761.947,682.505,1762.611,682.499z"/>
<path fill-rule="evenodd" clip-rule="evenodd" fill="#8ED3C1" d="M1534.611,968.511c0.006,10.001,0.012,20.003,0.018,30.005
	c0.496,1.817-0.206,2.447-1.989,2.008l-0.033-0.026C1533.274,989.834,1533.943,979.172,1534.611,968.511z"/>
<path fill-rule="evenodd" clip-rule="evenodd" fill="#78C9AE" d="M1056.634,1188.52c152.386-59.806,304.769-119.618,457.169-179.388
	c6.183-2.425,12.525-4.438,18.794-6.644c0.349,0.399,0.696,0.798,1.05,1.195c1.225,4.43-0.223,8.604-1.565,12.654
	c-23.994,72.426-49.035,144.496-73.83,216.648c-10.611,30.876-21.098,61.799-31.622,92.701
	c-32.006,93.982-64.545,187.783-96.289,281.855c-7.988,23.672-16.2,47.274-24.183,70.952c-1.489,4.419-2.852,8.921-6.663,12.065
	c-0.96,0.74-1.913,0.731-2.859-0.024l-0.03-0.057c-3.224-2.343-6.541-4.591-8.497-8.242c-10.831-25.053-23.151-49.402-34.903-74.021
	c-18.943-39.685-37.867-79.379-57.058-118.944c-19.623-40.457-39.319-80.893-58.53-121.531
	c-26.754-56.594-54.339-112.791-80.776-169.534c-0.414-0.89-1.101-1.664-1.596-2.542c-0.595-1.487-0.705-3.006-0.315-4.559
	C1055.353,1190.149,1055.924,1189.288,1056.634,1188.52z"/>
<path fill-rule="evenodd" clip-rule="evenodd" fill="#77C9AF" d="M1532.64,1000.523c0.663-0.669,1.326-1.339,1.989-2.008
	c18.663-25.341,37.547-50.521,55.949-76.051c55.109-76.449,110.022-153.04,165.052-229.548c2.123-2.952,4.649-5.614,6.987-8.412
	c0.665-0.003,1.33-0.004,1.994-0.006c4.289,0.931,6.575,4.327,9.035,7.447c48.608,61.675,97.232,123.337,146.04,184.853
	c30.196,38.059,60.188,76.278,90.39,114.331c3.656,4.606,9.603,9.635,1.828,15.909c-8.492,2.797-17.312,2.203-25.754,1.065
	c-11.312-1.524-22.568-1.45-33.867-1.454c-121.879-0.038-243.758-0.01-365.637-0.041c-15.632-0.004-31.287,0.628-46.875-1.214
	c-1.307-0.069-2.59-0.284-3.85-0.642c-1.189-0.557-2.267-1.28-3.233-2.17l-0.091-0.096
	C1532.622,1001.834,1532.637,1001.179,1532.64,1000.523z"/>
<path fill-rule="evenodd" clip-rule="evenodd" fill="#8BD1BC" d="M1056.634,1188.52c-0.016,0.66-0.027,1.32-0.034,1.98
	c-6.232,16.721-17.562,30.389-27.371,44.894c-36.33,53.719-72.634,107.454-108.85,161.249c-9.251,13.74-17.678,28.151-29.074,40.382
	c-0.985,0.343-1.869,0.146-2.664-0.511c-10.68-31.374-21.456-62.717-32.018-94.13c-14.816-44.07-29.645-88.139-44.154-132.311
	c-16.794-51.126-33.248-102.364-49.849-153.555c32.817,14.425,65.736,28.622,98.429,43.321
	c63.923,28.741,127.72,57.763,191.568,86.668C1053.956,1187.178,1055.295,1187.849,1056.634,1188.52z"/>
<path fill-rule="evenodd" clip-rule="evenodd" fill="#56B98E" d="M2094.564,1344.454c-38.5,63.702-76.958,127.43-115.512,191.1
	c-54.044,89.255-108.222,178.43-162.2,267.724c-13.034,21.563-25.515,43.459-38.25,65.201c-0.636,0.03-1.271,0.053-1.907,0.066
	c-0.692-0.012-1.385-0.024-2.078-0.037c-5.153-4.292-9.164-9.5-12.834-15.104c-30.421-46.45-62.365-91.878-92.815-138.309
	c-3.645-5.557-7.751-10.93-7.255-18.155c8.164-32.839,18.43-65.08,27.688-97.607c1.359-4.774,2.455-9.647,4.687-14.132
	c2.758-5.328,7.848-7.979,12.668-10.915c95.84-58.4,192.015-116.25,287.957-174.48c29.039-17.625,58.277-34.92,87.165-52.795
	C2085.664,1344.668,2089.479,1340.998,2094.564,1344.454z"/>
<path fill-rule="evenodd" clip-rule="evenodd" fill="#76C7A9" d="M2014.617,1002.508c-30.983-39.307-61.979-78.603-92.947-117.921
	c-41.22-52.334-82.437-104.67-123.61-157.04c-11.23-14.285-22.303-28.695-33.448-43.047c27.121-6.01,54.194-12.25,81.374-17.98
	c61.979-13.066,123.994-25.955,186.021-38.783c92.55-19.14,185.132-38.127,277.683-57.262c25.008-5.169,49.953-10.633,74.928-15.961
	c-24.445,30.104-48.785,60.292-73.358,90.29c-42.644,52.057-85.349,104.063-128.181,155.965
	c-48.534,58.809-97.249,117.468-145.849,176.222c-6.97,8.425-13.734,17.019-20.593,25.534l-0.008-0.002
	C2015.951,1003.469,2015.28,1003.514,2014.617,1002.508z"/>
<path fill-rule="evenodd" clip-rule="evenodd" fill="#7AC9AB" d="M888.641,1436.514c0.657,0,1.314-0.004,1.972-0.012
	c2.831-2.33,5.655-4.634,9.378-5.479c37.313-8.474,74.464-17.664,111.921-25.51c1.302-0.272,2.642-0.321,3.962-0.363
	c6.745-0.018,12.063,2.982,16.725,7.683c28.603,28.837,56.268,58.581,84.626,87.64c21.84,22.377,43.435,45.003,65.397,67.267
	c12.616,12.79,25.186,25.668,37.439,38.813c13.606,14.596,27.775,28.635,41.513,43.098c10.082,10.616,20.899,20.542,29.044,32.857
	c1.996,2.657,3.992,5.314,5.988,7.972c-26.109-15.826-52.361-31.422-78.302-47.52c-108.469-67.312-216.843-134.774-325.262-202.165
	c-1.41-0.876-2.954-1.537-4.435-2.298C888.617,1437.836,888.629,1437.175,888.641,1436.514z"/>
<path fill-rule="evenodd" clip-rule="evenodd" fill="#60BD96" d="M1696.617,1584.508c-8.857,31.618-17.713,63.237-26.577,94.854
	c-1.791,6.387-3.618,12.764-5.429,19.146c-3.262,6.053-9.03,5.938-14.759,6.086c-25.604,0.665-51.071-2.548-76.708-2.179
	c-37.208,0.536-74.43-1.399-111.614-2.447c-25.241-0.711-50.606,0.616-75.687-1.733c-24.535-2.298-49.212,0.52-73.591-3.455
	c-3.268-0.533-6.632-0.632-9.639-2.266c-1.979,0.005-3.957,0.01-5.935,0.016c-0.023-0.664-0.039-1.329-0.045-1.994
	c0.647-0.025,1.295-0.049,1.942-0.071c4.053-4.976,9.879-6.52,15.685-8.088c59.785-16.153,119.561-32.349,179.364-48.436
	c62.053-16.69,124.051-33.584,186.112-50.244c4.17-1.119,8.289-2.607,12.74-1.893
	C1694.185,1582.206,1695.655,1582.971,1696.617,1584.508z"/>
<path fill-rule="evenodd" clip-rule="evenodd" fill="#5CBA91" d="M1302.614,1692.514c48.155,0.667,96.314,1.109,144.464,2.063
	c54.075,1.07,108.144,2.539,162.211,3.977c14.57,0.387,29.122,1.461,43.692,1.839c3.858,0.101,7.753-1.218,11.63-1.884
	c1.861,4.144,3.177,8.651,5.664,12.377c32.63,48.867,65.445,97.609,98.139,146.434c2.364,3.531,4.148,7.45,6.203,11.189
	c-44.966-16.496-89.963-32.906-134.889-49.508c-63.349-23.409-126.643-46.964-189.963-70.447
	c-47.411-17.583-94.834-35.138-142.223-52.783C1305.745,1695.101,1304.251,1693.617,1302.614,1692.514z"/>
<path fill-rule="evenodd" clip-rule="evenodd" fill="#63C09F" d="M1696.617,1584.508c-1.333-0.003-2.667-0.005-4-0.008
	c-50.587-187.367-104.879-373.696-156.941-560.65c-1.943-6.975-4.61-14.005-1.037-21.29c0.659-0.028,1.318-0.047,1.979-0.055
	c21.544,6.896,39.168,20.971,58.225,32.299c67.805,40.308,134.89,81.813,202.436,122.557
	c55.288,33.351,110.385,67.023,165.546,100.586c39.232,23.871,78.604,47.511,117.753,71.52c5.172,3.172,9.511,7.159,14.029,11.033
	c0.012,0.679,0.022,1.356,0.034,2.035c-0.021,0.641-0.046,1.281-0.075,1.921c-21.217,12.368-42.602,24.459-63.621,37.154
	c-100.771,60.862-201.451,121.876-302.14,182.875C1717.998,1571.031,1707.343,1577.827,1696.617,1584.508z"/>
<path fill-rule="evenodd" clip-rule="evenodd" fill="#68C2A2" d="M2094.605,1340.499c-16.652-9.574-33.475-18.867-49.928-28.773
	c-58.058-34.958-116.035-70.05-173.954-105.236c-59.036-35.864-117.928-71.967-176.958-107.841
	c-49.377-30.008-98.872-59.822-148.281-89.777c-3.103-1.88-5.918-4.233-8.867-6.366c144.585,0.006,289.169,0.012,433.754,0.017
	c14.749,0,29.497-0.009,44.246-0.014c0.67,0.005,1.341,0.01,2.011,0.015c2.872,14.932,5.248,29.979,8.695,44.776
	c22.563,96.85,45.357,193.647,68.101,290.456C2093.648,1338.709,2094.205,1339.586,2094.605,1340.499z"/>
<path fill-rule="evenodd" clip-rule="evenodd" fill="#6AC2A2" d="M1534.639,1002.56c6.574,24.692,12.874,49.463,19.772,74.064
	c25.938,92.496,52.081,184.935,78.129,277.399c20.19,71.667,40.438,143.318,60.337,215.066c1.317,4.747-0.109,10.256-0.26,15.41
	c-41.342,11.012-82.708,21.931-124.02,33.056c-74.97,20.189-149.905,40.504-224.857,60.759c-15.05,4.067-30.108,8.102-45.163,12.15
	c34.368-100.761,68.772-201.51,103.091-302.286c16.09-47.249,31.965-94.572,48.028-141.83
	c27.626-81.269,55.323-162.513,82.992-243.766C1533.339,1002.557,1533.988,1002.549,1534.639,1002.56z"/>
<path fill-rule="evenodd" clip-rule="evenodd" fill="#7AC9AE" d="M1290.617,1682.508c-2.813-2.109-5.94-3.905-8.386-6.377
	c-17.942-18.137-35.925-36.238-53.542-54.688c-14.654-15.348-28.639-31.335-43.272-46.703
	c-12.794-13.437-26.266-26.225-39.106-39.617c-24.293-25.336-48.205-51.036-72.554-76.318
	c-14.948-15.521-30.308-30.655-45.755-45.683c-2.378-2.313-6.224-3.117-9.391-4.619c1.526-15.437,4.652-30.632,6.994-45.945
	c7.622-49.834,15.799-99.583,23.396-149.422c1.014-6.653,1.027-14.089,7.615-18.627c7.927,14.752,16.347,29.264,23.685,44.303
	c18.675,38.278,37.024,76.718,55.206,115.233c16.726,35.431,32.772,71.183,49.662,106.533
	c13.688,28.647,28.469,56.771,42.246,85.377c17.055,35.412,33.646,71.05,50.281,106.664
	C1282.289,1662.448,1286.326,1672.537,1290.617,1682.508z"/>
<path fill-rule="evenodd" clip-rule="evenodd" fill="#83CDB5" d="M1056.617,1194.508c-4.659,28.03-9.504,56.031-13.934,84.098
	c-6.292,39.858-12.176,79.781-18.571,119.622c-0.582,3.626-3.609,6.859-5.501,10.274c-25.864,5.625-51.732,11.229-77.591,16.88
	c-16.81,3.673-33.605,7.411-50.408,11.12c15.132-22.988,30.088-46.096,45.431-68.943c38.175-56.846,76.515-113.579,114.841-170.322
	c1.638-2.426,3.799-4.499,5.716-6.736C1056.605,1191.836,1056.611,1193.172,1056.617,1194.508z"/>
</svg>
