<?xml version="1.0" encoding="UTF-8" standalone="no"?>
<svg
   xmlns:dc="http://purl.org/dc/elements/1.1/"
   xmlns:cc="http://creativecommons.org/ns#"
   xmlns:rdf="http://www.w3.org/1999/02/22-rdf-syntax-ns#"
   xmlns:svg="http://www.w3.org/2000/svg"
   xmlns="http://www.w3.org/2000/svg"
   xmlns:sodipodi="http://sodipodi.sourceforge.net/DTD/sodipodi-0.dtd"
   xmlns:inkscape="http://www.inkscape.org/namespaces/inkscape"
   version="1.1"
   id="Layer_1"
   x="0px"
   y="0px"
   width="354.78262"
   height="202.17392"
   viewBox="120 0 106.43479 155.00001"
   xml:space="preserve"
   inkscape:version="0.91 r13725"
   sodipodi:docname="pa_card2.svg"><metadata
     id="metadata75"><rdf:RDF><cc:Work
         rdf:about=""><dc:format>image/svg+xml</dc:format><dc:type
           rdf:resource="http://purl.org/dc/dcmitype/StillImage" /><dc:title></dc:title></cc:Work></rdf:RDF></metadata><defs
     id="defs73" /><sodipodi:namedview
     pagecolor="#ffffff"
     bordercolor="#666666"
     borderopacity="1"
     objecttolerance="10"
     gridtolerance="10"
     guidetolerance="10"
     inkscape:pageopacity="0"
     inkscape:pageshadow="2"
     inkscape:window-width="1309"
     inkscape:window-height="744"
     id="namedview71"
     showgrid="false"
     fit-margin-top="0"
     fit-margin-left="0"
     fit-margin-right="0"
     fit-margin-bottom="0"
     inkscape:zoom="0.84004286"
     inkscape:cx="154.52548"
     inkscape:cy="110.15986"
     inkscape:window-x="57"
     inkscape:window-y="262"
     inkscape:window-maximized="1"
     inkscape:current-layer="Layer_1" /><g
     id="g3"
     transform="translate(25.717398,-24.499993)"><path
       class="st1"
       d="m 103.522,166.933 c 0.44,-0.334 0.823,-0.697 0.875,-1.299 0.075,-0.871 -0.323,-1.316 -1.195,-1.312 -0.035,0 -0.072,-0.031 -0.146,-0.066 -0.15,-0.439 -0.31,-0.907 -0.492,-1.437 0.862,-0.274 1.676,-0.534 2.548,-0.812 0.183,0.512 0.349,0.973 0.511,1.43 -0.162,0.144 -0.322,0.228 -0.392,0.359 -0.107,0.202 -0.227,0.442 -0.211,0.658 0.059,0.819 0.901,1.411 1.739,1.265 0.7,-0.123 1.227,-0.967 1.071,-1.715 -0.144,-0.688 -0.401,-0.888 -1.127,-0.886 -0.055,0.001 -0.11,-0.03 -0.189,-0.056 -0.146,-0.426 -0.293,-0.857 -0.464,-1.354 5.762,-1.81 11.48,-3.606 17.23,-5.413 0.114,0.204 0.2,0.382 0.31,0.544 0.583,0.864 1.104,1.781 1.771,2.577 2.043,2.438 4.686,3.636 7.875,3.646 2.384,0.008 4.557,-0.673 6.54,-1.965 0.773,-0.505 1.516,-1.058 2.251,-1.616 0.823,-0.625 1.684,-0.824 2.643,-0.351 0.03,0.015 0.077,-0.004 0.158,-0.012 0.102,-0.131 0.221,-0.283 0.329,-0.42 -0.113,-0.226 -0.208,-0.402 -0.29,-0.587 -0.423,-0.96 -0.271,-1.692 0.538,-2.367 0.337,-0.279 0.709,-0.536 1.102,-0.73 2.256,-1.123 4.662,-1.606 7.17,-1.554 0.824,0.018 1.643,0.141 2.399,0.509 1.017,0.495 1.481,1.336 1.355,2.449 -0.017,0.136 -0.04,0.271 -0.065,0.445 0.194,0.067 0.375,0.13 0.535,0.188 0.182,-0.185 0.315,-0.334 0.465,-0.467 0.764,-0.678 1.632,-1.01 2.663,-0.809 0.257,0.05 0.514,0.092 0.771,0.132 1.17,0.186 2.332,0.437 3.51,0.543 2.804,0.259 5.429,-0.402 7.876,-1.76 1.592,-0.882 2.864,-2.132 3.872,-3.643 0.188,-0.282 0.384,-0.44 0.73,-0.396 0.157,0.022 0.322,0.004 0.482,0.004 12.22,0 24.44,0 36.661,-0.004 0.501,0 1.008,-0.009 1.502,-0.079 2.643,-0.385 4.732,-1.688 6.299,-3.845 0.271,-0.373 0.438,-0.438 0.859,-0.267 0.24,0.1 0.457,0.252 0.672,0.402 0.328,0.228 0.649,0.471 0.972,0.71 1.106,0.828 2.239,0.852 3.438,0.19 1.538,-0.849 2.896,-1.883 3.803,-3.425 0.194,-0.329 0.417,-0.642 0.615,-0.967 1.744,-2.897 3.229,-5.924 4.488,-9.062 0.24,-0.592 0.405,-1.221 0.535,-1.846 0.683,-3.305 1.349,-6.612 2.01,-9.92 0.167,-0.846 0.361,-1.693 0.451,-2.549 0.189,-1.821 -1.371,-3.278 -3.126,-2.963 -0.142,0.234 -0.045,0.4 0.148,0.561 0.198,0.168 0.396,0.345 0.557,0.547 0.545,0.688 0.426,1.346 -0.372,1.726 -0.442,0.211 -0.949,0.329 -1.439,0.395 -0.969,0.126 -1.918,-0.088 -2.858,-0.308 -2.883,-0.669 -5.662,-1.66 -8.423,-2.708 -0.65,-0.248 -0.651,-0.25 -0.651,-0.946 -0.005,-6.995 -0.003,-13.988 0,-20.984 0,-0.191 0.02,-0.383 0.035,-0.693 0.23,0.22 0.39,0.339 0.507,0.492 0.576,0.747 1.218,1.457 1.688,2.266 0.596,1.017 1.053,2.119 1.569,3.183 0.262,0.542 0.486,1.105 0.798,1.614 0.344,0.562 0.853,0.948 1.54,1.077 0.064,-0.099 0.131,-0.175 0.169,-0.265 0.196,-0.461 0.197,-0.937 0.084,-1.417 -0.225,-0.952 -0.657,-1.813 -1.178,-2.628 -0.465,-0.728 -0.966,-1.433 -1.448,-2.149 -0.599,-0.885 -1.141,-1.801 -1.458,-2.829 -0.123,-0.393 -0.207,-0.8 -0.283,-1.112 0.741,-0.387 1.403,-0.714 2.044,-1.076 0.336,-0.188 0.608,-0.241 1,-0.071 1.579,0.685 3.276,0.273 4.293,-1.001 0.215,0.125 0.433,0.251 0.59,0.341 0.521,-0.283 0.988,-0.534 1.474,-0.798 -0.083,-0.132 -0.188,-0.277 -0.269,-0.434 -0.151,-0.297 -0.097,-0.452 0.22,-0.55 0.206,-0.064 0.434,-0.068 0.649,-0.12 0.124,-0.03 0.264,-0.075 0.356,-0.157 0.24,-0.212 0.483,-0.428 0.678,-0.68 0.176,-0.23 0.354,-0.495 0.414,-0.77 0.061,-0.277 0.166,-0.46 0.381,-0.637 0.864,-0.708 1.346,-1.669 1.757,-2.644 -0.201,-0.374 -0.529,-0.433 -0.833,-0.525 -0.268,-0.082 -0.55,-0.13 -0.806,-0.242 -0.434,-0.19 -0.452,-0.331 -0.158,-0.71 0.228,-0.291 0.225,-0.41 -0.07,-0.64 -0.154,-0.119 -0.345,-0.237 -0.531,-0.26 -0.373,-0.047 -0.758,-0.047 -1.135,-0.035 -0.461,0.014 -0.921,0.064 -1.382,0.091 -0.608,0.035 -1.146,-0.163 -1.634,-0.512 -0.197,-0.14 -0.381,-0.298 -0.582,-0.431 -1.521,-1.016 -3.188,-1.495 -5.018,-1.362 -0.378,0.027 -0.751,0.124 -1.129,0.177 -0.482,0.068 -0.93,-0.049 -1.301,-0.349 -0.159,-0.125 -0.322,-0.351 -0.328,-0.534 -0.017,-0.598 0.152,-1.125 0.688,-1.508 0.584,-0.419 1.165,-0.858 1.681,-1.358 0.575,-0.558 1.084,-1.186 1.604,-1.799 1.038,-1.23 2.304,-2.11 3.848,-2.583 2.019,-0.618 3.856,-1.609 5.576,-2.81 1.58,-1.103 3.13,-2.253 4.664,-3.424 0.333,-0.256 0.641,-0.645 0.787,-1.036 0.404,-1.077 0.718,-2.187 1.076,-3.304 -0.36,0 -0.706,0.324 -1.086,-0.058 0.119,-0.22 0.243,-0.453 0.428,-0.791 -0.226,0.037 -0.388,0.014 -0.453,0.084 -0.256,0.273 -0.557,0.543 -0.701,0.876 -0.213,0.492 -0.328,1.03 -0.44,1.559 -0.351,1.675 -0.337,1.687 -1.863,2.521 -0.899,0.49 -1.834,0.919 -2.723,1.425 -0.609,0.345 -1.243,0.699 -1.731,1.185 -0.785,0.779 -1.69,1.274 -2.735,1.566 -0.97,0.271 -1.898,0.64 -2.791,1.118 -0.363,0.196 -0.776,0.323 -1.187,0.411 -0.4,0.086 -0.768,-0.047 -1.062,-0.377 0.335,-0.377 0.755,-0.478 1.144,-0.621 0.516,-0.19 0.884,-0.505 1.147,-1 0.174,-0.324 0.483,-0.573 0.723,-0.864 0.175,-0.212 0.38,-0.416 0.488,-0.661 0.134,-0.311 0.304,-0.564 0.599,-0.725 0.362,-0.196 0.517,-0.522 0.488,-0.9 -0.021,-0.353 -0.068,-0.732 -0.22,-1.042 -0.431,-0.873 -1.057,-1.557 -2.041,-1.839 -0.266,-0.077 -0.549,-0.177 -0.761,-0.347 -0.399,-0.325 -0.828,-0.348 -1.302,-0.287 -0.644,0.082 -1.163,0.429 -1.692,0.755 -0.308,0.189 -0.585,0.249 -0.95,0.107 -0.67,-0.257 -1.115,-0.061 -1.451,0.572 -0.121,0.228 -0.212,0.477 -0.289,0.725 -0.151,0.499 -0.284,1.003 -0.428,1.523 0.062,0.073 0.132,0.145 0.19,0.223 0.061,0.08 0.108,0.169 0.169,0.248 0.25,0.326 0.368,0.36 0.776,0.216 0.169,-0.062 0.33,-0.157 0.504,-0.194 0.117,-0.023 0.247,0.031 0.402,0.056 -0.213,0.668 -0.159,1.281 -0.062,1.901 0.078,0.496 0.131,0.996 -0.212,1.396 -0.779,0.124 -1.504,0.086 -2.252,0.015 -0.952,-0.09 -1.925,-0.017 -2.885,0.046 -1.623,0.108 -3.213,0.131 -4.676,-0.751 -0.507,-0.305 -1.1,-0.354 -1.684,-0.417 -0.736,-0.078 -1.476,-0.17 -2.201,-0.317 -0.727,-0.148 -1.435,-0.383 -2.155,-0.56 -1.358,-0.331 -2.57,-0.161 -3.598,0.914 -0.423,0.442 -1.004,0.731 -1.499,1.104 -0.322,0.239 -0.672,0.463 -0.916,0.769 -0.215,0.27 -0.42,0.37 -0.752,0.369 -3.015,-0.01 -6.03,-0.006 -9.045,-0.008 -0.17,0 -0.342,-0.029 -0.495,-0.043 -0.021,-0.095 -0.037,-0.133 -0.037,-0.171 0,-0.06 0.004,-0.122 0.019,-0.18 0.508,-2.258 0.048,-4.39 -0.876,-6.45 -0.522,-1.158 -1.284,-2.131 -2.398,-2.792 -0.068,-0.041 -0.152,-0.056 -0.232,-0.084 0.031,-0.049 0.063,-0.1 0.094,-0.15 0.868,-0.134 1.737,-0.253 2.603,-0.406 3.409,-0.602 6.844,-0.948 10.308,-0.948 1.566,0 3.13,-0.014 4.686,0.256 2.134,0.371 3.705,1.464 4.675,3.408 0.143,0.287 0.295,0.571 0.461,0.846 0.219,0.359 0.431,0.73 0.694,1.055 0.226,0.276 0.494,0.534 0.792,0.728 0.609,0.396 1.067,0.278 1.367,-0.392 0.226,-0.507 0.411,-1.058 0.479,-1.605 0.371,-3.023 0.346,-6.055 0.088,-9.086 -0.22,-2.566 -0.744,-5.085 -1.297,-7.596 -0.3,-1.355 -0.69,-2.688 -1.312,-3.935 -0.26,-0.516 -0.56,-1.027 -0.93,-1.469 -0.693,-0.83 -1.352,-0.779 -1.933,0.122 -0.246,0.385 -0.459,0.806 -0.609,1.239 -0.276,0.795 -0.559,1.598 -0.72,2.421 -0.351,1.798 -1.286,3.229 -2.613,4.436 -1.353,1.23 -2.851,2.271 -4.637,2.718 -6.759,1.689 -13.512,3.415 -20.304,4.957 -7.831,1.779 -15.704,3.38 -23.559,5.055 -0.683,0.146 -1.369,0.264 -2.108,0.404 -0.104,-0.513 -0.2,-0.978 -0.295,-1.44 -0.527,-0.277 -1.084,-0.073 -1.672,-0.158 -0.086,-0.725 -0.17,-1.452 -0.254,-2.17 0.229,-0.129 0.401,-0.226 0.575,-0.321 0.229,-0.125 0.365,-0.275 0.329,-0.573 -0.035,-0.296 -0.197,-0.42 -0.446,-0.491 -0.805,-0.231 -1.546,-0.071 -2.251,0.354 -0.235,0.142 -0.327,0.314 -0.29,0.593 0.038,0.285 0.167,0.43 0.45,0.468 0.192,0.028 0.382,0.092 0.589,0.145 0.146,0.745 0.288,1.468 0.437,2.219 -0.461,0.162 -0.868,0.305 -1.301,0.458 0.093,0.58 0.178,1.107 0.27,1.682 -0.451,0.083 -0.855,0.157 -1.28,0.235 -0.113,-0.582 -0.216,-1.091 -0.314,-1.593 -0.518,-0.26 -1.053,-0.072 -1.608,-0.154 -0.082,-0.717 -0.164,-1.428 -0.247,-2.149 0.209,-0.128 0.392,-0.249 0.582,-0.356 0.2,-0.113 0.264,-0.266 0.24,-0.499 -0.025,-0.249 -0.117,-0.407 -0.359,-0.492 -0.708,-0.246 -1.394,-0.177 -2.041,0.169 -0.545,0.292 -0.772,0.295 -0.431,1.151 0.304,0.063 0.631,0.134 0.987,0.207 0.137,0.733 0.271,1.454 0.404,2.173 -0.486,0.168 -0.9,0.311 -1.349,0.465 0.094,0.621 0.183,1.207 0.279,1.844 -0.512,0.101 -0.97,0.192 -1.464,0.29 -0.12,-0.604 -0.224,-1.128 -0.34,-1.716 -0.552,0 -1.063,0 -1.598,0 -0.095,-0.802 -0.183,-1.532 -0.267,-2.237 0.259,-0.139 0.457,-0.238 0.647,-0.349 0.196,-0.113 0.363,-0.235 0.312,-0.518 -0.049,-0.267 -0.171,-0.427 -0.433,-0.512 -0.716,-0.233 -1.386,-0.116 -2.038,0.222 -0.588,0.308 -0.606,0.354 -0.396,1.069 0.177,0.044 0.369,0.111 0.565,0.135 0.207,0.026 0.333,0.112 0.373,0.322 0.125,0.666 0.253,1.333 0.383,2.022 -0.465,0.165 -0.894,0.315 -1.346,0.476 0.101,0.63 0.193,1.215 0.292,1.841 -3.065,0.616 -6.069,1.221 -9.085,1.828 -0.134,-0.189 -0.254,-0.348 -0.364,-0.513 -0.782,-1.17 -1.561,-2.34 -2.341,-3.511 -2.844,-4.263 -5.686,-8.525 -8.531,-12.787 -0.167,-0.252 -0.321,-0.493 -0.332,-0.82 -0.034,-1.125 -0.12,-2.249 -0.13,-3.373 -0.004,-0.473 0.027,-0.998 0.228,-1.408 0.327,-0.671 0.189,-1.138 -0.351,-1.567 -0.078,-0.062 -0.139,-0.145 -0.21,-0.215 -2.013,-1.998 -4.103,-3.91 -6.334,-5.663 -0.122,-0.097 -0.234,-0.208 -0.352,-0.315 0.062,-0.159 0.113,-0.288 0.165,-0.417 0.854,-2.151 -0.215,-4.411 -2.42,-5.121 -0.167,-0.054 -0.325,-0.133 -0.488,-0.2"
       id="path5"
       inkscape:connector-curvature="0" /><path
       class="st1"
       d="m 55.402,113.866 c 0.101,0.142 0.217,0.275 0.302,0.426 0.433,0.776 1.261,1.152 2.083,0.941 0.843,-0.216 1.42,-0.946 1.419,-1.795 -0.002,-0.851 -0.583,-1.586 -1.421,-1.797 -0.812,-0.208 -1.651,0.179 -2.084,0.947 -0.085,0.152 -0.198,0.288 -0.298,0.432 m 54.994,-80.922 c -0.185,0.07 -0.368,0.147 -0.555,0.209 -2.085,0.673 -3.189,2.841 -2.498,4.911 0.134,0.399 0.277,0.796 0.413,1.196 0.128,0.373 0.251,0.747 0.391,1.165 -0.361,0.106 -0.661,0.194 -0.941,0.278 -0.774,-0.988 -0.666,-0.819 -1.678,-0.534 -0.097,0.027 -0.193,0.053 -0.29,0.081 -0.287,0.083 -0.431,0.288 -0.451,0.574 -0.048,0.667 0.116,1.279 0.529,1.809 0.186,0.238 0.428,0.36 0.743,0.238 0.13,-0.051 0.27,-0.08 0.404,-0.121 0.904,-0.276 0.904,-0.276 0.921,-1.199 0,-0.037 0.024,-0.074 0.052,-0.151 0.294,-0.089 0.612,-0.185 0.973,-0.293 0.322,0.904 0.623,1.745 0.938,2.625 -0.373,0.112 -0.674,0.204 -0.989,0.297 -0.108,-0.156 -0.199,-0.286 -0.29,-0.416 -0.191,-0.27 -0.442,-0.438 -0.772,-0.303 -0.459,0.188 -1.085,0.08 -1.312,0.698 -0.033,0.091 -0.044,0.202 -0.029,0.296 0.061,0.354 0.084,0.725 0.214,1.052 0.343,0.868 0.579,0.963 1.468,0.709 0.881,-0.252 0.897,-0.273 0.931,-1.195 10e-4,-0.036 0.03,-0.073 0.069,-0.158 0.285,-0.085 0.602,-0.18 0.959,-0.288 0.17,0.468 0.321,0.881 0.47,1.292 0.155,0.426 0.309,0.853 0.47,1.301 -0.213,0.073 -0.361,0.131 -0.513,0.174 -0.168,0.048 -0.339,0.083 -0.498,0.122 -0.068,-0.086 -0.105,-0.131 -0.138,-0.181 -0.407,-0.606 -0.504,-0.644 -1.188,-0.446 -0.212,0.061 -0.424,0.127 -0.632,0.197 -0.282,0.093 -0.415,0.296 -0.433,0.587 -0.04,0.648 0.139,1.234 0.517,1.757 0.192,0.267 0.444,0.401 0.784,0.258 0.11,-0.047 0.229,-0.074 0.345,-0.109 0.933,-0.286 0.932,-0.286 0.966,-1.226 0.001,-0.036 0.033,-0.069 0.067,-0.139 0.298,-0.089 0.619,-0.185 0.989,-0.296 0.335,0.88 0.652,1.713 0.991,2.603 -0.408,0.127 -0.742,0.232 -1.087,0.342 -0.102,-0.159 -0.172,-0.278 -0.253,-0.391 -0.283,-0.395 -0.449,-0.451 -0.921,-0.317 -0.097,0.027 -0.191,0.062 -0.288,0.092 -0.933,0.285 -1.044,0.46 -0.881,1.424 0.024,0.138 0.063,0.275 0.111,0.405 0.341,0.94 0.63,1.083 1.58,0.788 0.843,-0.261 0.853,-0.276 0.854,-1.18 0,-0.036 0.031,-0.071 0.069,-0.156 0.323,-0.098 0.68,-0.208 1.072,-0.327 0.227,0.521 0.446,0.991 0.639,1.473 0.179,0.453 0.476,0.783 0.914,0.99 0.961,0.457 1.917,0.925 2.885,1.367 0.269,0.122 0.469,0.279 0.632,0.524 3.153,4.733 6.312,9.462 9.467,14.192 0.096,0.144 0.173,0.299 0.287,0.497 -1.04,0.144 -2.011,0.268 -2.979,0.417 -1.217,0.188 -2.409,0.479 -3.483,1.103 -0.402,0.234 -0.798,0.319 -1.253,0.319 -9.669,-0.009 -19.336,-0.011 -29.004,0.003 -0.758,10e-4 -1.532,0.061 -2.271,0.224 -4.255,0.938 -7.202,4.824 -7.177,9.037 0.038,6.251 0.009,12.502 0.009,18.752 0,5.549 0,11.096 0,16.643 0,0.208 -0.011,0.416 -0.021,0.747 -0.329,-0.331 -0.541,-0.571 -0.78,-0.78 -0.636,-0.559 -1.374,-0.82 -2.226,-0.699 -1.378,0.194 -2.868,1.713 -2.989,3.102 -0.13,1.479 0.328,2.732 1.547,3.65 0.401,0.303 0.811,0.595 1.199,0.913 0.397,0.327 0.389,0.457 -0.009,0.804 -0.151,0.132 -0.311,0.258 -0.48,0.362 -0.426,0.268 -0.848,0.541 -1.29,0.777 -0.625,0.331 -0.987,0.827 -0.982,1.535 0.003,0.561 -0.009,1.138 0.124,1.673 0.208,0.834 0.528,1.641 0.811,2.453 0.185,0.53 0.412,1.046 0.581,1.583 0.167,0.527 0.191,1.073 0.004,1.603 -0.447,1.268 -1.181,2.316 -2.348,3.032 -0.274,0.168 -0.532,0.362 -0.785,0.56 -0.218,0.167 -0.284,0.379 -0.116,0.63 0.077,0.117 0.139,0.245 0.219,0.36 0.389,0.562 0.882,0.686 1.446,0.288 0.406,-0.285 0.844,-0.607 1.091,-1.019 0.459,-0.757 1.06,-1.354 1.717,-1.917 0.182,-0.154 0.326,-0.353 0.498,-0.524 0.721,-0.715 1.042,-1.547 0.805,-2.57 -0.08,-0.347 -0.059,-0.708 0.062,-1.06 0.38,0.15 0.432,0.146 0.556,0.43 0.208,0.477 0.371,0.971 0.544,1.462 0.206,0.584 0.373,1.185 0.615,1.754 0.138,0.323 0.214,0.634 0.213,0.982 -0.009,1.908 -0.018,3.818 -10e-4,5.729 0.023,2.608 1.016,4.812 2.902,6.595 1.806,1.706 3.983,2.509 6.465,2.509 10.25,-0.003 20.502,-0.001 30.753,-0.001 0.252,0 0.505,0 0.773,0 0.097,0.595 0.181,1.105 0.273,1.667 -6.038,2.32 -12.047,4.628 -18.127,6.965 -0.177,-0.52 -0.333,-0.984 -0.483,-1.424 0.563,-0.45 0.611,-0.519 0.617,-0.835 0.017,-0.827 -0.717,-1.497 -1.587,-1.453 -0.756,0.038 -1.381,0.825 -1.278,1.608 0.086,0.646 0.41,0.937 1.075,0.968 0.076,0.002 0.15,0.023 0.254,0.04 0.163,0.478 0.323,0.941 0.495,1.443 -0.789,0.298 -1.51,0.567 -2.27,0.854 -0.175,-0.515 -0.321,-0.943 -0.459,-1.351 0.305,-0.261 0.63,-0.414 0.63,-0.83 0,-0.545 -0.34,-1.087 -0.881,-1.335 -0.52,-0.235 -1.028,-0.224 -1.46,0.176 -0.441,0.408 -0.655,0.911 -0.472,1.521 0.169,0.562 0.391,0.728 0.996,0.772 0.079,0.004 0.155,0.019 0.271,0.032 0.157,0.449 0.313,0.897 0.469,1.34 -0.507,0.461 -1.033,0.688 -1.727,0.498 -0.063,-0.156 -0.12,-0.35 -0.216,-0.521 -0.073,-0.131 -0.179,-0.303 -0.303,-0.335 -0.577,-0.141 -1.138,-0.115 -1.635,0.289 0.085,0.275 0.154,0.502 0.239,0.777 -0.179,0.126 -0.356,0.253 -0.487,0.347 0.045,0.266 0.073,0.436 0.103,0.608 -0.46,0.267 -0.892,0.518 -1.365,0.789 0.194,0.555 0.375,1.076 0.569,1.628 0.558,-0.078 1.069,-0.147 1.575,-0.221 0.104,0.195 0.187,0.352 0.27,0.505 0.212,0.023 0.41,0.043 0.604,0.063 0.116,0.25 0.224,0.478 0.329,0.702 0.489,-0.03 0.853,-0.229 1.183,-0.502 0.29,-0.238 0.443,-0.514 0.239,-0.893 -0.065,-0.119 -0.08,-0.265 -0.132,-0.449 0.258,-0.184 0.492,-0.452 0.778,-0.535 0.629,-0.178 1.284,-0.262 1.969,-0.392 0.176,0.501 0.346,0.983 0.51,1.447 -0.843,0.746 -0.772,1.547 0.141,2.135 0.081,0.054 0.157,0.113 0.236,0.173 M 82.52,58.891 c -0.303,-0.053 -0.515,-0.033 -0.599,0.274 -0.096,0.349 -0.234,0.69 -0.289,1.043 -0.226,1.447 0.018,2.762 1.138,3.812 0.552,0.519 1.213,0.845 1.913,1.112 2.208,0.842 4.489,1.05 6.817,0.773 1.19,-0.143 2.25,0.093 3.263,0.751 0.908,0.588 1.87,1.102 2.841,1.581 0.681,0.335 1.407,0.588 2.131,0.821 0.495,0.159 0.748,-0.072 0.798,-0.592 0.035,-0.375 -0.168,-0.648 -0.369,-0.926 -0.483,-0.667 -0.97,-1.331 -1.448,-2 -0.086,-0.121 -0.143,-0.264 -0.216,-0.404 0.099,-0.047 0.149,-0.084 0.204,-0.098 2.6,-0.651 4.497,-2.269 5.929,-4.448 1.175,-1.79 0.916,-3.682 -0.578,-5.218 -0.703,-0.723 -1.576,-1.171 -2.491,-1.545 -1.977,-0.805 -4.046,-1.158 -6.17,-1.225 -2.364,-0.075 -4.699,0.101 -6.961,0.85 -1.795,0.593 -3.435,1.46 -4.778,2.822 -0.104,0.105 -0.178,0.236 -0.286,0.382 0.556,0.063 0.537,0.034 0.88,-0.204 0.542,-0.377 1.087,-0.761 1.676,-1.053 0.994,-0.495 2.077,-0.732 3.161,-0.954 2.944,-0.604 5.895,-0.718 8.858,-0.164 1.508,0.282 2.966,0.719 4.297,1.507 0.627,0.371 1.198,0.812 1.622,1.416 0.55,0.782 0.669,1.612 0.293,2.508 -0.542,1.291 -1.427,2.266 -2.656,2.932 -1.081,0.586 -2.25,0.838 -3.465,0.922 -0.927,0.064 -1.26,0.543 -0.958,1.415 0.124,0.358 0.321,0.691 0.472,1.042 0.088,0.208 0.148,0.429 0.264,0.771 -0.315,-0.154 -0.498,-0.23 -0.667,-0.329 -0.848,-0.499 -1.706,-0.982 -2.533,-1.515 -0.375,-0.242 -0.735,-0.335 -1.18,-0.304 -1.766,0.13 -3.532,0.145 -5.293,-0.1 -1.361,-0.188 -2.684,-0.491 -3.857,-1.263 -1.651,-1.079 -2.202,-2.408 -1.763,-4.392 z m -4.467,13.833 c 0,-0.267 -0.011,-0.419 0.001,-0.571 0.038,-0.459 0.114,-0.918 0.121,-1.378 0.013,-0.795 -0.395,-1.142 -1.179,-1.045 -0.099,0.012 -0.197,0.038 -0.292,0.068 -1.178,0.366 -2.377,0.376 -3.577,0.158 -1.104,-0.199 -2.125,-0.602 -2.94,-1.416 -0.962,-0.963 -1.212,-2.236 -0.693,-3.497 0.265,-0.642 0.675,-1.184 1.152,-1.679 0.817,-0.846 1.762,-1.526 2.785,-2.094 2.934,-1.629 6.08,-2.615 9.411,-2.98 1.76,-0.192 3.5,-0.022 5.135,0.709 0.578,0.258 1.137,0.607 1.629,1.006 1.019,0.826 1.63,2.454 0.913,3.865 -0.033,0.063 -0.025,0.147 -0.038,0.237 0.482,0 0.933,0 1.37,0 0.146,-0.541 0.155,-0.815 0.004,-1.341 -0.516,-1.807 -1.596,-3.178 -3.227,-4.105 -1.772,-1.008 -3.708,-1.408 -5.724,-1.44 -1.861,-0.03 -3.681,0.277 -5.459,0.816 -2.322,0.705 -4.524,1.657 -6.471,3.138 -0.804,0.612 -1.546,1.294 -2.083,2.156 -0.645,1.037 -0.982,2.155 -0.695,3.389 0.207,0.891 0.705,1.612 1.36,2.231 1.526,1.44 3.389,2.108 5.434,2.337 0.614,0.069 1.233,0.091 1.888,0.137 -0.177,0.953 -0.376,1.864 -0.824,2.708 -0.278,0.525 -0.216,0.942 0.13,1.333 0.188,0.211 0.394,0.28 0.637,0.13 0.359,-0.222 0.723,-0.439 1.06,-0.69 1.172,-0.871 2.15,-1.943 2.976,-3.135 0.727,-1.049 1.703,-1.593 2.926,-1.819 1.408,-0.26 2.768,-0.689 4.048,-1.337 0.812,-0.41 1.57,-0.899 2.194,-1.57 0.101,-0.108 0.176,-0.242 0.31,-0.432 -0.646,0 -1.204,-0.012 -1.76,0.009 -0.143,0.005 -0.287,0.111 -0.421,0.187 -0.714,0.407 -1.399,0.873 -2.142,1.217 -1.481,0.688 -3.06,1.092 -4.655,1.422 -0.294,0.061 -0.491,0.184 -0.687,0.417 -0.727,0.858 -1.486,1.687 -2.236,2.524 -0.086,0.096 -0.195,0.173 -0.381,0.335 z M 63.959,126.09 c 0.009,1.019 0.83,1.835 1.848,1.835 1.006,0 1.845,-0.838 1.853,-1.845 0.009,-1.034 -0.842,-1.864 -1.893,-1.849 -1.029,0.015 -1.818,0.826 -1.808,1.859 z M 76.763,97.277 c -0.01,-1.017 -0.842,-1.843 -1.849,-1.835 -1.008,0.007 -1.84,0.841 -1.848,1.85 -0.007,1.034 0.849,1.873 1.894,1.856 1.022,-0.017 1.811,-0.837 1.803,-1.871 z m -16.184,0.046 c -1.042,0.011 -1.812,0.798 -1.808,1.847 0.005,1.035 0.8,1.828 1.833,1.828 1.044,0 1.889,-0.856 1.856,-1.885 -0.03,-1.027 -0.844,-1.801 -1.881,-1.79 z"
       id="path7"
       inkscape:connector-curvature="0" /><path
       class="st1"
       d="m 78.053,72.724 c 0.186,-0.161 0.295,-0.238 0.383,-0.335 0.75,-0.838 1.509,-1.667 2.236,-2.524 0.196,-0.232 0.393,-0.355 0.687,-0.417 1.595,-0.33 3.173,-0.734 4.655,-1.422 0.742,-0.344 1.428,-0.81 2.142,-1.217 0.134,-0.076 0.278,-0.181 0.421,-0.187 0.556,-0.021 1.113,-0.009 1.76,-0.009 -0.134,0.19 -0.209,0.324 -0.31,0.432 -0.625,0.671 -1.383,1.161 -2.194,1.57 -1.28,0.647 -2.64,1.077 -4.048,1.337 -1.223,0.226 -2.199,0.77 -2.926,1.819 -0.826,1.191 -1.803,2.264 -2.976,3.135 -0.337,0.251 -0.701,0.468 -1.06,0.69 -0.243,0.15 -0.449,0.081 -0.637,-0.13 -0.346,-0.391 -0.408,-0.808 -0.13,-1.333 0.447,-0.843 0.647,-1.755 0.824,-2.708 -0.655,-0.046 -1.274,-0.068 -1.888,-0.137 -2.045,-0.229 -3.908,-0.897 -5.434,-2.337 -0.655,-0.619 -1.153,-1.34 -1.36,-2.231 -0.287,-1.234 0.051,-2.352 0.695,-3.389 0.537,-0.862 1.279,-1.544 2.083,-2.156 1.946,-1.48 4.149,-2.433 6.471,-3.138 1.778,-0.54 3.599,-0.846 5.459,-0.816 2.016,0.033 3.952,0.433 5.724,1.44 1.63,0.927 2.711,2.299 3.227,4.105 0.151,0.526 0.142,0.8 -0.004,1.341 -0.437,0 -0.888,0 -1.37,0 0.013,-0.089 0.005,-0.174 0.038,-0.237 0.717,-1.412 0.105,-3.04 -0.913,-3.865 -0.493,-0.399 -1.051,-0.748 -1.629,-1.006 -1.635,-0.731 -3.375,-0.901 -5.135,-0.709 -3.331,0.365 -6.477,1.351 -9.411,2.98 -1.022,0.568 -1.968,1.248 -2.785,2.094 -0.477,0.495 -0.888,1.037 -1.152,1.679 -0.52,1.261 -0.269,2.534 0.693,3.497 0.815,0.814 1.835,1.217 2.94,1.416 1.2,0.218 2.399,0.208 3.577,-0.158 0.096,-0.03 0.193,-0.057 0.292,-0.068 0.785,-0.097 1.192,0.25 1.179,1.045 -0.007,0.46 -0.083,0.919 -0.121,1.378 -0.014,0.151 -0.003,0.304 -0.003,0.571 z"
       id="path9"
       inkscape:connector-curvature="0" /><!--<path class="st1" d="M63.959,126.09c-0.01-1.033,0.779-1.844,1.808-1.858c1.051-0.016,1.902,0.814,1.893,1.849
		c-0.007,1.007-0.847,1.845-1.853,1.845C64.789,127.925,63.968,127.108,63.959,126.09z"/>
	--><path
       class="st1"
       d="m 76.763,97.277 c 0.009,1.034 -0.78,1.854 -1.803,1.872 -1.044,0.017 -1.901,-0.823 -1.894,-1.856 0.007,-1.009 0.839,-1.843 1.848,-1.85 1.007,-0.009 1.839,0.817 1.849,1.834 z"
       id="path11"
       inkscape:connector-curvature="0" /><path
       class="st1"
       d="m 60.579,97.323 c 1.037,-0.011 1.851,0.763 1.882,1.79 0.032,1.029 -0.812,1.885 -1.856,1.885 -1.033,0 -1.829,-0.793 -1.833,-1.828 -0.005,-1.048 0.765,-1.836 1.807,-1.847 z"
       id="path13"
       inkscape:connector-curvature="0" /><path
       class="st1"
       d="m 157.563,71.03 c -0.224,-1.36 -0.434,-2.624 -0.646,-3.922 0.154,-0.056 0.276,-0.123 0.406,-0.142 4.04,-0.658 8.083,-1.307 12.124,-1.962 4.081,-0.662 8.163,-1.328 12.241,-1.993 1.764,-0.288 3.525,-0.581 5.291,-0.858 0.803,-0.126 1.572,0.015 2.25,0.464 0.364,0.242 0.73,0.519 1.001,0.856 1.442,1.793 2.036,3.838 1.71,6.131 -0.025,0.178 -0.074,0.353 -0.123,0.526 -0.26,0.9 -0.261,0.9 -1.183,0.9 -10.745,0 -21.494,0 -32.241,0 -0.257,0 -0.514,0 -0.83,0 z"
       id="path15"
       inkscape:connector-curvature="0" /><path
       class="st1"
       d="m 239.247,121.185 c -0.033,0.485 -0.031,0.885 -0.096,1.271 -0.062,0.376 -0.154,0.755 -0.297,1.105 -0.693,1.677 -1.118,3.433 -1.56,5.184 -0.235,0.93 -0.397,1.891 -0.462,2.847 -0.128,1.895 -0.613,3.677 -1.449,5.371 -1.285,2.599 -2.804,5.062 -4.452,7.438 -0.476,0.684 -1.098,1.281 -1.72,1.844 -0.844,0.765 -1.865,0.879 -2.939,0.571 -1.006,-0.289 -1.845,-0.861 -2.68,-1.571 0.613,-1.416 0.887,-2.9 0.805,-4.58 0.305,0.173 0.531,0.249 0.688,0.398 0.349,0.329 0.669,0.691 0.993,1.047 0.351,0.385 0.681,0.793 1.047,1.162 0.288,0.288 0.645,0.474 1.061,0.529 0.71,0.088 1.303,-0.127 1.623,-0.775 0.245,-0.496 0.455,-1.04 0.531,-1.582 0.092,-0.648 0.043,-1.322 0.019,-1.983 -0.021,-0.566 -0.358,-0.946 -0.881,-1.098 -0.458,-0.133 -0.939,-0.224 -1.414,-0.241 -0.862,-0.033 -1.729,0.012 -2.592,0.003 -0.334,-0.005 -0.668,-0.064 -1.022,-0.1 0,-0.963 0,-1.855 0,-2.804 1.007,0.128 1.894,-0.206 2.799,-0.466 0.362,-0.104 0.749,-0.129 1.125,-0.173 0.584,-0.07 1.016,0.154 1.282,0.687 0.196,0.395 0.405,0.785 0.609,1.176 0.169,0.319 0.331,0.643 0.521,0.952 0.108,0.179 0.262,0.334 0.411,0.519 0.449,-0.265 0.674,-0.606 0.643,-1.063 -0.019,-0.314 -0.079,-0.642 -0.193,-0.933 -0.284,-0.723 -0.731,-1.339 -1.346,-1.822 -0.396,-0.31 -0.811,-0.593 -1.208,-0.899 -0.335,-0.256 -0.668,-0.518 -0.982,-0.797 -0.349,-0.311 -0.49,-0.676 -0.412,-1.179 0.158,-0.989 0.531,-1.889 0.973,-2.773 0.312,-0.629 0.632,-1.256 0.913,-1.897 0.217,-0.495 0.377,-1.014 0.336,-1.606 -0.338,-0.027 -0.545,0.176 -0.692,0.396 -0.234,0.349 -0.466,0.711 -0.607,1.103 -0.443,1.211 -0.988,2.37 -1.598,3.505 -0.178,0.335 -0.316,0.693 -0.452,1.049 -0.25,0.645 -0.142,1.221 0.351,1.719 0.128,0.129 0.261,0.262 0.347,0.416 0.119,0.218 0.2,0.457 0.323,0.752 -0.911,0.236 -1.729,0.397 -2.572,0.26 -0.154,-0.025 -0.332,-0.155 -0.416,-0.289 -0.27,-0.439 -0.272,-0.914 -0.054,-1.382 0.067,-0.144 0.16,-0.281 0.267,-0.398 1.103,-1.213 1.541,-2.709 1.8,-4.269 0.216,-1.277 0.224,-2.562 0.023,-3.844 -0.016,-0.094 -0.046,-0.188 -0.069,-0.277 -0.499,0.007 -0.632,0.097 -0.688,0.477 -0.018,0.117 -0.022,0.244 0,0.357 0.19,0.913 0.059,1.81 -0.181,2.684 -0.266,0.966 -0.589,1.916 -0.901,2.868 -0.056,0.177 -0.164,0.338 -0.347,0.475 0,-3.965 0,-7.93 0,-11.982 0.229,0.08 0.427,0.145 0.623,0.219 1.968,0.756 3.938,1.508 5.991,2.014 1.741,0.428 3.506,0.714 5.307,0.651 0.739,-0.024 1.478,-0.119 2.218,-0.186 0.176,-0.022 0.353,-0.045 0.653,-0.08 z m -9.253,6.893 c 1.515,0.54 2.98,1.064 4.452,1.589 0.345,-0.664 0.263,-1.271 -0.312,-1.823 -0.755,-0.722 -1.677,-1.027 -2.708,-0.912 -0.656,0.071 -1.175,0.385 -1.432,1.146 z m 1.07,-4.523 c -0.243,0.965 -0.009,1.424 0.868,1.705 0.362,0.117 0.736,0.211 1.11,0.273 1.143,0.185 2.062,0.632 2.434,1.845 0.126,0.407 0.462,0.581 0.895,0.536 0.214,-0.878 0.015,-1.589 -0.69,-2.088 -0.45,-0.322 -0.969,-0.567 -1.484,-0.778 -1.072,-0.432 -2.22,-0.695 -3.133,-1.493 z"
       id="path17"
       inkscape:connector-curvature="0" /><path
       class="st1"
       d="m 213.529,70.993 c -2.26,0 -4.516,0 -6.879,0 0.343,-0.518 0.606,-0.987 0.94,-1.398 0.446,-0.547 1.073,-0.594 1.708,-0.433 0.307,0.078 0.613,0.21 0.879,0.382 0.888,0.576 1.862,0.928 2.872,1.208 0.168,0.046 0.331,0.109 0.496,0.165 -0.005,0.025 -0.012,0.05 -0.016,0.076 z"
       id="path19"
       inkscape:connector-curvature="0" /><path
       class="st1"
       d="m 154.147,71 c -0.585,0 -1.08,0 -1.647,0 -0.204,-0.995 -0.41,-1.989 -0.627,-3.035 0.526,-0.114 1.008,-0.219 1.562,-0.338 0.307,1.102 0.477,2.199 0.712,3.373 z"
       id="path21"
       inkscape:connector-curvature="0" /><path
       class="st1"
       d="m 136.566,70.9 c 2.063,-0.334 4.127,-0.668 6.237,-1.01 0.067,0.413 0.12,0.738 0.181,1.107 -2.171,0 -4.275,0 -6.38,0 -0.012,-0.032 -0.025,-0.065 -0.038,-0.097 z"
       id="path23"
       inkscape:connector-curvature="0" /><path
       class="st1"
       d="m 146.634,69.062 c 0.567,-0.112 1.052,-0.208 1.592,-0.313 0.153,0.765 0.297,1.482 0.45,2.248 -0.578,0 -1.074,0 -1.649,0 -0.126,-0.623 -0.255,-1.256 -0.393,-1.935 z"
       id="path25"
       inkscape:connector-curvature="0" /><path
       class="st1"
       d="m 204.576,70.874 c 0.181,-0.178 0.336,-0.403 0.551,-0.522 0.192,-0.105 0.449,-0.138 0.675,-0.124 0.204,0.012 0.377,0.166 0.333,0.411 -0.036,0.205 -0.135,0.383 -0.384,0.386 -0.372,0.004 -0.745,10e-4 -1.115,10e-4 -0.02,-0.051 -0.039,-0.102 -0.06,-0.152 z"
       id="path27"
       inkscape:connector-curvature="0" /><path
       class="st1"
       d="m 137.229,126.888 c 0,2.11 0,4.15 0,6.264 1.273,0 2.527,0 3.826,0 0,2.271 0,4.47 0,6.712 -10.642,0 -21.263,0 -31.884,0 -0.123,-0.422 -0.168,-5.6 -0.049,-6.671 1,-0.047 2.019,0.005 3.027,-0.03 0.038,-0.437 -0.875,-3.857 -1.305,-4.906 -3.131,0 -6.277,0 -9.521,0 -0.452,1.591 -0.915,3.216 -1.401,4.924 1.118,0 2.134,0 3.187,0 0,2.258 0,4.456 0,6.689 -5.148,0 -10.266,0 -15.383,0 -0.127,-0.417 -0.174,-5.556 -0.052,-6.675 0.979,-0.051 1.975,0.008 3.018,-0.035 3.375,-10.119 6.744,-20.227 10.117,-30.339 3.541,0 7.033,0 10.594,0 3.366,10.097 6.737,20.204 10.111,30.325 2.119,0 4.204,0 6.283,0 0.133,-0.445 0.16,-22.896 0.024,-23.593 -1.308,0 -2.627,0 -3.93,0 -0.144,-0.476 -0.171,-6.038 -0.042,-6.729 0.167,-0.011 0.343,-0.028 0.519,-0.028 5.889,0 11.778,-0.011 17.667,0.017 1.788,0.01 3.572,0.135 5.323,0.559 4.483,1.081 7.412,4.42 7.917,9.005 0.2,1.801 0.092,3.573 -0.434,5.308 -0.809,2.665 -2.487,4.646 -4.848,6.076 -0.205,0.124 -0.407,0.249 -0.657,0.4 0.146,0.107 0.246,0.195 0.357,0.263 0.863,0.525 1.519,1.236 1.983,2.135 0.883,1.715 1.806,3.411 2.656,5.141 0.495,1.007 1.265,1.461 2.348,1.47 0.459,0.004 0.919,0 1.366,0 0.139,0.472 0.187,5.528 0.071,6.688 -0.142,0.016 -0.295,0.047 -0.449,0.047 -2.029,0.002 -4.058,0.02 -6.089,-0.008 -0.637,-0.011 -1.282,-0.106 -1.908,-0.236 -0.963,-0.199 -1.73,-0.737 -2.289,-1.548 -0.216,-0.314 -0.41,-0.646 -0.587,-0.984 -1.473,-2.81 -2.938,-5.626 -4.408,-8.438 -0.13,-0.248 -0.269,-0.494 -0.424,-0.729 -0.299,-0.453 -0.721,-0.755 -1.245,-0.895 -1.138,-0.312 -2.297,-0.157 -3.489,-0.179 z m 10e-4,-7.289 c 0.237,0.013 0.432,0.033 0.628,0.034 0.784,0.002 1.567,0.011 2.353,-10e-4 0.742,-0.015 1.488,-0.014 2.226,-0.092 1.836,-0.192 3.104,-1.305 3.516,-3.064 0.24,-1.03 0.244,-2.069 0.06,-3.112 -0.285,-1.617 -1.233,-2.613 -2.817,-3.015 -0.117,-0.03 -0.232,-0.068 -0.351,-0.09 -1.815,-0.312 -3.645,-0.206 -5.472,-0.181 -0.035,0 -0.068,0.035 -0.141,0.075 -0.002,3.106 -0.002,6.233 -0.002,9.446 z m -31.127,-9.131 c -0.489,3.653 -1.894,7.062 -2.74,10.616 0.591,0.138 4.94,0.13 5.446,-0.006 -0.844,-3.541 -2.177,-6.957 -2.706,-10.61 z"
       id="path29"
       inkscape:connector-curvature="0" /><path
       class="st1"
       d="m 189.631,126.78 c 2.751,0 5.454,0 8.194,0 0.018,0.182 0.046,0.334 0.047,0.488 0.008,0.643 0.019,1.286 0,1.93 -0.03,1.076 0.471,1.84 1.367,2.377 0.756,0.448 1.582,0.687 2.445,0.802 1.324,0.179 2.648,0.187 3.943,-0.182 0.478,-0.137 0.956,-0.331 1.373,-0.595 1.396,-0.886 1.659,-2.603 0.571,-3.852 -0.375,-0.43 -0.849,-0.809 -1.347,-1.09 -0.749,-0.424 -1.542,-0.779 -2.342,-1.099 -1.585,-0.632 -3.193,-1.203 -4.782,-1.827 -1.479,-0.582 -2.91,-1.269 -4.225,-2.171 -2.047,-1.403 -3.504,-3.235 -4.076,-5.692 -0.513,-2.197 -0.462,-4.39 0.215,-6.545 0.819,-2.604 2.569,-4.404 4.99,-5.587 1.609,-0.783 3.321,-1.209 5.088,-1.408 3.044,-0.342 6.056,-0.151 9.012,0.701 1.162,0.333 2.273,0.795 3.301,1.443 0.736,0.463 1.401,1.011 1.935,1.706 0.63,0.816 1.041,1.73 1.055,2.768 0.031,1.848 0.015,3.697 0.016,5.544 0,0.079 -0.025,0.156 -0.044,0.268 -2.729,0 -5.449,0 -8.25,0 0,-0.623 -0.032,-1.221 0.006,-1.815 0.076,-1.162 -0.32,-1.799 -1.562,-2.267 -1.606,-0.606 -3.272,-0.647 -4.914,-0.168 -1.837,0.539 -2.415,2.37 -1.288,3.931 0.421,0.582 0.969,1.032 1.6,1.349 0.88,0.441 1.771,0.856 2.686,1.215 1.606,0.63 3.241,1.189 4.85,1.815 1.313,0.512 2.566,1.15 3.732,1.948 1.881,1.285 3.328,2.92 3.928,5.163 1.111,4.132 0.296,10.015 -5.707,12.893 -1.907,0.913 -3.924,1.399 -6.022,1.597 -2.686,0.257 -5.337,0.072 -7.94,-0.643 -1.658,-0.456 -3.224,-1.126 -4.616,-2.156 -1.459,-1.082 -2.568,-2.432 -3.018,-4.227 -0.149,-0.601 -0.229,-1.229 -0.245,-1.844 -0.034,-1.468 -0.012,-2.936 -0.009,-4.402 -0.002,-0.097 0.015,-0.198 0.033,-0.368 z"
       id="path31"
       inkscape:connector-curvature="0" /><path
       class="st1"
       d="m 190.182,102.822 c 0,4.162 0,8.275 0,12.382 -0.458,0.121 -7.046,0.144 -7.763,0.018 0,-0.843 0,-1.701 0,-2.56 0,-0.841 0,-1.684 0,-2.568 -1.483,0 -2.917,0 -4.384,0 0,7.693 0,15.343 0,23.062 1.359,0 2.696,0 4.074,0 0,2.268 0,4.465 0,6.707 -5.825,0 -11.64,0 -17.498,0 0,-2.214 0,-4.411 0,-6.678 1.354,0 2.694,0 4.071,0 0,-7.716 0,-15.365 0,-23.017 -0.396,-0.146 -3.435,-0.189 -4.374,-0.049 -0.03,0.836 -0.009,1.692 -0.014,2.545 -0.003,0.846 -0.001,1.688 -0.001,2.519 -0.445,0.142 -6.993,0.177 -7.734,0.046 0,-4.123 0,-8.25 0,-12.407 11.213,0 22.381,0 33.623,0 z"
       id="path33"
       inkscape:connector-curvature="0" /><path
       class="st1"
       d="m 152.678,83.579 c -0.607,0 -1.185,0 -1.814,0 0,-0.392 0,-0.741 0,-1.146 0.123,-0.015 0.273,-0.049 0.426,-0.05 2.131,-0.004 4.261,-0.019 6.391,0.009 0.577,0.007 1.166,0.09 1.723,0.235 1.396,0.359 2.254,1.277 2.543,2.686 0.171,0.835 0.157,1.683 -0.1,2.505 -0.399,1.274 -1.225,2.146 -2.516,2.549 -0.132,0.041 -0.264,0.088 -0.433,0.146 0.227,0.363 0.453,0.708 0.661,1.063 0.703,1.193 1.411,2.386 2.094,3.592 0.245,0.435 0.57,0.639 1.069,0.628 0.762,-0.017 1.523,-0.004 2.369,-0.004 0.324,-4.068 0.646,-8.1 0.977,-12.214 -0.664,0 -1.257,0 -1.884,0 0,-0.427 0,-0.777 0,-1.162 1.169,0 2.305,0 3.487,0 1.506,3.399 3.018,6.812 4.546,10.266 1.52,-3.424 3.027,-6.827 4.551,-10.263 1.154,0 2.307,0 3.49,0 0,0.382 0,0.732 0,1.155 -0.627,0 -1.217,0 -1.888,0 0.32,4.11 0.638,8.143 0.958,12.223 0.649,0 1.227,0 1.854,0 0,0.401 0,0.751 0,1.147 -1.689,0 -3.385,0 -5.124,0 0,-0.357 0,-0.708 0,-1.141 0.594,0 1.184,0 1.838,0 -0.282,-3.625 -0.556,-7.164 -0.837,-10.781 -1.398,3.083 -2.767,6.104 -4.149,9.147 -0.452,0 -0.889,0 -1.383,0 -1.384,-3.036 -2.777,-6.096 -4.171,-9.154 -0.274,3.559 -0.55,7.12 -0.831,10.767 0.627,0 1.216,0 1.836,0 0,0.433 0,0.782 0,1.17 -0.201,0.013 -0.377,0.034 -0.553,0.034 -1.807,10e-4 -3.616,10e-4 -5.426,0 -0.16,0 -0.319,-0.01 -0.481,-0.012 -0.595,-0.007 -1.033,-0.27 -1.33,-0.787 -0.401,-0.696 -0.812,-1.387 -1.218,-2.081 -0.478,-0.815 -0.966,-1.624 -1.423,-2.449 -0.327,-0.586 -0.788,-0.878 -1.465,-0.863 -0.739,0.017 -1.479,0.005 -2.253,0.005 0,1.679 0,3.295 0,4.984 0.611,0 1.203,0 1.831,0 0,0.422 0,0.772 0,1.163 -1.729,0 -3.446,0 -5.196,0 0,-0.372 0,-0.722 0,-1.137 0.616,0 1.209,0 1.784,0 0.13,-0.49 0.168,-11.317 0.047,-12.23 z m 1.531,0.12 c 0,1.924 0,3.843 0,5.794 0.164,0.016 0.297,0.041 0.434,0.041 1.023,0.003 2.048,0.014 3.068,-0.001 1.5,-0.021 2.562,-0.896 2.811,-2.38 0.337,-2.007 -0.628,-3.342 -2.439,-3.463 -1.257,-0.084 -2.522,-0.048 -3.782,-0.063 -0.017,-10e-4 -0.031,0.022 -0.092,0.072 z"
       id="path35"
       inkscape:connector-curvature="0" /><path
       class="st1"
       d="m 190.937,95.808 c 0.686,0 1.28,0 1.905,0 0,0.411 0,0.759 0,1.146 -1.745,0 -3.464,0 -5.219,0 0,-0.37 0,-0.721 0,-1.139 0.604,0 1.197,0 1.771,0 0.131,-0.496 0.166,-11.36 0.046,-12.219 -0.578,0 -1.168,0 -1.808,0 0,-0.418 0,-0.769 0,-1.192 0.535,-0.05 1.093,-0.016 1.646,-0.022 0.541,-0.006 1.084,-0.002 1.639,-0.002 2.857,4.027 5.703,8.039 8.532,12.027 0.109,-0.357 0.154,-9.768 0.03,-10.818 -0.598,0 -1.205,0 -1.85,0 0,-0.432 0,-0.782 0,-1.17 1.741,0 3.457,0 5.216,0 0,0.363 0,0.714 0,1.132 -0.597,0 -1.19,0 -1.867,0 -0.022,1.544 -0.007,3.022 -0.008,4.501 -0.006,1.467 -0.005,2.935 -0.005,4.4 0,1.484 0,2.968 0,4.532 -0.439,0 -0.834,0.011 -1.225,-0.008 -0.103,-0.005 -0.218,-0.087 -0.299,-0.164 -0.098,-0.097 -0.165,-0.227 -0.247,-0.341 -2.501,-3.521 -5.002,-7.044 -7.501,-10.568 -0.229,-0.324 -0.438,-0.661 -0.708,-0.989 -0.05,3.599 -0.047,7.195 -0.048,10.894 z"
       id="path37"
       inkscape:connector-curvature="0" /><path
       class="st1"
       d="m 114.313,83.575 c -0.604,0 -1.182,0 -1.806,0 0,-0.396 0,-0.746 0,-1.152 0.157,-0.013 0.33,-0.04 0.502,-0.04 2.071,-0.003 4.141,-0.019 6.211,0.008 0.596,0.007 1.206,0.083 1.785,0.227 1.394,0.347 2.264,1.248 2.568,2.659 0.189,0.879 0.163,1.758 -0.12,2.618 -0.403,1.229 -1.212,2.06 -2.449,2.461 -0.15,0.05 -0.3,0.101 -0.441,0.148 0.932,1.59 1.858,3.162 2.773,4.739 0.213,0.367 0.504,0.556 0.93,0.548 0.159,-0.003 0.319,0.018 0.529,0.03 0,0.359 0,0.709 0,1.133 -0.61,0.047 -1.24,0.101 -1.86,-0.097 -0.416,-0.132 -0.625,-0.487 -0.829,-0.836 -0.762,-1.3 -1.521,-2.601 -2.281,-3.903 -0.766,-1.312 -0.777,-1.32 -2.282,-1.32 -0.542,0 -1.083,0 -1.612,0 -0.134,0.459 -0.177,3.833 -0.065,4.965 0.579,0 1.168,0 1.805,0 0,0.425 0,0.775 0,1.212 -1.705,0.026 -3.419,0.007 -5.173,0.013 0,-0.404 0,-0.755 0,-1.174 0.601,0 1.194,0 1.767,0 0.134,-0.492 0.171,-11.339 0.048,-12.239 z m 1.542,5.918 c 0.184,0.016 0.337,0.04 0.493,0.041 0.982,0.004 1.964,0.01 2.947,0 1.584,-0.018 2.666,-0.933 2.889,-2.499 0.242,-1.712 -0.478,-3.19 -2.458,-3.346 -1.235,-0.096 -2.481,-0.057 -3.722,-0.075 -0.051,0 -0.101,0.053 -0.148,0.08 -10e-4,1.93 -10e-4,3.848 -10e-4,5.799 z"
       id="path39"
       inkscape:connector-curvature="0" /><path
       class="st1"
       d="m 142.79,82.126 c 4.188,-0.001 7.463,3.263 7.476,7.449 0.013,4.284 -3.291,7.659 -7.494,7.656 -4.168,-0.002 -7.429,-3.358 -7.427,-7.643 0.002,-4.207 3.25,-7.461 7.445,-7.462 z m -0.057,13.798 c 1.628,-0.025 2.989,-0.558 4.088,-1.658 1.642,-1.644 2.192,-3.65 1.808,-5.917 -0.421,-2.487 -2.383,-4.407 -4.908,-4.842 -2.386,-0.412 -4.837,0.776 -6.065,2.939 -1.352,2.382 -1,5.528 0.871,7.573 1.144,1.251 2.578,1.88 4.206,1.905 z"
       id="path41"
       inkscape:connector-curvature="0" /><path
       class="st1"
       d="m 216.385,86.569 c -0.5,0 -0.898,0 -1.382,0 -0.006,-0.282 -0.039,-0.555 -0.017,-0.824 0.061,-0.738 -0.308,-1.218 -0.901,-1.574 -0.578,-0.346 -1.212,-0.529 -1.869,-0.636 -1.041,-0.17 -2.083,-0.165 -3.108,0.102 -2.379,0.62 -4.04,2.603 -4.279,5.111 -0.108,1.131 -0.049,2.25 0.361,3.325 0.842,2.206 2.448,3.487 4.78,3.807 1.226,0.168 2.449,0.035 3.627,-0.365 0.374,-0.127 0.739,-0.318 1.072,-0.533 0.45,-0.288 0.685,-0.716 0.677,-1.27 -0.011,-0.7 -0.004,-1.399 -0.004,-2.172 -1.018,0 -1.988,0 -3.001,0 0,-0.421 0,-0.771 0,-1.167 1.436,0 2.868,0 4.34,0 0.014,0.193 0.034,0.37 0.035,0.546 0.004,0.983 -0.018,1.969 0.008,2.953 0.023,0.958 -0.391,1.657 -1.167,2.172 -0.784,0.52 -1.659,0.797 -2.573,0.977 -1.581,0.311 -3.159,0.352 -4.702,-0.171 -2.739,-0.928 -4.338,-2.867 -4.883,-5.683 -0.266,-1.386 -0.164,-2.764 0.272,-4.106 0.899,-2.764 3.341,-4.67 6.264,-4.9 1.5,-0.118 2.968,0.025 4.376,0.594 0.564,0.227 1.088,0.518 1.515,0.963 0.363,0.379 0.561,0.824 0.56,1.355 -0.003,0.478 -0.001,0.956 -0.001,1.496 z"
       id="path43"
       inkscape:connector-curvature="0" /><path
       class="st1"
       d="m 101.026,95.804 c 0.613,0 1.19,0 1.75,0 0.146,-0.465 0.196,-11.148 0.063,-12.198 -0.577,0 -1.166,0 -1.807,0 0,-0.42 0,-0.771 0,-1.211 3.395,-0.028 6.812,-0.013 10.264,-0.009 0,1.02 0,1.974 0,2.967 -0.417,0 -0.809,0 -1.266,0 -0.024,-0.574 -0.048,-1.142 -0.072,-1.733 -1.877,0 -3.699,0 -5.513,0 -0.121,0.454 -0.158,4.424 -0.047,5.379 1.786,0.04 3.585,-0.004 5.434,0.025 0,0.392 0,0.758 0,1.196 -1.796,0 -3.593,0 -5.37,0 -0.137,0.491 -0.175,4.633 -0.063,5.501 1.969,0 3.943,0 5.992,0 0,-0.608 0,-1.2 0,-1.825 0.461,0 0.851,0 1.275,0 0,1.024 0,2.018 0,3.053 -3.545,0 -7.07,0 -10.64,0 0,-0.352 0,-0.703 0,-1.145 z"
       id="path45"
       inkscape:connector-curvature="0" /><path
       class="st1"
       d="m 91.025,83.575 c -0.603,0 -1.18,0 -1.805,0 0,-0.396 0,-0.746 0,-1.153 0.155,-0.012 0.328,-0.038 0.5,-0.038 2.15,-0.003 4.301,-0.014 6.45,0.006 0.519,0.005 1.054,0.044 1.549,0.185 1.608,0.452 2.534,1.569 2.85,3.182 0.167,0.854 0.133,1.721 -0.132,2.563 -0.547,1.731 -1.92,2.776 -3.834,2.855 -1.104,0.046 -2.21,0.021 -3.315,0.027 -0.218,0.001 -0.437,0 -0.641,0 -0.145,0.46 -0.179,3.763 -0.048,4.584 0.578,0 1.171,0 1.805,0 0,0.417 0,0.766 0,1.161 -1.722,0 -3.437,0 -5.191,0 0,-0.362 0,-0.713 0,-1.131 0.603,0 1.196,0 1.771,0 0.129,-0.496 0.164,-11.357 0.041,-12.241 z m 1.54,6.404 c 1.377,-0.034 2.717,0.098 4.053,-0.088 1.451,-0.203 2.353,-1.116 2.543,-2.56 0.039,-0.296 0.042,-0.603 0.022,-0.902 -0.085,-1.297 -0.831,-2.586 -2.476,-2.721 -1.336,-0.108 -2.684,-0.068 -4.027,-0.091 -0.033,0 -0.066,0.04 -0.115,0.072 0,2.068 0,4.145 0,6.29 z"
       id="path47"
       inkscape:connector-curvature="0" /><path
       class="st1"
       d="m 126.921,83.57 c -0.577,0 -1.169,0 -1.796,0 0,-0.417 0,-0.768 0,-1.153 3.251,0 6.476,0 9.786,0 0.017,1.006 0.017,1.998 -0.003,3.032 -0.417,0 -0.789,0 -1.244,0 0,-0.565 0,-1.135 0,-1.676 -0.52,-0.167 -4.58,-0.188 -5.182,-0.045 0,1.776 0,3.56 0,5.422 1.749,0.035 3.486,-0.002 5.265,0.022 0,0.412 0,0.783 0,1.234 -1.732,0.031 -3.47,-0.002 -5.249,0.02 0,1.785 0,3.524 0,5.347 0.634,0 1.282,0 1.968,0 0,0.434 0,0.783 0,1.175 -1.773,0 -3.529,0 -5.333,0 -0.015,-0.174 -0.035,-0.346 -0.042,-0.519 -0.007,-0.18 -0.002,-0.359 -0.002,-0.606 0.634,0 1.227,0 1.796,0 0.164,-0.491 0.19,-11.582 0.036,-12.253 z"
       id="path49"
       inkscape:connector-curvature="0" /><path
       class="st1"
       d="m 186.847,82.423 c 0,0.387 0,0.724 0,1.129 -0.612,0 -1.206,0 -1.78,0 -0.138,0.492 -0.176,11.332 -0.053,12.218 0.578,0 1.169,0 1.807,0 0,0.421 0,0.771 0,1.127 -0.407,0.115 -4.068,0.159 -5.196,0.05 -0.014,-0.16 -0.03,-0.332 -0.038,-0.502 -0.007,-0.18 -10e-4,-0.36 -10e-4,-0.628 0.637,0 1.244,0 1.885,0 0,-4.115 0,-8.142 0,-12.235 -0.62,0 -1.212,0 -1.845,0 0,-0.417 0,-0.766 0,-1.159 1.728,0 3.444,0 5.221,0 z"
       id="path51"
       inkscape:connector-curvature="0" /><path
       class="st1"
       d="m 229.994,128.078 c 0.257,-0.761 0.775,-1.075 1.432,-1.146 1.031,-0.115 1.953,0.19 2.708,0.912 0.575,0.552 0.657,1.159 0.312,1.823 -1.471,-0.524 -2.937,-1.049 -4.452,-1.589 z"
       id="path53"
       inkscape:connector-curvature="0" /><path
       class="st1"
       d="m 231.064,123.555 c 0.912,0.798 2.061,1.062 3.132,1.493 0.516,0.211 1.034,0.456 1.484,0.778 0.705,0.499 0.904,1.21 0.69,2.088 -0.433,0.045 -0.769,-0.129 -0.895,-0.536 -0.372,-1.213 -1.291,-1.66 -2.434,-1.845 -0.374,-0.062 -0.748,-0.156 -1.11,-0.273 -0.875,-0.281 -1.11,-0.74 -0.867,-1.705 z"
       id="path55"
       inkscape:connector-curvature="0" /><path
       class="st1"
       d="m 137.23,119.599 c 0,-3.213 0,-6.34 0,-9.445 0.073,-0.04 0.106,-0.075 0.141,-0.075 1.827,-0.025 3.656,-0.132 5.472,0.181 0.119,0.021 0.234,0.06 0.351,0.09 1.584,0.401 2.533,1.397 2.817,3.015 0.185,1.043 0.181,2.082 -0.06,3.112 -0.412,1.76 -1.679,2.872 -3.516,3.064 -0.738,0.078 -1.484,0.077 -2.226,0.092 -0.785,0.012 -1.569,0.003 -2.353,0.001 -0.194,-0.002 -0.389,-0.023 -0.626,-0.035 z"
       id="path57"
       inkscape:connector-curvature="0" /><path
       class="st1"
       d="m 106.103,110.468 c 0.53,3.653 1.863,7.069 2.706,10.61 -0.506,0.136 -4.855,0.144 -5.446,0.006 0.845,-3.554 2.251,-6.963 2.74,-10.616 z"
       id="path59"
       inkscape:connector-curvature="0" /><path
       class="st1"
       d="m 154.209,83.699 c 0.061,-0.05 0.075,-0.072 0.091,-0.072 1.26,0.015 2.525,-0.021 3.782,0.063 1.812,0.121 2.776,1.456 2.439,3.463 -0.249,1.484 -1.311,2.358 -2.811,2.38 -1.021,0.015 -2.045,0.004 -3.068,0.001 -0.137,0 -0.27,-0.025 -0.434,-0.041 0.001,-1.951 0.001,-3.87 0.001,-5.794 z"
       id="path61"
       inkscape:connector-curvature="0" /><path
       class="st1"
       d="m 115.855,89.493 c 0,-1.952 0,-3.869 0,-5.799 0.047,-0.026 0.098,-0.08 0.148,-0.08 1.241,0.018 2.486,-0.021 3.722,0.075 1.98,0.155 2.7,1.634 2.458,3.346 -0.223,1.566 -1.305,2.481 -2.889,2.499 -0.982,0.01 -1.964,0.004 -2.947,0 -0.155,-0.001 -0.308,-0.025 -0.492,-0.041 z"
       id="path63"
       inkscape:connector-curvature="0" /><path
       class="st1"
       d="m 142.733,95.924 c -1.628,-0.025 -3.062,-0.654 -4.206,-1.904 -1.871,-2.045 -2.223,-5.191 -0.871,-7.573 1.228,-2.163 3.679,-3.351 6.065,-2.939 2.525,0.435 4.487,2.355 4.908,4.842 0.385,2.267 -0.166,4.273 -1.808,5.917 -1.099,1.099 -2.46,1.631 -4.088,1.657 z"
       id="path65"
       inkscape:connector-curvature="0" /><path
       class="st1"
       d="m 92.565,89.979 c 0,-2.145 0,-4.222 0,-6.289 0.049,-0.033 0.082,-0.073 0.115,-0.072 1.343,0.022 2.691,-0.017 4.027,0.091 1.645,0.134 2.391,1.424 2.476,2.721 0.02,0.3 0.017,0.606 -0.022,0.902 -0.191,1.444 -1.093,2.357 -2.543,2.56 -1.335,0.184 -2.676,0.053 -4.053,0.087 z"
       id="path67"
       inkscape:connector-curvature="0" /></g><path
     class="st1"
     d="m 309.2174,149.89201 c 0,2.821 -2.287,5.108 -5.108,5.108 l -261.784002,0 c -2.821,0 -5.108,-2.287 -5.108,-5.108 l 0,-144.7840031 c 0,-2.821 2.287,-5.1080000454655 5.108,-5.1080000454655 l 261.783002,0 c 2.821,0 5.108,2.2870000454655 5.108,5.1080000454655 l 0,144.7840031 z"
     id="path69"
     inkscape:connector-curvature="0" /></svg>