<?xml version="1.0" encoding="utf-8"?>
<!-- Generator: Adobe Illustrator 16.0.0, SVG Export Plug-In . SVG Version: 6.00 Build 0)  -->
<!DOCTYPE svg PUBLIC "-//W3C//DTD SVG 1.1//EN" "http://www.w3.org/Graphics/SVG/1.1/DTD/svg11.dtd">
<svg version="1.1" id="Layer_1" xmlns="http://www.w3.org/2000/svg" xmlns:xlink="http://www.w3.org/1999/xlink" x="0px" y="0px"
	 width="800px" height="600px" viewBox="0 0 800 600" style="enable-background:new 0 0 800 600;" xml:space="preserve">
<style type="text/css">
<![CDATA[
	.st0{fill:none;stroke:#FFFFFF;stroke-miterlimit:10;}
	.st1{fill-rule:evenodd;clip-rule:evenodd;fill:none;stroke:#FFFFFF;stroke-width:0.5;stroke-miterlimit:10;}
	.st2{fill:none;stroke:#FFFFFF;stroke-width:0.5;stroke-miterlimit:10;}
]]>
</style>
<g>
	<path class="st2" d="M313.53,422.112c0.792-0.598,1.48-1.253,1.573-2.335c0.136-1.566-0.582-2.366-2.148-2.358
		c-0.064,0-0.129-0.057-0.262-0.119c-0.271-0.792-0.559-1.633-0.885-2.585c1.55-0.493,3.013-0.959,4.582-1.459
		c0.329,0.92,0.626,1.751,0.919,2.571c-0.292,0.259-0.579,0.409-0.704,0.646c-0.192,0.364-0.408,0.797-0.379,1.185
		c0.106,1.475,1.621,2.538,3.127,2.272c1.259-0.221,2.206-1.737,1.926-3.082c-0.258-1.236-0.721-1.597-2.027-1.592
		c-0.098,0.001-0.197-0.057-0.34-0.103c-0.263-0.765-0.528-1.54-0.835-2.435c10.364-3.256,20.648-6.487,30.99-9.736
		c0.206,0.364,0.36,0.686,0.558,0.978c1.047,1.556,1.984,3.205,3.184,4.635c3.676,4.383,8.429,6.541,14.165,6.561
		c4.288,0.014,8.195-1.209,11.761-3.535c1.391-0.908,2.727-1.903,4.05-2.908c1.48-1.122,3.027-1.481,4.753-0.629
		c0.054,0.026,0.137-0.009,0.285-0.022c0.183-0.234,0.397-0.508,0.591-0.755c-0.202-0.406-0.375-0.725-0.521-1.054
		c-0.762-1.727-0.488-3.045,0.968-4.258c0.606-0.505,1.274-0.965,1.979-1.315c4.058-2.021,8.384-2.887,12.896-2.794
		c1.482,0.031,2.955,0.253,4.316,0.916c1.828,0.891,2.664,2.401,2.438,4.405c-0.029,0.245-0.07,0.487-0.117,0.799
		c0.35,0.123,0.672,0.236,0.961,0.339c0.328-0.331,0.57-0.603,0.838-0.841c1.371-1.218,2.934-1.816,4.789-1.454
		c0.461,0.089,0.924,0.165,1.387,0.238c2.104,0.335,4.193,0.785,6.311,0.979c5.043,0.462,9.764-0.727,14.166-3.167
		c2.863-1.587,5.15-3.835,6.965-6.552c0.338-0.509,0.691-0.794,1.314-0.711c0.283,0.039,0.578,0.007,0.867,0.007
		c21.979,0,43.957,0.001,65.934-0.006c0.902-0.001,1.814-0.018,2.703-0.146c4.754-0.69,8.514-3.034,11.33-6.912
		c0.486-0.671,0.789-0.789,1.547-0.479c0.43,0.176,0.82,0.453,1.205,0.72c0.592,0.411,1.168,0.849,1.748,1.28
		c1.988,1.487,4.029,1.527,6.184,0.339c2.766-1.524,5.209-3.383,6.84-6.158c0.349-0.591,0.751-1.15,1.104-1.739
		c3.137-5.211,5.809-10.655,8.074-16.297c0.43-1.064,0.729-2.194,0.961-3.32c1.229-5.941,2.424-11.89,3.615-17.839
		c0.303-1.522,0.65-3.045,0.811-4.585c0.342-3.275-2.465-5.897-5.621-5.329c-0.256,0.422-0.08,0.718,0.266,1.009
		c0.355,0.301,0.713,0.618,1.002,0.983c0.98,1.239,0.768,2.419-0.67,3.103c-0.795,0.38-1.705,0.593-2.586,0.709
		c-1.744,0.229-3.451-0.156-5.145-0.55c-5.185-1.206-10.183-2.988-15.147-4.874c-1.172-0.446-1.174-0.451-1.174-1.701
		c-0.004-12.58-0.002-25.159,0-37.74c0-0.344,0.037-0.69,0.066-1.247c0.414,0.396,0.701,0.61,0.912,0.884
		c1.035,1.343,2.188,2.621,3.037,4.075c1.072,1.831,1.893,3.811,2.82,5.725c0.471,0.974,0.875,1.987,1.436,2.906
		c0.617,1.009,1.533,1.701,2.77,1.936c0.117-0.18,0.236-0.316,0.305-0.477c0.354-0.83,0.355-1.688,0.15-2.552
		c-0.404-1.71-1.182-3.259-2.119-4.725c-0.836-1.308-1.736-2.577-2.604-3.865c-1.076-1.592-2.051-3.24-2.623-5.087
		c-0.221-0.709-0.369-1.44-0.51-2.002c1.334-0.696,2.523-1.284,3.678-1.934c0.604-0.34,1.094-0.434,1.797-0.129
		c2.842,1.232,5.894,0.492,7.722-1.8c0.387,0.224,0.779,0.452,1.061,0.613c0.939-0.509,1.777-0.962,2.652-1.436
		c-0.148-0.237-0.338-0.498-0.484-0.781c-0.273-0.533-0.174-0.811,0.395-0.989c0.375-0.116,0.783-0.122,1.168-0.215
		c0.225-0.055,0.475-0.135,0.643-0.283c0.43-0.381,0.869-0.77,1.217-1.223c0.318-0.414,0.637-0.89,0.746-1.385
		c0.111-0.497,0.299-0.827,0.686-1.145c1.555-1.274,2.42-3.003,3.158-4.755c-0.361-0.673-0.951-0.777-1.498-0.944
		c-0.48-0.147-0.988-0.235-1.447-0.436c-0.781-0.342-0.816-0.595-0.285-1.277c0.41-0.523,0.406-0.738-0.127-1.15
		c-0.277-0.214-0.619-0.426-0.953-0.468c-0.674-0.086-1.363-0.085-2.043-0.064c-0.83,0.025-1.656,0.117-2.484,0.164
		c-1.094,0.062-2.062-0.292-2.941-0.92c-0.354-0.252-0.684-0.535-1.045-0.776c-2.733-1.827-5.733-2.689-9.022-2.449
		c-0.682,0.049-1.354,0.223-2.033,0.319c-0.865,0.123-1.672-0.089-2.34-0.627c-0.283-0.226-0.578-0.63-0.588-0.961
		c-0.029-1.075,0.275-2.024,1.236-2.713c1.051-0.754,2.096-1.543,3.021-2.442c1.035-1.004,1.951-2.132,2.885-3.237
		c1.867-2.211,4.143-3.795,6.921-4.646c3.629-1.111,6.934-2.893,10.027-5.052c2.844-1.984,5.631-4.055,8.389-6.159
		c0.602-0.46,1.15-1.16,1.416-1.864c0.729-1.935,1.293-3.931,1.936-5.941c-0.646-0.001-1.27,0.583-1.953-0.105
		c0.213-0.395,0.439-0.813,0.77-1.422c-0.404,0.066-0.697,0.024-0.814,0.149c-0.461,0.493-1.004,0.979-1.262,1.578
		c-0.381,0.885-0.59,1.853-0.791,2.803c-0.631,3.014-0.605,3.035-3.352,4.535c-1.617,0.883-3.297,1.653-4.898,2.562
		c-1.094,0.621-2.234,1.259-3.113,2.131c-1.412,1.402-3.039,2.292-4.918,2.817c-1.744,0.486-3.415,1.152-5.019,2.011
		c-0.656,0.353-1.4,0.582-2.135,0.739c-0.721,0.154-1.381-0.085-1.912-0.678c0.602-0.679,1.357-0.859,2.057-1.117
		c0.928-0.342,1.59-0.908,2.064-1.797c0.311-0.583,0.869-1.031,1.299-1.554c0.314-0.381,0.686-0.749,0.879-1.189
		c0.242-0.558,0.546-1.015,1.077-1.303c0.65-0.352,0.928-0.939,0.879-1.62c-0.043-0.634-0.125-1.316-0.398-1.874
		c-0.773-1.571-1.901-2.799-3.669-3.308c-0.479-0.138-0.99-0.317-1.367-0.623c-0.721-0.583-1.49-0.626-2.344-0.517
		c-1.158,0.147-2.092,0.772-3.043,1.357c-0.553,0.341-1.051,0.448-1.709,0.195c-1.205-0.463-2.006-0.111-2.609,1.027
		c-0.219,0.412-0.383,0.859-0.52,1.306c-0.273,0.896-0.512,1.804-0.771,2.739c0.113,0.131,0.236,0.26,0.344,0.401
		c0.109,0.143,0.195,0.304,0.305,0.447c0.449,0.587,0.66,0.648,1.396,0.387c0.305-0.108,0.594-0.283,0.906-0.348
		c0.207-0.043,0.443,0.056,0.723,0.1c-0.385,1.201-0.285,2.306-0.111,3.418c0.141,0.892,0.234,1.792-0.381,2.511
		c-1.404,0.222-2.709,0.155-4.053,0.028c-1.711-0.163-3.461-0.031-5.188,0.083c-2.916,0.193-5.777,0.235-8.412-1.353
		c-0.908-0.548-1.975-0.637-3.025-0.749c-1.324-0.142-2.654-0.307-3.959-0.572c-1.307-0.266-2.58-0.689-3.877-1.005
		c-2.441-0.594-4.623-0.289-6.471,1.645c-0.76,0.795-1.803,1.315-2.697,1.985c-0.576,0.43-1.207,0.833-1.645,1.383
		c-0.387,0.485-0.758,0.664-1.354,0.662c-5.422-0.018-10.846-0.009-16.268-0.014c-0.307,0-0.613-0.052-0.889-0.077
		c-0.039-0.171-0.068-0.24-0.068-0.308c0-0.108,0.008-0.218,0.033-0.323c0.916-4.063,0.086-7.897-1.576-11.601
		c-0.938-2.084-2.311-3.833-4.312-5.022c-0.123-0.074-0.275-0.101-0.416-0.151c0.055-0.09,0.111-0.18,0.166-0.271
		c1.561-0.241,3.125-0.454,4.68-0.729c6.135-1.083,12.309-1.706,18.541-1.706c2.818,0,5.629-0.027,8.428,0.46
		c3.836,0.667,6.662,2.631,8.406,6.128c0.258,0.517,0.529,1.029,0.83,1.522c0.393,0.647,0.773,1.314,1.248,1.898
		c0.406,0.496,0.891,0.96,1.426,1.309c1.094,0.713,1.92,0.501,2.457-0.705c0.404-0.913,0.74-1.902,0.861-2.888
		c0.668-5.437,0.621-10.891,0.158-16.341c-0.395-4.617-1.34-9.146-2.334-13.661c-0.535-2.437-1.242-4.834-2.359-7.076
		c-0.465-0.93-1.008-1.848-1.672-2.643c-1.246-1.493-2.43-1.401-3.477,0.218c-0.445,0.692-0.828,1.451-1.096,2.228
		c-0.496,1.431-1.004,2.875-1.293,4.356c-0.631,3.235-2.314,5.808-4.701,7.978c-2.434,2.213-5.127,4.085-8.34,4.889
		c-12.156,3.04-24.301,6.141-36.518,8.915c-14.086,3.199-28.242,6.079-42.369,9.091c-1.227,0.262-2.465,0.474-3.793,0.727
		c-0.188-0.923-0.359-1.758-0.531-2.589c-0.947-0.499-1.947-0.131-3.008-0.284c-0.152-1.303-0.305-2.612-0.457-3.904
		c0.414-0.229,0.725-0.405,1.039-0.577c0.41-0.223,0.652-0.495,0.59-1.031c-0.062-0.532-0.354-0.753-0.803-0.882
		c-1.447-0.415-2.779-0.128-4.047,0.637c-0.426,0.256-0.587,0.565-0.523,1.066c0.068,0.512,0.298,0.773,0.808,0.843
		c0.348,0.049,0.688,0.167,1.061,0.261c0.262,1.339,0.518,2.64,0.783,3.99c-0.828,0.291-1.561,0.549-2.336,0.822
		c0.166,1.044,0.318,1.992,0.484,3.027c-0.816,0.149-1.539,0.281-2.304,0.42c-0.206-1.047-0.387-1.96-0.564-2.865
		c-0.933-0.467-1.895-0.128-2.895-0.277c-0.147-1.289-0.293-2.567-0.442-3.865c0.375-0.23,0.705-0.446,1.047-0.639
		c0.359-0.203,0.475-0.479,0.432-0.897c-0.047-0.448-0.21-0.732-0.647-0.884c-1.273-0.444-2.506-0.318-3.67,0.303
		c-0.982,0.524-1.39,0.532-0.776,2.072c0.546,0.115,1.136,0.239,1.775,0.373c0.246,1.317,0.486,2.614,0.727,3.907
		c-0.875,0.302-1.619,0.559-2.426,0.837c0.169,1.116,0.328,2.169,0.502,3.316c-0.92,0.183-1.745,0.347-2.633,0.522
		c-0.216-1.086-0.403-2.028-0.613-3.086c-0.992,0-1.912,0-2.874,0c-0.173-1.443-0.329-2.755-0.481-4.022
		c0.466-0.25,0.82-0.429,1.164-0.627c0.354-0.204,0.654-0.424,0.561-0.933c-0.087-0.48-0.308-0.768-0.779-0.92
		c-1.288-0.418-2.495-0.208-3.664,0.4c-1.06,0.552-1.091,0.636-0.713,1.923c0.318,0.079,0.662,0.198,1.015,0.243
		c0.374,0.047,0.601,0.203,0.671,0.579c0.226,1.199,0.455,2.397,0.689,3.637c-0.838,0.296-1.607,0.567-2.422,0.855
		c0.181,1.132,0.348,2.185,0.527,3.31c-5.512,1.109-10.916,2.197-16.341,3.289c-0.242-0.34-0.456-0.626-0.655-0.924
		c-1.406-2.103-2.807-4.209-4.21-6.313c-5.114-7.667-10.227-15.333-15.342-22.999c-0.301-0.452-0.579-0.887-0.597-1.475
		c-0.061-2.023-0.216-4.044-0.235-6.066c-0.008-0.85,0.048-1.794,0.408-2.533c0.589-1.207,0.341-2.046-0.63-2.818
		c-0.14-0.111-0.25-0.26-0.378-0.387c-3.621-3.592-7.378-7.032-11.391-10.186c-0.221-0.174-0.421-0.375-0.634-0.565
		c0.113-0.286,0.204-0.518,0.296-0.751c1.536-3.869-0.386-7.934-4.351-9.21c-0.3-0.096-0.585-0.238-0.878-0.359"/>
	<path class="st1" d="M226.983,326.672c0.182,0.255,0.39,0.495,0.542,0.768c0.779,1.392,2.27,2.072,3.747,1.693
		c1.518-0.391,2.556-1.704,2.552-3.23c-0.002-1.529-1.048-2.853-2.555-3.234c-1.46-0.371-2.971,0.324-3.749,1.706
		c-0.153,0.274-0.357,0.521-0.537,0.779 M325.894,179.608c-0.333,0.126-0.661,0.267-0.998,0.376c-3.75,1.211-5.736,5.11-4.492,8.832
		c0.24,0.719,0.498,1.433,0.743,2.15c0.229,0.671,0.452,1.344,0.703,2.096c-0.649,0.191-1.188,0.351-1.694,0.5
		c-1.392-1.776-1.196-1.473-3.016-0.96c-0.174,0.049-0.349,0.096-0.521,0.146c-0.518,0.15-0.775,0.519-0.812,1.034
		c-0.086,1.199,0.208,2.299,0.952,3.252c0.333,0.428,0.77,0.646,1.336,0.427c0.234-0.091,0.485-0.142,0.727-0.216
		c1.625-0.496,1.625-0.497,1.656-2.155c0.001-0.067,0.044-0.134,0.094-0.274c0.529-0.16,1.1-0.332,1.749-0.527
		c0.581,1.625,1.121,3.136,1.688,4.722c-0.669,0.202-1.212,0.365-1.779,0.535c-0.196-0.281-0.357-0.515-0.521-0.747
		c-0.343-0.485-0.794-0.789-1.388-0.545c-0.827,0.338-1.951,0.145-2.361,1.255c-0.06,0.163-0.08,0.363-0.051,0.534
		c0.107,0.636,0.151,1.303,0.385,1.893c0.617,1.56,1.042,1.732,2.641,1.275c1.584-0.453,1.614-0.492,1.675-2.149
		c0.002-0.066,0.054-0.13,0.123-0.284c0.512-0.154,1.084-0.325,1.726-0.517c0.306,0.842,0.577,1.583,0.845,2.325
		c0.278,0.766,0.554,1.532,0.846,2.339c-0.383,0.131-0.649,0.235-0.922,0.313c-0.303,0.086-0.612,0.15-0.896,0.219
		c-0.12-0.155-0.189-0.235-0.248-0.323c-0.732-1.092-0.907-1.16-2.136-0.803c-0.382,0.111-0.761,0.23-1.138,0.354
		c-0.506,0.167-0.746,0.534-0.778,1.057c-0.071,1.166,0.25,2.219,0.929,3.159c0.347,0.48,0.799,0.721,1.41,0.463
		c0.199-0.084,0.412-0.133,0.619-0.197c1.678-0.514,1.677-0.514,1.739-2.203c0.002-0.064,0.06-0.126,0.121-0.249
		c0.536-0.161,1.114-0.334,1.78-0.534c0.603,1.583,1.173,3.082,1.782,4.68c-0.733,0.23-1.334,0.419-1.955,0.615
		c-0.184-0.284-0.311-0.499-0.456-0.702c-0.509-0.709-0.809-0.811-1.657-0.571c-0.174,0.049-0.344,0.112-0.516,0.165
		c-1.678,0.513-1.877,0.829-1.585,2.562c0.042,0.247,0.113,0.494,0.199,0.729c0.615,1.69,1.134,1.946,2.841,1.417
		c1.516-0.47,1.535-0.498,1.537-2.123c0-0.063,0.056-0.127,0.126-0.28c0.581-0.177,1.222-0.374,1.927-0.589
		c0.409,0.937,0.804,1.782,1.148,2.648c0.324,0.814,0.856,1.409,1.645,1.783c1.728,0.821,3.448,1.663,5.189,2.458
		c0.482,0.219,0.843,0.503,1.136,0.944c5.67,8.512,11.352,17.017,17.027,25.524c0.173,0.259,0.312,0.54,0.514,0.895
		c-1.869,0.259-3.616,0.481-5.356,0.75c-2.189,0.337-4.334,0.86-6.266,1.983c-0.723,0.42-1.434,0.573-2.253,0.573
		c-17.389-0.015-34.777-0.02-52.165,0.006c-1.363,0.002-2.755,0.111-4.083,0.403c-7.653,1.687-12.954,8.675-12.908,16.254
		c0.067,11.242,0.017,22.485,0.017,33.728c0,9.978,0,19.955-0.001,29.933c0,0.372-0.02,0.745-0.036,1.342
		c-0.593-0.597-0.974-1.027-1.403-1.404c-1.145-1.004-2.471-1.474-4.003-1.257c-2.481,0.35-5.159,3.081-5.378,5.579
		c-0.233,2.66,0.589,4.914,2.782,6.566c0.721,0.545,1.458,1.069,2.156,1.642c0.713,0.587,0.699,0.821-0.016,1.444
		c-0.271,0.237-0.56,0.462-0.865,0.653c-0.764,0.479-1.524,0.972-2.32,1.396c-1.124,0.598-1.774,1.49-1.767,2.764
		c0.006,1.006-0.017,2.045,0.223,3.007c0.375,1.499,0.949,2.95,1.459,4.414c0.333,0.954,0.74,1.883,1.043,2.846
		c0.299,0.946,0.342,1.93,0.008,2.881c-0.803,2.281-2.123,4.169-4.224,5.456c-0.491,0.301-0.955,0.649-1.411,1.003
		c-0.392,0.304-0.51,0.686-0.208,1.136c0.14,0.21,0.25,0.44,0.394,0.648c0.701,1.008,1.587,1.233,2.601,0.519
		c0.729-0.515,1.516-1.092,1.963-1.831c0.825-1.362,1.905-2.436,3.088-3.449c0.328-0.279,0.587-0.638,0.895-0.943
		c1.297-1.287,1.875-2.783,1.449-4.622c-0.145-0.626-0.106-1.276,0.11-1.908c0.683,0.269,0.777,0.266,0.999,0.774
		c0.373,0.855,0.668,1.745,0.979,2.628c0.371,1.051,0.67,2.132,1.106,3.155c0.248,0.582,0.384,1.139,0.381,1.767
		c-0.015,3.434-0.031,6.868,0,10.304c0.042,4.691,1.828,8.654,5.22,11.86c3.248,3.069,7.163,4.514,11.628,4.513
		c18.437-0.004,36.873-0.002,55.31-0.002c0.454,0,0.908,0,1.392,0c0.175,1.07,0.326,1.988,0.492,2.998
		c-10.861,4.173-21.667,8.325-32.603,12.526c-0.318-0.936-0.6-1.769-0.869-2.562c1.013-0.808,1.099-0.93,1.11-1.501
		c0.029-1.486-1.291-2.694-2.855-2.614c-1.36,0.068-2.485,1.484-2.298,2.894c0.154,1.162,0.736,1.685,1.934,1.74
		c0.136,0.006,0.271,0.041,0.457,0.072c0.294,0.856,0.581,1.692,0.891,2.597c-1.419,0.533-2.716,1.021-4.083,1.535
		c-0.314-0.926-0.576-1.695-0.825-2.429c0.548-0.468,1.133-0.743,1.134-1.492c0.001-0.979-0.61-1.958-1.584-2.4
		c-0.936-0.424-1.848-0.402-2.626,0.316c-0.793,0.732-1.178,1.64-0.849,2.735c0.304,1.011,0.702,1.309,1.79,1.388
		c0.141,0.01,0.28,0.035,0.486,0.062c0.282,0.805,0.564,1.612,0.844,2.407c-0.912,0.831-1.858,1.238-3.106,0.895
		c-0.113-0.28-0.215-0.629-0.389-0.937c-0.132-0.235-0.323-0.548-0.543-0.603c-1.039-0.255-2.047-0.208-2.942,0.521
		c0.152,0.494,0.277,0.901,0.43,1.396c-0.321,0.23-0.64,0.457-0.876,0.627c0.08,0.476,0.132,0.781,0.185,1.094
		c-0.829,0.479-1.605,0.928-2.456,1.418c0.348,0.997,0.676,1.937,1.022,2.928c1.004-0.141,1.922-0.269,2.834-0.396
		c0.187,0.352,0.336,0.632,0.485,0.91c0.382,0.039,0.736,0.075,1.084,0.11c0.21,0.45,0.403,0.861,0.593,1.266
		c0.88-0.057,1.535-0.414,2.127-0.903c0.52-0.428,0.796-0.923,0.429-1.607c-0.115-0.214-0.143-0.476-0.236-0.807
		c0.463-0.331,0.883-0.814,1.399-0.961c1.131-0.321,2.31-0.473,3.541-0.708c0.318,0.901,0.625,1.771,0.918,2.604
		c-1.517,1.344-1.389,2.783,0.253,3.84c0.147,0.095,0.283,0.206,0.424,0.311 M275.756,227.797c-0.546-0.095-0.926-0.058-1.078,0.495
		c-0.172,0.626-0.419,1.239-0.519,1.875c-0.407,2.601,0.031,4.967,2.046,6.856c0.994,0.933,2.183,1.519,3.442,2
		c3.969,1.515,8.073,1.889,12.26,1.39c2.142-0.255,4.046,0.168,5.87,1.352c1.632,1.059,3.362,1.98,5.108,2.842
		c1.224,0.604,2.53,1.06,3.833,1.479c0.89,0.285,1.346-0.129,1.434-1.065c0.063-0.676-0.301-1.167-0.663-1.666
		c-0.869-1.199-1.744-2.393-2.605-3.598c-0.155-0.217-0.256-0.474-0.388-0.727c0.178-0.085,0.268-0.151,0.368-0.176
		c4.676-1.17,8.086-4.08,10.662-8c2.115-3.219,1.647-6.622-1.039-9.384c-1.265-1.301-2.834-2.107-4.48-2.778
		c-3.555-1.449-7.277-2.083-11.098-2.205c-4.25-0.135-8.45,0.182-12.518,1.528c-3.23,1.069-6.178,2.627-8.594,5.077
		c-0.185,0.188-0.32,0.423-0.516,0.687c1.002,0.112,0.967,0.061,1.583-0.368c0.974-0.678,1.956-1.368,3.014-1.894
		c1.789-0.889,3.734-1.315,5.686-1.716c5.296-1.086,10.603-1.291,15.932-0.294c2.713,0.507,5.333,1.293,7.729,2.71
		c1.128,0.667,2.155,1.461,2.918,2.547c0.988,1.407,1.203,2.898,0.526,4.511c-0.975,2.323-2.565,4.075-4.777,5.273
		c-1.944,1.054-4.046,1.507-6.231,1.659c-1.667,0.115-2.266,0.977-1.724,2.544c0.223,0.645,0.578,1.243,0.847,1.874
		c0.16,0.375,0.267,0.771,0.475,1.387c-0.567-0.277-0.896-0.412-1.199-0.591c-1.526-0.896-3.068-1.768-4.556-2.724
		c-0.676-0.435-1.323-0.603-2.124-0.545c-3.176,0.232-6.354,0.259-9.518-0.18c-2.449-0.339-4.829-0.884-6.94-2.271
		C275.957,233.754,274.966,231.364,275.756,227.797z M267.722,252.675c0-0.479-0.019-0.754,0.003-1.026
		c0.068-0.827,0.204-1.652,0.218-2.479c0.023-1.429-0.71-2.053-2.122-1.88c-0.177,0.021-0.354,0.07-0.525,0.124
		c-2.12,0.66-4.275,0.676-6.434,0.285c-1.987-0.359-3.823-1.083-5.287-2.547c-1.731-1.73-2.181-4.02-1.246-6.289
		c0.475-1.154,1.212-2.129,2.072-3.019c1.469-1.521,3.169-2.745,5.008-3.766c5.277-2.93,10.936-4.703,16.926-5.359
		c3.166-0.346,6.295-0.04,9.236,1.275c1.041,0.465,2.045,1.091,2.931,1.81c1.831,1.485,2.932,4.412,1.643,6.951
		c-0.059,0.115-0.045,0.266-0.069,0.426c0.868,0,1.679,0,2.465,0c0.264-0.974,0.279-1.465,0.008-2.412
		c-0.928-3.249-2.871-5.715-5.804-7.382c-3.188-1.813-6.669-2.533-10.294-2.591c-3.348-0.053-6.621,0.498-9.82,1.468
		c-4.174,1.267-8.138,2.981-11.637,5.643c-1.446,1.1-2.781,2.327-3.747,3.879c-1.159,1.864-1.767,3.875-1.25,6.094
		c0.373,1.603,1.268,2.901,2.446,4.013c2.744,2.59,6.094,3.792,9.773,4.203c1.104,0.124,2.218,0.164,3.395,0.247
		c-0.318,1.713-0.677,3.353-1.482,4.871c-0.5,0.944-0.389,1.694,0.234,2.397c0.336,0.378,0.707,0.504,1.145,0.234
		c0.646-0.398,1.299-0.789,1.906-1.24c2.109-1.567,3.866-3.495,5.351-5.639c1.307-1.886,3.063-2.865,5.264-3.271
		c2.531-0.467,4.975-1.239,7.28-2.404c1.459-0.737,2.823-1.617,3.946-2.825c0.182-0.196,0.316-0.437,0.557-0.777
		c-1.162,0-2.164-0.023-3.165,0.016c-0.256,0.01-0.516,0.2-0.757,0.336c-1.283,0.731-2.516,1.569-3.851,2.188
		c-2.665,1.236-5.504,1.964-8.373,2.557c-0.529,0.11-0.882,0.33-1.236,0.748c-1.306,1.543-2.671,3.035-4.021,4.541
		C268.253,252.247,268.055,252.385,267.722,252.675z M242.373,348.657c0.018,1.833,1.495,3.299,3.325,3.298
		c1.809-0.001,3.318-1.502,3.332-3.314c0.015-1.861-1.514-3.354-3.405-3.326C243.775,345.34,242.355,346.799,242.373,348.657z
		 M265.401,296.835c-0.018-1.829-1.514-3.314-3.325-3.3c-1.813,0.014-3.31,1.513-3.323,3.328c-0.013,1.859,1.528,3.368,3.407,3.337
		C263.998,300.17,265.418,298.694,265.401,296.835z M236.294,296.919c-1.875,0.021-3.26,1.436-3.251,3.32
		c0.009,1.863,1.439,3.29,3.298,3.29c1.878,0,3.397-1.542,3.339-3.391C239.624,298.291,238.159,296.899,236.294,296.919z"/>
	<path class="st1" d="M311.794,422.112c-0.142-0.104-0.277-0.216-0.424-0.311c-1.643-1.057-1.771-2.496-0.253-3.84
		c-0.294-0.833-0.601-1.702-0.918-2.604c-1.23,0.235-2.41,0.387-3.541,0.708c-0.516,0.146-0.936,0.63-1.399,0.961
		c0.093,0.331,0.121,0.593,0.236,0.807c0.368,0.685,0.091,1.18-0.429,1.607c-0.592,0.489-1.247,0.847-2.127,0.903
		c-0.19-0.404-0.382-0.815-0.593-1.266c-0.349-0.035-0.702-0.071-1.084-0.11c-0.149-0.278-0.298-0.559-0.485-0.91
		c-0.912,0.128-1.83,0.256-2.834,0.396c-0.347-0.991-0.674-1.931-1.022-2.928c0.851-0.49,1.627-0.939,2.456-1.418
		c-0.053-0.312-0.105-0.618-0.185-1.094c0.236-0.17,0.555-0.396,0.876-0.627c-0.152-0.494-0.277-0.901-0.43-1.396
		c0.895-0.729,1.903-0.775,2.942-0.521c0.221,0.055,0.412,0.367,0.543,0.603c0.174,0.308,0.276,0.656,0.389,0.937
		c1.249,0.344,2.195-0.063,3.106-0.895c-0.279-0.795-0.562-1.603-0.844-2.407c-0.206-0.027-0.345-0.053-0.486-0.062
		c-1.088-0.079-1.486-0.377-1.79-1.388c-0.329-1.096,0.055-2.003,0.849-2.735c0.778-0.719,1.69-0.74,2.626-0.316
		c0.974,0.442,1.585,1.421,1.584,2.4c0,0.749-0.586,1.024-1.134,1.492c0.25,0.733,0.511,1.503,0.825,2.429
		c1.368-0.515,2.665-1.002,4.083-1.535c-0.31-0.904-0.597-1.74-0.891-2.597c-0.187-0.031-0.321-0.066-0.457-0.072
		c-1.197-0.056-1.78-0.578-1.934-1.74c-0.187-1.409,0.938-2.825,2.298-2.894c1.565-0.08,2.884,1.128,2.855,2.614
		c-0.011,0.571-0.097,0.693-1.11,1.501c0.269,0.793,0.551,1.626,0.869,2.562c10.935-4.201,21.742-8.354,32.603-12.526
		c-0.166-1.01-0.316-1.928-0.492-2.998c-0.484,0-0.938,0-1.392,0c-18.437,0-36.873-0.002-55.31,0.002
		c-4.465,0.001-8.38-1.443-11.628-4.513c-3.392-3.206-5.178-7.169-5.22-11.86c-0.031-3.436-0.014-6.87,0-10.304
		c0.002-0.628-0.134-1.185-0.381-1.767c-0.436-1.023-0.735-2.104-1.106-3.155c-0.311-0.883-0.606-1.772-0.979-2.628
		c-0.222-0.509-0.316-0.506-0.999-0.774c-0.216,0.632-0.255,1.282-0.11,1.908c0.426,1.839-0.152,3.335-1.449,4.622
		c-0.308,0.306-0.567,0.664-0.895,0.943c-1.183,1.014-2.263,2.087-3.088,3.449c-0.447,0.739-1.233,1.316-1.963,1.831
		c-1.014,0.715-1.9,0.489-2.601-0.519c-0.144-0.208-0.254-0.438-0.394-0.648c-0.301-0.45-0.183-0.832,0.208-1.136
		c0.456-0.354,0.919-0.702,1.411-1.003c2.101-1.287,3.421-3.175,4.224-5.456c0.334-0.951,0.291-1.935-0.008-2.881
		c-0.303-0.963-0.711-1.892-1.043-2.846c-0.51-1.464-1.085-2.915-1.459-4.414c-0.24-0.962-0.216-2.001-0.223-3.007
		c-0.008-1.273,0.643-2.166,1.767-2.764c0.795-0.424,1.556-0.916,2.32-1.396c0.305-0.191,0.593-0.416,0.865-0.653
		c0.714-0.623,0.729-0.857,0.016-1.444c-0.698-0.572-1.435-1.097-2.156-1.642c-2.193-1.652-3.015-3.906-2.782-6.566
		c0.219-2.498,2.896-5.229,5.378-5.579c1.532-0.217,2.858,0.253,4.003,1.257c0.429,0.377,0.81,0.808,1.403,1.404
		c0.016-0.597,0.036-0.97,0.036-1.342c0.001-9.978,0.001-19.955,0.001-29.933c0-11.242,0.05-22.486-0.017-33.728
		c-0.045-7.579,5.255-14.567,12.908-16.254c1.328-0.292,2.72-0.401,4.083-0.403c17.388-0.026,34.776-0.021,52.165-0.006
		c0.819,0,1.53-0.152,2.253-0.573c1.932-1.124,4.077-1.646,6.266-1.983c1.74-0.269,3.487-0.491,5.356-0.75
		c-0.203-0.355-0.341-0.636-0.514-0.895c-5.676-8.508-11.357-17.013-17.027-25.524c-0.293-0.441-0.654-0.725-1.136-0.944
		c-1.741-0.794-3.461-1.636-5.189-2.458c-0.789-0.374-1.321-0.969-1.645-1.783c-0.345-0.866-0.739-1.711-1.148-2.648
		c-0.705,0.216-1.346,0.412-1.927,0.589c-0.07,0.153-0.126,0.216-0.126,0.28c-0.002,1.625-0.021,1.653-1.537,2.123
		c-1.708,0.529-2.227,0.273-2.841-1.417c-0.085-0.236-0.157-0.482-0.199-0.729c-0.292-1.734-0.093-2.05,1.585-2.562
		c0.172-0.053,0.342-0.116,0.516-0.165c0.848-0.24,1.147-0.138,1.657,0.571c0.145,0.203,0.272,0.417,0.456,0.702
		c0.621-0.195,1.222-0.384,1.955-0.615c-0.609-1.598-1.18-3.097-1.782-4.68c-0.666,0.2-1.244,0.373-1.78,0.534
		c-0.062,0.123-0.119,0.185-0.121,0.249c-0.062,1.689-0.062,1.689-1.739,2.203c-0.207,0.063-0.42,0.112-0.619,0.197
		c-0.61,0.258-1.062,0.017-1.41-0.463c-0.679-0.94-1-1.993-0.929-3.159c0.033-0.523,0.272-0.89,0.778-1.057
		c0.377-0.124,0.756-0.243,1.138-0.354c1.229-0.357,1.404-0.289,2.136,0.803c0.059,0.088,0.128,0.168,0.248,0.323
		c0.285-0.069,0.594-0.132,0.896-0.219c0.273-0.079,0.539-0.182,0.922-0.313c-0.292-0.808-0.568-1.574-0.846-2.339
		c-0.269-0.742-0.539-1.483-0.845-2.325c-0.642,0.192-1.213,0.363-1.726,0.517c-0.069,0.154-0.121,0.218-0.123,0.284
		c-0.061,1.657-0.091,1.697-1.675,2.149c-1.6,0.458-2.024,0.285-2.641-1.275c-0.234-0.589-0.278-1.257-0.385-1.893
		c-0.029-0.171-0.009-0.371,0.051-0.534c0.41-1.111,1.535-0.917,2.361-1.255c0.594-0.243,1.045,0.06,1.388,0.545
		c0.165,0.232,0.326,0.466,0.521,0.747c0.566-0.17,1.109-0.333,1.779-0.535c-0.567-1.585-1.107-3.096-1.688-4.722
		c-0.649,0.195-1.22,0.367-1.749,0.527c-0.05,0.14-0.093,0.207-0.094,0.274c-0.031,1.658-0.031,1.659-1.656,2.155
		c-0.242,0.074-0.492,0.125-0.727,0.216c-0.566,0.22-1.002,0.001-1.336-0.427c-0.744-0.953-1.038-2.053-0.952-3.252
		c0.037-0.515,0.294-0.884,0.812-1.034c0.173-0.05,0.347-0.097,0.521-0.146c1.82-0.513,1.625-0.816,3.016,0.96
		c0.505-0.149,1.044-0.309,1.694-0.5c-0.251-0.751-0.474-1.425-0.703-2.096c-0.245-0.718-0.503-1.432-0.743-2.15
		c-1.244-3.722,0.742-7.62,4.492-8.832c0.337-0.11,0.666-0.25,0.998-0.376c0.723,0,1.446,0,2.169,0
		c0.293,0.121,0.578,0.263,0.878,0.359c3.965,1.276,5.887,5.341,4.351,9.21c-0.092,0.233-0.184,0.465-0.296,0.751
		c0.213,0.191,0.413,0.392,0.634,0.565c4.013,3.153,7.771,6.593,11.391,10.186c0.128,0.127,0.238,0.276,0.378,0.387
		c0.971,0.772,1.219,1.611,0.63,2.818c-0.36,0.738-0.416,1.683-0.408,2.533c0.019,2.022,0.174,4.043,0.235,6.066
		c0.018,0.588,0.295,1.022,0.597,1.475c5.116,7.665,10.228,15.332,15.342,22.999c1.403,2.104,2.805,4.21,4.21,6.313
		c0.199,0.297,0.413,0.583,0.655,0.924c5.425-1.092,10.829-2.18,16.341-3.289c-0.179-1.125-0.346-2.178-0.527-3.31
		c0.814-0.288,1.584-0.56,2.422-0.855c-0.235-1.24-0.464-2.438-0.689-3.637c-0.071-0.376-0.297-0.531-0.671-0.579
		c-0.353-0.045-0.696-0.164-1.015-0.243c-0.378-1.288-0.346-1.371,0.713-1.923c1.169-0.609,2.376-0.818,3.664-0.4
		c0.471,0.152,0.691,0.44,0.779,0.92c0.093,0.509-0.208,0.729-0.561,0.933c-0.344,0.198-0.698,0.377-1.164,0.627
		c0.152,1.267,0.308,2.579,0.481,4.022c0.962,0,1.882,0,2.874,0c0.21,1.058,0.396,2,0.613,3.086
		c0.888-0.176,1.713-0.339,2.633-0.522c-0.174-1.147-0.333-2.2-0.502-3.316c0.807-0.278,1.551-0.535,2.426-0.837
		c-0.241-1.293-0.481-2.589-0.727-3.907c-0.639-0.134-1.229-0.258-1.775-0.373c-0.614-1.54-0.207-1.547,0.776-2.072
		c1.164-0.622,2.397-0.747,3.67-0.303c0.438,0.152,0.601,0.437,0.647,0.884c0.043,0.417-0.072,0.694-0.432,0.897
		c-0.342,0.193-0.671,0.409-1.047,0.639c0.148,1.298,0.295,2.576,0.442,3.865c1,0.148,1.962-0.19,2.895,0.277
		c0.178,0.904,0.358,1.817,0.564,2.865c0.766-0.14,1.488-0.271,2.304-0.42c-0.166-1.036-0.318-1.983-0.484-3.027
		c0.775-0.273,1.508-0.531,2.336-0.822c-0.266-1.35-0.521-2.65-0.783-3.99c-0.373-0.094-0.713-0.212-1.061-0.261
		c-0.51-0.07-0.74-0.331-0.808-0.843c-0.064-0.501,0.097-0.81,0.523-1.066c1.268-0.765,2.6-1.051,4.047-0.637
		c0.449,0.129,0.74,0.35,0.803,0.882c0.062,0.536-0.18,0.808-0.59,1.031c-0.314,0.171-0.625,0.347-1.039,0.577
		c0.152,1.292,0.305,2.601,0.457,3.904c1.061,0.153,2.061-0.214,3.008,0.284c0.172,0.831,0.344,1.667,0.531,2.589
		c1.328-0.252,2.566-0.465,3.793-0.727c14.127-3.012,28.283-5.892,42.369-9.091c12.217-2.774,24.361-5.875,36.518-8.915
		c3.213-0.804,5.906-2.675,8.34-4.889c2.387-2.17,4.07-4.743,4.701-7.978c0.289-1.48,0.797-2.925,1.293-4.356
		c0.268-0.777,0.65-1.536,1.096-2.228c1.047-1.62,2.23-1.711,3.477-0.218c0.664,0.794,1.207,1.713,1.672,2.643
		c1.117,2.242,1.824,4.639,2.359,7.076c0.994,4.515,1.939,9.044,2.334,13.661c0.463,5.451,0.51,10.904-0.158,16.341
		c-0.121,0.985-0.457,1.975-0.861,2.888c-0.537,1.206-1.363,1.417-2.457,0.705c-0.535-0.349-1.02-0.812-1.426-1.309
		c-0.475-0.584-0.855-1.25-1.248-1.898c-0.301-0.494-0.572-1.005-0.83-1.522c-1.744-3.497-4.57-5.461-8.406-6.128
		c-2.799-0.487-5.609-0.461-8.428-0.46c-6.232,0-12.406,0.623-18.541,1.706c-1.555,0.274-3.119,0.487-4.68,0.729
		c-0.055,0.091-0.111,0.181-0.166,0.271c0.141,0.05,0.293,0.077,0.416,0.151c2.002,1.189,3.375,2.938,4.312,5.022
		c1.662,3.704,2.492,7.538,1.576,11.601c-0.025,0.104-0.033,0.215-0.033,0.323c0,0.068,0.029,0.137,0.068,0.308
		c0.275,0.025,0.582,0.077,0.889,0.077c5.422,0.005,10.846-0.003,16.268,0.014c0.596,0.001,0.967-0.177,1.354-0.662
		c0.438-0.55,1.068-0.954,1.645-1.383c0.895-0.67,1.938-1.19,2.697-1.985c1.848-1.933,4.029-2.238,6.471-1.645
		c1.297,0.316,2.57,0.74,3.877,1.005c1.305,0.265,2.635,0.43,3.959,0.572c1.051,0.112,2.117,0.2,3.025,0.749
		c2.635,1.588,5.496,1.546,8.412,1.353c1.727-0.114,3.477-0.246,5.188-0.083c1.344,0.127,2.648,0.194,4.053-0.028
		c0.615-0.719,0.521-1.619,0.381-2.511c-0.174-1.113-0.273-2.218,0.111-3.418c-0.279-0.044-0.516-0.143-0.723-0.1
		c-0.312,0.065-0.602,0.24-0.906,0.348c-0.736,0.262-0.947,0.201-1.396-0.387c-0.109-0.143-0.195-0.304-0.305-0.447
		c-0.107-0.141-0.23-0.27-0.344-0.401c0.26-0.935,0.498-1.843,0.771-2.739c0.137-0.447,0.301-0.894,0.52-1.306
		c0.604-1.138,1.404-1.49,2.609-1.027c0.658,0.253,1.156,0.146,1.709-0.195c0.951-0.585,1.885-1.21,3.043-1.357
		c0.854-0.109,1.623-0.066,2.344,0.517c0.377,0.306,0.889,0.485,1.367,0.623c1.768,0.509,2.896,1.737,3.669,3.308
		c0.273,0.558,0.355,1.24,0.398,1.874c0.049,0.68-0.229,1.268-0.879,1.62c-0.531,0.288-0.835,0.745-1.077,1.303
		c-0.193,0.44-0.564,0.808-0.879,1.189c-0.43,0.523-0.988,0.971-1.299,1.554c-0.475,0.89-1.137,1.456-2.064,1.797
		c-0.699,0.258-1.455,0.438-2.057,1.117c0.531,0.593,1.191,0.833,1.912,0.678c0.734-0.157,1.479-0.386,2.135-0.739
		c1.604-0.859,3.274-1.524,5.019-2.011c1.879-0.524,3.506-1.415,4.918-2.817c0.879-0.873,2.02-1.51,3.113-2.131
		c1.602-0.91,3.281-1.68,4.898-2.562c2.746-1.5,2.721-1.521,3.352-4.535c0.201-0.95,0.41-1.918,0.791-2.803
		c0.258-0.599,0.801-1.085,1.262-1.578c0.117-0.125,0.41-0.083,0.814-0.149c-0.33,0.609-0.557,1.027-0.77,1.422
		c0.684,0.688,1.307,0.104,1.953,0.105c-0.643,2.01-1.207,4.006-1.936,5.941c-0.266,0.705-0.814,1.404-1.416,1.864
		c-2.758,2.104-5.545,4.175-8.389,6.159c-3.094,2.159-6.398,3.941-10.027,5.052c-2.778,0.851-5.054,2.435-6.921,4.646
		c-0.934,1.105-1.85,2.233-2.885,3.237c-0.926,0.899-1.971,1.688-3.021,2.442c-0.961,0.689-1.266,1.638-1.236,2.713
		c0.01,0.331,0.305,0.735,0.588,0.961c0.668,0.539,1.475,0.75,2.34,0.627c0.68-0.096,1.352-0.27,2.033-0.319
		c3.289-0.24,6.289,0.623,9.022,2.449c0.361,0.241,0.691,0.523,1.045,0.776c0.879,0.628,1.848,0.982,2.941,0.92
		c0.828-0.047,1.654-0.139,2.484-0.164c0.68-0.021,1.369-0.022,2.043,0.064c0.334,0.042,0.676,0.254,0.953,0.468
		c0.533,0.412,0.537,0.627,0.127,1.15c-0.531,0.683-0.496,0.936,0.285,1.277c0.459,0.201,0.967,0.289,1.447,0.436
		c0.547,0.167,1.137,0.271,1.498,0.944c-0.738,1.752-1.604,3.481-3.158,4.755c-0.387,0.318-0.574,0.648-0.686,1.145
		c-0.109,0.495-0.428,0.971-0.746,1.385c-0.348,0.453-0.787,0.842-1.217,1.223c-0.168,0.148-0.418,0.229-0.643,0.283
		c-0.385,0.093-0.793,0.099-1.168,0.215c-0.568,0.178-0.668,0.456-0.395,0.989c0.146,0.283,0.336,0.543,0.484,0.781
		c-0.875,0.474-1.713,0.927-2.652,1.436c-0.281-0.162-0.674-0.389-1.061-0.613c-1.828,2.292-4.88,3.032-7.722,1.8
		c-0.703-0.305-1.193-0.211-1.797,0.129c-1.154,0.65-2.344,1.238-3.678,1.934c0.141,0.562,0.289,1.293,0.51,2.002
		c0.572,1.848,1.547,3.496,2.623,5.087c0.867,1.288,1.768,2.557,2.604,3.865c0.938,1.466,1.715,3.015,2.119,4.725
		c0.205,0.864,0.203,1.722-0.15,2.552c-0.068,0.16-0.188,0.297-0.305,0.477c-1.236-0.234-2.152-0.927-2.77-1.936
		c-0.561-0.919-0.965-1.933-1.436-2.906c-0.928-1.914-1.748-3.894-2.82-5.725c-0.85-1.454-2.002-2.732-3.037-4.075
		c-0.211-0.274-0.498-0.488-0.912-0.884c-0.029,0.557-0.066,0.902-0.066,1.247c-0.002,12.581-0.004,25.16,0,37.74
		c0,1.25,0.002,1.255,1.174,1.701c4.965,1.886,9.963,3.668,15.147,4.874c1.693,0.394,3.4,0.778,5.145,0.55
		c0.881-0.116,1.791-0.329,2.586-0.709c1.438-0.684,1.65-1.863,0.67-3.103c-0.289-0.365-0.646-0.683-1.002-0.983
		c-0.346-0.291-0.521-0.587-0.266-1.009c3.156-0.568,5.963,2.054,5.621,5.329c-0.16,1.54-0.508,3.062-0.811,4.585
		c-1.191,5.949-2.387,11.897-3.615,17.839c-0.232,1.126-0.531,2.256-0.961,3.32c-2.266,5.642-4.938,11.086-8.074,16.297
		c-0.354,0.589-0.756,1.148-1.104,1.739c-1.631,2.775-4.074,4.634-6.84,6.158c-2.154,1.188-4.195,1.148-6.184-0.339
		c-0.58-0.432-1.156-0.869-1.748-1.28c-0.385-0.267-0.775-0.544-1.205-0.72c-0.758-0.311-1.061-0.192-1.547,0.479
		c-2.816,3.878-6.576,6.222-11.33,6.912c-0.889,0.128-1.801,0.145-2.703,0.146c-21.977,0.007-43.955,0.006-65.934,0.006
		c-0.289,0-0.584,0.032-0.867-0.007c-0.623-0.083-0.977,0.202-1.314,0.711c-1.814,2.717-4.102,4.965-6.965,6.552
		c-4.402,2.44-9.123,3.629-14.166,3.167c-2.117-0.193-4.207-0.644-6.311-0.979c-0.463-0.073-0.926-0.149-1.387-0.238
		c-1.855-0.362-3.418,0.236-4.789,1.454c-0.268,0.238-0.51,0.51-0.838,0.841c-0.289-0.103-0.611-0.216-0.961-0.339
		c0.047-0.312,0.088-0.554,0.117-0.799c0.227-2.004-0.609-3.515-2.438-4.405c-1.361-0.663-2.834-0.885-4.316-0.916
		c-4.512-0.093-8.838,0.773-12.896,2.794c-0.705,0.351-1.373,0.811-1.979,1.315c-1.456,1.213-1.73,2.531-0.968,4.258
		c0.145,0.329,0.318,0.647,0.521,1.054c-0.193,0.247-0.408,0.521-0.591,0.755c-0.147,0.014-0.231,0.049-0.285,0.022
		c-1.727-0.853-3.273-0.493-4.753,0.629c-1.323,1.005-2.659,2-4.05,2.908c-3.566,2.326-7.473,3.549-11.761,3.535
		c-5.736-0.02-10.489-2.178-14.165-6.561c-1.2-1.43-2.137-3.079-3.184-4.635c-0.197-0.292-0.352-0.613-0.558-0.978
		c-10.342,3.249-20.626,6.48-30.99,9.736c0.307,0.895,0.573,1.67,0.835,2.435c0.143,0.046,0.242,0.104,0.34,0.103
		c1.306-0.005,1.769,0.355,2.027,1.592c0.28,1.345-0.667,2.861-1.926,3.082c-1.507,0.266-3.021-0.798-3.127-2.272
		c-0.028-0.388,0.187-0.82,0.379-1.185c0.125-0.237,0.412-0.388,0.704-0.646c-0.293-0.82-0.59-1.651-0.919-2.571
		c-1.569,0.5-3.032,0.966-4.582,1.459c0.327,0.952,0.614,1.793,0.885,2.585c0.133,0.062,0.198,0.119,0.262,0.119
		c1.567-0.008,2.284,0.792,2.148,2.358c-0.093,1.082-0.781,1.737-1.573,2.335C312.951,422.112,312.373,422.112,311.794,422.112z
		 M401.701,253.987c-37.199,0-74.398,0-111.596,0c-0.397,0-0.795-0.004-1.193,0.001c-2.066,0.027-4.022,0.521-5.792,1.575
		c-4.085,2.435-6.236,6.057-6.24,10.823c-0.023,26.389-0.011,52.779-0.011,79.169c0,10.193-0.002,20.389,0.001,30.582
		c0.002,3.419,1.193,6.369,3.619,8.778c2.545,2.527,5.66,3.59,9.232,3.59c74.65-0.015,149.3-0.011,223.951-0.011
		c0.361,0,0.723,0.003,1.084-0.008c5.154-0.171,9.717-3.637,11.258-8.556c0.438-1.394,0.566-2.822,0.566-4.279
		c-0.008-36.259-0.006-72.517-0.006-108.776c0-0.325,0.002-0.651-0.006-0.976c-0.068-2.691-0.922-5.116-2.602-7.211
		c-2.533-3.162-5.854-4.705-9.912-4.705C476.604,253.988,439.152,253.987,401.701,253.987z M410.725,249.63c0.566,0,1.029,0,1.494,0
		c19.328,0,38.658,0,57.986,0c1.656,0,1.658,0,2.125-1.618c0.09-0.312,0.178-0.627,0.223-0.948
		c0.586-4.123-0.482-7.801-3.076-11.027c-0.486-0.606-1.145-1.104-1.801-1.538c-1.221-0.809-2.604-1.063-4.047-0.836
		c-3.174,0.499-6.342,1.026-9.514,1.542c-7.338,1.195-14.678,2.395-22.018,3.585c-7.268,1.179-14.539,2.347-21.807,3.527
		c-0.232,0.037-0.451,0.156-0.729,0.257C409.945,244.911,410.322,247.183,410.725,249.63z M557.636,339.837
		c-0.539,0.062-0.859,0.104-1.18,0.133c-1.33,0.118-2.658,0.29-3.99,0.335c-3.238,0.108-6.41-0.404-9.542-1.175
		c-3.693-0.909-7.236-2.26-10.777-3.619c-0.352-0.135-0.709-0.25-1.121-0.395c0,7.288,0,14.42,0,21.551
		c0.33-0.246,0.525-0.534,0.627-0.853c0.559-1.715,1.145-3.423,1.621-5.16c0.432-1.572,0.668-3.184,0.324-4.823
		c-0.043-0.207-0.033-0.436-0.002-0.646c0.102-0.683,0.34-0.846,1.238-0.854c0.041,0.159,0.098,0.326,0.125,0.497
		c0.361,2.306,0.344,4.615-0.041,6.91c-0.469,2.807-1.258,5.497-3.238,7.679c-0.191,0.212-0.357,0.46-0.48,0.719
		c-0.395,0.839-0.387,1.692,0.1,2.483c0.148,0.24,0.471,0.473,0.744,0.519c1.52,0.25,2.99-0.041,4.627-0.466
		c-0.223-0.531-0.365-0.962-0.582-1.352c-0.154-0.279-0.393-0.519-0.621-0.75c-0.885-0.895-1.08-1.931-0.631-3.089
		c0.246-0.64,0.49-1.286,0.812-1.889c1.098-2.039,2.078-4.124,2.873-6.304c0.256-0.702,0.672-1.356,1.092-1.982
		c0.266-0.396,0.639-0.759,1.246-0.71c0.074,1.067-0.213,1.999-0.604,2.889c-0.508,1.155-1.082,2.282-1.645,3.414
		c-0.791,1.59-1.463,3.208-1.746,4.986c-0.143,0.904,0.113,1.562,0.742,2.12c0.564,0.504,1.162,0.973,1.764,1.435
		c0.715,0.55,1.463,1.06,2.174,1.617c1.105,0.866,1.91,1.977,2.42,3.275c0.205,0.526,0.314,1.112,0.35,1.679
		c0.053,0.821-0.35,1.437-1.158,1.911c-0.268-0.329-0.545-0.606-0.74-0.932c-0.338-0.555-0.629-1.137-0.932-1.712
		c-0.371-0.702-0.746-1.404-1.1-2.113c-0.48-0.96-1.256-1.362-2.303-1.237c-0.68,0.08-1.375,0.127-2.025,0.313
		c-1.629,0.465-3.223,1.066-5.033,0.836c0,1.707,0,3.313,0,5.042c0.637,0.064,1.236,0.172,1.838,0.179
		c1.553,0.017,3.109-0.063,4.66-0.004c0.854,0.033,1.721,0.194,2.543,0.433c0.941,0.273,1.547,0.958,1.586,1.976
		c0.043,1.189,0.131,2.399-0.033,3.566c-0.137,0.977-0.516,1.953-0.957,2.847c-0.576,1.167-1.641,1.553-2.918,1.393
		c-0.75-0.097-1.391-0.433-1.906-0.95c-0.66-0.664-1.252-1.398-1.885-2.091c-0.582-0.641-1.156-1.292-1.785-1.884
		c-0.283-0.269-0.691-0.406-1.24-0.714c0.148,3.019-0.34,5.689-1.445,8.235c1.502,1.277,3.012,2.307,4.82,2.826
		c1.932,0.555,3.768,0.349,5.285-1.026c1.117-1.013,2.236-2.085,3.092-3.315c2.968-4.274,5.698-8.702,8.009-13.377
		c1.506-3.047,2.377-6.253,2.605-9.662c0.115-1.719,0.408-3.447,0.83-5.119c0.795-3.146,1.561-6.309,2.807-9.325
		c0.26-0.628,0.424-1.31,0.535-1.982C557.579,341.425,557.575,340.705,557.636,339.837z M511.379,249.563
		c0.01-0.045,0.021-0.092,0.031-0.138c-0.297-0.1-0.59-0.212-0.893-0.295c-1.814-0.502-3.568-1.137-5.166-2.172
		c-0.477-0.309-1.027-0.548-1.578-0.688c-1.143-0.29-2.271-0.205-3.072,0.779c-0.602,0.739-1.074,1.584-1.693,2.515
		C503.26,249.563,507.318,249.563,511.379,249.563z M404.578,249.577c-0.42-2.112-0.727-4.086-1.279-6.069
		c-0.994,0.216-1.863,0.405-2.806,0.61c0.388,1.882,0.755,3.669,1.125,5.459C402.639,249.577,403.529,249.577,404.578,249.577z
		 M372.96,249.396c0.023,0.059,0.045,0.116,0.068,0.174c3.785,0,7.569,0,11.474,0c-0.108-0.663-0.203-1.249-0.325-1.991
		C380.382,248.194,376.671,248.794,372.96,249.396z M391.068,246.088c0.248,1.222,0.48,2.361,0.707,3.48c1.035,0,1.927,0,2.965,0
		c-0.275-1.376-0.533-2.666-0.808-4.042C392.959,245.718,392.088,245.888,391.068,246.088z M495.279,249.349
		c0.033,0.091,0.07,0.183,0.105,0.274c0.668,0,1.336,0.005,2.006-0.002c0.447-0.005,0.627-0.325,0.691-0.693
		c0.078-0.443-0.23-0.718-0.602-0.74c-0.402-0.024-0.867,0.033-1.213,0.224C495.883,248.624,495.604,249.028,495.279,249.349z"/>
	<path class="st1" d="M226.983,325.153c0.18-0.259,0.383-0.505,0.537-0.779c0.778-1.382,2.289-2.077,3.749-1.706
		c1.507,0.382,2.553,1.705,2.555,3.234c0.003,1.526-1.035,2.84-2.552,3.23c-1.477,0.379-2.968-0.302-3.747-1.693
		c-0.152-0.272-0.36-0.513-0.542-0.768C226.983,326.166,226.983,325.66,226.983,325.153z"/>
	<path class="st1" d="M275.756,227.797c-0.79,3.567,0.201,5.958,3.169,7.905c2.111,1.386,4.491,1.931,6.94,2.271
		c3.165,0.438,6.342,0.412,9.518,0.18c0.801-0.058,1.447,0.11,2.124,0.545c1.487,0.957,3.03,1.828,4.556,2.724
		c0.303,0.179,0.632,0.313,1.199,0.591c-0.208-0.616-0.315-1.013-0.475-1.387c-0.269-0.63-0.624-1.229-0.847-1.874
		c-0.542-1.567,0.056-2.429,1.724-2.544c2.185-0.152,4.287-0.605,6.231-1.659c2.211-1.198,3.802-2.95,4.777-5.273
		c0.676-1.612,0.462-3.104-0.526-4.511c-0.763-1.086-1.79-1.88-2.918-2.547c-2.395-1.417-5.016-2.203-7.729-2.71
		c-5.33-0.996-10.636-0.792-15.932,0.294c-1.952,0.401-3.897,0.828-5.686,1.716c-1.058,0.526-2.041,1.216-3.014,1.894
		c-0.616,0.429-0.581,0.48-1.583,0.368c0.195-0.264,0.331-0.499,0.516-0.687c2.416-2.45,5.364-4.008,8.594-5.077
		c4.068-1.346,8.268-1.663,12.518-1.528c3.821,0.122,7.543,0.755,11.098,2.205c1.646,0.671,3.215,1.477,4.48,2.778
		c2.686,2.763,3.153,6.166,1.039,9.384c-2.575,3.919-5.985,6.829-10.662,8c-0.101,0.025-0.19,0.09-0.368,0.176
		c0.132,0.252,0.233,0.509,0.388,0.727c0.861,1.205,1.736,2.399,2.605,3.598c0.362,0.499,0.727,0.99,0.663,1.666
		c-0.088,0.936-0.544,1.35-1.434,1.065c-1.303-0.419-2.609-0.875-3.833-1.479c-1.747-0.861-3.477-1.783-5.108-2.842
		c-1.824-1.183-3.729-1.606-5.87-1.352c-4.188,0.499-8.291,0.125-12.26-1.39c-1.26-0.48-2.448-1.067-3.442-2
		c-2.015-1.89-2.453-4.255-2.046-6.856c0.1-0.636,0.347-1.25,0.519-1.875C274.831,227.739,275.21,227.702,275.756,227.797z"/>
	<path class="st1" d="M267.722,252.675c0.333-0.29,0.531-0.429,0.688-0.604c1.35-1.506,2.716-2.998,4.021-4.541
		c0.354-0.418,0.708-0.638,1.236-0.748c2.868-0.593,5.708-1.321,8.373-2.557c1.335-0.619,2.567-1.457,3.851-2.188
		c0.241-0.137,0.501-0.326,0.757-0.336c1-0.039,2.002-0.016,3.165-0.016c-0.241,0.341-0.375,0.582-0.557,0.777
		c-1.123,1.208-2.487,2.087-3.946,2.825c-2.305,1.165-4.749,1.937-7.28,2.404c-2.201,0.406-3.958,1.385-5.264,3.271
		c-1.485,2.145-3.242,4.072-5.351,5.639c-0.607,0.452-1.261,0.842-1.906,1.24c-0.438,0.27-0.809,0.145-1.145-0.234
		c-0.623-0.704-0.735-1.454-0.234-2.397c0.805-1.518,1.164-3.157,1.482-4.871c-1.177-0.083-2.291-0.123-3.395-0.247
		c-3.679-0.411-7.03-1.613-9.773-4.203c-1.178-1.112-2.073-2.41-2.446-4.013c-0.516-2.219,0.092-4.229,1.25-6.094
		c0.965-1.552,2.301-2.779,3.747-3.879c3.499-2.662,7.462-4.376,11.637-5.643c3.199-0.97,6.472-1.521,9.82-1.468
		c3.625,0.058,7.106,0.778,10.294,2.591c2.933,1.667,4.875,4.133,5.804,7.382c0.271,0.947,0.256,1.438-0.008,2.412
		c-0.786,0-1.597,0-2.465,0c0.024-0.16,0.011-0.311,0.069-0.426c1.29-2.539,0.188-5.466-1.643-6.951
		c-0.886-0.718-1.89-1.344-2.931-1.81c-2.94-1.315-6.07-1.621-9.236-1.275c-5.99,0.657-11.649,2.43-16.926,5.359
		c-1.839,1.021-3.539,2.245-5.008,3.766c-0.86,0.89-1.597,1.865-2.072,3.019c-0.935,2.269-0.485,4.559,1.246,6.289
		c1.464,1.464,3.3,2.188,5.287,2.547c2.158,0.391,4.314,0.375,6.434-0.285c0.172-0.054,0.348-0.102,0.525-0.124
		c1.412-0.173,2.146,0.451,2.122,1.88c-0.014,0.827-0.15,1.653-0.218,2.479C267.703,251.921,267.722,252.196,267.722,252.675z"/>
	<path class="st1" d="M242.373,348.657c-0.017-1.858,1.402-3.317,3.252-3.343c1.891-0.027,3.419,1.465,3.405,3.326
		c-0.014,1.812-1.523,3.313-3.332,3.314C243.867,351.956,242.39,350.49,242.373,348.657z"/>
	<path class="st1" d="M265.401,296.835c0.017,1.859-1.403,3.335-3.241,3.366c-1.879,0.03-3.42-1.479-3.407-3.337
		c0.014-1.815,1.51-3.314,3.323-3.328C263.887,293.521,265.383,295.006,265.401,296.835z"/>
	<path class="st1" d="M236.294,296.919c1.865-0.02,3.33,1.372,3.387,3.219c0.058,1.849-1.461,3.391-3.339,3.391
		c-1.859,0-3.289-1.427-3.298-3.29C233.034,298.355,234.419,296.94,236.294,296.919z"/>
	<path class="st1" d="M401.701,253.987c37.451,0,74.902,0.001,112.354-0.003c4.059,0,7.379,1.543,9.912,4.705
		c1.68,2.096,2.533,4.52,2.602,7.211c0.008,0.325,0.006,0.65,0.006,0.976c0,36.259-0.002,72.517,0.006,108.776
		c0,1.457-0.129,2.886-0.566,4.279c-1.541,4.919-6.104,8.385-11.258,8.556c-0.361,0.011-0.723,0.008-1.084,0.008
		c-74.65,0-149.3-0.004-223.951,0.011c-3.572,0-6.687-1.062-9.232-3.59c-2.425-2.409-3.617-5.359-3.619-8.778
		c-0.004-10.193-0.001-20.389-0.001-30.582c0-26.39-0.012-52.78,0.011-79.169c0.004-4.766,2.154-8.388,6.24-10.823
		c1.771-1.055,3.727-1.548,5.792-1.575c0.398-0.005,0.796-0.001,1.193-0.001C327.303,253.987,364.502,253.987,401.701,253.987z
		 M374.152,350.093c2.143,0.04,4.229-0.239,6.284,0.313c0.942,0.253,1.699,0.797,2.239,1.611c0.28,0.421,0.528,0.863,0.762,1.311
		c2.644,5.059,5.28,10.123,7.928,15.179c0.317,0.607,0.666,1.203,1.054,1.767c1.006,1.459,2.385,2.428,4.119,2.786
		c1.125,0.233,2.285,0.405,3.431,0.423c3.651,0.053,7.301,0.021,10.952,0.017c0.275,0,0.551-0.056,0.807-0.084
		c0.209-2.085,0.121-11.184-0.129-12.029c-0.801,0-1.629,0.006-2.457-0.001c-1.947-0.015-3.332-0.831-4.223-2.643
		c-1.529-3.112-3.188-6.16-4.776-9.244c-0.833-1.618-2.015-2.896-3.566-3.842c-0.201-0.123-0.38-0.278-0.643-0.473
		c0.449-0.272,0.814-0.496,1.181-0.72c4.244-2.574,7.265-6.136,8.718-10.926c0.945-3.12,1.139-6.309,0.781-9.548
		c-0.908-8.247-6.177-14.25-14.239-16.196c-3.149-0.761-6.358-0.989-9.574-1.004c-10.592-0.048-21.184-0.029-31.775-0.031
		c-0.316,0-0.632,0.034-0.932,0.052c-0.233,1.245-0.187,11.248,0.073,12.105c2.344,0,4.717,0,7.069,0
		c0.246,1.253,0.196,41.63-0.042,42.434c-3.741,0-7.49,0-11.3,0c-6.07-18.206-12.132-36.385-18.187-54.547
		c-6.406,0-12.686,0-19.055,0c-6.066,18.192-12.126,36.368-18.194,54.568c-1.875,0.076-3.669-0.027-5.429,0.062
		c-0.22,2.012-0.135,11.258,0.094,12.006c9.204,0,18.408,0,27.667,0c0-4.019,0-7.971,0-12.03c-1.893,0-3.722,0-5.731,0
		c0.874-3.071,1.706-5.995,2.52-8.856c5.832,0,11.492,0,17.122,0c0.772,1.889,2.415,8.041,2.347,8.825
		c-1.815,0.064-3.645-0.029-5.444,0.053c-0.214,1.929-0.132,11.242,0.087,11.999c19.103,0,38.205,0,57.344,0
		c0-4.032,0-7.987,0-12.073c-2.334,0-4.591,0-6.882,0C374.152,357.556,374.152,353.888,374.152,350.093z M468.398,349.899
		c-0.031,0.305-0.064,0.483-0.064,0.661c-0.004,2.639-0.045,5.278,0.018,7.915c0.027,1.109,0.17,2.24,0.439,3.317
		c0.811,3.229,2.803,5.657,5.43,7.604c2.502,1.853,5.316,3.057,8.299,3.875c4.686,1.287,9.453,1.617,14.285,1.16
		c3.773-0.356,7.4-1.231,10.83-2.874c10.797-5.176,12.264-15.755,10.266-23.188c-1.082-4.034-3.682-6.974-7.066-9.286
		c-2.096-1.434-4.35-2.584-6.711-3.504c-2.893-1.126-5.834-2.132-8.723-3.266c-1.645-0.645-3.25-1.394-4.83-2.184
		c-1.137-0.569-2.121-1.379-2.877-2.426c-2.025-2.808-0.988-6.102,2.316-7.068c2.953-0.863,5.947-0.789,8.838,0.301
		c2.232,0.842,2.945,1.987,2.811,4.078c-0.068,1.068-0.012,2.144-0.012,3.265c5.035,0,9.928,0,14.838,0
		c0.035-0.203,0.08-0.341,0.08-0.48c-0.002-3.324,0.027-6.649-0.027-9.975c-0.027-1.865-0.768-3.509-1.898-4.978
		c-0.961-1.247-2.156-2.233-3.479-3.067c-1.848-1.165-3.848-1.994-5.938-2.597c-5.316-1.528-10.732-1.876-16.209-1.259
		c-3.176,0.357-6.256,1.121-9.146,2.532c-4.357,2.127-7.504,5.366-8.977,10.049c-1.219,3.876-1.311,7.819-0.389,11.772
		c1.029,4.417,3.65,7.711,7.332,10.235c2.365,1.624,4.939,2.857,7.6,3.904c2.855,1.122,5.748,2.151,8.6,3.287
		c1.439,0.575,2.865,1.212,4.211,1.975c0.895,0.508,1.748,1.188,2.424,1.961c1.955,2.247,1.484,5.334-1.027,6.926
		c-0.752,0.475-1.613,0.825-2.471,1.07c-2.328,0.664-4.711,0.647-7.094,0.328c-1.551-0.208-3.037-0.637-4.396-1.445
		c-1.613-0.964-2.512-2.336-2.457-4.273c0.031-1.156,0.01-2.313,0-3.471c-0.002-0.276-0.053-0.552-0.086-0.876
		C478.207,349.899,473.346,349.899,468.398,349.899z M469.391,306.808c-20.219,0-40.305,0-60.471,0c0,7.478,0,14.902,0,22.315
		c1.332,0.237,13.109,0.175,13.91-0.081c0-1.496-0.006-3.012,0.002-4.528c0.006-1.536-0.031-3.074,0.023-4.58
		c1.689-0.253,7.154-0.173,7.867,0.089c0,13.761,0,27.519,0,41.396c-2.479,0-4.885,0-7.324,0c0,4.074,0,8.027,0,12.009
		c10.535,0,20.996,0,31.473,0c0-4.031,0-7.983,0-12.061c-2.479,0-4.883,0-7.326,0c0-13.885,0-27.645,0-41.48
		c2.635,0,5.213,0,7.883,0c0,1.592,0,3.106,0,4.62c0,1.543,0,3.087,0,4.604c1.291,0.228,13.139,0.187,13.963-0.033
		C469.391,321.69,469.391,314.295,469.391,306.808z M401.938,272.199c0.217,1.642,0.148,21.114-0.084,22.001
		c-1.035,0-2.103,0-3.209,0c0,0.747,0,1.375,0,2.045c3.149,0,6.235,0,9.346,0c0-0.704,0-1.333,0-2.091c-1.131,0-2.195,0-3.295,0
		c0-3.038,0-5.945,0-8.966c1.396,0,2.725,0.023,4.053-0.007c1.219-0.028,2.049,0.497,2.635,1.552
		c0.824,1.485,1.703,2.938,2.561,4.404c0.729,1.248,1.469,2.49,2.188,3.744c0.535,0.93,1.324,1.402,2.393,1.415
		c0.291,0.003,0.578,0.021,0.867,0.022c3.254,0.001,6.508,0.002,9.76-0.001c0.316,0,0.633-0.038,0.992-0.062
		c0-0.696,0-1.325,0-2.104c-1.115,0-2.174,0-3.303,0c0.506-6.56,1.002-12.964,1.496-19.365c2.506,5.5,5.012,11.003,7.5,16.463
		c0.891,0,1.674,0,2.49,0c2.482-5.474,4.947-10.908,7.461-16.452c0.506,6.506,0.998,12.87,1.504,19.39c-1.176,0-2.234,0-3.303,0
		c0,0.778,0,1.41,0,2.051c3.125,0,6.176,0,9.213,0c0-0.712,0-1.342,0-2.062c-1.127,0-2.166,0-3.334,0
		c-0.574-7.337-1.143-14.591-1.723-21.984c1.207,0,2.27,0,3.396,0c0-0.76,0-1.391,0-2.077c-2.129,0-4.201,0-6.279,0
		c-2.738,6.178-5.451,12.3-8.182,18.458c-2.75-6.212-5.469-12.349-8.176-18.463c-2.129,0-4.174,0-6.273,0c0,0.694,0,1.322,0,2.09
		c1.129,0,2.191,0,3.387,0c-0.592,7.4-1.172,14.652-1.756,21.968c-1.52,0-2.891-0.022-4.26,0.008
		c-0.896,0.02-1.482-0.349-1.924-1.13c-1.229-2.169-2.502-4.313-3.766-6.462c-0.375-0.639-0.783-1.259-1.189-1.911
		c0.303-0.102,0.539-0.187,0.779-0.262c2.32-0.726,3.803-2.291,4.523-4.584c0.463-1.478,0.488-3.004,0.18-4.506
		c-0.521-2.531-2.066-4.184-4.572-4.83c-1.004-0.259-2.062-0.409-3.1-0.422c-3.83-0.049-7.662-0.022-11.494-0.017
		c-0.273,0-0.546,0.063-0.766,0.09c0,0.727,0,1.355,0,2.06C399.807,272.199,400.846,272.199,401.938,272.199z M470.748,294.194
		c0.004-6.653-0.006-13.12,0.086-19.59c0.488,0.591,0.863,1.198,1.275,1.779c4.494,6.338,8.994,12.672,13.492,19.007
		c0.146,0.207,0.268,0.438,0.445,0.612c0.143,0.139,0.35,0.287,0.533,0.295c0.707,0.034,1.416,0.014,2.207,0.014
		c0-2.814,0-5.482,0-8.151c0-2.638-0.002-5.277,0.004-7.916c0.004-2.659-0.023-5.318,0.018-8.095c1.217,0,2.283,0,3.357,0
		c0-0.752,0-1.383,0-2.037c-3.164,0-6.252,0-9.381,0c0,0.699,0,1.328,0,2.104c1.156,0,2.252,0,3.324,0
		c0.227,1.889,0.145,18.814-0.053,19.457c-5.088-7.172-10.207-14.386-15.346-21.63c-0.998,0-1.973-0.008-2.947,0.003
		c-0.996,0.011-1.998-0.05-2.959,0.04c0,0.763,0,1.393,0,2.145c1.148,0,2.211,0,3.25,0c0.215,1.543,0.154,21.083-0.082,21.975
		c-1.033,0-2.1,0-3.184,0c0,0.752,0,1.383,0,2.048c3.156,0,6.246,0,9.387,0c0-0.695,0-1.324,0-2.061
		C473.049,294.194,471.98,294.194,470.748,294.194z M332.937,272.191c0.221,1.619,0.156,21.127-0.083,22.018
		c-1.032,0-2.098,0-3.179,0c0,0.753,0,1.384,0,2.111c3.155-0.012,6.238,0.024,9.305-0.024c0-0.787,0-1.416,0-2.181
		c-1.146,0-2.206,0-3.246,0c-0.202-2.038-0.125-8.105,0.117-8.931c0.952,0,1.925,0,2.899,0c2.707,0.001,2.727,0.014,4.104,2.373
		c1.366,2.341,2.731,4.682,4.102,7.02c0.367,0.627,0.743,1.266,1.491,1.504c1.117,0.356,2.25,0.259,3.347,0.174
		c0-0.761,0-1.391,0-2.038c-0.376-0.023-0.664-0.06-0.951-0.054c-0.766,0.015-1.291-0.327-1.673-0.986
		c-1.646-2.838-3.312-5.666-4.987-8.525c0.253-0.084,0.521-0.177,0.792-0.265c2.224-0.724,3.68-2.216,4.405-4.427
		c0.507-1.548,0.555-3.128,0.215-4.708c-0.546-2.539-2.114-4.159-4.62-4.782c-1.041-0.259-2.137-0.395-3.21-0.409
		c-3.723-0.048-7.447-0.021-11.17-0.016c-0.31,0-0.62,0.049-0.903,0.072c0,0.731,0,1.36,0,2.072
		C330.811,272.191,331.85,272.191,332.937,272.191z M384.153,269.586c-7.545,0.001-13.385,5.854-13.389,13.421
		c-0.004,7.705,5.861,13.741,13.358,13.745c7.559,0.005,13.5-6.064,13.476-13.768C397.577,275.454,391.687,269.584,384.153,269.586z
		 M516.516,277.576c0-0.97-0.004-1.83,0-2.689c0.004-0.955-0.354-1.756-1.006-2.438c-0.768-0.8-1.709-1.323-2.723-1.732
		c-2.533-1.022-5.174-1.28-7.871-1.067c-5.258,0.413-9.65,3.841-11.268,8.812c-0.785,2.414-0.967,4.892-0.486,7.383
		c0.979,5.064,3.854,8.552,8.781,10.221c2.773,0.94,5.613,0.867,8.455,0.308c1.643-0.323,3.219-0.822,4.629-1.757
		c1.395-0.927,2.143-2.183,2.1-3.907c-0.047-1.769-0.008-3.541-0.014-5.311c-0.002-0.317-0.039-0.634-0.062-0.982
		c-2.648,0-5.227,0-7.809,0c0,0.712,0,1.342,0,2.101c1.82,0,3.568,0,5.4,0c0,1.389-0.014,2.647,0.004,3.906
		c0.014,0.995-0.406,1.765-1.215,2.283c-0.602,0.386-1.256,0.731-1.93,0.96c-2.117,0.718-4.32,0.958-6.523,0.656
		c-4.193-0.574-7.082-2.879-8.598-6.847c-0.736-1.932-0.844-3.945-0.648-5.98c0.43-4.51,3.416-8.078,7.695-9.191
		c1.846-0.48,3.717-0.489,5.59-0.184c1.184,0.193,2.324,0.521,3.363,1.144c1.068,0.641,1.729,1.503,1.621,2.831
		c-0.041,0.484,0.018,0.976,0.029,1.482C514.9,277.576,515.617,277.576,516.516,277.576z M309.04,294.187c0,0.794,0,1.426,0,2.058
		c6.42,0,12.759,0,19.136,0c0-1.863,0-3.649,0-5.492c-0.764,0-1.464,0-2.293,0c0,1.125,0,2.189,0,3.285c-3.683,0-7.235,0-10.775,0
		c-0.203-1.562-0.135-9.012,0.112-9.896c3.195,0,6.426,0,9.658,0c0-0.786,0-1.445,0-2.151c-3.324-0.051-6.56,0.027-9.772-0.044
		c-0.199-1.718-0.131-8.856,0.086-9.674c3.262,0,6.538,0,9.914,0c0.044,1.063,0.087,2.085,0.13,3.117c0.823,0,1.525,0,2.277,0
		c0-1.787,0-3.502,0-5.335c-6.208-0.007-12.355-0.033-18.459,0.016c0,0.794,0,1.423,0,2.18c1.151,0,2.211,0,3.249,0
		c0.239,1.888,0.149,21.102-0.114,21.938C311.18,294.187,310.142,294.187,309.04,294.187z M291.053,272.191
		c0.22,1.59,0.158,21.125-0.077,22.015c-1.034,0-2.101,0-3.186,0c0,0.752,0,1.383,0,2.034c3.155,0,6.239,0,9.336,0
		c0-0.71,0-1.339,0-2.088c-1.139,0-2.206,0-3.246,0c-0.233-1.476-0.172-7.417,0.087-8.244c0.367,0,0.76,0.002,1.153,0
		c1.987-0.011,3.978,0.034,5.962-0.049c3.441-0.142,5.913-2.021,6.896-5.135c0.479-1.516,0.54-3.074,0.239-4.611
		c-0.566-2.899-2.232-4.909-5.125-5.722c-0.891-0.251-1.854-0.323-2.786-0.331c-3.867-0.036-7.734-0.017-11.602-0.012
		c-0.31,0-0.62,0.047-0.898,0.07c0,0.733,0,1.363,0,2.074C288.93,272.191,289.969,272.191,291.053,272.191z M355.612,272.183
		c0.277,1.206,0.23,21.154-0.064,22.04c-1.023,0-2.089,0-3.23,0c0,0.445-0.01,0.768,0.003,1.089
		c0.013,0.311,0.049,0.621,0.076,0.934c3.245,0,6.404,0,9.59,0c0-0.704,0-1.333,0-2.112c-1.233,0-2.399,0-3.538,0
		c0-3.28,0-6.407,0-9.619c3.198-0.039,6.324,0.021,9.44-0.034c0-0.813,0-1.48,0-2.219c-3.2-0.046-6.324,0.022-9.468-0.04
		c0-3.352,0-6.559,0-9.753c1.082-0.256,8.384-0.22,9.32,0.081c0,0.973,0,1.996,0,3.015c0.818,0,1.485,0,2.237,0
		c0.035-1.862,0.035-3.645,0.005-5.455c-5.954,0-11.753,0-17.602,0c0,0.695,0,1.325,0,2.074
		C353.509,272.183,354.576,272.183,355.612,272.183z M463.391,270.12c-3.195,0-6.281,0-9.391,0c0,0.707,0,1.335,0,2.084
		c1.137,0,2.201,0,3.316,0c0,7.363,0,14.604,0,22.006c-1.15,0-2.244,0-3.389,0c0,0.483-0.01,0.807,0.002,1.13
		c0.012,0.308,0.045,0.616,0.068,0.904c2.029,0.195,8.613,0.117,9.344-0.089c0-0.642,0-1.271,0-2.028c-1.146,0-2.207,0-3.244,0
		c-0.225-1.596-0.156-21.089,0.092-21.974c1.031,0,2.1,0,3.201,0C463.391,271.423,463.391,270.816,463.391,270.12z"/>
	<path class="st1" d="M410.725,249.63c-0.402-2.447-0.779-4.719-1.162-7.055c0.277-0.101,0.496-0.22,0.729-0.257
		c7.268-1.181,14.539-2.349,21.807-3.527c7.34-1.19,14.68-2.39,22.018-3.585c3.172-0.517,6.34-1.044,9.514-1.542
		c1.443-0.227,2.826,0.028,4.047,0.836c0.656,0.434,1.314,0.932,1.801,1.538c2.594,3.226,3.662,6.904,3.076,11.027
		c-0.045,0.32-0.133,0.636-0.223,0.948c-0.467,1.618-0.469,1.618-2.125,1.618c-19.328,0-38.658,0-57.986,0
		C411.754,249.63,411.291,249.63,410.725,249.63z"/>
	<path class="st1" d="M557.636,339.837c-0.061,0.868-0.057,1.588-0.172,2.287c-0.111,0.673-0.275,1.354-0.535,1.982
		c-1.246,3.017-2.012,6.179-2.807,9.325c-0.422,1.672-0.715,3.4-0.83,5.119c-0.229,3.409-1.1,6.615-2.605,9.662
		c-2.311,4.675-5.041,9.103-8.009,13.377c-0.855,1.23-1.975,2.303-3.092,3.315c-1.518,1.375-3.354,1.581-5.285,1.026
		c-1.809-0.52-3.318-1.549-4.82-2.826c1.105-2.546,1.594-5.217,1.445-8.235c0.549,0.308,0.957,0.445,1.24,0.714
		c0.629,0.592,1.203,1.243,1.785,1.884c0.633,0.692,1.225,1.427,1.885,2.091c0.516,0.518,1.156,0.854,1.906,0.95
		c1.277,0.16,2.342-0.226,2.918-1.393c0.441-0.894,0.82-1.87,0.957-2.847c0.164-1.167,0.076-2.377,0.033-3.566
		c-0.039-1.018-0.645-1.702-1.586-1.976c-0.822-0.238-1.689-0.399-2.543-0.433c-1.551-0.06-3.107,0.021-4.66,0.004
		c-0.602-0.007-1.201-0.114-1.838-0.179c0-1.729,0-3.335,0-5.042c1.811,0.23,3.404-0.371,5.033-0.836
		c0.65-0.187,1.346-0.233,2.025-0.313c1.047-0.125,1.822,0.277,2.303,1.237c0.354,0.709,0.729,1.411,1.1,2.113
		c0.303,0.575,0.594,1.157,0.932,1.712c0.195,0.325,0.473,0.603,0.74,0.932c0.809-0.475,1.211-1.09,1.158-1.911
		c-0.035-0.566-0.145-1.152-0.35-1.679c-0.51-1.299-1.314-2.409-2.42-3.275c-0.711-0.558-1.459-1.067-2.174-1.617
		c-0.602-0.462-1.199-0.931-1.764-1.435c-0.629-0.559-0.885-1.216-0.742-2.12c0.283-1.778,0.955-3.396,1.746-4.986
		c0.562-1.132,1.137-2.259,1.645-3.414c0.391-0.89,0.678-1.821,0.604-2.889c-0.607-0.049-0.98,0.314-1.246,0.71
		c-0.42,0.626-0.836,1.28-1.092,1.982c-0.795,2.18-1.775,4.265-2.873,6.304c-0.322,0.603-0.566,1.249-0.812,1.889
		c-0.449,1.158-0.254,2.194,0.631,3.089c0.229,0.231,0.467,0.471,0.621,0.75c0.217,0.39,0.359,0.82,0.582,1.352
		c-1.637,0.425-3.107,0.716-4.627,0.466c-0.273-0.046-0.596-0.278-0.744-0.519c-0.486-0.791-0.494-1.645-0.1-2.483
		c0.123-0.259,0.289-0.507,0.48-0.719c1.98-2.182,2.77-4.872,3.238-7.679c0.385-2.295,0.402-4.604,0.041-6.91
		c-0.027-0.171-0.084-0.338-0.125-0.497c-0.898,0.008-1.137,0.171-1.238,0.854c-0.031,0.211-0.041,0.439,0.002,0.646
		c0.344,1.64,0.107,3.251-0.324,4.823c-0.477,1.737-1.062,3.445-1.621,5.16c-0.102,0.318-0.297,0.606-0.627,0.853
		c0-7.131,0-14.263,0-21.551c0.412,0.145,0.77,0.26,1.121,0.395c3.541,1.359,7.084,2.71,10.777,3.619
		c3.132,0.771,6.304,1.283,9.542,1.175c1.332-0.045,2.66-0.217,3.99-0.335C556.776,339.94,557.097,339.898,557.636,339.837z
		 M540.992,352.232c2.725,0.973,5.362,1.914,8.009,2.859c0.619-1.197,0.473-2.287-0.564-3.28c-1.355-1.3-3.013-1.847-4.868-1.642
		C542.389,350.3,541.455,350.863,540.992,352.232z M542.916,344.099c-0.436,1.735-0.012,2.56,1.564,3.067
		c0.65,0.21,1.321,0.378,1.997,0.487c2.053,0.334,3.707,1.139,4.377,3.32c0.225,0.733,0.83,1.046,1.607,0.964
		c0.385-1.578,0.027-2.858-1.24-3.757c-0.812-0.577-1.742-1.018-2.672-1.396C546.624,346.004,544.561,345.529,542.916,344.099z"/>
	<path class="st1" d="M511.379,249.563c-4.061,0-8.119,0-12.371,0c0.619-0.931,1.092-1.775,1.693-2.515
		c0.801-0.983,1.93-1.069,3.072-0.779c0.551,0.14,1.102,0.379,1.578,0.688c1.598,1.035,3.352,1.67,5.166,2.172
		c0.303,0.083,0.596,0.196,0.893,0.295C511.4,249.471,511.389,249.518,511.379,249.563z"/>
	<path class="st1" d="M404.578,249.577c-1.049,0-1.939,0-2.961,0c-0.369-1.791-0.737-3.578-1.125-5.459
		c0.943-0.205,1.812-0.394,2.806-0.61C403.852,245.491,404.158,247.465,404.578,249.577z"/>
	<path class="st1" d="M372.96,249.396c3.711-0.602,7.422-1.202,11.217-1.817c0.122,0.742,0.217,1.328,0.325,1.991
		c-3.905,0-7.689,0-11.474,0C373.005,249.512,372.983,249.455,372.96,249.396z"/>
	<path class="st1" d="M391.068,246.088c1.02-0.201,1.891-0.371,2.864-0.562c0.275,1.375,0.533,2.665,0.808,4.042
		c-1.039,0-1.931,0-2.965,0C391.548,248.45,391.316,247.31,391.068,246.088z"/>
	<path class="st1" d="M495.279,249.349c0.324-0.321,0.604-0.725,0.988-0.938c0.346-0.191,0.811-0.248,1.213-0.224
		c0.371,0.022,0.68,0.297,0.602,0.74c-0.064,0.368-0.244,0.688-0.691,0.693c-0.67,0.007-1.338,0.002-2.006,0.002
		C495.35,249.531,495.312,249.44,495.279,249.349z"/>
	<path class="st1" d="M374.152,350.093c0,3.795,0,7.463,0,11.263c2.291,0,4.547,0,6.882,0c0,4.086,0,8.041,0,12.073
		c-19.139,0-38.241,0-57.344,0c-0.22-0.757-0.301-10.07-0.087-11.999c1.8-0.082,3.629,0.012,5.444-0.053
		c0.068-0.784-1.575-6.937-2.347-8.825c-5.63,0-11.29,0-17.122,0c-0.814,2.861-1.646,5.785-2.52,8.856c2.009,0,3.838,0,5.731,0
		c0,4.06,0,8.012,0,12.03c-9.259,0-18.462,0-27.667,0c-0.229-0.748-0.313-9.994-0.094-12.006c1.76-0.089,3.553,0.015,5.429-0.062
		c6.068-18.2,12.128-36.376,18.194-54.568c6.369,0,12.649,0,19.055,0c6.055,18.162,12.116,36.341,18.187,54.547
		c3.81,0,7.559,0,11.3,0c0.238-0.804,0.288-41.181,0.042-42.434c-2.352,0-4.725,0-7.069,0c-0.259-0.857-0.306-10.86-0.073-12.105
		c0.299-0.018,0.615-0.052,0.932-0.052c10.591,0.002,21.183-0.017,31.775,0.031c3.215,0.015,6.424,0.243,9.574,1.004
		c8.062,1.946,13.331,7.949,14.239,16.196c0.357,3.239,0.164,6.428-0.781,9.548c-1.453,4.79-4.475,8.352-8.718,10.926
		c-0.367,0.224-0.732,0.447-1.181,0.72c0.263,0.194,0.442,0.35,0.643,0.473c1.552,0.945,2.733,2.224,3.566,3.842
		c1.588,3.084,3.247,6.132,4.776,9.244c0.891,1.812,2.275,2.628,4.223,2.643c0.828,0.007,1.656,0.001,2.457,0.001
		c0.25,0.846,0.338,9.944,0.129,12.029c-0.256,0.028-0.531,0.084-0.807,0.084c-3.65,0.005-7.301,0.036-10.952-0.017
		c-1.146-0.018-2.306-0.189-3.431-0.423c-1.733-0.358-3.112-1.327-4.119-2.786c-0.388-0.563-0.736-1.159-1.054-1.767
		c-2.648-5.056-5.284-10.12-7.928-15.179c-0.234-0.447-0.482-0.89-0.762-1.311c-0.54-0.814-1.297-1.358-2.239-1.611
		C378.38,349.854,376.295,350.133,374.152,350.093z M374.154,336.983c0.425,0.022,0.777,0.057,1.129,0.058
		c1.41,0.007,2.82,0.022,4.23-0.002c1.335-0.024,2.678-0.022,4.003-0.161c3.303-0.347,5.583-2.349,6.323-5.513
		c0.432-1.852,0.438-3.725,0.107-5.598c-0.513-2.908-2.218-4.7-5.069-5.423c-0.21-0.054-0.417-0.125-0.63-0.16
		c-3.265-0.562-6.555-0.371-9.841-0.327c-0.062,0.001-0.124,0.064-0.254,0.137C374.154,325.58,374.154,331.204,374.154,336.983z
		 M318.17,320.56c-0.879,6.571-3.407,12.703-4.929,19.093c1.062,0.249,8.885,0.234,9.795-0.011
		C321.521,333.276,319.122,327.13,318.17,320.56z"/>
	<path class="st1" d="M468.398,349.899c4.947,0,9.809,0,14.738,0c0.033,0.324,0.084,0.6,0.086,0.876c0.01,1.157,0.031,2.314,0,3.471
		c-0.055,1.938,0.844,3.31,2.457,4.273c1.359,0.809,2.846,1.237,4.396,1.445c2.383,0.319,4.766,0.336,7.094-0.328
		c0.857-0.245,1.719-0.596,2.471-1.07c2.512-1.592,2.982-4.679,1.027-6.926c-0.676-0.773-1.529-1.453-2.424-1.961
		c-1.346-0.763-2.771-1.399-4.211-1.975c-2.852-1.136-5.744-2.165-8.6-3.287c-2.66-1.047-5.234-2.28-7.6-3.904
		c-3.682-2.524-6.303-5.818-7.332-10.235c-0.922-3.953-0.83-7.896,0.389-11.772c1.473-4.683,4.619-7.922,8.977-10.049
		c2.891-1.411,5.971-2.175,9.146-2.532c5.477-0.617,10.893-0.27,16.209,1.259c2.09,0.603,4.09,1.432,5.938,2.597
		c1.322,0.834,2.518,1.82,3.479,3.067c1.131,1.469,1.871,3.112,1.898,4.978c0.055,3.325,0.025,6.65,0.027,9.975
		c0,0.14-0.045,0.277-0.08,0.48c-4.91,0-9.803,0-14.838,0c0-1.121-0.057-2.196,0.012-3.265c0.135-2.091-0.578-3.236-2.811-4.078
		c-2.891-1.09-5.885-1.164-8.838-0.301c-3.305,0.967-4.342,4.261-2.316,7.068c0.756,1.047,1.74,1.856,2.877,2.426
		c1.58,0.79,3.186,1.539,4.83,2.184c2.889,1.134,5.83,2.14,8.723,3.266c2.361,0.92,4.615,2.07,6.711,3.504
		c3.385,2.312,5.984,5.252,7.066,9.286c1.998,7.433,0.531,18.012-10.266,23.188c-3.43,1.643-7.057,2.518-10.83,2.874
		c-4.832,0.457-9.6,0.127-14.285-1.16c-2.982-0.818-5.797-2.022-8.299-3.875c-2.627-1.946-4.619-4.375-5.43-7.604
		c-0.27-1.077-0.412-2.208-0.439-3.317c-0.062-2.637-0.021-5.276-0.018-7.915C468.334,350.383,468.367,350.204,468.398,349.899z"/>
	<path class="st1" d="M469.391,306.808c0,7.487,0,14.883,0,22.27c-0.824,0.22-12.672,0.261-13.963,0.033c0-1.517,0-3.061,0-4.604
		c0-1.514,0-3.028,0-4.62c-2.67,0-5.248,0-7.883,0c0,13.836,0,27.596,0,41.48c2.443,0,4.848,0,7.326,0c0,4.077,0,8.029,0,12.061
		c-10.477,0-20.938,0-31.473,0c0-3.981,0-7.935,0-12.009c2.439,0,4.846,0,7.324,0c0-13.878,0-27.636,0-41.396
		c-0.713-0.262-6.178-0.342-7.867-0.089c-0.055,1.506-0.018,3.044-0.023,4.58c-0.008,1.517-0.002,3.032-0.002,4.528
		c-0.801,0.256-12.578,0.318-13.91,0.081c0-7.413,0-14.838,0-22.315C429.086,306.808,449.172,306.808,469.391,306.808z"/>
	<path class="st1" d="M401.938,272.199c-1.091,0-2.13,0-3.263,0c0-0.704,0-1.333,0-2.06c0.22-0.026,0.492-0.089,0.766-0.09
		c3.832-0.006,7.664-0.033,11.494,0.017c1.037,0.013,2.096,0.164,3.1,0.422c2.506,0.646,4.051,2.299,4.572,4.83
		c0.309,1.502,0.283,3.028-0.18,4.506c-0.721,2.293-2.203,3.859-4.523,4.584c-0.24,0.075-0.477,0.16-0.779,0.262
		c0.406,0.652,0.814,1.272,1.189,1.911c1.264,2.149,2.537,4.293,3.766,6.462c0.441,0.781,1.027,1.149,1.924,1.13
		c1.369-0.03,2.74-0.008,4.26-0.008c0.584-7.315,1.164-14.567,1.756-21.968c-1.195,0-2.258,0-3.387,0c0-0.768,0-1.396,0-2.09
		c2.1,0,4.145,0,6.273,0c2.707,6.115,5.426,12.251,8.176,18.463c2.73-6.158,5.443-12.279,8.182-18.458c2.078,0,4.15,0,6.279,0
		c0,0.686,0,1.316,0,2.077c-1.127,0-2.189,0-3.396,0c0.58,7.393,1.148,14.647,1.723,21.984c1.168,0,2.207,0,3.334,0
		c0,0.721,0,1.351,0,2.062c-3.037,0-6.088,0-9.213,0c0-0.642,0-1.273,0-2.051c1.068,0,2.127,0,3.303,0
		c-0.506-6.52-0.998-12.884-1.504-19.39c-2.514,5.544-4.979,10.978-7.461,16.452c-0.816,0-1.6,0-2.49,0
		c-2.488-5.46-4.994-10.963-7.5-16.463c-0.494,6.401-0.99,12.805-1.496,19.365c1.129,0,2.188,0,3.303,0c0,0.779,0,1.409,0,2.104
		c-0.359,0.024-0.676,0.062-0.992,0.062c-3.252,0.004-6.506,0.003-9.76,0.001c-0.289-0.001-0.576-0.019-0.867-0.022
		c-1.068-0.013-1.857-0.485-2.393-1.415c-0.719-1.253-1.459-2.496-2.188-3.744c-0.857-1.466-1.736-2.919-2.561-4.404
		c-0.586-1.055-1.416-1.581-2.635-1.552c-1.328,0.031-2.656,0.007-4.053,0.007c0,3.021,0,5.928,0,8.966c1.1,0,2.164,0,3.295,0
		c0,0.759,0,1.388,0,2.091c-3.111,0-6.197,0-9.346,0c0-0.67,0-1.299,0-2.045c1.106,0,2.175,0,3.209,0
		C402.086,293.313,402.154,273.841,401.938,272.199z M404.689,272.414c0,3.462,0,6.914,0,10.422c0.297,0.03,0.537,0.074,0.781,0.075
		c1.84,0.006,3.682,0.024,5.52-0.003c2.695-0.039,4.607-1.611,5.055-4.28c0.605-3.609-1.129-6.013-4.387-6.23
		c-2.262-0.15-4.537-0.085-6.805-0.113C404.826,272.284,404.799,272.326,404.689,272.414z"/>
	<path class="st1" d="M470.748,294.194c1.232,0,2.301,0,3.428,0c0,0.737,0,1.366,0,2.061c-3.141,0-6.23,0-9.387,0
		c0-0.666,0-1.296,0-2.048c1.084,0,2.15,0,3.184,0c0.236-0.891,0.297-20.432,0.082-21.975c-1.039,0-2.102,0-3.25,0
		c0-0.752,0-1.382,0-2.145c0.961-0.09,1.963-0.029,2.959-0.04c0.975-0.011,1.949-0.003,2.947-0.003
		c5.139,7.244,10.258,14.458,15.346,21.63c0.197-0.643,0.279-17.568,0.053-19.457c-1.072,0-2.168,0-3.324,0c0-0.777,0-1.406,0-2.104
		c3.129,0,6.217,0,9.381,0c0,0.654,0,1.285,0,2.037c-1.074,0-2.141,0-3.357,0c-0.041,2.777-0.014,5.436-0.018,8.095
		c-0.006,2.638-0.004,5.277-0.004,7.916c0,2.668,0,5.336,0,8.151c-0.791,0-1.5,0.02-2.207-0.014
		c-0.184-0.009-0.391-0.156-0.533-0.295c-0.178-0.174-0.299-0.405-0.445-0.612c-4.498-6.334-8.998-12.669-13.492-19.007
		c-0.412-0.582-0.787-1.188-1.275-1.779C470.742,281.074,470.752,287.541,470.748,294.194z"/>
	<path class="st1" d="M332.937,272.191c-1.086,0-2.125,0-3.248,0c0-0.712,0-1.34,0-2.072c0.283-0.023,0.593-0.072,0.903-0.072
		c3.724-0.004,7.448-0.032,11.17,0.016c1.073,0.014,2.169,0.15,3.21,0.409c2.506,0.623,4.074,2.243,4.62,4.782
		c0.34,1.58,0.292,3.161-0.215,4.708c-0.725,2.211-2.181,3.703-4.405,4.427c-0.27,0.088-0.539,0.18-0.792,0.265
		c1.675,2.859,3.34,5.687,4.987,8.525c0.382,0.659,0.908,1,1.673,0.986c0.287-0.006,0.574,0.031,0.951,0.054
		c0,0.646,0,1.276,0,2.038c-1.097,0.084-2.23,0.182-3.347-0.174c-0.748-0.238-1.124-0.877-1.491-1.504
		c-1.371-2.338-2.736-4.679-4.102-7.02c-1.377-2.359-1.397-2.372-4.104-2.373c-0.974,0-1.947,0-2.899,0
		c-0.243,0.825-0.319,6.893-0.117,8.931c1.04,0,2.1,0,3.246,0c0,0.765,0,1.394,0,2.181c-3.066,0.048-6.149,0.012-9.305,0.024
		c0-0.728,0-1.358,0-2.111c1.081,0,2.147,0,3.179,0C333.092,293.319,333.158,273.811,332.937,272.191z M335.71,282.835
		c0.329,0.029,0.607,0.074,0.886,0.075c1.767,0.007,3.533,0.019,5.3,0c2.849-0.031,4.795-1.678,5.195-4.495
		c0.437-3.079-0.859-5.738-4.421-6.016c-2.221-0.173-4.461-0.104-6.693-0.134c-0.09-0.001-0.182,0.095-0.267,0.143
		C335.71,275.876,335.71,279.326,335.71,282.835z"/>
	<path class="st1" d="M384.153,269.586c7.533-0.002,13.423,5.868,13.445,13.398c0.023,7.704-5.917,13.773-13.476,13.768
		c-7.497-0.004-13.362-6.041-13.358-13.745C370.768,275.441,376.608,269.588,384.153,269.586z M384.05,294.402
		c2.929-0.045,5.376-1.003,7.354-2.982c2.953-2.956,3.942-6.564,3.25-10.642c-0.758-4.474-4.286-7.926-8.827-8.709
		c-4.291-0.74-8.699,1.397-10.907,5.287c-2.432,4.285-1.799,9.943,1.566,13.622C378.543,293.226,381.124,294.357,384.05,294.402z"/>
	<path class="st1" d="M516.516,277.576c-0.898,0-1.615,0-2.484,0c-0.012-0.506-0.07-0.998-0.029-1.482
		c0.107-1.328-0.553-2.19-1.621-2.831c-1.039-0.623-2.18-0.95-3.363-1.144c-1.873-0.306-3.744-0.296-5.59,0.184
		c-4.279,1.114-7.266,4.681-7.695,9.191c-0.195,2.035-0.088,4.048,0.648,5.98c1.516,3.968,4.404,6.272,8.598,6.847
		c2.203,0.302,4.406,0.062,6.523-0.656c0.674-0.229,1.328-0.574,1.93-0.96c0.809-0.518,1.229-1.288,1.215-2.283
		c-0.018-1.258-0.004-2.517-0.004-3.906c-1.832,0-3.58,0-5.4,0c0-0.758,0-1.388,0-2.101c2.582,0,5.16,0,7.809,0
		c0.023,0.348,0.061,0.666,0.062,0.982c0.006,1.771-0.033,3.542,0.014,5.311c0.043,1.724-0.705,2.98-2.1,3.907
		c-1.41,0.935-2.986,1.434-4.629,1.757c-2.842,0.559-5.682,0.632-8.455-0.308c-4.928-1.669-7.803-5.157-8.781-10.221
		c-0.48-2.491-0.299-4.969,0.486-7.383c1.617-4.971,6.01-8.399,11.268-8.812c2.697-0.212,5.338,0.045,7.871,1.067
		c1.014,0.409,1.955,0.932,2.723,1.732c0.652,0.682,1.01,1.483,1.006,2.438C516.512,275.746,516.516,276.606,516.516,277.576z"/>
	<path class="st1" d="M309.04,294.187c1.102,0,2.14,0,3.148,0c0.263-0.836,0.353-20.05,0.114-21.938c-1.038,0-2.098,0-3.249,0
		c0-0.756,0-1.385,0-2.18c6.104-0.049,12.251-0.022,18.459-0.016c0,1.833,0,3.549,0,5.335c-0.752,0-1.454,0-2.277,0
		c-0.043-1.032-0.086-2.054-0.13-3.117c-3.376,0-6.651,0-9.914,0c-0.218,0.817-0.286,7.956-0.086,9.674
		c3.212,0.071,6.449-0.007,9.772,0.044c0,0.706,0,1.365,0,2.151c-3.231,0-6.462,0-9.658,0c-0.247,0.884-0.315,8.334-0.112,9.896
		c3.54,0,7.092,0,10.775,0c0-1.096,0-2.159,0-3.285c0.83,0,1.529,0,2.293,0c0,1.843,0,3.629,0,5.492c-6.376,0-12.715,0-19.136,0
		C309.04,295.612,309.04,294.981,309.04,294.187z"/>
	<path class="st1" d="M291.053,272.191c-1.084,0-2.123,0-3.246,0c0-0.711,0-1.341,0-2.074c0.278-0.022,0.588-0.069,0.898-0.07
		c3.868-0.004,7.735-0.023,11.602,0.012c0.932,0.008,1.895,0.08,2.786,0.331c2.893,0.813,4.558,2.823,5.125,5.722
		c0.301,1.537,0.24,3.095-0.239,4.611c-0.983,3.115-3.455,4.993-6.896,5.135c-1.985,0.083-3.975,0.038-5.962,0.049
		c-0.393,0.002-0.786,0-1.153,0c-0.26,0.827-0.321,6.769-0.087,8.244c1.041,0,2.107,0,3.246,0c0,0.749,0,1.378,0,2.088
		c-3.097,0-6.181,0-9.336,0c0-0.651,0-1.281,0-2.034c1.085,0,2.152,0,3.186,0C291.211,293.316,291.273,273.782,291.053,272.191z
		 M293.822,283.709c2.477-0.061,4.888,0.176,7.29-0.158c2.61-0.363,4.231-2.007,4.575-4.604c0.071-0.534,0.075-1.084,0.04-1.622
		c-0.154-2.333-1.495-4.652-4.453-4.893c-2.403-0.196-4.828-0.124-7.243-0.164c-0.059-0.001-0.118,0.071-0.208,0.13
		C293.822,276.116,293.822,279.852,293.822,283.709z"/>
	<path class="st1" d="M355.612,272.183c-1.036,0-2.103,0-3.23,0c0-0.75,0-1.379,0-2.074c5.848,0,11.648,0,17.602,0
		c0.029,1.81,0.029,3.593-0.005,5.455c-0.752,0-1.419,0-2.237,0c0-1.019,0-2.042,0-3.015c-0.936-0.301-8.238-0.337-9.32-0.081
		c0,3.194,0,6.401,0,9.753c3.145,0.062,6.269-0.006,9.468,0.04c0,0.739,0,1.406,0,2.219c-3.116,0.055-6.242-0.004-9.44,0.034
		c0,3.212,0,6.339,0,9.619c1.139,0,2.305,0,3.538,0c0,0.779,0,1.408,0,2.112c-3.187,0-6.346,0-9.59,0
		c-0.026-0.313-0.063-0.623-0.076-0.934c-0.013-0.321-0.003-0.644-0.003-1.089c1.141,0,2.207,0,3.23,0
		C355.842,293.337,355.889,273.389,355.612,272.183z"/>
	<path class="st1" d="M463.391,270.12c0,0.696,0,1.303,0,2.032c-1.102,0-2.17,0-3.201,0c-0.248,0.885-0.316,20.378-0.092,21.974
		c1.037,0,2.098,0,3.244,0c0,0.757,0,1.386,0,2.028c-0.73,0.207-7.314,0.284-9.344,0.089c-0.023-0.288-0.057-0.596-0.068-0.904
		c-0.012-0.323-0.002-0.646-0.002-1.13c1.145,0,2.238,0,3.389,0c0-7.402,0-14.643,0-22.006c-1.115,0-2.18,0-3.316,0
		c0-0.749,0-1.377,0-2.084C457.109,270.12,460.195,270.12,463.391,270.12z"/>
	<path class="st1" d="M540.992,352.232c0.463-1.369,1.396-1.933,2.576-2.062c1.855-0.205,3.513,0.342,4.868,1.642
		c1.037,0.993,1.184,2.083,0.564,3.28C546.354,354.146,543.717,353.205,540.992,352.232z"/>
	<path class="st1" d="M542.916,344.099c1.645,1.431,3.708,1.905,5.634,2.687c0.93,0.378,1.859,0.818,2.672,1.396
		c1.268,0.898,1.625,2.179,1.24,3.757c-0.777,0.082-1.383-0.23-1.607-0.964c-0.67-2.182-2.324-2.986-4.377-3.32
		c-0.676-0.109-1.347-0.277-1.997-0.487C542.904,346.658,542.48,345.834,542.916,344.099z"/>
	<path class="st1" d="M374.154,336.983c0-5.779,0-11.403,0-16.989c0.13-0.072,0.191-0.136,0.254-0.137
		c3.286-0.044,6.576-0.234,9.841,0.327c0.213,0.035,0.42,0.106,0.63,0.16c2.851,0.723,4.556,2.515,5.069,5.423
		c0.331,1.873,0.325,3.746-0.107,5.598c-0.74,3.164-3.02,5.166-6.323,5.513c-1.326,0.139-2.668,0.137-4.003,0.161
		c-1.41,0.024-2.82,0.009-4.23,0.002C374.931,337.04,374.579,337.006,374.154,336.983z"/>
	<path class="st1" d="M318.17,320.56c0.952,6.57,3.351,12.717,4.866,19.082c-0.91,0.245-8.732,0.26-9.795,0.011
		C314.763,333.263,317.291,327.131,318.17,320.56z"/>
	<path class="st1" d="M404.689,272.414c0.109-0.087,0.137-0.129,0.164-0.129c2.268,0.028,4.543-0.037,6.805,0.113
		c3.258,0.217,4.992,2.621,4.387,6.23c-0.447,2.669-2.359,4.241-5.055,4.28c-1.838,0.027-3.68,0.009-5.52,0.003
		c-0.244,0-0.484-0.045-0.781-0.075C404.689,279.327,404.689,275.876,404.689,272.414z"/>
	<path class="st1" d="M335.71,282.835c0-3.509,0-6.958,0-10.428c0.085-0.048,0.176-0.144,0.267-0.143
		c2.231,0.031,4.472-0.039,6.693,0.134c3.562,0.278,4.857,2.938,4.421,6.016c-0.4,2.817-2.346,4.464-5.195,4.495
		c-1.767,0.019-3.533,0.007-5.3,0C336.318,282.909,336.04,282.864,335.71,282.835z"/>
	<path class="st1" d="M384.05,294.402c-2.927-0.044-5.507-1.176-7.564-3.424c-3.365-3.679-3.999-9.336-1.566-13.622
		c2.208-3.89,6.617-6.027,10.907-5.287c4.542,0.783,8.069,4.235,8.827,8.709c0.692,4.078-0.298,7.686-3.25,10.642
		C389.427,293.398,386.979,294.357,384.05,294.402z"/>
	<path class="st1" d="M293.822,283.709c0-3.857,0-7.593,0-11.311c0.09-0.059,0.149-0.131,0.208-0.13
		c2.415,0.04,4.84-0.032,7.243,0.164c2.958,0.241,4.299,2.56,4.453,4.893c0.035,0.538,0.031,1.088-0.04,1.622
		c-0.343,2.597-1.965,4.241-4.575,4.604C298.71,283.885,296.299,283.648,293.822,283.709z"/>
</g>
<path class="st0" d="M716.5,471.5c0,6.627-5.373,12-12,12h-615c-6.627,0-12-5.373-12-12v-339c0-6.627,5.373-12,12-12h615
	c6.627,0,12,5.373,12,12V471.5z"/>
</svg>
