<?xml version="1.0" standalone="no"?>
<!DOCTYPE svg PUBLIC "-//W3C//DTD SVG 1.1//EN" "http://www.w3.org/Graphics/SVG/1.1/DTD/svg11.dtd" >
<svg xmlns="http://www.w3.org/2000/svg">
<metadata></metadata>
<defs>
<font id="vive_la_rivovivelarivoluzione" horiz-adv-x="741" >
<font-face units-per-em="2048" ascent="1638" descent="-410" />
<missing-glyph horiz-adv-x="376" />
<glyph horiz-adv-x="2048" />
<glyph horiz-adv-x="2048" />
<glyph unicode="&#xd;" horiz-adv-x="2048" />
<glyph unicode=" "  horiz-adv-x="376" />
<glyph unicode="&#x09;" horiz-adv-x="376" />
<glyph unicode="&#xa0;" horiz-adv-x="376" />
<glyph unicode="!" horiz-adv-x="608" d="M106 946q-2 70 0 277q2 285 3 381l307 12q0 -150 5 -389.5t5 -280.5q0 -57 -2 -72q-16 -143 -92 -411q-20 0 -74 -4q-43 -2 -61 0l-82 418zM111 258h315q4 -73 0 -266h-311q-6 150 -4 266z" />
<glyph unicode="&#x22;" d="M66 1292v318q0 10 7 18t17 8q66 2 133 4q96 -2 96 -45q1 -274 3 -307q0 -4 -37 -211l-191 -4q-29 143 -28 219zM399 1296v318q0 10 8.5 18t16.5 8q63 -2 194 2q27 0 27 -38q0 -275 2 -308q2 -41 -29 -215q-197 16 -198 29q-20 102 -21 186z" />
<glyph unicode="#" horiz-adv-x="1130" d="M106 889l19 92q133 0 117 -2q16 2 16 31l-2 628q244 6 244 -22v-606q0 -29 14 -31q20 -4 78 4q12 2 12 31l2 624l244 -22q-2 -90 -2 -600q0 -31 20 -31h62q47 2 49 2l12 -92q-43 -2 -125 -4q-18 0 -18 -23v-206q0 -27 16 -27q18 0 66.5 2t52.5 2l12 -92q-66 -2 -137 -8 q-10 -6 -10 -29v-453l-242 4v195q-2 158 -2 254q0 27 -14 27q-94 0 -74 2q-14 -2 -14 -27q0 -104 2 -272v-189l-242 4v193q-2 156 -2 254q0 31 -20 35q-55 0 -129 4l18 92l45 -4q37 -2 64 0q16 2 20 30q6 51 0 197q-2 29 -18 31q-57 0 -134 2zM500 856q0 -78 2 -203 q0 -23 16 -24q25 -4 80 6q6 2 6 29v190q0 29 -17.5 31t-72.5 2q-16 0 -14 -31z" />
<glyph unicode="$" horiz-adv-x="780" d="M-8 401q0 33 2 107l274 -2v-100q0 -82 33 -123l6 354q-180 180 -196 201q-106 125 -107 227v174q0 174 76 285q84 117 242 135l-3 33l66 -4v-27q139 -4 219 -105.5t80 -257.5v-202l-272 -2q-2 47 4 163q2 72 -31 111q0 -74 2 -209v-198q100 -109 201 -218 q109 -133 108 -237v-141q0 -166 -79.5 -269.5t-227.5 -118.5v-92h-90v95q-131 18 -217 126q-94 119 -90 295zM274 1143q0 -41 41 -99q4 213 4 330q-45 -31 -45 -125v-106zM387 549q0 -45 2 -137v-142q25 20 27 88l4 115q2 31 -33 76z" />
<glyph unicode="%" horiz-adv-x="1171" d="M-8 1004l2 491q0 168 235 168q23 0 61 -10.5t62 -12.5q184 -2 488 -6l24 -276q-184 -328 -272 -615q-104 -346 -105 -737l-176 10q0 338 148 770q39 111 223 549q23 53 -31 54q-14 0 -64 -2.5t-73 -2.5q-29 0 -35 -14v-27q-2 -88 -8 -339q-4 -176 -242 -177 q-238 0 -237 177zM186 1049q0 -41 9.5 -51.5t35.5 -10.5q41 0 41 60l2 385q0 63 -43 63t-43 -68zM608 145l13 463q2 113 65 158q51 37 160 37q123 0 180 -33q76 -43 74 -152l-13 -473q-4 -178 -241 -178q-242 0 -238 178zM805 180q0 -41 9 -49t36 -8q41 0 41 53l2 393 q0 61 -43 62q-27 0 -35 -11.5t-8 -50.5z" />
<glyph unicode="&#x26;" horiz-adv-x="905" d="M29 201l2 372q0 92 49 158q12 16 82 82q16 14 -2 43q-16 23 -33 43q-20 37 -21 88l7 459q2 207 288 205q291 -2 289 -203l-4 -406q-2 -135 -190 -219q-23 -10 -4 -43q31 -68 86 -186q12 -27 16 -27t10 13q10 25 41 186l219 -12q2 -109 -47 -275q-39 -135 -72 -196 q-12 -23 7 -58q27 -53 92 -188l-236 -27q-2 2 -18 41q-6 12 -15 12q-2 0 -34 -22q-111 -80 -246 -80q-96 0 -181 71.5t-85 168.5zM276 494q0 -180 3 -222q2 -55 57 -55q57 0 92 45q26 33 10 68q-39 92 -104 227q-16 27 -33 6q-25 -33 -25 -69zM332 1143q0 -31 33 -107 q6 -12 38 0q72 27 72 92l2 218q0 39 -19.5 57t-47.5 18q-72 -2 -74 -65z" />
<glyph unicode="'" horiz-adv-x="372" d="M66 1292v318q0 10 253 -15q1 -274 3 -307q0 -4 -37 -211l-191 -4q-29 143 -28 219z" />
<glyph unicode="(" horiz-adv-x="438" d="M-2 303v948q0 223 90 318q74 78 242 73l-4 -190l-9 2q-78 12 -77 -151l-4 -1031q0 -84 20 -110q16 -18 57 -19l-2 -184q-170 0 -243 86q-70 80 -70 258z" />
<glyph unicode=")" horiz-adv-x="471" d="M47 -59q0 201 8 198q78 -12 78 152l4 1030q0 84 -20 111q-16 18 -58 18l2 184q170 0 242 -83t72 -261v-948q0 -223 -90 -317q-74 -78 -238 -84z" />
<glyph unicode="," horiz-adv-x="434" d="M82 205l4 317q176 0 250 -2q37 1 37 -26q2 -74 -2 -457q0 -100 -115 -146q-72 -27 -158 -26l-10 158q49 0 87 23.5t38 68.5v73q0 18 -33 17q-74 -2 -98 0z" />
<glyph unicode="-" horiz-adv-x="620" d="M131 537v309q186 -6 395 0l-2 -314q-137 -4 -393 5z" />
<glyph unicode="." horiz-adv-x="512" d="M78 -27l12 326q209 2 264 2l8 -324q-43 0 -133 -2q-78 -2 -151 -2z" />
<glyph unicode="/" horiz-adv-x="540" d="M-10 -74q0 6 6 43q49 293 223 1002q127 522 195 768l145 2q-37 -164 -223 -942q-190 -791 -205 -838q-6 -23 -141 -35z" />
<glyph unicode="0" d="M-2 303v948q0 223 90 318q74 78 223 78q160 0 234 -68q94 -86 94 -303v-973q0 -344 -328 -344q-170 0 -243 86q-70 80 -70 258zM244 371q0 -84 20 -111q16 -18 58 -18q39 0 53 20q18 29 18 111v837q0 94 -18 125q-14 25 -53 25q-78 0 -78 -152v-837z" />
<glyph unicode="1" horiz-adv-x="532" d="M18 1470q63 45 211 142q2 2 25 20l197 -24l-5 -1592l-270 -14v1251v37q-70 0 -151 6z" />
<glyph unicode="2" d="M6 -4q-2 23 0 80q0 203 109 387q6 10 202 278q109 147 109 263v204q0 98 -6 127q-16 72 -76 72q-43 0 -55 -104q-4 -39 -4 -168v-56l-246 -35q-2 0 -4 179q-4 236 84 336q80 92 252 92q137 0 221 -82q78 -78 78 -197l2 -397q0 -180 -90 -328q-18 -29 -170 -211 q-92 -111 -93 -203q2 -8 25 -18q51 -4 141 0q119 6 146 6l-2 -248l-596 2q-25 0 -27 21z" />
<glyph unicode="3" horiz-adv-x="776" d="M4 297q4 127 2 180q4 10 266 -14q0 -18 2 -80q4 -156 78 -160q55 -2 70 68q6 35 8 180q4 231 -113 231q-12 0 -28.5 -2t-20.5 -2l-4 258q68 0 96 17q78 47 78 201q0 109 -14 153q-18 61 -70 66q-27 2 -52.5 -32t-25.5 -75q2 -57 3 -84l-242 -4q-2 57 0 209q0 137 104 195 q80 41 240 45q102 2 184 -48q98 -59 101 -161l4 -299q2 -90 -33 -176q-27 -66 -59 -97q-20 -20 -3 -37q33 -29 70 -112q45 -103 43 -189l-6 -335q-2 -102 -95 -162t-216 -60q-186 0 -275 72q-94 78 -92 254z" />
<glyph unicode="4" horiz-adv-x="884" d="M33 403v248l10 29l326 930h272q-2 -123 -2 -334q0 -135 2 -354q2 -207 2 -244q0 -27 12 -27q68 -4 129 0l-14 -264h-102q-27 0 -27 -20v-361l-283 -2v358q0 23 -24 23q-18 0 -139 -4q-100 -2 -142 0q-20 2 -20 22zM199 670q-6 -18 18 -21q35 -2 123 2q16 0 16 23 q4 254 4 436q0 37 -6 37q-12 0 -18 -35q-41 -135 -137 -442z" />
<glyph unicode="5" horiz-adv-x="790" d="M4 408q-2 45 0 65l256 -8v-64q0 -123 86 -122q78 0 78 114v291q0 47 -26.5 88t-61.5 41q-68 0 -76 -80q-2 -27 -35 -31q-86 -10 -192 3q-23 2 -23 28v844q0 14 5 20.5t18 6.5q205 -2 588 -2q23 -229 16 -261h-420q-25 0 -24 -26v-135q-2 -100 -3 -154q0 -41 15 -22 q66 111 217 104q143 -6 197.5 -90t54.5 -303v-459q0 -166 -82 -234.5t-246 -62.5q-342 12 -342 449z" />
<glyph unicode="6" horiz-adv-x="765" d="M4 272l4 1006q0 190 75 276t249 86q319 0 315 -448l-231 -4v41q0 63 -21.5 100t-46.5 39q-88 8 -90 -147q-6 -176 -2 -256q2 -29 10 -29q4 0 13 6q51 43 124 43q102 0 179 -72q86 -80 86 -204l2 -463q2 -279 -365 -279q-117 0 -203 76q-98 86 -98 229zM266 350 q0 -43 15 -88q20 -57 53 -55q100 4 100 108v349q0 72 -96 71q-25 0 -48.5 -41t-23.5 -86v-258z" />
<glyph unicode="7" horiz-adv-x="788" d="M53 1331l4 311q82 -4 308 0q293 4 294 5q41 0 41 -39v-142q0 -43 -12 -67q-131 -264 -217 -621q-90 -371 -90 -780l-285 -2q0 221 35 416q23 117 100 413q33 125 91 289q35 96 69 193q8 25 -39 24h-299z" />
<glyph unicode="8" horiz-adv-x="763" d="M12 272v387q0 82 43 132q20 23 84 63q-59 37 -78 57q-39 49 -38 142l2 321q2 281 323 281q143 0 230 -78q92 -84 90 -238l-2 -305q0 -121 -107 -186q68 -37 80 -51q45 -45 45 -133v-377q0 -334 -338 -328q-334 4 -334 313zM281 240q0 -31 20.5 -51.5t46.5 -20.5 q27 0 48.5 22.5t21.5 53.5v385q0 70 -68 69q-70 0 -69 -71v-387zM283 1075q0 -33 19.5 -54.5t47.5 -21.5q25 0 44.5 22.5t19.5 53.5v268q0 29 -19.5 49.5t-44.5 20.5q-68 0 -67 -72v-266z" />
<glyph unicode="9" horiz-adv-x="765" d="M18 1372q-2 279 365 279q117 0 203 -76q98 -86 98 -229l-4 -1006q0 -190 -75 -276.5t-249 -86.5q-184 0 -266 183q-55 121 -51 262l235 2q0 -12 -2 -35q-4 -63 18.5 -100t49.5 -39q90 -8 90 147q2 158 0 248q0 35 -10 35q-6 0 -10 -4q-68 -49 -144 -49q-100 0 -170 75 q-76 80 -76 207zM254 954q0 -72 96 -71q25 0 48.5 41t23.5 86v258q0 43 -14 88q-20 57 -54 55q-100 -4 -100 -108v-349z" />
<glyph unicode=":" horiz-adv-x="512" d="M104 1047q10 -8 7 272l317 27q2 -58 2 -259q0 -45 -27 -45zM111 254l317 27q2 -57 2 -258q-315 -49 -317 -29t-2 260z" />
<glyph unicode=";" horiz-adv-x="434" d="M49 1309l318 26q2 -57 2 -258q-315 -49 -317.5 -28.5t-2.5 260.5zM82 205l4 317q176 0 250 -2l41 2q-2 -102 -6 -485q0 -100 -115 -146q-72 -27 -158 -26l-10 158q49 0 87 23.5t38 68.5v73q0 18 -33 17q-74 -2 -98 0z" />
<glyph unicode="?" horiz-adv-x="802" d="M-4 1178q2 16 4 170q4 172 90 239q78 61 262 62q133 0 230.5 -68.5t95.5 -179.5l-4 -434q-2 -135 -76 -230q-59 -76 -123 -84q-20 -2 -20 -35q0 -10 2 -67v-72t-221 -6q-2 45 -3 379q0 29 27 35q39 8 53 14q29 12 60 41q45 41 41 352q-2 109 -84 109q-84 0 -88 -105 l-4 -118q-244 -14 -242 -2zM217 12q2 94 0 230q-2 20 254 -4q4 -70 2 -244q-256 -16 -256 18z" />
<glyph unicode="A" horiz-adv-x="915" d="M27 0q70 418 139 838l164 809q56 3 111 3t110 -3l151 -811q66 -427 129 -867l-286 4l-21 133q-20 100 -30 173q-2 14 -23 14h-80q-14 0 -18 -14q-18 -123 -49 -285zM395 551q-3 -6 19 -9q13 -2 25 -2q8 0 16 1q20 2 20 10q-31 233 -39 233q-10 0 -24 -100 q-8 -66 -17 -133z" />
<glyph unicode="B" horiz-adv-x="808" d="M4 1655l397 4q123 0 213 -91q88 -88 88 -204v-8l-2 -217q-2 -121 -24 -176q-31 -74 -127 -132q68 -33 121 -106q59 -82 59 -168v-346q0 -145 -139 -211l-584 4zM268 1380q2 -102 2 -374q0 -27 15 -27q6 -1 11 -1q36 0 76 22q46 26 48 73l4 187v17q0 57 -12 81 q-20 43 -84 43q-18 1 -29.5 1t-17.5 -1q-12 -2 -13 -21zM279 274q0 -26 20 -26h2h29q104 0 104 171v7l-2 121q-2 117 -139 117q-14 0 -14 -23v-367z" />
<glyph unicode="C" horiz-adv-x="765" d="M12 506v790q0 109 60 217q90 166 272 166q195 0 279 -147q65 -108 65 -409v-27l-268 2v184q-11 99 -81 99q-5 0 -11 -1h-3q-65 0 -65 -356v-582q0 -57 16 -108q23 -72 68 -72q80 0 80 215q0 25 2 135q154 0 260 -2q1 -44 1 -92t-1 -100q0 -188 -80 -309 q-90 -137 -262 -138q-201 0 -278 172q-53 119 -54 363z" />
<glyph unicode="D" horiz-adv-x="763" d="M25 1620v29q74 6 241 6h90h4q179 0 267 -178q67 -139 67 -362v-7v-557q0 -552 -339 -552q-14 0 -29 1h-295zM270 1352q0 -8 2 -412v-647q0 -31 15 -31h2q48 0 95 112q48 114 48 255v512q0 86 -46 162.5t-99 76.5q-16 0 -17 -28z" />
<glyph unicode="E" horiz-adv-x="641" d="M4 1618q0 22 21 22h2q53 1 127 1q148 0 383 -3l8 -282h-236q-31 0 -30 -23q0 -10 -3 -145q-1 -58 -1 -101t1 -71q0 -23 25 -27q26 -4 89 -4q42 0 102 2v-328h-185q-20 0 -24 -30q-6 -54 -6 -168q0 -68 2 -158q0 -27 36 -31q80 2 226 4l2 -301q-120 -6 -231 -6 q-150 0 -283 11q-23 2 -23 38z" />
<glyph unicode="F" horiz-adv-x="684" d="M-4 20v1590q0 30 31 30h2q47 1 121 1t176 -1l266 -2l-4 -258q-92 0 -252 -2q-25 -2 -25 -28v-361q0 -31 21 -31h26q55 0 181 5l10 -316q-38 1 -91.5 1t-121.5 -1q-23 -2 -25 -26q-3 -48 -3 -159q0 -55 1 -126q4 -301 4 -313q-167 -15 -246 -15q-71 0 -71 12z" />
<glyph unicode="G" horiz-adv-x="845" d="M25 393l4 836q2 254 84 344q74 80 264 80q227 0 309 -115q61 -82 64 -276q4 -136 4 -220v-49l-277 -2q-4 121 -8 240q-14 164 -76 164q-76 0 -76 -162v-862q0 -33 21 -78q25 -55 57 -55q82 0 82 221v104q0 27 -16 25h-49l12 248q109 0 301 -2l31 -35v1v-765l-121 -15 q-45 -45 -240 -45q-211 0 -297 107q-73 90 -73 295v16z" />
<glyph unicode="H" horiz-adv-x="776" d="M4 1606h275q0 2 -5 -254q-2 -98 -2 -173.5t2 -129.5q0 -18 2 -25q2 -12 13 -14q21 -6 47 -6q30 0 67 8q23 4 23 37v565l254 -8q2 -86 2 -239q0 -230 -4 -611q-6 -676 -6 -733l-244 8l2 633q-2 27 -27 30q-10 2 -37.5 2t-72.5 -2q-16 0 -19 -30q0 -50 1 -106 q0 -223 -7 -531h-260q-11 286 -11 741q0 365 7 838z" />
<glyph unicode="I" horiz-adv-x="382" d="M2 41q3 461 3 992q0 265 -1 548q0 10 72 10t215 -10v-1548z" />
<glyph unicode="J" horiz-adv-x="768" d="M-8 629l254 -8q2 -19 2 -67t-2 -124q0 -182 88 -182h8q88 8 88 182v1143h262v-119q0 -264 -4 -1030q0 -186 -94 -318q-95 -135 -247 -135h-9q-143 4 -238 99q-102 100 -104 264q-5 160 -5 238q0 39 1 57z" />
<glyph unicode="K" horiz-adv-x="778" d="M-4 1612h262q-8 -309 -8 -406v-30q0 -14 6 -15q6 2 10 19q31 127 111 428l295 4q0 -6 -2 -13q-43 -88 -164 -376q-119 -288 -119 -309q0 -25 309 -898l-315 -8q-27 94 -115 445q-8 33 -12 34q-2 0 -4 -34q-5 -84 -5 -217q0 -99 3 -226l-250 8z" />
<glyph unicode="L" horiz-adv-x="641" d="M-2 1602q104 4 171 4q116 0 116 -13q4 -54 4 -243q0 -126 -2 -312q-2 -202 -2 -355q0 -229 4 -347q2 -47 47 -49h213l-4 -299q12 0 -271 -4q-57 -1 -103 -1q-91 0 -136 5q-31 4 -31 49q-7 743 -7 1223q0 192 1 342z" />
<glyph unicode="M" horiz-adv-x="1175" d="M16 389q0 256 13 750q8 353 8 439v24q-1 10 92 10q73 0 203 -6q23 -63 200 -643q16 -51 27 -52q12 0 27 52q76 242 194 647l291 -17l16 -708q9 -401 9 -648q0 -114 -2 -196q0 -35 -2 -43l-314 22q-3 35 -3 108q0 36 1 81q0 90 2 235q2 139 2 150q0 43 -8 43 q-10 0 -18 -35q-16 -74 -39 -270q-27 -236 -35 -295l-246 -4q-20 96 -43 329q-25 217 -31 244q-10 41 -22 41q-8 0 -8 -43q0 -489 2 -571l-307 12q-8 121 -9 344z" />
<glyph unicode="N" horiz-adv-x="823" d="M-10 883q4 559 14 710l307 4q102 -496 144 -639q16 -55 26 -55q12 0 12 43q0 9 -1 21q-8 166 -9 630h275l-10 -1564l-287 -17q-68 307 -158 697q-8 31 -24 30q-12 0 -13 -43v-290q-2 -246 -2 -383l-270 -9q-5 191 -5 512q0 160 1 353z" />
<glyph unicode="O" d="M-2 303v948q0 223 90 318q74 78 223 78q160 0 234 -68q94 -86 94 -303v-973q0 -344 -328 -344q-170 0 -243 86q-70 80 -70 258zM258 393q0 -68 14.5 -85t49.5 -17q57 0 57 104v830q0 121 -57 121q-63 0 -64 -123v-830z" />
<glyph unicode="P" horiz-adv-x="688" d="M2 1620q0 23 35 25q31 1 75 1q78 0 197 -4q121 0 221 -71q111 -76 111 -191v-491q0 -150 -131 -232q-96 -59 -207 -59q-27 0 -27 -29q0 -186 -4 -559l-266 -8zM258 1354q0 -154 2 -445q0 -18 21 -26q4 -2 9 -2q7 0 17 4q49 4 64 30q24 47 26 205v33q0 112 -12 166 q-12 47 -35 57q-23 2 -43 4q-8 0 -31 4h-3q-6 0 -11 -8q-4 -8 -4 -16v-6z" />
<glyph unicode="Q" horiz-adv-x="716" d="M10 352v969q0 338 309 338q322 0 324 -311l4 -988q0 -100 -26 -196q-49 -174 -168 -176q-6 0 -6 -1q0 -5 200 -40l-33 -205q-39 0 -438 94q-25 8 -25 37q0 40 48 119q-72 2 -127 94q-61 104 -62 266zM254 436q0 -166 76 -166q71 0 71 168v789q0 94 -18 125q-13 22 -50 22 h-3q-76 0 -76 -149v-789z" />
<glyph unicode="R" horiz-adv-x="780" d="M-6 1655l350 -2q127 0 215 -54q96 -59 96 -157l-2 -404q0 -100 -59 -172q-41 -51 -92 -69q-16 -6 -17 -13q0 -3 201 -751l-272 -4l-119 618q-14 4 -25 0q-14 -6 -14 -45q0 -322 -2 -565h-258zM266 999q0 -57 29 -59q5 -1 11 -1t13 1q45 0 62 45q25 66 25 283 q0 129 -83 129h-8q-20 -2 -30 -2q-18 0 -19 -35v-361z" />
<glyph unicode="S" horiz-adv-x="780" d="M-8 401q0 33 2 107l274 -2v-100q0 -147 80 -148q63 0 68 100l4 115q2 51 -107 158q-182 180 -200 203q-109 127 -109 231v174q0 186 88 297q94 121 275 125h6q143 0 229 -102q82 -98 82 -261v-202l-272 -2v28q0 48 4 135v9q0 38 -16 76q-18 42 -46 42q-80 0 -80 -135 v-106q0 -63 109 -180q102 -109 205 -218q109 -135 108 -239v-141q0 -180 -92 -285t-260 -105q-145 0 -248 113q-104 116 -104 296v17z" />
<glyph unicode="T" horiz-adv-x="802" d="M33 1370l4 275q127 1 285 1t348 -1l-2 -277q-14 0 -62 2h-74q-43 0 -43 -31l5 -1321l-283 2l-2 1321q0 29 -25 29q-152 0 -151 0z" />
<glyph unicode="U" horiz-adv-x="819" d="M6 375v1233l281 8v-637q-2 -567 -2 -553q0 -160 84 -160q74 0 73 160v1180l281 2l-4 -1268q0 -119 -51 -209q-88 -156 -301 -156q-240 0 -312 115q-49 74 -49 285z" />
<glyph unicode="V" horiz-adv-x="880" d="M33 1616l307 -6q6 -29 27.5 -254.5t52.5 -364.5q8 -33 16 -33t15 35q20 127 43 353q18 205 30 266l297 -8q-63 -352 -127 -801q-76 -528 -119 -791h-319q-41 260 -111 805q-63 508 -112 799z" />
<glyph unicode="W" horiz-adv-x="1333" d="M10 1614q259 -40 291 -40q4 0 4 1q82 -713 92 -713q8 0 15 25q12 199 73 727l277 -6q29 -272 82 -777q2 -31 12 -30q16 0 23 39q20 131 54 441t38 333l274 -2q-43 -340 -119 -772q-137 -770 -145 -815l-260 -7q-33 332 -80 740q-6 41 -14 41t-17 -39q-14 -80 -71 -707h-4 q-28 0 -279 -30q-57 336 -115 669q-96 575 -131 922z" />
<glyph unicode="X" horiz-adv-x="870" d="M-29 12q0 8 4 17q129 311 289 782q4 12 4 27q0 31 -16 77l-219 671q0 10 83 10q69 0 197 -7q12 -41 76 -282q14 -55 25 -56q8 0 18 33q29 117 80 305l303 8q-43 -139 -268 -690q-12 -31 -13 -60q0 -18 5 -36q65 -250 280 -766q14 -33 15 -47l-334 31q-29 106 -86 311 q-16 59 -23 59q-8 0 -24 -69q-14 -90 -64 -285q-14 -41 -16 -47z" />
<glyph unicode="Y" horiz-adv-x="776" d="M-14 1612l297 -8q20 -92 57 -269q16 -75 25 -75q2 0 16 75q16 92 51 269h289q0 -11 -4 -19q-35 -92 -107 -315q-90 -283 -110 -381q-2 -9 -2 -28.5t2 -49.5q-1 -159 -1 -351t1 -415l-291 -4q6 348 8 778q0 16 -6 58q-84 309 -225 735z" />
<glyph unicode="Z" horiz-adv-x="772" d="M6 193q0 27 10 55q18 51 19 53l264 979q6 25 0 45q-6 23 -25 23q-62 -3 -115 -3t-98 3l-8 290q35 -1 108 -1t183 1q223 4 283 9h7q46 0 50 -48q2 -28 2 -55q0 -44 -6 -84l-29 -108l-268 -1020q-4 -21 -4 -35q0 -25 14 -27q21 -2 62 -2q69 0 194 6l23 -303h-19 q-258 5 -441 5q-92 0 -165 -1q-29 0 -31 50q0 27 -6 84q-4 51 -4 84z" />
<glyph unicode="[" horiz-adv-x="479" d="M2 41q4 692 2 1540q0 20 4 37q6 25 23 24q133 0 311 -4l14 -141q-41 2 -90 -2q-20 -2 -20 -43l-2 -1284q0 -31 22 -33q33 -2 86 -8l-10 -152q-168 -10 -299 0q-41 4 -41 66z" />
<glyph unicode="]" horiz-adv-x="489" d="M47 1640q203 12 334 2q41 -4 41 -65q-4 -692 -2 -1540q0 -20 -4 -37q-6 -25 -23 -25q-133 0 -311 5l-14 141q41 -2 90 2q20 2 20 43q0 178 4 749q2 508 2 562q0 31 -22 32h-86z" />
<glyph unicode="a" horiz-adv-x="915" d="M27 0q70 418 139 838l164 809q56 3 111 3t110 -3l151 -811q66 -427 129 -867l-286 4l-21 133q-20 100 -30 173q-2 14 -23 14h-80q-14 0 -18 -14q-18 -123 -49 -285zM395 551q-3 -6 19 -9q13 -2 25 -2q8 0 16 1q20 2 20 10q-31 233 -39 233q-10 0 -24 -100 q-8 -66 -17 -133z" />
<glyph unicode="b" horiz-adv-x="808" d="M4 1655l397 4q123 0 213 -91q88 -88 88 -204v-8l-2 -217q-2 -121 -24 -176q-31 -74 -127 -132q68 -33 121 -106q59 -82 59 -168v-346q0 -145 -139 -211l-584 4zM268 1380q2 -102 2 -374q0 -27 15 -27q6 -1 11 -1q36 0 76 22q46 26 48 73l4 187v17q0 57 -12 81 q-20 43 -84 43q-18 1 -29.5 1t-17.5 -1q-12 -2 -13 -21zM279 274q0 -26 20 -26h2h29q104 0 104 171v7l-2 121q-2 117 -139 117q-14 0 -14 -23v-367z" />
<glyph unicode="c" horiz-adv-x="765" d="M12 506v790q0 109 60 217q90 166 272 166q195 0 279 -147q65 -108 65 -409v-27l-268 2v184q-11 99 -81 99q-5 0 -11 -1h-3q-65 0 -65 -356v-582q0 -57 16 -108q23 -72 68 -72q80 0 80 215q0 25 2 135q154 0 260 -2q1 -44 1 -92t-1 -100q0 -188 -80 -309 q-90 -137 -262 -138q-201 0 -278 172q-53 119 -54 363z" />
<glyph unicode="d" horiz-adv-x="763" d="M25 1620v29q74 6 241 6h90h4q179 0 267 -178q67 -139 67 -362v-7v-557q0 -552 -339 -552q-14 0 -29 1h-295zM270 1352q0 -8 2 -412v-647q0 -31 15 -31h2q48 0 95 112q48 114 48 255v512q0 86 -46 162.5t-99 76.5q-16 0 -17 -28z" />
<glyph unicode="e" horiz-adv-x="641" d="M4 1618q0 22 21 22h2q53 1 127 1q148 0 383 -3l8 -282h-236q-31 0 -30 -23q0 -10 -3 -145q-1 -58 -1 -101t1 -71q0 -23 25 -27q26 -4 89 -4q42 0 102 2v-328h-185q-20 0 -24 -30q-6 -54 -6 -168q0 -68 2 -158q0 -27 36 -31q80 2 226 4l2 -301q-120 -6 -231 -6 q-150 0 -283 11q-23 2 -23 38z" />
<glyph unicode="f" horiz-adv-x="684" d="M-4 20v1590q0 30 31 30h2q47 1 121 1t176 -1l266 -2l-4 -258q-92 0 -252 -2q-25 -2 -25 -28v-361q0 -31 21 -31h26q55 0 181 5l10 -316q-38 1 -91.5 1t-121.5 -1q-23 -2 -25 -26q-3 -48 -3 -159q0 -55 1 -126q4 -301 4 -313q-167 -15 -246 -15q-71 0 -71 12z" />
<glyph unicode="g" horiz-adv-x="845" d="M25 393l4 836q2 254 84 344q74 80 264 80q227 0 309 -115q61 -82 64 -276q4 -136 4 -220v-49l-277 -2q-4 121 -8 240q-14 164 -76 164q-76 0 -76 -162v-862q0 -33 21 -78q25 -55 57 -55q82 0 82 221v104q0 27 -16 25h-49l12 248q109 0 301 -2l31 -35v1v-765l-121 -15 q-45 -45 -240 -45q-211 0 -297 107q-73 90 -73 295v16z" />
<glyph unicode="h" horiz-adv-x="776" d="M4 1606h275q0 2 -5 -254q-2 -98 -2 -173.5t2 -129.5q0 -18 2 -25q2 -12 13 -14q21 -6 47 -6q30 0 67 8q23 4 23 37v565l254 -8q2 -86 2 -239q0 -230 -4 -611q-6 -676 -6 -733l-244 8l2 633q-2 27 -27 30q-10 2 -37.5 2t-72.5 -2q-16 0 -19 -30q0 -50 1 -106 q0 -223 -7 -531h-260q-11 286 -11 741q0 365 7 838z" />
<glyph unicode="i" horiz-adv-x="382" d="M2 41q3 461 3 992q0 265 -1 548q0 10 72 10t215 -10v-1548z" />
<glyph unicode="j" horiz-adv-x="768" d="M-8 629l254 -8q2 -19 2 -67t-2 -124q0 -182 88 -182h8q88 8 88 182v1143h262v-119q0 -264 -4 -1030q0 -186 -94 -318q-95 -135 -247 -135h-9q-143 4 -238 99q-102 100 -104 264q-5 160 -5 238q0 39 1 57z" />
<glyph unicode="k" horiz-adv-x="778" d="M-4 1612h262q-8 -309 -8 -406v-30q0 -14 6 -15q6 2 10 19q31 127 111 428l295 4q0 -6 -2 -13q-43 -88 -164 -376q-119 -288 -119 -309q0 -25 309 -898l-315 -8q-27 94 -115 445q-8 33 -12 34q-2 0 -4 -34q-5 -84 -5 -217q0 -99 3 -226l-250 8z" />
<glyph unicode="l" horiz-adv-x="641" d="M-2 1602q104 4 171 4q116 0 116 -13q4 -54 4 -243q0 -126 -2 -312q-2 -202 -2 -355q0 -229 4 -347q2 -47 47 -49h213l-4 -299q12 0 -271 -4q-57 -1 -103 -1q-91 0 -136 5q-31 4 -31 49q-7 743 -7 1223q0 192 1 342z" />
<glyph unicode="m" horiz-adv-x="1175" d="M16 389q0 256 13 750q8 353 8 439v24q-1 10 92 10q73 0 203 -6q23 -63 200 -643q16 -51 27 -52q12 0 27 52q76 242 194 647l291 -17l16 -708q9 -401 9 -648q0 -114 -2 -196q0 -35 -2 -43l-314 22q-3 35 -3 108q0 36 1 81q0 90 2 235q2 139 2 150q0 43 -8 43 q-10 0 -18 -35q-16 -74 -39 -270q-27 -236 -35 -295l-246 -4q-20 96 -43 329q-25 217 -31 244q-10 41 -22 41q-8 0 -8 -43q0 -489 2 -571l-307 12q-8 121 -9 344z" />
<glyph unicode="n" horiz-adv-x="823" d="M-10 883q4 559 14 710l307 4q102 -496 144 -639q16 -55 26 -55q12 0 12 43q0 9 -1 21q-8 166 -9 630h275l-10 -1564l-287 -17q-68 307 -158 697q-8 31 -24 30q-12 0 -13 -43v-290q-2 -246 -2 -383l-270 -9q-5 191 -5 512q0 160 1 353z" />
<glyph unicode="o" d="M-2 303v948q0 223 90 318q74 78 223 78q160 0 234 -68q94 -86 94 -303v-973q0 -344 -328 -344q-170 0 -243 86q-70 80 -70 258zM258 393q0 -68 14.5 -85t49.5 -17q57 0 57 104v830q0 121 -57 121q-63 0 -64 -123v-830z" />
<glyph unicode="p" horiz-adv-x="688" d="M2 1620q0 23 35 25q31 1 75 1q77 0 197 -4q121 0 221 -71q111 -76 111 -191v-491q0 -150 -131 -232q-96 -59 -207 -59q-27 0 -27 -29q0 -186 -4 -559l-266 -8zM258 1354q0 -154 2 -445q0 -18 21 -26q4 -2 9 -2q7 0 17 4q49 4 64 30q24 47 26 205v33q0 112 -12 166 q-12 47 -35 57q-23 2 -43 4q-8 0 -31 4h-3q-6 0 -11 -8q-4 -8 -4 -16v-6z" />
<glyph unicode="q" horiz-adv-x="716" d="M10 352v969q0 338 309 338q322 0 324 -311l4 -988q0 -100 -26 -196q-49 -174 -168 -176q-6 0 -6 -1q0 -5 200 -40l-33 -205q-39 0 -438 94q-25 8 -25 37q0 40 48 119q-72 2 -127 94q-61 104 -62 266zM254 436q0 -166 76 -166q71 0 71 168v789q0 94 -18 125q-13 22 -50 22 h-3q-76 0 -76 -149v-789z" />
<glyph unicode="r" horiz-adv-x="780" d="M-6 1655l350 -2q127 0 215 -54q96 -59 96 -157l-2 -404q0 -100 -59 -172q-41 -51 -92 -69q-16 -6 -17 -13q0 -3 201 -751l-272 -4l-119 618q-14 4 -25 0q-14 -6 -14 -45q0 -322 -2 -565h-258zM266 999q0 -57 29 -59q5 -1 11 -1t13 1q45 0 62 45q25 66 25 283 q0 129 -83 129h-8q-20 -2 -30 -2q-18 0 -19 -35v-361z" />
<glyph unicode="s" horiz-adv-x="780" d="M-8 401q0 33 2 107l274 -2v-100q0 -147 80 -148q63 0 68 100l4 115q2 51 -107 158q-182 180 -200 203q-109 127 -109 231v174q0 186 88 297q94 121 275 125h6q143 0 229 -102q82 -98 82 -261v-202l-272 -2v28q0 48 4 135v9q0 38 -16 76q-18 42 -46 42q-80 0 -80 -135 v-106q0 -63 109 -180q102 -109 205 -218q109 -135 108 -239v-141q0 -180 -92 -285t-260 -105q-145 0 -248 113q-104 116 -104 296v17z" />
<glyph unicode="t" horiz-adv-x="802" d="M33 1370l4 275q127 1 285 1t348 -1l-2 -277q-14 0 -62 2h-74q-43 0 -43 -31l5 -1321l-283 2l-2 1321q0 29 -25 29q-152 0 -151 0z" />
<glyph unicode="u" horiz-adv-x="819" d="M6 375v1233l281 8v-637q-2 -567 -2 -553q0 -160 84 -160q74 0 73 160v1180l281 2l-4 -1268q0 -119 -51 -209q-88 -156 -301 -156q-240 0 -312 115q-49 74 -49 285z" />
<glyph unicode="v" horiz-adv-x="880" d="M33 1616l307 -6q6 -29 27.5 -254.5t52.5 -364.5q8 -33 16 -33t15 35q20 127 43 353q18 205 30 266l297 -8q-63 -352 -127 -801q-76 -528 -119 -791h-319q-41 260 -111 805q-63 508 -112 799z" />
<glyph unicode="w" horiz-adv-x="1333" d="M10 1614q259 -40 291 -40q4 0 4 1q82 -713 92 -713q8 0 15 25q12 199 73 727l277 -6q29 -272 82 -777q2 -31 12 -30q16 0 23 39q20 131 54 441t38 333l274 -2q-43 -340 -119 -772q-137 -770 -145 -815l-260 -7q-33 332 -80 740q-6 41 -14 41t-17 -39q-14 -80 -71 -707h-4 q-28 0 -279 -30q-57 336 -115 669q-96 575 -131 922z" />
<glyph unicode="x" horiz-adv-x="870" d="M-29 12q0 8 4 17q129 311 289 782q4 12 4 27q0 31 -16 77l-219 671q0 10 83 10q69 0 197 -7q12 -41 76 -282q14 -55 25 -56q8 0 18 33q29 117 80 305l303 8q-43 -139 -268 -690q-12 -31 -13 -60q0 -18 5 -36q65 -250 280 -766q14 -33 15 -47l-334 31q-29 106 -86 311 q-16 59 -23 59q-8 0 -24 -69q-14 -90 -64 -285q-14 -41 -16 -47z" />
<glyph unicode="y" horiz-adv-x="776" d="M-14 1612l297 -8q20 -92 57 -269q16 -75 25 -75q2 0 16 75q16 92 51 269h289q0 -11 -4 -19q-35 -92 -107 -315q-90 -283 -110 -381q-2 -9 -2 -28.5t2 -49.5q-1 -159 -1 -351t1 -415l-291 -4q6 348 8 778q0 16 -6 58q-84 309 -225 735z" />
<glyph unicode="z" horiz-adv-x="772" d="M6 193q0 27 10 55q18 51 19 53l264 979q6 25 0 45q-6 23 -25 23q-62 -3 -115 -3t-98 3l-8 290q35 -1 108 -1t183 1q223 4 283 9h7q46 0 50 -48q2 -28 2 -55q0 -44 -6 -84l-29 -108l-268 -1020q-4 -21 -4 -35q0 -25 14 -27q21 -2 62 -2q69 0 194 6l23 -303h-19 q-258 5 -441 5q-92 0 -165 -1q-29 0 -31 50q0 27 -6 84q-4 51 -4 84z" />
<glyph unicode="&#xad;" horiz-adv-x="620" d="M131 537v309q186 -6 395 0l-2 -314q-137 -4 -393 5z" />
<glyph unicode="&#x2000;" horiz-adv-x="870" />
<glyph unicode="&#x2001;" horiz-adv-x="1741" />
<glyph unicode="&#x2002;" horiz-adv-x="870" />
<glyph unicode="&#x2003;" horiz-adv-x="1741" />
<glyph unicode="&#x2004;" horiz-adv-x="580" />
<glyph unicode="&#x2005;" horiz-adv-x="435" />
<glyph unicode="&#x2006;" horiz-adv-x="290" />
<glyph unicode="&#x2007;" horiz-adv-x="290" />
<glyph unicode="&#x2008;" horiz-adv-x="217" />
<glyph unicode="&#x2009;" horiz-adv-x="348" />
<glyph unicode="&#x200a;" horiz-adv-x="96" />
<glyph unicode="&#x2010;" horiz-adv-x="620" d="M131 537v309q186 -6 395 0l-2 -314q-137 -4 -393 5z" />
<glyph unicode="&#x2011;" horiz-adv-x="620" d="M131 537v309q186 -6 395 0l-2 -314q-137 -4 -393 5z" />
<glyph unicode="&#x2012;" horiz-adv-x="620" d="M131 537v309q186 -6 395 0l-2 -314q-137 -4 -393 5z" />
<glyph unicode="&#x2013;" horiz-adv-x="1249" d="M131 537v309q482 -6 1024 0l-5 -314q-355 -4 -1019 5z" />
<glyph unicode="&#x2014;" horiz-adv-x="2273" d="M131 537v309q964 -6 2048 0l-10 -314q-711 -4 -2038 5z" />
<glyph unicode="&#x202f;" horiz-adv-x="348" />
<glyph unicode="&#x205f;" horiz-adv-x="435" />
<glyph unicode="&#xe000;" horiz-adv-x="1597" d="M0 0v1597h1597v-1597h-1597z" />
</font>
</defs>
</svg>
