<?xml version="1.0" encoding="utf-8"?>
<!-- Generator: Adobe Illustrator 16.0.0, SVG Export Plug-In . SVG Version: 6.00 Build 0)  -->
<!DOCTYPE svg PUBLIC "-//W3C//DTD SVG 1.1//EN" "http://www.w3.org/Graphics/SVG/1.1/DTD/svg11.dtd">
<svg version="1.1" id="Layer_1" xmlns="http://www.w3.org/2000/svg" xmlns:xlink="http://www.w3.org/1999/xlink" x="0px" y="0px"
	 width="3496px" height="2480px" viewBox="0 0 3496 2480" enable-background="new 0 0 3496 2480" xml:space="preserve">
<g>
	<path fill-rule="evenodd" clip-rule="evenodd" fill="#2F9558" d="M3498,1582c0,63.333,0,126.667,0,190
		c-2.779,1.063-5.703,1.854-8.318,3.229c-47.998,25.252-95.862,50.761-143.951,75.839
		c-72.307,37.707-144.789,75.076-217.142,112.693c-18.888,9.82-37.451,20.268-56.384,30c-23.947,12.311-48.119,24.185-72.194,36.247
		c0.944-3.849,1.912-7.691,2.831-11.546c23.722-99.479,47.496-198.947,71.141-298.446c27.403-115.319,54.691-230.665,82.029-346
		c1.329-0.004,2.658-0.007,3.988-0.011c4.305,3.111,8.431,6.514,12.941,9.291c80.998,49.865,162,99.724,243.099,149.423
		C3443.22,1549.376,3470.672,1565.586,3498,1582z"/>
	<path fill-rule="evenodd" clip-rule="evenodd" fill="#C7EAE3" d="M630,2c69.333,0,138.667,0,208,0
		c10.683,39.436,21.416,78.858,32.037,118.311c17.017,63.209,34.102,126.399,50.869,189.675
		c7.395,27.907,14.082,56.003,21.091,84.014c-2.665-0.002-5.33-0.004-7.995-0.005c-3.334-0.664-6.668-1.327-10.003-1.99
		c-1.996-0.012-4.012,0.152-5.985-0.062c-30.916-3.355-61.828-6.753-92.739-10.155c-25.319-2.787-50.638-5.584-75.955-8.393
		c-34.189-3.791-68.381-7.569-102.564-11.406c-27.281-3.062-54.537-6.361-81.835-9.267c-28.951-3.081-57.938-5.822-86.908-8.712
		c0,0-0.03-0.033-0.029-0.033c13.136-29.027,26.363-58.014,39.389-87.092c27.537-61.477,55.063-122.959,82.397-184.527
		C610.125,49.029,619.938,25.46,630,2z"/>
	<path fill-rule="evenodd" clip-rule="evenodd" fill="#80BA94" d="M438,2482c-61.333,0-122.667,0-184,0
		c-0.666-20.543-1.43-41.084-1.975-61.631c-0.757-28.535-1.416-57.072-1.997-85.611c-0.738-36.196-1.363-72.395-2.026-108.593
		c-0.675-36.897-1.301-73.797-2.085-110.692c-0.053-2.504-1.25-4.982-1.914-7.473c0.667-1.333,1.334-2.667,2.002-4
		c46.557,0.663,93.115,1.353,139.672,1.982c51.553,0.696,103.106,1.376,154.66,1.992c59.213,0.708,118.427,1.339,177.64,2.003
		c0.004,0.671,0.007,1.341,0.01,2.012c-1.894,1.823-4.075,3.429-5.639,5.501c-46.197,61.23-92.354,122.492-138.472,183.782
		C528.559,2361.496,483.29,2421.756,438,2482z"/>
	<path fill-rule="evenodd" clip-rule="evenodd" fill="#C7EAE4" d="M2,568c0-62.667,0-125.333,0-188
		c21.517-1.333,43.042-2.554,64.549-4.026c28.781-1.971,57.555-4.048,86.32-6.238c41.641-3.172,83.267-6.534,124.907-9.725
		c28.433-2.179,56.892-4.028,85.313-6.343c37.648-3.065,75.272-6.441,112.907-9.684l0.993,0.002l0.992-0.01
		c0,0,0.03,0.033,0.029,0.033c-0.009,0.663-0.015,1.325-0.017,1.988c-6.008,10.69-12.289,21.238-17.979,32.096
		c-31.782,60.661-63.48,121.366-95.094,182.115c-36.374,69.898-72.629,139.859-108.936,209.793
		c-0.661,0.661-1.322,1.321-1.984,1.982c-0.666,0.006-1.333,0.008-1.999,0.007c-41.873-34.591-83.708-69.228-125.632-103.758
		c-28.64-23.589-57.323-47.127-86.145-70.492C27.688,587.576,14.754,577.898,2,568z"/>
	<path fill-rule="evenodd" clip-rule="evenodd" fill="#5BA77C" d="M3498,642c0,60.667,0,121.333,0,182
		c-6.099,5.109-12.475,9.925-18.252,15.375c-50.046,47.212-99.988,94.534-149.953,141.832
		c-19.279,18.249-38.537,36.519-57.805,54.779c-0.663,0.006-1.326,0.013-1.989,0.02c-0.663-0.669-1.326-1.337-1.989-2.006
		c-2.064-3.747-3.85-7.683-6.233-11.213c-44.507-65.9-89.09-131.749-133.646-197.616c-30.201-44.646-60.525-89.21-90.507-134.003
		c-10.319-15.418-19.768-31.419-29.613-47.154C3171.341,643.343,3334.67,642.672,3498,642z"/>
	<path fill-rule="evenodd" clip-rule="evenodd" fill="#7AB48D" d="M3498,70c0,34.667,0,69.333,0,104
		c-57.019,36.014-114.073,71.971-171.045,108.058c-50.522,32.003-101.031,64.028-151.387,96.292
		c-20.084,12.868-39.74,26.401-59.591,39.632c-0.663,0-1.326-0.001-1.989-0.002c-1.329-3.993-2.658-7.986-3.988-11.979
		c-0.001-1.333-0.001-2.666-0.002-3.999c-0.666-0.666-1.332-1.333-1.998-2c-5.334-15.003-10.546-30.05-16.023-45
		c-20.785-56.723-41.713-113.394-62.477-170.124c-17.908-48.928-35.665-97.91-53.488-146.868l-0.023-0.025
		c0.663,0.004,1.326,0.006,1.989,0.006c45.646,2.729,91.288,5.519,136.938,8.165c25.131,1.457,50.288,2.483,75.412,4.045
		c39.369,2.448,78.713,5.274,118.079,7.769c24.496,1.552,49.023,2.626,73.519,4.199C3420.625,64.652,3459.31,67.377,3498,70z"/>
	<path fill-rule="evenodd" clip-rule="evenodd" fill="#248A4A" d="M3000.011,2030.009c24.075-12.063,48.247-23.937,72.194-36.247
		c18.933-9.732,37.496-20.18,56.384-30c72.353-37.617,144.835-74.986,217.142-112.693c48.089-25.078,95.953-50.587,143.951-75.839
		c2.615-1.376,5.539-2.166,8.318-3.229c0,106,0,212,0,318c-4.663,12.004-9.326,24.008-13.988,36.012L3484,2126
		c-11.068-2.008-22.169-3.857-33.202-6.046c-118.673-23.536-237.313-47.229-356.013-70.63c-31.51-6.212-63.186-11.572-94.785-17.324
		c0-0.665,0-1.33,0-1.994L3000.011,2030.009z"/>
	<path fill-rule="evenodd" clip-rule="evenodd" fill="#D8F1EF" d="M2,72C2,48.667,2,25.333,2,2c129.333,0,258.667,0,388,0
		c21.862,85.286,43.812,170.55,65.536,255.87c7.121,27.967,13.658,56.082,20.463,84.13c-29.219-16.834-58.391-33.749-87.665-50.484
		c-49.206-28.129-98.501-56.1-147.713-84.217c-51.552-29.454-102.987-59.114-154.599-88.464C58.15,102.985,30.016,87.597,2,72z"/>
	<path fill-rule="evenodd" clip-rule="evenodd" fill="#147C38" d="M3492,2482c-64.667,0-129.333,0-194,0
		c-28.778-33.438-57.53-66.898-86.345-100.306c-21.586-25.026-43.255-49.981-66.155-76.434c-0.683,3.979-1.092,6.359-1.5,8.739
		c-0.67-3.337-1.341-6.674-2.012-10.012c0.008-0.662,0.016-1.325,0.023-1.988c113.333-57.996,226.666-115.992,340-173.988
		c0.659,9.329,1.319,18.659,1.979,27.988c1.327,50.836,2.718,101.669,3.963,152.506C3489.37,2366.336,3490.656,2424.168,3492,2482z"
		/>
	<path fill-rule="evenodd" clip-rule="evenodd" fill="#74B18A" d="M438,2482c45.29-60.244,90.559-120.504,135.876-180.728
		c46.118-61.29,92.274-122.552,138.472-183.782c1.563-2.072,3.745-3.678,5.639-5.501c14.633,39.537,29.387,79.03,43.868,118.622
		c21.119,57.739,42.155,115.508,62.997,173.348c9.337,25.91,18.116,52.021,27.148,78.041C714,2482,576,2482,438,2482z"/>
	<path fill-rule="evenodd" clip-rule="evenodd" fill="#6DAA83" d="M3115.978,417.981c19.851-13.23,39.507-26.764,59.591-39.632
		c50.355-32.264,100.864-64.289,151.387-96.292C3383.927,245.971,3440.981,210.014,3498,174c0,130.667,0,261.333,0,392
		c-53.19-20.945-106.349-41.972-159.579-62.813c-54.479-21.33-108.989-42.586-163.572-63.65
		C3155.355,432.014,3135.608,425.147,3115.978,417.981z"/>
	<path fill-rule="evenodd" clip-rule="evenodd" fill="#AADED0" d="M1366,2c2.667,0,5.333,0,8,0
		c8.764,8.43,17.29,17.125,26.334,25.242c31.123,27.933,62.354,55.746,93.682,83.447c32.053,28.343,64.256,56.517,96.418,84.734
		c25.679,22.529,51.444,44.959,77.073,67.544c12.499,11.014,24.774,22.281,38.933,35.04c-5.871,0-9.156,0-12.441,0
		c-27.822-1.319-55.643-2.682-83.468-3.947c-45.06-2.05-90.124-4.012-135.185-6.059c-43.066-1.956-86.123-4.157-129.197-5.916
		C1292.106,279.88,1238.05,278.014,1184,276c-0.667,0-1.333,0-2,0c0-0.667,0-1.333,0-2c46.049-67.419,92.198-134.771,138.09-202.296
		C1335.727,48.696,1350.715,25.247,1366,2z"/>
	<path fill-rule="evenodd" clip-rule="evenodd" fill="#D7F0EE" d="M2,72c28.016,15.597,56.15,30.985,84.022,46.835
		c51.612,29.35,103.047,59.01,154.599,88.464c49.212,28.117,98.507,56.088,147.713,84.217c29.274,16.735,58.446,33.65,87.665,50.484
		c0,0.661-0.001,1.323-0.003,1.984c-37.635,3.242-75.259,6.618-112.907,9.684c-28.421,2.314-56.88,4.164-85.313,6.343
		c-41.64,3.19-83.266,6.553-124.907,9.725c-28.765,2.19-57.54,4.268-86.32,6.238C45.042,377.446,23.517,378.667,2,380
		C2,277.333,2,174.667,2,72z"/>
	<path fill-rule="evenodd" clip-rule="evenodd" fill="#359A5F" d="M2298,2482c-111.333,0-222.667,0-334,0
		c-1.809-1.893-3.407-4.057-5.457-5.636c-34.813-26.827-69.682-53.582-104.537-80.353c7.039-1.58,14.045-3.333,21.123-4.714
		c78.158-15.25,156.339-30.388,234.492-45.662c107.137-20.938,214.238-42.048,321.39-62.907
		c30.269-5.893,60.656-11.17,90.989-16.729c-0.764,1.086-1.374,2.329-2.312,3.234c-38.054,36.76-76.056,73.575-114.259,110.18
		c-15.352,14.71-31.346,28.75-46.709,43.448C2338.307,2442.394,2318.225,2462.271,2298,2482z"/>
	<path fill-rule="evenodd" clip-rule="evenodd" fill="#67AC83" d="M3115.978,417.981c19.631,7.166,39.378,14.032,58.871,21.555
		c54.583,21.064,109.093,42.32,163.572,63.65C3391.651,524.028,3444.81,545.055,3498,566c0,25.333,0,50.667,0,76
		c-163.33,0.672-326.659,1.343-489.988,2.014c-0.671-0.003-1.342-0.005-2.012-0.008c0-0.667,0.001-1.334,0.001-2
		c0.983-1.316,2.214-2.513,2.915-3.965c26.686-55.297,53.384-110.589,79.931-165.952c8.597-17.927,16.78-36.052,25.153-54.086
		l-0.012-0.024C3114.651,417.98,3115.314,417.981,3115.978,417.981z"/>
	<path fill-rule="evenodd" clip-rule="evenodd" fill="#98D3BA" d="M1834,2c160.667,0,321.333,0,482,0
		c1.325,40.839,2.664,81.677,3.972,122.517c1.362,42.503,2.694,85.006,4.04,127.509c-0.008,0.658-0.013,1.316-0.016,1.974
		c-0.671-0.016-1.343-0.031-2.015-0.047c-11.186-5.579-22.202-11.53-33.585-16.673c-52.047-23.515-104.171-46.86-156.318-70.154
		c-41.252-18.428-82.58-36.685-123.871-55.027c-47.047-20.9-94.12-41.741-141.117-62.752c-18.455-8.251-36.735-16.892-55.096-25.355
		C1819.33,16.66,1826.665,9.33,1834,2z"/>
	<path fill-rule="evenodd" clip-rule="evenodd" fill="#C0E8E0" d="M941.997,393.999c-7.009-28.011-13.696-56.106-21.091-84.014
		c-16.768-63.275-33.853-126.466-50.869-189.675C859.416,80.858,848.683,41.436,838,2c94.667,0,189.333,0,284,0
		c8.296,7.25,16.567,14.527,24.979,21.64c0.318,0.27,1.986-1.058,3.026-1.641c0.665,2,1.329,4,1.994,6
		c-0.003,0.665-0.004,1.329-0.006,1.993c-11.251,19.169-22.71,38.221-33.713,57.53c-27.797,48.781-55.416,97.664-83.057,146.534
		c-29.769,52.633-59.479,105.298-89.216,157.949c-0.665,0.668-1.33,1.335-1.995,2.003
		C943.342,394.006,942.669,394.002,941.997,393.999z"/>
	<path fill-rule="evenodd" clip-rule="evenodd" fill="#A4DBCB" d="M1693.998,298.008c3.285,0,6.57,0,12.441,0
		c-14.158-12.759-26.434-24.026-38.933-35.04c-25.629-22.585-51.395-45.015-77.073-67.544
		c-32.162-28.218-64.365-56.392-96.418-84.734c-31.328-27.701-62.559-55.515-93.682-83.447C1391.29,19.125,1382.764,10.43,1374,2
		c21.333,0,42.667,0,64,0c2.489,0.664,4.952,1.777,7.473,1.926c35.411,2.089,70.829,4.082,106.249,6.027
		c49.33,2.71,98.664,5.36,147.996,8.038c36.746,1.994,73.491,3.992,110.237,5.989c0,0,0.057,0.023,0.056,0.023
		c-0.007,0.664-0.013,1.329-0.016,1.994c-1.424,3.314-2.989,6.577-4.251,9.953c-14.057,37.589-28.145,75.166-42.069,112.805
		c-18.641,50.383-37.144,100.816-55.706,151.228C1703.312,299.325,1698.655,298.666,1693.998,298.008z"/>
	<path fill-rule="evenodd" clip-rule="evenodd" fill="#87BE99" d="M246.004,2104c-0.667,1.333-1.334,2.667-2.002,4
		c-0.001,0.667-0.003,1.333-0.004,2c-0.664,0.667-1.329,1.334-1.993,2c-7.996,18.979-15.954,37.973-23.993,56.933
		c-27.1,63.917-54.311,127.786-81.316,191.743C119.646,2401.053,102.889,2441.555,86,2482c-18.667,0-37.333,0-56,0
		c-0.034-6.658,0.384-13.354-0.173-19.968c-4.495-53.38-9.402-106.726-13.719-160.12c-3.097-38.302-5.22-76.683-8.33-114.984
		C6.719,2173.882,3.975,2160.973,2,2148c0-24,0-48,0-72c13.178,1.334,26.369,2.549,39.53,4.026
		c32.25,3.62,64.476,7.453,96.73,11.027c33.901,3.757,67.825,7.313,101.739,10.958C242.001,2102.674,244.002,2103.337,246.004,2104z
		"/>
	<path fill-rule="evenodd" clip-rule="evenodd" fill="#8AC7A4" d="M2558,2c82.667,0,165.333,0,248,0
		c2.271,1.81,4.351,3.96,6.846,5.375c26.347,14.943,52.76,29.77,79.154,44.627v0.001c-0.666,0.664-1.333,1.328-2,1.992
		c-3.543,0.837-7.2,1.352-10.612,2.558c-73.088,25.85-146.146,51.786-219.216,77.687c-51.119,18.12-102.223,36.281-153.378,54.299
		c-60.247,21.219-120.542,42.303-180.816,63.445c0.005-0.661,0.013-1.323,0.022-1.984c23.781-25.439,47.479-50.957,71.361-76.299
		c35.319-37.476,70.875-74.729,106.123-112.27C2521.884,41.834,2539.843,21.823,2558,2z"/>
	<path fill-rule="evenodd" clip-rule="evenodd" fill="#449D6E" d="M3270.001,1036.006c0.663-0.007,1.326-0.014,1.989-0.02
		c75.336,36.005,150.673,72.009,226.01,108.014c0,12.667,0,25.333,0,38c-38.506,21.585-77.001,43.192-115.522,64.75
		c-44.317,24.801-88.591,49.684-133.015,74.292c-31.039,17.193-62.301,33.986-93.462,50.958
		c13.802-40.239,27.662-80.459,41.392-120.724c24.238-71.086,48.395-142.199,72.586-213.301
		C3269.985,1037.318,3269.992,1036.662,3270.001,1036.006z"/>
	<path fill-rule="evenodd" clip-rule="evenodd" fill="#208843" d="M3142.012,2302c-0.008,0.663-0.016,1.326-0.023,1.988
		c-21.691,20.037-43.623,39.821-65.023,60.164c-41.146,39.115-81.993,78.547-122.965,117.848c-28.667,0-57.333,0-86,0
		c-2.402-5.468-4.666-11.001-7.228-16.394c-26.22-55.201-52.597-110.328-78.677-165.595c-7.777-16.482-14.76-33.338-22.107-50.023
		c0.001,0.001,0,0,0,0c2.996,0.081,6.03-0.126,8.979,0.284c61.017,8.49,122.014,17.116,183.034,25.58
		c63.314,8.783,126.649,17.423,189.976,26.125L3142.012,2302z"/>
	<path fill-rule="evenodd" clip-rule="evenodd" fill="#6DB289" d="M852,2482c-9.032-26.02-17.812-52.131-27.148-78.041
		c-20.842-57.84-41.878-115.608-62.997-173.348c-14.481-39.592-29.235-79.085-43.868-118.622c-0.003-0.671-0.006-1.341-0.01-2.012
		c0.001,0.001,0.037,0.022,0.037,0.022c10.622,6.644,21.427,13.016,31.838,19.977c60.455,40.416,120.791,81.014,181.245,121.434
		c8.755,5.854,17.925,11.083,26.903,16.602c0,0.662,0,1.326,0,1.988c-1.386,27.43-2.619,54.868-4.193,82.287
		c-2.481,43.244-5.192,86.477-7.807,129.713C914.667,2482,883.333,2482,852,2482z"/>
	<path fill-rule="evenodd" clip-rule="evenodd" fill="#D4EFEC" d="M475.996,343.984c0.002-0.661,0.003-1.323,0.003-1.984
		c-6.805-28.048-13.342-56.163-20.463-84.13C433.812,172.55,411.862,87.286,390,2c80,0,160,0,240,0
		c-10.062,23.46-19.875,47.029-30.231,70.357c-27.334,61.568-54.86,123.051-82.397,184.527
		c-13.025,29.078-26.253,58.064-39.389,87.092c-0.001,0-0.993,0.01-0.993,0.01L475.996,343.984z"/>
	<path fill-rule="evenodd" clip-rule="evenodd" fill="#8EC8A7" d="M240,2102.012c-33.914-3.645-67.837-7.201-101.739-10.958
		c-32.254-3.574-64.48-7.407-96.73-11.027c-13.162-1.478-26.353-2.692-39.53-4.026c0-4.667,0-9.333,0-14
		c3.354-7.072,7.22-13.949,9.983-21.245c35.432-93.55,70.706-187.16,106.021-280.755c0.666-1.333,1.331-2.667,1.997-4
		c10.735,29.852,21.295,59.767,32.249,89.538c14.162,38.49,28.979,76.742,42.888,115.321
		c15.223,42.223,29.622,84.742,44.738,127.003c1.379,3.856,5.361,6.78,8.135,10.138C245.339,2099.338,242.669,2100.675,240,2102.012
		z"/>
	<path fill-rule="evenodd" clip-rule="evenodd" fill="#B8E3DB" d="M2,1062c0-98.667,0-197.333,0-296
		c24.892,0.657,49.782,1.338,74.674,1.968c53.776,1.36,107.553,2.694,161.329,4.038c4.668,0.667,9.336,1.333,14.004,2
		c-1.782,2.789-3.351,5.744-5.378,8.341c-22.857,29.286-45.761,58.536-68.699,87.76c-32.974,42.008-66.095,83.901-98.94,126.01
		c-18.551,23.784-36.676,47.9-54.993,71.867C16.666,1065.988,9.333,1063.994,2,1062z"/>
	<path fill-rule="evenodd" clip-rule="evenodd" fill="#62AB81" d="M946,2482c2.614-43.236,5.325-86.469,7.807-129.713
		c1.574-27.419,2.808-54.857,4.193-82.287c0.669,0.004,1.338,0.008,2.007,0.012c2.651,1.978,5.14,4.237,7.979,5.892
		c73.573,42.856,147.224,85.58,220.771,128.48c41.831,24.399,83.504,49.071,125.248,73.621c-1.336,1.331-2.671,2.663-4.006,3.995
		C1188.667,2482,1067.333,2482,946,2482z"/>
	<path fill-rule="evenodd" clip-rule="evenodd" fill="#4F9F72" d="M3498,1144c-75.337-36.005-150.674-72.009-226.01-108.014
		c19.268-18.261,38.525-36.53,57.805-54.779c49.965-47.298,99.907-94.62,149.953-141.832c5.777-5.45,12.153-10.266,18.252-15.375
		C3498,930.667,3498,1037.333,3498,1144z"/>
	<path fill-rule="evenodd" clip-rule="evenodd" fill="#299150" d="M2608,2482c-26,0-52,0-78,0
		c-0.324-7.837-0.679-15.674-0.967-23.512c-1.022-27.883-2.193-55.762-2.983-83.651c-0.866-30.544-1.617-61.097-1.835-91.649
		c-0.045-6.383,2.457-12.783,3.785-19.176c13.231-0.672,26.468-1.267,39.693-2.031c22.809-1.319,45.619-2.633,68.414-4.152
		c37.97-2.528,75.93-5.218,113.893-7.84c2.67,0.008,5.341,0.016,8.012,0.023c-0.779,1.803-1.315,3.765-2.371,5.388
		C2706.455,2330.951,2657.225,2406.474,2608,2482z"/>
	<path fill-rule="evenodd" clip-rule="evenodd" fill="#3C9866" d="M3156.001,1372c31.161-16.972,62.423-33.765,93.462-50.958
		c44.424-24.608,88.697-49.491,133.015-74.292c38.521-21.558,77.017-43.165,115.522-64.75c0,68,0,136,0,204
		c-25.137-1.329-50.264-2.889-75.412-3.933c-37.104-1.54-74.218-2.888-111.337-4.001c-50.412-1.511-100.833-2.721-151.251-4.061
		c-1.33,0.004-2.659,0.007-3.988,0.011c0,0-0.034-0.054-0.034-0.053c0.011-0.655,0.015-1.312,0.013-1.968L3156.001,1372z"/>
	<path fill-rule="evenodd" clip-rule="evenodd" fill="#33935D" d="M3160,1374.006c50.418,1.34,100.839,2.55,151.251,4.061
		c37.119,1.113,74.233,2.461,111.337,4.001c25.148,1.044,50.275,2.604,75.412,3.933c0,65.333,0,130.667,0,196
		c-27.328-16.414-54.78-32.624-81.96-49.28c-81.099-49.699-162.101-99.558-243.099-149.423
		C3168.431,1380.52,3164.305,1377.117,3160,1374.006z"/>
	<path fill-rule="evenodd" clip-rule="evenodd" fill="#80B792" d="M86,2482c16.889-40.445,33.646-80.947,50.696-121.324
		c27.005-63.957,54.216-127.826,81.316-191.743c8.039-18.96,15.998-37.954,23.993-56.933c0.664-0.666,1.329-1.333,1.993-2
		c0.001-0.667,0.003-1.333,0.004-2c0.665,2.49,1.861,4.969,1.914,7.473c0.784,36.896,1.41,73.795,2.085,110.692
		c0.663,36.198,1.288,72.396,2.026,108.593c0.582,28.539,1.24,57.076,1.997,85.611c0.545,20.547,1.309,41.088,1.975,61.631
		C198,2482,142,2482,86,2482z"/>
	<path fill-rule="evenodd" clip-rule="evenodd" fill="#238B48" d="M2608,2482c49.225-75.526,98.455-151.049,147.641-226.601
		c1.056-1.623,1.592-3.585,2.371-5.388c0.658-0.01,1.317-0.018,1.977-0.023c7.348,16.686,14.33,33.541,22.107,50.023
		c26.08,55.267,52.457,110.394,78.677,165.595c2.562,5.393,4.825,10.926,7.228,16.394C2781.333,2482,2694.667,2482,2608,2482z"/>
	<path fill-rule="evenodd" clip-rule="evenodd" fill="#B3E2D7" d="M1151.994,29.992c0.002-0.664,0.003-1.328,0.006-1.993
		c11.396-1.686,22.773-3.524,34.195-5.028c33.392-4.396,66.817-8.543,100.198-13.021C1304.295,7.548,1322.133,4.665,1340,2
		c8.667,0,17.333,0,26,0c-15.285,23.247-30.273,46.696-45.91,69.704C1274.198,139.229,1228.049,206.581,1182,274l-0.01-0.011
		c-1.997-14.705-4.116-29.395-5.967-44.117c-4.45-35.424-8.861-70.854-13.125-106.3C1159.148,92.393,1155.62,61.187,1151.994,29.992
		z"/>
	<path fill-rule="evenodd" clip-rule="evenodd" fill="#7DB28D" d="M3498,70c-38.69-2.623-77.375-5.348-116.074-7.833
		c-24.495-1.573-49.022-2.647-73.519-4.199c-39.366-2.494-78.71-5.32-118.079-7.769c-25.124-1.562-50.281-2.588-75.412-4.045
		c-45.65-2.646-91.293-5.436-136.938-8.165c0.01-0.66,0.021-1.321,0.034-1.982c1.328-0.671,2.656-1.343,3.984-2.015h-0.001
		C3003.33,23.328,3024.665,12.664,3046,2c150.667,0,301.333,0,452,0C3498,24.667,3498,47.333,3498,70z"/>
	<path fill-rule="evenodd" clip-rule="evenodd" fill="#2C9355" d="M2528,2264.012c-1.328,6.393-3.83,12.793-3.785,19.176
		c0.218,30.553,0.969,61.105,1.835,91.649c0.79,27.89,1.961,55.769,2.983,83.651c0.288,7.838,0.643,15.675,0.967,23.512
		c-77.333,0-154.667,0-232,0c20.225-19.729,40.307-39.606,60.721-59.138c15.363-14.698,31.357-28.738,46.709-43.448
		c38.203-36.604,76.205-73.42,114.259-110.18c0.938-0.905,1.548-2.148,2.312-3.234c0.67-0.666,1.339-1.333,2.008-2
		c0.653-0.003,1.306-0.011,1.959-0.022C2526.645,2263.988,2527.322,2264,2528,2264.012z"/>
	<path fill-rule="evenodd" clip-rule="evenodd" fill="#C4E9E3" d="M238.003,772.006c-53.776-1.344-107.553-2.678-161.329-4.038
		C51.782,767.338,26.892,766.657,2,766c0-66,0-132,0-198c12.754,9.898,25.688,19.576,38.227,29.741
		c28.822,23.365,57.505,46.903,86.145,70.492c41.923,34.53,83.759,69.167,125.632,103.758
		C247.336,771.996,242.67,772.001,238.003,772.006z"/>
	<path fill-rule="evenodd" clip-rule="evenodd" fill="#9DD5BC" d="M2,1740c0-102.667,0-205.333,0-308c7.333-2,14.666-4,21.999-6
		c0.669,0.663,1.337,1.326,2.006,1.989c-0.049,2.136-0.641,4.431-0.07,6.387c21.314,72.981,42.743,145.931,64.139,218.889
		c9.42,32.122,18.804,64.255,28.375,96.968c-2.835,0.779-4.643,1.276-6.449,1.773C75.333,1748.004,38.667,1744.002,2,1740z"/>
	<path fill-rule="evenodd" clip-rule="evenodd" fill="#459C6D" d="M1814,2482c-106,0-212,0-318,0
		c-1.333-11.33-2.667-22.659-4-33.988c16.663-2.661,33.293-5.553,49.995-7.938c45.282-6.462,90.595-12.719,135.897-19.039
		c36.111-5.038,72.244-9.924,108.333-15.119c21.293-3.065,42.519-6.601,63.774-9.925c0.661,0.001,1.322-0.003,1.983-0.014
		l0.045,0.045C1839.353,2424.682,1826.676,2453.341,1814,2482z"/>
	<path fill-rule="evenodd" clip-rule="evenodd" fill="#97CFB2" d="M2,1740c36.667,4.002,73.333,8.004,110,12.006
		c2.667,0.664,5.335,1.329,8.002,1.994c0,0.667-0.001,1.333-0.002,2c-0.666,1.333-1.331,2.667-1.997,4
		c-35.314,93.595-70.589,187.205-106.021,280.755C9.22,2048.051,5.354,2054.928,2,2062C2,1954.667,2,1847.333,2,1740z"/>
	<path fill-rule="evenodd" clip-rule="evenodd" fill="#177F3B" d="M2954,2482c40.972-39.301,81.818-78.732,122.965-117.848
		c21.4-20.343,43.332-40.127,65.023-60.164c0.671,3.338,1.342,6.675,2.012,10.012c0.729,16.834,1.191,33.684,2.238,50.497
		c2.438,39.177,5.156,78.337,7.762,117.503C3087.333,2482,3020.667,2482,2954,2482z"/>
	<path fill-rule="evenodd" clip-rule="evenodd" fill="#94D0B2" d="M2326,249.999c-0.01,0.661-0.018,1.323-0.022,1.984
		c-0.655,0.015-1.311,0.028-1.966,0.043c-1.346-42.504-2.678-85.007-4.04-127.51C2318.664,83.677,2317.325,42.839,2316,2
		c41.333,0,82.667,0,124,0c-26.156,56.338-52.407,112.632-78.426,169.033C2349.482,197.247,2337.844,223.671,2326,249.999z"/>
	<path fill-rule="evenodd" clip-rule="evenodd" fill="#8FCBAB" d="M2326,249.999c11.844-26.328,23.482-52.752,35.574-78.966
		C2387.593,114.632,2413.844,58.338,2440,2c39.333,0,78.667,0,118,0c-18.157,19.823-36.116,39.834-54.516,59.431
		c-35.248,37.541-70.804,74.794-106.123,112.27C2373.479,199.042,2349.781,224.56,2326,249.999z"/>
	<path fill-rule="evenodd" clip-rule="evenodd" fill="#107835" d="M3154,2482c-2.605-39.166-5.324-78.326-7.762-117.503
		c-1.047-16.813-1.51-33.663-2.238-50.497c0.408-2.38,0.817-4.761,1.5-8.739c22.9,26.452,44.569,51.407,66.155,76.434
		c28.814,33.407,57.566,66.868,86.345,100.306C3250,2482,3202,2482,3154,2482z"/>
	<path fill-rule="evenodd" clip-rule="evenodd" fill="#AEDFD1" d="M2,1062c7.333,1.994,14.666,3.988,21.999,5.983l0.001,0.023
		c-0.667,4.552-1.905,9.104-1.914,13.657c-0.124,67.854-0.329,135.711,0,203.564c0.224,46.257,1.246,92.511,1.911,138.766V1424
		c-2.804-2.54-5.733-4.957-8.385-7.647c-4.627-4.695-9.084-9.56-13.612-14.353C2,1288.667,2,1175.333,2,1062z"/>
	<path fill-rule="evenodd" clip-rule="evenodd" fill="#3A9764" d="M1814,2482c12.676-28.659,25.353-57.318,38.027-85.978
		c0-0.001,0.989-0.012,0.989-0.012l0.989,0.001c34.855,26.771,69.725,53.525,104.537,80.353c2.05,1.579,3.648,3.743,5.457,5.636
		C1914,2482,1864,2482,1814,2482z"/>
	<path fill-rule="evenodd" clip-rule="evenodd" fill="#8BBF9B" d="M2,2148c1.975,12.973,4.719,25.882,5.778,38.928
		c3.11,38.302,5.232,76.683,8.33,114.984c4.317,53.395,9.224,106.74,13.719,160.12c0.557,6.613,0.14,13.31,0.173,19.968
		c-9.333,0-18.667,0-28,0C2,2370.667,2,2259.333,2,2148z"/>
	<path fill-rule="evenodd" clip-rule="evenodd" fill="#ADDED2" d="M1809.955,23.98c-36.746-1.997-73.491-3.995-110.237-5.989
		c-49.332-2.678-98.666-5.328-147.996-8.038c-35.42-1.945-70.838-3.938-106.249-6.027c-2.521-0.148-4.983-1.262-7.473-1.926
		c125.333,0,250.667,0,376,0C1812.651,9.327,1811.304,16.653,1809.955,23.98z"/>
	<path fill-rule="evenodd" clip-rule="evenodd" fill="#87C19C" d="M2892,52.002c-26.395-14.857-52.808-29.684-79.154-44.627
		C2810.351,5.96,2808.271,3.81,2806,2c26,0,52,0,78,0c30,11.333,60,22.666,90,34c0.663,0.661,1.326,1.322,1.988,1.983l0.023,0.025
		C2948.008,42.674,2920.004,47.338,2892,52.002z"/>
	<path fill-rule="evenodd" clip-rule="evenodd" fill="#0B7332" d="M3492,2482c-1.344-57.832-2.63-115.664-4.047-173.494
		c-1.245-50.837-2.636-101.67-3.963-152.506c0-7.999,0-15.998,0-26.837c5.954,8.006,9.982,13.421,14.01,18.837
		c0,109-0.013,218,0.047,327C3498.049,2479.361,3498.876,2483.846,3492,2482z"/>
	<path fill-rule="evenodd" clip-rule="evenodd" fill="#52A174" d="M1310,2482c1.335-1.332,2.67-2.664,4.006-3.995
		c0.661-0.003,1.322-0.009,1.983-0.017c21.504-3.717,43.007-7.444,64.514-11.146c36.501-6.285,73.006-12.555,109.509-18.83
		c-4.004,11.329-8.008,22.658-12.012,33.988C1422,2482,1366,2482,1310,2482z"/>
	<path fill-rule="evenodd" clip-rule="evenodd" fill="#BEE6DF" d="M1340,2c-17.867,2.665-35.705,5.548-53.606,7.949
		c-33.381,4.479-66.807,8.625-100.198,13.021c-11.422,1.504-22.799,3.343-34.195,5.028c-0.665-2-1.329-4-1.994-6
		C1148.67,15.333,1147.335,8.666,1146,2C1210.667,2,1275.333,2,1340,2z"/>
	<path fill-rule="evenodd" clip-rule="evenodd" fill="#8DC5A2" d="M2974,36c-30-11.334-60-22.667-90-34c24,0,48,0,72,0
		C2962,13.333,2968,24.666,2974,36z"/>
	<path fill-rule="evenodd" clip-rule="evenodd" fill="#8ABE9A" d="M2974,36c-6-11.334-12-22.667-18-34c18,0,36,0,54,0
		c-1.916,2.912-3.486,6.141-5.811,8.679c-7.244,7.912-14.774,15.563-22.194,23.313c0,0,0.001,0,0.001,0.001
		c-1.328,0.671-2.656,1.343-3.984,2.014c-0.014,0.661-0.024,1.322-0.034,1.982c-0.663,0-1.326-0.002-1.989-0.006
		C2975.326,37.322,2974.663,36.661,2974,36z"/>
	<path fill-rule="evenodd" clip-rule="evenodd" fill="#83B592" d="M2981.995,33.992c7.42-7.751,14.95-15.401,22.194-23.313
		c2.324-2.538,3.895-5.767,5.811-8.679c12,0,24,0,36,0C3024.665,12.664,3003.33,23.328,2981.995,33.992z"/>
	<path fill-rule="evenodd" clip-rule="evenodd" fill="#A9DCCB" d="M2,1402c4.528,4.793,8.985,9.657,13.612,14.353
		c2.651,2.69,5.581,5.107,8.385,7.647c0,0.667,0.001,1.333,0.001,2c-7.333,2-14.666,4-21.999,6C2,1422,2,1412,2,1402z"/>
	<path fill-rule="evenodd" clip-rule="evenodd" fill="#4A986D" d="M1478,2482c4.004-11.33,8.008-22.659,12.011-33.988
		c0.663-0.012,1.326-0.027,1.988-0.045l0.001,0.045c1.333,11.329,2.667,22.658,4,33.988C1490,2482,1484,2482,1478,2482z"/>
	<path fill-rule="evenodd" clip-rule="evenodd" fill="#C8EAE5" d="M1146,2c1.335,6.666,2.67,13.333,4.006,19.999
		c-1.04,0.583-2.708,1.91-3.026,1.641C1138.567,16.527,1130.296,9.25,1122,2C1130,2,1138,2,1146,2z"/>
	<path fill-rule="evenodd" clip-rule="evenodd" fill="#1F8144" d="M3484.012,2126.012c4.662-12.004,9.325-24.008,13.988-36.012
		c0,11.333,0,22.667,0,34C3493.337,2124.67,3488.674,2125.341,3484.012,2126.012z"/>
	<path fill-rule="evenodd" clip-rule="evenodd" fill="#117435" d="M3484.012,2126.012c4.662-0.671,9.325-1.342,13.988-2.012
		c0,8,0,16,0,24c-4.027-5.416-8.056-10.831-14.01-18.837c0,10.839,0,18.838,0,26.837c-0.659-9.329-1.319-18.659-1.979-27.988
		c0.662-0.671,1.326-1.342,1.988-2.012L3484.012,2126.012z"/>
	<path fill-rule="evenodd" clip-rule="evenodd" fill="#A3D8C3" d="M1809.955,23.98c1.349-7.327,2.696-14.653,4.045-21.98
		c6.667,0,13.333,0,20,0c-7.335,7.33-14.67,14.66-22.006,21.991c-0.66,0.005-1.322,0.009-1.982,0.013L1809.955,23.98z"/>
	<path fill-rule="evenodd" clip-rule="evenodd" fill="#369F61" d="M3156.012,1374.017c-27.338,115.335-54.626,230.681-82.029,346
		c-23.645,99.499-47.419,198.967-71.141,298.446c-0.919,3.854-1.887,7.697-2.831,11.546l-0.011-0.003
		c-43.268-33.52-86.569-66.994-129.793-100.568c-83.568-64.912-167.054-129.932-250.669-194.783
		c-16.963-13.156-34.348-25.769-51.538-38.632v-0.034c0-0.66,0-1.321,0-1.982c11.912-6.627,23.774-13.347,35.746-19.863
		c47.04-25.605,94.146-51.089,141.169-76.726c71.549-39.009,143.056-78.094,214.565-117.175
		c41.152-22.49,82.212-45.151,123.434-67.514c24.232-13.146,48.701-25.858,73.063-38.766L3156.012,1374.017z"/>
	<path fill-rule="evenodd" clip-rule="evenodd" fill="#BBE5DC" d="M941.997,393.999c0.672,0.003,1.345,0.007,2.017,0.01
		c-6.671,27.33-13.341,54.661-20.012,81.991c-3.249-0.542-6.594-0.758-9.733-1.675c-40.068-11.704-80.147-23.372-120.144-35.32
		c-55.509-16.581-110.961-33.354-166.414-50.118c-31.671-9.575-63.212-19.587-94.976-28.841
		c-18.077-5.267-36.483-9.402-54.741-14.048c0.002-0.663,0.008-1.325,0.017-1.988c28.972,2.89,57.958,5.631,86.909,8.712
		c27.298,2.905,54.554,6.205,81.835,9.267c34.184,3.837,68.375,7.615,102.564,11.406c25.317,2.809,50.636,5.605,75.955,8.393
		c30.911,3.402,61.823,6.8,92.739,10.155c1.974,0.214,3.989,0.05,5.985,0.062c3.335,0.663,6.669,1.326,10.003,1.99
		C936.667,393.995,939.332,393.997,941.997,393.999z"/>
	<path fill-rule="evenodd" clip-rule="evenodd" fill="#C0E8E0" d="M934.002,393.994c-3.334-0.664-6.668-1.327-10.003-1.99
		C927.334,392.667,930.668,393.33,934.002,393.994z"/>
	<path fill-rule="evenodd" clip-rule="evenodd" fill="#86C4A0" d="M240,2102.012c2.67-1.337,5.339-2.674,8.009-4.012
		c13.777-20.707,27.747-41.29,41.296-62.146c36.602-56.337,72.952-112.837,109.569-169.163
		c9.388-14.441,19.395-28.479,29.117-42.703c13.584,12.586,27.505,24.829,40.694,37.815
		c60.218,59.285,120.22,118.79,180.322,178.193c22.971,22.703,46.001,45.345,69.004,68.015c-0.002,0.662-0.001,1.325,0.002,1.988
		c0,0-0.036-0.021-0.037-0.022c-59.213-0.664-118.427-1.295-177.64-2.003c-51.554-0.616-103.107-1.296-154.66-1.992
		c-46.558-0.63-93.115-1.319-139.672-1.982C244.002,2103.337,242.001,2102.674,240,2102.012z"/>
	<path fill-rule="evenodd" clip-rule="evenodd" fill="#B9E4DB" d="M477.994,345.998c18.258,4.646,36.664,8.781,54.741,14.048
		c31.764,9.254,63.305,19.266,94.976,28.841c55.453,16.765,110.905,33.537,166.414,50.118
		c39.996,11.948,80.075,23.616,120.144,35.32c3.14,0.917,6.484,1.133,9.733,1.675c0,0.666-0.002,1.332-0.005,1.998
		c-0.667,0.667-1.333,1.333-2,2c-21.557,19.225-43.16,38.396-64.657,57.688c-27.685,24.844-55.206,49.869-82.939,74.658
		c-35.397,31.639-70.988,63.061-106.396,94.686c-27.247,24.336-54.285,48.903-81.516,73.257
		c-36.133,32.313-72.294,64.595-108.573,96.742c-23.848,21.132-47.926,42.002-71.9,62.988c-3.408-2.465-7.381-4.422-10.129-7.479
		c-13.725-15.272-27.034-30.918-40.665-46.277c-27.053-30.48-54.107-60.962-81.422-91.208c-6.752-7.478-14.5-14.055-21.791-21.046
		c-4.668-0.667-9.336-1.333-14.004-2c4.667-0.005,9.333-0.01,14-0.015c0.667,0.001,1.333-0.001,1.999-0.007
		c0.661-0.661,1.323-1.321,1.984-1.982c36.307-69.934,72.562-139.895,108.936-209.793c31.613-60.749,63.312-121.454,95.094-182.115
		C465.705,367.236,471.986,356.688,477.994,345.998z"/>
	<path fill-rule="evenodd" clip-rule="evenodd" fill="#C4E9E3" d="M255.986,770.002c-0.661,0.661-1.323,1.321-1.984,1.982
		C254.664,771.323,255.325,770.663,255.986,770.002z"/>
	<path fill-rule="evenodd" clip-rule="evenodd" fill="#53AB7B" d="M3270.001,1036.006c-0.009,0.656-0.016,1.313-0.022,1.97
		c-2.858,0.767-5.86,1.198-8.553,2.353c-27.801,11.912-55.555,23.929-83.313,35.939c-51.249,22.174-102.505,44.334-153.733,66.554
		c-59.461,25.791-118.935,51.552-178.319,77.517c-18.832,8.233-37.396,17.08-56.082,25.646c-0.659,0.004-1.318,0.01-1.978,0.017
		c-0.004-0.673-0.008-1.345-0.012-2.017c-2.652-22.704-5.403-45.397-7.936-68.115c-4.222-37.875-8.141-75.784-12.486-113.645
		c-5.023-43.774-10.293-87.521-15.61-131.262c-2.475-20.351-5.315-40.658-7.989-60.985c0.029-0.658,0.042-1.316,0.035-1.976
		c3.255,0.546,6.633,0.702,9.744,1.693c67.521,21.501,135.045,42.991,202.5,64.697c86.467,27.824,172.854,55.892,259.318,83.723
		c17.386,5.596,34.96,10.605,52.447,15.886C3268.675,1034.669,3269.338,1035.337,3270.001,1036.006z"/>
	<path fill-rule="evenodd" clip-rule="evenodd" fill="#5DAD81" d="M3268.012,1034c-17.487-5.28-35.062-10.29-52.447-15.886
		c-86.464-27.831-172.852-55.898-259.318-83.723c-67.455-21.706-134.979-43.196-202.5-64.697c-3.111-0.991-6.489-1.147-9.744-1.693
		c-0.012-0.659,0-1.318,0.035-1.977c1.317-0.681,2.635-1.362,3.951-2.043c41.47-35.134,83.027-70.164,124.383-105.431
		c44.642-38.066,89.094-76.354,133.629-114.545c0.67,0.003,1.341,0.005,2.012,0.008c9.846,15.735,19.294,31.736,29.613,47.154
		c29.981,44.793,60.306,89.357,90.507,134.003c44.557,65.867,89.14,131.716,133.646,197.616
		C3264.162,1026.317,3265.947,1030.253,3268.012,1034z"/>
	<path fill-rule="evenodd" clip-rule="evenodd" fill="#79B990" d="M3110,406c1.33,3.993,2.659,7.986,3.988,11.979
		c0-0.001,0.012,0.023,0.012,0.023c-38.744,18.371-77.462,36.797-116.243,55.087c-16.513,7.787-33.159,15.291-49.745,22.924
		c-0.001,0-0.023-0.035-0.023-0.035c0.004-0.659,0-1.319-0.011-1.979c-1.324-11.184-2.592-22.374-3.983-33.549
		c-4.219-33.869-8.467-67.733-12.738-101.596c-4.396-34.843-8.825-69.681-13.254-104.52c-4.346-34.184-8.836-68.349-13.026-102.551
		c-3.827-31.24-7.337-62.52-10.986-93.781c1.723,1.434,3.988,2.538,5.087,4.351c14.969,24.689,29.629,49.565,44.65,74.223
		c45.24,74.261,90.531,148.491,135.981,222.624C3089.418,375.038,3099.883,390.412,3110,406z"/>
	<path fill-rule="evenodd" clip-rule="evenodd" fill="#7FBB93" d="M3110,406c-10.117-15.588-20.582-30.962-30.292-46.799
		c-45.45-74.133-90.741-148.363-135.981-222.624c-15.021-24.657-29.682-49.533-44.65-74.223c-1.099-1.813-3.364-2.917-5.087-4.351
		c-0.663-1.336-1.326-2.672-1.989-4.008c0-0.665,0-1.329,0-1.993v-0.001c28.004-4.664,56.008-9.328,84.012-13.993
		c17.823,48.958,35.58,97.94,53.488,146.868c20.764,56.73,41.691,113.401,62.477,170.124c5.478,14.95,10.689,29.997,16.023,45
		c0.666,0.667,1.332,1.334,1.998,2C3109.999,403.334,3109.999,404.667,3110,406z"/>
	<path fill-rule="evenodd" clip-rule="evenodd" fill="#79B990" d="M3109.998,402.001c-0.666-0.666-1.332-1.333-1.998-2
		C3108.666,400.668,3109.332,401.335,3109.998,402.001z"/>
	<path fill-rule="evenodd" clip-rule="evenodd" fill="#309858" d="M2568,1696.022c17.19,12.863,34.575,25.476,51.538,38.632
		c83.615,64.852,167.101,129.871,250.669,194.783c43.224,33.574,86.525,67.049,129.793,100.568c0,0.664,0,1.329,0,1.994v0.006
		c-44.318,39.981-88.627,79.973-132.958,119.939c-19.209,17.318-38.578,34.46-57.66,51.916
		c-16.621,15.204-32.94,30.738-49.394,46.127c0,0,0.001,0.001,0,0c-0.659,0.006-1.318,0.014-1.977,0.023
		c-2.671-0.008-5.342-0.016-8.012-0.023c2.205-1.214,4.411-2.429,7.085-3.901c-8.851-26.342-17.421-52.548-26.452-78.594
		c-24.076-69.436-48.443-138.771-72.515-208.208c-16.22-46.79-32.15-93.681-48.185-140.535
		C2595.938,1777.847,2581.977,1736.932,2568,1696.022z"/>
	<path fill-rule="evenodd" clip-rule="evenodd" fill="#208744" d="M3484,2126c-0.662,0.67-1.326,1.341-1.988,2.012
		c-113.334,57.996-226.667,115.992-340,173.988l-0.034-0.022c-0.62-1.882-0.979-3.902-1.897-5.625
		c-14.548-27.259-29.294-54.411-43.743-81.722c-32.187-60.836-64.233-121.746-96.337-182.625V2032
		c31.6,5.752,63.275,11.112,94.785,17.324c118.699,23.401,237.34,47.094,356.013,70.63
		C3461.831,2122.143,3472.932,2123.992,3484,2126z"/>
	<path fill-rule="evenodd" clip-rule="evenodd" fill="#9DD9C8" d="M1693.998,298.008c4.657,0.658,9.313,1.317,13.971,1.977
		c0.001,0,0.031,0.016,0.031,0.016c-0.667,2-1.333,3.999-2,5.999c-1.345,3.034-2.833,6.014-4.013,9.11
		c-20.687,54.29-41.349,108.589-61.988,162.896c-27.358,71.985-54.693,143.98-82.038,215.972c-0.654-0.658-1.308-1.316-1.961-1.975
		c-0.634-1.171-1.064-2.525-1.93-3.487c-41.065-45.592-82.17-91.146-123.265-136.712c-20.845-23.114-41.704-46.216-62.51-69.365
		c-38.607-42.954-77.251-85.877-115.743-128.936c-22.985-25.714-45.711-51.661-68.553-77.503
		c54.05,2.014,108.106,3.88,162.148,6.086c43.074,1.759,86.131,3.96,129.197,5.916c45.061,2.047,90.125,4.009,135.185,6.059
		C1638.355,295.326,1666.176,296.688,1693.998,298.008z"/>
	<path fill-rule="evenodd" clip-rule="evenodd" fill="#A2DBCC" d="M1184,276c22.842,25.842,45.567,51.789,68.553,77.503
		c38.492,43.059,77.136,85.981,115.743,128.936c20.806,23.149,41.665,46.251,62.51,69.365
		c41.095,45.565,82.199,91.12,123.265,136.712c0.865,0.962,1.296,2.316,1.93,3.487c-3.496-1.062-7.047-1.971-10.48-3.205
		c-83.23-29.93-166.459-59.862-249.664-89.862c-62.871-22.67-125.674-45.529-188.58-68.1c-20.305-7.284-40.843-13.919-61.274-20.851
		c-1.329-0.656-2.657-1.313-3.987-1.968c-0.002-0.672-0.005-1.343-0.008-2.014c0.664-0.733,1.469-1.381,1.972-2.212
		c34.521-56.979,69.128-113.905,103.453-171.002c11.24-18.698,21.741-37.841,32.581-56.779h-0.005
		c0.665-0.01,1.329-0.014,1.993-0.011C1182.667,276,1183.333,276,1184,276z"/>
	<path fill-rule="evenodd" clip-rule="evenodd" fill="#AFE1D5" d="M1182,276c-0.664-0.003-1.328,0.001-1.993,0.011
		c0.661-0.674,1.322-1.348,1.983-2.021L1182,274C1182,274.667,1182,275.333,1182,276z"/>
	<path fill-rule="evenodd" clip-rule="evenodd" fill="#3FA36C" d="M1854.006,2396.012l-0.989-0.001c0,0-0.989,0.011-0.989,0.012
		c0.001,0-0.044-0.045-0.044-0.045c-0.039-2.662,0.154-5.353-0.151-7.983c-3.939-33.871-7.946-67.732-11.941-101.597
		c-4.113-34.855-8.196-69.714-12.36-104.563c-5.146-43.059-10.333-86.112-15.558-129.162c-3.709-30.563-7.648-61.098-11.225-91.675
		c-3.077-26.304-5.785-52.649-8.657-78.978c25.128,12.9,50.334,25.656,75.373,38.729c87.04,45.44,174.04,90.955,261.018,136.515
		c51.592,27.024,103.053,54.296,154.675,81.259c80.219,41.899,160.525,83.63,240.794,125.432l0.059,0.047
		c-0.67,0.667-1.339,1.334-2.009,2c-30.333,5.559-60.721,10.836-90.989,16.729c-107.151,20.859-214.253,41.969-321.39,62.907
		c-78.153,15.274-156.334,30.412-234.492,45.662C1868.051,2392.679,1861.045,2394.432,1854.006,2396.012z"/>
	<path fill-rule="evenodd" clip-rule="evenodd" fill="#69B489" d="M3006,644.006c-44.535,38.191-88.987,76.479-133.629,114.545
		c-41.355,35.267-82.913,70.297-124.383,105.431c4.152-8.297,8.057-16.729,12.495-24.868
		c27.234-49.955,54.503-99.892,81.928-149.743c35.117-63.835,70.393-127.584,105.601-191.37
		c11.021,27.399,22.035,54.802,33.065,82.197c8.297,20.607,16.615,41.206,24.924,61.809C3006.001,642.672,3006,643.339,3006,644.006
		z"/>
	<path fill-rule="evenodd" clip-rule="evenodd" fill="#6EB48A" d="M3006.001,642.006c-8.309-20.603-16.627-41.201-24.924-61.809
		c-11.03-27.396-22.045-54.798-33.065-82.197c-0.003-0.662-0.003-1.324,0-1.986c16.586-7.633,33.232-15.137,49.745-22.924
		c38.781-18.29,77.499-36.716,116.243-55.087c-8.373,18.034-16.557,36.159-25.153,54.086
		c-26.547,55.363-53.245,110.655-79.931,165.952C3008.215,639.493,3006.984,640.689,3006.001,642.006z"/>
	<path fill-rule="evenodd" clip-rule="evenodd" fill="#82C29C" d="M2892,53.996c0.663,1.336,1.326,2.672,1.989,4.008
		c3.649,31.262,7.159,62.541,10.986,93.781c4.19,34.202,8.681,68.367,13.026,102.551c4.429,34.839,8.857,69.677,13.254,104.52
		c4.271,33.862,8.52,67.727,12.738,101.596c1.392,11.175,2.659,22.365,3.983,33.549c-7.845-2.599-15.822-4.859-23.517-7.849
		c-77.109-29.96-154.147-60.103-231.254-90.069c-99.711-38.753-199.443-77.451-299.221-116.036
		c-23.193-8.97-46.601-17.385-69.91-26.056c0,0.001-0.08,0.009-0.08,0.009c0.003-0.657,0.008-1.315,0.016-1.974
		c0.655-0.014,1.311-0.027,1.966-0.042c60.274-21.143,120.569-42.227,180.816-63.445c51.155-18.018,102.259-36.179,153.378-54.299
		c73.07-25.9,146.128-51.837,219.216-77.687c3.412-1.206,7.069-1.721,10.612-2.558C2890.667,53.995,2891.333,53.995,2892,53.996z"/>
	<path fill-rule="evenodd" clip-rule="evenodd" fill="#88CDAF" d="M2321.981,253.952c0.672,0.016,1.344,0.031,2.015,0.047
		l0.08-0.008c25.296,103.336,50.593,206.673,75.891,310.009c-4.049-1.362-8.277-2.343-12.121-4.145
		c-50.851-23.838-101.57-47.956-152.479-71.67c-56.935-26.521-114.116-52.515-171.028-79.085
		c-50.316-23.491-100.418-47.445-150.6-71.226c-15.268-7.235-30.488-14.57-45.729-21.859c4.253-0.671,8.496-1.416,12.761-2.001
		c42.012-5.771,84.029-11.49,126.039-17.272c30.528-4.202,61.041-8.521,91.571-12.709c42.014-5.762,84.031-11.495,126.059-17.154
		C2256.943,262.502,2289.467,258.256,2321.981,253.952z"/>
	<path fill-rule="evenodd" clip-rule="evenodd" fill="#96D4BC" d="M2321.981,253.952c-32.515,4.304-65.038,8.55-97.543,12.927
		c-42.027,5.659-84.045,11.393-126.059,17.154c-30.53,4.188-61.043,8.507-91.571,12.709c-42.01,5.782-84.027,11.502-126.039,17.272
		c-4.265,0.585-8.508,1.33-12.761,2.001c-0.664-0.007-1.328-0.009-1.992-0.006c-3.338-0.668-6.676-1.335-10.014-2.003
		c2.634-0.553,5.269-1.105,8.622-1.811c-18.392-96.351-36.511-191.274-54.63-286.198c0.003-0.665,0.009-1.33,0.016-1.994
		c0.661-0.004,1.323-0.008,1.983-0.013c18.36,8.463,36.641,17.104,55.096,25.354c46.997,21.011,94.07,41.852,141.117,62.752
		c41.291,18.343,82.619,36.6,123.871,55.027c52.147,23.294,104.271,46.64,156.318,70.154
		C2299.779,242.422,2310.796,248.373,2321.981,253.952z"/>
	<path fill-rule="evenodd" clip-rule="evenodd" fill="#B6E3D9" d="M1181.99,273.989c-0.661,0.674-1.322,1.348-1.983,2.021
		c0,0,0.005,0,0.004,0c-16.327,8.141-32.663,16.264-48.979,24.425c-58.005,29.014-115.996,58.055-174.021,87.027
		c-3.54,1.769-7.328,3.04-11.001,4.543c29.736-52.651,59.447-105.316,89.216-157.949c27.641-48.87,55.26-97.753,83.057-146.534
		c11.003-19.31,22.462-38.361,33.713-57.53c3.626,31.194,7.154,62.4,10.904,93.58c4.264,35.446,8.675,70.876,13.125,106.3
		C1177.874,244.595,1179.993,259.284,1181.99,273.989z"/>
	<path fill-rule="evenodd" clip-rule="evenodd" fill="#AFE1D5" d="M946.009,392.006c3.673-1.503,7.461-2.774,11.001-4.543
		c58.025-28.973,116.017-58.014,174.021-87.027c16.316-8.161,32.652-16.284,48.979-24.425c-10.839,18.938-21.34,38.081-32.58,56.779
		c-34.325,57.097-68.933,114.023-103.453,171.002c-0.503,0.831-1.308,1.479-1.972,2.212c-39.331-9.327-78.661-18.655-117.991-27.982
		l-0.018-0.023c0.003-0.666,0.005-1.332,0.005-1.998c6.671-27.33,13.341-54.661,20.012-81.991
		C944.679,393.341,945.344,392.674,946.009,392.006z"/>
	<path fill-rule="evenodd" clip-rule="evenodd" fill="#9BD7C3" d="M1809.995,25.998c18.119,94.924,36.238,189.848,54.63,286.198
		c-3.354,0.705-5.988,1.258-8.622,1.811c-6.589-0.666-13.182-1.297-19.767-2.006c-29.3-3.154-58.578-6.518-87.903-9.416
		c-13.398-1.325-26.886-1.751-40.333-2.585c0,0-0.03-0.016-0.031-0.016c18.563-50.412,37.065-100.846,55.706-151.229
		c13.925-37.639,28.013-75.216,42.069-112.805C1807.006,32.575,1808.571,29.313,1809.995,25.998z"/>
	<path fill-rule="evenodd" clip-rule="evenodd" fill="#80BA94" d="M243.998,2110c-0.664,0.667-1.329,1.334-1.993,2
		C242.669,2111.334,243.334,2110.667,243.998,2110z"/>
	<path fill-rule="evenodd" clip-rule="evenodd" fill="#87C19C" d="M2892,53.996c-0.667-0.001-1.333-0.001-2-0.001
		c0.667-0.664,1.334-1.328,2-1.992C2892,52.667,2892,53.331,2892,53.996z"/>
	<path fill-rule="evenodd" clip-rule="evenodd" fill="#47A472" d="M2789.978,1245.983c18.687-8.565,37.25-17.412,56.082-25.646
		c59.385-25.965,118.858-51.726,178.319-77.517c51.229-22.22,102.484-44.38,153.733-66.554
		c27.759-12.011,55.513-24.027,83.313-35.939c2.692-1.154,5.694-1.586,8.553-2.353c-24.191,71.102-48.348,142.215-72.586,213.301
		c-13.729,40.265-27.59,80.484-41.392,120.724l-0.011-0.004c-13.436-4.563-26.857-9.163-40.308-13.681
		c-24.494-8.228-49.097-16.141-73.484-24.67c-33.113-11.581-66.017-23.758-99.102-35.419
		c-33.398-11.771-66.88-23.308-100.381-34.783C2825.198,1257.442,2807.561,1251.792,2789.978,1245.983z"/>
	<path fill-rule="evenodd" clip-rule="evenodd" fill="#248C47" d="M3000,2032.006c32.104,60.879,64.15,121.789,96.337,182.625
		c14.449,27.311,29.195,54.463,43.743,81.722c0.918,1.723,1.277,3.743,1.897,5.625c-63.326-8.702-126.661-17.342-189.976-26.125
		c-61.021-8.464-122.018-17.09-183.034-25.58c-2.949-0.41-5.983-0.203-8.979-0.284c16.453-15.389,32.772-30.923,49.394-46.127
		c19.082-17.456,38.451-34.598,57.66-51.916C2911.373,2111.979,2955.682,2071.987,3000,2032.006z"/>
	<path fill-rule="evenodd" clip-rule="evenodd" fill="#65B58B" d="M960.007,2270.012c-0.669-0.004-1.338-0.008-2.007-0.012
		c0-0.662,0-1.326,0-1.988c6.948-10.471,14.119-20.8,20.809-31.433c39.144-62.216,78.209-124.481,117.233-186.771
		c58.272-93.014,116.546-186.026,174.689-279.121c13.361-21.393,26.196-43.114,39.274-64.685c0.651-0.033,1.303-0.057,1.955-0.068
		c0.659,2.911,1.7,5.793,1.92,8.736c3.427,45.901,6.711,91.813,10.104,137.716c3.271,44.247,6.659,88.485,9.943,132.731
		c4.045,54.487,8.15,108.97,12.013,163.471c2.88,40.639,5.301,81.311,8.172,121.951c0.885,12.523,2.578,24.99,3.901,37.483
		c-0.005,0.651-0.018,1.304-0.039,1.955c-11.16-1.325-22.303-2.829-33.484-3.941c-29.638-2.948-59.301-5.642-88.938-8.595
		c-30.611-3.051-61.199-6.34-91.807-9.426c-29.631-2.987-59.272-5.86-88.912-8.762
		C1023.226,2276.159,991.615,2273.091,960.007,2270.012z"/>
	<path fill-rule="evenodd" clip-rule="evenodd" fill="#70BB94" d="M1310.006,1706.002c-13.078,21.57-25.913,43.292-39.274,64.685
		c-58.144,93.095-116.417,186.107-174.689,279.121c-39.024,62.29-78.09,124.556-117.233,186.771
		c-6.689,10.633-13.86,20.962-20.809,31.433c-8.979-5.519-18.148-10.748-26.903-16.602c-60.454-40.42-120.79-81.018-181.245-121.434
		c-10.411-6.961-21.216-13.333-31.838-19.977c-0.003-0.663-0.004-1.326-0.002-1.988c0-0.001-0.003-0.012-0.004-0.012
		c0.66,0,1.319-0.011,1.979-0.033c16.489-11.217,32.994-22.411,49.465-33.654c107.885-73.648,215.776-147.287,323.636-220.973
		c37.324-25.499,74.479-51.246,111.868-76.65C1239.864,1752.969,1274.98,1729.552,1310.006,1706.002z"/>
	<path fill-rule="evenodd" clip-rule="evenodd" fill="#8ECAA9" d="M427.991,1823.988c-9.723,14.224-19.729,28.262-29.117,42.703
		c-36.617,56.326-72.967,112.826-109.569,169.163c-13.55,20.855-27.519,41.438-41.296,62.146c-2.773-3.357-6.755-6.281-8.135-10.138
		c-15.116-42.261-29.515-84.78-44.738-127.003c-13.909-38.579-28.726-76.831-42.888-115.321
		c-10.954-29.771-21.514-59.687-32.249-89.538c0-0.667,0.001-1.333,0.002-2c0.665-0.005,1.329-0.008,1.994-0.01
		c60.583,13.36,121.18,26.66,181.745,40.102c41.439,9.197,82.835,18.591,124.251,27.897
		C427.991,1822.655,427.991,1823.322,427.991,1823.988z"/>
	<path fill-rule="evenodd" clip-rule="evenodd" fill="#8ECAA9" d="M118.003,1760c0.666-1.333,1.331-2.667,1.997-4
		C119.334,1757.333,118.669,1758.667,118.003,1760z"/>
	<path fill-rule="evenodd" clip-rule="evenodd" fill="#B1E1D5" d="M252.008,774.006c7.291,6.991,15.039,13.568,21.791,21.046
		c27.314,30.246,54.369,60.728,81.422,91.208c13.631,15.359,26.94,31.005,40.665,46.277c2.748,3.058,6.721,5.015,10.129,7.479
		c-0.007,0.658-0.013,1.316-0.018,1.976c-1.33,0.67-2.66,1.341-3.99,2.012c-0.664,0.005-1.329,0.01-1.993,0.015
		c-71.994,23.657-144.004,47.267-215.977,70.988c-53.371,17.591-106.693,35.328-160.038,53l-0.001-0.023
		c18.317-23.967,36.441-48.083,54.993-71.867c32.845-42.108,65.966-84.002,98.94-126.01c22.938-29.224,45.841-58.474,68.699-87.76
		C248.657,779.75,250.226,776.795,252.008,774.006z"/>
	<path fill-rule="evenodd" clip-rule="evenodd" fill="#5EAD80" d="M960.007,2270.012c31.608,3.079,63.219,6.147,94.826,9.242
		c29.64,2.901,59.281,5.774,88.912,8.762c30.607,3.086,61.195,6.375,91.807,9.426c29.638,2.953,59.301,5.646,88.938,8.595
		c11.182,1.112,22.324,2.616,33.485,3.941c-6.352,24.756-12.838,49.479-19.021,74.275c-7.784,31.214-15.321,62.487-22.966,93.735
		c-0.66,0.008-1.321,0.014-1.982,0.017c-41.744-24.55-83.417-49.222-125.248-73.621c-73.548-42.9-147.198-85.624-220.771-128.48
		C965.146,2274.249,962.658,2271.989,960.007,2270.012z"/>
	<path fill-rule="evenodd" clip-rule="evenodd" fill="#329A5B" d="M2568,1696.022c13.977,40.909,27.938,81.824,41.934,122.728
		c16.034,46.854,31.965,93.745,48.185,140.535c24.071,69.438,48.438,138.772,72.515,208.208
		c9.031,26.046,17.602,52.252,26.452,78.594c-2.674,1.473-4.88,2.688-7.085,3.901c-37.963,2.622-75.923,5.312-113.893,7.84
		c-22.795,1.52-45.605,2.833-68.414,4.152c-13.226,0.765-26.462,1.359-39.693,2.031c-0.678-0.012-1.355-0.023-2.033-0.034
		c0.756-15.585,1.159-31.197,2.336-46.751c3.049-40.314,6.645-80.588,9.627-120.906c2.373-32.082,3.865-64.229,6.28-96.309
		c3.681-48.908,8.065-97.765,11.688-146.678c3.063-41.338,5.347-82.733,8.245-124.085c0.779-11.122,2.544-22.176,3.856-33.261
		V1696.022z"/>
	<path fill-rule="evenodd" clip-rule="evenodd" fill="#43A670" d="M2789.978,1245.983c17.583,5.809,35.221,11.459,52.738,17.46
		c33.501,11.476,66.982,23.012,100.381,34.783c33.085,11.661,65.988,23.838,99.102,35.419c24.388,8.529,48.99,16.442,73.484,24.67
		c13.45,4.518,26.872,9.118,40.308,13.681c0.002,0.656-0.002,1.313-0.013,1.968c-24.362,12.906-48.831,25.618-73.063,38.765
		c-41.222,22.362-82.281,45.023-123.434,67.514c-71.51,39.081-143.017,78.166-214.565,117.175
		c-47.022,25.637-94.129,51.12-141.169,76.726c-11.972,6.517-23.834,13.236-35.746,19.863c0,0-0.022-0.069-0.022-0.068
		c0.005-0.647,0.005-1.295,0-1.943c17.905-36.449,35.689-72.959,53.738-109.338c54.162-109.168,108.435-218.283,162.621-327.439
		c1.466-2.951,2.453-6.139,3.663-9.217v-0.001C2788.659,1245.993,2789.318,1245.987,2789.978,1245.983z"/>
	<path fill-rule="evenodd" clip-rule="evenodd" fill="#83B592" d="M2978.012,36.007c1.328-0.671,2.656-1.343,3.984-2.015
		C2980.668,34.664,2979.34,35.336,2978.012,36.007z"/>
	<path fill-rule="evenodd" clip-rule="evenodd" fill="#3AA468" d="M2568,1695.988c-1.313,11.085-3.077,22.139-3.856,33.261
		c-2.898,41.352-5.183,82.747-8.245,124.085c-3.623,48.913-8.008,97.77-11.688,146.678c-2.415,32.079-3.907,64.227-6.28,96.309
		c-2.982,40.318-6.578,80.592-9.627,120.906c-1.177,15.554-1.58,31.166-2.336,46.751c-0.653,0.012-1.306,0.02-1.959,0.022
		c0.001,0-0.058-0.047-0.057-0.046c-5.281-29.372-10.577-58.743-15.84-88.119c-13.748-76.724-27.488-153.448-41.217-230.175
		c-8.998-50.281-17.855-100.588-26.996-150.843c-5.752-31.631-11.911-63.188-17.887-94.778c4.245-0.672,8.476-1.801,12.738-1.942
		c44.406-1.478,88.817-2.797,133.228-4.16l0.022,0.069C2568,1694.667,2568,1695.328,2568,1695.988z"/>
	<path fill-rule="evenodd" clip-rule="evenodd" fill="#9ED8C4" d="M400.014,944.019c0.664-0.005,1.329-0.01,1.993-0.015
		c1.38,2.813,3.506,5.492,4.032,8.456c18.158,102.157,36.116,204.35,54.209,306.518c18.035,101.85,36.112,203.691,54.419,305.491
		c1.442,8.022,4.818,15.695,7.295,23.531c0.007,0.658,0.009,1.317,0.006,1.977c-0.652,0.012-1.305,0.023-1.956,0.035
		c-11.432-3.463-22.947-6.673-34.282-10.427c-125.404-41.534-250.766-83.199-376.177-124.713
		c-27.772-9.193-55.695-17.934-83.548-26.883c-0.669-0.663-1.337-1.326-2.006-1.989c0-0.667-0.001-1.333-0.001-2v-0.006
		c27.991-35.316,56.12-70.525,83.938-105.977c31.735-40.443,63.076-81.197,94.807-121.644
		c31.729-40.442,63.735-80.666,95.605-120.997c20.975-26.543,42.073-52.99,62.83-79.702
		C374.394,978.667,387.087,961.252,400.014,944.019z"/>
	<path fill-rule="evenodd" clip-rule="evenodd" fill="#97D3B9" d="M26.005,1427.989c27.853,8.949,55.775,17.689,83.548,26.883
		c125.411,41.514,250.772,83.179,376.177,124.713c11.335,3.754,22.851,6.964,34.281,10.426c-0.005,0.661-0.01,1.322-0.014,1.983
		c-3.786,1.237-7.666,2.242-11.344,3.744c-81.253,33.178-162.491,66.396-243.717,99.641c-47.66,19.506-95.294,39.072-142.94,58.611
		c-0.665,0.002-1.329,0.005-1.994,0.01c-2.667-0.665-5.335-1.33-8.002-1.994c1.807-0.497,3.614-0.994,6.449-1.773
		c-9.571-32.713-18.955-64.846-28.375-96.968c-21.396-72.958-42.825-145.907-64.139-218.889
		C25.364,1432.42,25.956,1430.125,26.005,1427.989z"/>
	<path fill-rule="evenodd" clip-rule="evenodd" fill="#4DA979" d="M1792.092,1882.02c2.871,26.328,5.579,52.674,8.656,78.978
		c3.576,30.577,7.516,61.112,11.225,91.675c5.225,43.05,10.412,86.104,15.558,129.162c4.164,34.85,8.247,69.708,12.36,104.563
		c3.995,33.864,8.002,67.726,11.941,101.597c0.306,2.631,0.112,5.321,0.151,7.983c-0.661,0.011-1.322,0.015-1.983,0.014
		c-23.979-4.622-47.895-9.613-71.95-13.793c-53.176-9.24-106.449-17.925-159.633-27.12c-39.175-6.773-78.244-14.154-117.409-20.98
		c-46.974-8.187-93.999-16.071-141.002-24.086c-0.004-0.663-0.006-1.326-0.006-1.989c2.261-1.944,4.646-3.762,6.763-5.852
		c55.399-54.686,110.782-109.387,166.143-164.112c60.567-59.872,121.102-119.778,181.667-179.653
		c25.781-25.489,51.605-50.936,77.41-76.401L1792.092,1882.02z"/>
	<path fill-rule="evenodd" clip-rule="evenodd" fill="#4DA575" d="M1360.006,2310.012c47.003,8.015,94.028,15.899,141.002,24.086
		c39.165,6.826,78.234,14.207,117.409,20.98c53.184,9.195,106.457,17.88,159.633,27.12c24.056,4.18,47.972,9.171,71.95,13.793
		c-21.256,3.324-42.481,6.859-63.774,9.925c-36.089,5.195-72.222,10.081-108.333,15.119c-45.303,6.32-90.615,12.577-135.897,19.039
		c-16.702,2.385-33.332,5.276-49.995,7.938l-0.001-0.045c-2.201-3.189-3.983-6.796-6.67-9.505
		c-25.691-25.909-51.716-51.489-77.271-77.531C1391.715,2344.276,1376.002,2327.006,1360.006,2310.012z"/>
	<path fill-rule="evenodd" clip-rule="evenodd" fill="#A8DCCE" d="M400.014,944.019c-12.927,17.233-25.62,34.648-38.836,51.656
		c-20.757,26.712-41.855,53.159-62.83,79.702c-31.87,40.331-63.877,80.555-95.605,120.997
		c-31.731,40.446-63.072,81.2-94.807,121.644c-27.818,35.451-55.947,70.66-83.938,105.977c-0.666-46.255-1.688-92.509-1.911-138.766
		c-0.329-67.854-0.124-135.71,0-203.564c0.008-4.554,1.247-9.105,1.914-13.657c53.344-17.672,106.667-35.409,160.038-53
		C256.01,991.285,328.02,967.676,400.014,944.019z"/>
	<path fill-rule="evenodd" clip-rule="evenodd" fill="#55A779" d="M1360.006,2310.012c15.996,16.994,31.709,34.265,48.053,50.919
		c25.555,26.042,51.579,51.622,77.271,77.531c2.687,2.709,4.469,6.315,6.67,9.505c-0.662,0.018-1.325,0.033-1.988,0.045
		c-36.502,6.275-73.007,12.545-109.508,18.83c-21.507,3.702-43.01,7.43-64.514,11.146c7.644-31.248,15.181-62.521,22.965-93.735
		c6.184-24.797,12.67-49.52,19.021-74.275c0.021-0.651,0.033-1.304,0.037-1.955c0-0.001,0.994-0.001,0.994-0.001l0.993,0.001
		C1360,2308.686,1360.002,2309.349,1360.006,2310.012z"/>
	<path fill-rule="evenodd" clip-rule="evenodd" fill="#86C8A4" d="M427.991,1823.988c0-0.666,0-1.333,0-1.999l0.005,0.004
		c0.668-0.662,1.337-1.325,2.006-1.987L430,1820c2.459-0.949,5.063-1.632,7.355-2.886c46.901-25.662,93.769-51.389,140.642-77.103
		c23.266,61.18,46.522,122.363,69.799,183.539c23.394,61.487,46.808,122.967,70.213,184.449c0,0,0.003,0.011,0.003,0.012
		c-23.003-22.67-46.033-45.312-69.004-68.015c-60.103-59.403-120.104-118.908-180.322-178.193
		C455.496,1848.817,441.575,1836.574,427.991,1823.988z"/>
	<path fill-rule="evenodd" clip-rule="evenodd" fill="#A8DED1" d="M405.997,941.992c0.005-0.659,0.011-1.317,0.018-1.976
		c23.975-20.986,48.053-41.856,71.9-62.988c36.279-32.147,72.44-64.429,108.573-96.742c27.23-24.354,54.269-48.921,81.516-73.257
		c35.408-31.625,70.999-63.047,106.396-94.686c27.733-24.789,55.255-49.814,82.939-74.658
		c21.497-19.291,43.101-38.463,64.657-57.688c0.668,0.001,1.335,0.001,2.003,0.002c-0.654,1.877-1.46,3.716-1.94,5.637
		c-39.914,159.477-79.858,318.945-119.645,478.454c-7.789,31.229-14.955,62.612-22.408,93.925c-1.335,2.665-2.669,5.33-4.004,7.996
		c-45.709-15.349-91.409-30.721-137.128-46.04C561.255,993.961,483.624,967.983,405.997,941.992z"/>
	<path fill-rule="evenodd" clip-rule="evenodd" fill="#AFE1D5" d="M924,480c-0.668-0.001-1.335-0.001-2.003-0.002
		c0.667-0.667,1.333-1.333,2-2l0.018,0.023C924.008,478.681,924.003,479.34,924,480z"/>
	<path fill-rule="evenodd" clip-rule="evenodd" fill="#66BB93" d="M2744.037,866.024c-0.035,0.658-0.047,1.317-0.035,1.977
		c0.007,0.659-0.006,1.317-0.035,1.976c-18.14,18.484-36.3,36.948-54.416,55.455c-30.009,30.655-60.028,61.301-89.969,92.022
		c-20.417,20.949-40.746,41.985-60.994,63.097c-1.97,2.054-3.093,4.92-4.609,7.409c-0.667,0.01-1.334,0.02-2.001,0.029
		c-1.324-0.658-2.648-1.317-3.973-1.976c0.105-3.41,0.999-7.018,0.203-10.203c-34.321-137.33-68.854-274.607-103.197-411.934
		c-7.974-31.883-15.356-63.914-23.011-95.877c22.549,19.548,45.156,39.027,67.631,58.66c28.229,24.659,56.288,49.513,84.529,74.156
		c34.73,30.305,69.586,60.465,104.363,90.715C2687.046,816.342,2715.533,841.192,2744.037,866.024z"/>
	<path fill-rule="evenodd" clip-rule="evenodd" fill="#4FB284" d="M2531.978,1087.988c0.667-0.009,1.334-0.019,2.001-0.027
		c31.004,19.343,61.881,38.889,93.036,57.982c53.567,32.829,107.307,65.375,160.974,98.04c0.004,0.672,0.008,1.344,0.012,2.017
		c0-0.001,0,0,0,0c-1.885,0.613-3.816,1.115-5.649,1.857c-38.48,15.58-76.952,31.182-115.421,46.792
		c-46.469,18.856-92.91,37.775-139.402,56.574c-58.485,23.647-117.009,47.2-175.516,70.793c-0.004-0.669-0.008-1.337-0.012-2.005
		c1.512-1.708,3.425-3.2,4.477-5.155c29.651-55.099,59.18-110.264,88.807-165.375c17.49-32.534,35.246-64.927,52.626-97.52
		c10.942-20.521,21.41-41.296,32.091-61.956C2530.659,1089.333,2531.318,1088.661,2531.978,1087.988z"/>
	<path fill-rule="evenodd" clip-rule="evenodd" fill="#58B285" d="M2787.988,1243.983c-53.667-32.665-107.406-65.211-160.974-98.04
		c-31.155-19.094-62.032-38.64-93.036-57.982c1.517-2.49,2.64-5.356,4.609-7.41c20.248-21.111,40.577-42.147,60.994-63.097
		c29.94-30.722,59.96-61.367,89.969-92.022c18.116-18.507,36.276-36.971,54.416-55.455c2.674,20.327,5.515,40.635,7.989,60.985
		c5.317,43.74,10.587,87.487,15.61,131.262c4.346,37.86,8.265,75.77,12.486,113.645
		C2782.585,1198.586,2785.336,1221.279,2787.988,1243.983z"/>
	<path fill-rule="evenodd" clip-rule="evenodd" fill="#6EBB93" d="M2744.037,866.024c-28.504-24.832-56.991-49.683-85.514-74.493
		c-34.777-30.25-69.633-60.41-104.363-90.715c-28.241-24.644-56.301-49.497-84.529-74.156
		c-22.475-19.633-45.082-39.112-67.631-58.66c0-0.665,0-1.33,0-1.994c11.433-1.699,22.843-3.574,34.303-5.063
		c33.838-4.396,67.697-8.629,101.546-12.945c34.175-4.358,68.345-8.752,102.521-13.106c33.849-4.313,67.703-8.581,101.553-12.897
		c34.174-4.358,68.338-8.801,102.518-13.116c34.51-4.357,69.032-8.604,103.549-12.898c0,0,0.022,0.035,0.023,0.035
		c-0.003,0.662-0.003,1.324,0,1.986c-35.208,63.786-70.483,127.535-105.601,191.37c-27.425,49.852-54.693,99.788-81.928,149.743
		c-4.438,8.14-8.343,16.571-12.495,24.868C2746.672,864.662,2745.354,865.344,2744.037,866.024z"/>
	<path fill-rule="evenodd" clip-rule="evenodd" fill="#7CC39F" d="M2947.988,495.979c-34.517,4.295-69.039,8.541-103.549,12.898
		c-34.18,4.315-68.344,8.758-102.518,13.116c-33.85,4.316-67.704,8.584-101.553,12.897c-34.176,4.354-68.346,8.748-102.521,13.106
		c-33.849,4.316-67.708,8.549-101.546,12.945c-11.46,1.489-22.87,3.364-34.303,5.063c-0.663-0.002-1.326-0.001-1.988,0.001
		c-0.016-0.669-0.03-1.338-0.045-2.007c-25.298-103.336-50.595-206.673-75.891-310.009c23.31,8.67,46.717,17.085,69.91,26.055
		c99.777,38.585,199.51,77.283,299.221,116.036c77.106,29.967,154.145,60.109,231.254,90.069c7.694,2.989,15.672,5.25,23.517,7.849
		C2947.988,494.659,2947.992,495.319,2947.988,495.979z"/>
	<path fill-rule="evenodd" clip-rule="evenodd" fill="#90D4C2" d="M1046.001,509.985c20.432,6.932,40.97,13.566,61.274,20.851
		c62.906,22.57,125.709,45.43,188.58,68.1c83.205,30,166.434,59.933,249.664,89.862c3.434,1.234,6.984,2.144,10.48,3.205
		c0.653,0.658,1.307,1.316,1.961,1.975l0.052,0.023c-1.327,41.504-2.796,83.004-3.945,124.513
		c-1.49,53.826-2.727,107.659-4.073,161.489c-0.668,10.661-1.337,21.323-2.006,31.985c-2.74-2.407-5.626-4.67-8.201-7.244
		c-72.509-72.456-144.986-144.943-217.47-217.426c-44.702-44.702-89.404-89.404-134.106-134.107
		c-33.22-33.219-66.488-66.39-99.635-99.682C1074.254,539.145,1060.186,524.508,1046.001,509.985z"/>
	<path fill-rule="evenodd" clip-rule="evenodd" fill="#8DD2BD" d="M1557.961,693.978c27.345-71.991,54.68-143.986,82.038-215.972
		c20.64-54.308,41.302-108.606,61.988-162.896c1.18-3.097,2.668-6.076,4.013-9.11c1.261,2.285,3.238,4.442,3.676,6.876
		c6.208,34.59,12.212,69.215,18.258,103.833c11.748,67.272,23.522,134.541,35.223,201.822c4.372,25.139,8.567,50.309,12.844,75.464
		c-37.255,0.001-74.511,0.19-111.764-0.086c-15.9-0.118-31.794-1.763-47.688-1.717c-19.513,0.058-39.023,1.159-58.535,1.81
		L1557.961,693.978z"/>
	<path fill-rule="evenodd" clip-rule="evenodd" fill="#90D3BE" d="M1776,693.994c-4.276-25.155-8.472-50.325-12.844-75.464
		c-11.7-67.281-23.475-134.55-35.223-201.822c-6.046-34.618-12.05-69.243-18.258-103.833c-0.438-2.434-2.415-4.591-3.676-6.876
		c0.667-2,1.333-3.999,2-5.999c13.447,0.834,26.935,1.26,40.333,2.585c29.325,2.898,58.604,6.262,87.903,9.416
		c6.585,0.709,13.178,1.34,19.767,2.006c3.338,0.668,6.676,1.335,10.014,2.003c-5.848,25.202-11.728,50.396-17.537,75.607
		c-12.293,53.344-24.438,106.722-36.856,160.036c-11.06,47.481-22.408,94.895-33.629,142.338
		C1777.33,693.997,1776.665,693.998,1776,693.994z"/>
	<path fill-rule="evenodd" clip-rule="evenodd" fill="#8ED3C1" d="M1046.001,509.985c14.185,14.522,28.253,29.159,42.575,43.544
		c33.146,33.292,66.415,66.463,99.635,99.682c44.702,44.703,89.404,89.405,134.106,134.107
		c72.483,72.482,144.961,144.97,217.47,217.426c2.575,2.574,5.461,4.837,8.202,7.245l0.033,0.026
		c-0.003,0.655-0.018,1.311-0.043,1.965c-6.269,2.205-12.611,4.219-18.794,6.644c-152.4,59.77-304.783,119.582-457.169,179.388
		c-1.339-0.671-2.678-1.342-4.017-2.012c1.258-2.307,3.696-4.672,3.586-6.911c-0.919-18.521-2.621-37.002-3.496-55.523
		c-2.191-46.394-4.064-92.801-6.081-139.202c-1.311-30.159-2.665-60.315-3.971-90.474c-2.022-46.734-4.016-93.47-6.03-140.204
		c-1.314-30.491-2.779-60.977-3.939-91.473c-2.107-55.388-4.039-110.782-6.043-166.174l-0.012-0.021
		C1043.344,508.673,1044.672,509.329,1046.001,509.985z"/>
	<path fill-rule="evenodd" clip-rule="evenodd" fill="#A7DDD0" d="M924,480c0.003-0.66,0.008-1.319,0.015-1.979
		c39.33,9.327,78.66,18.655,117.991,27.982c0.003,0.671,0.006,1.342,0.008,2.014c0,0,0.012,0.021,0.011,0.021
		c-24.053,50.738-48.062,101.498-72.168,152.211c-39.543,83.187-79.211,166.313-118.692,249.528
		c-13.108,27.627-25.571,55.561-38.764,83.146c-10.454,21.861-21.57,43.406-32.394,65.092c7.453-31.313,14.619-62.696,22.408-93.925
		c39.786-159.509,79.73-318.978,119.645-478.454C922.54,483.716,923.346,481.877,924,480z"/>
	<path fill-rule="evenodd" clip-rule="evenodd" fill="#3FA870" d="M2422.012,1700.039c5.976,31.59,12.135,63.147,17.887,94.778
		c9.141,50.255,17.998,100.562,26.996,150.843c13.729,76.727,27.469,153.451,41.217,230.175
		c5.263,29.376,10.559,58.747,15.84,88.119c-80.27-41.803-160.576-83.533-240.795-125.433
		c-51.622-26.963-103.083-54.234-154.675-81.259c-86.978-45.56-173.978-91.074-261.018-136.515
		c-25.039-13.072-50.245-25.828-75.373-38.729c0.001,0-0.108-0.016-0.108-0.016c0.045-0.655,0.077-1.311,0.096-1.967
		c0.636-0.014,1.271-0.036,1.907-0.066c2.273-0.428,4.602-0.669,6.813-1.31c87.521-25.343,175.012-50.792,262.55-76.076
		c82.741-23.899,165.517-47.681,248.307-71.414c36.741-10.532,73.554-20.818,110.333-31.216L2422.012,1700.039z"/>
	<path fill-rule="evenodd" clip-rule="evenodd" fill="#85CDB2" d="M1777.994,693.991c11.221-47.443,22.569-94.856,33.629-142.338
		c12.419-53.314,24.563-106.692,36.856-160.036c5.81-25.211,11.689-50.405,17.537-75.607c0.664-0.003,1.328-0.001,1.992,0.006
		c15.241,7.289,30.462,14.624,45.729,21.859c50.182,23.78,100.283,47.734,150.6,71.226c56.912,26.57,114.094,52.563,171.028,79.085
		c50.909,23.714,101.629,47.832,152.479,71.67c3.844,1.802,8.072,2.782,12.121,4.145c0.015,0.669,0.029,1.338,0.045,2.007
		l-0.012-0.001c-40.881,8.652-81.731,17.456-122.65,25.926c-76.634,15.862-153.32,31.465-229.959,47.301
		c-62.03,12.816-124.044,25.713-186.022,38.779c-27.18,5.73-54.253,11.971-81.374,17.979c-0.664,0.002-1.329,0.003-1.994,0.006
		C1777.998,695.329,1777.996,694.66,1777.994,693.991z"/>
	<path fill-rule="evenodd" clip-rule="evenodd" fill="#78C6A2" d="M1310.006,1706.002c-35.025,23.55-70.142,46.967-105.051,70.688
		c-37.389,25.404-74.544,51.151-111.868,76.65c-107.859,73.686-215.751,147.324-323.636,220.973
		c-16.471,11.243-32.976,22.438-49.465,33.654c2.564-9.959,4.949-19.969,7.723-29.869c25.369-90.566,50.82-181.109,76.221-271.666
		c25.49-90.876,51.041-181.734,76.368-272.655c7.568-27.17,14.476-54.524,21.686-81.793l0.004,0.008
		c0.669-0.664,1.339-1.328,2.008-1.992l0.008,0.001c24.563,15.265,49.112,30.55,73.69,45.79
		c90.406,56.06,180.793,112.151,271.257,168.12c20.872,12.914,42.018,25.386,63.037,38.062c0,0,0.03,0.057,0.03,0.056
		c0.006,0.665,0.021,1.33,0.046,1.994c-0.044,0.637-0.078,1.274-0.103,1.912C1311.309,1705.945,1310.657,1705.969,1310.006,1706.002
		z"/>
	<path fill-rule="evenodd" clip-rule="evenodd" fill="#5CB589" d="M1311.961,1705.934c0.024-0.638,0.059-1.275,0.102-1.912
		c1.978-0.006,3.956-0.011,5.935-0.016c1.637,1.104,3.131,2.587,4.929,3.256c47.389,17.646,94.812,35.2,142.223,52.783
		c63.32,23.483,126.614,47.038,189.963,70.447c44.926,16.602,89.923,33.012,134.889,49.508c0.693,0.013,1.386,0.025,2.079,0.037
		c-0.02,0.656-0.052,1.312-0.097,1.967c-25.805,25.466-51.629,50.912-77.41,76.401c-60.565,59.875-121.1,119.781-181.667,179.653
		c-55.36,54.726-110.743,109.427-166.143,164.112c-2.116,2.09-4.502,3.907-6.763,5.852l-0.993-0.001c0,0-0.994,0-0.994,0.001
		c-1.322-12.493-3.016-24.96-3.9-37.483c-2.871-40.641-5.292-81.313-8.172-121.951c-3.862-54.501-7.968-108.983-12.013-163.471
		c-3.284-44.246-6.672-88.484-9.943-132.731c-3.393-45.903-6.677-91.814-10.104-137.716
		C1313.661,1711.727,1312.62,1708.845,1311.961,1705.934z"/>
	<path fill-rule="evenodd" clip-rule="evenodd" fill="#83C9A7" d="M901.983,1451.982c-7.21,27.27-14.117,54.624-21.686,81.794
		c-25.327,90.921-50.878,181.779-76.368,272.655c-25.4,90.557-50.852,181.1-76.221,271.666c-2.773,9.9-5.158,19.91-7.723,29.869
		c-0.659,0.022-1.318,0.033-1.979,0.033c-23.404-61.482-46.818-122.962-70.212-184.449c-23.276-61.176-46.533-122.359-69.799-183.54
		c0.666-0.67,1.332-1.341,1.997-2.011c29.199-26.127,58.359-52.296,87.605-78.37c35.438-31.594,70.925-63.13,106.432-94.645
		c21.847-19.391,43.878-38.574,65.628-58.073c20.248-18.152,40.233-36.6,60.335-54.918
		C900.657,1451.986,901.32,1451.982,901.983,1451.982z"/>
	<path fill-rule="evenodd" clip-rule="evenodd" fill="#90CFB1" d="M121.996,1753.99c47.646-19.539,95.281-39.105,142.94-58.611
		c81.226-33.245,162.464-66.463,243.717-99.641c3.678-1.502,7.558-2.507,11.344-3.744c0.001,0.669,0.002,1.338,0.003,2.006
		c-1.222,1.938-2.777,3.742-3.616,5.834c-19.885,49.523-39.848,99.017-59.444,148.655c-9.353,23.689-17.982,47.665-26.939,71.511
		l0.002,0.006c-0.669,0.662-1.338,1.325-2.006,1.987l-0.005-0.004c-41.416-9.307-82.812-18.7-124.251-27.897
		C243.175,1780.65,182.579,1767.351,121.996,1753.99z"/>
	<path fill-rule="evenodd" clip-rule="evenodd" fill="#9DD8C6" d="M405.997,941.992c77.627,25.991,155.258,51.969,232.878,77.979
		c45.719,15.319,91.419,30.691,137.128,46.039c0.002,0.669,0.004,1.338,0.006,2.006c-15.673,32.662-31.166,65.411-47.057,97.967
		c-33.707,69.056-67.609,138.017-101.454,207.006c-35.165,71.677-70.356,143.341-105.536,215.011
		c-2.477-7.836-5.853-15.509-7.295-23.531c-18.307-101.8-36.384-203.642-54.419-305.491
		c-18.093-102.168-36.051-204.36-54.209-306.518c-0.526-2.964-2.652-5.644-4.032-8.456
		C403.337,943.333,404.667,942.662,405.997,941.992z"/>
	<path fill-rule="evenodd" clip-rule="evenodd" fill="#48AD7A" d="M2352.012,1422.017c58.507-23.593,117.03-47.146,175.516-70.793
		c46.492-18.799,92.934-37.718,139.402-56.574c38.469-15.61,76.94-31.212,115.421-46.792c1.833-0.742,3.765-1.244,5.649-1.857
		c-1.21,3.078-2.197,6.266-3.663,9.217c-54.187,109.156-108.459,218.271-162.621,327.439
		c-18.049,36.379-35.833,72.889-53.738,109.338c-1.896-1.172-4.302-1.936-5.611-3.576c-22.575-28.264-45.155-56.525-67.454-85.008
		c-44.183-56.435-88.17-113.022-132.41-169.412c-1.148-1.464-4.291-1.363-6.503-1.992
		C2354.67,1428.676,2353.341,1425.347,2352.012,1422.017z"/>
	<path fill-rule="evenodd" clip-rule="evenodd" fill="#45AE78" d="M2355.998,1432.006c2.213,0.629,5.355,0.528,6.504,1.992
		c44.24,56.39,88.228,112.978,132.41,169.412c22.299,28.482,44.879,56.744,67.454,85.008c1.31,1.641,3.716,2.404,5.611,3.576
		c0.005,0.648,0.005,1.296,0,1.943c-44.41,1.362-88.821,2.682-133.228,4.159c-4.263,0.142-8.493,1.271-12.738,1.942l-0.023-0.084
		c-0.523-3.26-0.807-6.581-1.609-9.771c-13.772-54.789-27.687-109.543-41.401-164.346
		C2371.16,1494.6,2363.648,1463.285,2355.998,1432.006z"/>
	<path fill-rule="evenodd" clip-rule="evenodd" fill="#8FD2BA" d="M521.962,1588c35.18-71.67,70.371-143.334,105.536-215.011
		c33.845-68.989,67.747-137.95,101.454-207.006c15.891-32.556,31.384-65.305,47.056-97.967c0.665-0.005,1.33-0.007,1.995-0.006
		c21.345,65.356,42.633,130.73,64.06,196.06c9.834,29.983,19.862,59.904,29.941,89.806c10.587,31.406,21.34,62.756,32.02,94.13
		c-0.011,0.664-0.018,1.329-0.021,1.994l-0.008-0.001c-0.669,0.664-1.339,1.328-2.008,1.992l-0.004-0.008
		c-0.663-0.001-1.326,0.003-1.989,0.011c-2.902,0.642-5.925,0.955-8.689,1.971c-59.863,22.001-119.692,44.092-179.538,66.14
		c-63.261,23.305-126.532,46.582-189.799,69.872C521.971,1589.317,521.969,1588.658,521.962,1588z"/>
	<path fill-rule="evenodd" clip-rule="evenodd" fill="#8BCEB1" d="M521.968,1589.977c63.267-23.29,126.538-46.567,189.799-69.872
		c59.846-22.048,119.675-44.139,179.538-66.14c2.765-1.016,5.787-1.329,8.689-1.971c-20.102,18.318-40.087,36.766-60.335,54.918
		c-21.75,19.499-43.781,38.683-65.628,58.073c-35.507,31.515-70.994,63.051-106.432,94.645
		c-29.246,26.074-58.406,52.243-87.605,78.37c-1.916-2.047-4.583-3.774-5.615-6.198c-3.766-8.844-6.892-17.957-10.428-26.901
		c-14.616-36.98-29.295-73.936-43.951-110.9c-0.001-0.668-0.002-1.337-0.003-2.006c0.004-0.661,0.009-1.322,0.014-1.983
		C520.663,1590,521.315,1589.988,521.968,1589.977z"/>
	<path fill-rule="evenodd" clip-rule="evenodd" fill="#8DCEAE" d="M520,1594c14.656,36.965,29.335,73.92,43.951,110.9
		c3.536,8.944,6.662,18.058,10.428,26.901c1.032,2.424,3.699,4.151,5.615,6.198c-0.665,0.67-1.331,1.341-1.997,2.011
		c-46.873,25.715-93.74,51.441-140.642,77.104c-2.292,1.254-4.896,1.937-7.355,2.886c8.957-23.846,17.587-47.821,26.939-71.511
		c19.597-49.639,39.56-99.132,59.444-148.655C517.223,1597.742,518.778,1595.938,520,1594z"/>
	<path fill-rule="evenodd" clip-rule="evenodd" fill="#8ECAA9" d="M427.996,1821.993c0.668-0.662,1.337-1.325,2.006-1.987
		C429.333,1820.668,428.664,1821.331,427.996,1821.993z"/>
	<path fill-rule="evenodd" clip-rule="evenodd" fill="#98D7C6" d="M778.003,1068.012c-0.665-0.002-1.33,0-1.995,0.005
		c-0.001-0.668-0.003-1.337-0.005-2.006c1.335-2.665,2.669-5.33,4.004-7.995c10.823-21.686,21.939-43.23,32.394-65.092
		c13.192-27.586,25.655-55.52,38.764-83.146c39.481-83.215,79.149-166.342,118.692-249.528
		c24.106-50.713,48.115-101.473,72.168-152.211c2.005,55.393,3.937,110.787,6.044,166.175c1.16,30.496,2.625,60.981,3.939,91.473
		c2.015,46.734,4.008,93.47,6.03,140.204c1.306,30.158,2.66,60.314,3.971,90.474c2.017,46.401,3.89,92.809,6.081,139.202
		c0.875,18.521,2.577,37.003,3.496,55.523c0.11,2.239-2.328,4.604-3.586,6.911c-71.408-32.344-142.773-64.783-214.249-96.979
		C828.641,1089.71,803.26,1078.997,778.003,1068.012z"/>
	<path fill-rule="evenodd" clip-rule="evenodd" fill="#69C19B" d="M2400.012,566.007c0.662-0.002,1.325-0.003,1.988-0.001
		c0,0.664,0,1.329,0,1.994c7.654,31.963,15.037,63.994,23.011,95.877c34.343,137.326,68.876,274.604,103.197,411.934
		c0.796,3.186-0.098,6.793-0.203,10.203c-13.133-1.608-26.296-3-39.393-4.866c-44.223-6.3-88.426-12.736-132.628-19.182
		c-43.548-6.35-87.081-12.798-130.628-19.156c-43.223-6.312-86.464-12.491-129.676-18.873c-21.245-3.138-42.442-6.603-63.661-9.92
		c16.354-20.022,32.605-40.129,49.081-60.05c42.47-51.35,85.135-102.536,127.538-153.939
		c39.234-47.563,78.274-95.286,117.314-143.009c24.764-30.271,49.37-60.671,74.047-91.013L2400.012,566.007z"/>
	<path fill-rule="evenodd" clip-rule="evenodd" fill="#5EBC95" d="M2032.02,1014.017c21.219,3.317,42.416,6.782,63.661,9.92
		c43.212,6.382,86.453,12.562,129.676,18.873c43.547,6.358,87.08,12.807,130.628,19.156c44.202,6.445,88.405,12.882,132.628,19.182
		c13.097,1.866,26.26,3.258,39.393,4.866c1.324,0.658,2.648,1.317,3.973,1.976c-0.659,0.672-1.318,1.344-1.978,2.017
		c-25.658,15.992-51.383,31.879-76.962,47.998c-49.199,31.004-98.335,62.106-147.46,93.227
		c-64.548,40.891-129.06,81.836-193.586,122.758c-0.656,0.014-1.313,0.026-1.97,0.038c-0.012-0.679-0.022-1.356-0.034-2.035
		c0.003-0.663,0.003-1.327,0-1.99c-0.659-1.336-1.318-2.671-1.978-4.007c-0.132-1.323-0.115-2.681-0.417-3.964
		c-21.996-93.432-44.092-186.839-65.964-280.3c-3.695-15.791-6.437-31.805-9.618-47.716L2032.02,1014.017z"/>
	<path fill-rule="evenodd" clip-rule="evenodd" fill="#4DB484" d="M2110.022,1354.027c0.657-0.013,1.313-0.025,1.97-0.039
		c1.959,0.32,3.969,0.457,5.87,0.985c40.631,11.285,81.244,22.638,121.874,33.93c37.413,10.398,74.842,20.741,112.264,31.108
		c0.004,0.668,0.008,1.336,0.012,2.005c1.329,3.33,2.658,6.659,3.986,9.989c7.65,31.279,15.162,62.594,22.979,93.832
		c13.715,54.803,27.629,109.557,41.401,164.346c0.803,3.19,1.086,6.512,1.609,9.771c-36.779,10.397-73.592,20.684-110.333,31.216
		c-82.79,23.733-165.565,47.515-248.307,71.414c-87.538,25.284-175.028,50.733-262.55,76.076c-2.212,0.641-4.54,0.882-6.813,1.31
		c14.597-24.889,28.925-49.94,43.839-74.639c52.563-87.043,105.332-173.963,158.012-260.936
		c38.046-62.812,76.074-125.633,114.111-188.45C2109.977,1355.308,2110.002,1354.667,2110.022,1354.027z"/>
	<path fill-rule="evenodd" clip-rule="evenodd" fill="#53B88C" d="M2352,1420.012c-37.422-10.367-74.851-20.71-112.264-31.108
		c-40.63-11.292-81.243-22.645-121.874-33.93c-1.901-0.528-3.911-0.665-5.87-0.985c64.526-40.922,129.038-81.867,193.586-122.758
		c49.125-31.12,98.261-62.223,147.46-93.227c25.579-16.119,51.304-32.006,76.962-47.998c-10.681,20.66-21.148,41.436-32.091,61.956
		c-17.38,32.593-35.136,64.985-52.626,97.52c-29.627,55.111-59.155,110.276-88.807,165.375
		C2355.425,1416.812,2353.512,1418.304,2352,1420.012z"/>
	<path fill-rule="evenodd" clip-rule="evenodd" fill="#82CEB8" d="M1777.994,693.991c0.002,0.669,0.004,1.338,0.006,2.006
		c-2.338,2.798-4.864,5.46-6.987,8.412c-55.029,76.508-109.942,153.099-165.052,229.548c-18.402,25.529-37.286,50.71-55.949,76.051
		c-0.006-10.002-0.012-20.004-0.018-30.005c1.347-53.83,2.583-107.663,4.073-161.489c1.149-41.509,2.618-83.009,3.945-124.513
		c19.512-0.65,39.022-1.752,58.535-1.81c15.895-0.046,31.788,1.599,47.688,1.717c37.253,0.276,74.509,0.087,111.764,0.086
		C1776.665,693.998,1777.33,693.997,1777.994,693.991z"/>
	<path fill-rule="evenodd" clip-rule="evenodd" fill="#8ED3C1" d="M1549.994,980.003c0.006,10.001,0.012,20.003,0.018,30.005
		c-0.663,0.669-1.326,1.339-1.989,2.008l-0.033-0.026C1548.657,1001.326,1549.326,990.664,1549.994,980.003z"/>
	<path fill-rule="evenodd" clip-rule="evenodd" fill="#78C9AE" d="M1072.017,1200.012
		c152.386-59.806,304.769-119.618,457.169-179.388c6.183-2.425,12.525-4.438,18.795-6.644c0,0,0.091,0.096,0.091,0.095
		c-18.098,53.23-36.153,106.476-54.3,159.689c-28.994,85.028-58.108,170.015-87.059,255.058
		c-30.985,91.021-61.841,182.087-92.753,273.134c-0.647,0.022-1.295,0.046-1.942,0.072c0,0-0.03-0.057-0.029-0.057
		c-1.996-2.657-3.992-5.314-5.988-7.972c-5.766-13.619-11.058-27.462-17.395-40.811c-13.629-28.712-27.977-57.083-41.697-85.752
		c-16.933-35.382-33.473-70.951-50.295-106.385c-7.521-15.841-15.419-31.503-22.964-47.332
		c-11.644-24.426-23.063-48.959-34.702-73.387c-14.322-30.058-28.551-60.164-43.26-90.032c-7.394-15.015-15.761-29.55-23.688-44.302
		c-0.006-1.336-0.012-2.672-0.018-4.008C1071.989,1201.332,1072.001,1200.672,1072.017,1200.012z"/>
	<path fill-rule="evenodd" clip-rule="evenodd" fill="#77C9AF" d="M1548.022,1012.016c0.663-0.669,1.326-1.339,1.989-2.008
		c18.663-25.341,37.547-50.521,55.949-76.051c55.109-76.449,110.022-153.04,165.052-229.548c2.123-2.952,4.649-5.614,6.987-8.412
		c0.665-0.003,1.33-0.004,1.994-0.005c11.146,14.352,22.218,28.762,33.448,43.047c41.174,52.37,82.391,104.706,123.61,157.04
		c30.968,39.318,61.964,78.614,92.947,117.921c-3.158,0.663-6.337,1.972-9.471,1.873c-11.6-0.368-23.185-1.763-34.775-1.773
		c-144.585-0.137-289.169-0.097-433.754-0.103c-0.66,0.008-1.319,0.026-1.979,0.055c-0.65-0.011-1.3-0.003-1.95,0.024l-0.091-0.096
		C1548.005,1013.326,1548.02,1012.671,1548.022,1012.016z"/>
	<path fill-rule="evenodd" clip-rule="evenodd" fill="#8BD1BC" d="M1072.017,1200.012c-0.016,0.66-0.027,1.32-0.034,1.98
		c-1.917,2.237-4.08,4.31-5.716,6.736c-44.966,66.703-89.907,133.422-134.771,200.193c-8.674,12.908-17.009,26.043-25.5,39.072
		c-0.657,0.008-1.314,0.012-1.972,0.012c-10.68-31.374-21.433-62.724-32.02-94.13c-10.079-29.901-20.107-59.822-29.941-89.806
		c-21.427-65.329-42.715-130.703-64.06-196.06c25.257,10.986,50.638,21.699,75.748,33.011
		c71.476,32.195,142.841,64.635,214.249,96.979C1069.339,1198.67,1070.678,1199.341,1072.017,1200.012z"/>
	<path fill-rule="evenodd" clip-rule="evenodd" fill="#56B98E" d="M2109.947,1355.946c-38.037,62.817-76.065,125.639-114.111,188.45
		c-52.68,86.973-105.449,173.893-158.012,260.936c-14.914,24.698-29.242,49.75-43.839,74.639c-0.636,0.03-1.271,0.053-1.907,0.066
		c-0.692-0.012-1.385-0.024-2.078-0.037c-2.055-3.739-3.839-7.658-6.203-11.189c-32.693-48.824-65.509-97.566-98.139-146.434
		c-2.487-3.726-3.803-8.233-5.664-12.377c1.811-6.383,3.638-12.76,5.429-19.146c8.864-31.616,17.72-63.235,26.577-94.854
		c10.726-6.681,21.381-13.477,32.187-20.023c100.688-60.999,201.368-122.013,302.14-182.875
		C2067.346,1380.406,2088.73,1368.315,2109.947,1355.946z"/>
	<path fill-rule="evenodd" clip-rule="evenodd" fill="#76C7A9" d="M2030,1014c-30.983-39.307-61.979-78.603-92.947-117.921
		c-41.22-52.334-82.437-104.67-123.61-157.04c-11.23-14.285-22.303-28.695-33.448-43.047c27.121-6.01,54.194-12.25,81.374-17.98
		c61.979-13.066,123.992-25.963,186.022-38.779c76.639-15.836,153.325-31.438,229.959-47.301
		c40.919-8.47,81.77-17.273,122.65-25.926c-24.677,30.342-49.283,60.741-74.047,91.013c-39.04,47.723-78.08,95.446-117.314,143.009
		c-42.403,51.403-85.068,102.59-127.538,153.939c-16.476,19.921-32.728,40.027-49.081,60.05c0,0-0.008-0.002-0.009-0.002
		C2031.341,1014.01,2030.67,1014.005,2030,1014z"/>
	<path fill-rule="evenodd" clip-rule="evenodd" fill="#7AC9AB" d="M904.023,1448.006c0.657,0,1.314-0.004,1.972-0.012
		c16.803-3.709,33.599-7.447,50.408-11.12c25.858-5.65,51.727-11.255,77.591-16.88c3.167,1.502,7.072,2.273,9.391,4.616
		c34.023,34.381,67.998,68.814,101.643,103.566c21.881,22.601,43.025,45.913,64.83,68.589
		c26.428,27.482,53.165,54.667,79.858,81.893c5.217,5.321,10.846,10.238,16.284,15.342c1.996,2.657,3.992,5.314,5.988,7.972
		c-21.021-12.676-42.166-25.147-63.038-38.062c-90.464-55.969-180.851-112.061-271.257-168.12
		c-24.578-15.24-49.128-30.525-73.69-45.79C904.006,1449.335,904.013,1448.67,904.023,1448.006z"/>
	<path fill-rule="evenodd" clip-rule="evenodd" fill="#60BD96" d="M1712,1596c-8.857,31.618-17.713,63.237-26.577,94.854
		c-1.791,6.387-3.618,12.764-5.429,19.146c-3.877,0.666-7.771,1.984-11.63,1.884c-14.57-0.378-29.122-1.452-43.692-1.839
		c-54.067-1.438-108.136-2.906-162.211-3.977c-48.149-0.953-96.309-1.396-144.464-2.063c-1.979,0.005-3.957,0.01-5.935,0.016
		c-0.023-0.664-0.039-1.329-0.045-1.994c0.647-0.025,1.295-0.049,1.942-0.07c24.992-6.703,49.996-13.361,74.974-20.116
		c65.02-17.582,130.012-35.267,195.048-52.791c41.31-11.131,82.677-22.046,124.019-33.058
		C1709.333,1595.995,1710.667,1595.997,1712,1596z"/>
	<path fill-rule="evenodd" clip-rule="evenodd" fill="#83C9A7" d="M901.987,1451.991c0.669-0.664,1.339-1.328,2.008-1.992
		C903.326,1450.663,902.656,1451.327,901.987,1451.991z"/>
	<path fill-rule="evenodd" clip-rule="evenodd" fill="#5CBA91" d="M1317.997,1704.006c48.155,0.667,96.314,1.109,144.464,2.063
		c54.075,1.07,108.144,2.539,162.211,3.977c14.57,0.387,29.122,1.461,43.692,1.839c3.858,0.101,7.753-1.218,11.63-1.884
		c1.861,4.144,3.177,8.651,5.664,12.377c32.63,48.867,65.445,97.609,98.139,146.434c2.364,3.531,4.148,7.45,6.203,11.189
		c-44.966-16.496-89.963-32.906-134.889-49.508c-63.349-23.409-126.643-46.964-189.963-70.447
		c-47.411-17.583-94.834-35.138-142.223-52.783C1321.128,1706.593,1319.634,1705.109,1317.997,1704.006z"/>
	<path fill-rule="evenodd" clip-rule="evenodd" fill="#63C09F" d="M1712,1596c-1.333-0.003-2.667-0.005-4-0.008
		c0.15-5.154,1.582-10.666,0.26-15.41c-21.149-75.888-42.698-151.664-64.061-227.493c-24.966-88.624-49.912-177.253-74.705-265.926
		c-6.79-24.286-12.998-48.736-19.473-73.111c0.659-0.028,1.318-0.047,1.979-0.055c2.652,1.982,5.16,4.202,7.979,5.91
		c53.387,32.364,106.848,64.605,160.214,97.003c55.641,33.778,111.161,67.753,166.797,101.538
		c56.789,34.484,113.604,68.928,170.517,103.206c17.307,10.424,34.979,20.242,52.482,30.337c0.012,0.679,0.022,1.356,0.034,2.035
		c-0.021,0.641-0.046,1.281-0.075,1.921c-21.217,12.368-42.602,24.459-63.621,37.154
		c-100.771,60.862-201.451,121.876-302.14,182.875C1733.381,1582.523,1722.726,1589.319,1712,1596z"/>
	<path fill-rule="evenodd" clip-rule="evenodd" fill="#68C2A2" d="M2109.988,1351.991c-17.504-10.095-35.176-19.913-52.482-30.337
		c-56.913-34.278-113.728-68.722-170.517-103.206c-55.636-33.785-111.156-67.76-166.797-101.538
		c-53.366-32.397-106.827-64.639-160.214-97.003c-2.818-1.708-5.326-3.928-7.979-5.91c144.585,0.006,289.169-0.034,433.754,0.103
		c11.591,0.011,23.176,1.405,34.775,1.773c3.134,0.099,6.313-1.21,9.471-1.873c0.67,0.005,1.341,0.01,2.011,0.015
		c3.183,15.911,5.924,31.925,9.619,47.716c21.872,93.461,43.968,186.868,65.964,280.3c0.302,1.283,0.285,2.641,0.417,3.964
		c0.659,1.336,1.318,2.671,1.978,4.007C2109.991,1350.664,2109.991,1351.328,2109.988,1351.991z"/>
	<path fill-rule="evenodd" clip-rule="evenodd" fill="#63C09F" d="M2109.988,1350.001c-0.659-1.336-1.318-2.671-1.978-4.007
		C2108.67,1347.33,2109.329,1348.665,2109.988,1350.001z"/>
	<path fill-rule="evenodd" clip-rule="evenodd" fill="#6AC2A2" d="M1550.021,1014.052c6.475,24.375,12.683,48.825,19.473,73.111
		c24.793,88.673,49.739,177.302,74.705,265.926c21.362,75.829,42.911,151.605,64.061,227.493c1.322,4.744-0.109,10.256-0.26,15.41
		c-41.342,11.012-82.709,21.927-124.019,33.058c-65.036,17.524-130.028,35.209-195.048,52.791
		c-24.978,6.755-49.981,13.413-74.974,20.116c30.912-91.048,61.768-182.113,92.753-273.135
		c28.95-85.043,58.064-170.029,87.059-255.058c18.146-53.214,36.202-106.459,54.3-159.689
		C1548.722,1014.049,1549.371,1014.041,1550.021,1014.052z"/>
	<path fill-rule="evenodd" clip-rule="evenodd" fill="#7AC9AE" d="M1306,1694c-5.438-5.104-11.067-10.021-16.284-15.342
		c-26.693-27.226-53.431-54.41-79.858-81.893c-21.805-22.676-42.949-45.988-64.83-68.589
		c-33.645-34.752-67.619-69.186-101.643-103.566c-2.318-2.343-6.224-3.114-9.391-4.616c1.892-3.415,4.919-6.648,5.501-10.274
		c6.396-39.841,12.279-79.764,18.571-119.622c4.43-28.066,9.274-56.067,13.934-84.098c7.927,14.752,16.294,29.287,23.688,44.302
		c14.709,29.868,28.938,59.975,43.26,90.032c11.639,24.428,23.059,48.961,34.702,73.387c7.545,15.829,15.443,31.491,22.964,47.332
		c16.822,35.434,33.362,71.003,50.295,106.385c13.721,28.669,28.068,57.04,41.697,85.752
		C1294.942,1666.538,1300.234,1680.381,1306,1694z"/>
	<path fill-rule="evenodd" clip-rule="evenodd" fill="#83CDB5" d="M1072,1206c-4.659,28.03-9.504,56.031-13.934,84.098
		c-6.292,39.858-12.176,79.781-18.571,119.622c-0.582,3.626-3.609,6.859-5.501,10.274c-25.864,5.625-51.732,11.229-77.591,16.88
		c-16.81,3.673-33.605,7.411-50.408,11.12c8.491-13.029,16.826-26.164,25.5-39.072c44.864-66.771,89.806-133.49,134.771-200.193
		c1.636-2.427,3.799-4.499,5.716-6.736C1071.988,1203.328,1071.994,1204.664,1072,1206z"/>
</g>
</svg>
