<?xml version="1.0" encoding="utf-8"?>
<!-- Generator: Adobe Illustrator 16.0.0, SVG Export Plug-In . SVG Version: 6.00 Build 0)  -->
<!DOCTYPE svg PUBLIC "-//W3C//DTD SVG 1.1//EN" "http://www.w3.org/Graphics/SVG/1.1/DTD/svg11.dtd">
<svg version="1.1" id="Instagram" xmlns="http://www.w3.org/2000/svg" xmlns:xlink="http://www.w3.org/1999/xlink" x="0px" y="0px"
	 width="841.89px" height="841.891px" viewBox="0 174.33 841.89 841.891" enable-background="new 0 174.33 841.89 841.891"
	 xml:space="preserve">
<title>Layer 1</title>
<g>
	<polygon fill="#FFFFFF" points="194.716,457.214 194.716,729.582 350.356,573.944 	"/>
	<polygon fill="#FFFFFF" points="452.838,602.964 447.138,604.865 394.751,604.865 389.051,602.964 365.711,585.459 
		208.151,743.017 633.738,743.017 476.179,585.458 	"/>
	<polygon fill="#FFFFFF" points="388.036,536.265 394.753,533.483 447.138,533.483 453.856,536.265 477.962,560.371 
		628.173,447.714 213.716,447.714 363.928,560.372 	"/>
	<polygon fill="#FFFFFF" points="363.928,560.372 379.282,571.888 397.917,585.865 443.971,585.865 477.962,560.371 420.945,477.78 
			"/>
	<path fill="#FFFFFF" d="M0,174.33v841.891h841.89V174.33H0z M666.173,752.517l-9.5,9.5H185.216l-9.5-9.5V438.214l9.5-9.5h471.457
		l9.5,9.5V752.517z"/>
	<polygon fill="#FFFFFF" points="647.173,729.581 647.173,457.214 491.534,573.943 	"/>
</g>
</svg>
