<?xml version="1.0" encoding="utf-8"?>
<!-- Generator: Adobe Illustrator 16.0.0, SVG Export Plug-In . SVG Version: 6.00 Build 0)  -->
<!DOCTYPE svg PUBLIC "-//W3C//DTD SVG 1.1//EN" "http://www.w3.org/Graphics/SVG/1.1/DTD/svg11.dtd">
<svg version="1.1" id="Facebook" xmlns="http://www.w3.org/2000/svg" xmlns:xlink="http://www.w3.org/1999/xlink" x="0px" y="0px"
	 width="841.89px" height="841.891px" viewBox="0 174.33 841.89 841.891" enable-background="new 0 174.33 841.89 841.891"
	 xml:space="preserve">
<path fill="#FFFFFF" d="M0,174.33v841.891h841.89V174.33H0z M656.673,804.985c0,14.368-11.652,26.021-26.02,26.021H510.515v-182.57
	h61.283l9.172-71.156h-70.455v-45.428c0-20.6,5.717-34.64,35.264-34.64l37.67-0.017v-63.637c-6.52-0.867-28.875-2.805-54.896-2.805
	c-54.328,0-91.518,33.156-91.518,94.054v52.471h-61.437v71.156h61.437v182.57H211.237c-14.374,0-26.02-11.653-26.02-26.021V385.567
	c0-14.374,11.645-26.021,26.02-26.021h419.417c14.367,0,26.02,11.646,26.02,26.021V804.985z"/>
</svg>
