<?xml version="1.0" encoding="utf-8"?>
<!-- Generator: Adobe Illustrator 16.0.0, SVG Export Plug-In . SVG Version: 6.00 Build 0)  -->
<!DOCTYPE svg PUBLIC "-//W3C//DTD SVG 1.1//EN" "http://www.w3.org/Graphics/SVG/1.1/DTD/svg11.dtd">
<svg version="1.1" id="Instagram" xmlns="http://www.w3.org/2000/svg" xmlns:xlink="http://www.w3.org/1999/xlink" x="0px" y="0px"
	 width="841.89px" height="841.891px" viewBox="0 5.33 841.89 841.891" enable-background="new 0 5.33 841.89 841.891"
	 xml:space="preserve">
<g>
	<path fill="#FFFFFF" d="M420.941,516.942c50.078,0,90.671-40.604,90.671-90.678s-40.594-90.658-90.671-90.658
		c-50.074,0-90.665,40.585-90.665,90.658C330.276,476.336,370.867,516.942,420.941,516.942z"/>
	<path fill="#FFFFFF" d="M566.005,426.264c0,80.131-64.951,145.069-145.063,145.069c-80.109,0-145.056-64.938-145.056-145.069
		c0-12.54,1.776-24.668,4.766-36.277h-41.047v199.479c0,10.002,8.122,18.119,18.152,18.119H584.13
		c10.033,0,18.152-8.117,18.152-18.119V389.987h-41.037C564.232,401.596,566.005,413.724,566.005,426.264z"/>
	<path fill="#FFFFFF" d="M584.13,244.934h-54.385c-10.014,0-18.133,8.122-18.133,18.132v54.407c0,10.011,8.119,18.133,18.133,18.133
		h54.385c10.033,0,18.152-8.122,18.152-18.133v-54.407C602.283,253.056,594.164,244.934,584.13,244.934z"/>
	<path fill="#FFFFFF" d="M0,5.33V847.22h841.89V5.33H0z M656.673,607.587c0,30.054-24.344,54.417-54.391,54.417H239.604
		c-30.035,0-54.388-24.363-54.388-54.418v-362.65c0-30.038,24.353-54.389,54.388-54.389h362.679
		c30.047,0,54.391,24.351,54.391,54.389V607.587z"/>
</g>
</svg>
