<?xml version="1.0" encoding="utf-8"?>
<!-- Generator: Adobe Illustrator 16.0.0, SVG Export Plug-In . SVG Version: 6.00 Build 0)  -->
<!DOCTYPE svg PUBLIC "-//W3C//DTD SVG 1.1//EN" "http://www.w3.org/Graphics/SVG/1.1/DTD/svg11.dtd">
<svg version="1.1" id="Layer_1" xmlns="http://www.w3.org/2000/svg" xmlns:xlink="http://www.w3.org/1999/xlink" x="0px" y="0px"
	 width="361.333px" height="130px" viewBox="0 0 361.333 130" enable-background="new 0 0 361.333 130" xml:space="preserve">
<g>
	<path fill="#FFFFFF" d="M10.763,10.342h23.713c6.318,0,16.225,2.263,16.225,15.601c0,9.751-6.396,15.289-17.473,15.289H14.195
		v24.805h-3.432V10.342z M14.195,38.267h19.579c10.063,0,13.495-6.63,13.495-12.402c0-4.134-1.872-12.559-13.026-12.559H14.195
		V38.267z"/>
	<path fill="#FFFFFF" d="M57.484,46.38c-0.156,9.438,4.836,18.019,14.743,18.019c7.566,0,12.948-4.524,14.353-11.935h2.964
		c-1.56,9.36-7.8,14.508-17.316,14.508c-11.7,0-17.863-9.204-17.707-20.28c-0.156-10.998,5.616-21.685,17.707-21.685
		c12.559,0,18.175,9.906,17.629,21.373H57.484z M86.892,43.806c-0.156-8.425-5.46-16.225-14.665-16.225
		c-8.893,0-14.119,8.268-14.743,16.225H86.892z"/>
	<path fill="#FFFFFF" d="M99.76,34.835h0.234c1.56-5.227,8.112-9.438,15.366-9.126v2.964c-3.12-0.391-7.488,0.39-11.076,3.9
		c-2.964,3.042-4.212,5.538-4.524,11.544v21.919h-2.964V25.943h2.964V34.835z"/>
	<path fill="#FFFFFF" d="M114.034,28.517v-2.574h7.176v-8.268c0-5.617,3.978-7.957,8.814-7.957c1.17,0,2.34,0.156,3.51,0.391v2.574
		c-1.17-0.234-2.34-0.391-3.51-0.391c-3.276,0-5.851,1.17-5.851,5.616v8.034h8.347v2.574h-8.347v37.52h-2.964v-37.52H114.034z"/>
	<path fill="#FFFFFF" d="M153.736,25.007c11.778,0,18.409,9.594,18.409,20.982s-6.63,20.982-18.409,20.982
		s-18.409-9.594-18.409-20.982S141.958,25.007,153.736,25.007z M153.736,64.399c10.063,0,15.445-8.814,15.445-18.409
		c0-9.594-5.382-18.408-15.445-18.408s-15.445,8.814-15.445,18.408C138.292,55.584,143.674,64.399,153.736,64.399z"/>
	<path fill="#FFFFFF" d="M182.049,34.835h0.234c1.56-5.227,8.112-9.438,15.367-9.126v2.964c-3.12-0.391-7.488,0.39-11.077,3.9
		c-2.964,3.042-4.212,5.538-4.524,11.544v21.919h-2.964V25.943h2.964V34.835z"/>
	<path fill="#FFFFFF" d="M200.847,25.943h2.964v8.19h0.156c1.248-5.07,6.553-9.126,12.559-9.126c7.645,0,11.232,4.368,12.09,8.502
		h0.156c2.34-5.46,6.24-8.502,12.715-8.502c7.254,0,12.559,4.212,12.559,13.65v27.379h-2.965V38.58
		c0-10.219-7.254-10.998-9.594-10.998c-7.254,0-12.559,5.147-12.559,14.742v23.713h-2.965V38.58c0-10.063-6.863-10.998-9.438-10.998
		c-5.694,0-12.715,4.445-12.715,14.742v23.713h-2.964V25.943z"/>
	<path fill="#FFFFFF" d="M263.558,18.376v-8.034h2.964v8.034H263.558z M263.558,66.037V25.943h2.964v40.094H263.558z"/>
	<path fill="#FFFFFF" d="M275.882,25.943h2.964v8.58h0.156c2.028-6.006,8.112-9.516,14.353-9.516
		c14.118,0,14.274,11.311,14.274,16.225v24.805h-2.964V40.686c0-4.135-0.468-13.104-11.389-13.104
		c-8.97,0-14.431,6.941-14.431,16.771v21.685h-2.964V25.943z"/>
	<path fill="#FFFFFF" d="M349.437,25.943V63.93c0,3.12,0,17.941-17.316,17.396c-8.581,0-15.211-3.199-15.679-12.481h2.964
		c0.624,7.098,6.24,9.907,12.792,9.907c14.041,0,14.275-11.467,14.275-14.12v-9.204h-0.156c-2.809,5.929-7.723,9.126-14.509,9.126
		c-11.778,0-17.316-8.658-17.316-19.813c0-10.608,6.006-19.734,17.316-19.734c6.24,0,12.324,3.275,14.509,9.282h0.156v-8.347
		H349.437z M317.456,44.742c0,9.438,4.914,17.238,14.353,17.238c9.751,0,14.587-8.189,14.587-17.238
		c0-8.971-4.759-17.16-14.587-17.16C322.136,27.582,317.456,36.24,317.456,44.742z"/>
</g>
<text transform="matrix(1 0 0 1 5.8491 121.0371)" fill="#FFFFFF" font-family="'HelveticaNeueLTStd-Md'" font-size="48"> </text>
<g>
	<path fill="#FFFFFF" d="M40.979,65.342h10.375l21.451,55.695H62.353l-5.226-14.742H34.896l-5.226,14.742H19.607L40.979,65.342z
		 M37.547,98.885h17.005l-8.347-23.947h-0.234L37.547,98.885z"/>
	<path fill="#FFFFFF" d="M78.418,80.709h8.346v7.801h0.156c1.014-4.291,6.318-8.893,11.778-8.893c2.028,0,2.574,0.156,3.354,0.234
		v8.58c-1.248-0.156-2.574-0.391-3.822-0.391c-6.084,0-10.92,4.914-10.92,13.807v19.189h-8.893V80.709z"/>
	<path fill="#FFFFFF" d="M103.377,80.709h6.708v-12.09h8.893v12.09h8.034v6.631h-8.034v21.529c0,3.666,0.312,5.537,4.29,5.537
		c1.248,0,2.496,0,3.744-0.313v6.865c-1.95,0.156-3.822,0.467-5.772,0.467c-9.283,0-10.999-3.588-11.155-10.295V87.34h-6.708V80.709
		z"/>
	<path fill="#FFFFFF" d="M141.597,108.088c0.468,5.148,4.368,7.021,9.126,7.021c3.354,0,9.205-0.703,8.97-5.305
		c-0.234-4.68-6.708-5.227-13.182-6.709c-6.552-1.404-12.949-3.744-12.949-11.934c0-8.814,9.517-11.545,16.849-11.545
		c8.269,0,15.757,3.432,16.849,12.402h-9.282c-0.78-4.213-4.29-5.383-8.19-5.383c-2.574,0-7.332,0.625-7.332,4.135
		c0,4.369,6.552,4.992,13.104,6.475c6.474,1.482,13.026,3.822,13.026,11.777c0,9.596-9.672,13.105-18.019,13.105
		c-10.141,0-17.707-4.523-17.863-14.041H141.597z"/>
</g>
<g>
	<path fill="#FFFFFF" d="M198.887,76.646c-0.057,2.791,1.957,3.646,4.427,3.646c1.425,0,3.591-0.779,3.591-2.754
		c0-1.539-1.539-2.146-2.793-2.451l-3.021-0.74c-1.596-0.4-3.059-1.16-3.059-3.268c0-1.331,0.854-3.819,4.673-3.819
		c2.68,0,5.035,1.443,5.016,4.217h-1.291c-0.076-2.071-1.786-3.116-3.705-3.116c-1.767,0-3.4,0.684-3.4,2.698
		c0,1.273,0.949,1.805,2.052,2.07l3.306,0.816c1.918,0.514,3.514,1.35,3.514,3.572c0,0.932-0.379,3.875-5.186,3.875
		c-3.211,0-5.566-1.443-5.414-4.748H198.887z"/>
	<path fill="#FFFFFF" d="M218.798,76.209c0,2.811-1.634,5.186-4.636,5.186c-3.001,0-4.635-2.375-4.635-5.186
		c0-2.813,1.634-5.188,4.635-5.188C217.165,71.021,218.798,73.396,218.798,76.209z M210.725,76.209c0,2.09,1.139,4.18,3.438,4.18
		s3.439-2.09,3.439-4.18s-1.141-4.18-3.439-4.18S210.725,74.119,210.725,76.209z"/>
	<path fill="#FFFFFF" d="M228.526,81.109h-1.102v-1.766h-0.037c-0.627,1.311-1.92,2.051-3.382,2.051
		c-2.47,0-3.438-1.443-3.438-3.723v-6.365h1.197v6.383c0.057,1.768,0.721,2.699,2.621,2.699c2.052,0,2.944-1.938,2.944-3.934v-5.148
		h1.196V81.109z"/>
	<path fill="#FFFFFF" d="M232.688,71.307h1.994v1.008h-1.994v6.611c0,0.777,0.113,1.234,0.969,1.291c0.342,0,0.684-0.02,1.025-0.057
		v1.025c-0.36,0-0.702,0.039-1.063,0.039c-1.596,0-2.146-0.533-2.128-2.205v-6.705h-1.709v-1.008h1.709v-2.944h1.197V71.307z"/>
	<path fill="#FFFFFF" d="M236.393,67.545h1.197v5.453h0.037c0.438-1.178,1.748-1.977,3.135-1.977c2.755,0,3.591,1.445,3.591,3.781
		v6.307h-1.196v-6.117c0-1.689-0.551-2.963-2.489-2.963c-1.899,0-3.04,1.443-3.077,3.363v5.717h-1.197V67.545z"/>
	<path fill="#FFFFFF" d="M246.5,74.309c0.114-2.299,1.729-3.287,3.971-3.287c1.729,0,3.609,0.533,3.609,3.154v5.205
		c0,0.457,0.229,0.723,0.703,0.723c0.133,0,0.285-0.039,0.38-0.076v1.006c-0.266,0.059-0.456,0.076-0.778,0.076
		c-1.217,0-1.406-0.684-1.406-1.709h-0.038c-0.836,1.273-1.69,1.994-3.571,1.994c-1.805,0-3.287-0.893-3.287-2.869
		c0-2.754,2.68-2.85,5.263-3.152c0.987-0.115,1.538-0.248,1.538-1.33c0-1.615-1.158-2.014-2.564-2.014
		c-1.481,0-2.583,0.684-2.621,2.279H246.5z M252.883,75.752h-0.037c-0.152,0.285-0.684,0.381-1.007,0.438
		c-2.032,0.361-4.56,0.342-4.56,2.262c0,1.195,1.064,1.938,2.185,1.938c1.823,0,3.438-1.16,3.419-3.078V75.752z"/>
	<path fill="#FFFFFF" d="M256.476,71.307h1.103v1.654h0.057c0.627-1.178,1.652-1.939,3.211-1.939c1.291,0,2.45,0.627,2.811,1.92
		c0.59-1.293,1.824-1.92,3.116-1.92c2.146,0,3.249,1.121,3.249,3.439v6.648h-1.197v-6.592c0-1.615-0.608-2.488-2.318-2.488
		c-2.07,0-2.659,1.709-2.659,3.533v5.547h-1.196v-6.648c0.019-1.33-0.532-2.432-2.053-2.432c-2.07,0-2.906,1.559-2.926,3.609v5.471
		h-1.196V71.307z"/>
	<path fill="#FFFFFF" d="M272.303,71.307h1.102v1.863h0.038c0.551-1.33,1.919-2.148,3.495-2.148c2.982,0,4.408,2.414,4.408,5.188
		s-1.426,5.186-4.408,5.186c-1.463,0-2.887-0.74-3.4-2.146H273.5v5.49h-1.196V71.307z M276.938,72.029
		c-2.641,0-3.438,1.957-3.438,4.18c0,2.033,0.894,4.18,3.438,4.18c2.279,0,3.211-2.146,3.211-4.18S279.217,72.029,276.938,72.029z"
		/>
	<path fill="#FFFFFF" d="M285.108,71.307h1.995v1.008h-1.995v6.611c0,0.777,0.114,1.234,0.969,1.291c0.343,0,0.685-0.02,1.026-0.057
		v1.025c-0.36,0-0.702,0.039-1.063,0.039c-1.596,0-2.146-0.533-2.128-2.205v-6.705h-1.71v-1.008h1.71v-2.944h1.196V71.307z"/>
	<path fill="#FFFFFF" d="M297.61,76.209c0,2.811-1.634,5.186-4.636,5.186c-3.001,0-4.636-2.375-4.636-5.186
		c0-2.813,1.635-5.188,4.636-5.188C295.976,71.021,297.61,73.396,297.61,76.209z M289.536,76.209c0,2.09,1.14,4.18,3.438,4.18
		s3.438-2.09,3.438-4.18s-1.14-4.18-3.438-4.18S289.536,74.119,289.536,76.209z"/>
	<path fill="#FFFFFF" d="M299.377,71.307h1.196v1.691h0.038c0.438-1.178,1.748-1.977,3.135-1.977c2.755,0,3.591,1.445,3.591,3.781
		v6.307h-1.197v-6.117c0-1.689-0.551-2.963-2.488-2.963c-1.9,0-3.04,1.443-3.078,3.363v5.717h-1.196V71.307z"/>
</g>
</svg>
