<?xml version="1.0" encoding="utf-8"?>
<!-- Generator: Adobe Illustrator 16.0.0, SVG Export Plug-In . SVG Version: 6.00 Build 0)  -->
<!DOCTYPE svg PUBLIC "-//W3C//DTD SVG 1.1//EN" "http://www.w3.org/Graphics/SVG/1.1/DTD/svg11.dtd">
<svg version="1.1" id="Layer_1" xmlns="http://www.w3.org/2000/svg" xmlns:xlink="http://www.w3.org/1999/xlink" x="0px" y="0px"
	 width="76.207px" height="11.945px" viewBox="0 0 76.207 11.945" enable-background="new 0 0 76.207 11.945" xml:space="preserve">
<path fill="#DDDDDD" d="M0.755,0.42h3.646c0.972,0,2.494,0.348,2.494,2.398c0,1.499-0.983,2.352-2.687,2.352H1.284v3.813H0.755V0.42
	z M1.284,4.714h3.01c1.547,0,2.075-1.021,2.075-1.907c0-0.636-0.288-1.931-2.003-1.931H1.284V4.714z"/>
<path fill="#DDDDDD" d="M7.931,5.961c-0.024,1.451,0.743,2.771,2.267,2.771c1.163,0,1.991-0.694,2.207-1.835h0.456
	c-0.24,1.439-1.2,2.231-2.663,2.231c-1.799,0-2.746-1.416-2.723-3.119c-0.023-1.691,0.864-3.334,2.723-3.334
	c1.931,0,2.795,1.522,2.711,3.286H7.931z M12.453,5.566c-0.024-1.295-0.84-2.495-2.255-2.495c-1.367,0-2.171,1.271-2.267,2.495
	H12.453z"/>
<path fill="#DDDDDD" d="M14.422,4.187h0.036c0.24-0.804,1.248-1.451,2.363-1.402V3.24C16.341,3.18,15.67,3.3,15.118,3.84
	c-0.456,0.468-0.647,0.852-0.696,1.774v3.37h-0.455V2.819h0.455V4.187z"/>
<path fill="#DDDDDD" d="M16.62,3.215V2.819h1.104V1.548c0-0.863,0.611-1.223,1.355-1.223c0.18,0,0.359,0.023,0.539,0.06V0.78
	c-0.18-0.035-0.359-0.06-0.539-0.06c-0.504,0-0.899,0.18-0.899,0.864v1.234h1.283v0.396H18.18v5.769h-0.456V3.215H16.62z"/>
<path fill="#DDDDDD" d="M22.713,2.675c1.812,0,2.831,1.475,2.831,3.226s-1.02,3.228-2.831,3.228s-2.83-1.476-2.83-3.228
	C19.883,4.15,20.903,2.675,22.713,2.675z M22.713,8.732c1.548,0,2.375-1.354,2.375-2.831c0-1.475-0.827-2.83-2.375-2.83
	c-1.547,0-2.374,1.355-2.374,2.83C20.339,7.377,21.167,8.732,22.713,8.732z"/>
<path fill="#DDDDDD" d="M27.058,4.187h0.036c0.24-0.804,1.248-1.451,2.363-1.402V3.24c-0.48-0.06-1.151,0.061-1.703,0.601
	c-0.456,0.468-0.647,0.852-0.696,1.774v3.37h-0.455V2.819h0.455V4.187z"/>
<path fill="#DDDDDD" d="M29.939,2.819h0.456v1.26h0.023c0.192-0.78,1.008-1.403,1.932-1.403c1.175,0,1.727,0.672,1.858,1.307h0.024
	c0.359-0.839,0.959-1.307,1.955-1.307c1.115,0,1.931,0.646,1.931,2.099v4.209h-0.456V4.762c0-1.571-1.115-1.691-1.475-1.691
	c-1.116,0-1.932,0.792-1.932,2.268v3.646H33.8V4.762c0-1.547-1.056-1.691-1.451-1.691c-0.876,0-1.955,0.685-1.955,2.268v3.646
	h-0.456L29.939,2.819L29.939,2.819z"/>
<path fill="#DDDDDD" d="M39.575,1.656V0.42h0.456v1.234L39.575,1.656L39.575,1.656z M39.575,8.984V2.819h0.456v6.165H39.575z"/>
<path fill="#DDDDDD" d="M41.471,2.819h0.455v1.319h0.024c0.312-0.924,1.247-1.463,2.207-1.463c2.171,0,2.194,1.739,2.194,2.495
	v3.813h-0.455V5.086c0-0.636-0.072-2.016-1.752-2.016c-1.379,0-2.22,1.067-2.22,2.579v3.334h-0.454V2.819L41.471,2.819z"/>
<path fill="#DDDDDD" d="M52.784,2.819V8.66c0,0.479,0,2.758-2.662,2.674c-1.319,0-2.339-0.491-2.411-1.919h0.456
	c0.097,1.092,0.959,1.522,1.967,1.522c2.159,0,2.195-1.763,2.195-2.171V7.353h-0.024c-0.432,0.911-1.188,1.403-2.229,1.403
	c-1.812,0-2.663-1.331-2.663-3.046c0-1.631,0.924-3.034,2.663-3.034c0.959,0,1.896,0.504,2.229,1.427h0.024V2.819H52.784z
	 M47.867,5.709c0,1.451,0.756,2.65,2.207,2.65c1.499,0,2.242-1.259,2.242-2.65c0-1.379-0.731-2.639-2.242-2.639
	C48.586,3.071,47.867,4.402,47.867,5.709z"/>
<path fill="#DDDDDD" d="M56.65,0.42h1.594l3.299,8.563h-1.607l-0.803-2.267h-3.418l-0.804,2.267h-1.548L56.65,0.42z M56.123,5.578
	h2.613l-1.282-3.683h-0.036L56.123,5.578z"/>
<path fill="#DDDDDD" d="M62.158,2.783h1.283v1.198h0.024c0.154-0.66,0.972-1.367,1.812-1.367c0.311,0,0.395,0.024,0.516,0.036V3.97
	c-0.191-0.024-0.396-0.06-0.588-0.06c-0.936,0-1.68,0.756-1.68,2.123v2.949h-1.367V2.783z"/>
<path fill="#DDDDDD" d="M65.746,2.783h1.031V0.924h1.367v1.859h1.235v1.02h-1.235v3.31c0,0.564,0.049,0.853,0.66,0.853
	c0.19,0,0.385,0,0.575-0.048v1.055c-0.301,0.024-0.588,0.072-0.887,0.072c-1.429,0-1.691-0.552-1.718-1.583V3.803h-1.03
	L65.746,2.783L65.746,2.783z"/>
<path fill="#DDDDDD" d="M71.387,6.993c0.072,0.792,0.672,1.078,1.402,1.078c0.516,0,1.416-0.107,1.379-0.814
	c-0.035-0.72-1.031-0.804-2.025-1.031C71.135,6.009,70.15,5.65,70.15,4.391c0-1.354,1.463-1.774,2.592-1.774
	c1.271,0,2.422,0.527,2.59,1.906h-1.428c-0.119-0.647-0.658-0.828-1.258-0.828c-0.396,0-1.129,0.097-1.129,0.637
	c0,0.671,1.008,0.768,2.016,0.995c0.996,0.228,2.002,0.588,2.002,1.811c0,1.476-1.486,2.015-2.77,2.015
	c-1.56,0-2.724-0.695-2.746-2.158H71.387z"/>
</svg>
