<?xml version="1.0" encoding="utf-8"?>
<!-- Generator: Adobe Illustrator 22.1.0, SVG Export Plug-In . SVG Version: 6.00 Build 0)  -->
<svg version="1.1" id="Layer_1" xmlns="http://www.w3.org/2000/svg" xmlns:xlink="http://www.w3.org/1999/xlink" x="0px" y="0px"
	 width="295px" height="50px" viewBox="0 0 295 50" style="enable-background:new 0 0 295 50;" xml:space="preserve">
<style type="text/css">
	.st0{fill:#D4D653;}
	.st1{fill:#009E92;}
	.st2{fill:#ED6B93;}
	.st3{fill:#FFFFFF;}
</style>
<g>
	<path class="st0" d="M55.2,9.3c-6,0-10.8,4.9-10.8,10.8S49.2,31,55.2,31S66,26.1,66,20.1C66,14.2,61.1,9.3,55.2,9.3 M55.2,40.3
		C44.1,40.3,35,31.2,35,20.1C35,9.1,44.1,0,55.2,0s20.1,9.1,20.1,20.1C75.3,31.2,66.3,40.3,55.2,40.3"/>
	<path class="st1" d="M9.5,20.1c0,6,4.9,10.8,10.8,10.8s10.8-4.9,10.8-10.8S26.3,9.3,20.4,9.3C14.4,9.3,9.5,14.2,9.5,20.1 M9.5,50
		H0.2V20.1C0.2,9.1,9.3,0,20.4,0s20.1,9.1,20.1,20.1s-9.1,20.1-20.1,20.1c-4,0-7.7-1.2-10.8-3.2V50z"/>
	<path class="st2" d="M79.2,20.1C79.2,26.1,84,31,90,31s10.8-4.9,10.8-10.8S96,9.3,90,9.3S79.2,14.2,79.2,20.1 M79.2,50h-9.3V20.1
		C69.9,9.1,78.9,0,90,0s20.1,9.1,20.1,20.1S101.1,40.3,90,40.3c-4,0-7.7-1.2-10.8-3.2V50z"/>
</g>
<path class="st3" d="M157,1.5v26.8c0,4.4-3.5,7.4-8.1,7.4c-2.3,0-4.3-0.7-5.8-2.1c-1.8-1.7-2.8-3.9-2.8-7.1v-25h-5.1v24.9
	c0,3.1-0.9,5.4-2.8,7.1c-1.6,1.4-3.5,2.1-5.8,2.1c-4.7,0-8.1-3-8.1-7.4V1.5h-5.1v27c0,3.5,1.3,6.3,3.9,8.6c2.5,2,5.5,3.1,9.2,3.1
	c4.9,0,8.6-1.8,11.3-5.4c2.8,3.6,6.5,5.4,11.4,5.4c3.6,0,6.7-1,9.1-3.1c2.6-2.2,3.9-5,3.9-8.6v-27H157z M239.9,1.4v26.4
	c0,3.6,1.2,6.5,3.6,8.7c2.2,2,4.9,3,7.9,3h9.7v-4.4h-8.9c-4.4,0-7.3-3.1-7.3-7.5V1.4H239.9z M214.8,13.3c0-4.9,2.9-7.8,7.9-7.8
	c5,0,8.2,2.6,8.2,6.2c0,4.1-3,6.2-8.9,6.2h-7.3V13.3z M213.4,4.4c-2.4,2.2-3.6,5.2-3.6,8.9v26.2h5.1V22.2h0.1
	c4.7,0,8.8,1.6,12.1,4.8c3.5,3.3,5.2,7.5,5.2,12.5h4.9c0-8.2-3-14.2-9-18l0.4-0.1c5-1.5,7.6-4.9,7.6-9.9c0-3.1-1.2-5.7-3.8-7.6
	C229.9,2,226.7,1,222.8,1C218.9,1,215.7,2.2,213.4,4.4 M268.6,12.9c0-4.6,2.8-7.2,7.3-7.5c4.4-0.2,7.8,1.2,10.3,4.4
	c2.2,2.9,3.3,6.4,3.3,10.7c0,3.9-1.3,7.3-4,10.1c-2.8,3-6.4,4.4-11,4.4h-6.1L268.6,12.9L268.6,12.9z M263.5,14.2v25.4h11.3
	c5.6,0,10.3-1.7,14-5.2c3.9-3.6,5.8-8.2,5.8-13.8c0-5-1.4-9.5-4.2-13.2c-3.2-4.2-7.5-6.3-12.7-6.3c-0.1,0-0.1,0-0.2,0
	C268.2,1,263.5,5.4,263.5,14.2 M174.4,31.1c-3.1-2.9-4.6-6.4-4.6-10.6c0-4.1,1.5-7.7,4.6-10.6c3.1-3,7-4.4,11.5-4.4
	c4.5,0,8.4,1.5,11.5,4.4c3.1,3,4.7,6.5,4.7,10.6c0,4.1-1.6,7.7-4.7,10.7c-3.1,3-7,4.4-11.5,4.4C181.3,35.7,177.5,34.1,174.4,31.1
	 M185.9,1c-5.9,0-11,1.9-15.1,5.8c-4.1,3.8-6.2,8.4-6.2,13.7s2.1,10,6.2,13.9c4.1,3.8,9.2,5.7,15.1,5.7c5.9,0,11-1.9,15.1-5.7
	c4.2-3.9,6.3-8.5,6.3-13.9s-2.1-10-6.3-13.7C196.9,2.9,191.8,1,185.9,1"/>
</svg>
