<?xml version="1.0" encoding="utf-8"?>
<!-- Generator: Adobe Illustrator 16.0.0, SVG Export Plug-In . SVG Version: 6.00 Build 0)  -->
<!DOCTYPE svg PUBLIC "-//W3C//DTD SVG 1.1//EN" "http://www.w3.org/Graphics/SVG/1.1/DTD/svg11.dtd">
<svg version="1.1" id="Layer_1" xmlns="http://www.w3.org/2000/svg" xmlns:xlink="http://www.w3.org/1999/xlink" x="0px" y="0px"
	 width="3495.563px" height="2479.689px" viewBox="0 0 3495.563 2479.689" enable-background="new 0 0 3495.563 2479.689"
	 xml:space="preserve">
<g>
	<path fill-rule="evenodd" clip-rule="evenodd" fill="#FFC755" d="M2,763.904C2,635.92,2,507.937,2,379.952
		c22.839-1.412,45.693-2.615,68.513-4.285c32.719-2.396,65.411-5.147,98.118-7.716c18.838-1.479,37.685-2.865,56.523-4.349
		c32.044-2.526,64.081-5.15,96.128-7.63c19.833-1.534,39.69-2.772,59.521-4.332c31.714-2.493,63.415-5.141,95.121-7.724l0.988,0.007
		l0.987-0.014l0.049,0.055c-0.011,0.659-0.017,1.318-0.016,1.977c-11.636,21.293-23.578,42.427-34.85,63.912
		c-32.791,62.497-65.365,125.107-97.923,187.725c-20.736,39.88-41.207,79.898-61.97,119.766
		c-9.527,18.294-19.469,36.375-29.223,54.552c-29.907-0.697-59.821-1.156-89.718-2.143C110.16,767.969,56.082,765.871,2,763.904z"/>
	<path fill-rule="evenodd" clip-rule="evenodd" fill="#FFC654" d="M629.921,2c69.991,0,139.982,0,209.974,0
		c3.712,16.104,7.004,32.318,11.216,48.291c11.152,42.285,22.733,84.456,34.081,126.688c8.155,30.353,16.125,60.756,24.333,91.094
		c6.386,23.604,13.299,47.068,19.438,70.734c4.738,18.264,8.638,36.748,12.912,55.133c-0.664,0.003-1.327,0.004-1.99,0.003
		c-3.335-0.662-6.67-1.324-10.005-1.986c-17.483-1.711-34.979-3.3-52.446-5.162c-26.702-2.845-53.377-5.939-80.076-8.819
		c-27.359-2.952-54.74-5.707-82.097-8.673c-28.01-3.036-56.003-6.219-84.004-9.348c-27.342-3.057-54.668-6.278-82.031-9.145
		c-23.737-2.487-47.517-4.58-71.277-6.847l-0.049-0.055c18.44-40.953,36.95-81.875,55.302-122.868
		c24.468-54.652,48.885-109.329,73.172-164.061C614.46,38.759,622.085,20.333,629.921,2z"/>
	<path fill-rule="evenodd" clip-rule="evenodd" fill="#FFD66A" d="M2,71.991C2,48.661,2,25.33,2,2c129.983,0,259.967,0,389.951,0
		c0.511,3.927,0.625,7.956,1.595,11.766c10.648,41.809,21.493,83.567,32.158,125.37c10.336,40.509,20.654,81.023,30.738,121.595
		c6.717,27.021,13.012,54.146,19.497,81.226c-20.409-11.766-40.766-23.621-61.234-35.28
		c-39.479-22.484-79.053-44.802-118.527-67.294c-38.366-21.861-76.671-43.829-114.975-65.798
		c-36.012-20.654-71.916-41.499-108.006-62.015C49.593,98.152,25.741,85.169,2,71.991z"/>
	<path fill-rule="evenodd" clip-rule="evenodd" fill="#FFAF3C" d="M1365.829,2c2.667,0,5.332,0,7.999,0
		c4.118,4.315,7.951,8.957,12.404,12.895c25.846,22.854,51.886,45.488,77.763,68.308c19.415,17.121,38.614,34.488,58.034,51.605
		c25.881,22.813,51.887,45.485,77.83,68.229c20.454,17.933,41.016,35.747,61.299,53.872c15.07,13.469,29.769,27.355,44.632,41.055
		c-17.607-0.666-35.217-1.252-52.82-2.015c-39.19-1.698-78.378-3.479-117.566-5.236c-29.549-1.325-59.095-2.703-88.646-3.991
		c-37.196-1.621-74.399-3.074-111.591-4.794c-22.895-1.06-45.762-2.782-68.661-3.667c-27.54-1.065-55.102-1.557-82.654-2.296
		c-1.33,0.002-2.659,0.005-3.989,0.007c0.661-0.672,1.321-1.346,1.982-2.019c23.351-34.022,46.813-67.969,70.025-102.086
		c30.712-45.143,61.274-90.389,91.796-135.661C1351.26,24.942,1358.453,13.408,1365.829,2z"/>
	<path fill-rule="evenodd" clip-rule="evenodd" fill="#FFD568" d="M2,71.991c23.741,13.178,47.593,26.161,71.197,39.579
		c36.09,20.516,71.994,41.361,108.006,62.015c38.304,21.969,76.609,43.937,114.975,65.798
		c39.474,22.493,79.048,44.81,118.527,67.294c20.469,11.659,40.826,23.514,61.234,35.28c-0.002,0.653-0.007,1.306-0.016,1.959
		c-31.706,2.583-63.407,5.23-95.121,7.724c-19.831,1.56-39.688,2.798-59.521,4.332c-32.047,2.48-64.084,5.104-96.128,7.63
		c-18.838,1.484-37.685,2.87-56.523,4.349c-32.707,2.569-65.399,5.32-98.118,7.716c-22.82,1.67-45.674,2.874-68.513,4.285
		C2,277.298,2,174.645,2,71.991z"/>
	<path fill-rule="evenodd" clip-rule="evenodd" fill="#FB9D38" d="M1833.771,2c160.646,0,321.292,0,481.939,0
		c1.32,40.83,2.651,81.658,3.957,122.488c1.359,42.493,2.695,84.986,4.042,127.479c-0.667,0.002-1.333,0.003-2,0.004
		c-12.326-5.771-24.564-11.74-36.993-17.281c-46.151-20.575-92.387-40.959-138.55-61.509
		c-39.179-17.442-78.276-35.073-117.456-52.516c-46.161-20.551-92.353-41.034-138.569-61.461
		c-26.741-11.82-53.558-23.472-80.34-35.199c0.001-0.659,0-1.318-0.005-1.979c0.663-0.672,1.325-1.342,1.987-2.014
		C1819.113,14.009,1826.441,8.004,1833.771,2z"/>
	<path fill-rule="evenodd" clip-rule="evenodd" fill="#FFC24E" d="M941.874,393.94c-4.274-18.385-8.174-36.869-12.912-55.133
		c-6.139-23.666-13.052-47.131-19.438-70.734c-8.208-30.338-16.178-60.741-24.333-91.094
		c-11.347-42.232-22.929-84.403-34.081-126.688C846.899,34.318,843.606,18.104,839.895,2c93.988,0,187.977,0,281.965,0
		c8.75,7.561,17.501,15.121,28.246,24.405c-1.774-10.196-3.011-17.3-4.249-24.405c64.659,0,129.317,0,193.976,0
		c-1.503,0.631-2.96,1.653-4.516,1.836c-18.411,2.176-36.861,4.039-55.254,6.353c-36.463,4.586-72.919,9.251-109.324,14.268
		c-6.429,0.886-12.601,3.635-18.893,5.524c-1.189,1.134-2.738,2.063-3.515,3.432c-17.728,31.207-35.363,62.467-53.032,93.707
		c-24.541,43.388-49.139,86.744-73.632,130.158c-25.311,44.862-50.525,89.78-75.781,134.674c-0.667,0.667-1.333,1.334-2,2.001
		C943.214,393.949,942.544,393.945,941.874,393.94z"/>
	<path fill-rule="evenodd" clip-rule="evenodd" fill="#FFA93B" d="M1809.796,22.028c0.005,0.659,0.006,1.318,0.005,1.978
		c-0.018,0.663-0.028,1.326-0.033,1.99c-9.486,24.841-19.121,49.626-28.432,74.533c-24.591,65.783-49.042,131.617-73.55,197.432
		c-0.665,0.003-1.33,0.004-1.996,0.004c-14.863-13.7-29.562-27.586-44.632-41.055c-20.283-18.125-40.845-35.939-61.299-53.872
		c-25.943-22.744-51.949-45.416-77.83-68.229c-19.42-17.117-38.62-34.484-58.034-51.605c-25.876-22.82-51.917-45.454-77.763-68.308
		c-4.453-3.938-8.286-8.579-12.404-12.895c21.33,0,42.661,0,63.992,0c2.169,0.659,4.32,1.811,6.513,1.902
		c19.553,0.807,39.116,1.341,58.67,2.129c14.242,0.575,28.477,1.325,42.707,2.153c32.405,1.887,64.801,3.951,97.209,5.779
		c15.888,0.896,31.8,1.354,47.695,2.138c39.055,1.927,78.106,3.928,117.159,5.899C1808.447,22.01,1809.122,22.019,1809.796,22.028z"
		/>
	<path fill-rule="evenodd" clip-rule="evenodd" fill="#D68A33" d="M2,2143.731c0-22.664,0-45.327,0-67.991
		c4.306,0.231,8.635,0.248,12.913,0.729c26.979,3.035,53.949,6.158,80.918,9.282c26.313,3.048,52.604,6.298,78.938,9.152
		c23.043,2.498,46.131,4.571,69.2,6.833c0.665,0.006,1.331,0.01,1.996,0.011c0.002,0.659,0.005,1.319,0.009,1.979
		c-0.002,0.673-0.005,1.347-0.007,2.021c-9.296,20.885-18.862,41.654-27.836,62.678c-23.34,54.673-46.459,109.441-69.592,164.202
		c-20.935,49.556-41.772,99.151-62.652,148.729l0.208,0.691c-18.696-0.232-37.392-0.467-56.087-0.701
		c-1.993-27.446-4.027-54.891-5.967-82.343c-2.104-29.766-3.949-59.551-6.22-89.304c-3.127-40.983-6.335-81.963-9.957-122.902
		C6.587,2172.381,3.992,2158.083,2,2143.731z"/>
	<path fill-rule="evenodd" clip-rule="evenodd" fill="#E38F30" d="M2557.68,2c82.656,0,165.313,0,247.969,0
		c3.201,2.266,6.236,4.82,9.627,6.753c25.414,14.479,50.899,28.835,76.362,43.23c-19.466,6.819-38.95,13.586-58.394,20.468
		c-106.935,37.849-213.862,75.716-320.783,113.601c-40.761,14.442-81.442,29.113-122.272,43.359
		c-20.698,7.222-41.645,13.731-62.48,20.562c14.61-16.271,29.013-32.733,43.872-48.773c28.85-31.142,57.862-62.134,86.98-93.023
		c26.175-27.766,52.65-55.249,78.842-82.998C2544.443,17.718,2550.936,9.74,2557.68,2z"/>
	<path fill-rule="evenodd" clip-rule="evenodd" fill="#E59236" d="M243.969,2101.736c-23.069-2.262-46.157-4.335-69.2-6.833
		c-26.333-2.854-52.625-6.104-78.938-9.152c-26.969-3.124-53.938-6.247-80.918-9.282c-4.278-0.48-8.607-0.497-12.913-0.729
		c0-5.333,0-10.666,0-15.998c1.852-2.519,4.332-4.789,5.447-7.599c4.902-12.358,9.369-24.887,14.066-37.325
		c23.962-63.438,47.905-126.882,71.947-190.289c8.708-22.967,17.674-45.837,26.521-68.751
		c16.727,45.859,33.507,91.699,50.165,137.584c19.719,54.315,39.432,108.635,58.928,163.03
		C234.442,2071.363,239.026,2086.614,243.969,2101.736z"/>
	<path fill-rule="evenodd" clip-rule="evenodd" fill="#FFD262" d="M475.924,343.916c0.009-0.653,0.014-1.306,0.016-1.959
		c-6.484-27.08-12.78-54.205-19.497-81.226c-10.084-40.572-20.402-81.086-30.738-121.595c-10.666-41.803-21.51-83.562-32.158-125.37
		c-0.971-3.81-1.084-7.839-1.595-11.766c79.323,0,158.647,0,237.97,0c-7.836,18.333-15.461,36.759-23.548,54.98
		c-24.288,54.732-48.705,109.409-73.172,164.061c-18.352,40.993-36.861,81.915-55.302,122.868l-0.987,0.014L475.924,343.916z"/>
	<path fill-rule="evenodd" clip-rule="evenodd" fill="#FFBB4A" d="M2,763.904c54.082,1.967,108.16,4.065,162.249,5.849
		c29.896,0.986,59.811,1.445,89.718,2.143c0,0.666,0.001,1.333,0.002,2c-1.302,1.024-2.874,1.836-3.866,3.103
		c-34.836,44.43-69.611,88.909-104.411,133.368c-32.346,41.325-64.78,82.581-97.021,123.987
		c-8.519,10.94-16.47,22.324-24.682,33.503c-0.664,0.004-1.327,0.008-1.991,0.011c-0.667-0.667-1.334-1.333-2.001-2
		c-5.999-12.665-11.998-25.33-17.997-37.995C2,939.882,2,851.893,2,763.904z"/>
	<path fill-rule="evenodd" clip-rule="evenodd" fill="#FFB743" d="M1151.845,29.981c6.292-1.889,12.463-4.639,18.893-5.524
		c36.405-5.016,72.861-9.682,109.324-14.268c18.393-2.314,36.844-4.177,55.254-6.353c1.556-0.184,3.013-1.205,4.516-1.836
		c8.666,0,17.331,0,25.997,0c-7.376,11.408-14.569,22.942-22.163,34.206c-30.521,45.271-61.084,90.518-91.796,135.661
		c-23.212,34.117-46.675,68.063-70.025,102.086c-0.64-2.217-1.605-4.395-1.869-6.655c-4.243-36.444-8.281-72.912-12.6-109.347
		C1162.317,115.279,1157.032,72.636,1151.845,29.981z"/>
	<path fill-rule="evenodd" clip-rule="evenodd" fill="#BD822E" d="M3045.618,2c150.648,0,301.296,0,451.943,0
		c-0.109,22.667-0.219,45.333-0.328,68c-38.392-2.595-76.775-5.305-115.177-7.745c-25.51-1.62-51.043-2.875-76.566-4.253
		c-14.922-0.807-29.859-1.361-44.77-2.333c-27.14-1.771-54.256-3.917-81.398-5.63c-25.179-1.589-50.385-2.711-75.568-4.228
		c-42.062-2.533-84.115-5.216-126.171-7.836c0.016-0.658,0.038-1.315,0.066-1.973C3000.306,24.667,3022.962,13.333,3045.618,2z"/>
	<path fill-rule="evenodd" clip-rule="evenodd" fill="#FF9F40" d="M2,1739.782c0-102.654,0-205.308,0-307.962
		c7.331-2,14.663-3.999,21.995-5.999c0.142,1.321,0.085,2.701,0.454,3.954c20.109,68.545,40.229,137.085,60.406,205.608
		c10.609,36.03,21.384,72.011,31.858,108.08c0.726,2.498-0.441,5.547-0.728,8.338c-4.96-0.101-9.965,0.196-14.873-0.365
		C68.063,1747.653,35.035,1743.688,2,1739.782z"/>
	<path fill-rule="evenodd" clip-rule="evenodd" fill="#EF993D" d="M2,1739.782c33.035,3.905,66.063,7.871,99.112,11.654
		c4.908,0.562,9.913,0.265,14.873,0.365c1.333,0.659,2.667,1.318,4,1.979c-0.001,0.666-0.002,1.332-0.002,1.998
		c-8.848,22.914-17.813,45.784-26.521,68.751c-24.042,63.407-47.985,126.852-71.947,190.289
		c-4.698,12.438-9.164,24.967-14.066,37.325c-1.115,2.81-3.595,5.08-5.447,7.599C2,1953.088,2,1846.436,2,1739.782z"/>
	<path fill-rule="evenodd" clip-rule="evenodd" fill="#F29838" d="M2323.709,251.967c-1.347-42.493-2.683-84.986-4.042-127.479
		c-1.306-40.83-2.637-81.659-3.957-122.488c41.327,0,82.656,0,123.984,0c-30.186,65.073-60.43,130.118-90.519,195.236
		c-8.068,17.462-15.658,35.146-23.467,52.729c-0.008,0.66-0.016,1.32-0.023,1.98l0.012,0.018c-0.659,0.006-1.318,0.023-1.978,0.055
		L2323.709,251.967z"/>
	<path fill-rule="evenodd" clip-rule="evenodd" fill="#E99334" d="M2325.709,249.965c7.809-17.583,15.398-35.266,23.467-52.729
		c30.089-65.118,60.333-130.164,90.519-195.236c39.328,0,78.657,0,117.985,0c-6.744,7.74-13.236,15.718-20.277,23.178
		c-26.191,27.749-52.667,55.232-78.842,82.998c-29.118,30.89-58.131,61.882-86.98,93.023c-14.859,16.04-29.262,32.502-43.872,48.773
		l0,0C2327.041,249.97,2326.375,249.968,2325.709,249.965z"/>
	<path fill-rule="evenodd" clip-rule="evenodd" fill="#FFB147" d="M19.997,1065.866c0.667,0.667,1.334,1.333,2.001,2
		c0.67,117.989,1.341,235.979,2.011,353.968c-0.005,0.662-0.014,1.324-0.027,1.987c-3.44-3.519-6.849-7.069-10.329-10.549
		c-3.851-3.85-7.767-7.635-11.653-11.448c0-113.985,0-227.971,0-341.957C7.999,1061.867,13.998,1063.867,19.997,1065.866z"/>
	<path fill-rule="evenodd" clip-rule="evenodd" fill="#D58C37" d="M2,2143.731c1.992,14.352,4.587,28.649,5.863,43.065
		c3.621,40.939,6.829,81.919,9.957,122.902c2.271,29.753,4.115,59.538,6.22,89.304c1.94,27.452,3.975,54.896,5.967,82.345
		c-9.335,0.113-18.671,0.227-28.006,0.342C2,2369.036,2,2256.385,2,2143.731z"/>
	<path fill-rule="evenodd" clip-rule="evenodd" fill="#DB8C30" d="M2891.638,51.983c-25.463-14.395-50.948-28.751-76.362-43.23
		c-3.391-1.933-6.426-4.487-9.627-6.753c25.997,0,51.993,0,77.99,0c29.996,11.33,59.992,22.662,89.988,33.993
		c0.663,0.654,1.326,1.309,1.989,1.964c0,0.001,0,0.034,0,0.034c-27.988,4.672-55.978,9.345-83.966,14.017L2891.638,51.983z"/>
	<path fill-rule="evenodd" clip-rule="evenodd" fill="#FFB146" d="M1807.773,22.001c-39.053-1.971-78.104-3.973-117.159-5.899
		c-15.896-0.784-31.808-1.242-47.695-2.138c-32.409-1.829-64.804-3.893-97.209-5.779c-14.229-0.828-28.465-1.578-42.707-2.153
		c-19.554-0.789-39.117-1.323-58.67-2.129c-2.193-0.091-4.343-1.243-6.513-1.902c121.985,0,243.969,0,365.954,0
		C1805.106,8.667,1806.44,15.334,1807.773,22.001z"/>
	<path fill-rule="evenodd" clip-rule="evenodd" fill="#E09036" d="M2973.627,35.993C2943.631,24.662,2913.635,13.33,2883.639,2
		c23.997,0,47.994,0,71.991,0C2961.629,13.33,2967.628,24.662,2973.627,35.993z"/>
	<path fill-rule="evenodd" clip-rule="evenodd" fill="#DDBFAA" d="M3497.562,2483.688c-181.31,0-362.621,0-543.932,0
		c-0.029-0.56-0.063-1.12-0.102-1.679c10.282-0.107,20.565-0.287,30.848-0.313c56.416-0.137,112.833-0.238,169.248-0.352
		c47.966,0.006,95.932,0.012,143.897,0.018c64.68-0.002,129.361-0.006,194.042-0.01c1.923,0.035,3.847,0.07,5.769,0.104l0.674,0.711
		C3497.788,2482.654,3497.64,2483.162,3497.562,2483.688z"/>
	<path fill-rule="evenodd" clip-rule="evenodd" fill="#D38C36" d="M2973.627,35.993C2967.628,24.662,2961.629,13.33,2955.63,2
		c17.997,0,35.995,0,53.993,0c-10.658,11.333-21.316,22.667-31.974,34c-0.028,0.658-0.051,1.315-0.065,1.973
		c-0.656-0.001-1.313-0.007-1.968-0.017C2974.953,37.302,2974.29,36.646,2973.627,35.993z"/>
	<path fill-rule="evenodd" clip-rule="evenodd" fill="#E6CBAD" d="M1965.754,2483.688c-163.313,0-326.626,0-489.939,0
		c0-0.556-0.002-1.112-0.005-1.667c0.668-0.221,1.336-0.439,2.004-0.658c6.003-0.004,12.007-0.008,18.01-0.012
		c47.853,0.111,95.705,0.32,143.556,0.313c58.155-0.01,116.311-0.199,174.465-0.311c49.948,0,99.896,0.002,149.846,0.004
		c0.686,0.221,1.371,0.443,2.058,0.666C1965.751,2482.578,1965.753,2483.133,1965.754,2483.688z"/>
	<path fill-rule="evenodd" clip-rule="evenodd" fill="#E7D2B5" d="M3499.562,171.979c0,155.98,0,311.961,0,467.941
		c-0.556-0.01-1.111-0.013-1.668-0.009c-0.222-25.323-0.443-50.645-0.666-75.968c0.111-4.316,0.319-8.631,0.32-12.949
		c0.018-104.389,0.03-208.779-0.001-313.168c-0.006-21.272-0.194-42.543-0.298-63.815c0.219-0.68,0.438-1.361,0.657-2.041
		l0.827-0.005L3499.562,171.979z"/>
	<path fill-rule="evenodd" clip-rule="evenodd" fill="#EAD4B6" d="M851.893,2483.688c-137.982,0-275.965,0-413.948,0
		c0.026-0.544,0.057-1.089,0.092-1.634l-0.129-0.703c4.317,0.111,8.636,0.322,12.954,0.322
		c129.391,0.018,258.783,0.012,388.174,0.029c4.318,0,8.636,0.209,12.954,0.322C851.954,2482.58,851.921,2483.135,851.893,2483.688z
		"/>
	<path fill-rule="evenodd" clip-rule="evenodd" fill="#E5C7AC" d="M3499.562,1383.826c0,128.651,0,257.301,0,385.952
		c-0.555-0.009-1.108-0.01-1.662-0.003c-0.112-9.278-0.301-18.556-0.324-27.834c-0.139-53.378-0.237-106.756-0.35-160.134
		c0.003-65.324,0.007-130.647,0.01-195.973c0.221-0.671,0.44-1.341,0.661-2.011l0.833-0.002L3499.562,1383.826z"/>
	<path fill-rule="evenodd" clip-rule="evenodd" fill="#E9D1B1" d="M1307.836,2483.688c-120.652,0-241.303,0-361.955,0
		c-0.031-0.562-0.066-1.122-0.107-1.683c4.318-0.105,8.635-0.303,12.952-0.303c94.762-0.018,189.523-0.033,284.285,0.002
		c21.607,0.008,43.212,0.207,64.819,0.318C1307.833,2482.578,1307.835,2483.133,1307.836,2483.688z"/>
	<path fill-rule="evenodd" clip-rule="evenodd" fill="#D9BEAA" d="M3499.562,2121.734c0,119.984,0,239.97,0,359.955
		c-0.486,0.262-1.005,0.422-1.556,0.479l-0.674-0.711c0.076-95.926,0.178-191.854,0.211-287.779
		c0.008-21.978-0.216-43.955-0.333-65.933c0.004-1.334,0.009-2.668,0.014-4.001c0.223-0.674,0.445-1.346,0.669-2.02l0.835-0.01
		L3499.562,2121.734z"/>
	<path fill-rule="evenodd" clip-rule="evenodd" fill="#E2C4AB" d="M3499.562,2121.734l-0.834-0.02l-0.835,0.01
		c-0.22-9.968-0.438-19.936-0.657-29.904c0.108-45.859,0.313-91.719,0.303-137.579c-0.014-60.816-0.194-121.633-0.303-182.448
		c0.221-0.673,0.442-1.345,0.663-2.018c0.555-0.007,1.108-0.006,1.663,0.003C3499.562,1887.097,3499.562,2004.416,3499.562,2121.734
		z"/>
	<path fill-rule="evenodd" clip-rule="evenodd" fill="#EED6B9" d="M438.037,2482.055c-0.035,0.545-0.065,1.09-0.092,1.634
		c-117.318,0-234.637,0-351.956,0c0.028-0.548,0.063-1.095,0.104-1.642l-0.208-0.691c56.031,0,112.061-0.002,168.091-0.002
		c8.95,0.111,17.9,0.299,26.851,0.324C333.23,2481.824,385.634,2481.934,438.037,2482.055z"/>
	<path fill-rule="evenodd" clip-rule="evenodd" fill="#E3C3AA" d="M2953.528,2482.01c0.039,0.559,0.072,1.119,0.102,1.679
		c-115.318,0-230.638,0-345.956,0c-0.031-0.558-0.068-1.116-0.111-1.673c28.896-0.109,57.791-0.252,86.688-0.32
		c57.798-0.135,115.596-0.229,173.394-0.34c28.723,0.002,57.445,0.004,86.168,0.006L2953.528,2482.01z"/>
	<path fill-rule="evenodd" clip-rule="evenodd" fill="#C28533" d="M2977.649,36c10.657-11.333,21.315-22.667,31.974-34
		c11.998,0,23.997,0,35.995,0C3022.962,13.333,3000.306,24.667,2977.649,36z"/>
	<path fill-rule="evenodd" clip-rule="evenodd" fill="#E8C8AB" d="M1965.754,2483.688c-0.001-0.556-0.003-1.11-0.005-1.665
		c86.426-0.111,172.853-0.256,259.278-0.314c24.262-0.016,48.521,0.215,72.782,0.33c-0.038,0.551-0.07,1.1-0.098,1.649
		C2187.059,2483.688,2076.406,2483.688,1965.754,2483.688z"/>
	<path fill-rule="evenodd" clip-rule="evenodd" fill="#E5CDAF" d="M3499.562,821.897c0,107.32,0,214.64,0,321.959
		c-0.555,0.023-1.108,0.059-1.662,0.106c-0.113-43.194-0.247-86.389-0.333-129.583c-0.127-63.466-0.22-126.932-0.326-190.397
		c0.22-0.697,0.44-1.393,0.661-2.09l0.83-0.005L3499.562,821.897z"/>
	<path fill-rule="evenodd" clip-rule="evenodd" fill="#E5C5AB" d="M2297.712,2483.688c0.027-0.55,0.06-1.099,0.098-1.649
		l-0.159-0.684c77.344,0.002,154.688,0.002,232.033,0.004c26.057,0,52.114,0.002,78.172,0.004l-0.293,0.652
		c0.043,0.557,0.08,1.115,0.111,1.673C2504.354,2483.688,2401.032,2483.688,2297.712,2483.688z"/>
	<path fill-rule="evenodd" clip-rule="evenodd" fill="#E5C9AD" d="M3497.899,1143.963c0.554-0.048,1.107-0.083,1.662-0.106
		c0,79.99,0,159.98,0,239.97l-0.832-0.004l-0.833,0.002c-0.112-10.323-0.297-20.647-0.322-30.971
		c-0.14-56.972-0.24-113.944-0.354-170.917c0.001-12.755,0.002-25.511,0.003-38.266L3497.899,1143.963z"/>
	<path fill-rule="evenodd" clip-rule="evenodd" fill="#FFAC48" d="M2,1401.824c3.887,3.813,7.803,7.599,11.653,11.448
		c3.479,3.479,6.889,7.03,10.329,10.549c0.006,0.667,0.012,1.333,0.018,2h-0.005c-7.332,2-14.664,3.999-21.995,5.999
		C2,1421.822,2,1411.823,2,1401.824z"/>
	<path fill-rule="evenodd" clip-rule="evenodd" fill="#E8D0B0" d="M3499.562,821.897l-0.83-0.01l-0.83,0.005
		c-0.113-4.965-0.314-9.931-0.326-14.897c-0.13-55.019-0.23-110.036-0.34-165.055c0.22-0.677,0.439-1.352,0.658-2.029
		c0.557-0.004,1.112-0.001,1.668,0.009C3499.562,700.579,3499.562,761.238,3499.562,821.897z"/>
	<path fill-rule="evenodd" clip-rule="evenodd" fill="#FFBB4E" d="M19.998,1065.866c-6-2-11.999-3.999-17.998-5.999
		c0-10.666,0-21.33,0-31.996C7.999,1040.537,13.998,1053.201,19.998,1065.866z"/>
	<path fill-rule="evenodd" clip-rule="evenodd" fill="#EAD5B8" d="M3499.562,171.979l-0.828-0.014l-0.827,0.005
		c-0.225-33.99-0.448-67.98-0.673-101.97c0.109-22.667,0.219-45.333,0.328-68c0.666,2.667,1.909,5.331,1.915,7.999
		C3499.59,63.992,3499.562,117.985,3499.562,171.979z"/>
	<path fill-rule="evenodd" clip-rule="evenodd" fill="#E7CDAF" d="M1307.836,2483.688c-0.001-0.556-0.003-1.11-0.007-1.665
		c0.705-0.225,1.411-0.449,2.116-0.672c5.657,0.111,11.315,0.309,16.973,0.324c49.631,0.133,99.262,0.234,148.892,0.346
		c0.003,0.555,0.005,1.111,0.005,1.667C1419.822,2483.688,1363.829,2483.688,1307.836,2483.688z"/>
	<path fill-rule="evenodd" clip-rule="evenodd" fill="#FFCA58" d="M1145.856,2c1.237,7.104,2.474,14.209,4.249,24.405
		C1139.36,17.121,1130.609,9.561,1121.859,2C1129.858,2,1137.857,2,1145.856,2z"/>
	<path fill-rule="evenodd" clip-rule="evenodd" fill="#FFA543" d="M1833.771,2c-7.329,6.004-14.657,12.009-21.987,18.013
		c1.33-6.004,2.659-12.009,3.989-18.013C1821.771,2,1827.771,2,1833.771,2z"/>
	<path fill-rule="evenodd" clip-rule="evenodd" fill="#EDD3B3" d="M945.774,2482.006c0.041,0.561,0.076,1.121,0.107,1.683
		c-31.329,0-62.659,0-93.988,0c0.028-0.554,0.061-1.108,0.098-1.663l-0.206-0.686c31.405,0.014,62.811,0.027,94.216,0.041
		L945.774,2482.006z"/>
	<path fill-rule="evenodd" clip-rule="evenodd" fill="#F1D8BB" d="M86.094,2482.047c-0.042,0.547-0.077,1.094-0.104,1.642
		c-26.33,0-52.66,0.036-78.99-0.086c-1.669-0.008-3.333-1.247-5-1.913c9.335-0.115,18.671-0.229,28.006-0.342
		C48.702,2481.58,67.398,2481.814,86.094,2482.047z"/>
	<path fill-rule="evenodd" clip-rule="evenodd" fill="#FFAD48" d="M1815.772,2c-1.33,6.004-2.659,12.009-3.989,18.013
		c-0.662,0.672-1.324,1.342-1.987,2.014c-0.674-0.009-1.349-0.018-2.022-0.026c-1.333-6.667-2.667-13.334-4-20.001
		C1807.773,2,1811.773,2,1815.772,2z"/>
	<path fill-rule="evenodd" clip-rule="evenodd" fill="#F2E9E2" d="M3498.006,2482.168c0.551-0.057,1.069-0.217,1.556-0.479
		c-0.667,0.666-1.334,1.332-2,1.999C3497.64,2483.162,3497.788,2482.654,3498.006,2482.168z"/>
	<path fill-rule="evenodd" clip-rule="evenodd" fill="#FFBC46" d="M941.874,393.94c0.67,0.005,1.34,0.009,2.011,0.014
		c-6.667,27.994-13.333,55.986-20,83.98c-7.753,6.757-15.604,13.404-23.24,20.29c-21.946,19.788-43.722,39.764-65.717,59.497
		c-30.387,27.261-60.922,54.357-91.374,81.546c-13.868,12.382-27.644,24.869-41.539,37.221c-28.523,25.357-57.158,50.587-85.63,76
		c-21.549,19.234-42.842,38.754-64.386,57.994c-28.712,25.643-57.538,51.16-86.351,76.689
		c-19.869,17.605-39.797,35.143-59.699,52.711l-0.006-0.023c0.098-4.323-0.177-8.691,0.352-12.96
		c5.824-47.014,11.803-94.008,17.676-141.015c3.286-26.292,6.428-52.603,9.68-78.9c2.724-22.034,5.641-44.044,8.243-66.092
		c3.689-31.255,6.964-62.56,10.794-93.796c3.468-28.279,7.619-56.474,11.156-84.745c4.851-38.784,9.406-77.605,14.088-116.41
		c-0.001-0.659,0.005-1.318,0.016-1.977c23.761,2.267,47.54,4.359,71.277,6.847c27.363,2.867,54.688,6.088,82.031,9.145
		c28,3.129,55.994,6.313,84.004,9.348c27.357,2.966,54.738,5.721,82.097,8.673c26.699,2.88,53.375,5.974,80.076,8.819
		c17.467,1.862,34.963,3.451,52.446,5.162c3.334,0.662,6.669,1.324,10.005,1.986C940.547,393.944,941.21,393.943,941.874,393.94z"/>
	<path fill-rule="evenodd" clip-rule="evenodd" fill="#FFBD47" d="M477.932,345.941c-4.682,38.805-9.237,77.626-14.088,116.41
		c-3.537,28.271-7.688,56.466-11.156,84.745c-3.831,31.236-7.105,62.541-10.794,93.796c-2.603,22.048-5.519,44.059-8.243,66.092
		c-3.251,26.297-6.394,52.607-9.68,78.9c-5.873,47.007-11.852,94.001-17.676,141.015c-0.528,4.269-0.254,8.638-0.352,12.96
		c-2.407-1.589-5.282-2.756-7.149-4.831c-20.399-22.661-40.68-45.428-60.911-68.239c-13.851-15.617-27.407-31.498-41.396-46.989
		c-13.978-15.478-28.331-30.617-42.52-45.905c0-0.667-0.001-1.333-0.002-2c9.754-18.177,19.696-36.257,29.223-54.552
		c20.763-39.867,41.234-79.886,61.97-119.766c32.558-62.618,65.132-125.228,97.923-187.725
		C454.354,388.368,466.296,367.234,477.932,345.941z"/>
	<path fill-rule="evenodd" clip-rule="evenodd" fill="#FFC24E" d="M939.884,393.943c-3.335-0.662-6.67-1.324-10.005-1.986
		C933.214,392.619,936.549,393.281,939.884,393.943z"/>
	<path fill-rule="evenodd" clip-rule="evenodd" fill="#FFA731" d="M1705.79,297.964c0.666,0,1.331-0.001,1.996-0.004l0.017,0.02
		c-0.671,1.996-1.341,3.991-2.011,5.987c-17.802,46.893-35.589,93.79-53.408,140.677c-24.781,65.206-49.51,130.432-74.433,195.584
		c-6.384,16.689-13.414,33.13-20.146,49.686c-9.682-10.015-19.576-19.837-29.004-30.086c-20.466-22.248-40.767-44.648-61.001-67.106
		c-28.675-31.825-57.198-63.788-85.846-95.638c-19.326-21.485-38.818-42.821-58.126-64.323
		c-27.954-31.131-55.834-62.33-83.701-93.539c-18.798-21.051-37.519-42.169-56.274-63.258c27.552,0.739,55.114,1.231,82.654,2.296
		c22.899,0.885,45.767,2.607,68.661,3.667c37.192,1.72,74.395,3.173,111.591,4.794c29.551,1.288,59.097,2.666,88.646,3.991
		c39.188,1.757,78.376,3.538,117.566,5.236C1670.573,296.712,1688.183,297.298,1705.79,297.964z"/>
	<path fill-rule="evenodd" clip-rule="evenodd" fill="#FFAD33" d="M1183.852,275.964c18.756,21.088,37.477,42.207,56.274,63.258
		c27.867,31.209,55.747,62.408,83.701,93.539c19.308,21.501,38.801,42.837,58.126,64.323c28.648,31.85,57.171,63.813,85.846,95.638
		c20.235,22.458,40.535,44.858,61.001,67.106c9.428,10.249,19.322,20.071,29.004,30.086c0,0.665-0.004,1.33-0.011,1.994
		c-1.33-0.003-2.66-0.006-3.989-0.009c-0.669-0.659-1.338-1.318-2.008-1.977c-25.754-8.935-51.596-17.619-77.243-26.85
		c-77.263-27.808-154.451-55.827-231.667-83.766c-46.58-16.854-93.116-33.832-139.758-50.515
		c-20.311-7.265-40.836-13.929-61.266-20.865c0.001-0.665,0.001-1.33,0-1.995c32.994-54.649,66.045-109.264,98.952-163.966
		c13.176-21.901,26.034-43.993,39.036-66l0.011,0.006C1181.193,275.969,1182.521,275.966,1183.852,275.964z"/>
	<path fill-rule="evenodd" clip-rule="evenodd" fill="#FFBA43" d="M1151.845,29.981c5.187,42.655,10.473,85.298,15.531,127.969
		c4.319,36.435,8.357,72.903,12.6,109.347c0.264,2.26,1.229,4.438,1.869,6.655c-0.661,0.673-1.321,1.347-1.982,2.019l-0.011-0.006
		c-1.281,0.339-2.668,0.467-3.829,1.048c-50.85,25.463-101.66,51.007-152.52,76.449c-25.828,12.92-51.743,25.666-77.619,38.49
		c25.256-44.894,50.47-89.812,75.781-134.674c24.493-43.415,49.091-86.771,73.632-130.158c17.669-31.24,35.304-62.5,53.032-93.707
		C1149.107,32.045,1150.656,31.115,1151.845,29.981z"/>
	<path fill-rule="evenodd" clip-rule="evenodd" fill="#F29329" d="M2321.709,251.971c0.667-0.001,1.333-0.002,2-0.004
		c0,0,0.011,0.05,0.011,0.049c1.708,8.116,3.183,16.291,5.16,24.341c23.556,95.868,47.187,191.717,70.798,287.571
		c-15.239-6.624-30.609-12.962-45.691-19.926c-39.874-18.415-79.648-37.044-119.415-55.689
		c-76.846-36.029-153.639-72.173-230.5-108.169c-24.112-11.292-48.449-22.108-72.545-33.435
		c-21.351-10.038-42.511-20.481-63.756-30.745c15.431-2.178,30.864-4.334,46.292-6.541c31.19-4.458,62.356-9.102,93.572-13.379
		c41.404-5.673,82.862-10.952,124.268-16.612c46.66-6.378,93.303-12.908,139.926-19.548
		C2288.493,257.511,2305.084,254.624,2321.709,251.971z"/>
	<path fill-rule="evenodd" clip-rule="evenodd" fill="#FB9D33" d="M2321.709,251.971c-16.625,2.652-33.216,5.54-49.881,7.912
		c-46.623,6.64-93.266,13.17-139.926,19.548c-41.405,5.661-82.863,10.939-124.268,16.612c-31.216,4.277-62.382,8.921-93.572,13.379
		c-15.428,2.206-30.861,4.362-46.292,6.541c-0.668,0-1.337-0.001-2.004-0.002c-0.665-0.666-1.33-1.332-1.994-1.999
		c-0.153-3.322,0.1-6.723-0.52-9.956c-9.502-49.606-19.143-99.186-28.697-148.782c-8.298-43.07-16.527-86.152-24.788-129.229
		c0.005-0.664,0.016-1.327,0.033-1.99c26.782,11.727,53.599,23.379,80.34,35.199c46.217,20.427,92.408,40.91,138.569,61.461
		c39.18,17.443,78.277,35.074,117.456,52.516c46.163,20.55,92.398,40.934,138.55,61.509
		C2297.145,240.231,2309.383,246.2,2321.709,251.971z"/>
	<path fill-rule="evenodd" clip-rule="evenodd" fill="#FFB63E" d="M945.884,391.952c25.876-12.824,51.792-25.569,77.619-38.49
		c50.86-25.442,101.67-50.986,152.52-76.449c1.16-0.581,2.548-0.709,3.829-1.048c-13.002,22.006-25.86,44.098-39.036,66
		c-32.907,54.702-65.958,109.316-98.952,163.966c-2.939-0.417-5.939-0.59-8.811-1.288c-36.401-8.849-72.783-17.774-109.17-26.679
		l0.001-0.03c6.667-27.994,13.333-55.986,20-83.98C944.551,393.287,945.217,392.619,945.884,391.952z"/>
	<path fill-rule="evenodd" clip-rule="evenodd" fill="#FFA235" d="M1809.768,25.996c8.261,43.077,16.49,86.159,24.788,129.229
		c9.555,49.597,19.195,99.176,28.697,148.782c0.619,3.233,0.366,6.634,0.52,9.956c-17.812-1.46-35.659-2.575-53.425-4.454
		c-34.206-3.614-68.366-7.662-102.545-11.529l-0.017-0.02c24.508-65.814,48.959-131.649,73.55-197.432
		C1790.646,75.622,1800.281,50.836,1809.768,25.996z"/>
	<path fill-rule="evenodd" clip-rule="evenodd" fill="#D0852B" d="M438.037,2482.055c-52.403-0.121-104.807-0.23-157.21-0.377
		c-8.951-0.025-17.901-0.213-26.851-0.324c-0.665-18.572-1.467-37.141-1.962-55.716c-0.787-29.552-1.365-59.106-2.036-88.66
		c-0.663-29.22-1.479-58.438-1.964-87.663c-0.795-47.854-1.376-95.711-2.048-143.568c0.002-0.674,0.005-1.348,0.007-2.021
		c157.301,1.996,314.603,3.991,471.904,5.988c0.007,0.667,0.014,1.334,0.02,2.001c-2.063,2.118-4.375,4.047-6.154,6.381
		c-22.154,29.105-44.313,58.207-66.315,87.427c-69.209,91.916-138.353,183.882-207.521,275.829L438.037,2482.055z"/>
	<path fill-rule="evenodd" clip-rule="evenodd" fill="#E08C2C" d="M717.878,2109.714c-157.302-1.997-314.604-3.992-471.904-5.988
		c-0.004-0.659-0.007-1.319-0.009-1.979c0.659-0.743,1.427-1.415,1.961-2.239c60.019-92.57,120.021-185.152,180.022-277.732
		c0.666-0.004,1.332-0.005,1.998-0.004c2.639,2.973,5.118,6.107,7.941,8.894c46.835,46.237,93.835,92.309,140.548,138.668
		c43.671,43.342,87.041,86.987,130.578,130.464c2.808,2.804,5.924,5.3,8.896,7.939c0,0.648,0,1.297,0.002,1.944L717.878,2109.714z"
		/>
	<path fill-rule="evenodd" clip-rule="evenodd" fill="#E79233" d="M427.948,1821.775c-60.002,92.58-120.003,185.162-180.022,277.732
		c-0.534,0.824-1.302,1.496-1.961,2.239c-0.666-0.001-1.331-0.005-1.996-0.011c-4.943-15.122-9.527-30.373-14.893-45.344
		c-19.497-54.396-39.209-108.715-58.928-163.03c-16.658-45.885-33.438-91.725-50.165-137.584c0-0.666,0-1.332,0.002-1.998
		l0.009-0.002c1.989,0.148,4.032,0.051,5.959,0.479c78.537,17.433,157.045,34.989,235.603,52.332
		c21.391,4.723,42.921,8.813,64.389,13.192C426.611,1820.446,427.28,1821.11,427.948,1821.775z"/>
	<path fill-rule="evenodd" clip-rule="evenodd" fill="#C68530" d="M245.966,2105.746c0.672,47.857,1.253,95.715,2.048,143.568
		c0.485,29.225,1.301,58.443,1.964,87.663c0.671,29.554,1.249,59.108,2.036,88.66c0.495,18.575,1.297,37.144,1.962,55.716
		c-56.03,0-112.06,0.002-168.091,0.002c20.88-49.578,41.718-99.174,62.652-148.729c23.133-54.761,46.252-109.529,69.592-164.202
		C227.104,2147.4,236.67,2126.631,245.966,2105.746z"/>
	<path fill-rule="evenodd" clip-rule="evenodd" fill="#DC8A29" d="M2327.708,249.973c20.836-6.831,41.782-13.34,62.48-20.562
		c40.83-14.246,81.512-28.917,122.272-43.359c106.921-37.885,213.849-75.752,320.783-113.601
		c19.443-6.882,38.928-13.649,58.394-20.468c0,0,0.013,0.025,0.013,0.024c0.658,1.329,1.317,2.657,1.977,3.986
		c0.159,4.648-0.044,9.344,0.535,13.94c3.726,29.58,7.692,59.13,11.441,88.708c3.626,28.597,7.054,57.22,10.625,85.825
		c3.774,30.241,7.579,60.479,11.438,90.709c3.609,28.264,7.384,56.507,10.943,84.777c3.103,24.647,6.007,49.321,8.999,73.983
		c-3.545-0.848-7.242-1.298-10.608-2.604c-37.518-14.558-74.977-29.263-112.466-43.896c-32.547-12.706-65.099-25.402-97.671-38.044
		c-62.655-24.319-125.349-48.538-187.982-72.912c-53.008-20.627-105.986-41.332-158.907-62.18
		c-18.201-7.17-36.191-14.877-54.277-22.339l-0.012-0.018C2326.359,251.288,2327.035,250.63,2327.708,249.973L2327.708,249.973z"/>
	<path fill-rule="evenodd" clip-rule="evenodd" fill="#FFAE41" d="M24.01,1421.834c-0.67-117.989-1.341-235.979-2.011-353.968
		c0.664-0.003,1.327-0.007,1.991-0.011c10.1-3.258,20.222-6.448,30.296-9.784c106.396-35.231,212.783-70.493,319.18-105.722
		c8.8-2.913,17.659-5.646,26.49-8.462c-1.781,2.791-3.343,5.754-5.376,8.347c-17.819,22.72-35.787,45.322-53.589,68.055
		c-42.355,54.087-84.571,108.285-126.982,162.328c-54.09,68.925-108.266,137.783-162.536,206.566
		C42.667,1400.342,33.181,1410.964,24.01,1421.834z"/>
	<path fill-rule="evenodd" clip-rule="evenodd" fill="#FFB644" d="M399.956,943.888c-8.831,2.816-17.69,5.549-26.49,8.462
		c-106.397,35.229-212.784,70.49-319.18,105.722c-10.074,3.336-20.197,6.526-30.296,9.784c8.212-11.179,16.163-22.563,24.682-33.503
		c32.241-41.407,64.674-82.662,97.021-123.987c34.799-44.459,69.574-88.938,104.411-133.368c0.993-1.267,2.564-2.078,3.866-3.103
		c14.188,15.288,28.542,30.427,42.52,45.905c13.989,15.491,27.545,31.372,41.396,46.989c20.231,22.812,40.512,45.578,60.911,68.239
		c1.868,2.074,4.742,3.242,7.149,4.831l0.006,0.023c-0.009,0.658-0.016,1.316-0.021,1.975c-0.655,0.013-1.312,0.03-1.967,0.05
		C402.626,942.567,401.291,943.228,399.956,943.888z"/>
	<path fill-rule="evenodd" clip-rule="evenodd" fill="#C38129" d="M3497.233,70c0.225,33.99,0.448,67.979,0.673,101.97
		c-0.22,0.68-0.438,1.36-0.657,2.041c-8.819,5.266-17.771,10.323-26.434,15.834c-46.863,29.815-93.624,59.792-140.479,89.619
		c-71.541,45.542-143.132,91.007-214.701,136.505c-0.664,0.001-1.326,0.003-1.99,0.004c-0.68-2.008-1.36-4.017-2.042-6.025
		c-0.664-0.668-1.328-1.336-1.992-2.004l0.011,0.005c-1.722-6.048-3.084-12.227-5.225-18.123
		c-11.449-31.535-23.085-63.002-34.668-94.488c-18.234-49.567-36.542-99.106-54.696-148.703
		c-13.241-36.177-26.284-72.425-39.416-108.643c0,0,0-0.033,0-0.034c0.655,0.01,1.312,0.016,1.968,0.017
		c42.055,2.62,84.108,5.303,126.17,7.836c25.184,1.517,50.39,2.639,75.568,4.228c27.143,1.713,54.259,3.859,81.398,5.63
		c14.91,0.973,29.848,1.527,44.77,2.333c25.523,1.378,51.057,2.633,76.566,4.253C3420.458,64.695,3458.842,67.405,3497.233,70z"/>
	<path fill-rule="evenodd" clip-rule="evenodd" fill="#FB9C38" d="M119.984,1753.78c-1.333-0.66-2.666-1.319-4-1.979
		c0.287-2.791,1.453-5.84,0.728-8.338c-10.474-36.069-21.249-72.05-31.858-108.08c-20.177-68.523-40.297-137.063-60.406-205.608
		c-0.368-1.253-0.312-2.633-0.454-3.954H24c44.56,14.736,89.12,29.471,133.679,44.209c85.344,28.229,170.686,56.465,256.031,84.688
		c35.401,11.706,70.81,23.389,106.214,35.082c0.003,0.663,0.005,1.326,0.005,1.989c-0.663,0.006-1.325,0.014-1.988,0.021
		c-5.284,1.974-10.622,3.81-15.842,5.938c-93.873,38.279-187.734,76.585-281.59,114.903
		c-33.516,13.683-67.011,27.416-100.516,41.125L119.984,1753.78z"/>
	<path fill-rule="evenodd" clip-rule="evenodd" fill="#E18924" d="M2325.697,251.962c18.086,7.462,36.076,15.169,54.277,22.339
		c52.921,20.848,105.899,41.552,158.907,62.18c62.634,24.374,125.327,48.592,187.982,72.912
		c32.572,12.642,65.124,25.338,97.671,38.044c37.489,14.633,74.948,29.338,112.466,43.896c3.366,1.306,7.063,1.756,10.608,2.604
		c0.01,0.658,0.014,1.317,0.011,1.977c-9.244,0.817-18.527,1.332-27.727,2.504c-39.767,5.068-79.507,10.341-119.259,15.514
		c-29.566,3.848-59.129,7.728-88.71,11.462c-28.602,3.611-57.232,6.991-85.836,10.589c-27.943,3.517-55.868,7.198-83.804,10.778
		c-29.248,3.748-58.519,7.319-87.743,11.243c-17.65,2.369-35.231,5.262-52.843,7.919c-0.667,0.002-1.333,0.004-2,0.006
		c-0.008-0.667-0.015-1.334-0.021-2.001c-23.611-95.854-47.242-191.704-70.798-287.571c-1.978-8.05-3.452-16.225-5.16-24.341
		C2324.379,251.986,2325.038,251.968,2325.697,251.962z"/>
	<path fill-rule="evenodd" clip-rule="evenodd" fill="#E38F30" d="M2327.708,249.973c-0.673,0.657-1.349,1.315-2.022,1.972
		c0.008-0.66,0.016-1.32,0.023-1.98C2326.375,249.968,2327.041,249.97,2327.708,249.973z"/>
	<path fill-rule="evenodd" clip-rule="evenodd" fill="#FFA439" d="M519.924,1589.801c-35.405-11.693-70.813-23.376-106.214-35.082
		c-85.346-28.224-170.688-56.459-256.031-84.688C113.12,1455.292,68.56,1440.558,24,1425.821c-0.006-0.667-0.012-1.333-0.018-2
		c0.013-0.663,0.021-1.325,0.027-1.987c9.171-10.87,18.658-21.492,27.463-32.65c54.27-68.783,108.446-137.642,162.536-206.566
		c42.411-54.043,84.627-108.241,126.982-162.328c17.803-22.732,35.77-45.335,53.589-68.055c2.034-2.593,3.595-5.556,5.376-8.347
		c1.334-0.66,2.67-1.32,4.005-1.98c0.658,2.22,1.542,4.4,1.94,6.667c4.882,27.787,9.571,55.607,14.547,83.377
		c10.309,57.523,20.908,114.996,31.118,172.536c18.217,102.654,36.187,205.351,54.368,308.011
		c4.453,25.142,9.324,50.207,14.003,75.309c0.001,0.664,0.001,1.329,0.003,1.994H519.924z"/>
	<path fill-rule="evenodd" clip-rule="evenodd" fill="#D0852A" d="M2975.616,37.991c13.132,36.217,26.175,72.466,39.416,108.643
		c18.154,49.597,36.462,99.136,54.696,148.703c11.583,31.486,23.219,62.953,34.668,94.488c2.141,5.896,3.503,12.075,5.225,18.123
		c-18.648-30.304-37.425-60.531-55.924-90.926c-42.726-70.202-85.245-140.53-128.016-210.704
		c-10.35-16.98-21.353-33.562-32.055-50.325c-0.659-1.329-1.318-2.657-1.977-3.986C2919.639,47.336,2947.628,42.664,2975.616,37.991
		z"/>
	<path fill-rule="evenodd" clip-rule="evenodd" fill="#9A4001" d="M3491.563,2481.354c-64.681,0.004-129.362,0.008-194.042,0.01
		c-2.8-3.71-5.389-7.604-8.434-11.101c-19.176-22.037-38.557-43.896-57.673-65.987c-28.013-32.37-55.833-64.908-83.856-97.271
		c-1.389-1.604-3.927-2.212-5.931-3.282l-0.032-0.014c0.004-0.662,0.009-1.324,0.015-1.986
		c47.586-24.462,95.136-48.999,142.769-73.369c65.691-33.609,131.446-67.093,197.174-100.632c0,0.001,0.044,0.045,0.044,0.045
		c0.645,9.591,1.619,19.171,1.878,28.771c1.458,54.134,2.725,108.272,4.096,162.407c0.605,23.908,1.362,47.811,1.946,71.718
		C3490.254,2420.892,3490.887,2451.125,3491.563,2481.354z"/>
	<path fill-rule="evenodd" clip-rule="evenodd" fill="#9D4301" d="M3153.624,2481.346c-56.415,0.113-112.832,0.215-169.248,0.352
		c-10.282,0.025-20.565,0.205-30.848,0.313l0.283-0.648c0.575-0.811,1.033-1.746,1.743-2.414
		c31.407-29.499,62.979-58.824,94.216-88.505c23.332-22.169,46.145-44.884,69.38-67.157c7.158-6.862,14.945-13.068,22.444-19.576
		c0.001,0,0.033,0.014,0.033,0.014c-0.008,0.661-0.014,1.324-0.018,1.986c0.663,2.668,1.326,5.334,1.989,8.001
		c0.719,16.562,1.176,33.14,2.21,49.682C3148.27,2402.719,3151.003,2442.028,3153.624,2481.346z"/>
	<path fill-rule="evenodd" clip-rule="evenodd" fill="#933D01" d="M3153.624,2481.346c-2.621-39.317-5.354-78.627-7.814-117.954
		c-1.034-16.542-1.491-33.12-2.21-49.682c-0.663-2.667-1.326-5.333-1.989-8.001c0.004-0.662,0.01-1.325,0.018-1.986
		c2.004,1.07,4.542,1.678,5.931,3.282c28.023,32.362,55.844,64.9,83.856,97.271c19.116,22.091,38.497,43.95,57.673,65.987
		c3.045,3.497,5.634,7.391,8.434,11.101C3249.556,2481.357,3201.59,2481.352,3153.624,2481.346z"/>
	<path fill-rule="evenodd" clip-rule="evenodd" fill="#8D3B01" d="M3491.563,2481.354c-0.677-30.229-1.31-60.462-2.047-90.69
		c-0.584-23.907-1.341-47.81-1.946-71.718c-1.371-54.135-2.638-108.273-4.096-162.407c-0.259-9.601-1.233-19.181-1.878-28.771
		c5.204-0.008,10.409-0.015,15.613-0.021c0.117,21.978,0.341,43.955,0.333,65.933c-0.033,95.926-0.135,191.854-0.211,287.779
		C3495.41,2481.424,3493.486,2481.389,3491.563,2481.354z"/>
	<path fill-rule="evenodd" clip-rule="evenodd" fill="#BA5A05" d="M2297.81,2482.039c-24.261-0.115-48.521-0.346-72.782-0.33
		c-86.426,0.059-172.853,0.203-259.278,0.314c-0.687-0.223-1.372-0.445-2.058-0.666c-2.176-2.009-4.211-4.197-6.546-6
		c-34.437-26.582-68.911-53.114-103.378-79.658c1.828-0.683,3.603-1.641,5.491-2.01c33.252-6.498,66.525-12.891,99.78-19.374
		c65.874-12.844,131.736-25.746,197.609-38.595c94.888-18.508,189.767-37.067,284.682-55.434
		c26.725-5.17,53.566-9.737,80.354-14.582c-12.357,12.034-24.67,24.114-37.083,36.093c-36.841,35.55-73.721,71.06-110.585,106.584
		c-1.917,1.848-3.824,3.704-5.75,5.544c-23.537,22.479-47.076,44.953-70.615,67.43L2297.81,2482.039z"/>
	<path fill-rule="evenodd" clip-rule="evenodd" fill="#B6640A" d="M1813.846,2481.354c-58.154,0.111-116.311,0.301-174.465,0.311
		c-47.851,0.008-95.704-0.201-143.556-0.313c-1.341-11.224-2.681-22.447-4.022-33.669c0.006-0.659,0.012-1.318,0.017-1.979
		c4.644-0.157,9.352,0.121,13.923-0.538c57.994-8.353,115.951-16.955,173.952-25.262c57.342-8.213,114.722-16.162,172.084-24.227
		l-0.005,0.055C1839.131,2424.272,1826.488,2452.813,1813.846,2481.354z"/>
	<path fill-rule="evenodd" clip-rule="evenodd" fill="#B05D08" d="M1813.846,2481.354c12.643-28.541,25.285-57.081,37.928-85.621
		c0.664-0.021,1.329-0.033,1.994-0.033c34.467,26.544,68.941,53.076,103.378,79.658c2.335,1.803,4.37,3.991,6.546,6
		C1913.742,2481.355,1863.794,2481.354,1813.846,2481.354z"/>
	<path fill-rule="evenodd" clip-rule="evenodd" fill="#B76B0F" d="M1475.81,2482.021c-49.63-0.111-99.261-0.213-148.892-0.346
		c-5.658-0.016-11.315-0.213-16.973-0.324c1.297-1.225,2.593-2.449,3.89-3.673c0.663-0.001,1.326-0.007,1.989-0.019
		c29.307-5.166,58.598-10.422,87.925-15.473c28.673-4.938,57.382-9.665,86.075-14.483c-4.003,11.22-8.007,22.439-12.01,33.659
		C1477.146,2481.582,1476.478,2481.801,1475.81,2482.021z"/>
	<path fill-rule="evenodd" clip-rule="evenodd" fill="#AC670E" d="M1477.814,2481.363c4.003-11.22,8.007-22.439,12.01-33.659
		c0.659-0.007,1.319-0.015,1.978-0.021c1.341,11.222,2.681,22.445,4.022,33.669
		C1489.821,2481.355,1483.817,2481.359,1477.814,2481.363z"/>
	<path fill-rule="evenodd" clip-rule="evenodd" fill="#B77821" d="M3115.635,415.968c71.569-45.498,143.16-90.963,214.701-136.505
		c46.855-29.827,93.616-59.804,140.479-89.619c8.663-5.511,17.614-10.568,26.434-15.834c0.104,21.272,0.292,42.543,0.298,63.815
		c0.031,104.389,0.019,208.78,0.001,313.168c-0.001,4.317-0.209,8.633-0.32,12.949c-3.837-1.01-7.815-1.658-11.49-3.085
		c-95.046-36.915-190.083-73.854-285.065-110.932C3172.24,438.827,3143.977,427.3,3115.635,415.968z"/>
	<path fill-rule="evenodd" clip-rule="evenodd" fill="#BF781A" d="M3115.635,415.969c28.342,11.331,56.605,22.858,85.037,33.957
		c94.982,37.078,190.02,74.017,285.065,110.932c3.675,1.428,7.653,2.075,11.49,3.085c0.223,25.323,0.444,50.645,0.666,75.968
		c-0.219,0.677-0.438,1.352-0.658,2.029c-163.856,0.665-327.712,1.331-491.569,1.996c-0.014-0.672-0.027-1.343-0.041-2.014
		c5.916-11.83,11.943-23.605,17.729-35.499c21.92-45.062,43.852-90.118,65.59-135.268c8.479-17.613,16.455-35.468,24.662-53.213
		c0.012-0.657,0.025-1.313,0.039-1.971C3114.309,415.971,3114.971,415.969,3115.635,415.969z"/>
	<path fill-rule="evenodd" clip-rule="evenodd" fill="#C07E24" d="M437.908,2481.352c69.168-91.947,138.312-183.913,207.521-275.829
		c22.001-29.22,44.161-58.321,66.315-87.427c1.778-2.334,4.09-4.263,6.154-6.381c0.689,1.123,1.595,2.167,2.037,3.379
		c22.061,60.682,44.068,121.381,66.111,182.067c15.565,42.855,31.284,85.654,46.714,128.559c6.63,18.437,12.701,37.074,19.026,55.62
		l0.206,0.686c-4.318-0.113-8.636-0.322-12.954-0.322c-129.391-0.018-258.783-0.012-388.174-0.029
		C446.544,2481.674,442.226,2481.463,437.908,2481.352z"/>
	<path fill-rule="evenodd" clip-rule="evenodd" fill="#B45504" d="M3497.899,1769.775c-0.222,0.673-0.443,1.345-0.664,2.018
		c-3.665,1.549-7.464,2.842-10.975,4.685c-50.686,26.596-101.299,53.326-151.997,79.897
		c-46.282,24.257-92.611,48.429-138.983,72.512c-56.719,29.458-113.528,58.739-170.231,88.225
		c-7.347,3.82-14.298,8.398-21.434,12.625c-1.322,0.01-2.646,0.018-3.97,0.027c7.198-30.053,14.454-60.091,21.583-90.159
		c18.409-77.645,36.713-155.314,55.15-232.953c26.352-110.959,52.785-221.897,79.185-332.846c0.027-0.659,0.052-1.318,0.074-1.978
		c0.654,0.007,1.309,0.012,1.963,0.017c0.668,0.661,1.336,1.322,2.003,1.983c1.129,1.194,2.063,2.702,3.413,3.534
		c26.886,16.563,53.835,33.018,80.737,49.551c58.336,35.853,116.608,71.811,174.996,107.578
		c26.047,15.955,52.311,31.556,78.476,47.317c0.112,53.377,0.211,106.755,0.35,160.133
		C3497.599,1751.22,3497.787,1760.497,3497.899,1769.775z"/>
	<path fill-rule="evenodd" clip-rule="evenodd" fill="#B25E08" d="M3159.604,1373.828c-0.667-0.661-1.335-1.322-2.003-1.983
		c3.423-2.049,6.788-4.2,10.276-6.13c32.891-18.193,65.847-36.271,98.697-54.534c51.16-28.445,102.282-56.959,153.363-85.544
		c25.825-14.452,51.525-29.126,77.282-43.7c0.114,56.972,0.215,113.945,0.354,170.917c0.025,10.323,0.21,20.647,0.322,30.971
		c-0.221,0.67-0.44,1.34-0.661,2.011c-4.928-0.663-9.841-1.734-14.786-1.926c-37.512-1.453-75.03-2.722-112.545-4.072
		c-36.519-1.315-73.028-2.873-109.553-3.927C3226.777,1374.941,3193.187,1374.501,3159.604,1373.828z"/>
	<path fill-rule="evenodd" clip-rule="evenodd" fill="#AE5806" d="M3159.604,1373.828c33.583,0.673,67.174,1.113,100.748,2.082
		c36.524,1.054,73.034,2.611,109.553,3.927c37.515,1.351,75.033,2.619,112.545,4.072c4.945,0.191,9.858,1.263,14.786,1.926
		c-0.003,65.325-0.007,130.648-0.01,195.973c-26.165-15.761-52.429-31.361-78.476-47.316
		c-58.388-35.768-116.66-71.726-174.996-107.578c-26.902-16.533-53.852-32.988-80.737-49.551
		C3161.666,1376.53,3160.732,1375.022,3159.604,1373.828z"/>
	<path fill-rule="evenodd" clip-rule="evenodd" fill="#BF7516" d="M1313.835,2477.679c-1.297,1.224-2.593,2.448-3.89,3.673
		c-0.705,0.223-1.411,0.447-2.116,0.672c-21.606-0.111-43.212-0.311-64.819-0.318c-94.762-0.035-189.523-0.02-284.285-0.002
		c-4.317,0-8.634,0.197-12.952,0.303l0.227-0.625c1.349-29.176,2.658-58.353,4.064-87.525c0.543-11.266,1.255-22.521,1.975-33.777
		c1.924-30.115,3.894-60.228,5.847-90.341l0.992-0.011l0.994,0.001c4.745,3.032,9.391,6.238,14.253,9.071
		c50.811,29.612,101.658,59.162,152.494,88.731c43.081,25.059,86.215,50.027,129.215,75.222
		C1275.305,2454.161,1294.51,2466.023,1313.835,2477.679z"/>
	<path fill-rule="evenodd" clip-rule="evenodd" fill="#9C4802" d="M3497.235,2091.82c0.219,9.969,0.438,19.937,0.657,29.904
		c-0.224,0.674-0.446,1.346-0.669,2.02c-4.557,0.66-9.114,1.318-13.671,1.979C3488.113,2114.423,3492.675,2103.121,3497.235,2091.82
		z"/>
	<path fill-rule="evenodd" clip-rule="evenodd" fill="#9A4001" d="M3483.553,2125.723c4.557-0.66,9.114-1.318,13.671-1.979
		c-0.005,1.333-0.01,2.667-0.014,4.001c-5.204,0.007-10.409,0.014-15.613,0.021l-0.044-0.044c0.007-0.663,0.015-1.326,0.021-1.989
		C3482.233,2125.733,3482.894,2125.729,3483.553,2125.723z"/>
	<path fill-rule="evenodd" clip-rule="evenodd" fill="#A74D02" d="M3483.553,2125.723c-0.659,0.007-1.319,0.011-1.979,0.011
		c-0.665-0.042-1.346-0.007-1.992-0.136c-137.935-27.416-275.875-54.795-413.787-82.324c-20.798-4.152-41.455-9.007-62.18-13.537
		c7.136-4.227,14.087-8.805,21.434-12.625c56.703-29.485,113.513-58.767,170.231-88.225c46.372-24.083,92.701-48.255,138.983-72.512
		c50.698-26.571,101.312-53.302,151.997-79.897c3.511-1.843,7.31-3.136,10.975-4.685c0.108,60.815,0.289,121.632,0.303,182.448
		c0.01,45.86-0.194,91.72-0.303,137.579C3492.675,2103.121,3488.113,2114.423,3483.553,2125.723z"/>
	<path fill-rule="evenodd" clip-rule="evenodd" fill="#AB4801" d="M3141.595,2303.709c-7.499,6.508-15.286,12.714-22.444,19.576
		c-23.235,22.273-46.048,44.988-69.38,67.157c-31.236,29.681-62.809,59.006-94.216,88.505c-0.71,0.668-1.168,1.604-1.743,2.414
		c-28.723-0.002-57.445-0.004-86.168-0.006c-0.378-1.269-0.595-2.614-1.155-3.797c-25.287-53.346-50.705-106.63-75.871-160.032
		c-10.591-22.474-20.658-45.19-30.963-67.798c10.836,1.324,21.681,2.581,32.506,3.985c31.842,4.128,63.688,8.224,95.508,12.502
		c32.801,4.412,65.575,9.023,98.362,13.548c32.456,4.479,64.89,9.133,97.376,13.374c19.356,2.526,38.797,4.404,58.2,6.574
		c0.001,0.67,0.002,1.341,0.004,2.011C3141.604,2302.385,3141.6,2303.047,3141.595,2303.709z"/>
	<path fill-rule="evenodd" clip-rule="evenodd" fill="#AB4B02" d="M2759.654,2249.729c10.305,22.607,20.372,45.324,30.963,67.798
		c25.166,53.402,50.584,106.687,75.871,160.032c0.561,1.183,0.777,2.528,1.155,3.797c-57.798,0.111-115.596,0.205-173.394,0.34
		c-28.896,0.068-57.792,0.211-86.688,0.32l0.293-0.652c8.98-13.971,17.88-27.996,26.958-41.904
		c31.406-48.118,62.939-96.152,94.28-144.313c9.756-14.99,19.053-30.277,28.561-45.429c0.666-0.008,1.332-0.015,1.998-0.021
		L2759.654,2249.729z"/>
	<path fill-rule="evenodd" clip-rule="evenodd" fill="#BB7212" d="M3005.667,643.936c163.856-0.665,327.712-1.331,491.568-1.996
		c0.109,55.019,0.21,110.036,0.34,165.055c0.012,4.966,0.213,9.932,0.326,14.897c-0.221,0.697-0.441,1.394-0.661,2.09
		c-17.66,16.074-35.537,31.917-52.93,48.274c-28.782,27.068-57.16,54.564-85.897,81.682c-12.777,12.058-26.222,23.411-38.987,35.482
		c-16.146,15.266-31.908,30.937-47.836,46.433c-0.655,0.006-1.311,0.012-1.967,0.017c-0.67-0.671-1.341-1.342-2.011-2.012
		c-13.151-20.347-25.981-40.911-39.516-61c-34.561-51.295-69.507-102.329-104.164-153.559
		c-39.51-58.404-78.872-116.908-118.299-175.369L3005.667,643.936z"/>
	<path fill-rule="evenodd" clip-rule="evenodd" fill="#B2690E" d="M3271.59,1035.854c15.928-15.496,31.689-31.167,47.836-46.433
		c12.766-12.071,26.21-23.424,38.987-35.482c28.737-27.118,57.115-54.614,85.897-81.682c17.393-16.357,35.27-32.2,52.93-48.274
		c0.106,63.466,0.199,126.932,0.326,190.397c0.086,43.194,0.22,86.389,0.333,129.583l-0.677-0.292
		c-9.93-4.63-19.9-9.172-29.78-13.905C3402.146,1098.484,3336.872,1067.162,3271.59,1035.854z"/>
	<path fill-rule="evenodd" clip-rule="evenodd" fill="#B25102" d="M2757.654,2249.718c-9.508,15.151-18.805,30.438-28.561,45.429
		c-31.341,48.16-62.874,96.194-94.28,144.313c-9.078,13.908-17.978,27.934-26.958,41.904c-26.058-0.002-52.115-0.004-78.172-0.004
		c-0.305-8.188-0.713-16.375-0.898-24.566c-1.063-46.963-1.992-93.93-3.145-140.891c-0.411-16.739-1.32-33.466-2.001-50.197
		c0.015-0.663,0.029-1.326,0.044-1.988c0.663-0.002,1.326-0.008,1.989-0.021c8.576-0.654,17.144-1.47,25.729-1.931
		c26.787-1.439,53.584-2.698,80.371-4.122c11.571-0.615,23.133-1.412,34.693-2.215c27.064-1.878,54.126-3.81,81.189-5.72
		C2750.988,2249.711,2754.322,2249.714,2757.654,2249.718z"/>
	<path fill-rule="evenodd" clip-rule="evenodd" fill="#B15303" d="M2523.64,2265.705c0.681,16.731,1.59,33.458,2.001,50.197
		c1.152,46.961,2.082,93.928,3.145,140.891c0.186,8.191,0.594,16.378,0.898,24.566c-77.345-0.002-154.689-0.002-232.033-0.004
		c23.539-22.477,47.078-44.951,70.615-67.43c1.926-1.84,3.833-3.696,5.75-5.544c36.864-35.524,73.744-71.034,110.585-106.584
		c12.413-11.979,24.726-24.059,37.083-36.093l0.979-0.003L2523.64,2265.705z"/>
	<path fill-rule="evenodd" clip-rule="evenodd" fill="#BA640A" d="M3271.59,1035.854c65.282,31.309,130.557,62.631,195.853,93.912
		c9.88,4.733,19.851,9.275,29.78,13.905c-0.001,12.755-0.002,25.511-0.003,38.266c-25.757,14.573-51.457,29.248-77.282,43.7
		c-51.081,28.585-102.203,57.099-153.363,85.544c-32.851,18.264-65.807,36.341-98.697,54.534c-3.488,1.93-6.854,4.081-10.276,6.13
		c-0.654-0.005-1.309-0.01-1.963-0.017c-0.001,0-0.055,0-0.055,0c15.32-44.27,30.73-88.509,45.938-132.817
		c18.876-55.003,37.651-110.041,56.31-165.118c4.256-12.558,7.857-25.337,11.76-38.015l0.033-0.008
		C3270.279,1035.865,3270.935,1035.859,3271.59,1035.854z"/>
	<path fill-rule="evenodd" clip-rule="evenodd" fill="#CA7C1D" d="M957.886,2269.737c-1.953,30.113-3.922,60.226-5.847,90.341
		c-0.72,11.256-1.432,22.512-1.975,33.777c-1.406,29.173-2.715,58.35-4.064,87.525c-31.405-0.014-62.811-0.027-94.216-0.041
		c-6.325-18.546-12.396-37.184-19.026-55.62c-15.43-42.904-31.148-85.703-46.714-128.559
		c-22.043-60.687-44.05-121.386-66.111-182.067c-0.441-1.212-1.347-2.256-2.037-3.379c-0.006-0.667-0.013-1.334-0.02-2.001
		l0.034-0.033c3.265,1.547,6.776,2.725,9.753,4.704c11.328,7.534,22.417,15.425,33.714,23.008
		c60.092,40.34,120.204,80.652,180.363,120.893c5.169,3.458,10.739,6.316,16.122,9.451
		C957.872,2268.403,957.878,2269.07,957.886,2269.737z"/>
	<path fill-rule="evenodd" clip-rule="evenodd" fill="#FFB038" d="M405.928,941.857c0.006-0.659,0.013-1.317,0.021-1.975
		c19.902-17.568,39.83-35.106,59.699-52.711c28.813-25.53,57.639-51.046,86.351-76.689c21.543-19.24,42.836-38.76,64.386-57.994
		c28.472-25.413,57.107-50.643,85.63-76c13.895-12.352,27.67-24.838,41.539-37.221c30.451-27.189,60.987-54.285,91.374-81.546
		c21.995-19.733,43.771-39.709,65.717-59.497c7.637-6.886,15.487-13.533,23.24-20.29l-0.001,0.03
		c-13.82,56.481-27.467,113.006-41.495,169.437c-27.104,109.027-54.482,217.986-81.606,327.008
		c-6.573,26.418-12.6,52.973-18.878,79.466c-1.334,3.993-2.669,7.987-4.004,11.981c-0.661,0.007-1.322,0.017-1.983,0.027
		c-3.75-1.363-7.471-2.812-11.253-4.075c-70.676-23.607-141.367-47.17-212.038-70.791
		C503.713,974.669,454.826,958.246,405.928,941.857z"/>
	<path fill-rule="evenodd" clip-rule="evenodd" fill="#FF9D27" d="M1557.794,691.907c0.007-0.664,0.011-1.329,0.011-1.994
		c6.732-16.556,13.762-32.997,20.146-49.686c24.923-65.152,49.652-130.378,74.433-195.584
		c17.819-46.887,35.606-93.784,53.408-140.677c1.195,2.711,2.992,5.316,3.498,8.151c8.227,46.101,16.296,92.229,24.39,138.352
		c10.389,59.208,20.819,118.407,31.125,177.628c3.813,21.907,7.328,43.868,10.979,65.804c-72.649-0.655-145.297-1.31-217.945-1.965
		L1557.794,691.907z"/>
	<path fill-rule="evenodd" clip-rule="evenodd" fill="#FF9D2C" d="M1775.783,693.902c-3.65-21.937-7.165-43.897-10.979-65.804
		c-10.307-59.221-20.736-118.421-31.125-177.628c-8.094-46.123-16.163-92.251-24.39-138.352c-0.505-2.835-2.302-5.44-3.498-8.151
		c0.67-1.996,1.34-3.992,2.011-5.987c34.179,3.867,68.339,7.915,102.545,11.529c17.766,1.879,35.613,2.994,53.425,4.454
		c0.664,0.667,1.329,1.333,1.994,1.999c-8.323,35.962-16.665,71.92-24.964,107.888c-11.813,51.199-23.493,102.429-35.419,153.601
		c-9.052,38.852-18.396,77.636-27.612,116.449C1777.109,693.905,1776.445,693.905,1775.783,693.902z"/>
	<path fill-rule="evenodd" clip-rule="evenodd" fill="#FFA126" d="M1553.805,691.898c1.329,0.003,2.659,0.006,3.989,0.009
		c0,0,0.044,0.03,0.043,0.03c-1.331,42.166-2.689,84.332-3.982,126.498c-0.733,23.912-1.519,47.824-2,71.742
		c-0.802,39.896-1.378,79.796-2.049,119.696c-0.003,0.666-0.004,1.333-0.001,1.999c-0.666,0.001-1.333,0.001-1.999,0.001
		c-2.976-2.643-6.097-5.143-8.909-7.952c-54.169-54.111-108.303-108.26-162.443-162.4
		c-107.843-107.843-215.673-215.698-323.592-323.466c-3.185-3.181-7.3-5.431-10.981-8.115c-0.002-0.666-0.004-1.331-0.005-1.997
		l-0.012-0.017c20.429,6.937,40.955,13.601,61.266,20.865c46.642,16.683,93.178,33.66,139.758,50.515
		c77.216,27.938,154.404,55.958,231.667,83.766c25.647,9.231,51.489,17.916,77.244,26.85
		C1552.467,690.581,1553.136,691.24,1553.805,691.898z"/>
	<path fill-rule="evenodd" clip-rule="evenodd" fill="#FFB036" d="M781.904,1053.874c6.279-26.493,12.305-53.047,18.878-79.466
		c27.124-109.021,54.503-217.98,81.606-327.008c14.027-56.431,27.675-112.956,41.495-169.437
		c36.387,8.905,72.769,17.83,109.17,26.679c2.872,0.698,5.872,0.871,8.811,1.288c0.001,0.665,0.001,1.33,0,1.995l0.012,0.017
		c-8.345,17.346-16.775,34.654-25.018,52.048c-23.084,48.714-46.016,97.498-69.145,146.19
		c-33.412,70.339-67.009,140.59-100.392,210.943c-13.834,29.154-27.166,58.547-41.013,87.695
		C798.472,1021.313,790.058,1037.531,781.904,1053.874z"/>
	<path fill-rule="evenodd" clip-rule="evenodd" fill="#FFA731" d="M1553.805,691.898c-0.669-0.659-1.338-1.318-2.007-1.977
		C1552.467,690.581,1553.136,691.24,1553.805,691.898z"/>
	<path fill-rule="evenodd" clip-rule="evenodd" fill="#F59425" d="M1777.771,693.899c9.216-38.813,18.561-77.598,27.612-116.449
		c11.926-51.172,23.606-102.402,35.419-153.601c8.299-35.967,16.641-71.925,24.964-107.888c0.667,0.001,1.336,0.002,2.004,0.002
		c21.245,10.264,42.405,20.708,63.756,30.745c24.096,11.327,48.433,22.143,72.545,33.435
		c76.861,35.997,153.654,72.141,230.5,108.169c39.767,18.645,79.541,37.274,119.415,55.689
		c15.082,6.964,30.452,13.302,45.691,19.926c0.007,0.667,0.014,1.334,0.021,2.001l-0.012-0.006
		c-77.071,16.009-154.128,32.088-231.219,48.005c-60.164,12.422-120.388,24.551-180.551,36.98
		c-53.021,10.953-106.018,22.031-158.975,33.291c-16.479,3.505-32.793,7.782-49.183,11.706c-0.661,0-1.322,0-1.983-0.001
		C1777.775,695.235,1777.773,694.567,1777.771,693.899z"/>
	<path fill-rule="evenodd" clip-rule="evenodd" fill="#DB821B" d="M957.864,2267.737c-5.383-3.136-10.953-5.994-16.122-9.452
		c-60.159-40.24-120.271-80.553-180.363-120.893c-11.296-7.583-22.386-15.474-33.714-23.008c-2.977-1.979-6.488-3.157-9.753-4.704
		c-0.002-0.647-0.002-1.296-0.002-1.944l0.016-0.021c0.658,0.002,1.317-0.006,1.976-0.023
		c52.475-35.866,104.94-71.748,157.429-107.597c82.171-56.12,164.373-112.198,246.532-168.338
		c35.719-24.406,71.276-49.051,107.073-73.343c26.158-17.75,52.587-35.102,78.895-52.631c-1.32,2.646-2.429,5.426-3.993,7.92
		c-29.148,46.475-58.403,92.882-87.527,139.372c-44.126,70.437-88.176,140.922-132.243,211.396
		c-26.087,41.721-52.044,83.521-78.255,125.164C991.351,2215.787,974.526,2241.71,957.864,2267.737z"/>
	<path fill-rule="evenodd" clip-rule="evenodd" fill="#E58E2C" d="M717.91,2107.736c-2.973-2.64-6.088-5.136-8.896-7.939
		c-43.538-43.477-86.907-87.122-130.578-130.464c-46.713-46.359-93.713-92.431-140.548-138.668
		c-2.823-2.786-5.302-5.921-7.941-8.894c2.656-1.977,5.119-4.306,7.997-5.875c46.629-25.425,93.312-50.754,139.981-76.104
		c2.807,7.451,5.59,14.912,8.425,22.353c25.909,67.995,51.84,135.981,77.736,203.982c17.969,47.187,35.895,94.39,53.84,141.587
		L717.91,2107.736z"/>
	<path fill-rule="evenodd" clip-rule="evenodd" fill="#EF932E" d="M577.925,1739.793c-46.67,25.35-93.353,50.679-139.981,76.104
		c-2.878,1.569-5.341,3.898-7.997,5.875c-0.666-0.001-1.332,0-1.998,0.004c-0.668-0.665-1.337-1.329-2.004-1.994
		c1.989-2.959,4.574-5.679,5.878-8.913c21.026-52.143,42.024-104.296,62.722-156.567c8.187-20.677,15.62-41.651,23.397-62.489
		c0.663-0.008,1.325-0.016,1.988-0.021c9.051,22.809,18.095,45.62,27.157,68.424c10.276,25.863,20.567,51.72,30.853,77.579
		C577.934,1738.46,577.93,1739.126,577.925,1739.793z"/>
	<path fill-rule="evenodd" clip-rule="evenodd" fill="#F29633" d="M517.941,1591.812c-7.777,20.838-15.211,41.813-23.397,62.489
		c-20.698,52.271-41.696,104.425-62.722,156.567c-1.304,3.234-3.889,5.954-5.878,8.913c-21.467-4.38-42.998-8.47-64.389-13.192
		c-78.557-17.343-157.066-34.899-235.603-52.332c-1.927-0.428-3.97-0.33-5.959-0.479c33.505-13.709,67-27.442,100.516-41.125
		c93.856-38.318,187.717-76.624,281.59-114.903C507.319,1595.621,512.657,1593.785,517.941,1591.812z"/>
	<path fill-rule="evenodd" clip-rule="evenodd" fill="#D08325" d="M3113.645,415.972c-0.014,0.657-0.027,1.313-0.039,1.971
		c-16.913,7.794-33.854,15.528-50.733,23.396c-21.423,9.985-42.866,19.927-64.167,30.17c-16.466,7.918-32.725,16.27-49.074,24.429
		c-0.664-0.001-1.326-0.001-1.989,0.001l-0.021-0.024c0.003-0.659-0.001-1.318-0.011-1.977c-2.992-24.662-5.896-49.335-8.999-73.983
		c-3.56-28.271-7.334-56.513-10.943-84.777c-3.859-30.23-7.664-60.469-11.438-90.709c-3.571-28.605-6.999-57.228-10.625-85.825
		c-3.749-29.578-7.716-59.128-11.441-88.708c-0.579-4.596-0.376-9.292-0.535-13.94c10.702,16.763,21.705,33.344,32.055,50.325
		c42.771,70.174,85.29,140.502,128.016,210.704c18.499,30.395,37.275,60.623,55.924,90.926l-0.011-0.005
		c0.664,0.668,1.328,1.336,1.992,2.004C3112.284,411.955,3112.965,413.964,3113.645,415.972z"/>
	<path fill-rule="evenodd" clip-rule="evenodd" fill="#FFA535" d="M405.928,941.857c48.898,16.389,97.786,32.812,146.697,49.159
		c70.671,23.621,141.362,47.184,212.038,70.791c3.783,1.263,7.504,2.712,11.253,4.075c-4.371,10.054-8.359,20.294-13.171,30.132
		c-36.292,74.202-72.68,148.357-109.172,222.461c-30.021,60.966-60.229,121.838-90.327,182.766c-1.324,2.68-2.209,5.577-3.558,8.242
		c-13.219,26.123-26.493,52.219-39.75,78.322c-4.679-25.102-9.551-50.167-14.003-75.309
		c-18.181-102.66-36.151-205.357-54.368-308.011c-10.21-57.541-20.81-115.013-31.118-172.536
		c-4.976-27.77-9.665-55.59-14.547-83.377c-0.398-2.267-1.282-4.447-1.94-6.667C404.616,941.888,405.272,941.87,405.928,941.857z"/>
	<path fill-rule="evenodd" clip-rule="evenodd" fill="#D0852A" d="M3111.603,409.947c-0.664-0.668-1.328-1.336-1.992-2.004
		C3110.274,408.611,3110.938,409.279,3111.603,409.947z"/>
	<path fill-rule="evenodd" clip-rule="evenodd" fill="#F5952C" d="M577.938,1737.793c-10.285-25.859-20.577-51.716-30.853-77.579
		c-9.062-22.804-18.105-45.615-27.157-68.424c0-0.663-0.002-1.326-0.005-1.989h0.017c1.916-0.542,3.877-0.961,5.741-1.645
		c45.563-16.709,91.139-33.379,136.661-50.196c46.144-17.048,92.198-34.337,138.355-51.347
		c33.676-12.41,67.454-24.541,101.186-36.795c0,0.667,0,1.333,0,2c-7.074,6.021-14.259,11.916-21.205,18.082
		c-30.056,26.683-60.051,53.432-90.049,80.18c-13.391,11.94-26.687,23.986-40.109,35.893
		c-28.324,25.124-56.768,50.114-85.037,75.302c-21.086,18.786-41.873,37.911-63.006,56.646
		C594.609,1724.896,586.136,1731.189,577.938,1737.793z"/>
	<path fill-rule="evenodd" clip-rule="evenodd" fill="#E98314" d="M2399.699,565.929c0.667-0.002,1.333-0.004,2-0.006
		c0,0.668,0,1.337,0,2.005c0.783,4.571,1.269,9.217,2.395,13.702c35.541,141.582,71.197,283.135,106.691,424.73
		c6.622,26.421,12.621,52.998,18.908,79.503c-31.854-4.292-63.725-8.444-95.554-12.913c-34.794-4.885-69.548-10.05-104.316-15.118
		c-38.705-5.641-77.404-11.322-116.109-16.963c-34.441-5.02-68.896-9.938-103.327-15.033c-26.229-3.88-52.425-7.966-78.636-11.96
		c8.224-10.001,16.455-19.996,24.67-30.003c33.072-40.29,66.093-80.622,99.224-120.864c26.38-32.042,52.961-63.918,79.328-95.971
		c26.155-31.793,52.143-63.723,78.226-95.576c28.817-35.19,57.659-70.36,86.489-105.539L2399.699,565.929z"/>
	<path fill-rule="evenodd" clip-rule="evenodd" fill="#DB811A" d="M2401.699,567.929c0-0.668,0-1.337,0-2.005
		c17.611-2.657,35.192-5.55,52.843-7.919c29.225-3.923,58.495-7.495,87.743-11.243c27.936-3.58,55.86-7.262,83.804-10.778
		c28.604-3.599,57.234-6.979,85.836-10.589c29.581-3.735,59.144-7.614,88.71-11.462c39.752-5.173,79.492-10.446,119.259-15.514
		c9.199-1.173,18.482-1.688,27.727-2.504l0.021,0.024c-12.32,23.162-24.402,46.454-37.007,69.461
		c-27.48,50.163-55.23,100.18-82.864,150.259c-17.031,30.862-34.196,61.65-51.021,92.625c-9.982,18.378-19.421,37.052-29.104,55.593
		c-0.662,0.671-1.326,1.343-1.988,2.015c-0.667,0-1.333,0-2,0c-10.364-9.318-20.602-18.779-31.114-27.926
		c-29.269-25.465-58.759-50.675-87.956-76.223c-29.455-25.774-58.587-51.916-87.996-77.744
		c-36.628-32.168-73.34-64.241-110.141-96.211C2418.471,580.855,2409.963,574.532,2401.699,567.929z"/>
	<path fill-rule="evenodd" clip-rule="evenodd" fill="#FF9C2C" d="M901.884,1449.818c-33.732,12.254-67.51,24.385-101.186,36.795
		c-46.157,17.01-92.212,34.299-138.355,51.347c-45.521,16.817-91.098,33.487-136.661,50.196c-1.864,0.684-3.826,1.103-5.741,1.645
		c-0.002-0.665-0.002-1.33-0.003-1.994c13.258-26.104,26.532-52.199,39.75-78.322c1.349-2.665,2.233-5.563,3.558-8.242
		c30.098-60.928,60.307-121.8,90.327-182.766c36.492-74.104,72.88-148.26,109.172-222.461c4.812-9.838,8.801-20.079,13.171-30.132
		c0.661-0.011,1.322-0.021,1.983-0.027c0.002,0.669,0.004,1.337,0.006,2.005c1.062,4.174,1.867,8.432,3.222,12.508
		c18.675,56.198,37.392,112.383,56.166,168.549c22.166,66.313,44.397,132.605,66.6,198.906c-0.006,0.659-0.013,1.318-0.02,1.978
		l0.001,0.002C903.21,1449.804,902.547,1449.809,901.884,1449.818z"/>
	<path fill-rule="evenodd" clip-rule="evenodd" fill="#A84901" d="M3141.61,2301.723c-0.002-0.67-0.003-1.341-0.004-2.011
		c-47.328-89.323-94.655-178.647-141.982-267.973c0-0.664,0-1.329,0-1.993l0.021,0.018c1.324-0.01,2.647-0.018,3.97-0.027
		c20.725,4.53,41.382,9.385,62.18,13.537c137.912,27.529,275.853,54.908,413.787,82.324c0.646,0.129,1.327,0.094,1.992,0.136
		c-0.007,0.663-0.015,1.326-0.021,1.989c-65.728,33.538-131.482,67.021-197.174,100.631
		C3236.746,2252.724,3189.196,2277.261,3141.61,2301.723z"/>
	<path fill-rule="evenodd" clip-rule="evenodd" fill="#9A4001" d="M3141.61,2305.709c0.663,2.668,1.326,5.334,1.989,8.001
		C3142.937,2311.043,3142.273,2308.377,3141.61,2305.709z"/>
	<path fill-rule="evenodd" clip-rule="evenodd" fill="#CA6206" d="M2523.64,2265.705l-0.978-0.003l-0.979,0.003
		c-26.787,4.845-53.629,9.412-80.354,14.582c-94.915,18.366-189.794,36.926-284.682,55.434
		c-65.873,12.849-131.735,25.751-197.609,38.595c-33.255,6.483-66.528,12.876-99.78,19.374c-1.889,0.369-3.663,1.327-5.491,2.01
		c-0.665,0-1.33,0.012-1.994,0.033l0.005-0.055c-0.006-0.658-0.011-1.318-0.017-1.978c-2.268-20.437-4.42-40.888-6.833-61.308
		c-3.618-30.632-7.515-61.232-11.118-91.865c-4.266-36.243-8.266-72.518-12.527-108.762c-4.414-37.549-8.982-75.08-13.525-112.614
		c-3.107-25.681-6.397-51.339-9.399-77.031c-2.347-20.097-4.378-40.229-6.55-60.345c2.189,0.764,4.51,1.272,6.549,2.327
		c37.504,19.405,75.039,38.752,112.437,58.36c55.132,28.905,110.116,58.093,165.247,87c57.158,29.969,114.444,59.694,171.625,89.62
		c92.015,48.155,183.988,96.39,275.979,144.589l0.039,0.045C2523.669,2264.379,2523.654,2265.042,2523.64,2265.705z"/>
	<path fill-rule="evenodd" clip-rule="evenodd" fill="#C46A0C" d="M1851.762,2393.7c0.006,0.659,0.011,1.319,0.017,1.978
		c-57.362,8.064-114.742,16.014-172.084,24.227c-58,8.307-115.958,16.909-173.952,25.262c-4.572,0.659-9.279,0.381-13.923,0.538
		c-1.464-1.798-2.795-3.729-4.414-5.375c-40.099-40.815-80.236-81.594-120.333-122.411c-2.551-2.597-4.834-5.458-7.242-8.196
		c29.456,5.033,58.924,9.995,88.364,15.116c54.972,9.561,109.916,19.27,164.89,28.812c56.277,9.769,112.56,19.509,168.874,29.058
		C1805.18,2386.645,1828.491,2390.052,1851.762,2393.7z"/>
	<path fill-rule="evenodd" clip-rule="evenodd" fill="#C36F0F" d="M1359.83,2309.722c2.408,2.738,4.691,5.6,7.242,8.196
		c40.098,40.817,80.235,81.596,120.333,122.411c1.618,1.646,2.949,3.577,4.414,5.375c-0.005,0.66-0.011,1.319-0.017,1.979
		c-0.659,0.007-1.319,0.015-1.978,0.021c-28.693,4.818-57.402,9.546-86.075,14.483c-29.327,5.051-58.618,10.307-87.925,15.473
		c0.519-3.26,0.783-6.583,1.595-9.769c13.426-52.737,26.92-105.457,40.4-158.181l0.005-0.011
		C1358.493,2309.707,1359.162,2309.715,1359.83,2309.722z"/>
	<path fill-rule="evenodd" clip-rule="evenodd" fill="#C77512" d="M1357.819,2309.711c-13.48,52.724-26.975,105.443-40.4,158.181
		c-0.812,3.186-1.076,6.509-1.595,9.769c-0.663,0.012-1.326,0.018-1.989,0.019c-19.326-11.655-38.53-23.518-58.001-34.927
		c-43-25.194-86.135-50.163-129.215-75.222c-50.835-29.569-101.683-59.119-152.494-88.731c-4.862-2.833-9.508-6.039-14.253-9.071
		c14.864,1.329,29.736,2.589,44.593,4.006c22.785,2.174,45.563,4.418,68.338,6.702c23.756,2.383,47.501,4.897,71.26,7.264
		c22.777,2.269,45.573,4.358,68.348,6.637c30.688,3.071,61.371,6.185,92.044,9.402
		C1322.256,2305.604,1340.031,2307.712,1357.819,2309.711z"/>
	<path fill-rule="evenodd" clip-rule="evenodd" fill="#D27C17" d="M2747.645,863.876c9.684-18.541,19.122-37.214,29.104-55.592
		c16.825-30.975,33.99-61.763,51.021-92.625c27.634-50.08,55.384-100.097,82.864-150.259c12.604-23.007,24.687-46.299,37.007-69.461
		c0.663-0.002,1.325-0.002,1.989-0.001c0.74,3.227,1.102,6.601,2.278,9.66c11.944,31.054,23.943,62.086,36.093,93.06
		c5.688,14.495,11.738,28.848,17.623,43.266c0.014,0.671,0.027,1.342,0.041,2.014c0.001,0-0.032-0.006-0.032-0.006
		c-5.16,4.157-10.442,8.171-15.461,12.493c-25.618,22.065-51.064,44.33-76.768,66.295c-29.476,25.188-59.207,50.076-88.735,75.204
		C2798.929,819.828,2773.314,841.886,2747.645,863.876z"/>
	<path fill-rule="evenodd" clip-rule="evenodd" fill="#CE7D1C" d="M3005.625,641.922c-5.885-14.418-11.936-28.771-17.623-43.266
		c-12.149-30.974-24.148-62.006-36.093-93.06c-1.177-3.059-1.538-6.433-2.278-9.66c16.35-8.159,32.608-16.511,49.074-24.429
		c21.301-10.243,42.744-20.185,64.167-30.17c16.879-7.867,33.82-15.602,50.733-23.396c-8.207,17.745-16.184,35.6-24.662,53.213
		c-21.738,45.15-43.67,90.207-65.59,135.268C3017.568,618.317,3011.541,630.093,3005.625,641.922z"/>
	<path fill-rule="evenodd" clip-rule="evenodd" fill="#C45B04" d="M3155.563,1373.807
		c-26.399,110.947-52.833,221.886-79.185,332.845c-18.438,77.639-36.741,155.309-55.15,232.953
		c-7.129,30.068-14.385,60.106-21.583,90.159l-0.021-0.018c-41.866-32.225-83.839-64.312-125.57-96.709
		c-53.802-41.768-107.407-83.786-161.101-125.692c-34.577-26.985-69.081-54.063-103.78-80.892
		c-13.604-10.518-27.649-20.465-41.495-30.672c-0.006-0.674-0.014-1.347-0.021-2.021c0.018-0.655,0.035-1.312,0.055-1.967
		c12.157-6.114,24.488-11.905,36.439-18.398c49.395-26.832,98.647-53.922,148.002-80.826c32.713-17.834,65.549-35.439,98.256-53.282
		c48.471-26.441,96.877-52.998,145.305-79.515c33.55-18.371,67.011-36.902,100.662-55.084
		C3115.951,1394.111,3135.824,1384.081,3155.563,1373.807z"/>
	<path fill-rule="evenodd" clip-rule="evenodd" fill="#CC6408" d="M3155.563,1373.807c-19.739,10.274-39.612,20.305-59.188,30.882
		c-33.651,18.182-67.112,36.713-100.662,55.084c-48.428,26.517-96.834,53.073-145.305,79.515
		c-32.707,17.843-65.543,35.448-98.256,53.282c-49.354,26.904-98.607,53.994-148.002,80.826
		c-11.951,6.493-24.282,12.284-36.439,18.398l-0.055-0.006c16.41-33.47,32.749-66.976,49.248-100.401
		c31.09-62.984,62.193-125.963,93.441-188.869c24.145-48.606,48.536-97.09,72.757-145.659c1.768-3.547,3.036-7.341,4.537-11.021
		c0.013-0.662,0.023-1.326,0.032-1.988c1.326,0,2.652,0,3.979,0c2.59,1.41,5.042,3.21,7.789,4.172
		c32.641,11.427,65.344,22.675,97.991,34.078c32.331,11.293,64.581,22.819,96.934,34.048
		c53.711,18.643,107.476,37.128,161.219,55.681c0,0,0.054,0,0.055,0C3155.615,1372.487,3155.591,1373.146,3155.563,1373.807z"/>
	<path fill-rule="evenodd" clip-rule="evenodd" fill="#D57B14" d="M1357.819,2309.711c-17.788-1.999-35.563-4.106-53.364-5.973
		c-30.673-3.218-61.356-6.331-92.044-9.402c-22.775-2.278-45.571-4.368-68.348-6.637c-23.759-2.366-47.504-4.881-71.26-7.264
		c-22.775-2.284-45.553-4.528-68.338-6.702c-14.856-1.417-29.729-2.677-44.593-4.006l-0.994-0.001l-0.992,0.011
		c-0.008-0.667-0.014-1.334-0.021-2.001c16.662-26.026,33.486-51.949,49.948-78.102c26.211-41.643,52.167-83.443,78.255-125.164
		c44.067-70.474,88.117-140.959,132.243-211.396c29.125-46.49,58.379-92.897,87.527-139.372c1.564-2.494,2.672-5.273,3.993-7.92
		c0.674-0.651,1.348-1.302,2.02-1.954c0.753,9.584,1.521,19.167,2.256,28.753c2.583,33.713,5.202,67.424,7.713,101.144
		c1.503,20.175,2.689,40.374,4.273,60.544c2.464,31.391,5.314,62.753,7.677,94.151c1.692,22.492,2.585,45.045,4.307,67.535
		c3.061,39.98,6.687,79.918,9.68,119.903c2.377,31.751,4.024,63.556,6.277,95.316c0.866,12.21,2.513,24.365,3.804,36.546
		c-0.003,0.659-0.006,1.319-0.012,1.979L1357.819,2309.711z"/>
	<path fill-rule="evenodd" clip-rule="evenodd" fill="#B14D00" d="M2999.624,2031.739c47.327,89.325,94.654,178.649,141.982,267.973
		c-19.403-2.17-38.844-4.048-58.2-6.574c-32.486-4.241-64.92-8.895-97.376-13.374c-32.787-4.524-65.562-9.136-98.362-13.548
		c-31.82-4.278-63.666-8.374-95.508-12.502c-10.825-1.404-21.67-2.661-32.506-3.985l-0.002-0.032
		c7.182-6.841,14.288-13.763,21.559-20.507c17.753-16.471,35.492-32.959,53.4-49.258c35.068-31.916,70.169-63.795,105.412-95.516
		C2959.729,2066.679,2979.747,2049.287,2999.624,2031.739z"/>
	<path fill-rule="evenodd" clip-rule="evenodd" fill="#BD5603" d="M2999.624,2031.739c-19.877,17.548-39.895,34.939-59.601,52.677
		c-35.243,31.721-70.344,63.6-105.412,95.516c-17.908,16.299-35.647,32.787-53.4,49.258c-7.271,6.744-14.377,13.666-21.559,20.507
		c-0.666,0.007-1.332,0.014-1.998,0.021c-3.332-0.004-6.666-0.007-9.998-0.01c2.678-1.108,5.356-2.218,8.777-3.635
		c-0.91-3.401-1.615-6.921-2.785-10.279c-10.828-31.041-21.893-62-32.582-93.088c-13.271-38.603-26.084-77.363-39.405-115.947
		c-11.591-33.568-23.792-66.925-35.396-100.487c-11.942-34.54-23.375-69.254-35.245-103.818
		c-7.442-21.674-15.211-43.237-22.96-64.805c-6.7-18.653-13.581-37.244-20.383-55.861c0-2-0.002-4-0.004-6.001l0.004-0.005
		c13.846,10.207,27.892,20.154,41.495,30.672c34.699,26.828,69.203,53.906,103.78,80.892
		c53.693,41.906,107.299,83.925,161.101,125.692c41.731,32.397,83.704,64.484,125.57,96.709
		C2999.624,2030.41,2999.624,2031.075,2999.624,2031.739z"/>
	<path fill-rule="evenodd" clip-rule="evenodd" fill="#CF6F0C" d="M2791.65,1243.85c-1.326,0-2.652,0-3.979,0l-0.032-0.012
		c-2.824-26.683-5.486-53.385-8.515-80.044c-3.666-32.251-7.691-64.461-11.467-96.7c-2.968-25.335-5.762-50.692-8.687-76.032
		c-3.077-26.651-6.118-53.308-9.372-79.938c-1.762-14.433-3.935-28.815-5.923-43.221l-0.021-0.012c0.667,0,1.334,0,2,0
		c4.212,0.838,8.539,1.303,12.615,2.577c17.78,5.561,35.484,11.367,53.221,17.066c94.073,30.229,188.14,60.48,282.224,90.673
		c57.95,18.596,115.931,37.103,173.896,55.65c0.67,0.67,1.341,1.341,2.011,2.012l-0.033,0.008
		c-24.342,10.666-48.648,21.414-73.033,31.982c-51.512,22.326-103.082,44.52-154.595,66.844
		c-43.893,19.022-87.752,38.122-131.601,57.243C2870.773,1209.209,2831.22,1226.545,2791.65,1243.85z"/>
	<path fill-rule="evenodd" clip-rule="evenodd" fill="#CB7511" d="M3267.612,1033.858c-57.966-18.547-115.946-37.054-173.896-55.65
		c-94.084-30.193-188.15-60.444-282.224-90.673c-17.736-5.699-35.44-11.505-53.221-17.066c-4.076-1.274-8.403-1.739-12.615-2.577
		c0-0.667,0-1.333,0-2c0.662-0.672,1.326-1.344,1.988-2.015c25.67-21.991,51.284-44.049,77.025-65.956
		c29.528-25.127,59.26-50.015,88.735-75.204c25.703-21.965,51.149-44.229,76.768-66.295c5.019-4.322,10.301-8.336,15.461-12.493
		c39.427,58.46,78.789,116.965,118.299,175.369c34.657,51.23,69.604,102.264,104.164,153.559
		C3241.631,992.947,3254.461,1013.511,3267.612,1033.858z"/>
	<path fill-rule="evenodd" clip-rule="evenodd" fill="#BF5803" d="M2567.678,1701.787c6.802,18.617,13.683,37.208,20.383,55.861
		c7.749,21.567,15.518,43.131,22.96,64.805c11.87,34.564,23.303,69.278,35.245,103.818c11.604,33.563,23.805,66.919,35.396,100.487
		c13.321,38.584,26.134,77.345,39.405,115.947c10.689,31.088,21.754,62.047,32.582,93.088c1.17,3.358,1.875,6.878,2.785,10.279
		c-3.421,1.417-6.1,2.526-8.777,3.635c-27.063,1.91-54.125,3.842-81.189,5.72c-11.561,0.803-23.122,1.6-34.693,2.215
		c-26.787,1.424-53.584,2.683-80.371,4.122c-8.586,0.461-17.153,1.276-25.729,1.931c1.386-24.526,2.638-49.062,4.2-73.577
		c1.18-18.54,2.727-37.056,4.159-55.579c2.53-32.737,5.175-65.465,7.622-98.207c1.583-21.181,2.799-42.388,4.355-63.569
		c2.48-33.74,5.163-67.464,7.649-101.204c1.537-20.85,2.807-41.721,4.31-62.573c2.525-35.069,5.142-70.131,7.72-105.197
		C2566.353,1703.121,2567.016,1702.453,2567.678,1701.787z"/>
	<path fill-rule="evenodd" clip-rule="evenodd" fill="#CA5F05" d="M2565.688,1703.788c-2.578,35.066-5.194,70.128-7.72,105.197
		c-1.503,20.853-2.772,41.724-4.31,62.573c-2.486,33.74-5.169,67.464-7.649,101.204c-1.557,21.182-2.772,42.389-4.355,63.569
		c-2.447,32.742-5.092,65.47-7.622,98.207c-1.433,18.523-2.979,37.039-4.159,55.579c-1.563,24.516-2.814,49.051-4.2,73.577
		c-0.663,0.014-1.326,0.02-1.989,0.021c0,0-0.039-0.045-0.038-0.043c-7.254-40.458-14.487-80.92-21.768-121.374
		c-14.51-80.632-29.096-161.25-43.552-241.892c-7.725-43.096-15.115-86.252-22.906-129.335c-4.305-23.806-9.124-47.517-13.712-71.27
		c2.883-0.665,5.751-1.829,8.653-1.921c45.762-1.456,91.529-2.773,137.295-4.122c0.008,0.674,0.016,1.347,0.021,2.021l-0.004,0.005
		C2567.012,1698.454,2566.351,1701.122,2565.688,1703.788z"/>
	<path fill-rule="evenodd" clip-rule="evenodd" fill="#C66709" d="M2791.65,1243.85c39.569-17.304,79.123-34.641,118.711-51.902
		c43.849-19.121,87.708-38.221,131.601-57.243c51.513-22.325,103.083-44.518,154.595-66.844
		c24.385-10.569,48.691-21.316,73.033-31.982c-3.902,12.677-7.504,25.457-11.76,38.015c-18.658,55.077-37.434,110.115-56.31,165.118
		c-15.207,44.309-30.617,88.548-45.938,132.817c-53.743-18.553-107.508-37.038-161.219-55.681
		c-32.353-11.229-64.603-22.755-96.934-34.048c-32.647-11.403-65.351-22.651-97.991-34.078
		C2796.692,1247.06,2794.24,1245.26,2791.65,1243.85z"/>
	<path fill-rule="evenodd" clip-rule="evenodd" fill="#FFA72C" d="M777.905,1067.86c-0.002-0.668-0.004-1.336-0.006-2.005
		c1.335-3.994,2.67-7.988,4.004-11.981c8.154-16.343,16.568-32.562,24.404-49.056c13.847-29.147,27.179-58.541,41.013-87.695
		c33.383-70.354,66.98-140.604,100.392-210.943c23.129-48.692,46.061-97.476,69.145-146.19
		c8.242-17.394,16.673-34.702,25.018-52.048c0.001,0.666,0.003,1.331,0.005,1.997c1.324,28.471,2.682,56.941,3.962,85.414
		c1.371,30.494,2.67,60.99,3.996,91.485c1.341,30.828,2.673,61.655,4.014,92.483c1.325,30.495,2.672,60.989,3.982,91.485
		c2.02,47.025,4.003,94.053,6.027,141.079c1.299,30.163,2.664,60.324,3.96,90.487c1.368,31.823,2.69,63.648,4.033,95.471
		c-3.452-1.06-7.066-1.763-10.33-3.24c-24.509-11.099-48.899-22.458-73.42-33.529c-59.627-26.921-119.281-53.786-178.987-80.531
		C798.875,1075.955,788.317,1072.071,777.905,1067.86z"/>
	<path fill-rule="evenodd" clip-rule="evenodd" fill="#FB981F" d="M1777.771,693.899c0.002,0.668,0.004,1.336,0.006,2.004
		c-1.376,1.404-2.959,2.658-4.096,4.235c-15.916,22.075-31.75,44.208-47.644,66.297c-45.164,62.767-90.297,125.557-135.552,188.258
		c-13.373,18.528-27.109,36.793-40.68,55.18c0.671-39.899,1.247-79.8,2.049-119.696c0.481-23.918,1.268-47.83,2-71.742
		c1.293-42.167,2.651-84.332,3.982-126.498c72.649,0.655,145.297,1.31,217.946,1.965
		C1776.445,693.905,1777.109,693.905,1777.771,693.899z"/>
	<path fill-rule="evenodd" clip-rule="evenodd" fill="#FFA024" d="M1071.855,1197.844c-1.343-31.823-2.665-63.648-4.033-95.471
		c-1.297-30.163-2.662-60.324-3.96-90.487c-2.024-47.026-4.007-94.054-6.027-141.079c-1.31-30.496-2.658-60.99-3.982-91.485
		c-1.341-30.828-2.673-61.655-4.014-92.483c-1.326-30.495-2.625-60.991-3.996-91.485c-1.28-28.473-2.639-56.943-3.962-85.414
		c3.681,2.684,7.796,4.934,10.981,8.115c107.919,107.768,215.749,215.624,323.592,323.466
		c54.141,54.141,108.274,108.289,162.443,162.4c2.812,2.81,5.933,5.309,8.909,7.952c0.006,0.659-0.002,1.317-0.021,1.977
		c-29.474,11.282-59.019,22.382-88.41,33.876c-98.11,38.368-196.139,76.944-294.255,115.294
		c-30.32,11.852-60.824,23.238-91.243,34.837C1073.203,1197.854,1072.529,1197.849,1071.855,1197.844z"/>
	<path fill-rule="evenodd" clip-rule="evenodd" fill="#FB901A" d="M1549.806,1009.874c13.571-18.386,27.307-36.652,40.68-55.18
		c45.255-62.701,90.388-125.491,135.552-188.258c15.895-22.09,31.728-44.223,47.644-66.297c1.137-1.577,2.72-2.831,4.096-4.235
		c0.661,0.001,1.322,0.001,1.983,0.001c1.132,2.035,2.01,4.27,3.434,6.076c30.214,38.354,60.471,76.674,90.757,114.971
		c51.914,65.648,103.854,131.277,155.783,196.914c-159.965-0.654-319.93-1.308-479.896-1.962l-0.034-0.031
		C1549.802,1011.206,1549.803,1010.54,1549.806,1009.874z"/>
	<path fill-rule="evenodd" clip-rule="evenodd" fill="#FB901A" d="M1547.785,1013.85c0.02-0.659,0.027-1.317,0.021-1.977
		c0.666,0,1.333,0,1.999-0.001c0,0,0.034,0.031,0.033,0.031c-0.013,0.657-0.022,1.314-0.032,1.973
		c-0.659,0.005-1.318,0.014-1.978,0.024L1547.785,1013.85z"/>
	<path fill-rule="evenodd" clip-rule="evenodd" fill="#EF8D1B" d="M2029.734,1013.865
		c-51.93-65.637-103.869-131.266-155.783-196.914c-30.286-38.297-60.543-76.617-90.757-114.971
		c-1.424-1.806-2.302-4.041-3.434-6.076c16.39-3.923,32.704-8.201,49.183-11.706c52.957-11.259,105.954-22.338,158.975-33.291
		c60.163-12.429,120.387-24.558,180.551-36.98c77.091-15.917,154.147-31.996,231.219-48.005
		c-28.83,35.178-57.672,70.349-86.489,105.539c-26.083,31.853-52.07,63.783-78.226,95.576
		c-26.367,32.053-52.948,63.93-79.328,95.971c-33.131,40.242-66.151,80.574-99.224,120.864
		c-8.215,10.007-16.446,20.002-24.67,30.003l-0.017-0.003C2031.067,1013.87,2030.4,1013.867,2029.734,1013.865z"/>
	<path fill-rule="evenodd" clip-rule="evenodd" fill="#E9891E" d="M1311.85,1703.83c-0.672,0.651-1.346,1.302-2.02,1.953
		c-26.308,17.529-52.736,34.881-78.895,52.631c-35.797,24.292-71.354,48.937-107.073,73.343
		c-82.159,56.14-164.36,112.218-246.532,168.338c-52.489,35.849-104.954,71.73-157.429,107.599c0.327-1.963,0.479-3.976,1.008-5.883
		c13.45-48.412,26.885-96.828,40.435-145.213c20.818-74.342,41.717-148.66,62.583-222.988
		c20.778-74.007,41.631-147.992,62.286-222.035c5.532-19.832,10.463-39.833,15.67-59.756c0.663-0.672,1.327-1.343,1.99-2.015
		c0,0-0.001-0.002,0-0.002c3.785,2.09,7.676,4.009,11.338,6.293c32.737,20.423,65.383,40.989,98.152,61.359
		c87.285,54.261,174.588,108.49,261.964,162.603c11.257,6.973,22.989,13.177,34.501,19.736c0.67,0.656,1.34,1.313,2.008,1.97
		l0.035,0.032c-0.014,0.662-0.019,1.324-0.017,1.985L1311.85,1703.83z"/>
	<path fill-rule="evenodd" clip-rule="evenodd" fill="#EB8E26" d="M901.884,1451.818c-5.207,19.923-10.138,39.924-15.67,59.756
		c-20.655,74.043-41.508,148.028-62.286,222.035c-20.866,74.328-41.765,148.646-62.583,222.988
		c-13.549,48.385-26.985,96.801-40.435,145.213c-0.529,1.907-0.681,3.92-1.008,5.883c-0.659,0.016-1.318,0.023-1.976,0.021
		c-17.945-47.197-35.871-94.4-53.84-141.587c-25.896-68.001-51.828-135.987-77.736-203.982c-2.835-7.44-5.618-14.901-8.425-22.353
		c0.005-0.667,0.009-1.333,0.014-2c8.197-6.604,16.67-12.897,24.539-19.872c21.133-18.735,41.92-37.86,63.006-56.646
		c28.269-25.188,56.713-50.178,85.037-75.302c13.422-11.906,26.718-23.952,40.109-35.893c29.998-26.748,59.994-53.497,90.049-80.18
		C887.625,1463.734,894.81,1457.839,901.884,1451.818z"/>
	<path fill-rule="evenodd" clip-rule="evenodd" fill="#EB8E26" d="M903.874,1449.804c-0.663,0.672-1.327,1.343-1.99,2.015
		c0-0.667,0-1.333,0-2C902.547,1449.809,903.21,1449.804,903.874,1449.804z"/>
	<path fill-rule="evenodd" clip-rule="evenodd" fill="#E97B10" d="M2031.751,1013.876c26.211,3.995,52.407,8.08,78.636,11.96
		c34.431,5.095,68.886,10.013,103.327,15.033c38.705,5.641,77.404,11.323,116.109,16.963c34.769,5.068,69.522,10.232,104.316,15.118
		c31.829,4.469,63.7,8.621,95.554,12.913c0.667,0.003,1.335,0.007,2.003,0.01c-0.003,0.666-0.004,1.332-0.003,1.999
		c-0.67,0.663-1.341,1.327-2.01,1.991c-6.521,3.902-13.124,7.675-19.552,11.724c-61.301,38.615-122.562,77.292-183.856,115.917
		c-41.613,26.222-83.338,52.269-124.869,78.619c-30.014,19.042-59.792,38.453-89.676,57.699c-0.661,0.004-1.323,0.009-1.984,0.015
		c-0.008-0.673-0.017-1.346-0.024-2.018c-21.374-90.914-42.834-181.809-64.06-272.757c-5.048-21.635-9.306-43.456-13.928-65.19
		L2031.751,1013.876z"/>
	<path fill-rule="evenodd" clip-rule="evenodd" fill="#DE7F14" d="M2531.696,1085.874c-0.668-0.003-1.336-0.007-2.003-0.01
		c-6.287-26.505-12.286-53.082-18.908-79.503c-35.494-141.595-71.15-283.148-106.691-424.73c-1.126-4.485-1.611-9.131-2.395-13.702
		c8.264,6.604,16.771,12.926,24.75,19.858c36.801,31.971,73.513,64.043,110.141,96.211c29.409,25.828,58.541,51.97,87.996,77.744
		c29.197,25.548,58.688,50.758,87.956,76.223c10.513,9.147,20.75,18.608,31.114,27.926c0,0.667,0,1.334,0,2
		c0,0,0.021,0.012,0.02,0.012c-2.267,1.938-4.725,3.691-6.77,5.839c-24.521,25.75-48.815,51.716-73.498,77.309
		c-28.17,29.21-56.674,58.097-85.019,87.14c-1.391,1.424-2.567,3.058-3.965,4.475
		C2560.195,1057.083,2545.942,1071.475,2531.696,1085.874z"/>
	<path fill-rule="evenodd" clip-rule="evenodd" fill="#D7740E" d="M2743.656,867.891c0-0.666,0-1.333,0-2c0.667,0,1.333,0,2,0
		c0,0.667,0,1.333,0,2C2744.99,867.891,2744.323,867.891,2743.656,867.891z"/>
	<path fill-rule="evenodd" clip-rule="evenodd" fill="#FF9C26" d="M1071.855,1197.844c0.674,0.005,1.348,0.01,2.022,0.014
		c-0.667,0.667-1.333,1.334-2,2.001c-26.616,39.239-53.26,78.459-79.837,117.725c-18.23,26.933-36.496,53.842-54.494,80.929
		c-10.807,16.266-21.128,32.853-31.667,49.295c-0.662,0.008-1.324,0.014-1.985,0.018c-22.203-66.301-44.435-132.594-66.6-198.906
		c-18.774-56.166-37.49-112.352-56.166-168.549c-1.354-4.077-2.16-8.334-3.222-12.508c10.412,4.21,20.97,8.095,31.213,12.683
		c59.707,26.745,119.36,53.609,178.987,80.531c24.521,11.071,48.911,22.431,73.42,33.529
		C1064.789,1196.081,1068.403,1196.784,1071.855,1197.844z"/>
	<path fill-rule="evenodd" clip-rule="evenodd" fill="#EF8E1D" d="M903.893,1447.824c0.661-0.004,1.323-0.01,1.985-0.018
		c10.69-2.336,21.399-4.585,32.065-7.022c33.318-7.616,66.62-15.303,99.927-22.962c0.552,0.831,0.99,1.771,1.67,2.478
		c37.792,39.209,75.554,78.448,113.432,117.574c25.857,26.707,51.867,53.268,77.833,79.869c8.604,8.815,17.278,17.564,25.935,26.33
		c17.027,17.243,34.063,34.478,51.096,51.714c0.665,1.335,1.33,2.67,1.994,4.006c-11.512-6.56-23.244-12.764-34.501-19.736
		c-87.376-54.112-174.679-108.342-261.964-162.603c-32.769-20.37-65.415-40.937-98.152-61.359
		c-3.663-2.284-7.554-4.203-11.338-6.293C903.88,1449.143,903.887,1448.483,903.893,1447.824z"/>
	<path fill-rule="evenodd" clip-rule="evenodd" fill="#CF6306" d="M2421.708,1699.804c4.588,23.753,9.407,47.464,13.712,71.27
		c7.791,43.083,15.182,86.239,22.906,129.335c14.456,80.642,29.042,161.26,43.552,241.892c7.28,40.454,14.514,80.916,21.768,121.374
		c-91.991-48.201-183.965-96.436-275.979-144.591c-57.181-29.926-114.467-59.651-171.625-89.62
		c-55.131-28.907-110.115-58.095-165.247-87c-37.397-19.608-74.933-38.955-112.437-58.36c-2.039-1.055-4.359-1.563-6.55-2.327
		l-0.049-0.008c0.021-0.657,0.036-1.315,0.047-1.974c0.651-0.017,1.303-0.038,1.954-0.063
		c66.776-19.207,133.554-38.41,200.329-57.62c72.209-20.772,144.411-41.566,216.624-62.323
		c69.656-20.021,139.322-40.006,208.984-60.007C2420.367,1699.789,2421.037,1699.796,2421.708,1699.804z"/>
	<path fill-rule="evenodd" clip-rule="evenodd" fill="#CF6C0A" d="M1357.824,2309.7c0.006-0.659,0.009-1.319,0.012-1.979
		c12.933-11.944,26.202-23.547,38.742-35.892c58.842-57.914,117.51-116.006,176.19-174.086
		c70.753-70.028,141.453-140.111,212.201-210.144c2.115-2.094,4.52-3.896,6.789-5.833l0.049,0.008
		c2.173,20.116,4.204,40.248,6.551,60.345c3.002,25.692,6.292,51.351,9.399,77.031c4.543,37.534,9.111,75.065,13.525,112.614
		c4.262,36.244,8.262,72.519,12.527,108.762c3.604,30.633,7.5,61.233,11.118,91.865c2.413,20.42,4.565,40.871,6.833,61.308
		c-23.271-3.648-46.582-7.056-69.805-10.993c-56.314-9.549-112.597-19.289-168.874-29.058
		c-54.974-9.542-109.918-19.251-164.89-28.812c-29.439-5.121-58.908-10.083-88.364-15.116
		C1359.162,2309.715,1358.493,2309.707,1357.824,2309.7z"/>
	<path fill-rule="evenodd" clip-rule="evenodd" fill="#D66808" d="M2421.707,1699.804c-0.67-0.008-1.34-0.015-2.01-0.022
		c-0.174-4.814,0.494-9.84-0.648-14.412c-15.33-61.31-30.973-122.541-46.396-183.828c-5.836-23.191-11.309-46.475-16.947-69.715
		c1.303-0.132,3.329-0.864,3.795-0.302c5.285,6.382,10.309,12.979,15.444,19.484c32.728,41.456,65.461,82.905,98.202,124.351
		c22.646,28.666,45.173,57.428,68.029,85.926c8.418,10.496,17.631,20.354,26.48,30.503l0.055,0.006
		c-0.02,0.655-0.037,1.312-0.055,1.967c-45.766,1.349-91.533,2.666-137.295,4.122
		C2427.459,1697.975,2424.591,1699.139,2421.707,1699.804z"/>
	<path fill-rule="evenodd" clip-rule="evenodd" fill="#D66A09" d="M2567.656,1691.788c-8.85-10.149-18.063-20.007-26.48-30.503
		c-22.856-28.498-45.384-57.26-68.029-85.926c-32.741-41.445-65.475-82.895-98.202-124.351
		c-5.136-6.506-10.159-13.103-15.444-19.484c-0.466-0.563-2.492,0.17-3.795,0.302c-0.666-3.337-1.333-6.673-2-10.01
		c3.283-1.613,6.481-3.437,9.863-4.809c68.633-27.844,137.3-55.606,205.934-83.45c44.629-18.105,89.171-36.425,133.837-54.436
		c28.019-11.299,56.195-22.202,84.301-33.284c-1.501,3.68-2.77,7.474-4.537,11.021c-24.221,48.569-48.612,97.053-72.757,145.659
		c-31.248,62.906-62.352,125.885-93.441,188.869C2600.405,1624.813,2584.066,1658.318,2567.656,1691.788z"/>
	<path fill-rule="evenodd" clip-rule="evenodd" fill="#DC700C" d="M2787.64,1245.838c-28.105,11.082-56.282,21.985-84.301,33.284
		c-44.666,18.011-89.208,36.33-133.837,54.436c-68.634,27.844-137.301,55.606-205.934,83.45c-3.382,1.372-6.58,3.195-9.863,4.809
		c0-0.666,0-1.333,0-2c1.046-2.082,2.043-4.191,3.145-6.243c34.558-64.476,69.084-128.968,103.71-193.405
		c17.153-31.923,34.591-63.693,51.702-95.637c6.105-11.396,11.631-23.103,17.422-34.668c0.669-0.664,1.34-1.328,2.01-1.992
		c85.315,51.99,170.631,103.978,255.946,155.966l0.032,0.012C2787.663,1244.512,2787.652,1245.176,2787.64,1245.838z"/>
	<path fill-rule="evenodd" clip-rule="evenodd" fill="#DB7710" d="M1791.759,1881.768c-2.27,1.938-4.674,3.739-6.789,5.833
		c-70.748,70.032-141.448,140.115-212.201,210.144c-58.681,58.08-117.349,116.172-176.19,174.086
		c-12.541,12.345-25.81,23.947-38.742,35.892c-1.291-12.181-2.938-24.336-3.804-36.546c-2.253-31.761-3.9-63.565-6.277-95.316
		c-2.993-39.985-6.619-79.923-9.68-119.903c-1.721-22.49-2.615-45.043-4.307-67.535c-2.362-31.398-5.212-62.761-7.677-94.151
		c-1.584-20.17-2.77-40.369-4.273-60.544c-2.511-33.72-5.13-67.431-7.713-101.144c-0.735-9.586-1.503-19.169-2.256-28.753
		c0,0.001,0.007-0.049,0.007-0.049c1.326,0.002,2.652,0.004,3.978,0.006c3.662,1.484,7.289,3.059,10.989,4.441
		c68.531,25.604,137.049,51.246,205.617,76.754c53.901,20.052,107.849,39.979,161.809,59.871
		c31.809,11.727,63.682,23.276,95.526,34.906c0.677,0.012,1.354,0.024,2.031,0.036
		C1791.795,1880.452,1791.779,1881.11,1791.759,1881.768z"/>
	<path fill-rule="evenodd" clip-rule="evenodd" fill="#C45B04" d="M2565.688,1703.788c0.662-2.666,1.323-5.334,1.985-8.002
		c0.002,2.001,0.004,4.001,0.004,6.001C2567.016,1702.453,2566.353,1703.121,2565.688,1703.788z"/>
	<path fill-rule="evenodd" clip-rule="evenodd" fill="#D7740E" d="M2787.64,1243.838
		c-85.315-51.988-170.631-103.977-255.946-155.966c-0.001-0.666,0-1.332,0.003-1.998c14.246-14.398,28.499-28.791,42.729-43.208
		c1.397-1.417,2.574-3.05,3.965-4.475c28.345-29.042,56.849-57.93,85.019-87.14c24.683-25.593,48.978-51.559,73.498-77.309
		c2.045-2.148,4.503-3.902,6.77-5.839c1.989,14.406,4.162,28.789,5.924,43.221c3.254,26.629,6.295,53.286,9.372,79.938
		c2.925,25.34,5.719,50.697,8.687,76.032c3.775,32.238,7.801,64.448,11.467,96.7
		C2782.153,1190.453,2784.815,1217.155,2787.64,1243.838z"/>
	<path fill-rule="evenodd" clip-rule="evenodd" fill="#F8901A" d="M1309.83,1699.793c-0.664-1.336-1.329-2.671-1.994-4.006
		c-0.617-1.886-1.029-3.87-1.878-5.646c-35.693-74.601-71.452-149.171-107.137-223.775c-13.89-29.039-27.527-58.199-41.45-87.222
		c-17.94-37.397-35.969-74.754-54.118-112.051c-10.298-21.161-20.915-42.167-31.387-63.244c0.004-1.33,0.007-2.661,0.011-3.991
		c0.667-0.667,1.333-1.334,2-2.001c30.419-11.599,60.922-22.985,91.243-34.837c98.117-38.351,196.146-76.926,294.255-115.294
		c29.391-11.495,58.936-22.595,88.41-33.876l0.043,0.051c-24.688,72.376-49.359,144.76-74.067,217.13
		c-27.302,79.966-54.685,159.903-81.947,239.881c-23.937,70.223-47.721,140.497-71.688,210.708
		c-2.341,6.858-5.505,13.436-8.287,20.144C1311.17,1701.106,1310.5,1700.449,1309.83,1699.793z"/>
	<path fill-rule="evenodd" clip-rule="evenodd" fill="#F58514" d="M2031.734,1013.873c4.622,21.734,8.88,43.555,13.928,65.19
		c21.226,90.949,42.686,181.843,64.06,272.757c-45.628-27.307-91.369-54.428-136.854-81.97
		c-52.603-31.851-104.926-64.163-157.47-96.109c-65.037-39.542-130.136-78.983-195.296-118.321
		c-23.296-14.063-46.85-27.7-70.285-41.53l-0.011-0.015c0.01-0.658,0.02-1.315,0.032-1.973
		c159.966,0.654,319.932,1.308,479.896,1.962C2030.4,1013.867,2031.067,1013.87,2031.734,1013.873z"/>
	<path fill-rule="evenodd" clip-rule="evenodd" fill="#F28514" d="M1311.838,1701.763c2.782-6.708,5.946-13.285,8.287-20.144
		c23.968-70.211,47.752-140.485,71.688-210.708c27.262-79.978,54.645-159.915,81.947-239.881
		c24.708-72.37,49.379-144.753,74.067-217.13c0.66-0.011,1.319-0.02,1.978-0.024l0.011,0.015c0.657,3.594,1.032,7.268,2.015,10.772
		c13.356,47.682,26.693,95.37,40.244,142.998c19.012,66.82,38.385,133.538,57.256,200.398c16.61,58.85,32.76,117.83,49.081,176.762
		c4.517,16.309,8.919,32.649,13.374,48.975c-8.296,2.422-16.551,4.999-24.896,7.243c-124.998,33.61-250.009,67.179-375.017,100.757
		L1311.838,1701.763z"/>
	<path fill-rule="evenodd" clip-rule="evenodd" fill="#E97C11" d="M1311.874,1701.795
		c125.008-33.578,250.019-67.146,375.017-100.757c8.345-2.244,16.6-4.821,24.896-7.243c0.667,0.006,1.333,0.012,2,0.016
		c-3.146,9.74-6.601,19.393-9.382,29.236c-8.347,29.539-16.432,59.153-24.62,88.738c-17.93-0.664-35.857-1.498-53.792-1.961
		c-54.825-1.419-109.649-2.895-164.48-3.97c-48.553-0.952-97.117-1.398-145.676-2.068c-1.326-0.002-2.652-0.004-3.978-0.006
		C1311.855,1703.119,1311.86,1702.457,1311.874,1701.795z"/>
	<path fill-rule="evenodd" clip-rule="evenodd" fill="#E06F0B" d="M2353.705,1419.816c0,0.667,0,1.334,0,2
		c0.667,3.337,1.334,6.673,2,10.01c5.639,23.24,11.111,46.523,16.947,69.715c15.424,61.287,31.066,122.519,46.396,183.828
		c1.143,4.572,0.475,9.598,0.648,14.412c-69.662,20.001-139.328,39.985-208.984,60.007
		c-72.213,20.757-144.415,41.551-216.624,62.323c-66.775,19.21-133.553,38.413-200.329,57.621c1.351-3.006,2.4-6.192,4.094-8.991
		c44.602-73.725,89.289-147.396,133.919-221.104c45.492-75.129,90.997-150.25,136.374-225.449
		c14.073-23.322,27.746-46.886,41.603-70.339l-0.003-0.012c0.661-0.006,1.323-0.011,1.984-0.015
		c3.586,0.589,7.266,0.845,10.746,1.815c45.408,12.663,90.768,25.505,136.185,38.142
		C2290.307,1402.586,2322.021,1411.146,2353.705,1419.816z"/>
	<path fill-rule="evenodd" clip-rule="evenodd" fill="#F58211" d="M1713.785,1593.811c-0.667-0.004-1.333-0.01-2-0.016
		c-4.455-16.325-8.856-32.666-13.374-48.975c-16.32-58.932-32.471-117.912-49.081-176.762
		c-18.872-66.86-38.245-133.579-57.256-200.398c-13.551-47.628-26.888-95.316-40.244-142.998c-0.982-3.504-1.357-7.178-2.015-10.772
		c23.436,13.83,46.989,27.467,70.285,41.53c65.16,39.338,130.259,78.779,195.296,118.321
		c52.544,31.946,104.867,64.258,157.47,96.109c45.485,27.542,91.227,54.663,136.854,81.97c0.008,0.672,0.017,1.345,0.024,2.018
		l0.003,0.012c-4.177,2.732-8.275,5.594-12.542,8.177c-78.252,47.365-156.517,94.711-234.795,142.033
		C1812.884,1534,1763.329,1563.896,1713.785,1593.811z"/>
	<path fill-rule="evenodd" clip-rule="evenodd" fill="#E5740C" d="M2353.705,1419.816c-31.684-8.67-63.398-17.23-95.044-26.036
		c-45.417-12.637-90.776-25.479-136.185-38.142c-3.48-0.971-7.16-1.227-10.746-1.815c29.884-19.246,59.662-38.657,89.676-57.699
		c41.531-26.351,83.256-52.397,124.869-78.619c61.295-38.625,122.556-77.303,183.856-115.917c6.428-4.049,13.03-7.822,19.552-11.724
		c-5.791,11.565-11.316,23.271-17.422,34.668c-17.111,31.944-34.549,63.714-51.702,95.637
		c-34.626,64.437-69.152,128.929-103.71,193.405C2355.748,1415.625,2354.751,1417.734,2353.705,1419.816z"/>
	<path fill-rule="evenodd" clip-rule="evenodd" fill="#FB9522" d="M1071.876,1199.858c-0.004,1.33-0.007,2.661-0.011,3.991
		c-0.739,4.213-1.54,8.417-2.208,12.642c-10.606,67.108-21.196,134.221-31.788,201.331c-33.308,7.659-66.609,15.346-99.927,22.962
		c-10.666,2.438-21.375,4.687-32.065,7.022c10.54-16.442,20.86-33.029,31.667-49.295c17.998-27.087,36.264-53.996,54.494-80.929
		C1018.617,1278.317,1045.261,1239.098,1071.876,1199.858z"/>
	<path fill-rule="evenodd" clip-rule="evenodd" fill="#F2911C" d="M1037.87,1417.822c10.592-67.11,21.182-134.223,31.788-201.331
		c0.667-4.225,1.468-8.429,2.208-12.642c10.472,21.077,21.088,42.083,31.387,63.244c18.149,37.297,36.178,74.653,54.118,112.051
		c13.922,29.022,27.56,58.183,41.45,87.222c35.685,74.604,71.444,149.175,107.137,223.775c0.85,1.776,1.261,3.761,1.878,5.646
		c-17.033-17.236-34.069-34.471-51.096-51.714c-8.656-8.766-17.33-17.515-25.935-26.33c-25.966-26.602-51.976-53.162-77.833-79.869
		c-37.878-39.126-75.64-78.365-113.432-117.574C1038.86,1419.594,1038.422,1418.653,1037.87,1417.822z"/>
	<path fill-rule="evenodd" clip-rule="evenodd" fill="#E7760E" d="M1713.785,1593.811c49.544-29.915,99.099-59.811,148.627-89.751
		c78.278-47.322,156.543-94.668,234.795-142.033c4.267-2.583,8.365-5.444,12.542-8.177c-13.856,23.453-27.529,47.017-41.603,70.339
		c-45.377,75.199-90.882,150.32-136.374,225.449c-44.63,73.707-89.317,147.379-133.919,221.104
		c-1.693,2.799-2.743,5.985-4.094,8.991c-0.651,0.023-1.303,0.045-1.954,0.062c-0.677-0.011-1.354-0.023-2.03-0.035
		c-9.687-15.354-19.123-30.873-29.11-46.029c-26.834-40.731-53.904-81.307-80.881-121.944c8.188-29.585,16.272-59.199,24.62-88.738
		C1707.185,1613.203,1710.639,1603.551,1713.785,1593.811z"/>
	<path fill-rule="evenodd" clip-rule="evenodd" fill="#E57910" d="M1679.784,1711.785c26.977,40.638,54.047,81.213,80.881,121.944
		c9.987,15.156,19.424,30.676,29.11,46.029c-31.844-11.63-63.717-23.18-95.526-34.906c-53.96-19.892-107.907-39.819-161.809-59.871
		c-68.568-25.508-137.085-51.149-205.617-76.754c-3.7-1.383-7.327-2.957-10.989-4.441c48.56,0.67,97.123,1.116,145.676,2.068
		c54.831,1.075,109.655,2.551,164.48,3.97C1643.927,1710.287,1661.854,1711.121,1679.784,1711.785z"/>
</g>
</svg>
