<?xml version="1.0" encoding="utf-8"?>
<!-- Generator: Adobe Illustrator 16.0.0, SVG Export Plug-In . SVG Version: 6.00 Build 0)  -->
<!DOCTYPE svg PUBLIC "-//W3C//DTD SVG 1.1//EN" "http://www.w3.org/Graphics/SVG/1.1/DTD/svg11.dtd">
<svg version="1.1" id="Layer_1" xmlns="http://www.w3.org/2000/svg" xmlns:xlink="http://www.w3.org/1999/xlink" x="0px" y="0px"
	 width="3496px" height="2480px" viewBox="0 0 3496 2480" enable-background="new 0 0 3496 2480" xml:space="preserve">
<g>
	<path fill-rule="evenodd" clip-rule="evenodd" fill="#327AB7" d="M3498,1584c0,62.667,0,125.333,0,188
		c-5.913,2.95-11.873,5.811-17.731,8.865c-61.086,31.849-122.118,63.801-183.24,95.579c-56.702,29.479-113.524,58.729-170.23,88.199
		c-18.004,9.356-35.686,19.335-53.729,28.612c-24.244,12.464-48.695,24.522-73.057,36.755c4.248-17.738,8.515-35.474,12.742-53.217
		c23.082-96.901,46.19-193.797,69.221-290.711c24.719-104.015,49.361-208.047,74.037-312.071c1.328-0.002,2.657-0.004,3.986-0.006
		c1.705,1.51,3.232,3.306,5.143,4.485c19.199,11.856,38.476,23.588,57.703,35.4c59.943,36.826,119.924,73.593,179.792,110.543
		C3434.529,1544.119,3466.219,1564.134,3498,1584z"/>
	<path fill-rule="evenodd" clip-rule="evenodd" fill="#D1E2F3" d="M2,380C2,254.164,2,128.328,2,2c129.333,0,258.667,0,388,0
		c2.878,11.597,5.68,23.213,8.645,34.787c20.778,81.111,41.68,162.19,62.329,243.334c5.394,21.191,10.035,42.574,15.022,63.869
		c-18.846,1.403-37.697,2.752-56.538,4.224c-32.711,2.557-65.413,5.229-98.125,7.776c-19.506,1.519-39.029,2.81-58.534,4.344
		c-31.717,2.495-63.42,5.161-95.137,7.647c-19.505,1.529-39.025,2.865-58.539,4.278C73.416,374.844,37.708,377.42,2,380z"/>
	<path fill-rule="evenodd" clip-rule="evenodd" fill="#C3DAED" d="M630,2c69.333,0,138.667,0,208,0
		c0.403,0.914,0.938,1.792,1.192,2.746c28.123,104.948,56.309,209.88,84.268,314.873c6.574,24.688,12.379,49.58,18.537,74.378
		c-15.486-1.516-30.988-2.894-46.457-4.577c-27.963-3.043-55.899-6.332-83.86-9.398c-26.655-2.923-53.334-5.644-79.992-8.54
		c-28.621-3.11-57.231-6.323-85.847-9.489c-26.321-2.912-52.641-5.84-78.965-8.729c-28.289-3.104-56.582-6.174-84.874-9.258
		c-1.333-0.001-2.666-0.002-4-0.003l-0.015-0.017c15.738-34.882,31.559-69.728,47.196-104.653
		c24.61-54.966,49.188-109.945,73.596-165.001C609.422,50.325,619.607,26.116,630,2z"/>
	<path fill-rule="evenodd" clip-rule="evenodd" fill="#82A4D2" d="M438,2482c-61.333,0-122.667,0-184,0
		c-0.666-20.561-1.429-41.119-1.975-61.684c-0.757-28.545-1.447-57.092-1.99-85.641c-0.764-40.191-1.319-80.387-2.05-120.579
		c-0.598-32.874-1.283-65.746-2.07-98.616c-0.06-2.508-1.248-4.987-1.911-7.48c0.667-1.333,1.333-2.667,2-4
		c157.326,1.996,314.652,3.992,471.979,5.988c0.004,0.668,0.007,1.336,0.01,2.003c-12.208,15.682-24.601,31.225-36.592,47.07
		c-41.677,55.07-83.235,110.23-124.8,165.387C517.042,2376.945,477.532,2429.481,438,2482z"/>
	<path fill-rule="evenodd" clip-rule="evenodd" fill="#C3DBEE" d="M2,380c35.708-2.58,71.416-5.156,107.123-7.74
		c19.514-1.413,39.034-2.749,58.539-4.278c31.717-2.486,63.42-5.152,95.137-7.647c19.504-1.534,39.028-2.825,58.534-4.344
		c32.712-2.547,65.414-5.22,98.125-7.776c18.841-1.472,37.692-2.82,56.538-4.224l0.996,0.001l0.995-0.006l0.015,0.017
		c-0.002,0.665-0.003,1.33-0.003,1.996c-0.986,1.32-2.175,2.534-2.931,3.976c-37.517,71.602-75.08,143.178-112.452,214.854
		c-28.61,54.874-56.909,109.909-85.492,164.798c-6.742,12.947-14.067,25.592-21.123,38.375c-7.726-4.09-16.348-7.068-23.031-12.452
		c-41.257-33.236-82.132-66.948-123.025-100.634c-31.428-25.889-62.618-52.065-94.133-77.846C11.899,573.867,6.637,572.315,2,570
		C2,506.667,2,443.333,2,380z"/>
	<path fill-rule="evenodd" clip-rule="evenodd" fill="#6390C3" d="M3498,642c0,60.667,0,121.333,0,182
		c-18.182,16.519-36.595,32.79-54.492,49.611c-29.067,27.32-57.694,55.109-86.714,82.481
		c-13.279,12.524-27.262,24.302-40.543,36.823c-14.976,14.119-29.521,28.693-44.253,43.069c-0.666,0.004-1.332,0.009-1.998,0.015
		c-0.004-0.667-0.008-1.333-0.012-2c-1.991-2.655-4.1-5.231-5.957-7.978c-33.363-49.331-66.687-98.688-100.038-148.028
		c-47.325-70.01-94.714-139.978-141.936-210.058c-5.158-7.656-9.394-15.934-14.058-23.923
		C3171.333,643.343,3334.667,642.671,3498,642z"/>
	<path fill-rule="evenodd" clip-rule="evenodd" fill="#7D9CCC" d="M3498,70c0,34.667,0,69.333,0,104
		c-1.535,0.579-3.23,0.909-4.584,1.772c-55.756,35.576-111.433,71.275-167.224,106.795
		c-55.508,35.341-111.191,70.406-166.653,105.817c-14.788,9.442-29.048,19.711-43.551,29.601c-0.662,0.002-1.325,0.002-1.988,0.002
		c-1.333-3.995-2.666-7.991-4-11.987c-0.004-1.334-0.008-2.668-0.012-4.001c-0.662-0.666-1.325-1.332-1.988-1.998
		c-19.265-53.184-38.433-106.403-57.819-159.544c-24.632-67.517-49.44-134.969-74.173-202.449c0.656-0.008,1.313-0.014,1.97-0.018
		c5.325,0.051,10.665-0.146,15.972,0.191c40.008,2.548,80.005,5.249,120.012,7.801c23.488,1.498,46.994,2.7,70.48,4.228
		c38.693,2.515,77.371,5.297,116.068,7.75c25.146,1.594,50.324,2.667,75.474,4.215C3416.662,64.679,3457.328,67.381,3498,70z"/>
	<path fill-rule="evenodd" clip-rule="evenodd" fill="#8EB3DA" d="M2,2076c0-4.667,0-9.333,0-14c1.367-1.789,3.242-3.382,4.02-5.397
		c6.112-15.827,12.005-31.738,17.982-47.617c31.998-84.996,64-169.99,96.001-254.985c0.665-0.001,1.33-0.003,1.995-0.006
		c60.584,13.361,121.182,26.66,181.748,40.104c41.439,9.197,82.836,18.595,124.251,27.902
		c-9.964,15.299-19.975,30.568-29.885,45.901c-49.013,75.835-97.939,151.725-147.199,227.397c-2.105,3.234-7.206,4.52-10.911,6.713
		c-4.947-0.419-9.907-0.726-14.84-1.275c-19.75-2.202-39.49-4.498-59.237-6.725c-27.639-3.117-55.275-6.254-82.923-9.291
		C56.008,2081.755,29.001,2078.902,2,2076z"/>
	<path fill-rule="evenodd" clip-rule="evenodd" fill="#276FB1" d="M3000.012,2030.012c24.361-12.233,48.813-24.292,73.057-36.756
		c18.044-9.277,35.726-19.256,53.729-28.612c56.706-29.471,113.528-58.72,170.23-88.199c61.122-31.778,122.154-63.73,183.24-95.579
		c5.858-3.055,11.818-5.915,17.731-8.865c0,106,0,212,0,318c-4.67,12-9.341,24-14.012,36c-0.654,0.006-1.311,0.01-1.966,0.012
		c-22.729-4.543-45.449-9.139-68.191-13.619c-54.973-10.829-109.974-21.518-164.931-32.428
		c-61.768-12.262-123.473-24.851-185.266-36.984c-21.116-4.146-42.418-7.348-63.635-10.98c0-0.667,0-1.333,0-2L3000.012,2030.012z"
		/>
	<path fill-rule="evenodd" clip-rule="evenodd" fill="#1761A8" d="M3492,2482c-64.667,0-129.333,0-194,0
		c-1.987-2.657-3.815-5.453-5.985-7.951c-33.484-38.55-67.042-77.035-100.517-115.594c-14.931-17.197-29.712-34.523-45.922-53.374
		c-0.744,4.211-1.16,6.565-1.576,8.919c-0.67-3.337-1.341-6.674-2.012-10.012c0.008-0.662,0.016-1.325,0.023-1.988
		c47.593-24.463,95.146-49.004,142.787-73.373c65.703-33.606,131.472-67.083,197.213-100.615c0.001,1.329,0.003,2.658,0.004,3.988
		c0.653,6.911,1.711,13.812,1.895,20.734c1.457,55.041,2.72,110.088,4.104,165.131c0.574,22.87,1.386,45.734,1.933,68.605
		C3490.708,2418.313,3491.322,2450.156,3492,2482z"/>
	<path fill-rule="evenodd" clip-rule="evenodd" fill="#789ACA" d="M438,2482c39.532-52.519,79.042-105.055,118.602-157.552
		c41.564-55.156,83.123-110.316,124.8-165.387c11.991-15.846,24.384-31.389,36.592-47.069c0.796,1.429,1.804,2.78,2.358,4.298
		c18.374,50.248,36.731,100.502,55.034,150.776c18.645,51.211,37.352,102.4,55.781,153.689c7.291,20.29,13.909,40.822,20.833,61.244
		C714,2482,576,2482,438,2482z"/>
	<path fill-rule="evenodd" clip-rule="evenodd" fill="#7392C5" d="M3115.988,417.985c14.503-9.89,28.763-20.158,43.551-29.601
		c55.462-35.411,111.146-70.477,166.653-105.817c55.791-35.52,111.468-71.219,167.224-106.795c1.354-0.863,3.049-1.193,4.584-1.772
		c0,130.667,0,261.333,0,392c-43.307-16.99-86.603-34.007-129.922-50.963c-48.891-19.136-97.744-38.372-146.727-57.27
		C3186.327,444.255,3151.116,431.229,3115.988,417.985z"/>
	<path fill-rule="evenodd" clip-rule="evenodd" fill="#A9CDE6" d="M1366,2c2.667,0,5.333,0,8,0
		c7.424,7.092,14.67,14.381,22.304,21.238c24.955,22.413,50.022,44.701,75.101,66.978c34.756,30.871,69.511,61.742,104.36,92.506
		c19.907,17.574,40.072,34.857,59.994,52.416c23.013,20.282,45.886,40.725,70.812,62.867c-6.72,0-10.646,0-14.57,0
		c-27.823-1.331-55.645-2.683-83.468-3.985c-28.82-1.351-57.642-2.67-86.463-3.975c-44.729-2.024-89.46-4-134.188-6.044
		c-27.825-1.271-55.638-2.837-83.47-3.904c-40.131-1.54-80.274-2.747-120.412-4.097c-0.667,0-1.333,0-2,0c0-0.667,0-1.333,0-2
		c8.026-11.379,16.208-22.652,24.053-34.155C1250,175.396,1293.948,110.947,1337.7,46.365C1347.534,31.849,1356.587,16.803,1366,2z"
		/>
	<path fill-rule="evenodd" clip-rule="evenodd" fill="#397FBB" d="M2298,2482c-111.333,0-222.667,0-334,0
		c-1.393-1.371-2.663-2.899-4.197-4.088c-35.248-27.326-70.525-54.616-105.797-81.912c1.816-0.682,3.58-1.637,5.458-2.004
		c33.208-6.49,66.436-12.879,99.647-19.35c62.532-12.185,125.056-24.413,187.585-36.614c98.345-19.189,196.676-38.45,295.046-57.504
		c26.689-5.17,53.502-9.703,80.258-14.528c-1.465,1.799-2.753,3.783-4.42,5.37c-25.774,24.533-51.701,48.908-77.381,73.54
		c-23.78,22.809-47.292,45.897-70.969,68.814c-3.096,2.997-6.594,5.579-9.691,8.574C2338.993,2442.166,2318.506,2462.093,2298,2482z
		"/>
	<path fill-rule="evenodd" clip-rule="evenodd" fill="#6D96C7" d="M3115.988,417.985c35.128,13.243,70.339,26.27,105.363,39.782
		c48.982,18.897,97.836,38.134,146.727,57.27C3411.397,531.993,3454.693,549.01,3498,566c0,25.333,0,50.667,0,76
		c-163.333,0.671-326.667,1.343-490,2.014c-0.667-0.003-1.333-0.006-2-0.008c0-0.668,0-1.335,0-2.003
		c2.77-4.893,5.844-9.641,8.255-14.704c10.005-21.007,19.628-42.196,29.726-63.157c21.652-44.946,43.541-89.778,65.223-134.709
		c1.407-2.915,1.887-6.277,2.797-9.432c0.666-0.666,1.333-1.333,2-2v-0.014C3114.663,417.987,3115.326,417.987,3115.988,417.985z"/>
	<path fill-rule="evenodd" clip-rule="evenodd" fill="#97BFE0" d="M1834,2c160.667,0,321.333,0,482,0
		c1.323,40.796,2.861,81.587,3.908,122.391c0.971,37.862,1.416,75.738,2.092,113.608c0.666,3.333,1.332,6.666,1.998,9.998
		c-0.011,1.33-0.021,2.659-0.031,3.989c-10.355-4.456-20.747-8.833-31.063-13.382c-54.27-23.931-108.599-47.728-162.756-71.91
		c-57.91-25.857-115.611-52.181-173.481-78.127c-32.985-14.79-66.102-29.29-99.208-43.808c-14.468-6.345-29.06-12.409-44.425-18.954
		c-0.511,3.062-0.772,4.629-1.034,6.196c-0.668-2.002-1.337-4.004-2.006-6.006c-0.006-0.67-0.011-1.341-0.017-2.012l0.012,0.006
		C1817.992,16.66,1825.996,9.33,1834,2z"/>
	<path fill-rule="evenodd" clip-rule="evenodd" fill="#BED8EC" d="M941.997,393.997c-6.158-24.798-11.963-49.69-18.537-74.378
		c-27.959-104.993-56.145-209.925-84.268-314.873C838.938,3.792,838.403,2.914,838,2c94.667,0,189.333,0,284,0
		c8.281,7.233,16.537,14.497,24.936,21.592c0.335,0.283,2.016-1.025,3.07-1.592c0.664,1.999,1.329,3.999,1.994,5.999
		c-0.002,0.665-0.004,1.33-0.006,1.995c-19.615,33.904-39.389,67.72-58.806,101.737c-24.539,42.991-48.8,86.142-73.16,129.234
		c-24.688,43.672-49.35,87.357-74.022,131.037c-0.666,0.668-1.332,1.336-1.998,2.004C943.338,394.004,942.667,394,941.997,393.997z"
		/>
	<path fill-rule="evenodd" clip-rule="evenodd" fill="#A3C9E4" d="M1809.978,23.984c0.006,0.671,0.011,1.342,0.017,2.012
		c-0.897,1.752-1.982,3.433-2.665,5.265c-19.634,52.705-39.29,105.4-58.804,158.15c-13.621,36.821-27.036,73.719-40.543,110.582
		c-5.327-0.663-10.655-1.326-15.982-1.988c3.925,0,7.851,0,14.57,0c-24.926-22.143-47.799-42.585-70.812-62.867
		c-19.922-17.559-40.087-34.842-59.994-52.416c-34.85-30.764-69.604-61.635-104.36-92.506
		c-25.078-22.276-50.146-44.564-75.101-66.978C1388.67,16.381,1381.424,9.092,1374,2c21.333,0,42.667,0,64,0
		c14.078,1.332,28.133,3.076,42.241,3.897c19.217,1.118,38.495,1.202,57.713,2.315c41.357,2.396,82.679,5.408,124.041,7.705
		c31.471,1.747,62.99,2.594,94.469,4.202C1774.321,21.033,1792.141,22.673,1809.978,23.984z"/>
	<path fill-rule="evenodd" clip-rule="evenodd" fill="#89A9D5" d="M2,2076c27.001,2.902,54.008,5.755,81.003,8.721
		c27.647,3.037,55.284,6.174,82.923,9.291c19.747,2.227,39.487,4.522,59.237,6.725c4.933,0.55,9.893,0.856,14.84,1.275
		c2,0.662,4.001,1.325,6.002,1.988c-0.667,1.333-1.334,2.667-2,4c-14.021,33.065-28.047,66.129-42.063,99.197
		c-23.102,54.502-46.253,108.984-69.279,163.519C117.016,2407.771,101.547,2444.902,86,2482c-18.667,0-37.333,0-56,0
		c-0.653-9.91-1.201-19.828-1.978-29.729c-3.287-41.903-6.763-83.791-9.941-125.702c-3.504-46.213-6.534-92.463-10.259-138.657
		C6.745,2174.539,3.987,2161.301,2,2148C2,2124,2,2100,2,2076z"/>
	<path fill-rule="evenodd" clip-rule="evenodd" fill="#8AB0D8" d="M2558,2c82.667,0,165.333,0,248,0
		c6.555,4.276,12.914,8.896,19.7,12.766c22.016,12.559,44.188,24.843,66.3,37.233v0.005
		c-99.629,35.32-199.256,70.646-298.888,105.96c-40.104,14.214-80.197,28.461-120.334,42.583
		c-48.908,17.208-97.857,34.3-146.79,51.441c0.004-0.663,0.008-1.326,0.012-1.989c2.736-2.407,5.716-4.592,8.172-7.258
		c21.816-23.679,43.325-47.644,65.34-71.135c35.211-37.574,70.848-74.75,106.088-112.297C2523.313,40.438,2540.549,21.117,2558,2z"
		/>
	<path fill-rule="evenodd" clip-rule="evenodd" fill="#4B86BE" d="M3270,1036c0.666-0.006,1.332-0.011,1.998-0.015
		c75.334,36.005,150.668,72.01,226.002,108.015c0,12.667,0,25.333,0,38c-55.311,30.988-110.602,62.009-165.937,92.953
		c-39.402,22.035-78.813,44.056-118.316,65.91c-19.132,10.584-38.483,20.771-57.735,31.137c4.797-13.451,9.748-26.85,14.366-40.362
		c30.301-88.677,60.563-177.366,90.733-266.087c3.307-9.721,5.949-19.667,8.9-29.509L3270,1036z"/>
	<path fill-rule="evenodd" clip-rule="evenodd" fill="#1F6DB2" d="M3142.012,2302c-0.008,0.663-0.016,1.326-0.023,1.988
		c-29.933,28.273-59.866,56.545-89.797,84.819c-2.9,2.739-5.782,5.499-8.676,8.245c-29.838,28.316-59.677,56.632-89.516,84.947
		c-28.667,0-57.333,0-86,0c-1.363-3.39-2.55-6.862-4.115-10.155c-26.813-56.393-53.782-112.711-80.458-169.168
		c-8.21-17.375-15.647-35.115-23.438-52.688c0.001,0.001,0,0,0,0c3.642,0.226,7.314,0.221,10.92,0.712
		c41.979,5.722,83.941,11.574,125.924,17.278c36.739,4.992,73.503,9.8,110.246,14.761c42.313,5.713,84.615,11.504,126.922,17.261
		C3136.67,2300.667,3139.341,2301.334,3142.012,2302z"/>
	<path fill-rule="evenodd" clip-rule="evenodd" fill="#729CCC" d="M852,2482c-6.924-20.422-13.542-40.954-20.833-61.244
		c-18.43-51.289-37.137-102.479-55.781-153.689c-18.303-50.274-36.66-100.528-55.034-150.776c-0.555-1.518-1.563-2.869-2.358-4.298
		c-0.003-0.668-0.006-1.336-0.009-2.004c0,0.001,0.029,0.012,0.029,0.012c10.338,6.473,20.851,12.686,30.986,19.461
		c60.458,40.411,120.8,80.994,181.26,121.401c9.033,6.037,18.483,11.448,27.74,17.149c0,0.662,0,1.326,0,1.988
		c-1.389,27.43-2.628,54.867-4.202,82.285c-2.481,43.245-5.187,86.478-7.798,129.715C914.667,2482,883.333,2482,852,2482z"/>
	<path fill-rule="evenodd" clip-rule="evenodd" fill="#CEE0F1" d="M477.987,343.985l-0.995,0.006l-0.996-0.001
		c-4.987-21.295-9.629-42.678-15.022-63.869c-20.649-81.144-41.551-162.223-62.329-243.334C395.68,25.213,392.878,13.597,390,2
		c80,0,160,0,240,0c-10.393,24.116-20.578,48.325-31.221,72.331c-24.407,55.056-48.985,110.035-73.596,165.001
		C509.546,274.258,493.726,309.104,477.987,343.985z"/>
	<path fill-rule="evenodd" clip-rule="evenodd" fill="#B7D5EA" d="M2,1062c0-99.333,0-198.667,0-298
		c3.555,0.665,7.094,1.807,10.667,1.922c44.85,1.439,89.703,2.82,134.56,4.029c30.921,0.834,61.85,1.379,92.775,2.053
		c4.001,0.666,8.002,1.332,12.003,1.999c-1.78,2.79-3.343,5.749-5.373,8.344c-33.721,43.109-67.486,86.184-101.271,129.243
		c-27.029,34.448-54.198,68.787-81.107,103.328c-13.644,17.515-26.852,35.37-40.256,53.07C16.666,1065.992,9.333,1063.996,2,1062z"
		/>
	<path fill-rule="evenodd" clip-rule="evenodd" fill="#6995C6" d="M946,2482c2.611-43.237,5.316-86.47,7.798-129.715
		c1.574-27.418,2.813-54.855,4.202-82.285c0.668,0.004,1.336,0.008,2.004,0.012c22.947,13.81,45.712,27.934,68.88,41.364
		c45.828,26.565,91.992,52.552,137.798,79.155c31.711,18.418,63.045,37.485,94.566,56.23c17.565,10.447,35.17,20.828,52.758,31.238
		c-1.336,1.333-2.671,2.667-4.006,4C1188.667,2482,1067.333,2482,946,2482z"/>
	<path fill-rule="evenodd" clip-rule="evenodd" fill="#5787BD" d="M3498,1144c-75.334-36.005-150.668-72.01-226.002-108.015
		c14.732-14.376,29.277-28.95,44.253-43.069c13.281-12.521,27.264-24.299,40.543-36.823c29.02-27.372,57.646-55.161,86.714-82.481
		c17.897-16.821,36.311-33.093,54.492-49.611C3498,930.667,3498,1037.333,3498,1144z"/>
	<path fill-rule="evenodd" clip-rule="evenodd" fill="#437FBA" d="M3156.012,1372c19.252-10.366,38.604-20.553,57.735-31.137
		c39.503-21.854,78.914-43.875,118.316-65.91c55.335-30.944,110.626-61.965,165.937-92.953c0,68,0,136,0,204
		c-27.467-1.331-54.927-2.832-82.402-3.951c-36.772-1.496-73.553-2.851-110.339-3.986c-48.416-1.495-96.841-2.718-145.261-4.057
		c-1.329,0.002-2.658,0.004-3.986,0.006c0,0-0.023-0.04-0.023-0.039c0.006-0.657,0.01-1.315,0.012-1.973H3156.012z"/>
	<path fill-rule="evenodd" clip-rule="evenodd" fill="#2A76B7" d="M2608,2482c-26,0-52,0-78,0
		c-0.667-12.414-1.602-24.82-1.946-37.242c-0.827-29.784-1.638-59.573-1.964-89.365c-0.334-30.45-0.084-60.906-0.09-91.359
		c13.896-0.679,27.798-1.262,41.688-2.057c22.809-1.305,45.619-2.607,68.412-4.162c36.641-2.498,73.268-5.199,109.9-7.814
		c4,0,8,0,12,0c-24.631,38.285-49.192,76.614-73.91,114.843C2658.806,2403.946,2633.369,2442.951,2608,2482z"/>
	<path fill-rule="evenodd" clip-rule="evenodd" fill="#3B79B6" d="M3159.998,1374.006c48.42,1.339,96.845,2.562,145.261,4.057
		c36.786,1.136,73.566,2.49,110.339,3.986c27.476,1.119,54.936,2.62,82.402,3.951c0,66,0,132,0,198
		c-31.781-19.866-63.471-39.881-95.364-59.565c-59.868-36.95-119.849-73.717-179.792-110.543
		c-19.228-11.813-38.504-23.544-57.703-35.4C3163.23,1377.312,3161.703,1375.516,3159.998,1374.006z"/>
	<path fill-rule="evenodd" clip-rule="evenodd" fill="#84A1CF" d="M86,2482c15.547-37.098,31.016-74.229,46.662-111.284
		c23.026-54.534,46.177-109.017,69.279-163.519c14.017-33.068,28.042-66.132,42.063-99.197c0.663,2.493,1.851,4.973,1.911,7.48
		c0.788,32.87,1.472,65.742,2.07,98.616c0.731,40.192,1.286,80.388,2.05,120.579c0.542,28.549,1.233,57.096,1.99,85.641
		c0.545,20.564,1.309,41.123,1.975,61.684C198,2482,142,2482,86,2482z"/>
	<path fill-rule="evenodd" clip-rule="evenodd" fill="#2570B2" d="M2608,2482c25.369-39.049,50.806-78.054,76.09-117.157
		c24.718-38.229,49.279-76.558,73.91-114.843c0.663-0.005,1.326-0.009,1.988-0.012c7.791,17.573,15.229,35.313,23.438,52.688
		c26.676,56.457,53.645,112.775,80.458,169.168c1.565,3.293,2.752,6.766,4.115,10.155C2781.333,2482,2694.667,2482,2608,2482z"/>
	<path fill-rule="evenodd" clip-rule="evenodd" fill="#B2D3E8" d="M1151.994,29.994c0.002-0.665,0.004-1.33,0.006-1.995
		c11.396-1.686,22.772-3.523,34.192-5.027c33.39-4.396,66.812-8.544,100.19-13.022C1304.288,7.547,1322.13,4.665,1340,2
		c8.667,0,17.333,0,26,0c-9.413,14.803-18.466,29.849-28.3,44.365c-43.752,64.582-87.7,129.031-131.647,193.479
		c-7.845,11.503-16.026,22.776-24.053,34.155l-0.003-0.008c-0.656-4.577-1.405-9.144-1.955-13.734
		c-4.131-34.454-8.146-68.922-12.346-103.368C1162.538,114.582,1157.234,72.292,1151.994,29.994z"/>
	<path fill-rule="evenodd" clip-rule="evenodd" fill="#819BCB" d="M3498,70c-40.672-2.619-81.338-5.321-122.017-7.825
		c-25.149-1.548-50.328-2.621-75.474-4.215c-38.697-2.453-77.375-5.235-116.068-7.75c-23.486-1.527-46.992-2.729-70.48-4.228
		c-40.007-2.552-80.004-5.253-120.012-7.801c-5.307-0.338-10.646-0.141-15.972-0.191c0.008-0.664,0.011-1.329,0.011-1.993
		c0.001,0,0.023,0.011,0.023,0.011C3000.674,24.672,3023.337,13.336,3046,2c150.667,0,301.333,0,452,0
		C3498,24.667,3498,47.333,3498,70z"/>
	<path fill-rule="evenodd" clip-rule="evenodd" fill="#2F78B6" d="M2526,2264.033c0.006,30.453-0.244,60.909,0.09,91.359
		c0.326,29.792,1.137,59.581,1.964,89.365c0.345,12.422,1.279,24.828,1.946,37.242c-77.333,0-154.667,0-232,0
		c20.506-19.907,40.993-39.834,61.539-59.701c3.098-2.995,6.596-5.577,9.691-8.574c23.677-22.917,47.188-46.006,70.969-68.814
		c25.68-24.632,51.606-49.007,77.381-73.54c1.667-1.587,2.955-3.571,4.42-5.37c0.667-0.667,1.333-1.333,2-2
		c0.667-0.004,1.333-0.008,2-0.012V2264.033z"/>
	<path fill-rule="evenodd" clip-rule="evenodd" fill="#C2DBED" d="M240.002,772.004c-30.925-0.674-61.854-1.219-92.775-2.053
		c-44.857-1.209-89.71-2.59-134.56-4.029C9.094,765.807,5.555,764.665,2,764c0-64.667,0-129.333,0-194
		c4.637,2.315,9.899,3.867,13.812,7.068c31.515,25.78,62.705,51.957,94.133,77.846c40.893,33.686,81.768,67.397,123.025,100.634
		c6.684,5.384,15.305,8.362,23.031,12.452C250.668,769.335,245.335,770.669,240.002,772.004z"/>
	<path fill-rule="evenodd" clip-rule="evenodd" fill="#9DC2E1" d="M2,1740c0-102.667,0-205.333,0-308
		c7.331-2.002,14.661-4.004,21.992-6.006c1.336,0.667,2.671,1.334,4.007,2c-0.662,2.334-2.323,4.919-1.812,6.958
		c2.181,8.696,5.057,17.215,7.583,25.826c20.677,70.474,41.354,140.946,61.981,211.434c7.544,25.78,14.951,51.601,22.588,77.979
		c-2.736,0.784-4.536,1.3-6.336,1.815c-3.64-0.082-7.313,0.127-10.914-0.292C68.053,1747.872,35.028,1743.92,2,1740z"/>
	<path fill-rule="evenodd" clip-rule="evenodd" fill="#4D84BD" d="M1814,2482c-106,0-212,0-318,0
		c-1.331-11.332-2.663-22.664-3.994-33.995c21.539-3.331,43.05-6.861,64.624-9.952c40.267-5.768,80.577-11.225,120.854-16.918
		c39.951-5.646,79.895-11.354,119.82-17.176c16.926-2.469,33.799-5.295,50.696-7.959c0.667-0.002,1.333-0.005,2-0.007l0.997,0.001
		l0.997-0.006l0.034,0.023C1839.352,2424.674,1826.676,2453.337,1814,2482z"/>
	<path fill-rule="evenodd" clip-rule="evenodd" fill="#97BBDE" d="M2,1740c33.028,3.92,66.053,7.872,99.09,11.715
		c3.601,0.419,7.274,0.21,10.914,0.292c2.667,0.664,5.333,1.329,8,1.993C88.003,1838.995,56,1923.989,24.002,2008.985
		c-5.978,15.879-11.87,31.79-17.982,47.617c-0.778,2.016-2.653,3.608-4.02,5.397C2,1954.667,2,1847.333,2,1740z"/>
	<path fill-rule="evenodd" clip-rule="evenodd" fill="#1963AB" d="M2954,2482c29.839-28.315,59.678-56.631,89.516-84.947
		c2.894-2.746,5.775-5.506,8.676-8.245c29.931-28.274,59.864-56.546,89.797-84.819c0.671,3.338,1.342,6.675,2.012,10.012
		c0.732,16.838,1.205,33.691,2.251,50.51c2.436,39.172,5.148,78.328,7.749,117.49C3087.333,2482,3020.667,2482,2954,2482z"/>
	<path fill-rule="evenodd" clip-rule="evenodd" fill="#93BADD" d="M2326,249.999c-0.004,0.663-0.008,1.326-0.012,1.989
		c-0.658,0.009-1.317,0.014-1.977,0.016l-0.045-0.018c0.01-1.33,0.021-2.659,0.031-3.988c-0.666-3.333-1.332-6.666-1.998-9.999
		c-0.676-37.87-1.121-75.746-2.092-113.608C2318.861,83.587,2317.323,42.796,2316,2c41.333,0,82.667,0,124,0
		c-30.192,65.083-60.444,130.138-90.537,195.266C2341.394,214.729,2333.808,232.415,2326,249.999z"/>
	<path fill-rule="evenodd" clip-rule="evenodd" fill="#8FB5DB" d="M2326,249.999c7.808-17.584,15.394-35.271,23.463-52.733
		C2379.556,132.138,2409.808,67.083,2440,2c39.333,0,78.667,0,118,0c-17.451,19.117-34.688,38.438-52.4,57.31
		c-35.24,37.547-70.877,74.723-106.088,112.297c-22.015,23.491-43.523,47.456-65.34,71.135
		C2331.716,245.407,2328.736,247.592,2326,249.999z"/>
	<path fill-rule="evenodd" clip-rule="evenodd" fill="#145DA5" d="M3154,2482c-2.601-39.162-5.313-78.318-7.749-117.49
		c-1.046-16.818-1.519-33.672-2.251-50.51c0.416-2.354,0.832-4.708,1.576-8.919c16.21,18.851,30.991,36.177,45.922,53.374
		c33.475,38.559,67.032,77.044,100.517,115.594c2.17,2.498,3.998,5.294,5.985,7.951C3250,2482,3202,2482,3154,2482z"/>
	<path fill-rule="evenodd" clip-rule="evenodd" fill="#ADD0E8" d="M2,1062c7.333,1.996,14.666,3.992,21.998,5.988
		c0,0.001,0.002,0.018,0.002,0.018c-0.667,4.551-1.938,9.106-1.91,13.654c0.544,88.464,1.283,176.928,1.879,265.392
		c0.173,25.647,0.028,51.298,0.028,76.947l-0.008-0.005c-2.653-2.356-5.448-4.573-7.928-7.1C11.28,1412.022,6.677,1406.975,2,1402
		C2,1288.667,2,1175.333,2,1062z"/>
	<path fill-rule="evenodd" clip-rule="evenodd" fill="#427DB9" d="M1814,2482c12.676-28.663,25.352-57.326,38.027-85.988
		c0.659-0.008,1.318-0.012,1.979-0.012c35.271,27.296,70.549,54.586,105.797,81.912c1.534,1.188,2.805,2.717,4.197,4.088
		C1914,2482,1864,2482,1814,2482z"/>
	<path fill-rule="evenodd" clip-rule="evenodd" fill="#8DABD6" d="M2,2148c1.987,13.301,4.745,26.539,5.823,39.912
		c3.725,46.194,6.755,92.444,10.259,138.657c3.178,41.911,6.654,83.799,9.941,125.702c0.777,9.9,1.325,19.818,1.978,29.729
		c-9.333,0-18.667,0-28,0C2,2370.667,2,2259.333,2,2148z"/>
	<path fill-rule="evenodd" clip-rule="evenodd" fill="#ADCFE8" d="M1809.978,23.984c-17.837-1.312-35.656-2.951-53.514-3.864
		c-31.479-1.608-62.998-2.455-94.469-4.202c-41.362-2.297-82.684-5.31-124.041-7.705c-19.218-1.113-38.496-1.197-57.713-2.315
		C1466.133,5.076,1452.078,3.332,1438,2c126,0,252,0,378,0c-2.004,7.33-4.008,14.66-6.011,21.99L1809.978,23.984z"/>
	<path fill-rule="evenodd" clip-rule="evenodd" fill="#88ABD6" d="M2977.988,35.997c0,0.664-0.003,1.329-0.011,1.993
		c-0.657,0.004-1.313,0.01-1.97,0.018c-28.003,4.663-56.005,9.327-84.008,13.991c-22.111-12.391-44.284-24.675-66.3-37.233
		c-6.786-3.87-13.146-8.489-19.7-12.766c26,0,52,0,78,0c30,11.333,60,22.666,90,33.999
		C2975.33,35.998,2976.659,35.998,2977.988,35.997z"/>
	<path fill-rule="evenodd" clip-rule="evenodd" fill="#1158A0" d="M3492,2482c-0.678-31.844-1.292-63.688-2.054-95.529
		c-0.547-22.871-1.358-45.735-1.933-68.605c-1.384-55.043-2.646-110.09-4.104-165.131c-0.184-6.923-1.241-13.823-1.895-20.734
		c2.073,0.838,4.797,1.114,6.097,2.619c3.612,4.188,6.633,8.885,9.888,13.381c0,111.333,0,222.667,0,334
		C3496,2482,3494,2482,3492,2482z"/>
	<path fill-rule="evenodd" clip-rule="evenodd" fill="#5A8ABF" d="M1310,2482c1.335-1.333,2.67-2.667,4.006-4
		c0.661,0,1.322-0.004,1.983-0.012c24.754-4.354,49.495-8.786,74.266-13.044c33.239-5.715,66.503-11.295,99.757-16.933
		c-4.004,11.329-8.008,22.658-12.012,33.988C1422,2482,1366,2482,1310,2482z"/>
	<path fill-rule="evenodd" clip-rule="evenodd" fill="#BCD9EB" d="M1340,2c-17.87,2.665-35.712,5.547-53.617,7.949
		c-33.379,4.479-66.801,8.626-100.19,13.022c-11.42,1.504-22.796,3.342-34.192,5.027c-0.665-2-1.33-4-1.994-5.999
		c-1.336-6.667-2.671-13.333-4.006-20C1210.667,2,1275.333,2,1340,2z"/>
	<path fill-rule="evenodd" clip-rule="evenodd" fill="#8EB0D8" d="M2974,35.999c-30-11.333-60-22.666-90-33.999c24,0,48,0,72,0
		C2962,13.333,2968,24.666,2974,35.999z"/>
	<path fill-rule="evenodd" clip-rule="evenodd" fill="#8CAAD5" d="M2974,35.999c-6-11.333-12-22.666-18-33.999c18,0,36,0,54,0
		c-10.663,11.336-21.326,22.672-31.988,34.008c0,0-0.022-0.011-0.023-0.011C2976.659,35.998,2975.33,35.998,2974,35.999z"/>
	<path fill-rule="evenodd" clip-rule="evenodd" fill="#86A0CD" d="M2978.012,36.008C2988.674,24.672,2999.337,13.336,3010,2
		c12,0,24,0,36,0C3023.337,13.336,3000.674,24.672,2978.012,36.008z"/>
	<path fill-rule="evenodd" clip-rule="evenodd" fill="#ABCDE7" d="M2,1402c4.677,4.975,9.28,10.022,14.062,14.895
		c2.479,2.526,5.275,4.743,7.928,7.1c0.005,0.667,0.005,1.334,0.002,2C16.661,1427.996,9.331,1429.998,2,1432C2,1422,2,1412,2,1402z
		"/>
	<path fill-rule="evenodd" clip-rule="evenodd" fill="#5481B8" d="M1478,2482c4.004-11.33,8.008-22.659,12.011-33.988
		c0.663-0.014,1.326-0.029,1.989-0.045l0.006,0.038c1.331,11.331,2.663,22.663,3.994,33.995C1490,2482,1484,2482,1478,2482z"/>
	<path fill-rule="evenodd" clip-rule="evenodd" fill="#C6DDEE" d="M1146,2c1.335,6.667,2.67,13.333,4.006,20
		c-1.055,0.566-2.735,1.875-3.07,1.592C1138.537,16.497,1130.281,9.233,1122,2C1130,2,1138,2,1146,2z"/>
	<path fill-rule="evenodd" clip-rule="evenodd" fill="#2466A8" d="M3483.988,2126c4.671-12,9.342-24,14.012-36
		c0,11.333,0,22.667,0,34c-4.002,0.677-8.005,1.354-12.008,2.029C3485.324,2126.02,3484.656,2126.01,3483.988,2126z"/>
	<path fill-rule="evenodd" clip-rule="evenodd" fill="#A2C7E4" d="M1809.989,23.99c2.003-7.33,4.007-14.66,6.011-21.99
		c6,0,12,0,18,0C1825.996,9.33,1817.992,16.66,1809.989,23.99z"/>
	<path fill-rule="evenodd" clip-rule="evenodd" fill="#175A9F" d="M3485.992,2126.029c4.003-0.676,8.006-1.353,12.008-2.029
		c0,8,0,16,0,24c-3.255-4.496-6.275-9.193-9.888-13.381c-1.3-1.505-4.023-1.781-6.097-2.619c-0.001-1.33-0.003-2.659-0.004-3.988
		c-0.001-0.001,0,0,0,0C3483.338,2127.351,3484.665,2126.69,3485.992,2126.029z"/>
	<path fill-rule="evenodd" clip-rule="evenodd" fill="#3783BF" d="M3156.012,1374.012
		c-24.676,104.024-49.318,208.057-74.037,312.071c-23.03,96.914-46.139,193.81-69.221,290.711
		c-4.228,17.743-8.494,35.479-12.742,53.217c0,0.001-0.012-0.011-0.012-0.011c-8.24-6.141-16.571-12.163-24.705-18.441
		c-40.168-31.005-80.339-62.007-120.402-93.146c-38.222-29.709-76.303-59.6-114.463-89.388
		c-37.116-28.973-74.176-58.018-111.414-86.833c-20.173-15.611-40.666-30.808-61.016-46.191c0-0.665,0-1.33,0-1.994
		c47.22-25.946,94.385-51.993,141.677-77.809c40.879-22.315,81.951-44.277,122.85-66.558
		c56.666-30.868,113.263-61.862,169.863-92.851c32.966-18.049,65.806-36.327,98.846-54.238c18.097-9.811,36.493-19.07,54.753-28.579
		L3156.012,1374.012z"/>
	<path fill-rule="evenodd" clip-rule="evenodd" fill="#B7D4E9" d="M477.999,345.998c0-0.666,0.001-1.331,0.003-1.996
		c1.334,0.001,2.667,0.002,4,0.002c21.103,6.867,42.089,14.119,63.333,20.514c35.918,10.813,72.068,20.859,107.993,31.652
		c31.726,9.532,63.218,19.839,94.92,29.45c43.816,13.282,87.688,26.392,131.635,39.236c14.548,4.253,29.402,7.459,44.117,11.144
		c0.001,0.668,0.002,1.335,0.003,2.003c-28.452,25.449-56.938,50.861-85.345,76.361c-21.497,19.3-42.797,38.819-64.356,58.05
		c-34.677,30.93-69.559,61.631-104.234,92.563c-27.255,24.313-54.266,48.897-81.496,73.237
		c-35.884,32.075-71.827,64.084-107.838,96.018c-24.829,22.018-49.814,43.858-74.73,65.779L406,939.991
		c1.453-15.175,2.583-30.39,4.42-45.519c5.712-47.029,11.822-94.011,17.528-141.041c4.949-40.786,9.316-81.645,14.382-122.417
		c6.291-50.633,13.183-101.19,19.54-151.814C467.443,434.824,472.638,390.4,477.999,345.998z"/>
	<path fill-rule="evenodd" clip-rule="evenodd" fill="#B8D4EA" d="M924,476c-14.715-3.685-29.569-6.891-44.117-11.144
		c-43.947-12.845-87.818-25.954-131.635-39.236c-31.702-9.611-63.194-19.918-94.92-29.45
		c-35.925-10.793-72.075-20.839-107.993-31.652c-21.244-6.395-42.23-13.646-63.333-20.514c28.292,3.085,56.585,6.154,84.874,9.259
		c26.324,2.89,52.644,5.817,78.965,8.729c28.615,3.166,57.226,6.379,85.847,9.489c26.658,2.896,53.337,5.617,79.992,8.54
		c27.961,3.066,55.897,6.355,83.86,9.398c15.469,1.684,30.971,3.062,46.457,4.577c0.67,0.003,1.341,0.007,2.011,0.01
		C937.339,421.338,930.669,448.669,924,476z"/>
	<path fill-rule="evenodd" clip-rule="evenodd" fill="#87ADD7" d="M246.005,2104c-2-0.663-4.001-1.326-6.002-1.988
		c3.705-2.193,8.805-3.479,10.911-6.713c49.259-75.673,98.186-151.563,147.199-227.397c9.91-15.333,19.921-30.603,29.885-45.901H428
		c0.666,0,1.332,0,1.999,0c16.938,17.271,33.679,34.743,50.852,51.779c60.211,59.729,120.557,119.324,180.884,178.938
		c18.705,18.484,37.513,36.866,56.274,55.295c0,0.662,0.002,1.325,0.005,1.988c0,0-0.029-0.011-0.029-0.012
		C560.657,2107.992,403.331,2105.996,246.005,2104z"/>
	<path fill-rule="evenodd" clip-rule="evenodd" fill="#B8D6EA" d="M477.999,345.998c-5.361,44.402-10.556,88.826-16.129,133.202
		c-6.357,50.624-13.249,101.182-19.54,151.814c-5.065,40.772-9.433,81.631-14.382,122.417
		c-5.706,47.03-11.816,94.012-17.528,141.041c-1.837,15.129-2.967,30.344-4.42,45.52c-4.108-3.174-8.812-5.811-12.229-9.605
		c-26.602-29.543-52.987-59.279-79.372-89.017c-14.068-15.855-27.828-31.989-42.077-47.68c-6.327-6.967-13.518-13.149-20.316-19.688
		c-4.001-0.667-8.002-1.333-12.003-1.999c5.333-1.335,10.667-2.669,16-4.004c7.056-12.783,14.381-25.428,21.123-38.375
		c28.583-54.889,56.881-109.924,85.492-164.798c37.372-71.676,74.936-143.252,112.452-214.854
		C475.824,348.532,477.013,347.318,477.999,345.998z"/>
	<path fill-rule="evenodd" clip-rule="evenodd" fill="#5895C8" d="M3269.988,1034c0.004,0.667,0.008,1.333,0.012,2l0.012,0.042
		c-26.188,11.411-52.383,22.808-78.563,34.237c-58.755,25.65-117.469,51.395-176.261,76.958
		c-58.788,25.562-117.609,51.047-176.507,76.354c-16.727,7.187-33.771,13.63-50.67,20.415c-0.972-9.227-1.854-18.464-2.93-27.678
		c-3.654-31.264-7.467-62.51-11.047-93.782c-3.619-31.607-6.936-63.249-10.568-94.855c-3.707-32.254-7.549-64.492-11.505-96.717
		c-2.498-20.351-5.312-40.662-7.984-60.991c0.021-0.66,0.028-1.321,0.023-1.981c10.262,2.646,20.681,4.797,30.759,8.015
		c74.794,23.879,149.536,47.917,224.262,72.007c86.447,27.869,172.854,55.86,259.307,83.711
		C3262.07,1032.938,3266.096,1033.265,3269.988,1034z"/>
	<path fill-rule="evenodd" clip-rule="evenodd" fill="#6398C9" d="M3269.988,1034c-3.893-0.735-7.918-1.062-11.66-2.267
		c-86.452-27.851-172.859-55.842-259.307-83.711c-74.726-24.09-149.468-48.128-224.262-72.007
		c-10.078-3.218-20.497-5.369-30.759-8.016c-0.003-0.66,0-1.321,0.011-1.981c1.327-0.677,2.655-1.354,3.982-2.03
		c46.243-39.242,92.551-78.408,138.708-117.752c39.855-33.972,79.538-68.146,119.298-102.23c0.667,0.002,1.333,0.005,2,0.008
		c4.664,7.989,8.899,16.267,14.058,23.923c47.222,70.08,94.61,140.048,141.936,210.058c33.352,49.34,66.675,98.697,100.038,148.028
		C3265.889,1028.769,3267.997,1031.345,3269.988,1034z"/>
	<path fill-rule="evenodd" clip-rule="evenodd" fill="#7CA2D1" d="M3110,406c1.334,3.996,2.667,7.992,4,11.987v0.014
		c-0.666,0.667-1.333,1.334-2,2c-3.146,0.906-6.494,1.39-9.408,2.782c-35.909,17.162-71.713,34.544-107.637,51.677
		c-15.539,7.411-31.289,14.378-46.943,21.547c-0.001,0-0.012-0.021-0.012-0.021c-0.002-0.663-0.005-1.325-0.012-1.987
		c-2.667-21.702-5.318-43.405-8.005-65.104c-3.542-28.61-7.085-57.222-10.674-85.826c-4.413-35.174-8.852-70.345-13.321-105.512
		c-4.302-33.856-8.778-67.691-12.949-101.563C2899.841,110.019,2897,84,2894,58.001c1.73,1.456,3.992,2.588,5.112,4.418
		c14.239,23.262,28.268,46.652,42.438,69.956c46.142,75.877,92.241,151.78,138.549,227.557
		C3089.642,375.547,3100.012,390.657,3110,406z"/>
	<path fill-rule="evenodd" clip-rule="evenodd" fill="#81A4D2" d="M3110,406c-9.988-15.343-20.358-30.453-29.9-46.068
		c-46.308-75.776-92.407-151.68-138.549-227.557c-14.171-23.304-28.199-46.694-42.438-69.956c-1.12-1.83-3.382-2.962-5.112-4.418
		c-0.666-1.999-1.333-3.998-2-5.997v-0.005c28.003-4.664,56.005-9.328,84.008-13.991c24.732,67.48,49.541,134.933,74.173,202.449
		c19.387,53.141,38.555,106.36,57.819,159.544c0.663,0.666,1.326,1.332,1.988,1.998C3109.992,403.332,3109.996,404.666,3110,406z"/>
	<path fill-rule="evenodd" clip-rule="evenodd" fill="#7CA2D1" d="M3109.988,401.999c-0.662-0.666-1.325-1.332-1.988-1.998
		C3108.663,400.667,3109.326,401.333,3109.988,401.999z"/>
	<path fill-rule="evenodd" clip-rule="evenodd" fill="#96BEDF" d="M120.004,1754c-2.667-0.664-5.333-1.329-8-1.993
		c1.8-0.516,3.6-1.031,6.336-1.815c-7.637-26.379-15.044-52.199-22.588-77.979c-20.627-70.487-41.305-140.96-61.981-211.434
		c-2.527-8.611-5.403-17.13-7.583-25.826c-0.511-2.039,1.15-4.624,1.812-6.958c21.744,7.154,43.458,14.4,65.24,21.434
		c19.547,6.313,39.169,12.391,58.758,18.572c1.334,0.665,2.668,1.33,4.002,1.995c0.666,0.005,1.333,0.006,1.999,0.005
		c1.334,0.665,2.667,1.33,4.001,1.995c0.667,0.005,1.333,0.006,1.999,0.005c1.333,0.665,2.667,1.33,4.001,1.995
		c0.667,0.005,1.333,0.006,1.999,0.005c1.333,0.665,2.667,1.33,4.001,1.994c0.667,0.005,1.333,0.007,1.999,0.006
		c1.333,0.665,2.667,1.33,4.001,1.995c0.667,0.005,1.333,0.006,1.999,0.005c1.333,0.665,2.667,1.33,4.001,1.995
		c0.667,0.005,1.333,0.006,1.999,0.005c1.333,0.665,2.667,1.33,4.001,1.994c0.667,0.005,1.333,0.007,1.999,0.006
		c1.333,0.665,2.667,1.33,4.001,1.994c0.667,0.005,1.333,0.007,1.999,0.006c1.333,0.665,2.667,1.33,4.001,1.994
		c0.667,0.005,1.333,0.007,1.999,0.006c1.333,0.665,2.667,1.33,4,1.994c0.667,0.005,1.333,0.007,2,0.006
		c1.333,0.665,2.667,1.33,4,1.994c0.667,0.002,1.333,0.004,2,0.006c1.333,0.665,2.667,1.33,4,1.994c0.667,0.002,1.333,0.004,2,0.006
		c1.333,0.665,2.667,1.33,4,1.994c0.667,0.005,1.333,0.007,2,0.006c1.333,0.665,2.667,1.33,4,1.994c0.667,0.005,1.333,0.007,2,0.006
		c1.333,0.665,2.667,1.33,4,1.994c0.667,0.005,1.333,0.007,2,0.006c1.333,0.665,2.667,1.33,4,1.994
		c1.332,0.003,2.664,0.006,3.996,0.008c1.335,0.666,2.67,1.332,4.005,1.998c2,0.667,4,1.333,6,2h-0.001c2,0.667,4,1.333,6.001,2
		c2,0.667,4,1.333,6,2c0.665,0.002,1.33,0.002,1.995,0.002c1.335,0.666,2.67,1.332,4.005,1.998c0.665,0.002,1.33,0.002,1.995,0.002
		c1.335,0.666,2.67,1.332,4.005,1.998c0.665,0.002,1.33,0.002,1.995,0.002c1.335,0.666,2.67,1.332,4.004,1.998
		c0.666,0.002,1.331,0.002,1.996,0.002c1.335,0.666,2.67,1.332,4.004,1.998c0.666,0.002,1.331,0.002,1.996,0.002
		c1.334,0.666,2.669,1.332,4.004,1.998c0.665,0.002,1.33,0.002,1.995,0.002c1.335,0.666,2.67,1.332,4.005,1.998
		c0.665,0.002,1.33,0.002,1.995,0.002c1.335,0.666,2.67,1.332,4.005,1.998c0.665,0.002,1.33,0.002,1.995,0.002
		c1.335,0.666,2.67,1.332,4.005,1.998c0.665,0.002,1.33,0.002,1.995,0.002c1.335,0.666,2.67,1.332,4.005,1.998
		c0.665,0.001,1.331,0.002,1.996,0.002c1.335,0.665,2.669,1.331,4.004,1.996l0.998,0.002h0.999c1.334,0.667,2.668,1.334,4.003,2
		h0.998h0.998c1.335,0.666,2.669,1.332,4.004,1.998l0.998,0.002h0.999c1.334,0.667,2.668,1.333,4.003,2h0.998h0.998
		c1.335,0.667,2.669,1.333,4.004,2h0.998h0.998c1.335,0.667,2.669,1.333,4.004,2h0.998h0.998c1.335,0.667,2.669,1.333,4.004,2
		c0.665,0.001,1.331,0.002,1.996,0.002c1.335,0.665,2.669,1.331,4.004,1.996l0.999,0.002h0.998c1.335,0.666,2.669,1.332,4.003,1.998
		l0.998,0.002h0.999c1.334,0.667,2.669,1.333,4.003,2h0.998h0.998c1.335,0.667,2.669,1.333,4.004,2h0.998h0.999
		c1.334,0.666,2.668,1.332,4.003,1.998l0.999,0.002h0.998c1.334,0.665,2.668,1.33,4.002,1.995c0.667,0.005,1.333,0.006,1.999,0.005
		c1.334,0.665,2.668,1.33,4.001,1.995c0.667,0.005,1.333,0.006,1.999,0.005c1.334,0.665,2.668,1.33,4.001,1.995
		c0.667,0.005,1.333,0.006,1.999,0.005c1.334,0.665,2.668,1.33,4.001,1.994c0.667,0.005,1.333,0.007,1.999,0.006
		c1.334,0.665,2.668,1.33,4.002,1.995c0.666,0.005,1.332,0.006,1.998,0.005c1.334,0.665,2.668,1.33,4.002,1.995
		c0.666,0.005,1.332,0.006,1.998,0.005c1.334,0.665,2.668,1.33,4.001,1.994c0.667,0.005,1.333,0.007,1.999,0.006
		c1.334,0.665,2.668,1.33,4.001,1.994c0.667,0.005,1.333,0.007,1.999,0.006c1.334,0.665,2.668,1.33,4.001,1.994
		c0.667,0.005,1.333,0.007,1.999,0.006c1.334,0.665,2.667,1.329,4.001,1.994c0.666,0.005,1.333,0.007,1.999,0.006
		c1.334,0.665,2.667,1.33,4.001,1.994c0.667,0.002,1.334,0.004,2.001,0.006c1.333,0.665,2.666,1.329,3.999,1.994
		c0.667,0.002,1.334,0.004,2,0.006c1.334,0.665,2.667,1.33,4,1.994c0.667,0.005,1.333,0.007,2,0.006c1.333,0.665,2.667,1.33,4,1.994
		c0.666,0.005,1.333,0.007,1.999,0.006c1.334,0.665,2.667,1.329,4.001,1.994c0.667,0.005,1.333,0.007,2,0.006
		c1.333,0.665,2.667,1.33,4,1.994c1.332,0.003,2.664,0.006,3.996,0.008c1.336,0.666,2.671,1.332,4.006,1.998c2,0.667,4,1.333,6,2
		h-0.001c2,0.667,4.001,1.333,6.001,2s4,1.333,6,2c0,0.667,0,1.333,0,2c-53.082,21.219-106.238,42.255-159.226,63.709
		c-50.841,20.586-101.52,41.573-152.244,62.447c-28.871,11.881-57.689,23.888-86.532,35.838
		C121.333,1753.997,120.668,1753.999,120.004,1754z"/>
	<path fill-rule="evenodd" clip-rule="evenodd" fill="#8FB9DD" d="M121.999,1753.994c28.842-11.95,57.661-23.957,86.532-35.838
		c50.724-20.874,101.403-41.861,152.244-62.447c52.987-21.454,106.144-42.49,159.226-63.709c0,0.667,0,1.333,0,2
		c-1.22,1.94-2.771,3.747-3.611,5.84c-21.236,52.909-42.534,105.794-63.506,158.808C444.855,1778.94,437.604,1799.54,430,1820v0.006
		c-0.667,0.664-1.334,1.329-2,1.994h-0.003c-41.415-9.308-82.812-18.705-124.251-27.902
		C243.18,1780.654,182.583,1767.355,121.999,1753.994z"/>
	<path fill-rule="evenodd" clip-rule="evenodd" fill="#317EBC" d="M2568,1696c20.35,15.384,40.843,30.58,61.016,46.191
		c37.238,28.815,74.298,57.86,111.414,86.833c38.16,29.788,76.241,59.679,114.463,89.388c40.063,31.14,80.234,62.142,120.402,93.146
		c8.134,6.278,16.465,12.301,24.705,18.441c0,0.667,0,1.333,0,2c-44.082,39.748-88.151,79.511-132.252,119.238
		c-18.723,16.865-37.646,33.51-56.229,50.527c-17.349,15.887-34.367,32.135-51.531,48.223c0,0,0.001,0.001,0,0
		c-0.662,0.003-1.325,0.007-1.988,0.012c-4,0-8,0-12,0c3.361-1.081,6.723-2.162,10.829-3.482c-1.114-3.736-2.088-7.547-3.38-11.248
		c-9.074-25.987-18.365-51.9-27.287-77.938c-8.487-24.769-16.396-49.734-24.949-74.479c-10.749-31.094-22.085-61.984-32.823-93.081
		c-13.636-39.489-26.794-79.143-40.396-118.644c-19.887-57.749-39.985-115.426-59.993-173.134
		C2567.999,1697.33,2567.999,1696.665,2568,1696z"/>
	<path fill-rule="evenodd" clip-rule="evenodd" fill="#216DB1" d="M3142.012,2302c-2.671-0.666-5.342-1.333-8.012-2
		c2.121-0.309,4.243-0.617,7.316-1.064c-47.428-89.588-94.372-178.262-141.316-266.936c21.217,3.633,42.519,6.834,63.635,10.98
		c61.793,12.134,123.498,24.723,185.266,36.984c54.957,10.91,109.958,21.599,164.931,32.428c22.742,4.48,45.462,9.076,68.191,13.619
		c-0.004,0.666-0.008,1.333-0.011,2c0,0-0.001-0.001,0,0c-65.741,33.532-131.51,67.009-197.213,100.615
		C3237.158,2252.996,3189.604,2277.537,3142.012,2302z"/>
	<path fill-rule="evenodd" clip-rule="evenodd" fill="#1761A8" d="M3482.012,2128.012c0.003-0.667,0.007-1.334,0.011-2
		c0.655-0.002,1.312-0.006,1.966-0.012c0.668,0.01,1.336,0.02,2.004,0.029C3484.665,2126.69,3483.338,2127.351,3482.012,2128.012z"
		/>
	<path fill-rule="evenodd" clip-rule="evenodd" fill="#9EC7E3" d="M1692,298.005c5.327,0.662,10.655,1.325,15.982,1.988l0.019,0.007
		c-0.667,1.999-1.335,3.998-2.002,5.998c-1.019,2.056-2.215,4.044-3.028,6.178c-26.735,70.125-53.479,140.246-80.123,210.405
		c-21.688,57.111-43.249,114.271-64.867,171.407c-0.66-0.66-1.32-1.321-1.98-1.982c-3.693-4.686-7.142-9.59-11.118-14.021
		c-36.119-40.247-72.305-80.436-108.523-120.594c-32.427-35.954-64.927-71.843-97.384-107.771
		c-36.226-40.099-72.539-80.119-108.613-120.354C1214.649,311.742,1199.438,293.77,1184,276c40.138,1.35,80.281,2.557,120.412,4.097
		c27.832,1.067,55.645,2.633,83.47,3.904c44.728,2.044,89.458,4.02,134.188,6.044c28.821,1.305,57.643,2.624,86.463,3.975
		C1636.355,295.322,1664.177,296.674,1692,298.005z"/>
	<path fill-rule="evenodd" clip-rule="evenodd" fill="#A4CCE3" d="M1184,276c15.438,17.77,30.649,35.742,46.361,53.267
		c36.074,40.235,72.388,80.256,108.613,120.354c32.457,35.928,64.957,71.816,97.384,107.771
		c36.219,40.158,72.404,80.347,108.523,120.594c3.977,4.431,7.425,9.335,11.118,14.021c-1.332-0.006-2.664-0.012-3.997-0.018
		c-0.67-0.66-1.34-1.32-2.01-1.98c-3.496-1.063-7.045-1.979-10.481-3.211c-77.31-27.722-154.634-55.405-231.897-83.255
		c-42.852-15.445-85.545-31.327-128.406-46.743c-45.673-16.428-91.46-32.538-137.196-48.787c-0.002-0.669-0.004-1.338-0.006-2.008
		c0.664-0.738,1.468-1.394,1.972-2.229c35.237-58.39,70.524-116.749,105.622-175.223c10.413-17.349,20.287-35.021,30.407-52.546
		l-0.001,0.001c0.664-0.008,1.329-0.01,1.994-0.008C1182.667,276,1183.333,276,1184,276z"/>
	<path fill-rule="evenodd" clip-rule="evenodd" fill="#B0D1E7" d="M1182,276c-0.665-0.002-1.33,0-1.994,0.008
		c0.664-0.672,1.327-1.344,1.991-2.016L1182,274C1182,274.667,1182,275.333,1182,276z"/>
	<path fill-rule="evenodd" clip-rule="evenodd" fill="#418AC3" d="M1854.006,2396c-0.66,0-1.319,0.004-1.979,0.012
		c0.001,0-0.033-0.023-0.033-0.023c0.002-0.66-0.002-1.32-0.011-1.98c-0.658-5.921-1.291-11.844-1.979-17.761
		c-3.059-26.308-6.099-52.618-9.213-78.92c-2.882-24.334-5.888-48.653-8.772-72.987c-3.742-31.563-7.402-63.137-11.128-94.701
		c-3.608-30.582-7.276-61.156-10.879-91.738c-3.679-31.239-7.345-62.479-10.949-93.728c-2.389-20.716-4.659-41.445-6.984-62.169
		c3.676,1.514,7.502,2.742,11.006,4.584c62.118,32.648,124.13,65.501,186.309,98.034c45.338,23.721,90.978,46.866,136.313,70.593
		c39.167,20.498,77.997,41.644,117.158,62.154c45.032,23.586,90.321,46.684,135.397,70.188
		c48.629,25.356,97.141,50.938,145.705,76.421L2524,2264c-0.667,0.667-1.333,1.333-2,2c-26.756,4.825-53.568,9.358-80.258,14.528
		c-98.37,19.054-196.701,38.314-295.046,57.504c-62.529,12.201-125.053,24.43-187.585,36.614
		c-33.212,6.471-66.439,12.859-99.647,19.35C1857.586,2394.363,1855.822,2395.318,1854.006,2396z"/>
	<path fill-rule="evenodd" clip-rule="evenodd" fill="#6E9FCD" d="M3006,644.006c-39.76,34.085-79.442,68.259-119.298,102.23
		c-46.157,39.344-92.465,78.51-138.708,117.753c1.66-3.976,2.98-8.135,5.032-11.896c18.796-34.469,37.662-68.899,56.613-103.282
		c46.09-83.621,92.236-167.21,138.36-250.813c0.969,1.333,2.279,2.532,2.856,4.017c10.125,26.039,20.041,52.159,30.253,78.164
		c8.121,20.678,16.581,41.222,24.891,61.824C3006,642.671,3006,643.338,3006,644.006z"/>
	<path fill-rule="evenodd" clip-rule="evenodd" fill="#739ECD" d="M3006,642.003c-8.31-20.603-16.77-41.146-24.891-61.824
		c-10.212-26.005-20.128-52.125-30.253-78.164c-0.577-1.484-1.888-2.684-2.856-4.016c0.002-0.664,0.005-1.328,0.012-1.992
		c15.654-7.169,31.404-14.136,46.943-21.547c35.924-17.133,71.728-34.515,107.637-51.677c2.914-1.393,6.262-1.876,9.408-2.782
		c-0.91,3.154-1.39,6.517-2.797,9.432c-21.682,44.931-43.57,89.763-65.223,134.709c-10.098,20.961-19.721,42.15-29.726,63.157
		C3011.844,632.362,3008.77,637.11,3006,642.003z"/>
	<path fill-rule="evenodd" clip-rule="evenodd" fill="#739ECD" d="M3112,420.001c0.667-0.666,1.334-1.333,2-2
		C3113.333,418.668,3112.666,419.335,3112,420.001z"/>
	<path fill-rule="evenodd" clip-rule="evenodd" fill="#95BFE0" d="M1812,32.002c0.262-1.567,0.523-3.135,1.034-6.196
		c15.365,6.545,29.957,12.609,44.425,18.954c33.106,14.518,66.223,29.018,99.208,43.808c57.87,25.946,115.571,52.27,173.481,78.127
		c54.157,24.183,108.486,47.979,162.756,71.91c10.315,4.549,20.707,8.926,31.063,13.382l0.045,0.018c-0.001,0.668,0,1.335,0,2.002
		c-0.001,0-0.034-0.024-0.034-0.024c-6.257,0.646-12.534,1.139-18.768,1.962c-46.317,6.113-92.648,12.124-138.93,18.498
		c-45.621,6.283-91.173,13.069-136.784,19.425c-53.814,7.498-107.659,14.771-161.491,22.142c-0.665-0.002-1.329-0.003-1.993-0.002
		c-4.004-0.668-8.008-1.336-12.012-2.003c3.127-0.317,6.254-0.634,9.731-0.986c0-2.882,0.263-4.564-0.038-6.14
		c-13.564-71.061-27.241-142.1-40.744-213.172C1819.05,73.185,1815.636,52.572,1812,32.002z"/>
	<path fill-rule="evenodd" clip-rule="evenodd" fill="#9AC4E2" d="M1812,32.002c3.636,20.57,7.05,41.183,10.949,61.703
		c13.503,71.072,27.18,142.111,40.744,213.172c0.301,1.575,0.038,3.258,0.038,6.14c-3.478,0.353-6.604,0.669-9.731,0.986
		c-6.921-0.671-13.85-1.271-20.761-2.023c-29.294-3.19-58.566-6.596-87.882-9.565c-12.406-1.258-24.901-1.636-37.356-2.414
		l-0.019-0.007c13.507-36.863,26.922-73.761,40.543-110.582c19.514-52.75,39.17-105.445,58.804-158.15
		c0.683-1.832,1.768-3.513,2.665-5.265C1810.663,27.998,1811.332,30,1812,32.002z"/>
	<path fill-rule="evenodd" clip-rule="evenodd" fill="#95BFE0" d="M2322,237.999c0.666,3.333,1.332,6.666,1.998,9.999
		C2323.332,244.665,2322.666,241.332,2322,237.999z"/>
	<path fill-rule="evenodd" clip-rule="evenodd" fill="#B4D3E8" d="M1181.997,273.992c-0.664,0.672-1.327,1.344-1.991,2.016
		l0.001-0.001c-19.245,9.599-38.536,19.107-57.728,28.813c-45.27,22.896-90.425,46.018-135.771,68.758
		c-13.249,6.644-26.988,12.311-40.502,18.425c24.673-43.68,49.335-87.365,74.022-131.037c24.36-43.093,48.621-86.243,73.16-129.234
		c19.417-34.018,39.19-67.833,58.806-101.737c5.24,42.298,10.544,84.588,15.702,126.896c4.2,34.446,8.215,68.914,12.346,103.368
		C1180.592,264.849,1181.341,269.415,1181.997,273.992z"/>
	<path fill-rule="evenodd" clip-rule="evenodd" fill="#B0D1E7" d="M946.006,392.003c13.514-6.114,27.253-11.781,40.502-18.425
		c45.347-22.74,90.502-45.861,135.771-68.758c19.191-9.706,38.482-19.215,57.728-28.813c-10.12,17.524-19.994,35.197-30.407,52.546
		c-35.098,58.474-70.385,116.833-105.622,175.223c-0.504,0.835-1.308,1.49-1.972,2.229c-39.335-9.334-78.669-18.667-118.003-28.001
		c-0.001-0.668-0.002-1.335-0.003-2.003c6.669-27.331,13.339-54.662,20.008-81.993C944.674,393.339,945.34,392.671,946.006,392.003z
		"/>
	<path fill-rule="evenodd" clip-rule="evenodd" fill="#83AAD5" d="M2324.012,254.007c0-0.668-0.001-1.335,0-2.003
		c0.659-0.002,1.318-0.007,1.977-0.016c48.933-17.142,97.882-34.233,146.79-51.441c40.137-14.122,80.229-28.369,120.334-42.583
		c99.632-35.313,199.259-70.64,298.888-105.961c0.667,2,1.334,3.999,2,5.998c3,25.999,5.841,52.018,9.039,77.992
		c4.171,33.872,8.647,67.707,12.949,101.563c4.47,35.167,8.908,70.338,13.321,105.512c3.589,28.604,7.132,57.216,10.674,85.826
		c2.687,21.699,5.338,43.402,8.005,65.104c-8.119-2.802-16.328-5.373-24.346-8.444c-44.057-16.878-88.122-33.736-132.078-50.873
		c-63.452-24.735-126.763-49.835-190.228-74.538c-69.37-27.003-138.814-53.812-208.293-80.533
		C2370.139,270.801,2347.027,262.525,2324.012,254.007z"/>
	<path fill-rule="evenodd" clip-rule="evenodd" fill="#4C8CC3" d="M2788.012,1244.006c16.898-6.785,33.943-13.229,50.67-20.415
		c58.897-25.307,117.719-50.792,176.507-76.354c58.792-25.563,117.506-51.308,176.261-76.958
		c26.18-11.43,52.374-22.826,78.563-34.237c-2.951,9.842-5.594,19.788-8.9,29.509c-30.17,88.721-60.433,177.41-90.733,266.087
		c-4.618,13.513-9.569,26.911-14.366,40.362H3156c-46.212-15.964-92.432-31.908-138.635-47.897
		c-67.592-23.391-135.157-46.858-202.775-70.172c-8.732-3.011-17.713-5.301-26.578-7.925c0-0.665,0-1.33,0-1.994V1244.006z"/>
	<path fill-rule="evenodd" clip-rule="evenodd" fill="#2372B5" d="M3000,2032c46.944,88.674,93.889,177.348,141.316,266.936
		c-3.073,0.447-5.195,0.756-7.316,1.064c-42.307-5.757-84.609-11.548-126.922-17.261c-36.743-4.961-73.507-9.769-110.246-14.761
		c-41.982-5.704-83.944-11.557-125.924-17.278c-3.605-0.491-7.278-0.486-10.92-0.712c17.164-16.088,34.183-32.336,51.531-48.223
		c18.582-17.018,37.506-33.662,56.229-50.527C2911.849,2111.511,2955.918,2071.748,3000,2032z"/>
	<path fill-rule="evenodd" clip-rule="evenodd" fill="#6AA0CD" d="M960.004,2270.012c-0.668-0.004-1.336-0.008-2.004-0.012
		c0-0.662,0-1.326,0-1.988c9.401-14.428,18.999-28.732,28.171-43.305c43.229-68.683,86.398-137.405,129.483-206.18
		c54.208-86.529,108.358-173.094,162.425-259.712c10.892-17.448,21.293-35.202,31.921-52.815c0.667-0.667,1.334-1.333,2.001-2H1313
		h1c0.667,15.866,1.118,31.746,2.055,47.596c1.213,20.528,2.716,41.041,4.271,61.548c2.481,32.722,5.196,65.427,7.644,98.151
		c1.583,21.171,2.741,42.373,4.312,63.545c2.476,33.389,5.192,66.76,7.699,100.146c1.565,20.839,2.805,41.701,4.417,62.536
		c2.431,31.394,5.082,62.771,7.596,94.157c2.038,25.441,4.012,50.888,6.014,76.332c-0.006,0.658-0.016,1.318-0.03,1.977
		c-31.243-3.329-62.476-6.761-93.733-9.954c-22.718-2.32-45.477-4.238-68.201-6.494c-31.272-3.104-62.527-6.378-93.794-9.539
		c-22.389-2.264-44.781-4.482-67.176-6.683C1010.051,2274.86,985.026,2272.445,960.004,2270.012z"/>
	<path fill-rule="evenodd" clip-rule="evenodd" fill="#74A5D1" d="M1310,1706c-10.628,17.613-21.029,35.367-31.921,52.815
		c-54.066,86.618-108.217,173.183-162.425,259.712c-43.085,68.774-86.254,137.497-129.483,206.18
		c-9.172,14.572-18.77,28.877-28.171,43.305c-9.257-5.701-18.707-11.112-27.74-17.149c-60.46-40.407-120.802-80.99-181.26-121.401
		c-10.136-6.775-20.648-12.988-30.986-19.461c-0.003-0.663-0.005-1.326-0.005-1.988c0,0,0.003,0,0.002,0
		c0.661-0.008,1.322-0.016,1.983-0.023c27.167-18.564,54.328-37.138,81.502-55.692c94.977-64.851,189.969-129.677,284.93-194.551
		c37.6-25.687,75.043-51.6,112.718-77.175C1235.99,1755.558,1273.039,1730.845,1310,1706z"/>
	<path fill-rule="evenodd" clip-rule="evenodd" fill="#B0D2E8" d="M252.005,774.003c6.798,6.538,13.989,12.721,20.316,19.688
		c14.249,15.69,28.008,31.824,42.077,47.68c26.385,29.737,52.771,59.474,79.372,89.017c3.418,3.795,8.121,6.432,12.229,9.605
		c0-0.001,0.003,0.02,0.003,0.019c-0.001,0.66-0.004,1.32-0.009,1.98c-1.992,0.676-3.984,1.351-5.977,2.025
		c-27.47,9.043-54.943,18.072-82.407,27.13c-97.872,32.281-195.74,64.572-293.61,96.859l-0.002-0.017
		c13.405-17.701,26.612-35.557,40.256-53.071c26.909-34.541,54.079-68.88,81.107-103.328c33.785-43.06,67.55-86.134,101.271-129.243
		C248.662,779.752,250.225,776.793,252.005,774.003z"/>
	<path fill-rule="evenodd" clip-rule="evenodd" fill="#6597C8" d="M960.004,2270.012c25.022,2.434,50.047,4.849,75.067,7.307
		c22.395,2.2,44.787,4.419,67.176,6.683c31.267,3.161,62.521,6.436,93.794,9.539c22.725,2.256,45.483,4.174,68.201,6.494
		c31.258,3.193,62.49,6.625,93.733,9.954c-7.73,30.227-15.58,60.424-23.156,90.689c-6.44,25.729-12.565,51.537-18.831,77.311
		c-0.66,0.008-1.321,0.012-1.982,0.012c-17.588-10.41-35.192-20.791-52.758-31.238c-31.521-18.745-62.855-37.813-94.566-56.23
		c-45.806-26.604-91.97-52.59-137.798-79.155C1005.716,2297.945,982.951,2283.821,960.004,2270.012z"/>
	<path fill-rule="evenodd" clip-rule="evenodd" fill="#458DC4" d="M2788.012,1246.006c8.865,2.624,17.846,4.914,26.578,7.925
		c67.618,23.313,135.184,46.781,202.775,70.172c46.203,15.989,92.423,31.934,138.635,47.897c-0.002,0.657-0.006,1.315-0.012,1.973
		c-18.26,9.508-36.656,18.768-54.753,28.578c-33.04,17.911-65.88,36.189-98.846,54.238
		c-56.601,30.988-113.197,61.982-169.863,92.851c-40.898,22.28-81.971,44.242-122.85,66.558
		c-47.292,25.815-94.457,51.862-141.677,77.809v-0.045c-0.003-0.655-0.007-1.311-0.012-1.967
		c16.411-33.474,32.75-66.982,49.247-100.413c30.497-61.801,61.003-123.597,91.665-185.315
		c24.742-49.805,49.734-99.486,74.557-149.252c1.768-3.545,3.04-7.337,4.543-11.014L2788.012,1246.006z"/>
	<path fill-rule="evenodd" clip-rule="evenodd" fill="#327FBD" d="M2568,1697.994c20.008,57.708,40.106,115.385,59.993,173.134
		c13.603,39.501,26.761,79.154,40.396,118.644c10.738,31.097,22.074,61.987,32.823,93.081c8.554,24.744,16.462,49.71,24.949,74.479
		c8.922,26.038,18.213,51.951,27.287,77.938c1.292,3.701,2.266,7.512,3.38,11.248c-4.106,1.32-7.468,2.401-10.829,3.482
		c-36.633,2.615-73.26,5.316-109.9,7.814c-22.793,1.555-45.604,2.857-68.412,4.162c-13.89,0.795-27.791,1.378-41.688,2.057v-0.045
		c2.057-33.437,4.031-66.879,6.201-100.309c1.181-18.193,2.683-36.365,4.057-54.547c2.574-34.04,5.216-68.075,7.723-102.121
		c1.51-20.505,2.647-41.039,4.257-61.535c3.139-39.976,6.721-79.917,9.683-119.905c2.401-32.412,4.012-64.882,6.299-97.304
		C2564.934,1718.139,2566.71,1708.084,2568,1697.994z"/>
	<path fill-rule="evenodd" clip-rule="evenodd" fill="#3B88C1" d="M2568,1697.994c-1.29,10.09-3.066,20.145-3.781,30.273
		c-2.287,32.422-3.897,64.892-6.299,97.304c-2.962,39.988-6.544,79.93-9.683,119.905c-1.609,20.496-2.747,41.03-4.257,61.535
		c-2.507,34.046-5.148,68.081-7.723,102.121c-1.374,18.182-2.876,36.354-4.057,54.547c-2.17,33.43-4.145,66.872-6.201,100.309
		c-0.667,0.004-1.333,0.008-2,0.012c0,0-0.033-0.022-0.033-0.021c-11.466-64.664-22.81-129.351-34.428-193.987
		c-17.075-95.006-34.303-189.984-51.563-284.957c-5.155-28.368-10.642-56.676-15.976-85.012c4.248-0.667,8.48-1.789,12.746-1.93
		c44.415-1.468,88.835-2.778,133.254-4.132v0.045c0,0.664,0,1.329,0,1.994C2567.999,1696.665,2567.999,1697.33,2568,1697.994z"/>
	<path fill-rule="evenodd" clip-rule="evenodd" fill="#9DC5E3" d="M400.018,944.017c1.992-0.675,3.984-1.35,5.977-2.024
		c1.337,0.669,2.673,1.338,4.009,2.008c-9.033,0.941-3.778,7.307-3.231,10.527c5.819,34.313,12.276,68.515,18.311,102.791
		c9.941,56.48,19.513,113.025,29.584,169.481c11.12,62.335,22.73,124.581,33.934,186.901
		c9.378,52.172,18.637,104.366,27.469,156.632c0.948,5.612-1.302,11.765-2.068,17.667c-2-0.667-4.001-1.333-6.001-2H508
		c-2-0.667-4-1.333-6-2c-1.335-0.666-2.67-1.332-4.006-1.998c-1.332-0.002-2.664-0.005-3.996-0.008
		c-1.333-0.664-2.667-1.329-4-1.994c-0.667,0.001-1.333-0.001-2-0.006c-1.333-0.664-2.667-1.329-4.001-1.994
		c-0.666,0.001-1.333-0.001-1.999-0.006c-1.333-0.664-2.667-1.329-4-1.994c-0.667,0.001-1.333-0.001-2-0.006
		c-1.333-0.664-2.666-1.329-4-1.994c-0.666-0.002-1.333-0.004-2-0.006c-1.333-0.664-2.666-1.329-3.999-1.994
		c-0.667-0.002-1.334-0.004-2.001-0.006c-1.334-0.664-2.667-1.329-4.001-1.994c-0.666,0.001-1.333-0.001-1.999-0.006
		c-1.334-0.664-2.667-1.329-4.001-1.994c-0.666,0.001-1.332-0.001-1.999-0.006c-1.333-0.664-2.667-1.329-4.001-1.994
		c-0.666,0.001-1.332-0.001-1.999-0.006c-1.333-0.664-2.667-1.329-4.001-1.994c-0.666,0.001-1.332-0.001-1.999-0.006
		c-1.333-0.664-2.667-1.329-4.001-1.994c-0.666,0.001-1.332,0-1.998-0.005c-1.334-0.665-2.668-1.33-4.002-1.995
		c-0.666,0.001-1.332,0-1.998-0.005c-1.334-0.665-2.668-1.33-4.002-1.995c-0.666,0.001-1.332-0.001-1.999-0.006
		c-1.333-0.664-2.667-1.329-4.001-1.994c-0.666,0.001-1.332,0-1.998-0.005c-1.334-0.665-2.668-1.33-4.002-1.995
		c-0.666,0.001-1.332,0-1.998-0.005c-1.334-0.665-2.668-1.33-4.002-1.995c-0.666,0.001-1.332,0-1.998-0.005
		c-1.335-0.665-2.669-1.33-4.003-1.995h-0.998l-0.999-0.002c-1.335-0.666-2.669-1.332-4.003-1.998h-0.999h-0.998
		c-1.335-0.667-2.669-1.333-4.004-2h-0.998h-0.998c-1.335-0.667-2.669-1.333-4.003-2h-0.999l-0.998-0.002
		c-1.334-0.666-2.668-1.332-4.003-1.998h-0.998l-0.999-0.002c-1.335-0.665-2.669-1.331-4.004-1.996
		c-0.665,0-1.331-0.001-1.996-0.002c-1.335-0.667-2.669-1.333-4.004-2h-0.998h-0.998c-1.335-0.667-2.669-1.333-4.004-2h-0.998
		h-0.998c-1.335-0.667-2.669-1.333-4.004-2h-0.998h-0.998c-1.335-0.667-2.669-1.333-4.003-2h-0.999l-0.998-0.002
		c-1.335-0.666-2.669-1.332-4.004-1.998h-0.998h-0.998c-1.334-0.667-2.669-1.333-4.003-2h-0.999l-0.998-0.002
		c-1.335-0.665-2.669-1.331-4.004-1.996c-0.665,0-1.331-0.001-1.996-0.002c-1.335-0.666-2.67-1.332-4.005-1.998
		c-0.665,0-1.33,0-1.995-0.002c-1.335-0.666-2.67-1.332-4.005-1.998c-0.665,0-1.33,0-1.995-0.002
		c-1.335-0.666-2.67-1.332-4.005-1.998c-0.665,0-1.33,0-1.995-0.002c-1.335-0.666-2.67-1.332-4.005-1.998
		c-0.665,0-1.33,0-1.995-0.002c-1.335-0.666-2.67-1.332-4.004-1.998c-0.665,0-1.33,0-1.995-0.002
		c-1.335-0.666-2.67-1.332-4.005-1.998c-0.665,0-1.33,0-1.996-0.002c-1.334-0.666-2.669-1.332-4.004-1.998
		c-0.665,0-1.33,0-1.995-0.002c-1.335-0.666-2.67-1.332-4.005-1.998c-0.665,0-1.33,0-1.995-0.002
		c-1.335-0.666-2.67-1.332-4.005-1.998c-0.665,0-1.33,0-1.995-0.002c-2-0.667-4-1.333-6-2c-2-0.667-4-1.333-6.001-2H260
		c-2-0.667-4-1.333-6-2c-1.335-0.666-2.67-1.332-4.005-1.998c-1.332-0.002-2.664-0.005-3.996-0.008
		c-1.333-0.664-2.667-1.329-4.001-1.994c-0.667,0.001-1.333-0.001-2-0.006c-1.333-0.664-2.667-1.329-4-1.994
		c-0.667,0.001-1.333-0.001-1.999-0.006c-1.333-0.664-2.667-1.329-4-1.994c-0.667,0.001-1.333-0.001-2-0.006
		c-1.333-0.664-2.667-1.329-4-1.994c-0.667-0.002-1.333-0.004-2-0.006c-1.333-0.664-2.667-1.329-4-1.994
		c-0.667-0.002-1.333-0.004-2-0.006c-1.333-0.664-2.667-1.329-4-1.994c-0.667,0.001-1.333-0.001-2-0.006
		c-1.333-0.664-2.667-1.329-4-1.994c-0.667,0.001-1.333-0.001-1.999-0.006c-1.333-0.664-2.667-1.329-4.001-1.994
		c-0.667,0.001-1.333-0.001-1.999-0.006c-1.333-0.664-2.667-1.329-4.001-1.994c-0.667,0.001-1.333-0.001-1.999-0.006
		c-1.333-0.664-2.667-1.329-4.001-1.994c-0.667,0.001-1.333,0-1.999-0.005c-1.333-0.665-2.667-1.33-4.001-1.995
		c-0.667,0.001-1.333,0-1.999-0.005c-1.333-0.665-2.667-1.33-4.001-1.995c-0.667,0.001-1.333-0.001-1.999-0.006
		c-1.333-0.664-2.667-1.329-4.001-1.994c-0.667,0.001-1.333,0-1.999-0.005c-1.333-0.665-2.667-1.33-4.001-1.995
		c-0.667,0.001-1.333,0-1.999-0.005c-1.334-0.665-2.667-1.33-4.001-1.995c-0.666,0.001-1.333,0-1.999-0.005
		c-1.334-0.665-2.668-1.33-4.002-1.995c-19.589-6.182-39.211-12.26-58.758-18.572c-21.782-7.033-43.496-14.279-65.24-21.434
		c-1.336-0.666-2.671-1.333-4.007-2c0.003-0.666,0.003-1.333-0.002-2l0.008,0.005c10.932-13.761,21.938-27.462,32.779-41.293
		c29.267-37.334,58.377-74.792,87.709-112.075c41.02-52.139,82.224-104.133,123.273-156.248
		c33.25-42.214,66.467-84.455,99.531-126.813C378.463,973.257,389.123,958.546,400.018,944.017z"/>
	<path fill-rule="evenodd" clip-rule="evenodd" fill="#5192C8" d="M1792.079,1882.004c2.324,20.724,4.595,41.453,6.983,62.169
		c3.604,31.248,7.271,62.488,10.949,93.728c3.603,30.582,7.271,61.156,10.879,91.738c3.726,31.564,7.386,63.138,11.128,94.701
		c2.885,24.334,5.891,48.653,8.772,72.987c3.114,26.302,6.154,52.612,9.213,78.92c0.688,5.917,1.321,11.84,1.979,17.761
		c-0.661,0.661-1.322,1.323-1.983,1.985c-0.667,0.002-1.333,0.005-2,0.007c-1.818-0.682-3.583-1.675-5.463-2.002
		c-81.079-14.102-162.177-28.103-243.256-42.208c-79.77-13.878-159.521-27.856-239.281-41.79c-0.002-0.663-0.004-1.326-0.006-1.988
		c2.5-2.176,5.127-4.221,7.48-6.544c55.164-54.448,110.339-108.887,165.429-163.411c73.304-72.553,146.521-145.193,219.813-217.757
		c12.992-12.862,26.173-25.535,39.267-38.295L1792.079,1882.004z"/>
	<path fill-rule="evenodd" clip-rule="evenodd" fill="#548EC4" d="M1360,2310c79.76,13.934,159.512,27.912,239.281,41.79
		c81.079,14.105,162.177,28.106,243.256,42.208c1.88,0.327,3.645,1.32,5.463,2.002c-16.897,2.664-33.771,5.49-50.696,7.959
		c-39.926,5.821-79.869,11.529-119.82,17.176c-40.276,5.693-80.587,11.15-120.854,16.918c-21.574,3.091-43.085,6.621-64.624,9.952
		l-0.006-0.038c-1.504-2.49-2.581-5.405-4.574-7.408c-37.391-37.567-74.951-74.967-112.299-112.576
		C1369.626,2322.444,1365.02,2316.017,1360,2310z"/>
	<path fill-rule="evenodd" clip-rule="evenodd" fill="#548EC4" d="M1850,2395.993c0.661-0.662,1.322-1.324,1.983-1.985
		c0.009,0.66,0.013,1.32,0.011,1.98l-0.997,0.006L1850,2395.993z"/>
	<path fill-rule="evenodd" clip-rule="evenodd" fill="#A8CCE6" d="M400.018,944.017c-10.895,14.529-21.555,29.24-32.727,43.553
		c-33.064,42.358-66.281,84.6-99.531,126.813c-41.049,52.115-82.254,104.109-123.273,156.248
		c-29.332,37.283-58.442,74.741-87.709,112.075c-10.842,13.831-21.848,27.532-32.779,41.293c0-25.649,0.145-51.3-0.028-76.947
		c-0.596-88.464-1.335-176.928-1.879-265.392c-0.028-4.548,1.244-9.104,1.91-13.654c97.87-32.287,195.739-64.578,293.61-96.859
		C345.074,962.089,372.548,953.06,400.018,944.017z"/>
	<path fill-rule="evenodd" clip-rule="evenodd" fill="#5C91C5" d="M1360,2310c5.02,6.017,9.626,12.444,15.127,17.982
		c37.348,37.609,74.908,75.009,112.299,112.576c1.993,2.003,3.07,4.918,4.574,7.408c-0.663,0.016-1.326,0.031-1.989,0.045
		c-33.253,5.638-66.517,11.218-99.756,16.933c-24.771,4.258-49.512,8.69-74.266,13.044c6.265-25.773,12.39-51.582,18.83-77.311
		c7.576-30.266,15.426-60.463,23.156-90.689c0.015-0.658,0.024-1.318,0.03-1.977c0-0.001,0.994,0,0.994,0h0.994
		C1359.996,2308.674,1359.998,2309.337,1360,2310z"/>
	<path fill-rule="evenodd" clip-rule="evenodd" fill="#A9CEE5" d="M410.003,944c-1.336-0.67-2.672-1.339-4.009-2.008
		c0.005-0.661,0.008-1.321,0.009-1.981c24.916-21.92,49.901-43.761,74.73-65.778c36.011-31.934,71.954-63.942,107.838-96.018
		c27.23-24.34,54.241-48.925,81.496-73.237c34.676-30.933,69.558-61.634,104.234-92.563c21.56-19.23,42.859-38.75,64.356-58.05
		c28.406-25.5,56.893-50.912,85.345-76.361c39.334,9.334,78.668,18.667,118.003,28.001c0.002,0.67,0.004,1.339,0.006,2.008
		l0.004,0.015c-17.625,37.228-35.25,74.456-52.876,111.685c-23.758,50.182-47.458,100.39-71.289,150.537
		c-33.395,70.272-66.958,140.466-100.3,210.763c-13.389,28.228-26.383,56.643-39.557,84.973c-3.853-0.94-7.799-1.603-11.543-2.862
		c-53.54-18.007-107.008-36.23-160.584-54.129C540.624,987.194,475.295,965.652,410.003,944z"/>
	<path fill-rule="evenodd" clip-rule="evenodd" fill="#87B0D8" d="M718.009,2108.012c-18.762-18.429-37.569-36.811-56.274-55.295
		c-60.327-59.613-120.673-119.208-180.884-178.938c-17.173-17.036-33.913-34.508-50.852-51.779c0.001-0.665,0.001-1.33,0.001-1.994
		V1820c1.873-0.621,3.893-0.973,5.598-1.901c27.883-15.196,55.792-30.348,83.557-45.76c19.06-10.58,37.904-21.546,56.846-32.339
		c0.668,0.002,1.335,0.004,2.003,0.006c1.093,3.477,1.996,7.026,3.31,10.419c16.91,43.698,33.979,87.335,50.805,131.066
		c16.115,41.886,32.042,83.846,47.956,125.809c12.721,33.542,25.297,67.139,37.938,100.712H718.009z"/>
	<path fill-rule="evenodd" clip-rule="evenodd" fill="#8EB3DA" d="M430,1820.006c0,0.664,0,1.329-0.001,1.994
		c-0.667,0-1.333,0-1.999,0C428.666,1821.335,429.333,1820.67,430,1820.006z"/>
	<path fill-rule="evenodd" clip-rule="evenodd" fill="#6BA4D0" d="M2744.012,866.019c-0.011,0.66-0.014,1.321-0.011,1.981
		c0.005,0.661-0.003,1.322-0.022,1.982c-2.499,2.176-5.18,4.176-7.471,6.552c-33.445,34.695-66.724,69.553-100.279,104.142
		c-31.956,32.941-64.199,65.604-96.281,98.424c-2.777,2.84-5.297,5.932-7.936,8.906c-0.66,0.011-1.318,0.019-1.979,0.022
		c-0.678-0.674-1.355-1.348-2.033-2.021c-0.07-4.398,0.708-9.01-0.332-13.166c-34.767-138.925-69.765-277.792-104.573-416.707
		c-7.341-29.3-14.079-58.75-21.095-88.131c42.442,36.776,84.979,73.442,127.305,110.353
		C2600.944,740.829,2672.449,803.456,2744.012,866.019z"/>
	<path fill-rule="evenodd" clip-rule="evenodd" fill="#5C9BCB" d="M2532.012,1088.006c2.639-2.975,5.158-6.066,7.936-8.906
		c32.082-32.819,64.325-65.482,96.281-98.424c33.556-34.589,66.834-69.446,100.279-104.142c2.291-2.376,4.972-4.376,7.471-6.552
		c2.672,20.329,5.485,40.641,7.983,60.991c3.956,32.225,7.798,64.463,11.505,96.717c3.633,31.606,6.949,63.248,10.568,94.855
		c3.58,31.272,7.393,62.519,11.047,93.782c1.076,9.214,1.958,18.451,2.93,27.678c0,0,0,0.006,0,0.005
		c-38.287-23.3-76.586-46.58-114.857-69.904C2626.095,1145.426,2579.059,1116.708,2532.012,1088.006z"/>
	<path fill-rule="evenodd" clip-rule="evenodd" fill="#72A5D0" d="M2744.012,866.019
		c-71.563-62.563-143.067-125.189-214.707-187.663c-42.325-36.91-84.862-73.576-127.305-110.353c0-0.665,0-1.33,0-1.994
		c2.885-0.667,5.737-1.572,8.658-1.962c18.715-2.493,37.439-4.911,56.17-7.281c33.854-4.283,67.719-8.488,101.572-12.778
		c33.852-4.29,67.694-8.654,101.543-12.967c34.177-4.354,68.358-8.672,102.535-13.03c33.848-4.315,67.686-8.72,101.541-12.978
		c24.648-3.1,49.319-6.024,73.98-9.026c0,0,0.011,0.021,0.012,0.021c-0.007,0.664-0.01,1.328-0.012,1.992
		c-46.124,83.602-92.271,167.19-138.36,250.812c-18.951,34.383-37.817,68.813-56.613,103.282c-2.052,3.762-3.372,7.921-5.032,11.896
		C2746.667,864.665,2745.339,865.342,2744.012,866.019z"/>
	<path fill-rule="evenodd" clip-rule="evenodd" fill="#7EACD5" d="M2948,495.986c-24.661,3.002-49.332,5.927-73.98,9.026
		c-33.855,4.258-67.693,8.662-101.541,12.978c-34.177,4.358-68.358,8.676-102.535,13.03c-33.849,4.313-67.691,8.677-101.543,12.967
		c-33.854,4.29-67.718,8.495-101.572,12.778c-18.73,2.37-37.455,4.788-56.17,7.281c-2.921,0.39-5.773,1.295-8.658,1.961
		c-0.663-0.001-1.326,0-1.988,0.004c-0.012-0.671-0.022-1.342-0.033-2.012c-25.334-103.34-50.667-206.68-76.001-310.019
		c0,0,0.033,0.024,0.034,0.024c23.016,8.52,46.127,16.795,69.032,25.604c69.479,26.722,138.923,53.53,208.293,80.533
		c63.465,24.703,126.775,49.803,190.228,74.538c43.956,17.137,88.021,33.995,132.078,50.873c8.018,3.071,16.227,5.643,24.346,8.444
		C2947.995,494.661,2947.998,495.323,2948,495.986z"/>
	<path fill-rule="evenodd" clip-rule="evenodd" fill="#9CC5E3" d="M410.003,944c65.292,21.652,130.621,43.194,195.864,64.992
		c53.576,17.898,107.044,36.122,160.584,54.129c3.744,1.26,7.69,1.922,11.543,2.862c0.004,0.665,0.007,1.331,0.009,1.996
		c-1.886,3.103-4.022,6.082-5.619,9.326c-16.454,33.423-32.812,66.895-49.214,100.343c-34.564,70.482-69.058,141-103.734,211.427
		c-31.157,63.276-62.545,126.438-93.729,189.701c-1.725,3.498-2.506,7.461-3.726,11.207c-0.66,0.016-1.32,0.021-1.981,0.017
		c-2-0.667-4-1.333-6-2c0.767-5.902,3.017-12.055,2.068-17.667c-8.832-52.266-18.091-104.46-27.469-156.632
		c-11.203-62.32-22.813-124.566-33.934-186.901c-10.071-56.456-19.643-113.001-29.584-169.481
		c-6.034-34.276-12.491-68.479-18.311-102.791C406.225,951.307,400.97,944.941,410.003,944z"/>
	<path fill-rule="evenodd" clip-rule="evenodd" fill="#8BB8DC" d="M520,1590c0.661,0.004,1.321-0.001,1.981-0.017
		c8.159-2.811,16.375-5.465,24.468-8.455c109.706-40.538,219.387-81.144,329.104-121.648c8.023-2.962,16.288-5.272,24.44-7.886
		c-1.979,2.222-3.76,4.666-5.966,6.632c-35.176,31.358-70.442,62.613-105.608,93.981c-20.811,18.563-41.408,37.365-62.234,55.911
		c-28.251,25.157-56.646,50.153-84.948,75.254c-21.104,18.716-42.158,37.486-63.234,56.233c-0.668-0.002-1.335-0.004-2.003-0.006
		c-3.316-9.611-6.32-19.345-10.005-28.813C550.775,1672.081,535.35,1633.056,520,1594c0-0.667,0-1.333,0-2S520,1590.667,520,1590z"
		/>
	<path fill-rule="evenodd" clip-rule="evenodd" fill="#9CC5E3" d="M259.999,1504c2,0.667,4,1.333,6.001,2
		C264,1505.333,262,1504.667,259.999,1504z"/>
	<path fill-rule="evenodd" clip-rule="evenodd" fill="#9CC5E3" d="M254,1502c2,0.667,4,1.333,6,2
		C258,1503.333,256,1502.667,254,1502z"/>
	<path fill-rule="evenodd" clip-rule="evenodd" fill="#9CC5E3" d="M502,1584c2,0.667,4,1.333,6,2
		C506,1585.333,504,1584.667,502,1584z"/>
	<path fill-rule="evenodd" clip-rule="evenodd" fill="#9CC5E3" d="M507.999,1586c2,0.667,4.001,1.333,6.001,2
		C512,1587.333,509.999,1586.667,507.999,1586z"/>
	<path fill-rule="evenodd" clip-rule="evenodd" fill="#9CC5E3" d="M266,1506c2,0.667,4,1.333,6,2
		C270,1507.333,268,1506.667,266,1506z"/>
	<path fill-rule="evenodd" clip-rule="evenodd" fill="#9CC5E3" d="M363.995,1538c1.335,0.667,2.669,1.333,4.004,2
		C366.664,1539.333,365.33,1538.667,363.995,1538z"/>
	<path fill-rule="evenodd" clip-rule="evenodd" fill="#9CC5E3" d="M369.995,1540.002c1.335,0.665,2.669,1.331,4.004,1.996
		C372.664,1541.333,371.33,1540.667,369.995,1540.002z"/>
	<path fill-rule="evenodd" clip-rule="evenodd" fill="#9CC5E3" d="M375.996,1542c1.335,0.666,2.669,1.332,4.003,1.998
		C378.665,1543.332,377.331,1542.666,375.996,1542z"/>
	<path fill-rule="evenodd" clip-rule="evenodd" fill="#9CC5E3" d="M381.996,1544c1.334,0.667,2.668,1.333,4.003,2
		C384.665,1545.333,383.33,1544.667,381.996,1544z"/>
	<path fill-rule="evenodd" clip-rule="evenodd" fill="#9CC5E3" d="M387.995,1546c1.335,0.667,2.669,1.333,4.004,2
		C390.664,1547.333,389.33,1546.667,387.995,1546z"/>
	<path fill-rule="evenodd" clip-rule="evenodd" fill="#9CC5E3" d="M393.996,1548c1.334,0.666,2.668,1.332,4.003,1.998
		C396.664,1549.332,395.33,1548.666,393.996,1548z"/>
	<path fill-rule="evenodd" clip-rule="evenodd" fill="#9CC5E3" d="M399.996,1550c1.334,0.665,2.668,1.33,4.003,1.995
		C402.664,1551.33,401.33,1550.665,399.996,1550z"/>
	<path fill-rule="evenodd" clip-rule="evenodd" fill="#9CC5E3" d="M405.997,1552c1.334,0.665,2.668,1.33,4.002,1.995
		C408.665,1553.33,407.331,1552.665,405.997,1552z"/>
	<path fill-rule="evenodd" clip-rule="evenodd" fill="#9CC5E3" d="M411.997,1554c1.334,0.665,2.668,1.33,4.002,1.995
		C414.665,1555.33,413.331,1554.665,411.997,1554z"/>
	<path fill-rule="evenodd" clip-rule="evenodd" fill="#9CC5E3" d="M417.997,1556c1.334,0.665,2.668,1.33,4.001,1.994
		C420.665,1557.33,419.331,1556.665,417.997,1556z"/>
	<path fill-rule="evenodd" clip-rule="evenodd" fill="#9CC5E3" d="M423.997,1558c1.334,0.665,2.668,1.33,4.002,1.995
		C426.665,1559.33,425.331,1558.665,423.997,1558z"/>
	<path fill-rule="evenodd" clip-rule="evenodd" fill="#9CC5E3" d="M429.997,1560c1.334,0.665,2.668,1.33,4.002,1.995
		C432.665,1561.33,431.331,1560.665,429.997,1560z"/>
	<path fill-rule="evenodd" clip-rule="evenodd" fill="#9CC5E3" d="M435.997,1562c1.334,0.665,2.668,1.33,4.001,1.994
		C438.665,1563.33,437.331,1562.665,435.997,1562z"/>
	<path fill-rule="evenodd" clip-rule="evenodd" fill="#9CC5E3" d="M441.997,1564c1.334,0.665,2.668,1.33,4.001,1.994
		C444.665,1565.33,443.331,1564.665,441.997,1564z"/>
	<path fill-rule="evenodd" clip-rule="evenodd" fill="#9CC5E3" d="M447.997,1566c1.334,0.665,2.668,1.33,4.001,1.994
		C450.665,1567.33,449.331,1566.665,447.997,1566z"/>
	<path fill-rule="evenodd" clip-rule="evenodd" fill="#9CC5E3" d="M453.997,1568c1.334,0.665,2.667,1.33,4.001,1.994
		C456.664,1569.329,455.331,1568.665,453.997,1568z"/>
	<path fill-rule="evenodd" clip-rule="evenodd" fill="#9CC5E3" d="M459.997,1570c1.334,0.665,2.667,1.33,4.001,1.994
		C462.664,1571.33,461.331,1570.665,459.997,1570z"/>
	<path fill-rule="evenodd" clip-rule="evenodd" fill="#9CC5E3" d="M465.999,1572c1.333,0.665,2.666,1.33,3.999,1.994
		C468.665,1573.329,467.332,1572.665,465.999,1572z"/>
	<path fill-rule="evenodd" clip-rule="evenodd" fill="#9CC5E3" d="M471.998,1574c1.334,0.665,2.667,1.33,4,1.994
		C474.665,1575.33,473.332,1574.665,471.998,1574z"/>
	<path fill-rule="evenodd" clip-rule="evenodd" fill="#9CC5E3" d="M477.998,1576c1.333,0.665,2.667,1.33,4,1.994
		C480.665,1577.33,479.331,1576.665,477.998,1576z"/>
	<path fill-rule="evenodd" clip-rule="evenodd" fill="#9CC5E3" d="M163.998,1472c1.333,0.665,2.667,1.33,4.001,1.995
		C166.665,1473.33,165.331,1472.665,163.998,1472z"/>
	<path fill-rule="evenodd" clip-rule="evenodd" fill="#9CC5E3" d="M489.998,1580c1.333,0.665,2.667,1.33,4,1.994
		C492.665,1581.33,491.331,1580.665,489.998,1580z"/>
	<path fill-rule="evenodd" clip-rule="evenodd" fill="#9CC5E3" d="M497.994,1582.002c1.336,0.666,2.671,1.332,4.006,1.998
		C500.665,1583.334,499.33,1582.668,497.994,1582.002z"/>
	<path fill-rule="evenodd" clip-rule="evenodd" fill="#9CC5E3" d="M157.997,1470c1.334,0.665,2.667,1.33,4.001,1.995
		C160.665,1471.33,159.331,1470.665,157.997,1470z"/>
	<path fill-rule="evenodd" clip-rule="evenodd" fill="#9CC5E3" d="M151.997,1468c1.334,0.665,2.668,1.33,4.002,1.995
		C154.665,1469.33,153.331,1468.665,151.997,1468z"/>
	<path fill-rule="evenodd" clip-rule="evenodd" fill="#9CC5E3" d="M175.998,1476c1.333,0.665,2.667,1.33,4.001,1.995
		C178.665,1477.33,177.331,1476.665,175.998,1476z"/>
	<path fill-rule="evenodd" clip-rule="evenodd" fill="#9CC5E3" d="M223.998,1492c1.333,0.665,2.667,1.33,4,1.994
		C226.665,1493.33,225.332,1492.665,223.998,1492z"/>
	<path fill-rule="evenodd" clip-rule="evenodd" fill="#9CC5E3" d="M181.998,1478c1.333,0.665,2.667,1.33,4.001,1.995
		C184.665,1479.33,183.331,1478.665,181.998,1478z"/>
	<path fill-rule="evenodd" clip-rule="evenodd" fill="#9CC5E3" d="M187.998,1480c1.333,0.665,2.667,1.33,4.001,1.994
		C190.665,1481.33,189.331,1480.665,187.998,1480z"/>
	<path fill-rule="evenodd" clip-rule="evenodd" fill="#9CC5E3" d="M193.998,1482c1.333,0.665,2.667,1.33,4.001,1.994
		C196.665,1483.33,195.331,1482.665,193.998,1482z"/>
	<path fill-rule="evenodd" clip-rule="evenodd" fill="#9CC5E3" d="M199.998,1484c1.333,0.665,2.667,1.33,4.001,1.994
		C202.665,1485.33,201.331,1484.665,199.998,1484z"/>
	<path fill-rule="evenodd" clip-rule="evenodd" fill="#9CC5E3" d="M205.998,1486c1.333,0.665,2.667,1.33,4,1.994
		C208.665,1487.33,207.331,1486.665,205.998,1486z"/>
	<path fill-rule="evenodd" clip-rule="evenodd" fill="#9CC5E3" d="M211.998,1488c1.333,0.665,2.667,1.33,4,1.994
		C214.665,1489.33,213.331,1488.665,211.998,1488z"/>
	<path fill-rule="evenodd" clip-rule="evenodd" fill="#9CC5E3" d="M217.999,1490c1.333,0.665,2.667,1.33,4,1.994
		C220.665,1491.33,219.332,1490.665,217.999,1490z"/>
	<path fill-rule="evenodd" clip-rule="evenodd" fill="#9CC5E3" d="M169.998,1474c1.333,0.665,2.667,1.33,4.001,1.994
		C172.665,1475.33,171.331,1474.665,169.998,1474z"/>
	<path fill-rule="evenodd" clip-rule="evenodd" fill="#9CC5E3" d="M229.998,1494c1.333,0.665,2.667,1.33,4,1.994
		C232.665,1495.33,231.332,1494.665,229.998,1494z"/>
	<path fill-rule="evenodd" clip-rule="evenodd" fill="#9CC5E3" d="M235.998,1496c1.333,0.665,2.667,1.33,4,1.994
		C238.665,1497.33,237.331,1496.665,235.998,1496z"/>
	<path fill-rule="evenodd" clip-rule="evenodd" fill="#9CC5E3" d="M241.998,1498c1.334,0.665,2.667,1.33,4.001,1.994
		C244.665,1499.33,243.332,1498.665,241.998,1498z"/>
	<path fill-rule="evenodd" clip-rule="evenodd" fill="#9CC5E3" d="M249.995,1500.002c1.335,0.666,2.67,1.332,4.005,1.998
		C252.665,1501.334,251.33,1500.668,249.995,1500.002z"/>
	<path fill-rule="evenodd" clip-rule="evenodd" fill="#9CC5E3" d="M357.995,1536c1.335,0.667,2.669,1.333,4.004,2
		C360.664,1537.333,359.33,1536.667,357.995,1536z"/>
	<path fill-rule="evenodd" clip-rule="evenodd" fill="#9CC5E3" d="M273.995,1508.002c1.335,0.666,2.67,1.332,4.005,1.998
		C276.665,1509.334,275.33,1508.668,273.995,1508.002z"/>
	<path fill-rule="evenodd" clip-rule="evenodd" fill="#9CC5E3" d="M279.995,1510.002c1.335,0.666,2.67,1.332,4.005,1.998
		C282.665,1511.334,281.33,1510.668,279.995,1510.002z"/>
	<path fill-rule="evenodd" clip-rule="evenodd" fill="#9CC5E3" d="M285.995,1512.002c1.335,0.666,2.67,1.332,4.004,1.998
		C288.665,1513.334,287.33,1512.668,285.995,1512.002z"/>
	<path fill-rule="evenodd" clip-rule="evenodd" fill="#9CC5E3" d="M291.995,1514.002c1.335,0.666,2.67,1.332,4.005,1.998
		C294.665,1515.334,293.33,1514.668,291.995,1514.002z"/>
	<path fill-rule="evenodd" clip-rule="evenodd" fill="#9CC5E3" d="M297.995,1516.002c1.334,0.666,2.669,1.332,4.004,1.998
		C300.664,1517.334,299.329,1516.668,297.995,1516.002z"/>
	<path fill-rule="evenodd" clip-rule="evenodd" fill="#9CC5E3" d="M303.994,1518.002c1.335,0.666,2.67,1.332,4.005,1.998
		C306.664,1519.334,305.329,1518.668,303.994,1518.002z"/>
	<path fill-rule="evenodd" clip-rule="evenodd" fill="#9CC5E3" d="M309.994,1520.002c1.335,0.666,2.67,1.332,4.005,1.998
		C312.664,1521.334,311.329,1520.668,309.994,1520.002z"/>
	<path fill-rule="evenodd" clip-rule="evenodd" fill="#9CC5E3" d="M315.994,1522.002c1.335,0.666,2.67,1.332,4.005,1.998
		C318.664,1523.334,317.329,1522.668,315.994,1522.002z"/>
	<path fill-rule="evenodd" clip-rule="evenodd" fill="#9CC5E3" d="M321.994,1524.002c1.335,0.666,2.67,1.332,4.005,1.998
		C324.664,1525.334,323.329,1524.668,321.994,1524.002z"/>
	<path fill-rule="evenodd" clip-rule="evenodd" fill="#9CC5E3" d="M327.995,1526.002c1.335,0.665,2.669,1.331,4.004,1.996
		C330.664,1527.333,329.33,1526.667,327.995,1526.002z"/>
	<path fill-rule="evenodd" clip-rule="evenodd" fill="#9CC5E3" d="M333.996,1528c1.334,0.667,2.669,1.333,4.003,2
		C336.664,1529.334,335.33,1528.667,333.996,1528z"/>
	<path fill-rule="evenodd" clip-rule="evenodd" fill="#9CC5E3" d="M339.995,1530c1.335,0.666,2.669,1.332,4.004,1.998
		C342.664,1531.332,341.33,1530.666,339.995,1530z"/>
	<path fill-rule="evenodd" clip-rule="evenodd" fill="#9CC5E3" d="M345.996,1532c1.334,0.667,2.668,1.333,4.003,2
		C348.664,1533.333,347.33,1532.667,345.996,1532z"/>
	<path fill-rule="evenodd" clip-rule="evenodd" fill="#9CC5E3" d="M351.995,1534c1.335,0.667,2.669,1.333,4.004,2
		C354.664,1535.333,353.33,1534.667,351.995,1534z"/>
	<path fill-rule="evenodd" clip-rule="evenodd" fill="#9CC5E3" d="M483.997,1578c1.334,0.665,2.668,1.33,4.001,1.994
		C486.664,1579.329,485.331,1578.665,483.997,1578z"/>
	<path fill-rule="evenodd" clip-rule="evenodd" fill="#8CB7DC" d="M520,1594c15.35,39.056,30.775,78.081,45.995,117.188
		c3.685,9.468,6.688,19.201,10.005,28.813c-18.941,10.793-37.786,21.759-56.846,32.339c-27.765,15.412-55.674,30.563-83.557,45.76
		c-1.705,0.929-3.725,1.28-5.598,1.901c7.604-20.46,14.855-41.06,22.883-61.353c20.972-53.014,42.27-105.898,63.506-158.808
		C517.229,1597.747,518.78,1595.94,520,1594z"/>
	<path fill-rule="evenodd" clip-rule="evenodd" fill="#94C4DF" d="M1042.012,508.012c45.736,16.249,91.523,32.359,137.196,48.787
		c42.861,15.416,85.555,31.298,128.406,46.743c77.264,27.85,154.588,55.533,231.897,83.255c3.437,1.231,6.985,2.147,10.481,3.211
		c0.67,0.66,1.34,1.32,2.01,1.98c1.333,0.006,2.665,0.012,3.997,0.018c0.66,0.661,1.32,1.322,1.981,1.982
		c0,0,0.03,0.013,0.029,0.013c-0.667,18.255-1.438,36.506-1.98,54.765c-1.392,46.835-2.863,93.669-3.956,140.512
		c-0.938,40.236-1.397,80.483-2.068,120.726c-0.672,1.328-1.344,2.656-2.016,3.984c-6.824,2.614-13.665,5.19-20.472,7.85
		c-102.587,40.085-205.176,80.166-307.751,120.282c-49.263,19.266-98.498,38.604-147.745,57.909
		c-0.675-0.004-1.349-0.008-2.022-0.012c-0.002-0.668-0.004-1.337-0.006-2.005c0.004-6.082,0.227-12.173-0.025-18.244
		c-1.24-29.85-2.632-59.692-3.921-89.54c-2.035-47.1-4.011-94.202-6.052-141.302c-1.279-29.515-2.68-59.023-3.941-88.539
		c-2.054-48.099-4.005-96.202-6.064-144.3c-1.25-29.183-2.795-58.354-3.896-87.542c-1.515-40.167-2.733-80.346-4.079-120.519
		L1042.012,508.012z"/>
	<path fill-rule="evenodd" clip-rule="evenodd" fill="#91C0DF" d="M1557.98,693.988c21.618-57.137,43.179-114.296,64.867-171.407
		c26.644-70.159,53.388-140.28,80.123-210.405c0.813-2.134,2.01-4.122,3.028-6.178c1.298,2.615,3.305,5.104,3.793,7.863
		c18.817,106.314,37.417,212.667,56.264,318.977c3.511,19.805,7.943,39.445,11.95,59.162c-0.002,0.666-0.004,1.332-0.006,1.997
		c-47.232,0-94.466,0.029-141.698-0.05c-4.283-0.008-8.569-1.091-12.847-1.041c-21.816,0.25-43.63,0.709-65.443,1.095
		C1558.012,694.001,1557.981,693.988,1557.98,693.988z"/>
	<path fill-rule="evenodd" clip-rule="evenodd" fill="#92C0E0" d="M1778.006,692c-4.007-19.717-8.439-39.357-11.95-59.162
		c-18.847-106.31-37.446-212.662-56.264-318.977c-0.488-2.759-2.495-5.248-3.793-7.863c0.667-2,1.335-3.999,2.002-5.998
		c12.455,0.778,24.95,1.156,37.356,2.414c29.315,2.97,58.588,6.375,87.882,9.565c6.911,0.753,13.84,1.353,20.761,2.023
		c4.004,0.667,8.008,1.335,12.011,2.003c-11.708,50.773-23.39,101.553-35.13,152.319c-11.146,48.189-22.248,96.39-33.573,144.537
		C1791.091,639.293,1784.453,665.624,1778.006,692z"/>
	<path fill-rule="evenodd" clip-rule="evenodd" fill="#9EC7E3" d="M1552.003,691.988c-0.67-0.66-1.34-1.32-2.01-1.98
		C1550.663,690.668,1551.333,691.328,1552.003,691.988z"/>
	<path fill-rule="evenodd" clip-rule="evenodd" fill="#408DC4" d="M2422,1700.022c5.334,28.336,10.82,56.644,15.976,85.012
		c17.261,94.973,34.488,189.951,51.563,284.957c11.618,64.637,22.962,129.323,34.428,193.987
		c-48.564-25.484-97.076-51.065-145.705-76.422c-45.076-23.504-90.365-46.602-135.397-70.188
		c-39.161-20.511-77.991-41.656-117.158-62.154c-45.336-23.727-90.976-46.872-136.313-70.593
		c-62.179-32.533-124.19-65.386-186.309-98.034c-3.504-1.842-7.33-3.07-11.006-4.584c0.001,0-0.095,0.001-0.095,0.001
		c0.036-0.662,0.062-1.323,0.075-1.985c0.644-0.004,1.288-0.016,1.933-0.036c2.589-0.542,5.226-0.914,7.758-1.648
		c73.459-21.299,146.874-42.749,220.365-63.937c100.646-29.015,201.338-57.863,302.028-86.72
		c32.586-9.339,65.229-18.48,97.846-27.712L2422,1700.022z"/>
	<path fill-rule="evenodd" clip-rule="evenodd" fill="#88B9DB" d="M1778.006,692c6.447-26.376,13.085-52.707,19.302-79.138
		c11.325-48.147,22.428-96.348,33.573-144.537c11.74-50.767,23.422-101.546,35.13-152.319c0.665-0.001,1.329,0,1.994,0.002
		c32.29,15.465,64.472,31.163,96.899,46.336c38.161,17.854,76.603,35.106,114.799,52.885c47.244,21.989,94.391,44.19,141.521,66.423
		c22.217,10.48,44.22,21.414,66.462,31.84c22.8,10.688,45.732,21.097,68.687,31.45c14.459,6.521,29.065,12.717,43.605,19.059
		c0.011,0.67,0.021,1.341,0.033,2.011c-0.671,0.664-1.342,1.328-2.012,1.992c-4.924,0.59-9.92,0.829-14.759,1.827
		c-35.442,7.305-70.836,14.847-106.278,22.155c-76.41,15.757-152.851,31.362-229.258,47.136
		c-65.68,13.56-131.352,27.161-196.98,40.964c-23.645,4.973-47.154,10.588-70.725,15.909c-0.667,0.002-1.333,0.004-2,0.006
		c0-0.668,0-1.335,0-2.003C1778.002,693.332,1778.004,692.666,1778.006,692z"/>
	<path fill-rule="evenodd" clip-rule="evenodd" fill="#89B7DB" d="M2399.979,564c-14.54-6.342-29.146-12.537-43.605-19.059
		c-22.954-10.354-45.887-20.763-68.687-31.45c-22.242-10.426-44.245-21.359-66.462-31.84
		c-47.131-22.232-94.277-44.434-141.521-66.423c-38.196-17.778-76.638-35.031-114.799-52.885
		c-32.428-15.173-64.609-30.871-96.899-46.336c53.832-7.37,107.677-14.644,161.491-22.142
		c45.611-6.355,91.163-13.142,136.784-19.425c46.281-6.374,92.612-12.385,138.93-18.498c6.233-0.823,12.511-1.316,18.769-1.962
		C2349.312,357.32,2374.645,460.66,2399.979,564z"/>
	<path fill-rule="evenodd" clip-rule="evenodd" fill="#539ACB" d="M2532.012,1088.006c47.047,28.702,94.083,57.42,141.143,86.101
		c38.271,23.324,76.57,46.604,114.857,69.904c0,0.665,0,1.33,0,1.995L2788,1246c-27.723,11.136-55.469,22.211-83.161,33.418
		c-69.882,28.281-139.722,56.662-209.61,84.922c-47.715,19.294-95.484,38.449-143.229,57.666c0-0.667,0-1.334,0-2
		c1.668-2.005,3.732-3.795,4.945-6.045c28.902-53.607,57.684-107.281,86.551-160.908c17.35-32.231,34.962-64.322,52.162-96.633
		c11.711-22,22.912-44.271,34.342-66.42c0.009-0.657,0.02-1.314,0.033-1.971C2530.693,1088.024,2531.352,1088.017,2532.012,1088.006
		z"/>
	<path fill-rule="evenodd" clip-rule="evenodd" fill="#7BAFD6" d="M1310,1706c-36.961,24.845-74.01,49.558-110.856,74.57
		c-37.675,25.575-75.118,51.488-112.718,77.175c-94.961,64.874-189.953,129.7-284.93,194.551
		c-27.174,18.555-54.335,37.128-81.502,55.692c7.219-26.602,14.25-53.257,21.688-79.798
		c23.322-83.204,46.847-166.353,70.201-249.548c24.251-86.393,48.48-172.792,72.529-259.241
		c6.224-22.371,11.735-44.939,17.573-67.417l0.005,0.008c0.669-0.664,1.337-1.329,2.006-1.994L904,1450
		c26.5,16.563,52.959,33.19,79.507,49.675c96.03,59.626,192.063,119.245,288.167,178.75c13.229,8.19,26.867,15.721,40.314,23.556
		l0.028,0.048c-0.015,0.657-0.02,1.314-0.015,1.972C1311.334,1704.667,1310.667,1705.333,1310,1706z"/>
	<path fill-rule="evenodd" clip-rule="evenodd" fill="#609ECD" d="M1792.059,1880.02c-0.014,0.662-0.039,1.323-0.075,1.985
		c-13.094,12.76-26.274,25.433-39.267,38.295c-73.293,72.563-146.51,145.204-219.813,217.757
		c-55.09,54.524-110.265,108.963-165.429,163.411c-2.354,2.323-4.98,4.368-7.48,6.544H1359c0,0-0.994-0.001-0.994,0
		c-2.002-25.444-3.976-50.891-6.014-76.332c-2.514-31.387-5.165-62.764-7.596-94.157c-1.612-20.835-2.852-41.697-4.417-62.536
		c-2.507-33.387-5.224-66.758-7.699-100.146c-1.57-21.172-2.729-42.374-4.312-63.545c-2.447-32.725-5.162-65.43-7.644-98.151
		c-1.555-20.507-3.058-41.02-4.271-61.548c-0.937-15.85-1.388-31.729-2.055-47.596c0.667,0,1.334,0,2,0
		c0.801,0.583,1.521,1.385,2.414,1.717c76.38,28.398,152.767,56.777,229.166,85.12c59.558,22.095,119.115,44.191,178.71,66.185
		c21.179,7.815,42.47,15.328,63.71,22.979C1790.687,1880.006,1791.373,1880.013,1792.059,1880.02z"/>
	<path fill-rule="evenodd" clip-rule="evenodd" fill="#64A6D1" d="M1316,1704c-0.666,0-1.333,0-2,0h-1h-0.999
		c-0.004-0.657,0.001-1.314,0.016-1.973c0.651-0.02,1.304-0.038,1.955-0.055c92.661-24.985,185.338-49.912,277.975-74.985
		c40.058-10.841,80.034-21.982,120.048-32.987c0.671,0.002,1.341,0.004,2.012,0.006c-11.337,38.664-22.675,77.329-34.012,115.994
		c-3.879,0.667-7.775,1.984-11.634,1.883c-13.906-0.365-27.794-1.428-41.7-1.824c-28.86-0.822-57.729-1.362-86.592-2.064
		c-25.872-0.629-51.739-1.513-77.614-1.943C1413.639,1705.238,1364.818,1704.67,1316,1704z"/>
	<path fill-rule="evenodd" clip-rule="evenodd" fill="#83B2D8" d="M901.986,1451.984c-5.838,22.478-11.35,45.046-17.573,67.417
		c-24.049,86.449-48.278,172.849-72.529,259.241c-23.354,83.195-46.879,166.344-70.201,249.548
		c-7.438,26.541-14.47,53.196-21.688,79.798c-0.661,0.008-1.322,0.016-1.983,0.023c-12.641-33.573-25.217-67.17-37.938-100.712
		c-15.914-41.963-31.841-83.923-47.956-125.809c-16.825-43.731-33.895-87.368-50.805-131.066c-1.313-3.393-2.217-6.942-3.31-10.419
		c21.076-18.747,42.131-37.518,63.234-56.233c28.303-25.101,56.697-50.097,84.948-75.254c20.826-18.546,41.424-37.348,62.234-55.911
		c35.166-31.368,70.433-62.623,105.608-93.981c2.206-1.966,3.987-4.41,5.966-6.632
		C900.658,1451.99,901.322,1451.986,901.986,1451.984z"/>
	<path fill-rule="evenodd" clip-rule="evenodd" fill="#4B94C8" d="M2352,1422.006c47.744-19.217,95.514-38.372,143.229-57.666
		c69.889-28.26,139.729-56.641,209.61-84.922c27.692-11.207,55.438-22.282,83.161-33.418c-1.503,3.677-2.775,7.469-4.543,11.014
		c-24.822,49.766-49.814,99.447-74.557,149.252c-30.662,61.719-61.168,123.515-91.665,185.315
		c-16.497,33.431-32.836,66.939-49.246,100.413c-1.774-1.361-3.9-2.439-5.266-4.131c-10.622-13.173-21.13-26.438-31.612-39.721
		c-36.551-46.318-73.11-92.631-109.602-138.996c-19.89-25.271-39.604-50.683-59.602-75.869c-0.97-1.221-3.901-0.885-5.919-1.273
		C2354.66,1428.671,2353.33,1425.338,2352,1422.006z"/>
	<path fill-rule="evenodd" clip-rule="evenodd" fill="#4693C7" d="M2355.989,1432.004c2.018,0.389,4.949,0.053,5.919,1.273
		c19.997,25.187,39.712,50.598,59.602,75.869c36.491,46.365,73.051,92.678,109.602,138.996
		c10.482,13.283,20.99,26.548,31.612,39.721c1.365,1.691,3.491,2.77,5.265,4.131c0.005,0.656,0.009,1.312,0.012,1.967
		c-44.419,1.354-88.839,2.664-133.254,4.132c-4.266,0.141-8.498,1.263-12.746,1.93c0,0-0.012-0.056-0.012-0.055
		c-0.52-3.262-0.795-6.586-1.598-9.776c-15.156-60.27-30.442-120.507-45.553-180.788
		C2368.382,1483.646,2362.262,1457.806,2355.989,1432.004z"/>
	<path fill-rule="evenodd" clip-rule="evenodd" fill="#9CC7E1" d="M1042.016,508.026c1.346,40.173,2.564,80.352,4.079,120.519
		c1.101,29.188,2.646,58.359,3.896,87.542c2.06,48.098,4.011,96.201,6.064,144.3c1.262,29.516,2.662,59.024,3.941,88.539
		c2.041,47.1,4.017,94.202,6.052,141.302c1.289,29.848,2.681,59.69,3.921,89.54c0.252,6.071,0.029,12.162,0.025,18.243
		c-10.353-4.459-20.768-8.781-31.049-13.399c-59.062-26.529-118.061-53.201-177.146-79.675
		c-27.857-12.481-55.863-24.631-83.802-36.931l0.006-0.026c-0.002-0.665-0.005-1.331-0.009-1.996
		c13.174-28.33,26.168-56.745,39.557-84.973c33.342-70.297,66.905-140.49,100.3-210.763
		c23.831-50.147,47.531-100.355,71.289-150.537C1006.766,582.482,1024.391,545.254,1042.016,508.026z"/>
	<path fill-rule="evenodd" clip-rule="evenodd" fill="#6DAAD3" d="M2398,568.003c0.67-0.664,1.341-1.328,2.012-1.992
		c0.662-0.003,1.325-0.004,1.988-0.003c0,0.665,0,1.33,0,1.995c7.016,29.381,13.754,58.831,21.095,88.131
		c34.809,138.915,69.807,277.782,104.573,416.707c1.04,4.156,0.262,8.768,0.332,13.166c-27.267-3.649-54.557-7.132-81.793-10.987
		c-39.064-5.529-78.09-11.337-117.134-17.017c-39.043-5.681-78.091-11.332-117.132-17.027
		c-38.715-5.648-77.434-11.271-116.132-17.034c-21.284-3.171-42.528-6.607-63.79-9.925c29.267-35.61,58.519-71.233,87.805-106.827
		c28.025-34.061,56.089-68.091,84.131-102.137c26.777-32.509,53.522-65.044,80.331-97.526
		c23.645-28.648,47.479-57.142,70.994-85.896C2369.748,603.941,2383.775,585.892,2398,568.003z"/>
	<path fill-rule="evenodd" clip-rule="evenodd" fill="#62A5D1" d="M2032.02,1014.017c21.262,3.317,42.506,6.754,63.79,9.925
		c38.698,5.764,77.417,11.386,116.132,17.034c39.041,5.695,78.089,11.347,117.132,17.027c39.044,5.68,78.069,11.487,117.134,17.017
		c27.236,3.855,54.526,7.338,81.793,10.987c0.678,0.674,1.355,1.348,2.033,2.021c-0.014,0.657-0.024,1.314-0.033,1.972
		c-38.303,23.977-76.646,47.887-114.896,71.947c-41.909,26.364-83.765,52.814-125.584,79.321
		c-59.206,37.528-118.355,75.144-177.529,112.722c-0.66,0.008-1.32,0.018-1.979,0.026c-0.008-0.675-0.016-1.35-0.023-2.024
		c0.004-0.664,0.006-1.328,0.005-1.992c-0.661-1.334-1.323-2.669-1.984-4.004c-0.325-2.627-0.403-5.313-1.01-7.874
		c-21.881-92.448-43.89-184.866-65.655-277.341c-3.639-15.463-6.244-31.168-9.327-46.762L2032.02,1014.017z"/>
	<path fill-rule="evenodd" clip-rule="evenodd" fill="#91BEDF" d="M901.986,1451.984c-0.664,0.002-1.328,0.006-1.992,0.01
		c-8.152,2.613-16.417,4.924-24.44,7.886c-109.718,40.505-219.398,81.11-329.104,121.648c-8.093,2.99-16.309,5.645-24.468,8.455
		c1.22-3.746,2.001-7.709,3.726-11.207c31.184-63.263,62.571-126.425,93.729-189.701c34.677-70.427,69.17-140.944,103.734-211.427
		c16.402-33.448,32.76-66.92,49.214-100.343c1.597-3.244,3.733-6.224,5.619-9.326l-0.006,0.026c1.064,4.17,1.878,8.424,3.231,12.499
		c22.249,66.954,44.523,133.899,66.882,200.817c18.571,55.583,37.259,111.127,55.896,166.688c-0.002,0.663-0.004,1.326-0.006,1.989
		l-0.003-0.002c-0.669,0.665-1.337,1.33-2.006,1.994L901.986,1451.984z"/>
	<path fill-rule="evenodd" clip-rule="evenodd" fill="#7CB6D9" d="M1313.972,1701.973c-0.651,0.017-1.304,0.035-1.955,0.055
		c0,0.001-0.028-0.047-0.027-0.046c-1.33-1.994-2.659-3.987-3.989-5.981c-0.615-1.887-1.027-3.871-1.877-5.646
		c-31.32-65.403-62.615-130.819-94.056-196.165c-28.414-59.057-57.059-118.002-85.461-177.064
		c-9.08-18.883-17.505-38.081-26.607-56.952c-9.087-18.843-18.646-37.457-27.999-56.172c0.008-1.324,0.015-2.647,0.022-3.972
		c49.247-19.306,98.482-38.644,147.745-57.909c102.575-40.116,205.164-80.197,307.751-120.282c6.807-2.659,13.647-5.235,20.472-7.85
		c0,0,0.069,0.077,0.068,0.076c-9.377,27.731-18.688,55.485-28.142,83.191c-27.291,79.984-54.687,159.934-81.948,239.928
		c-15.671,45.987-31.104,92.055-46.746,138.052C1365.516,1550.828,1339.727,1626.395,1313.972,1701.973z"/>
	<path fill-rule="evenodd" clip-rule="evenodd" fill="#7CB6D9" d="M1778,696c0.667-0.002,1.333-0.004,2-0.006
		c0.592,1.525,0.856,3.309,1.824,4.537c36.085,45.854,72.162,91.716,108.396,137.453C1936.744,896.711,1983.4,955.333,2030,1014
		c-3.162,0.663-6.346,1.974-9.484,1.874c-11.601-0.368-23.186-1.767-34.778-1.777c-143.912-0.134-287.825-0.091-431.737-0.094
		c-1.328,0.012-2.655,0.024-3.983,0.037c-0.652-0.007-1.305,0.001-1.957,0.024l-0.069-0.077c0.672-1.328,1.344-2.656,2.016-3.984
		c1.019-0.837,2.277-1.503,3.023-2.537c38.997-54.108,77.884-108.296,116.929-162.37C1705.887,795.336,1741.979,745.694,1778,696z"
		/>
	<path fill-rule="evenodd" clip-rule="evenodd" fill="#8EBFDE" d="M904.006,1448.012c-18.637-55.563-37.324-111.106-55.896-166.689
		c-22.358-66.918-44.633-133.863-66.882-200.817c-1.354-4.075-2.167-8.329-3.231-12.499c27.938,12.3,55.944,24.449,83.802,36.931
		c59.086,26.474,118.085,53.146,177.146,79.675c10.281,4.618,20.696,8.94,31.049,13.399c0.002,0.669,0.004,1.338,0.006,2.006
		c-1.535,3.265-2.686,6.786-4.668,9.752c-11.614,17.386-23.487,34.599-35.154,51.95c-33.898,50.417-67.777,100.848-101.575,151.332
		c-7.717,11.526-15.08,23.289-22.605,34.943C905.333,1448.002,904.67,1448.008,904.006,1448.012z"/>
	<path fill-rule="evenodd" clip-rule="evenodd" fill="#88BDDC" d="M1778,696c-36.021,49.694-72.113,99.336-108.042,149.096
		c-39.045,54.074-77.932,108.262-116.929,162.37c-0.746,1.034-2.005,1.7-3.023,2.537c0.671-40.242,1.13-80.489,2.068-120.726
		c1.093-46.843,2.564-93.677,3.956-140.512c0.542-18.259,1.313-36.51,1.98-54.765c21.814-0.386,43.628-0.845,65.444-1.095
		c4.277-0.05,8.563,1.033,12.847,1.041c47.232,0.079,94.466,0.05,141.698,0.05C1778,694.665,1778,695.332,1778,696z"/>
	<path fill-rule="evenodd" clip-rule="evenodd" fill="#87BBDB" d="M905.997,1447.994c7.525-11.654,14.889-23.417,22.605-34.943
		c33.798-50.484,67.677-100.915,101.575-151.332c11.667-17.352,23.54-34.564,35.154-51.95c1.982-2.966,3.133-6.487,4.668-9.752
		c0.674,0.004,1.348,0.008,2.022,0.012c-0.008,1.324-0.015,2.647-0.022,3.972c-0.729,4.215-1.513,8.422-2.182,12.646
		c-10.614,67.117-21.215,134.235-31.818,201.354C993.999,1427.998,949.998,1437.996,905.997,1447.994z"/>
	<path fill-rule="evenodd" clip-rule="evenodd" fill="#509ACB" d="M2110.012,1354.017c0.659-0.009,1.319-0.019,1.979-0.026
		c3.252,0.546,6.586,0.801,9.745,1.682c76.766,21.404,153.513,42.875,230.264,64.334c0,0.666,0,1.333,0,2
		c1.33,3.332,2.66,6.665,3.989,9.998c6.272,25.802,12.393,51.643,18.849,77.399c15.11,60.281,30.396,120.519,45.553,180.788
		c0.803,3.19,1.078,6.515,1.598,9.775c-32.616,9.231-65.26,18.373-97.846,27.712c-100.69,28.856-201.383,57.705-302.028,86.72
		c-73.491,21.188-146.906,42.638-220.365,63.937c-2.532,0.734-5.169,1.106-7.758,1.648c0.784-2.176,1.231-4.554,2.401-6.496
		c17.659-29.32,35.396-58.593,53.148-87.856c48.603-80.119,97.246-160.214,145.823-240.349
		c38.24-63.084,76.404-126.214,114.603-189.322C2109.981,1355.313,2109.996,1354.664,2110.012,1354.017z"/>
	<path fill-rule="evenodd" clip-rule="evenodd" fill="#59A0CE" d="M2109.967,1355.96c-38.198,63.108-76.362,126.238-114.603,189.322
		c-48.577,80.135-97.221,160.229-145.823,240.349c-17.752,29.264-35.489,58.536-53.148,87.856c-1.17,1.942-1.617,4.32-2.401,6.496
		c-0.645,0.021-1.289,0.032-1.933,0.036c-0.686-0.007-1.372-0.014-2.059-0.02c-2.056-3.741-3.841-7.663-6.207-11.197
		c-32.689-48.819-65.5-97.557-98.126-146.419c-2.489-3.728-3.81-8.237-5.673-12.384c11.337-38.665,22.675-77.33,34.012-115.994
		c28.703-17.338,57.411-34.665,86.107-52.013c85.242-51.53,170.446-103.122,255.744-154.561
		C2073.723,1376.658,2091.921,1366.437,2109.967,1355.96z"/>
	<path fill-rule="evenodd" clip-rule="evenodd" fill="#7CB4D8" d="M2030,1014c-46.6-58.667-93.256-117.289-139.78-176.016
		c-36.233-45.737-72.311-91.599-108.396-137.453c-0.968-1.229-1.232-3.012-1.824-4.537c23.57-5.321,47.08-10.937,70.725-15.909
		c65.629-13.803,131.301-27.404,196.98-40.964c76.407-15.773,152.848-31.379,229.258-47.136
		c35.442-7.309,70.836-14.851,106.278-22.155c4.839-0.998,9.835-1.237,14.759-1.827c-14.225,17.889-28.252,35.938-42.72,53.628
		c-23.516,28.754-47.35,57.247-70.994,85.896c-26.809,32.482-53.554,65.018-80.331,97.526
		c-28.042,34.046-56.105,68.076-84.131,102.137c-29.286,35.594-58.538,71.217-87.805,106.827l-0.003,0.003
		C2031.344,1014.013,2030.672,1014.006,2030,1014z"/>
	<path fill-rule="evenodd" clip-rule="evenodd" fill="#579FCE" d="M2352,1420.006c-76.751-21.459-153.498-42.93-230.264-64.334
		c-3.159-0.881-6.493-1.136-9.745-1.682c59.174-37.578,118.323-75.193,177.529-112.722c41.819-26.507,83.675-52.957,125.584-79.321
		c38.249-24.061,76.593-47.971,114.896-71.947c-11.43,22.149-22.631,44.42-34.342,66.42c-17.2,32.311-34.813,64.401-52.162,96.633
		c-28.867,53.627-57.648,107.301-86.551,160.908C2355.732,1416.211,2353.668,1418.001,2352,1420.006z"/>
	<path fill-rule="evenodd" clip-rule="evenodd" fill="#7FB5D8" d="M905.997,1447.994c44.001-9.998,88.002-19.996,132.003-29.994
		c3.107,2.962,6.397,5.757,9.291,8.916c10.466,11.428,20.507,23.26,31.252,34.416c15.063,15.64,30.67,30.755,45.919,46.218
		c4.175,4.232,7.65,9.162,11.88,13.331c11.998,11.825,24.621,23.038,36.255,35.202c15.753,16.472,30.739,33.674,46.202,50.426
		c8.45,9.155,17.099,18.133,25.842,27.009c15.759,15.996,31.607,31.906,47.523,47.746c5.108,5.083,10.548,9.834,15.836,14.736
		c1.33,1.994,2.659,3.987,3.989,5.981c-13.448-7.836-27.086-15.366-40.315-23.557c-96.104-59.505-192.137-119.124-288.167-178.75
		C956.959,1483.19,930.5,1466.563,904,1450c0.002-0.663,0.004-1.326,0.006-1.989C904.67,1448.008,905.333,1448.002,905.997,1447.994
		z"/>
	<path fill-rule="evenodd" clip-rule="evenodd" fill="#83B2D8" d="M901.991,1451.992c0.669-0.664,1.337-1.329,2.006-1.994
		C903.328,1450.663,902.66,1451.328,901.991,1451.992z"/>
	<path fill-rule="evenodd" clip-rule="evenodd" fill="#5FA2CF" d="M1679.994,1710c1.863,4.146,3.184,8.656,5.673,12.384
		c32.626,48.862,65.437,97.6,98.126,146.419c2.366,3.534,4.151,7.456,6.207,11.197c-21.24-7.65-42.531-15.163-63.71-22.979
		c-59.595-21.993-119.152-44.09-178.71-66.185c-76.399-28.343-152.786-56.722-229.166-85.12c-0.894-0.332-1.613-1.134-2.414-1.717
		c48.818,0.67,97.639,1.238,146.454,2.051c25.875,0.431,51.742,1.314,77.614,1.943c28.863,0.702,57.731,1.242,86.592,2.064
		c13.906,0.396,27.794,1.459,41.7,1.824C1672.219,1711.984,1676.115,1710.667,1679.994,1710z"/>
	<path fill-rule="evenodd" clip-rule="evenodd" fill="#67ABD5" d="M2109.967,1355.96c-18.046,10.477-36.244,20.698-54.109,31.473
		c-85.298,51.438-170.502,103.03-255.744,154.561c-28.696,17.348-57.404,34.675-86.107,52.013c-0.671-0.002-1.341-0.004-2.012-0.006
		c-1.182-4.498-2.298-9.014-3.556-13.489c-23.472-83.519-46.923-167.043-70.455-250.546
		c-23.982-85.102-48.117-170.161-72.022-255.285c-5.65-20.119-10.646-40.422-15.944-60.64c1.328-0.013,2.655-0.025,3.983-0.037
		c1.824,1.89,3.353,4.261,5.52,5.594c23.74,14.616,47.522,29.167,71.406,43.549c49.475,29.791,99.104,59.327,148.506,89.237
		c41.431,25.083,82.56,50.662,123.949,75.813c45.377,27.574,90.854,54.984,136.376,82.316c23.31,13.995,46.815,27.664,70.231,41.479
		c0.008,0.675,0.016,1.35,0.023,2.024C2109.996,1354.664,2109.981,1355.313,2109.967,1355.96z"/>
	<path fill-rule="evenodd" clip-rule="evenodd" fill="#6EADD5" d="M1550.017,1014.04c5.298,20.218,10.294,40.521,15.944,60.64
		c23.905,85.124,48.04,170.184,72.022,255.285c23.532,83.503,46.983,167.027,70.455,250.546c1.258,4.476,2.374,8.991,3.556,13.489
		c-40.014,11.005-79.99,22.146-120.048,32.987c-92.637,25.073-185.313,50-277.975,74.985
		c25.755-75.578,51.544-151.145,77.251-226.738c15.642-45.997,31.075-92.064,46.746-138.052
		c27.262-79.994,54.657-159.943,81.948-239.928c9.454-27.706,18.765-55.46,28.142-83.191
		C1548.712,1014.041,1549.364,1014.033,1550.017,1014.04z"/>
	<path fill-rule="evenodd" clip-rule="evenodd" fill="#6DADD6" d="M2109.988,1351.992c-23.416-13.815-46.922-27.484-70.231-41.479
		c-45.522-27.332-90.999-54.742-136.376-82.316c-41.39-25.151-82.519-50.73-123.949-75.813
		c-49.402-29.91-99.031-59.446-148.506-89.237c-23.884-14.382-47.666-28.933-71.406-43.549c-2.167-1.333-3.695-3.704-5.52-5.594
		c143.912,0.003,287.825-0.04,431.737,0.094c11.593,0.011,23.178,1.409,34.778,1.777c3.139,0.1,6.322-1.211,9.484-1.874
		c0.672,0.006,1.344,0.013,2.017,0.02c3.083,15.594,5.688,31.299,9.327,46.762c21.766,92.475,43.774,184.893,65.655,277.341
		c0.606,2.562,0.685,5.247,1.01,7.874c0.661,1.335,1.323,2.67,1.984,4.004C2109.994,1350.664,2109.992,1351.328,2109.988,1351.992z"
		/>
	<path fill-rule="evenodd" clip-rule="evenodd" fill="#67ABD5" d="M2109.993,1350c-0.661-1.334-1.323-2.669-1.984-4.004
		C2108.67,1347.331,2109.332,1348.666,2109.993,1350z"/>
	<path fill-rule="evenodd" clip-rule="evenodd" fill="#7FB6D9" d="M1308,1696c-5.288-4.902-10.728-9.653-15.836-14.736
		c-15.916-15.84-31.765-31.75-47.523-47.746c-8.743-8.876-17.392-17.854-25.842-27.009c-15.463-16.752-30.449-33.954-46.202-50.426
		c-11.634-12.164-24.257-23.377-36.255-35.202c-4.229-4.169-7.705-9.099-11.88-13.331c-15.249-15.463-30.855-30.578-45.919-46.218
		c-10.745-11.156-20.786-22.988-31.252-34.416c-2.894-3.159-6.184-5.954-9.291-8.916c10.604-67.118,21.204-134.236,31.818-201.354
		c0.669-4.225,1.452-8.432,2.182-12.646c9.353,18.715,18.912,37.329,27.999,56.172c9.103,18.871,17.527,38.069,26.607,56.952
		c28.402,59.063,57.047,118.008,85.461,177.064c31.44,65.346,62.735,130.762,94.056,196.165
		C1306.973,1692.129,1307.385,1694.113,1308,1696z"/>
</g>
</svg>
