<?xml version="1.0" encoding="utf-8"?>
<!-- Generator: Adobe Illustrator 16.0.0, SVG Export Plug-In . SVG Version: 6.00 Build 0)  -->
<!DOCTYPE svg PUBLIC "-//W3C//DTD SVG 1.1//EN" "http://www.w3.org/Graphics/SVG/1.1/DTD/svg11.dtd">
<svg version="1.1" id="Layer_1" xmlns="http://www.w3.org/2000/svg" xmlns:xlink="http://www.w3.org/1999/xlink" x="0px" y="0px"
	 width="3496px" height="2480px" viewBox="0 0 3496 2480" enable-background="new 0 0 3496 2480" xml:space="preserve">
<g>
	<path fill-rule="evenodd" clip-rule="evenodd" fill="#905DA1" d="M3498,1584c0,62.667,0,125.333,0,188
		c-9.208,4.598-18.486,9.063-27.612,13.817c-44.008,22.926-87.968,45.943-131.958,68.904
		c-62.002,32.362-123.985,64.758-186.031,97.034c-40.48,21.059-81.092,41.869-121.567,62.938
		c-9.139,4.757-17.959,10.124-26.925,15.211c-1.258-0.037-2.517-0.076-3.774-0.114c7.325-30.748,14.672-61.491,21.971-92.245
		c18.292-77.073,36.538-154.158,54.847-231.228c26.311-110.748,52.661-221.487,78.994-332.23c0.677-0.092,1.354-0.183,2.029-0.272
		c0.61,0.139,1.227,0.244,1.85,0.317c15.979,10.139,31.85,20.448,47.951,30.387c72.742,44.902,145.574,89.661,218.32,134.557
		C3450.145,1553.918,3474.036,1569.018,3498,1584z"/>
	<path fill-rule="evenodd" clip-rule="evenodd" fill="#A24793" d="M630,2c69.333,0,138.667,0,208,0
		c2.264,8.354,4.548,16.701,6.788,25.062c32.42,120.979,64.834,241.961,97.25,362.942c-2.8,1.227-5.725,3.737-8.381,3.479
		c-24.132-2.337-48.22-5.121-72.313-7.843c-39.604-4.475-79.188-9.14-118.81-13.466c-39.623-4.327-79.296-8.197-118.919-12.521
		c-46.554-5.081-93.078-10.437-139.615-15.672c-1.338-0.664-2.675-1.328-4.013-1.992c7.345-16.71,14.606-33.458,22.05-50.124
		c20.19-45.21,40.459-90.385,60.694-135.574c19.828-44.279,39.72-88.529,59.413-132.868C625.226,16.487,627.404,9.151,630,2z"/>
	<path fill-rule="evenodd" clip-rule="evenodd" fill="#BB6CBC" d="M438,2482c-61.333,0-122.667,0-184,0
		c-0.648-20.261-1.399-40.519-1.919-60.782c-0.767-29.912-1.364-59.829-2.044-89.743c-0.657-28.917-1.453-57.83-1.96-86.75
		c-0.799-45.56-1.408-91.122-2.097-136.684c0.014-1.333,0.027-2.666,0.04-3.998c46.224,0.633,92.446,1.287,138.67,1.895
		c52.548,0.69,105.097,1.356,157.646,1.998c58.539,0.716,117.079,1.393,175.619,2.086c0.01,0.652,0.019,1.307,0.025,1.959
		c-1.764,1.968-3.676,3.823-5.271,5.919c-29,38.129-58.019,76.243-86.916,114.449c-33.717,44.579-67.361,89.214-100.963,133.881
		C495.832,2404.778,466.939,2443.406,438,2482z"/>
	<path fill-rule="evenodd" clip-rule="evenodd" fill="#903E85" d="M2,568c0-62.667,0-125.333,0-188
		c25.205-1.418,50.42-2.688,75.612-4.303c17.894-1.147,35.759-2.741,53.634-4.172c22.836-1.828,45.666-3.739,68.505-5.529
		c19.867-1.557,39.746-2.953,59.614-4.493c23.171-1.797,46.334-3.715,69.506-5.502c20.2-1.559,40.406-3.031,60.613-4.503
		c25.497-1.856,50.997-3.675,76.497-5.509c3.346,0.01,6.691,0.02,10.037,0.03c-1.519,3.684-2.757,7.514-4.602,11.027
		c-11.452,21.816-23.148,43.505-34.563,65.342c-32.551,62.275-65.058,124.574-97.479,186.917
		c-20.746,39.893-41.225,79.923-62.001,119.799c-7.529,14.45-15.577,28.63-23.388,42.933c0,0,0.007-0.012,0.007-0.013
		c-1.326-0.679-2.651-1.358-3.977-2.037c-22.022-18.199-43.976-36.482-66.081-54.58c-39.065-31.983-78.165-63.927-117.365-95.745
		C45.169,602.291,23.531,585.211,2,568z"/>
	<path fill-rule="evenodd" clip-rule="evenodd" fill="#884B91" d="M3498,642c0,60.667,0,121.333,0,182
		c-18.883,17.237-37.969,34.26-56.603,51.762c-28.823,27.073-57.249,54.57-86.024,81.695
		c-13.529,12.754-27.652,24.876-41.193,37.618c-14.262,13.421-28.148,27.241-42.198,40.887c-0.646,0.024-1.292,0.048-1.939,0.069
		c-0.667-0.676-1.333-1.351-1.999-2.025c-2.078-3.762-3.882-7.71-6.277-11.257c-26.063-38.594-52.275-77.087-78.339-115.681
		c-56.601-83.809-113.155-167.647-169.641-251.533c-2.373-3.524-3.868-7.64-5.772-11.48C3171.343,643.37,3334.672,642.685,3498,642z
		"/>
	<path fill-rule="evenodd" clip-rule="evenodd" fill="#B361B6" d="M3498,70c0,34.667,0,69.333,0,104
		c-15.8,9.842-31.671,19.571-47.387,29.545c-63.544,40.325-127.063,80.691-190.546,121.111
		c-41.013,26.113-81.976,52.307-122.896,78.565c-7.246,4.649-14.172,9.797-21.245,14.714c-0.653,0.004-1.306,0.004-1.958,0.003
		c-1.977-5.321-3.953-10.643-5.931-15.965c-1.13-4.157-1.962-8.422-3.434-12.455c-16.31-44.694-32.703-89.357-49.103-134.019
		c-16.055-43.725-32.184-87.422-48.201-131.16c-10.523-28.738-20.907-57.527-31.354-86.295c0.695-0.022,1.39-0.045,2.085-0.068
		c19.211,1.294,38.417,2.651,57.633,3.867c43.078,2.728,86.162,5.365,129.241,8.075c31.148,1.959,62.284,4.113,93.439,5.931
		c37.795,2.203,75.606,4.117,113.407,6.211c12.269,0.679,24.528,1.524,36.792,2.297C3438.363,66.237,3468.182,68.119,3498,70z"/>
	<path fill-rule="evenodd" clip-rule="evenodd" fill="#A46AB7" d="M3003.905,2029.904c8.967-5.087,17.787-10.454,26.926-15.211
		c40.476-21.068,81.087-41.879,121.567-62.938c62.046-32.276,124.029-64.672,186.031-97.034
		c43.99-22.961,87.95-45.979,131.958-68.904c9.126-4.755,18.404-9.22,27.612-13.817c0,106,0,212,0,318
		c-4.67,12.004-9.339,24.007-14.009,36.011c-0.661,0.007-1.322,0.016-1.983,0.026c-0.679,0.01-1.357,0.02-2.035,0.028
		c-99.557-19.76-199.115-39.508-298.67-59.281c-58.428-11.605-116.848-23.25-175.271-34.877
		C3005.322,2031.239,3004.613,2030.571,3003.905,2029.904z"/>
	<path fill-rule="evenodd" clip-rule="evenodd" fill="#71306B" d="M2,1030c0-88,0-176,0-264c24.565,0.646,49.131,1.26,73.695,1.949
		c22.238,0.624,44.47,1.477,66.71,1.969c35.871,0.793,71.747,1.372,107.621,2.042c1.322,0.021,2.645,0.043,3.967,0.065l-0.007,0.012
		c22.428,25.412,44.845,50.833,67.287,76.233c13.861,15.688,27.662,31.433,41.668,46.99c13.551,15.052,27.33,29.896,41.01,44.832
		c0.016,0.641,0.03,1.281,0.043,1.923c-0.672,0.655-1.345,1.312-2.017,1.968c-0.663,0.006-1.326,0.018-1.99,0.035
		c-0.662,0.005-1.325,0.011-1.987,0.018c-0.676,0.648-1.351,1.298-2.026,1.947c-4.492,1.178-9.066,2.113-13.467,3.569
		c-115.982,38.386-231.94,76.843-347.936,115.189c-4.678,1.547-9.675,2.131-14.524,3.164c-0.022-0.621-0.05-1.242-0.082-1.862
		C13.976,1054.029,7.988,1042.015,2,1030z"/>
	<path fill-rule="evenodd" clip-rule="evenodd" fill="#9F4391" d="M2,74C2,50,2,26,2,2c129.333,0,258.667,0,388,0
		c7.988,30.616,16.072,61.207,23.944,91.853c15.334,59.695,30.667,119.392,45.755,179.148c5.785,22.911,10.897,45.992,16.315,68.995
		c-8.484-4.547-17.093-8.876-25.431-13.677c-36.576-21.06-73.01-42.368-109.62-63.37c-34.873-20.006-69.923-39.704-104.854-59.61
		c-38.945-22.193-77.847-44.465-116.763-66.71c-29.918-17.102-59.752-34.354-89.794-51.236C20.667,82.398,11.201,78.436,2,74z"/>
	<path fill-rule="evenodd" clip-rule="evenodd" fill="#B977D0" d="M3479.972,2126.066c0.679-0.01,1.357-0.02,2.036-0.029
		c0.647,9.943,1.57,19.878,1.89,29.832c0.821,25.591,1.382,51.189,2.036,76.786c0.681,26.595,1.342,53.19,2.024,79.784
		c0.648,25.264,1.361,50.525,1.96,75.79c0.74,31.256,1.393,62.514,2.082,93.771c-64.667,0-129.333,0-194,0
		c-5.189-6.452-10.21-13.05-15.6-19.331c-19.429-22.642-38.967-45.189-58.493-67.746c-16.279-18.805-32.571-37.599-48.913-56.349
		c-9.48-10.876-19.071-21.657-28.611-32.48c-0.804,0.189-1.606,0.379-2.409,0.568c0,3.785,0,7.57,0,11.355
		c-0.674-4.693-1.348-9.387-2.021-14.08c0.035-0.64,0.077-1.279,0.123-1.918c25.771-13.234,51.55-26.455,77.314-39.704
		c46.196-23.755,92.353-47.59,138.587-71.272c37.645-19.282,75.408-38.333,113.022-57.675
		C3474.354,2131.643,3476.998,2128.533,3479.972,2126.066z"/>
	<path fill-rule="evenodd" clip-rule="evenodd" fill="#AF5FB2" d="M438,2482c28.939-38.594,57.832-77.222,86.83-115.771
		c33.602-44.667,67.246-89.302,100.963-133.881c28.897-38.206,57.916-76.32,86.916-114.449c1.595-2.096,3.507-3.951,5.271-5.918
		c0.8,1.453,1.808,2.83,2.368,4.37c21.873,60.097,43.706,120.209,65.544,180.318c15.695,43.204,31.493,86.37,47.035,129.629
		c6.635,18.468,12.731,37.128,19.073,55.701C714,2482,576,2482,438,2482z"/>
	<path fill-rule="evenodd" clip-rule="evenodd" fill="#A050A5" d="M3115.927,417.936c7.073-4.917,13.999-10.064,21.245-14.714
		c40.92-26.259,81.883-52.452,122.896-78.565c63.483-40.42,127.002-80.786,190.546-121.111
		c15.716-9.974,31.587-19.703,47.387-29.545c0,130.667,0,261.333,0,392c-6.433-2.702-12.806-5.559-19.307-8.084
		c-89.224-34.666-178.44-69.349-267.713-103.886C3179.372,441.803,3147.615,429.956,3115.927,417.936z"/>
	<path fill-rule="evenodd" clip-rule="evenodd" fill="#76356F" d="M1366,2c2.667,0,5.333,0,8,0c0.64,1.157,1.027,2.592,1.955,3.431
		c16.769,15.188,33.5,30.419,50.446,45.406c25.657,22.691,51.516,45.156,77.209,67.807c19.711,17.377,39.246,34.951,58.956,52.328
		c19.705,17.373,39.586,34.547,59.289,51.923c19.457,17.159,38.703,34.561,58.219,51.654c7.722,6.765,15.92,12.985,23.901,19.453
		c0.675,0.669,1.349,1.337,2.023,2.006l-0.014-0.001c-2.679,0.688-5.384,2.061-8.032,1.957c-29.55-1.157-59.092-2.535-88.635-3.869
		c-29.211-1.318-58.421-2.663-87.632-3.98c-45.147-2.036-90.296-4.035-135.441-6.097c-27.548-1.258-55.084-2.792-82.639-3.861
		c-39.86-1.546-79.733-2.783-119.601-4.152c-0.673-0.004-1.346-0.009-2.018-0.013c0.007-0.657,0.017-1.314,0.027-1.973
		c6.207-8.648,12.609-17.164,18.586-25.969c30.851-45.449,61.545-91.004,92.393-136.454c13.645-20.104,27.729-39.91,41.23-60.109
		C1345.115,35.191,1355.43,18.51,1366,2z"/>
	<path fill-rule="evenodd" clip-rule="evenodd" fill="#A04493" d="M2,74c9.201,4.436,18.667,8.398,27.553,13.393
		c30.042,16.882,59.875,34.135,89.794,51.236c38.916,22.245,77.817,44.517,116.763,66.71c34.931,19.906,69.981,39.604,104.854,59.61
		c36.61,21.002,73.044,42.311,109.62,63.37c8.338,4.801,16.946,9.13,25.431,13.677c1.324-0.002,2.648-0.005,3.973-0.007
		c1.338,0.664,2.675,1.328,4.013,1.992c-1.333,0.008-2.666,0.016-3.998,0.023c-4.674,0.661-9.348,1.323-14.021,1.984
		c-25.5,1.834-51,3.652-76.497,5.509c-20.207,1.472-40.413,2.944-60.613,4.503c-23.172,1.787-46.334,3.705-69.506,5.502
		c-19.868,1.54-39.748,2.937-59.614,4.493c-22.839,1.79-45.668,3.701-68.505,5.529c-17.875,1.431-35.74,3.024-53.634,4.172
		C52.42,377.313,27.205,378.582,2,380C2,278,2,176,2,74z"/>
	<path fill-rule="evenodd" clip-rule="evenodd" fill="#8B5B9B" d="M2298,2482c-111.333,0-222.667,0-334,0
		c-21.169-16.559-42.24-33.244-63.541-49.632c-15.24-11.726-30.789-23.051-46.2-34.555c-0.056-0.621-0.128-1.239-0.216-1.856
		c1.539-0.595,3.03-1.436,4.625-1.747c84.907-16.546,169.835-32.981,254.732-49.573c57.471-11.232,114.877-22.784,172.35-33.998
		c56.492-11.023,113.015-21.885,169.557-32.645c22.201-4.225,44.49-7.98,66.74-11.95c-2.893,3.206-5.596,6.609-8.706,9.587
		c-28.831,27.597-57.792,55.059-86.595,82.686c-21.85,20.958-43.516,42.107-65.291,63.142c-1.669,1.612-3.666,2.884-5.338,4.493
		C2336.726,2444.614,2317.367,2463.312,2298,2482z"/>
	<path fill-rule="evenodd" clip-rule="evenodd" fill="#9A56A0" d="M3115.927,417.936c31.688,12.021,63.445,23.867,95.054,36.095
		c89.272,34.537,178.489,69.22,267.713,103.886c6.501,2.525,12.874,5.382,19.307,8.084c0,25.333,0,50.667,0,76
		c-163.328,0.685-326.657,1.37-489.986,2.055c0-0.001-0.047-0.099-0.047-0.099c-0.008-0.675-0.017-1.351-0.025-2.026
		c5.443-12.147,10.608-24.429,16.38-36.419c21.531-44.735,43.347-89.333,64.873-134.069c8.515-17.694,16.552-35.618,24.806-53.438
		l-0.031-0.066C3114.621,417.939,3115.273,417.939,3115.927,417.936z"/>
	<path fill-rule="evenodd" clip-rule="evenodd" fill="#783C77" d="M1834,2c160.667,0,321.333,0,482,0
		c1.293,40.134,2.756,80.263,3.826,120.402c0.956,35.852,1.479,71.715,2.191,107.573c-0.01,7.343-0.02,14.686-0.028,22.028
		c-30.381-13.527-60.781-27.012-91.139-40.593c-34.911-15.619-69.755-31.39-104.684-46.972
		c-39.481-17.613-79.032-35.072-118.538-52.631c-34.645-15.398-69.303-30.766-103.892-46.288
		c-30.635-13.748-61.183-27.69-91.769-41.548C1819.313,16.648,1826.656,9.324,1834,2z"/>
	<path fill-rule="evenodd" clip-rule="evenodd" fill="#8F3E84" d="M942.038,390.004c-32.416-120.981-64.83-241.963-97.25-362.942
		C842.548,18.701,840.264,10.354,838,2c94.667,0,189.333,0,284,0c9.345,7.985,18.689,15.971,28.035,23.956l-0.046,0.061
		c-1.75,5.288-2.944,10.85-5.379,15.802c-3.665,7.454-8.259,14.447-12.353,21.696c-27.019,47.845-53.923,95.754-81.03,143.549
		c-34.993,61.696-70.141,123.305-105.222,184.95c-0.658,0.672-1.316,1.343-1.976,2.014
		C943.366,392.687,942.702,391.345,942.038,390.004z"/>
	<path fill-rule="evenodd" clip-rule="evenodd" fill="#672D62" d="M1703.976,294.002c-7.981-6.468-16.18-12.688-23.901-19.453
		c-19.516-17.094-38.762-34.495-58.219-51.654c-19.703-17.376-39.584-34.55-59.289-51.923
		c-19.71-17.377-39.245-34.951-58.956-52.328c-25.693-22.65-51.552-45.115-77.209-67.807
		c-16.946-14.987-33.678-30.219-50.446-45.406C1375.027,4.592,1374.64,3.157,1374,2c22.667,0,45.333,0,68,0
		c6.536,0.746,13.056,1.754,19.612,2.193c30.163,2.019,60.328,4.046,90.512,5.734c18.588,1.04,37.214,1.39,55.816,2.213
		c12.615,0.559,25.222,1.333,37.825,2.13c29.507,1.866,59.003,3.922,88.517,5.676c25.208,1.498,50.435,2.682,75.653,4.004
		c0,0,0.112,0.088,0.111,0.088c-0.021,1.324-0.043,2.649-0.064,3.974c-3.896,9.107-8.166,18.074-11.628,27.344
		c-23.13,61.928-46.026,123.942-69.138,185.878c-6.844,18.341-14.132,36.516-21.217,54.767c-0.672,0.002-1.343,0.005-2.015,0.007
		l0.014,0.001C1705.324,295.339,1704.65,294.671,1703.976,294.002z"/>
	<path fill-rule="evenodd" clip-rule="evenodd" fill="#B46AB7" d="M246.02,2104.043c-0.013,1.332-0.026,2.665-0.04,3.997
		c-1.759,2.355-4.076,4.475-5.195,7.104c-17.197,40.404-34.2,80.891-51.324,121.325c-22.961,54.222-46.053,108.389-68.961,162.632
		C108.856,2426.673,97.491,2454.363,86,2482c-18,0-36,0-54,0c-0.843-7.895-1.803-15.779-2.508-23.686
		c-1.888-21.18-3.782-42.359-5.456-63.557c-1.622-20.541-2.793-41.12-4.485-61.655c-2.347-28.478-5.21-56.913-7.458-85.397
		c-2.326-29.484-4.071-59.016-6.377-88.503C5.419,2155.395,3.284,2151.73,2,2148c0-24,0-48,0-72
		c3.974,0.329,7.96,0.555,11.921,1.005c20.156,2.292,40.303,4.669,60.458,6.968c32.71,3.73,65.418,7.479,98.139,11.111
		c21.811,2.422,43.643,4.652,65.465,6.969C240.662,2102.716,243.341,2103.38,246.02,2104.043z"/>
	<path fill-rule="evenodd" clip-rule="evenodd" fill="#A15BA1" d="M2558,2c82.667,0,165.333,0,248,0
		c7.828,4.911,15.504,10.089,23.514,14.683c20.742,11.896,41.631,23.536,62.462,35.278c-22.548,8.1-45.064,16.289-67.65,24.283
		c-98.229,34.77-196.48,69.475-294.717,104.223c-26.049,9.214-52.048,18.571-78.114,27.736
		c-41.77,14.686-83.575,29.267-125.365,43.891c-0.039-0.692-0.078-1.385-0.116-2.077l0.002-0.007
		c15.916-16.899,31.866-33.767,47.739-50.704c29.293-31.257,58.466-62.626,87.83-93.815c25.272-26.844,50.809-53.44,76.082-80.285
		C2544.711,17.722,2551.236,9.748,2558,2z"/>
	<path fill-rule="evenodd" clip-rule="evenodd" fill="#683D76" d="M3270.043,1036.031c0.646-0.021,1.292-0.045,1.938-0.068
		c12.617,6.001,25.245,11.979,37.849,18.007c62.727,30.003,125.447,60.019,188.17,90.03c0,12.667,0,25.333,0,38
		c-37.136,20.888-74.195,41.913-111.425,62.633c-67.775,37.721-135.658,75.248-203.478,112.892
		c-7.125,3.955-14.119,8.147-21.716,12.543c2.138,1.799,3.384,2.847,4.629,3.896c-2.063,0.057-4.127,0.113-6.19,0.17
		c-0.621-0.074-1.237-0.18-1.848-0.317c-0.614-0.632-1.229-1.266-1.846-1.899c20.582-60.176,41.136-120.363,61.761-180.525
		c13.39-39.056,26.975-78.045,40.279-117.129c4.286-12.59,7.959-25.388,11.913-38.091L3270.043,1036.031z"/>
	<path fill-rule="evenodd" clip-rule="evenodd" fill="#CC8EE0" d="M3142.076,2302.02c-0.047,0.639-0.089,1.278-0.123,1.918
		c-22.15,20.535-44.514,40.844-66.394,61.662c-24.79,23.585-49.14,47.631-73.704,71.454c-1.665,1.615-3.586,2.963-5.272,4.559
		c-14.21,13.446-28.392,26.921-42.583,40.388c-28.667,0-57.333,0-86,0c-8.233-17.785-16.338-35.631-24.727-53.342
		c-20.336-42.936-40.92-85.754-61.161-128.734c-7.774-16.506-14.891-33.322-22.305-49.998c0.735-0.636,1.47-1.273,2.203-1.91
		c4.14,1.168,8.209,2.813,12.43,3.426c24.69,3.585,49.403,7.033,74.135,10.331c52.422,6.989,104.875,13.749,157.287,20.813
		c36.263,4.888,72.452,10.328,108.734,15.059c8.348,1.088,16.942,0.278,25.424,0.342
		C3140.705,2299.331,3141.391,2300.675,3142.076,2302.02z"/>
	<path fill-rule="evenodd" clip-rule="evenodd" fill="#A762AC" d="M852,2482c-6.342-18.573-12.438-37.233-19.073-55.701
		c-15.542-43.259-31.34-86.425-47.035-129.629c-21.838-60.109-43.671-120.222-65.544-180.318c-0.561-1.54-1.568-2.917-2.368-4.37
		c-0.007-0.653-0.016-1.308-0.024-1.96c0.686-0.008,1.371-0.015,2.056-0.021c8.864,5.898,17.754,11.758,26.587,17.702
		c70.478,47.424,140.943,94.863,211.414,142.298c-1.428,27.217-2.829,54.436-4.295,81.65c-0.625,11.613-1.393,23.22-2.079,34.83
		c-1.884,31.84-3.759,63.68-5.638,95.52C914.667,2482,883.333,2482,852,2482z"/>
	<path fill-rule="evenodd" clip-rule="evenodd" fill="#A64797" d="M479.987,341.989c-1.324,0.002-2.648,0.005-3.973,0.007
		c-5.418-23.003-10.53-46.084-16.315-68.995c-15.088-59.757-30.421-119.453-45.755-179.148C406.072,63.207,397.988,32.616,390,2
		c80,0,160,0,240,0c-2.596,7.151-4.774,14.487-7.855,21.423c-19.693,44.339-39.585,88.589-59.413,132.868
		c-20.235,45.189-40.504,90.364-60.694,135.574C494.594,308.531,487.332,325.279,479.987,341.989z"/>
	<path fill-rule="evenodd" clip-rule="evenodd" fill="#9B579C" d="M237.983,2102.053c-21.822-2.316-43.654-4.547-65.465-6.969
		c-32.721-3.632-65.429-7.381-98.139-11.111c-20.155-2.299-40.302-4.676-60.458-6.968c-3.96-0.45-7.947-0.676-11.921-1.005
		c0-4.667,0-9.333,0-14c1.481-2.14,3.45-4.089,4.365-6.448c7.447-19.204,14.729-38.472,22-57.744
		c29.902-79.265,59.781-158.537,89.669-237.807c2.43,3.052,5.87,5.735,7.139,9.211c18.477,50.628,36.631,101.374,54.93,152.067
		c16.275,45.087,32.744,90.104,48.896,135.235c5.374,15.016,10.031,30.287,15.017,45.441
		C242.005,2101.988,239.994,2102.021,237.983,2102.053z"/>
	<path fill-rule="evenodd" clip-rule="evenodd" fill="#93549B" d="M946,2482c1.879-31.84,3.754-63.68,5.638-95.52
		c0.687-11.61,1.454-23.217,2.079-34.83c1.466-27.215,2.867-54.434,4.295-81.65c0.664,0.002,1.328,0.005,1.992,0.011
		c3.256,2.289,6.365,4.828,9.79,6.828c36.73,21.449,73.524,42.79,110.273,64.206c39.614,23.086,79.164,46.281,118.811,69.312
		c19.248,11.181,38.763,21.905,57.956,33.179c19.19,11.271,38.131,22.969,57.182,34.479c-1.339,1.329-2.678,2.657-4.016,3.986
		C1188.667,2482,1067.333,2482,946,2482z"/>
	<path fill-rule="evenodd" clip-rule="evenodd" fill="#733C7F" d="M3498,1144c-62.723-30.012-125.443-60.027-188.17-90.03
		c-12.604-6.028-25.231-12.006-37.849-18.007c14.05-13.646,27.937-27.467,42.198-40.888c13.541-12.742,27.664-24.864,41.193-37.618
		c28.775-27.125,57.201-54.622,86.024-81.695c18.634-17.502,37.72-34.524,56.603-51.762C3498,930.667,3498,1037.333,3498,1144z"/>
	<path fill-rule="evenodd" clip-rule="evenodd" fill="#653974" d="M3166.011,1373.963c-1.245-1.049-2.491-2.097-4.629-3.896
		c7.597-4.396,14.591-8.588,21.716-12.543c67.819-37.644,135.702-75.171,203.478-112.892c37.229-20.72,74.289-41.745,111.425-62.633
		c0,68,0,136,0,204c-27.891-1.323-55.775-2.803-83.675-3.932c-36.548-1.478-73.104-2.793-109.664-3.97
		C3258.448,1376.61,3212.229,1375.332,3166.011,1373.963z"/>
	<path fill-rule="evenodd" clip-rule="evenodd" fill="#B079C3" d="M2608,2482c-26,0-52,0-78,0
		c-0.643-5.255-1.721-10.498-1.857-15.766c-0.803-30.864-1.421-61.733-2.031-92.602c-0.711-35.853-1.349-71.706-2.019-107.56
		c0.095-0.594,0.19-1.187,0.288-1.778c0.54-0.078,1.076-0.178,1.608-0.301c10.905-0.654,21.808-1.357,32.717-1.954
		c25.793-1.413,51.591-2.735,77.382-4.178c11.57-0.647,23.13-1.489,34.694-2.251c28.406-1.871,56.812-3.748,85.218-5.622
		c0.663,0.006,1.326,0.01,1.989,0.011c-15.747,24.639-31.351,49.371-47.275,73.895c-23.729,36.54-47.735,72.9-71.522,109.403
		C2628.666,2449.449,2618.389,2465.761,2608,2482z"/>
	<path fill-rule="evenodd" clip-rule="evenodd" fill="#724283" d="M3166.011,1373.963c46.218,1.369,92.438,2.647,138.65,4.136
		c36.56,1.177,73.116,2.492,109.664,3.97c27.899,1.129,55.784,2.608,83.675,3.932c0,66,0,132,0,198
		c-23.964-14.982-47.855-30.082-71.906-44.925c-72.746-44.896-145.578-89.654-218.32-134.557
		c-16.102-9.938-31.973-20.248-47.951-30.387C3161.884,1374.076,3163.947,1374.02,3166.011,1373.963z"/>
	<path fill-rule="evenodd" clip-rule="evenodd" fill="#AA5DAF" d="M86,2482c11.491-27.637,22.856-55.327,34.501-82.899
		c22.908-54.243,46-108.41,68.961-162.632c17.124-40.435,34.127-80.921,51.324-121.325c1.119-2.629,3.436-4.748,5.195-7.104
		c0.689,45.563,1.297,91.125,2.097,136.685c0.507,28.92,1.303,57.833,1.96,86.75c0.68,29.914,1.277,59.831,2.044,89.743
		c0.52,20.264,1.271,40.521,1.919,60.782C198,2482,142,2482,86,2482z"/>
	<path fill-rule="evenodd" clip-rule="evenodd" fill="#B67BC9" d="M2608,2482c10.389-16.239,20.666-32.551,31.191-48.702
		c23.787-36.503,47.793-72.863,71.522-109.403c15.925-24.523,31.528-49.256,47.275-73.895c0.605-0.022,1.211-0.048,1.816-0.074
		c7.416,16.676,14.532,33.492,22.307,49.998c20.241,42.98,40.825,85.799,61.161,128.734c8.389,17.711,16.493,35.557,24.727,53.342
		C2781.333,2482,2694.667,2482,2608,2482z"/>
	<path fill-rule="evenodd" clip-rule="evenodd" fill="#7F3876" d="M1366,2c-10.57,16.51-20.885,33.191-31.775,49.486
		c-13.501,20.199-27.586,40.006-41.23,60.109c-30.848,45.45-61.542,91.005-92.393,136.454c-5.977,8.805-12.379,17.32-18.586,25.969
		c-0.665-3.343-1.331-6.687-1.996-10.029c-0.191-2.647-0.271-5.308-0.59-7.938c-3.151-25.997-6.304-51.994-9.531-77.981
		c-3.718-29.938-7.629-59.852-11.23-89.803c-2.414-20.07-4.434-40.188-6.631-60.285c12.142-1.694,24.271-3.483,36.428-5.066
		c33.536-4.366,67.106-8.475,100.616-13.034C1305.441,7.654,1321.697,4.651,1338,2C1347.333,2,1356.667,2,1366,2z"/>
	<path fill-rule="evenodd" clip-rule="evenodd" fill="#A454A9" d="M3498,70c-29.818-1.881-59.637-3.763-89.455-5.643
		c-12.264-0.772-24.523-1.618-36.792-2.297c-37.801-2.094-75.612-4.008-113.407-6.211c-31.155-1.817-62.291-3.972-93.439-5.931
		c-43.079-2.71-86.163-5.348-129.241-8.075c-19.216-1.216-38.422-2.573-57.634-3.867c0.662-1.318,1.323-2.638,1.985-3.957
		c0.659-0.016,1.319-0.03,1.979-0.046l-0.02,0.011C3003.317,23.323,3024.658,12.662,3046,2c150.667,0,301.333,0,452,0
		C3498,24.667,3498,47.333,3498,70z"/>
	<path fill-rule="evenodd" clip-rule="evenodd" fill="#9965AB" d="M2524.094,2266.074c0.669,35.853,1.307,71.706,2.018,107.559
		c0.61,30.868,1.229,61.737,2.031,92.602c0.137,5.268,1.215,10.511,1.857,15.766c-77.333,0-154.667,0-232,0
		c19.367-18.688,38.726-37.386,58.117-56.049c1.672-1.609,3.669-2.881,5.338-4.493c21.775-21.034,43.441-42.184,65.291-63.142
		c28.803-27.627,57.764-55.089,86.595-82.686c3.11-2.978,5.813-6.381,8.705-9.588l-0.003,0.003
		C2522.727,2266.055,2523.41,2266.064,2524.094,2266.074z"/>
	<path fill-rule="evenodd" clip-rule="evenodd" fill="#7F3677" d="M250.026,771.96c-35.874-0.67-71.75-1.249-107.621-2.042
		c-22.241-0.492-44.473-1.345-66.71-1.969C51.131,767.26,26.565,766.646,2,766c0-66,0-132,0-198
		c21.531,17.211,43.169,34.291,64.571,51.662c39.2,31.818,78.299,63.762,117.365,95.745c22.105,18.098,44.059,36.381,66.08,54.58
		C250.016,770.646,250.019,771.303,250.026,771.96z"/>
	<path fill-rule="evenodd" clip-rule="evenodd" fill="#733A73" d="M2,1740c0-102.667,0-205.333,0-308
		c6.68-1.98,13.359-3.962,20.039-5.942c0.654,0.001,1.308-0.019,1.962-0.058c0.68,0.648,1.359,1.296,2.039,1.944
		c0.251,3.187-0.034,6.528,0.836,9.535c8.954,30.956,18.099,61.856,27.181,92.774c17.229,58.651,34.468,117.3,51.667,175.96
		c4.179,14.254,8.22,28.548,12.436,43.21c-2.703,1.137-4.444,1.869-6.186,2.603C75.316,1748.018,38.658,1744.009,2,1740z"/>
	<path fill-rule="evenodd" clip-rule="evenodd" fill="#683A75" d="M1854.043,2395.957c0.088,0.617,0.16,1.235,0.214,1.857
		c-2.419,3.5-5.419,6.732-7.159,10.54c-11.187,24.478-22.097,49.083-33.098,73.646c-106,0-212,0-318,0
		c-1.33-11.31-2.659-22.62-3.989-33.931c3.226-0.707,6.421-1.626,9.681-2.088c49.047-6.946,98.107-13.788,147.153-20.744
		c49.705-7.049,99.405-14.136,149.09-21.334c16.729-2.424,33.399-5.239,50.097-7.876c1.354-0.044,2.707-0.088,4.061-0.132
		C1852.742,2395.919,1853.393,2395.939,1854.043,2395.957z"/>
	<path fill-rule="evenodd" clip-rule="evenodd" fill="#864988" d="M2,1740c36.658,4.009,73.316,8.018,109.975,12.026
		c2.685,0.666,5.369,1.333,8.053,1.999c-0.665,1.992-1.329,3.984-1.994,5.976c-29.888,79.27-59.767,158.542-89.669,237.807
		c-7.27,19.272-14.553,38.54-22,57.744C5.45,2057.911,3.481,2059.86,2,2062C2,1954.667,2,1847.333,2,1740z"/>
	<path fill-rule="evenodd" clip-rule="evenodd" fill="#BE7CD4" d="M2954,2482c14.191-13.467,28.373-26.941,42.583-40.388
		c1.687-1.596,3.607-2.943,5.272-4.559c24.564-23.823,48.914-47.869,73.704-71.454c21.88-20.818,44.243-41.127,66.394-61.662
		c0.673,4.693,1.347,9.387,2.021,14.08c1.463,24.854,2.878,49.712,4.4,74.563c1.827,29.81,3.747,59.613,5.626,89.42
		C3087.333,2482,3020.667,2482,2954,2482z"/>
	<path fill-rule="evenodd" clip-rule="evenodd" fill="#874988" d="M2322.018,229.976c-0.713-35.858-1.235-71.722-2.191-107.573
		c-1.07-40.14-2.533-80.269-3.826-120.402c41.333,0,82.667,0,124,0c-1.466,2.983-2.996,5.937-4.388,8.953
		c-27.408,59.408-54.843,118.803-82.17,178.248c-9.288,20.203-18.294,40.535-27.428,60.809c0,0-0.002,0.007-0.003,0.007
		c-0.644,0.009-1.288,0.027-1.932,0.054C2323.393,243.372,2322.705,236.674,2322.018,229.976z"/>
	<path fill-rule="evenodd" clip-rule="evenodd" fill="#955294" d="M2326.015,250.01c9.134-20.273,18.14-40.605,27.428-60.809
		c27.327-59.445,54.762-118.84,82.17-178.248c1.392-3.017,2.922-5.97,4.388-8.953c39.333,0,78.667,0,118,0
		c-6.764,7.748-13.289,15.722-20.334,23.205c-25.273,26.845-50.81,53.441-76.082,80.285c-29.364,31.189-58.537,62.559-87.83,93.815
		C2357.881,216.243,2341.931,233.11,2326.015,250.01z"/>
	<path fill-rule="evenodd" clip-rule="evenodd" fill="#B26EC9" d="M3154,2482c-1.879-29.807-3.799-59.61-5.626-89.42
		c-1.522-24.851-2.938-49.709-4.4-74.563c0-3.785,0-7.57,0-11.355c0.803-0.189,1.605-0.379,2.409-0.568
		c9.54,10.823,19.131,21.604,28.611,32.48c16.342,18.75,32.634,37.544,48.913,56.349c19.526,22.557,39.064,45.104,58.493,67.746
		c5.39,6.281,10.41,12.879,15.6,19.331C3250,2482,3202,2482,3154,2482z"/>
	<path fill-rule="evenodd" clip-rule="evenodd" fill="#592456" d="M24,1426c-0.654,0.039-1.308,0.059-1.962,0.057
		C15.358,1418.038,8.679,1410.019,2,1402c0-113.333,0-226.667,0-340c5.988,1.348,11.976,2.696,17.964,4.044
		c0.032,0.62,0.06,1.241,0.082,1.863c0.649,5.245,1.855,10.487,1.864,15.732c0.125,77.294-0.073,154.588,0.186,231.881
		c0.088,26.272,1.301,52.538,1.863,78.811c0.211,9.886,0.037,19.779,0.038,29.669C23.998,1424.667,23.999,1425.333,24,1426z"/>
	<path fill-rule="evenodd" clip-rule="evenodd" fill="#653875" d="M1814,2482c11.001-24.563,21.911-49.168,33.098-73.646
		c1.74-3.808,4.74-7.04,7.159-10.54c15.413,11.503,30.962,22.828,46.202,34.554c21.301,16.388,42.372,33.073,63.541,49.632
		C1914,2482,1864,2482,1814,2482z"/>
	<path fill-rule="evenodd" clip-rule="evenodd" fill="#AA63AF" d="M2,2148c1.284,3.73,3.419,7.395,3.717,11.202
		c2.306,29.487,4.051,59.019,6.377,88.503c2.248,28.484,5.11,56.92,7.458,85.397c1.692,20.535,2.863,41.114,4.485,61.655
		c1.673,21.197,3.568,42.377,5.456,63.557c0.705,7.906,1.665,15.791,2.508,23.686c-10,0-20,0-30,0C2,2370.667,2,2259.333,2,2148z"/>
	<path fill-rule="evenodd" clip-rule="evenodd" fill="#5D275A" d="M1809.936,23.95c-25.219-1.322-50.445-2.506-75.653-4.004
		c-29.514-1.754-59.01-3.81-88.517-5.676c-12.604-0.797-25.21-1.571-37.825-2.13c-18.603-0.823-37.229-1.173-55.816-2.213
		c-30.184-1.688-60.349-3.716-90.512-5.734C1455.056,3.754,1448.536,2.746,1442,2c120.667,0,241.333,0,362,0
		c1.991,6.65,3.982,13.3,5.975,19.95C1809.961,22.617,1809.948,23.283,1809.936,23.95z"/>
	<path fill-rule="evenodd" clip-rule="evenodd" fill="#B067B1" d="M2891.976,51.961c-20.831-11.742-41.72-23.382-62.462-35.278
		C2821.504,12.089,2813.828,6.911,2806,2c26,0,52,0,78,0c1.968,1.198,3.804,2.75,5.923,3.542
		c27.335,10.222,54.712,20.335,82.077,30.476c0,0.663,0,1.326,0,1.989c-22.101,4.006-44.239,7.824-66.27,12.187
		c-4.132,0.818-7.831,3.815-11.73,5.808c-0.004,2.665-0.008,5.329-0.011,7.994C2893.318,59.983,2892.646,55.972,2891.976,51.961z"/>
	<path fill-rule="evenodd" clip-rule="evenodd" fill="#AA64C2" d="M3492,2482c-0.689-31.257-1.342-62.515-2.082-93.771
		c-0.599-25.265-1.312-50.526-1.96-75.79c-0.683-26.594-1.344-53.189-2.024-79.784c-0.654-25.597-1.215-51.195-2.036-76.786
		c-0.319-9.954-1.242-19.889-1.89-29.832c0.661-0.011,1.322-0.02,1.983-0.026c4.67-0.004,9.339-0.007,14.009-0.011
		c0,118.667,0,237.333,0,356C3496,2482,3494,2482,3492,2482z"/>
	<path fill-rule="evenodd" clip-rule="evenodd" fill="#784184" d="M1310,2482c1.338-1.329,2.677-2.657,4.016-3.986
		c0.64-0.023,1.28-0.052,1.921-0.083c24.578-4.284,49.149-8.61,73.735-12.842c33.437-5.754,66.886-11.435,100.329-17.147
		l0.065,0.166c-4.022,11.297-8.044,22.595-12.066,33.893C1422,2482,1366,2482,1310,2482z"/>
	<path fill-rule="evenodd" clip-rule="evenodd" fill="#793371" d="M1338,2c-16.303,2.651-32.559,5.654-48.919,7.881
		c-33.51,4.56-67.08,8.668-100.616,13.034c-12.156,1.583-24.286,3.372-36.428,5.066c-0.683-0.654-1.365-1.31-2.048-1.965
		c0,0,0.046-0.061,0.045-0.06C1148.022,17.972,1146.012,9.985,1144,2C1208.667,2,1273.333,2,1338,2z"/>
	<path fill-rule="evenodd" clip-rule="evenodd" fill="#A35EA6" d="M2972,36.018c-27.365-10.141-54.742-20.254-82.077-30.476
		C2887.804,4.75,2885.968,3.198,2884,2c24,0,48,0,72,0c2.237,4.688,4.498,9.363,6.706,14.065
		C2965.824,22.706,2968.904,29.366,2972,36.018z"/>
	<path fill-rule="evenodd" clip-rule="evenodd" fill="#AB62B0" d="M2972,36.018c-3.096-6.651-6.176-13.312-9.294-19.952
		c-2.208-4.702-4.469-9.378-6.706-14.065c18,0,36,0,54,0c-2.232,3.219-4.145,6.729-6.759,9.602
		c-6.927,7.608-14.156,14.94-21.265,22.383l0.02-0.011c-0.66,0.009-1.32,0.024-1.979,0.046c-0.662,1.319-1.323,2.639-1.985,3.957
		c-0.694,0.023-1.389,0.046-2.084,0.068c-1.315-0.013-2.631-0.025-3.947-0.038C2972,37.344,2972,36.681,2972,36.018z"/>
	<path fill-rule="evenodd" clip-rule="evenodd" fill="#A054A6" d="M2981.977,33.984c7.108-7.442,14.338-14.774,21.265-22.383
		c2.614-2.872,4.526-6.383,6.759-9.602c12,0,24,0,36,0C3024.658,12.662,3003.317,23.323,2981.977,33.984z"/>
	<path fill-rule="evenodd" clip-rule="evenodd" fill="#522353" d="M2,1402c6.679,8.019,13.358,16.038,20.038,24.057
		C15.359,1428.038,8.68,1430.02,2,1432C2,1422,2,1412,2,1402z"/>
	<path fill-rule="evenodd" clip-rule="evenodd" fill="#6A3377" d="M1478,2482c4.022-11.298,8.044-22.596,12.065-33.895
		c0.647-0.026,1.296-0.038,1.945-0.035c1.33,11.31,2.659,22.62,3.989,33.93C1490,2482,1484,2482,1478,2482z"/>
	<path fill-rule="evenodd" clip-rule="evenodd" fill="#672A63" d="M19.964,1066.044C13.976,1064.696,7.988,1063.348,2,1062
		c0-10.667,0-21.333,0-32C7.988,1042.015,13.976,1054.029,19.964,1066.044z"/>
	<path fill-rule="evenodd" clip-rule="evenodd" fill="#813779" d="M1144,2c2.012,7.985,4.022,15.972,6.034,23.957
		C1140.689,17.971,1131.345,9.985,1122,2C1129.333,2,1136.667,2,1144,2z"/>
	<path fill-rule="evenodd" clip-rule="evenodd" fill="#9659AC" d="M3498,2126c-4.67,0.004-9.339,0.007-14.009,0.011
		c4.67-12.004,9.339-24.007,14.009-36.011C3498,2102,3498,2114,3498,2126z"/>
	<path fill-rule="evenodd" clip-rule="evenodd" fill="#643065" d="M1809.936,23.95c0.013-0.667,0.025-1.333,0.039-1.999
		c2.009-6.65,4.017-13.301,6.025-19.951c6,0,12,0,18,0c-7.344,7.324-14.688,14.648-22.03,21.973
		c-0.641,0.02-1.281,0.041-1.922,0.065L1809.936,23.95z"/>
	<path fill-rule="evenodd" clip-rule="evenodd" fill="#522352" d="M1816,2c-2.009,6.65-4.017,13.301-6.025,19.951
		C1807.982,15.3,1805.991,8.65,1804,2C1808,2,1812,2,1816,2z"/>
	<path fill-rule="evenodd" clip-rule="evenodd" fill="#9B6CAA" d="M3155.943,1374.088
		c-26.333,110.742-52.684,221.481-78.994,332.229c-18.309,77.069-36.555,154.154-54.847,231.228
		c-7.299,30.754-14.646,61.497-21.972,92.246c-3.064-1.999-6.281-3.803-9.168-6.033c-26.607-20.551-53.188-41.138-79.721-61.786
		c-63.043-49.063-126.064-98.156-189.078-147.258c-34.396-26.803-68.681-53.749-103.17-80.431
		c-16.834-13.021-34.022-25.584-51.05-38.354c0.011-0.641,0.028-1.283,0.056-1.925c41.139-22.573,82.245-45.207,123.427-67.702
		c39.726-21.699,79.55-43.219,119.296-64.883c49.094-26.762,98.153-53.588,147.225-80.393
		c34.467-18.826,68.88-37.753,103.406-56.468c30.127-16.331,60.381-32.429,90.578-48.63c0.691-0.611,1.384-1.224,2.076-1.835
		c0.694-0.089,1.389-0.177,2.084-0.265L3155.943,1374.088z"/>
	<path fill-rule="evenodd" clip-rule="evenodd" fill="#AC79BD" d="M2567.943,1695.93c17.028,12.77,34.217,25.332,51.051,38.354
		c34.489,26.682,68.773,53.628,103.17,80.431c63.014,49.102,126.035,98.194,189.078,147.258
		c26.533,20.648,53.113,41.235,79.721,61.786c2.887,2.23,6.104,4.034,9.168,6.033c1.259,0.037,2.518,0.076,3.775,0.113
		c0.707,0.667,1.416,1.335,2.125,2.004c-2.021,0.054-4.042,0.105-6.063,0.158c-10.43,9.29-20.92,18.514-31.277,27.883
		c-34.304,31.024-68.545,62.118-102.84,93.152c-18.75,16.967-37.646,33.774-56.319,50.825
		c-15.956,14.569-31.689,29.383-47.521,44.089c-0.733,0.637-1.468,1.274-2.203,1.91c-0.607,0.026-1.213,0.052-1.818,0.074
		c-0.663-0.001-1.326-0.005-1.989-0.011c-0.621-4.192-0.619-8.598-1.963-12.544c-12.137-35.645-24.518-71.205-36.811-106.795
		c-19.256-55.749-38.548-111.485-57.734-167.258c-23.416-68.064-46.671-136.185-70.146-204.228
		c-6.838-19.818-14.195-39.458-21.314-59.179c-0.028-1.333-0.057-2.667-0.085-4L2567.943,1695.93z"/>
	<path fill-rule="evenodd" clip-rule="evenodd" fill="#70497D" d="M3156.128,1371.916c0.615,0.634,1.23,1.268,1.845,1.899
		c-0.676,0.089-1.353,0.18-2.029,0.271c0,0.001,0.148-0.257,0.148-0.256c-0.032-0.607-0.063-1.217-0.092-1.825
		C3156,1372.006,3156.128,1371.915,3156.128,1371.916z"/>
	<path fill-rule="evenodd" clip-rule="evenodd" fill="#954288" d="M942.038,390.004c0.664,1.341,1.328,2.683,1.992,4.023
		c-6.672,27.998-13.344,55.996-20.015,83.994c-0.63,0.027-1.26,0.045-1.891,0.052c-21.314-6.516-42.608-13.103-63.949-19.532
		c-59.572-17.946-119.158-35.852-178.752-53.728c-50.352-15.104-100.748-30.061-151.071-45.26
		c-16.204-4.894-32.239-10.35-48.351-15.549c1.332-0.008,2.665-0.016,3.998-0.023c46.537,5.235,93.062,10.591,139.615,15.672
		c39.623,4.324,79.296,8.194,118.919,12.521c39.621,4.326,79.205,8.991,118.81,13.466c24.094,2.722,48.182,5.506,72.313,7.843
		C936.313,393.741,939.238,391.23,942.038,390.004z"/>
	<path fill-rule="evenodd" clip-rule="evenodd" fill="#A961A9" d="M237.983,2102.053c2.011-0.032,4.021-0.064,6.032-0.096
		c4.214-4.996,9.017-9.608,12.553-15.045c45.956-70.64,91.773-141.37,137.523-212.144c10.846-16.778,21.316-33.799,31.959-50.709
		c3.664,2.006,8.021,3.308,10.893,6.123c49.172,48.215,98.266,96.51,147.156,145.011c41.585,41.254,82.877,82.805,124.345,124.178
		c3.044,3.037,6.457,5.705,9.698,8.544c0.604,0.06,1.205,0.14,1.803,0.241c0.015,0.615,0.036,1.229,0.065,1.844
		c-0.685,0.007-1.37,0.014-2.056,0.021c-58.541-0.693-117.081-1.37-175.62-2.086c-52.549-0.642-105.098-1.308-157.646-1.998
		c-46.224-0.607-92.446-1.262-138.67-1.895C243.341,2103.38,240.662,2102.716,237.983,2102.053z"/>
	<path fill-rule="evenodd" clip-rule="evenodd" fill="#924186" d="M480.002,344.005c16.111,5.199,32.146,10.655,48.351,15.549
		c50.323,15.199,100.72,30.156,151.071,45.26c59.594,17.876,119.18,35.781,178.752,53.728c21.341,6.43,42.635,13.017,63.948,19.531
		c-2.449,2.717-4.687,5.666-7.381,8.114c-12.804,11.636-25.746,23.12-38.613,34.687c-21.283,19.132-42.499,38.337-63.829,57.415
		c-29.51,26.395-59.114,52.684-88.647,79.052c-14.645,13.076-29.186,26.27-43.837,39.339c-22.593,20.153-45.28,40.2-67.851,60.379
		c-21.334,19.074-42.519,38.315-63.857,57.384c-29.027,25.937-58.082,51.842-87.235,77.636
		c-18.183,16.089-36.568,31.947-54.863,47.909c0.979-9.907,1.751-19.84,2.978-29.717c2.866-23.07,6.108-46.094,8.907-69.172
		c3.836-31.641,7.279-63.328,11.123-94.967c2.763-22.749,6.093-45.43,8.833-68.182c4.446-36.92,8.519-73.885,12.932-110.809
		c4.295-35.938,8.795-71.852,13.249-107.77c4.251-34.273,8.62-68.532,12.748-102.819c0.413-3.431-0.476-7.019-0.761-10.532
		c-3.346-0.011-6.691-0.021-10.037-0.03C470.654,345.328,475.328,344.666,480.002,344.005z"/>
	<path fill-rule="evenodd" clip-rule="evenodd" fill="#883B7E" d="M476.019,346.02c0.285,3.514,1.174,7.102,0.761,10.532
		c-4.128,34.287-8.497,68.546-12.748,102.819c-4.454,35.918-8.954,71.832-13.249,107.77c-4.413,36.924-8.485,73.889-12.932,110.809
		c-2.74,22.752-6.07,45.433-8.833,68.182c-3.844,31.639-7.287,63.326-11.123,94.967c-2.799,23.078-6.041,46.102-8.907,69.172
		c-1.227,9.877-1.999,19.81-2.978,29.717c-0.687,0.036-1.373,0.071-2.06,0.106c-13.68-14.936-27.459-29.78-41.01-44.832
		c-14.006-15.558-27.807-31.302-41.668-46.99c-22.441-25.4-44.859-50.821-67.287-76.233c7.811-14.303,15.858-28.482,23.388-42.933
		c20.777-39.876,41.255-79.906,62.001-119.799c32.422-62.343,64.929-124.642,97.479-186.917
		c11.414-21.837,23.11-43.525,34.563-65.342C473.262,353.533,474.5,349.703,476.019,346.02z"/>
	<path fill-rule="evenodd" clip-rule="evenodd" fill="#883B7E" d="M250.026,771.96c-0.007-0.657-0.011-1.314-0.01-1.973
		c1.326,0.679,2.651,1.358,3.977,2.037C252.671,772.003,251.349,771.981,250.026,771.96z"/>
	<path fill-rule="evenodd" clip-rule="evenodd" fill="#81548B" d="M3268.043,1034.006c0.666,0.675,1.332,1.35,1.999,2.025
		c0.001,0,0.038,0.14,0.037,0.138c-20.392,9.038-40.724,18.218-61.187,27.092c-52.532,22.781-105.135,45.402-157.688,68.136
		c-48.581,21.015-97.146,42.066-145.695,63.15c-37.864,16.442-75.696,32.96-113.542,49.444c-0.639-0.002-1.277-0.003-1.916-0.004
		c-0.604-0.027-1.209-0.065-1.812-0.117c-2.379-21.126-4.696-42.259-7.151-63.376c-2.954-25.406-6.079-50.793-9.032-76.199
		c-3.719-32.005-7.327-64.022-11.006-96.031c-3.678-32.009-7.283-64.026-11.125-96.016c-1.697-14.13-3.901-28.199-5.875-42.295
		c-0.006-1.322-0.012-2.644-0.017-3.966c0.655,0.005,1.311,0.013,1.966,0.023c3.663,1.546,7.233,3.383,11.004,4.592
		c26.959,8.645,53.979,17.09,80.938,25.73c72.319,23.178,144.634,46.369,216.919,69.654
		c67.214,21.651,134.384,43.445,201.591,65.121C3260.233,1032.328,3264.176,1033.051,3268.043,1034.006z"/>
	<path fill-rule="evenodd" clip-rule="evenodd" fill="#905A98" d="M3268.043,1034.006c-3.867-0.955-7.81-1.678-11.591-2.897
		c-67.207-21.676-134.377-43.47-201.591-65.121c-72.285-23.285-144.6-46.477-216.919-69.654
		c-26.959-8.641-53.979-17.086-80.938-25.73c-3.771-1.209-7.341-3.046-11.004-4.592c0.663-1.336,1.326-2.672,1.989-4.008
		c1.232-0.275,2.793-0.162,3.649-0.884c22.362-18.855,44.704-37.738,66.939-56.744c20.721-17.71,41.269-35.622,61.975-53.349
		c30.552-26.154,61.103-52.312,91.808-78.285c11.649-9.854,23.726-19.204,35.606-28.784c0-0.001,0.047,0.097,0.047,0.098
		c1.904,3.841,3.399,7.956,5.772,11.48c56.485,83.886,113.04,167.725,169.641,251.533c26.063,38.594,52.275,77.087,78.339,115.681
		C3264.161,1026.296,3265.965,1030.244,3268.043,1034.006z"/>
	<path fill-rule="evenodd" clip-rule="evenodd" fill="#BB6FBC" d="M2893.989,63.995c0.003-2.665,0.007-5.329,0.011-7.994
		c1.355,1.443,3.006,2.706,4.02,4.359c9.751,15.896,19.428,31.838,29.063,47.806c26.154,43.346,52.167,86.775,78.439,130.049
		c30.596,50.393,61.356,100.686,92.204,150.924c2.849,4.64,6.848,8.574,10.313,12.835c1.978,5.322,3.954,10.644,5.931,15.965
		c0-0.001,0.031,0.065,0.031,0.065c-3.39,1.377-6.863,2.579-10.156,4.156c-51.287,24.573-102.551,49.194-153.82,73.805
		c0,0-0.009,0.012-0.01,0.012c-0.7-0.638-1.401-1.276-2.102-1.914l0.004,0.018c-4.287-35.274-8.481-70.561-12.89-105.819
		c-4.203-33.621-8.712-67.203-12.934-100.822c-4.346-34.605-8.417-69.246-12.771-103.851
		C2904.304,143.712,2899.107,103.858,2893.989,63.995z"/>
	<path fill-rule="evenodd" clip-rule="evenodd" fill="#BE6FBF" d="M3108.038,401.974c-3.465-4.261-7.464-8.195-10.313-12.835
		c-30.848-50.238-61.608-100.531-92.204-150.924c-26.272-43.273-52.285-86.703-78.439-130.049
		c-9.635-15.968-19.312-31.909-29.063-47.806c-1.014-1.653-2.664-2.916-4.02-4.359c3.899-1.992,7.599-4.989,11.73-5.808
		c22.03-4.362,44.169-8.181,66.27-12.187c1.316,0.013,2.632,0.025,3.947,0.038c10.446,28.768,20.83,57.557,31.354,86.295
		c16.018,43.738,32.146,87.436,48.201,131.16c16.399,44.661,32.793,89.324,49.103,134.019
		C3106.076,393.552,3106.908,397.816,3108.038,401.974z"/>
	<path fill-rule="evenodd" clip-rule="evenodd" fill="#C083D4" d="M2999.969,2032.066c2.021-0.053,4.041-0.104,6.063-0.158
		c58.424,11.626,116.844,23.271,175.271,34.876c99.555,19.773,199.113,39.521,298.669,59.281c-2.974,2.468-5.617,5.577-8.973,7.303
		c-37.614,19.342-75.378,38.393-113.022,57.675c-46.234,23.683-92.391,47.518-138.587,71.272
		c-25.765,13.249-51.543,26.47-77.314,39.704c-0.685-1.345-1.37-2.688-2.055-4.033c-0.618-1.538-1.104-3.146-1.873-4.604
		c-28.409-53.89-56.815-107.78-85.286-161.638C3035.283,2098.49,3017.603,2065.29,2999.969,2032.066z"/>
	<path fill-rule="evenodd" clip-rule="evenodd" fill="#642D61" d="M24,1426c-0.001-0.667-0.002-1.333-0.003-2
		c1.77-1.965,3.662-3.833,5.29-5.908c39.039-49.739,78-99.541,117.079-149.248c45.659-58.077,91.437-116.062,137.128-174.113
		c36.018-45.762,72.012-91.542,107.915-137.394c3.242-4.14,5.736-8.864,8.577-13.318c0.664-0.018,1.327-0.029,1.99-0.035
		c1.646,3.425,4.146,6.693,4.804,10.298c7.587,41.528,14.944,83.098,22.262,124.674c9.852,55.975,19.529,111.979,29.445,167.941
		c7.656,43.215,15.623,86.374,23.344,129.577c9.242,51.715,18.414,103.442,27.521,155.182c2.941,16.714,5.511,33.492,8.412,50.213
		c0.6,3.46,0.672,6.039-3.773,6.136c-5.773-1.604-11.625-2.969-17.309-4.845c-83.502-27.558-166.999-55.129-250.46-82.808
		c-68.927-22.859-137.801-45.877-206.718-68.769c-4.405-1.463-8.972-2.438-13.464-3.64C25.36,1427.296,24.68,1426.648,24,1426z"/>
	<path fill-rule="evenodd" clip-rule="evenodd" fill="#793671" d="M403.95,940.093c0.687-0.035,1.373-0.07,2.06-0.106
		c18.295-15.962,36.681-31.82,54.863-47.909c29.153-25.794,58.208-51.699,87.235-77.636c21.339-19.068,42.523-38.31,63.857-57.384
		c22.57-20.179,45.258-40.226,67.851-60.379c14.651-13.069,29.192-26.263,43.837-39.339c29.533-26.368,59.138-52.657,88.647-79.052
		c21.33-19.078,42.546-38.283,63.829-57.415c12.867-11.566,25.81-23.051,38.613-34.687c2.694-2.448,4.932-5.397,7.381-8.114
		c0.632-0.006,1.262-0.023,1.892-0.051c0.67,0.649,1.341,1.299,2.011,1.949c-1.826,4.572-4.214,9.004-5.395,13.737
		c-13.617,54.597-26.897,109.279-40.586,163.858c-11.012,43.91-22.719,87.646-33.657,131.574
		c-20.758,83.355-41.201,166.79-61.71,250.208c-1.186,4.824-1.786,9.792-2.659,14.692c-1.355,3.957-2.711,7.914-4.066,11.87
		c-4.492-1.144-9.08-2.004-13.464-3.474c-82.927-27.799-165.811-55.729-248.747-83.499c-37.2-12.456-74.496-24.624-111.749-36.923
		C403.98,941.374,403.966,940.733,403.95,940.093z"/>
	<path fill-rule="evenodd" clip-rule="evenodd" fill="#662E61" d="M403.993,942.016c37.253,12.299,74.549,24.467,111.749,36.923
		c82.937,27.771,165.82,55.7,248.747,83.499c4.384,1.47,8.972,2.33,13.465,3.475c-0.005,0.701-0.01,1.401-0.015,2.101
		c-2.027,3.425-4.299,6.731-6.044,10.295c-11.273,23.019-22.371,46.123-33.638,69.145c-32.646,66.704-65.253,133.429-98.049,200.06
		c-30.885,62.747-62.088,125.337-92.938,188.101c-8.802,17.907-16.861,36.181-25.262,54.286c-2.673-0.632-5.346-1.264-8.019-1.895
		c4.445-0.097,4.373-2.676,3.773-6.136c-2.901-16.721-5.471-33.499-8.412-50.213c-9.106-51.739-18.278-103.467-27.521-155.182
		c-7.721-43.203-15.688-86.362-23.344-129.577c-9.916-55.962-19.594-111.967-29.445-167.941
		c-7.317-41.576-14.675-83.146-22.262-124.674c-0.658-3.604-3.158-6.873-4.804-10.298
		C402.648,943.327,403.321,942.671,403.993,942.016z"/>
	<path fill-rule="evenodd" clip-rule="evenodd" fill="#5F295C" d="M399.986,944.019c-2.841,4.454-5.335,9.179-8.577,13.318
		c-35.903,45.852-71.897,91.632-107.915,137.394c-45.691,58.052-91.469,116.036-137.128,174.113
		c-39.08,49.707-78.04,99.509-117.079,149.248c-1.628,2.075-3.521,3.943-5.29,5.908c-0.001-9.89,0.173-19.783-0.038-29.669
		c-0.563-26.272-1.775-52.538-1.863-78.811c-0.259-77.293-0.061-154.587-0.186-231.881c-0.009-5.245-1.215-10.487-1.864-15.732
		c4.849-1.034,9.846-1.618,14.524-3.165c115.995-38.347,231.954-76.804,347.936-115.189c4.4-1.456,8.975-2.392,13.467-3.569
		c0.676-0.649,1.351-1.299,2.026-1.947C398.661,944.029,399.324,944.023,399.986,944.019z"/>
	<path fill-rule="evenodd" clip-rule="evenodd" fill="#642D61" d="M397.999,944.036c-0.676,0.648-1.351,1.298-2.026,1.947
		C396.648,945.334,397.323,944.685,397.999,944.036z"/>
	<path fill-rule="evenodd" clip-rule="evenodd" fill="#672E62" d="M1705.985,296.007c0.672-0.002,1.343-0.005,2.015-0.007
		c0.016,0.701,0.032,1.403,0.047,2.104c-0.673,1.986-1.345,3.974-2.018,5.961c-24.066,63.434-48.104,126.879-72.209,190.298
		c-25.287,66.53-50.641,133.036-75.965,199.554c-2.63-1.294-5.26-2.588-7.89-3.882c-0.081-1.778,0.552-4.162-0.359-5.238
		c-6.44-7.607-13.221-14.927-19.851-22.375c-20.55-23.084-40.984-46.271-61.646-69.254c-20.444-22.743-41.23-45.181-61.652-67.944
		c-38.635-43.065-77.015-86.358-115.694-129.384c-27.115-30.161-54.646-59.949-81.789-90.087
		c-8.658-9.614-16.664-19.815-24.969-29.748c39.867,1.369,79.74,2.606,119.601,4.152c27.555,1.069,55.091,2.604,82.639,3.861
		c45.146,2.062,90.294,4.061,135.441,6.097c29.211,1.317,58.421,2.662,87.632,3.98c29.543,1.334,59.085,2.712,88.635,3.869
		C1700.602,298.067,1703.307,296.694,1705.985,296.007z"/>
	<path fill-rule="evenodd" clip-rule="evenodd" fill="#703269" d="M1184.006,276.004c8.305,9.933,16.311,20.134,24.969,29.748
		c27.143,30.138,54.674,59.926,81.789,90.087c38.68,43.025,77.06,86.318,115.694,129.384c20.422,22.764,41.208,45.201,61.652,67.944
		c20.661,22.983,41.096,46.17,61.646,69.254c6.63,7.448,13.41,14.768,19.851,22.375c0.911,1.076,0.278,3.46,0.36,5.238
		c-31.075-10.966-62.203-21.781-93.214-32.926c-71.426-25.668-142.802-51.479-214.186-77.265
		c-45.084-16.286-90.106-32.743-135.237-48.899c-20.343-7.283-40.882-14.02-61.332-21.004c-1.309-0.548-2.618-1.095-3.927-1.642
		l-0.067-0.328c0.005-0.646,0.011-1.29,0.017-1.935c0.811-1.053,1.733-2.037,2.416-3.167
		c36.837-60.9,73.725-121.771,110.423-182.754c8.723-14.494,16.808-29.372,25.187-44.074l0.003,0.01
		c0.646-0.006,1.293-0.026,1.939-0.06C1182.66,275.995,1183.333,276,1184.006,276.004z"/>
	<path fill-rule="evenodd" clip-rule="evenodd" fill="#843B7A" d="M1181.988,275.991c-0.646,0.033-1.293,0.054-1.939,0.06
		c-0.011-4.021-0.021-8.041-0.029-12.062c0.665,3.343,1.331,6.687,1.996,10.029C1182.005,274.677,1181.995,275.334,1181.988,275.991
		z"/>
	<path fill-rule="evenodd" clip-rule="evenodd" fill="#672E62" d="M1703.976,294.002c0.675,0.669,1.349,1.337,2.023,2.006
		C1705.324,295.339,1704.65,294.671,1703.976,294.002z"/>
	<path fill-rule="evenodd" clip-rule="evenodd" fill="#855B93" d="M1854.043,2395.957c-0.65-0.018-1.301-0.038-1.952-0.061
		c-3.64-32.354-7.188-64.719-10.944-97.06c-3.604-31.024-7.443-62.021-11.145-93.034c-3.779-31.672-7.503-63.35-11.277-95.021
		c-2.871-24.088-5.828-48.166-8.666-72.258c-3.693-31.348-7.341-62.701-10.943-94.061c-2.388-20.786-4.661-41.586-6.987-62.379
		c0.604-0.054,1.212-0.092,1.819-0.115c40.104,21.046,80.203,42.103,120.313,63.136c55.449,29.075,110.907,58.134,166.362,87.199
		c41.295,21.645,82.588,43.295,123.889,64.929c56.643,29.669,113.262,59.384,169.95,88.966
		c37.206,19.415,74.562,38.545,111.756,57.981c12.08,6.313,23.863,13.19,35.782,19.81c0.015,0.686,0.028,1.371,0.043,2.057
		l0.003-0.003c-22.249,3.971-44.538,7.727-66.739,11.951c-56.542,10.76-113.064,21.621-169.557,32.645
		c-57.473,11.214-114.879,22.766-172.35,33.998c-84.897,16.592-169.825,33.027-254.732,49.573
		C1857.073,2394.521,1855.582,2395.362,1854.043,2395.957z"/>
	<path fill-rule="evenodd" clip-rule="evenodd" fill="#9C60A2" d="M3007.967,643.957c-11.881,9.58-23.957,18.93-35.606,28.784
		c-30.705,25.974-61.256,52.131-91.808,78.285c-20.706,17.727-41.254,35.639-61.975,53.349
		c-22.235,19.006-44.577,37.889-66.939,56.744c-0.856,0.722-2.417,0.608-3.649,0.884c10.609-19.222,21.275-38.412,31.817-57.671
		c24.121-44.063,48.096-88.206,72.289-132.229c27.717-50.434,55.655-100.746,83.369-151.182c4.459-8.116,8.247-16.603,12.345-24.919
		l0.201-0.001c0.668-0.008,1.336-0.016,2.004-0.024l0.009-0.012c0.85,3.531,1.321,7.207,2.608,10.57
		c16.353,42.719,32.771,85.414,49.384,128.032c1.092,2.799,3.91,4.924,5.926,7.362
		C3007.95,642.605,3007.959,643.281,3007.967,643.957z"/>
	<path fill-rule="evenodd" clip-rule="evenodd" fill="#A965AE" d="M3007.941,641.93c-2.016-2.438-4.834-4.563-5.926-7.362
		c-16.613-42.618-33.031-85.313-49.384-128.032c-1.287-3.363-1.759-7.039-2.608-10.57c51.27-24.61,102.533-49.231,153.82-73.805
		c3.293-1.577,6.767-2.779,10.156-4.156c-8.254,17.819-16.291,35.743-24.806,53.438c-21.526,44.736-43.342,89.334-64.873,134.069
		C3018.55,617.501,3013.385,629.782,3007.941,641.93z"/>
	<path fill-rule="evenodd" clip-rule="evenodd" fill="#7B417A" d="M2322.018,229.976c0.688,6.698,1.375,13.396,2.062,20.094
		c0.468,3.275,0.669,6.616,1.447,9.817c13.829,56.854,27.72,113.693,41.612,170.531c10.894,44.567,21.809,89.129,32.715,133.691
		c-3.77-1.31-7.692-2.294-11.287-3.979c-46.432-21.752-92.803-43.63-139.215-65.423c-32.247-15.142-64.521-30.226-96.803-45.292
		c-58.225-27.176-116.453-54.344-174.701-81.468c-35.914-16.724-71.868-33.361-107.804-50.037c3.073-1.191,6.055-3.03,9.232-3.477
		c39.789-5.588,79.604-10.987,119.417-16.41c46.063-6.273,92.138-12.462,138.191-18.799c46.057-6.337,92.109-12.694,138.129-19.292
		c15.715-2.253,31.32-5.265,46.976-7.93C2321.998,244.661,2322.008,237.318,2322.018,229.976z"/>
	<path fill-rule="evenodd" clip-rule="evenodd" fill="#753A72" d="M2321.989,252.004c-15.655,2.665-31.261,5.677-46.976,7.93
		c-46.02,6.598-92.072,12.955-138.129,19.292c-46.054,6.337-92.128,12.525-138.191,18.799
		c-39.813,5.423-79.628,10.822-119.417,16.41c-3.178,0.446-6.159,2.285-9.233,3.478c-1.354-0.633-2.706-1.266-4.059-1.899
		l0.004-0.005c-6.403-32.956-12.847-65.904-19.201-98.869c-11.64-60.387-23.228-120.783-34.838-181.175
		c-0.645-1.337-1.289-2.673-1.934-4.01c-0.012-1.314-0.022-2.628-0.033-3.942c0.021-1.324,0.043-2.649,0.064-3.974
		c0.642-0.024,1.282-0.046,1.923-0.065c30.585,13.857,61.133,27.8,91.768,41.548c34.589,15.522,69.247,30.89,103.892,46.288
		c39.506,17.559,79.057,35.018,118.538,52.631c34.929,15.582,69.772,31.353,104.684,46.972
		C2261.208,224.992,2291.608,238.477,2321.989,252.004z"/>
	<path fill-rule="evenodd" clip-rule="evenodd" fill="#8D3F82" d="M1180.02,263.989c0.009,4.021,0.019,8.04,0.029,12.062
		c0,0-0.003-0.01-0.004-0.01c-3.684,1.489-7.505,2.71-11.028,4.513c-17.458,8.934-34.739,18.215-52.262,27.019
		c-52.896,26.576-105.867,53.005-158.839,79.43c-3.846,1.919-7.935,3.353-11.91,5.012c35.081-61.646,70.229-123.254,105.222-184.95
		c27.107-47.795,54.012-95.704,81.03-143.549c4.094-7.249,8.688-14.242,12.353-21.696c2.435-4.952,3.629-10.514,5.379-15.802
		c0.683,0.655,1.365,1.311,2.048,1.965c2.197,20.097,4.217,40.215,6.631,60.285c3.602,29.951,7.513,59.865,11.23,89.803
		c3.228,25.987,6.38,51.984,9.531,77.981C1179.749,258.682,1179.828,261.342,1180.02,263.989z"/>
	<path fill-rule="evenodd" clip-rule="evenodd" fill="#843B7A" d="M946.006,392.014c3.976-1.659,8.064-3.093,11.91-5.012
		c52.972-26.425,105.943-52.854,158.839-79.43c17.522-8.804,34.804-18.085,52.262-27.019c3.523-1.803,7.345-3.023,11.028-4.513
		c-8.378,14.702-16.463,29.58-25.186,44.074c-36.698,60.983-73.586,121.854-110.423,182.754c-0.683,1.13-1.605,2.114-2.416,3.166
		c-4.888-0.728-9.862-1.094-14.646-2.247c-18.649-4.495-37.197-9.414-55.862-13.837c-15.103-3.578-30.319-6.672-45.484-9.981
		c-0.671-0.649-1.342-1.299-2.012-1.948c6.671-27.998,13.343-55.996,20.015-83.994C944.689,393.356,945.348,392.686,946.006,392.014
		z"/>
	<path fill-rule="evenodd" clip-rule="evenodd" fill="#662E62" d="M1811.949,35.964c11.61,60.392,23.198,120.788,34.838,181.175
		c6.354,32.965,12.798,65.913,19.201,98.869c-8.213-1.05-16.409-2.243-24.64-3.124c-28.321-3.03-56.665-5.861-84.979-8.95
		c-16.127-1.76-32.216-3.874-48.321-5.829c-0.016-0.701-0.032-1.403-0.048-2.104c7.085-18.251,14.373-36.426,21.217-54.767
		c23.111-61.936,46.008-123.95,69.138-185.878c3.462-9.27,7.731-18.236,11.628-27.344c0.011,1.314,0.021,2.628,0.032,3.942
		C1810.66,33.291,1811.305,34.628,1811.949,35.964z"/>
	<path fill-rule="evenodd" clip-rule="evenodd" fill="#AE64AE" d="M2893.989,63.995c5.118,39.863,10.314,79.717,15.333,119.593
		c4.354,34.604,8.425,69.245,12.771,103.851c4.222,33.619,8.73,67.201,12.934,100.822c4.408,35.259,8.603,70.545,12.89,105.819
		c-9.719-3.39-19.55-6.493-29.143-10.211c-113.98-44.174-227.932-88.424-341.877-132.686
		c-72.343-28.101-144.688-56.195-216.972-84.446c-11.428-4.466-22.538-9.741-33.796-14.644
		c41.79-14.624,83.596-29.205,125.365-43.891c26.066-9.165,52.065-18.522,78.114-27.736
		c98.236-34.748,196.488-69.453,294.717-104.223c22.586-7.994,45.103-16.184,67.65-24.283
		C2892.646,55.972,2893.318,59.983,2893.989,63.995z"/>
	<path fill-rule="evenodd" clip-rule="evenodd" fill="#935494" d="M2326.129,252.094c11.258,4.902,22.368,10.178,33.796,14.644
		c72.284,28.251,144.629,56.346,216.972,84.446c113.945,44.262,227.896,88.512,341.877,132.686
		c9.593,3.718,19.424,6.821,29.143,10.211c0,0-0.004-0.018-0.004-0.019c0.02,0.647,0.052,1.294,0.099,1.939
		c0,0-0.201,0.001-0.198,0.001c-10.551,1.297-21.104,2.583-31.654,3.892c-35.615,4.416-71.245,8.721-106.84,13.299
		c-26.049,3.351-52.021,7.307-78.082,10.56c-40.893,5.104-81.854,9.646-122.741,14.791c-44.518,5.602-88.989,11.571-133.468,17.475
		c-24.376,3.234-48.726,6.663-73.086,10.004c-0.596-0.079-1.191-0.164-1.786-0.255c-0.053-0.561-0.153-1.112-0.302-1.656
		c-10.906-44.563-21.821-89.125-32.715-133.692c-13.893-56.838-27.783-113.678-41.612-170.531c-0.778-3.201-0.979-6.542-1.447-9.817
		c0.645-0.025,1.289-0.044,1.933-0.053C2326.051,250.709,2326.09,251.401,2326.129,252.094z"/>
	<path fill-rule="evenodd" clip-rule="evenodd" fill="#70497D" d="M2791.968,1243.991c37.846-16.484,75.678-33.002,113.542-49.444
		c48.55-21.084,97.114-42.136,145.695-63.15c52.553-22.733,105.155-45.354,157.688-68.136c20.463-8.874,40.795-18.054,61.187-27.092
		c-3.953,12.705-7.626,25.503-11.912,38.093c-13.305,39.084-26.89,78.073-40.279,117.129
		c-20.625,60.162-41.179,120.35-61.761,180.525c0.001-0.001-0.127,0.09-0.127,0.09c-3.816-1.163-7.676-2.201-11.442-3.507
		c-65.677-22.76-131.35-45.529-197.007-68.347c-43.036-14.957-86.078-29.898-129.037-45.073
		C2809.485,1251.89,2800.807,1247.713,2791.968,1243.991z"/>
	<path fill-rule="evenodd" clip-rule="evenodd" fill="#CE93E2" d="M2999.969,2032.066c17.634,33.224,35.314,66.424,52.893,99.678
		c28.471,53.857,56.877,107.748,85.286,161.638c0.769,1.459,1.255,3.066,1.873,4.604c-8.481-0.063-17.076,0.746-25.424-0.342
		c-36.282-4.73-72.472-10.171-108.734-15.059c-52.412-7.064-104.865-13.824-157.287-20.813
		c-24.731-3.298-49.444-6.746-74.135-10.331c-4.221-0.612-8.29-2.258-12.43-3.426c15.832-14.706,31.565-29.52,47.521-44.089
		c18.674-17.051,37.569-33.858,56.319-50.825c34.295-31.034,68.536-62.128,102.84-93.152
		C2979.049,2050.58,2989.539,2041.356,2999.969,2032.066z"/>
	<path fill-rule="evenodd" clip-rule="evenodd" fill="#905694" d="M720.011,2109.999c-0.029-0.614-0.051-1.228-0.065-1.843
		c0,0,0.159-0.502,0.158-0.498c2.047-1.094,4.219-2.008,6.124-3.313c71.184-48.701,142.321-97.469,213.515-146.156
		c33.537-22.936,67.212-45.669,100.759-68.591c88.536-60.493,177.036-121.04,265.55-181.565c3.942,6.244-2.156,9.504-4.539,13.348
		c-22.81,36.796-46.08,73.306-69.027,110.017c-41.479,66.359-82.746,132.853-124.253,199.194
		c-43.098,68.885-86.437,137.619-129.51,206.52c-6.678,10.682-12.497,21.898-18.713,32.867l-0.005,0.032
		c-0.664-0.006-1.328-0.009-1.992-0.011c-70.471-47.435-140.937-94.874-211.414-142.298
		C737.765,2121.758,728.875,2115.898,720.011,2109.999z"/>
	<path fill-rule="evenodd" clip-rule="evenodd" fill="#985497" d="M426.051,1824.061c-10.643,16.909-21.113,33.93-31.959,50.708
		c-45.75,70.773-91.567,141.504-137.523,212.144c-3.537,5.437-8.339,10.049-12.553,15.045c-4.985-15.155-9.642-30.427-15.016-45.442
		c-16.152-45.131-32.621-90.148-48.896-135.235c-18.299-50.693-36.453-101.439-54.93-152.067c-1.269-3.476-4.709-6.159-7.139-9.211
		c0.665-1.991,1.33-3.983,1.994-5.976c0.647-0.044,1.295-0.073,1.944-0.087c11.374,2.539,22.742,5.102,34.122,7.613
		c67.959,14.999,135.937,29.916,203.874,45.019c22.066,4.905,44.027,10.285,66.037,15.448
		C426.02,1822.699,426.035,1823.38,426.051,1824.061z"/>
	<path fill-rule="evenodd" clip-rule="evenodd" fill="#915799" d="M1315.936,2477.93c-0.64,0.032-1.28,0.061-1.92,0.084
		c-19.051-11.51-37.991-23.207-57.182-34.479c-19.193-11.273-38.708-21.998-57.956-33.179
		c-39.646-23.03-79.196-46.226-118.811-69.312c-36.749-21.416-73.543-42.757-110.273-64.206c-3.425-2-6.534-4.539-9.79-6.828
		l0.005-0.032c5.28,0.637,10.55,1.388,15.843,1.893c36.734,3.498,73.492,6.768,110.208,10.454
		c42.997,4.316,85.949,9.079,128.938,13.468c47.621,4.861,95.264,9.519,142.896,14.265c0,0,0.054-0.006,0.055-0.007
		c-11.403,45.012-22.838,90.017-34.189,135.043C1321.01,2456.003,1318.537,2466.982,1315.936,2477.93z"/>
	<path fill-rule="evenodd" clip-rule="evenodd" fill="#A775B8" d="M2568.032,1699.986c7.118,19.721,14.476,39.36,21.313,59.179
		c23.476,68.043,46.73,136.163,70.146,204.228c19.187,55.772,38.479,111.509,57.734,167.258
		c12.293,35.59,24.674,71.15,36.811,106.795c1.344,3.946,1.342,8.352,1.963,12.544c-28.406,1.874-56.812,3.751-85.218,5.622
		c-11.564,0.762-23.124,1.604-34.694,2.251c-25.791,1.442-51.589,2.765-77.382,4.178c-10.909,0.597-21.812,1.3-32.717,1.954
		c1.469-24.225,2.793-48.459,4.444-72.672c1.696-24.867,3.744-49.71,5.579-74.568c1.518-20.556,2.913-41.121,4.426-61.677
		c1.828-24.859,3.746-49.711,5.58-74.569c1.517-20.556,2.936-41.119,4.456-61.674c1.815-24.526,3.723-49.047,5.533-73.573
		c1.541-20.888,2.99-41.781,4.498-62.671c1.843-25.524,3.703-51.048,5.555-76.572
		C2566.718,1704.008,2567.375,1701.997,2568.032,1699.986z"/>
	<path fill-rule="evenodd" clip-rule="evenodd" fill="#8C619B" d="M2566.061,1706.018c-1.852,25.524-3.712,51.048-5.555,76.572
		c-1.508,20.89-2.957,41.783-4.498,62.671c-1.811,24.526-3.718,49.047-5.533,73.573c-1.521,20.555-2.939,41.118-4.456,61.674
		c-1.834,24.858-3.752,49.71-5.58,74.569c-1.513,20.556-2.908,41.121-4.426,61.677c-1.835,24.858-3.883,49.701-5.579,74.568
		c-1.651,24.213-2.976,48.447-4.444,72.672c-0.532,0.123-1.068,0.223-1.611,0.299c-0.003-0.002-0.539-0.412-0.539-0.412
		c-0.285-2.638-0.41-5.305-0.88-7.908c-10.164-56.296-20.42-112.576-30.551-168.878c-18.848-104.746-37.575-209.514-56.477-314.25
		c-4.366-24.198-9.234-48.306-13.872-72.457c29.088-1.452,58.174-2.937,87.265-4.336c19.508-0.938,39.021-1.756,58.533-2.627
		l0.143,0.58c-0.027,0.642-0.045,1.284-0.056,1.925c-0.001,0,0.002,0.057,0.002,0.057
		C2567.318,1699.33,2566.689,1702.674,2566.061,1706.018z"/>
	<path fill-rule="evenodd" clip-rule="evenodd" fill="#8B5B9B" d="M2522.043,2266.046c-0.015-0.686-0.028-1.371-0.043-2.057
		c0.614-0.02,1.227-0.056,1.839-0.108c0,0,0.536,0.41,0.539,0.412c-0.095,0.594-0.19,1.187-0.285,1.78
		C2523.41,2266.064,2522.727,2266.055,2522.043,2266.046z"/>
	<path fill-rule="evenodd" clip-rule="evenodd" fill="#A054A6" d="M2980.017,34.02c0.659-0.021,1.319-0.037,1.979-0.046
		C2981.336,33.989,2980.676,34.004,2980.017,34.02z"/>
	<path fill-rule="evenodd" clip-rule="evenodd" fill="#7A3E79" d="M121.971,1753.938c-0.649,0.015-1.297,0.044-1.944,0.088
		c-2.684-0.666-5.368-1.333-8.053-1.999c1.741-0.733,3.483-1.466,6.186-2.603c-4.215-14.662-8.256-28.956-12.436-43.21
		c-17.199-58.66-34.438-117.309-51.667-175.96c-9.083-30.918-18.228-61.818-27.181-92.774c-0.87-3.007-0.585-6.349-0.836-9.535
		c4.492,1.201,9.059,2.176,13.464,3.639c68.917,22.892,137.791,45.909,206.718,68.769c83.461,27.679,166.958,55.25,250.46,82.808
		c5.684,1.876,11.535,3.241,17.309,4.845c2.673,0.631,5.346,1.263,8.019,1.896c0.659,0.052,1.318,0.096,1.979,0.131
		c-1.333,0.659-2.667,1.318-4.001,1.978c-4.1,1.377-8.289,2.535-12.286,4.163c-104.604,42.591-209.201,85.2-313.768,127.885
		C169.886,1733.871,145.955,1743.97,121.971,1753.938z"/>
	<path fill-rule="evenodd" clip-rule="evenodd" fill="#744D80" d="M1792.129,1882.084c2.325,20.793,4.599,41.593,6.986,62.379
		c3.603,31.359,7.25,62.713,10.943,94.061c2.838,24.092,5.795,48.17,8.666,72.258c3.774,31.672,7.498,63.35,11.277,95.021
		c3.701,31.013,7.541,62.01,11.145,93.034c3.757,32.341,7.305,64.706,10.944,97.06c-1.353,0.043-2.706,0.087-4.06,0.131
		c-20.516-3.994-40.971-8.327-61.556-11.918c-75.337-13.142-150.728-25.975-226.077-39.043
		c-66.831-11.592-133.635-23.342-200.451-35.021c-0.666-0.004-1.332-0.001-1.999,0.007c0,0-0.054,0.006-0.054,0.005
		c0.032-0.681,0.063-1.361,0.093-2.041c3.699-2.708,7.805-5.003,11.036-8.186c54.828-53.992,109.558-108.085,164.29-162.175
		c58.761-58.071,117.542-116.124,176.235-174.265c24.622-24.39,49.02-49.006,73.575-73.462
		C1785.938,1887.126,1789.119,1884.69,1792.129,1882.084z"/>
	<path fill-rule="evenodd" clip-rule="evenodd" fill="#794B84" d="M1359.947,2310.045c66.816,11.68,133.62,23.43,200.451,35.021
		c75.35,13.068,150.74,25.901,226.077,39.043c20.585,3.591,41.04,7.924,61.556,11.918c-16.697,2.637-33.368,5.452-50.097,7.876
		c-49.685,7.198-99.385,14.285-149.09,21.334c-49.046,6.956-98.106,13.798-147.153,20.744c-3.26,0.462-6.455,1.381-9.681,2.088
		c-0.649-0.002-1.298,0.01-1.945,0.036c0.001,0.002-0.064-0.164-0.064-0.163c-0.168-1.261,0.124-2.929-0.575-3.721
		c-5.937-6.724-11.83-13.509-18.152-19.861c-34.315-34.48-68.789-68.804-103.081-103.308
		C1364.992,2317.833,1362.675,2313.734,1359.947,2310.045z"/>
	<path fill-rule="evenodd" clip-rule="evenodd" fill="#834E8D" d="M1359.947,2310.045c2.728,3.689,5.045,7.788,8.245,11.008
		c34.292,34.504,68.766,68.827,103.081,103.308c6.322,6.353,12.216,13.138,18.152,19.861c0.699,0.792,0.407,2.46,0.575,3.721
		c-33.443,5.712-66.893,11.393-100.329,17.146c-24.586,4.231-49.157,8.558-73.735,12.842c2.601-10.948,5.073-21.928,7.823-32.837
		c11.352-45.026,22.786-90.031,34.189-135.043C1358.615,2310.044,1359.281,2310.041,1359.947,2310.045z"/>
	<path fill-rule="evenodd" clip-rule="evenodd" fill="#7C548A" d="M2791.968,1243.991c8.839,3.722,17.518,7.898,26.546,11.088
		c42.959,15.175,86.001,30.116,129.037,45.073c65.657,22.817,131.33,45.587,197.007,68.347c3.767,1.306,7.626,2.344,11.442,3.507
		c0.029,0.608,0.06,1.218,0.092,1.825c-0.695,0.087-1.39,0.175-2.084,0.263c-0.691,0.611-1.384,1.225-2.076,1.836
		c-30.197,16.201-60.451,32.299-90.578,48.63c-34.526,18.715-68.939,37.642-103.406,56.468
		c-49.071,26.805-98.131,53.631-147.225,80.393c-39.746,21.664-79.57,43.184-119.296,64.883
		c-41.182,22.495-82.288,45.129-123.427,67.702c0,0-0.143-0.58-0.142-0.576c-0.001-0.505,0.002-1.015,0.009-1.523
		c20.631-41.783,41.25-83.572,61.896-125.348c29.792-60.281,59.542-120.585,89.431-180.817
		c21.163-42.647,42.541-85.188,63.773-127.8c1.924-3.861,3.488-7.903,5.22-11.861c0.621-0.697,1.242-1.395,1.864-2.092
		C2790.69,1243.988,2791.329,1243.989,2791.968,1243.991z"/>
	<path fill-rule="evenodd" clip-rule="evenodd" fill="#905DA1" d="M3151.932,1375.93c0.692-0.611,1.385-1.225,2.076-1.836
		C3153.315,1374.706,3152.623,1375.318,3151.932,1375.93z"/>
	<path fill-rule="evenodd" clip-rule="evenodd" fill="#9B6CAA" d="M2566.061,1706.018c0.629-3.344,1.258-6.688,1.886-10.031
		c0.028,1.333,0.057,2.667,0.085,4C2567.375,1701.997,2566.718,1704.008,2566.061,1706.018z"/>
	<path fill-rule="evenodd" clip-rule="evenodd" fill="#894B88" d="M719.945,2108.156c-0.598-0.102-1.199-0.182-1.804-0.241
		c-28.721-75.313-57.452-150.624-86.154-225.945c-18.025-47.306-36.005-94.629-54.005-141.944
		c11.353-10.212,22.652-20.482,34.068-30.623c21.833-19.396,43.799-38.641,65.583-58.09c21.294-19.014,42.375-38.266,63.649-57.302
		c23.248-20.802,46.586-41.503,69.932-62.195c15.646-13.867,31.472-27.531,47.032-41.492c14.067-12.622,27.884-25.523,41.811-38.302
		c0.66-0.625,1.32-1.25,1.98-1.874c0.64,0.077,1.277,0.168,1.913,0.271c-6.411,22.761-12.838,45.521-19.231,68.29
		c-25.575,91.076-51.138,182.157-76.71,273.234c-20.891,74.402-41.854,148.783-62.65,223.211
		c-8.602,30.782-16.848,61.664-25.255,92.5L719.945,2108.156z"/>
	<path fill-rule="evenodd" clip-rule="evenodd" fill="#9F599D" d="M577.982,1740.025c18,47.315,35.979,94.639,54.005,141.944
		c28.702,75.321,57.434,150.632,86.154,225.945c-3.24-2.839-6.653-5.507-9.697-8.544c-41.468-41.373-82.76-82.924-124.345-124.178
		c-48.891-48.501-97.984-96.796-147.156-145.011c-2.872-2.815-7.229-4.117-10.893-6.123c-0.016-0.68-0.031-1.36-0.047-2.041
		c1.337-0.662,2.674-1.323,4.011-1.985c3.356-1.403,6.872-2.517,10.045-4.255c45.995-25.187,91.945-50.457,137.905-75.708
		L577.982,1740.025z"/>
	<path fill-rule="evenodd" clip-rule="evenodd" fill="#8F5593" d="M2401.94,566.021c24.361-3.341,48.711-6.77,73.087-10.004
		c44.479-5.903,88.95-11.873,133.468-17.475c40.887-5.145,81.849-9.687,122.741-14.791c26.061-3.253,52.033-7.209,78.082-10.56
		c35.595-4.578,71.225-8.883,106.84-13.299c10.551-1.309,21.104-2.595,31.654-3.892c-4.101,8.316-7.889,16.803-12.348,24.919
		c-27.714,50.436-55.652,100.748-83.369,151.182c-24.193,44.023-48.168,88.167-72.289,132.229
		c-10.542,19.259-21.208,38.449-31.817,57.671c-0.663,1.336-1.326,2.672-1.989,4.008c-0.655-0.011-1.311-0.019-1.967-0.022
		c-2.041-1.701-4.125-3.354-6.117-5.109c-23.939-21.098-47.802-42.283-71.814-63.297c-24.01-21.011-48.232-41.779-72.243-62.788
		c-24.015-21.012-47.843-42.235-71.827-63.282c-25.23-22.14-50.477-44.261-75.854-66.231c-14.565-12.61-29.403-24.903-44.118-37.339
		C2401.992,567.303,2401.954,566.663,2401.94,566.021z"/>
	<path fill-rule="evenodd" clip-rule="evenodd" fill="#75457A" d="M2402.059,567.94c14.715,12.437,29.553,24.729,44.118,37.34
		c25.378,21.971,50.624,44.092,75.854,66.231c23.984,21.047,47.813,42.271,71.827,63.282c24.011,21.009,48.233,41.777,72.243,62.788
		c24.013,21.014,47.875,42.199,71.814,63.297c1.992,1.756,4.076,3.408,6.117,5.109c0.006,1.321,0.012,2.643,0.017,3.965
		c-2.976,2.64-6.136,5.099-8.895,7.947c-16.86,17.406-33.549,34.978-50.444,52.349c-28.48,29.28-57.075,58.449-85.608,87.678
		c-1.39,1.424-2.592,3.032-3.991,4.446c-21.019,21.217-42.055,42.416-63.087,63.62c-1.284-3.755-2.85-7.439-3.813-11.275
		c-41.223-164.018-82.4-328.047-123.522-492.089C2403.481,577.815,2402.921,572.84,2402.059,567.94z"/>
	<path fill-rule="evenodd" clip-rule="evenodd" fill="#6D4576" d="M2532.025,1085.993c21.031-21.204,42.067-42.403,63.086-63.62
		c1.399-1.414,2.602-3.022,3.991-4.446c28.533-29.229,57.128-58.397,85.608-87.678c16.896-17.371,33.584-34.942,50.444-52.349
		c2.759-2.849,5.919-5.308,8.895-7.947c1.975,14.096,4.179,28.165,5.876,42.295c3.842,31.989,7.447,64.007,11.125,96.016
		c3.679,32.009,7.287,64.026,11.006,96.031c2.953,25.406,6.078,50.793,9.032,76.199c2.455,21.117,4.772,42.25,7.148,63.377
		c-0.003,0.002-0.358,0.157-0.356,0.157c-26.444-16.11-52.904-32.197-79.332-48.335c-58.826-35.918-117.637-71.861-176.453-107.795
		C2532.069,1087.264,2532.046,1086.628,2532.025,1085.993z"/>
	<path fill-rule="evenodd" clip-rule="evenodd" fill="#70497D" d="M2790.052,1243.987c-0.622,0.697-1.243,1.395-1.866,2.092
		c-0.002-0.001-0.363-0.153-0.363-0.153c0.056-0.632,0.075-1.264,0.057-1.897c0,0,0.355-0.155,0.358-0.157
		C2788.843,1243.922,2789.447,1243.96,2790.052,1243.987z"/>
	<path fill-rule="evenodd" clip-rule="evenodd" fill="#A965AE" d="M2948.011,496.001c-0.047-0.646-0.079-1.292-0.099-1.939
		c0.7,0.639,1.401,1.277,2.102,1.915C2949.347,495.985,2948.679,495.993,2948.011,496.001z"/>
	<path fill-rule="evenodd" clip-rule="evenodd" fill="#622C5E" d="M777.938,1068.014c0.006-0.7,0.011-1.4,0.016-2.102
		c1.354-3.957,2.71-7.914,4.065-11.871c6.229-12.476,12.653-24.858,18.649-37.444c17.172-36.047,34.125-72.198,51.247-108.269
		c32.533-68.539,65.129-137.049,97.69-205.573c13.853-29.154,27.693-58.313,41.526-87.477
		c16.964-35.767,33.914-71.538,50.871-107.308c0,0,0.067,0.328,0.066,0.325c1.299,29.543,2.752,59.085,3.85,88.639
		c0.925,24.925,1.346,49.867,2.162,74.796c0.532,16.277,1.263,32.551,2.096,48.815c1.871,36.497,4.086,72.979,5.724,109.485
		c1.103,24.581,1.369,49.199,2.181,73.795c0.537,16.277,1.266,32.55,2.105,48.814c1.867,36.164,4.085,72.313,5.72,108.486
		c1.11,24.581,1.24,49.205,2.25,73.792c0.763,18.577,2.368,37.119,3.198,55.694c0.108,2.413-2.177,4.934-3.354,7.404
		c-30.248-13.724-60.474-27.499-90.75-41.158c-45.111-20.353-90.229-40.69-135.405-60.897
		c-21.211-9.487-42.565-18.655-63.855-27.968L777.938,1068.014z"/>
	<path fill-rule="evenodd" clip-rule="evenodd" fill="#77346F" d="M1042.004,507.971c-16.957,35.77-33.907,71.541-50.871,107.308
		c-13.833,29.163-27.674,58.322-41.526,87.477c-32.562,68.524-65.157,137.034-97.69,205.573
		c-17.122,36.07-34.075,72.222-51.247,108.269c-5.996,12.586-12.421,24.969-18.649,37.444c0.873-4.9,1.474-9.868,2.659-14.692
		c20.509-83.418,40.952-166.853,61.71-250.208c10.938-43.928,22.646-87.664,33.657-131.574
		c13.688-54.579,26.969-109.262,40.586-163.858c1.181-4.733,3.568-9.165,5.395-13.737c15.166,3.309,30.383,6.402,45.485,9.98
		c18.665,4.423,37.213,9.342,55.862,13.837c4.784,1.153,9.759,1.52,14.646,2.247
		C1042.015,506.681,1042.009,507.325,1042.004,507.971z"/>
	<path fill-rule="evenodd" clip-rule="evenodd" fill="#643062" d="M903.95,1450.422c-0.635-0.106-1.272-0.197-1.912-0.275
		c-1.363,0.606-2.727,1.214-4.091,1.821c-5.071,1.631-10.211,3.076-15.203,4.921c-65.29,24.132-130.571,48.284-195.829,72.504
		c-54.327,20.164-108.62,40.422-162.928,60.639c-0.66-0.036-1.319-0.08-1.979-0.132c8.4-18.106,16.46-36.38,25.262-54.287
		c30.851-62.764,62.054-125.354,92.938-188.101c32.796-66.631,65.403-133.355,98.049-200.06
		c11.267-23.021,22.364-46.126,33.638-69.145c1.745-3.563,4.017-6.87,6.044-10.295c-0.001,0.001,0.052-0.019,0.052-0.019
		c1.169,4.494,2.083,9.072,3.544,13.469c26.467,79.599,52.961,159.188,79.532,238.752c14.232,42.619,28.62,85.188,42.938,127.778
		c-0.008,0.611-0.019,1.223-0.033,1.835L903.95,1450.422z"/>
	<path fill-rule="evenodd" clip-rule="evenodd" fill="#562654" d="M1045.998,509.94c20.45,6.984,40.989,13.721,61.332,21.004
		c45.131,16.156,90.153,32.613,135.237,48.899c71.384,25.786,142.76,51.597,214.186,77.265
		c31.011,11.145,62.139,21.96,93.214,32.926c2.629,1.294,5.259,2.588,7.889,3.882c0,0,0.205,0.095,0.204,0.094
		c-1.33,41.848-2.687,83.694-3.979,125.543c-0.729,23.585-1.508,47.17-1.986,70.76c-0.808,39.896-1.396,79.795-2.076,119.692
		c-0.017,0.663-0.023,1.327-0.02,1.991c-0.65,0.01-1.301,0.019-1.951,0.026c-2.277-1.937-4.689-3.736-6.812-5.83
		c-54.026-53.308-108.34-106.329-161.954-160.048c-103.488-103.69-206.579-207.777-309.838-311.697
		c-5.634-5.669-11.352-11.255-16.928-16.98C1050.203,515.094,1048.162,512.457,1045.998,509.94z"/>
	<path fill-rule="evenodd" clip-rule="evenodd" fill="#512450" d="M1557.855,693.916c25.324-66.518,50.678-133.023,75.965-199.554
		c24.105-63.419,48.143-126.864,72.209-190.299c1.238,3.771,2.932,7.459,3.64,11.327c4.858,26.518,9.547,53.066,14.22,79.617
		c13.154,74.732,26.308,149.465,39.389,224.209c4.357,24.901,8.495,49.842,12.733,74.764c-67.427-0.655-134.854-1.357-202.282-1.872
		c-5.217-0.04-10.445,1.237-15.668,1.902L1557.855,693.916z"/>
	<path fill-rule="evenodd" clip-rule="evenodd" fill="#582856" d="M1776.011,693.98c-4.238-24.922-8.376-49.862-12.733-74.764
		c-13.081-74.744-26.234-149.477-39.389-224.209c-4.673-26.551-9.361-53.1-14.22-79.617c-0.708-3.868-2.401-7.557-3.64-11.327
		c0.673-1.986,1.345-3.974,2.018-5.96c16.106,1.956,32.195,4.07,48.322,5.83c28.314,3.089,56.658,5.92,84.979,8.95
		c8.23,0.881,16.427,2.074,24.64,3.124l-0.004,0.005c-11.853,50.853-23.717,101.702-35.555,152.558
		c-17.493,75.148-34.968,150.301-52.45,225.451C1777.323,694.013,1776.667,693.999,1776.011,693.98z"/>
	<path fill-rule="evenodd" clip-rule="evenodd" fill="#542552" d="M1045.998,509.94c2.164,2.517,4.205,5.153,6.518,7.526
		c5.576,5.726,11.294,11.312,16.928,16.98c103.259,103.92,206.35,208.007,309.838,311.697
		c53.614,53.719,107.928,106.74,161.954,160.048c2.122,2.094,4.534,3.894,6.811,5.829c-3.16,1.798-6.154,4.018-9.504,5.328
		c-52.352,20.486-104.785,40.761-157.127,61.271c-103.138,40.412-206.23,80.94-309.342,121.42c-1.357-0.674-2.714-1.348-4.071-2.022
		c1.177-2.471,3.462-4.991,3.354-7.404c-0.83-18.575-2.436-37.117-3.198-55.694c-1.01-24.587-1.14-49.211-2.25-73.792
		c-1.635-36.174-3.853-72.322-5.72-108.486c-0.84-16.265-1.568-32.537-2.105-48.814c-0.812-24.596-1.078-49.214-2.181-73.795
		c-1.638-36.507-3.853-72.988-5.724-109.485c-0.833-16.265-1.563-32.538-2.096-48.815c-0.816-24.929-1.237-49.871-2.162-74.796
		c-1.098-29.554-2.551-59.096-3.85-88.639C1043.38,508.846,1044.689,509.393,1045.998,509.94z"/>
	<path fill-rule="evenodd" clip-rule="evenodd" fill="#7E568B" d="M2523.839,2263.881c-0.612,0.053-1.225,0.089-1.839,0.108
		c-11.919-6.619-23.702-13.497-35.782-19.81c-37.194-19.437-74.55-38.566-111.756-57.981
		c-56.688-29.582-113.308-59.297-169.95-88.966c-41.301-21.634-82.594-43.284-123.889-64.929
		c-55.455-29.065-110.913-58.124-166.362-87.199c-40.11-21.033-80.21-42.09-120.313-63.136c0.041-0.54,0.075-1.081,0.104-1.624
		c2.898-0.757,5.816-1.444,8.693-2.276c87.017-25.151,174.023-50.339,261.047-75.472c68.465-19.773,136.94-39.513,205.428-59.21
		c50.883-14.635,101.793-29.179,152.691-43.764l0.15,0.768c4.637,24.148,9.505,48.256,13.871,72.454
		c18.901,104.736,37.629,209.504,56.477,314.25c10.131,56.302,20.387,112.582,30.551,168.878
		C2523.429,2258.576,2523.554,2261.243,2523.839,2263.881z"/>
	<path fill-rule="evenodd" clip-rule="evenodd" fill="#6B4373" d="M1794.052,1880.347c-0.029,0.541-0.063,1.082-0.104,1.622
		c-0.607,0.023-1.215,0.062-1.819,0.115c-3.009,2.606-6.189,5.042-9.004,7.845c-24.556,24.456-48.953,49.072-73.575,73.462
		c-58.693,58.141-117.475,116.193-176.235,174.265c-54.732,54.09-109.462,108.183-164.29,162.175
		c-3.231,3.183-7.337,5.478-11.036,8.186c0-0.001,0.001-0.014,0.001-0.014c-0.642-4.666-1.283-9.333-1.925-14
		c-1.292-16.572-2.638-33.14-3.868-49.717c-3.37-45.425-6.675-90.855-10.037-136.281c-3.313-44.763-6.669-89.523-9.998-134.285
		c-2.664-35.809-5.427-71.61-7.945-107.429c-2.893-41.132-5.459-82.286-8.396-123.413c-0.923-12.922-2.59-25.79-3.916-38.683
		c0.018-0.555,0.037-1.109,0.061-1.668c0-0.005,0.072-0.651,0.072-0.65c0.615,0.113,1.235,0.202,1.858,0.266
		c1.315,0.651,2.631,1.303,3.945,1.954c6.066,2.642,12.025,5.569,18.215,7.881c65.455,24.447,130.938,48.819,196.43,73.165
		c56.759,21.1,113.513,42.217,170.325,63.174c29.018,10.704,58.16,21.073,87.245,31.595l0.967,0.005l0.966-0.031
		c0.669-0.037,1.338-0.073,2.008-0.11L1794.052,1880.347z"/>
	<path fill-rule="evenodd" clip-rule="evenodd" fill="#623262" d="M1777.979,694.021c17.482-75.15,34.957-150.303,52.45-225.451
		c11.838-50.855,23.702-101.705,35.555-152.558c1.353,0.634,2.705,1.267,4.059,1.899c35.937,16.675,71.891,33.313,107.805,50.036
		c58.248,27.124,116.477,54.292,174.701,81.468c32.281,15.066,64.556,30.15,96.803,45.292
		c46.412,21.793,92.783,43.671,139.215,65.423c3.595,1.685,7.518,2.669,11.287,3.979c0.148,0.545,0.249,1.097,0.301,1.658
		c-0.701,0.742-1.4,1.483-2.102,2.225c-3.951,0.478-7.959,0.679-11.845,1.475c-93.22,19.103-186.441,38.197-279.632,57.442
		c-90.926,18.778-181.806,37.777-272.734,56.544c-18.551,3.828-37.226,7.053-55.843,10.555L1777.979,694.021z"/>
	<path fill-rule="evenodd" clip-rule="evenodd" fill="#672D62" d="M1811.949,35.964c-0.645-1.336-1.289-2.673-1.934-4.01
		C1810.66,33.291,1811.305,34.627,1811.949,35.964z"/>
	<path fill-rule="evenodd" clip-rule="evenodd" fill="#5F3664" d="M2398.054,567.992c0.7-0.741,1.399-1.482,2.101-2.225
		c0.596,0.09,1.191,0.175,1.787,0.254c0.013,0.642,0.051,1.281,0.117,1.92c0.862,4.898,1.423,9.874,2.63,14.688
		c41.122,164.042,82.3,328.071,123.522,492.089c0.964,3.836,2.529,7.521,3.813,11.275c0.021,0.635,0.045,1.271,0.069,1.905
		c0,0.002-0.361,0.308-0.359,0.306c-3.239-0.718-6.452-1.64-9.729-2.118c-34.563-5.051-69.144-9.981-103.705-15.042
		c-47.402-6.94-94.781-14.029-142.188-20.935c-53.33-7.769-106.678-15.42-160.022-23.088c-26.009-3.738-52.029-7.396-78.044-11.091
		c-1.402-1.228-2.805-2.455-4.407-3.857c34.615-42.196,68.704-83.914,102.976-125.482c39.154-47.492,78.522-94.807,117.702-142.279
		c36.636-44.392,73.208-88.836,109.674-133.367C2375.566,596.808,2386.712,582.319,2398.054,567.992z"/>
	<path fill-rule="evenodd" clip-rule="evenodd" fill="#774379" d="M1311.963,1702.53c-0.023,0.555-0.043,1.109-0.06,1.662
		c-1.95,1.279-3.901,2.561-5.853,3.841c-88.514,60.525-177.014,121.072-265.55,181.565c-33.547,22.922-67.222,45.655-100.759,68.591
		c-71.193,48.688-142.331,97.455-213.515,146.156c-1.905,1.305-4.077,2.219-6.124,3.313c8.408-30.84,16.654-61.722,25.256-92.504
		c20.796-74.428,41.76-148.809,62.65-223.211c25.572-91.077,51.135-182.158,76.71-273.234c6.394-22.77,12.82-45.529,19.231-68.29
		c-0.001,0.003,0.021-0.591,0.021-0.59c44.942,27.871,89.896,55.722,134.823,83.614c60.753,37.717,121.455,75.514,182.237,113.183
		C1251.275,1665.368,1281.648,1683.902,1311.963,1702.53z"/>
	<path fill-rule="evenodd" clip-rule="evenodd" fill="#89548F" d="M1306.051,1708.033c1.951-1.28,3.902-2.562,5.853-3.841
		c1.325,12.895,2.992,25.763,3.915,38.685c2.938,41.127,5.504,82.281,8.396,123.413c2.519,35.818,5.281,71.62,7.945,107.429
		c3.329,44.762,6.685,89.522,9.998,134.285c3.362,45.426,6.667,90.856,10.037,136.281c1.23,16.577,2.576,33.145,3.868,49.717
		c0.642,4.666,1.282,9.334,1.925,14c0,0-0.001,0.013-0.001,0.014c-0.03,0.68-0.061,1.36-0.093,2.041
		c-47.633-4.745-95.275-9.402-142.896-14.264c-42.989-4.389-85.941-9.151-128.938-13.468c-36.716-3.687-73.474-6.956-110.208-10.454
		c-5.293-0.505-10.563-1.256-15.843-1.893c6.216-10.969,12.035-22.186,18.713-32.867c43.073-68.9,86.412-137.635,129.51-206.52
		c41.507-66.342,82.774-132.835,124.253-199.194c22.947-36.711,46.218-73.221,69.027-110.017
		C1303.895,1717.537,1309.993,1714.277,1306.051,1708.033z"/>
	<path fill-rule="evenodd" clip-rule="evenodd" fill="#8A4A89" d="M430.015,1820.033c-1.337,0.662-2.674,1.323-4.011,1.985
		c-22.01-5.163-43.971-10.543-66.037-15.448c-67.937-15.103-135.915-30.02-203.874-45.019c-11.38-2.512-22.749-5.074-34.122-7.613
		c23.984-9.969,47.915-20.067,71.961-29.883c104.567-42.685,209.164-85.294,313.768-127.885c3.997-1.628,8.187-2.786,12.286-4.163
		c0.017,0.657,0.025,1.314,0.025,1.972c-1.726,3.587-3.675,7.083-5.143,10.772c-18.433,46.353-36.846,92.713-55.157,139.113
		C449.708,1769.213,439.907,1794.642,430.015,1820.033z"/>
	<path fill-rule="evenodd" clip-rule="evenodd" fill="#6E4A7A" d="M2567.867,1691.905c-0.007,0.509-0.01,1.019-0.009,1.523
		c-19.513,0.867-39.026,1.685-58.534,2.623c-29.091,1.399-58.177,2.884-87.265,4.336c0.001,0.003-0.149-0.765-0.149-0.762
		c-4.748-19.717-9.332-39.479-14.277-59.149c-15.511-61.688-31.191-123.333-46.711-185.018c-1.944-7.729-3.322-15.598-4.962-23.402
		c5.896-3.876,7.063,2.331,9.092,4.871c9.958,12.468,19.274,25.445,29.136,37.991c48.688,61.941,97.393,123.869,146.305,185.633
		C2549.096,1671.416,2558.717,1681.475,2567.867,1691.905z"/>
	<path fill-rule="evenodd" clip-rule="evenodd" fill="#7D417B" d="M520.012,1593.979c0-0.657-0.009-1.314-0.025-1.972
		c1.334-0.659,2.668-1.318,4.001-1.978c54.308-20.216,108.601-40.474,162.928-60.638c65.258-24.22,130.539-48.372,195.829-72.504
		c4.992-1.845,10.132-3.29,15.204-4.921c0.703,0.019,1.406,0.036,2.109,0.054c-13.927,12.778-27.743,25.68-41.811,38.302
		c-15.561,13.961-31.387,27.625-47.032,41.492c-23.346,20.692-46.684,41.394-69.932,62.195
		c-21.274,19.036-42.355,38.288-63.649,57.302c-21.784,19.449-43.75,38.694-65.583,58.09
		c-11.416,10.141-22.716,20.411-34.068,30.623c0,0-0.018,0.045-0.017,0.044c-6.346-16.092-12.697-32.182-19.036-48.276
		c-12.313-31.263-24.618-62.528-36.927-93.793c-0.665-1.336-1.33-2.673-1.995-4.009L520.012,1593.979z"/>
	<path fill-rule="evenodd" clip-rule="evenodd" fill="#6A4675" d="M2567.867,1691.905c-9.15-10.431-18.771-20.489-27.375-31.354
		c-48.912-61.764-97.617-123.691-146.305-185.633c-9.861-12.546-19.178-25.523-29.136-37.991c-2.029-2.54-3.196-8.747-9.091-4.871
		c-1.256-3.311-2.512-6.62-3.768-9.93c21.276-8.588,42.563-17.151,63.826-25.768c72.744-29.477,145.469-59.002,218.226-88.449
		c51.172-20.712,102.384-41.326,153.577-61.984c0,0,0.361,0.152,0.363,0.153c-1.729,3.958-3.294,8-5.218,11.861
		c-21.232,42.612-42.61,85.152-63.773,127.8c-29.889,60.232-59.639,120.536-89.431,180.817
		C2609.117,1608.333,2588.498,1650.122,2567.867,1691.905z"/>
	<path fill-rule="evenodd" clip-rule="evenodd" fill="#774379" d="M900.058,1452.021c-0.703-0.018-1.406-0.035-2.109-0.054
		c1.363-0.607,2.727-1.215,4.09-1.821C901.378,1450.771,900.718,1451.396,900.058,1452.021z"/>
	<path fill-rule="evenodd" clip-rule="evenodd" fill="#8E4C8C" d="M522.003,1598c12.309,31.265,24.613,62.53,36.927,93.793
		c6.339,16.095,12.69,32.185,19.036,48.276c-45.961,25.252-91.911,50.522-137.906,75.709c-3.173,1.738-6.688,2.852-10.045,4.255
		c9.893-25.392,19.693-50.82,29.697-76.168c18.312-46.4,36.725-92.761,55.157-139.113c1.468-3.689,3.417-7.186,5.143-10.772
		l-0.004,0.012C520.673,1595.327,521.338,1596.664,522.003,1598z"/>
	<path fill-rule="evenodd" clip-rule="evenodd" fill="#573861" d="M2787.822,1245.926c-51.193,20.658-102.405,41.272-153.577,61.984
		c-72.757,29.447-145.481,58.973-218.226,88.449c-21.264,8.616-42.55,17.18-63.828,25.767c-0.734-0.693-1.469-1.386-2.202-2.078
		c3.521-3.756,7.75-7.073,10.399-11.366c4.354-7.055,7.537-14.819,11.467-22.149c28.438-53.041,56.917-106.062,85.429-159.063
		c17.484-32.503,35.153-64.906,52.526-97.468c7.029-13.176,13.491-26.653,20.211-39.993c0.57-0.601,1.141-1.201,1.711-1.802
		c0,0,0.361-0.306,0.361-0.308c58.818,35.934,117.629,71.877,176.455,107.795c26.428,16.138,52.888,32.225,79.332,48.335
		C2787.897,1244.662,2787.878,1245.294,2787.822,1245.926z"/>
	<path fill-rule="evenodd" clip-rule="evenodd" fill="#4F234D" d="M1068.002,1198.018c1.357,0.675,2.714,1.349,4.07,2.022
		c-0.036,0.658-0.067,1.316-0.094,1.976c-2.125,2.521-4.487,4.879-6.336,7.587c-13.483,19.751-26.887,39.557-40.27,59.376
		c-36.07,53.412-72.148,106.818-108.13,160.29c-4.058,6.029-7.516,12.463-11.252,18.708c-0.662,0.009-1.324,0.014-1.986,0.017
		c-14.317-42.591-28.705-85.159-42.938-127.778c-26.571-79.564-53.065-159.153-79.532-238.752
		c-1.461-4.396-2.375-8.975-3.544-13.469c21.29,9.313,42.645,18.48,63.855,27.968c45.176,20.207,90.294,40.545,135.405,60.897
		C1007.528,1170.519,1037.754,1184.294,1068.002,1198.018z"/>
	<path fill-rule="evenodd" clip-rule="evenodd" fill="#5D305E" d="M904.005,1447.993c0.662-0.003,1.324-0.008,1.986-0.016
		c2.629-0.321,5.313-0.405,7.877-1.001c41.387-9.618,82.758-19.301,124.132-28.969c1.244,1.56,2.369,3.233,3.748,4.662
		c38.383,39.767,76.709,79.588,115.222,119.228c31.795,32.727,63.818,65.232,95.729,97.846c1.396,1.427,2.63,3.014,4.031,4.435
		c17.058,17.287,34.132,34.559,51.202,51.833c1.323,1.354,2.646,2.708,3.969,4.062c0.044,0.601,0.089,1.202,0.134,1.803
		c0,0-0.072,0.646-0.072,0.651c-30.314-18.624-60.688-37.158-90.931-55.9c-60.782-37.669-121.484-75.466-182.237-113.183
		c-44.927-27.893-89.881-55.743-134.823-83.614C903.986,1449.216,903.997,1448.604,904.005,1447.993z"/>
	<path fill-rule="evenodd" clip-rule="evenodd" fill="#3D1C3F" d="M1311.901,1700.072c-1.323-1.354-2.646-2.707-3.969-4.062
		c-1.05-2.793-1.9-5.682-3.181-8.365c-15.2-31.85-30.467-63.668-45.711-95.496c-22.725-47.442-45.373-94.92-68.188-142.318
		c-20.939-43.504-42.131-86.885-63.058-130.395c-9.378-19.497-18.212-39.256-27.601-58.747
		c-8.511-17.67-17.438-35.138-26.183-52.695c-0.679-1.992-1.356-3.985-2.034-5.979c0.026-0.659,0.058-1.317,0.094-1.976
		c103.112-40.479,206.205-81.008,309.343-121.42c52.342-20.51,104.775-40.784,157.127-61.271c3.35-1.311,6.344-3.53,9.504-5.328
		c0.651-0.007,1.302-0.016,1.952-0.024c0.012,0.685,0.023,1.368,0.035,2.052c-0.045,0.651-0.093,1.303-0.146,1.954
		c-1.603,3.255-3.572,6.384-4.752,9.786c-14.063,40.566-28.103,81.141-41.962,121.776c-23.53,68.991-46.84,138.058-70.407,207.036
		c-21.842,63.932-43.967,127.768-65.839,191.689c-14.228,41.582-28.063,83.3-42.444,124.828
		C1321.05,1681.033,1316.135,1690.435,1311.901,1700.072z"/>
	<path fill-rule="evenodd" clip-rule="evenodd" fill="#38193B" d="M1550.033,1014.05c-0.012-0.685-0.023-1.368-0.035-2.053
		c-0.004-0.665,0.003-1.329,0.019-1.992c1.571-1.697,3.343-3.251,4.685-5.113c18.88-26.2,37.662-52.47,56.544-78.667
		c52.753-73.19,105.503-146.383,158.433-219.445c2.572-3.551,6.835-5.877,10.311-8.773c34.254,43.228,68.522,86.444,102.76,129.686
		c38.156,48.191,76.352,96.353,114.386,144.642c11.277,14.317,22.066,29.021,33.077,43.548c-16.595-0.624-33.188-1.775-49.781-1.793
		c-142.809-0.146-285.617-0.089-428.425-0.092C1551.347,1014.005,1550.689,1014.022,1550.033,1014.05z"/>
	<path fill-rule="evenodd" clip-rule="evenodd" fill="#441E44" d="M1779.988,698.006c-3.476,2.896-7.738,5.223-10.311,8.773
		c-52.93,73.063-105.68,146.255-158.433,219.445c-18.882,26.197-37.664,52.467-56.544,78.667c-1.342,1.862-3.113,3.416-4.685,5.113
		c0.681-39.897,1.27-79.797,2.077-119.692c0.479-23.59,1.258-47.175,1.986-70.76c1.293-41.849,2.649-83.695,3.979-125.543
		c5.224-0.664,10.452-1.941,15.669-1.901c67.429,0.515,134.855,1.217,202.282,1.872c0.656,0.019,1.313,0.032,1.969,0.041
		c0,0,0.02-0.014,0.019-0.014C1778.662,695.341,1779.325,696.673,1779.988,698.006z"/>
	<path fill-rule="evenodd" clip-rule="evenodd" fill="#593963" d="M2349.989,1420.049c0.733,0.691,1.468,1.384,2.203,2.076
		c1.257,3.312,2.513,6.621,3.769,9.932c1.639,7.805,3.017,15.674,4.961,23.402c15.52,61.685,31.2,123.33,46.711,185.018
		c4.945,19.67,9.529,39.433,14.277,59.149c-50.898,14.582-101.809,29.126-152.691,43.761
		c-68.487,19.697-136.963,39.437-205.428,59.21c-87.023,25.133-174.03,50.32-261.047,75.472c-2.877,0.832-5.795,1.52-8.693,2.276
		c0.001,0.002-0.057-0.571-0.057-0.569c0.006-0.59,0.008-1.183,0.006-1.775c0.785-1.469,1.501-2.979,2.363-4.4
		c34.022-56.075,68.099-112.119,102.081-168.219c27.945-46.135,55.773-92.34,83.667-138.505
		c42.528-70.385,85.068-140.762,127.605-211.141c0.162-0.536,0.323-1.073,0.482-1.611c0.603-0.03,1.203-0.079,1.803-0.146
		c4.217,0.894,8.501,1.552,12.643,2.714C2199.77,1377.775,2274.878,1398.918,2349.989,1420.049z"/>
	<path fill-rule="evenodd" clip-rule="evenodd" fill="#3B1F41" d="M1311.901,1700.072c4.233-9.638,9.148-19.039,12.582-28.953
		c14.382-41.528,28.217-83.246,42.444-124.828c21.872-63.922,43.997-127.758,65.839-191.689
		c23.567-68.979,46.877-138.045,70.407-207.036c13.859-40.636,27.899-81.21,41.962-121.776c1.18-3.402,3.149-6.531,4.753-9.786
		c0.777,3.23,1.447,6.491,2.348,9.687c9.211,32.688,18.499,65.353,27.689,98.046c21.984,78.206,43.916,156.427,65.892,234.636
		c22.065,78.528,44.158,157.051,66.239,235.575c-0.705,0.669-1.411,1.338-2.116,2.007c-34.709,9.199-69.444,18.299-104.123,27.615
		c-97.32,26.144-194.618,52.377-291.925,78.574c-0.622-0.064-1.242-0.153-1.857-0.267
		C1311.99,1701.274,1311.945,1700.673,1311.901,1700.072z"/>
	<path fill-rule="evenodd" clip-rule="evenodd" fill="#452B4E" d="M1709.939,1595.953c0.706-0.669,1.412-1.338,2.116-2.007
		c4.202-1.923,8.64-3.457,12.57-5.831c28.744-17.359,57.344-34.959,86.07-52.351c81.344-49.246,162.705-98.464,244.11-147.609
		c18.195-10.984,36.6-21.624,54.908-32.422c-42.535,70.381-85.075,140.758-127.604,211.143
		c-27.894,46.165-55.722,92.37-83.667,138.505c-33.982,56.1-68.059,112.144-102.081,168.219c-0.862,1.422-1.578,2.932-2.363,4.4
		c-0.671,0.628-1.343,1.256-2.014,1.884l-0.966,0.031l-0.967-0.005c-0.023-1.295-0.046-2.59-0.069-3.887
		c-20.601-74.816-41.147-149.647-61.84-224.438c-5.144-18.591-10.758-37.051-16.156-55.571
		C1711.306,1595.993,1710.623,1595.974,1709.939,1595.953z"/>
	<path fill-rule="evenodd" clip-rule="evenodd" fill="#53325A" d="M1789.984,1876.024c0.023,1.296,0.046,2.591,0.069,3.886
		c-29.085-10.521-58.228-20.891-87.245-31.595c-56.813-20.957-113.566-42.074-170.325-63.174
		c-65.492-24.346-130.975-48.718-196.43-73.165c-6.189-2.312-12.148-5.239-18.213-7.882c22.935,0.624,45.867,1.28,68.802,1.866
		c27.596,0.705,55.193,1.348,82.791,2.021c27.264,0.664,54.525,1.462,81.792,1.967c42.917,0.794,85.839,1.392,128.759,2.073
		c1.52,2.937,2.771,6.053,4.599,8.783c33.157,49.513,66.371,98.987,99.633,148.43
		C1785.863,1871.684,1788.049,1873.77,1789.984,1876.024z"/>
	<path fill-rule="evenodd" clip-rule="evenodd" fill="#4C2D54" d="M1679.984,1712.021c-42.92-0.682-85.842-1.279-128.759-2.073
		c-27.267-0.505-54.528-1.303-81.792-1.967c-27.598-0.673-55.195-1.315-82.791-2.021c-22.935-0.586-45.867-1.242-68.802-1.866
		c-1.316-0.65-2.632-1.302-3.947-1.953c97.306-26.196,194.604-52.43,291.924-78.573c34.679-9.316,69.414-18.416,104.123-27.615
		c0.683,0.021,1.365,0.04,2.049,0.061c-6.652,23.63-13.378,47.239-19.932,70.896C1687.901,1681.91,1684,1696.981,1679.984,1712.021z
		"/>
	<path fill-rule="evenodd" clip-rule="evenodd" fill="#744D80" d="M1357.988,2308.002c-0.643-4.666-1.283-9.334-1.925-14
		C1356.705,2298.669,1357.347,2303.336,1357.988,2308.002z"/>
	<path fill-rule="evenodd" clip-rule="evenodd" fill="#53325A" d="M1791.986,1879.884c0.671-0.628,1.343-1.256,2.014-1.884
		c0.002,0.593,0,1.186-0.006,1.775C1793.324,1879.811,1792.655,1879.847,1791.986,1879.884z"/>
	<path fill-rule="evenodd" clip-rule="evenodd" fill="#562D59" d="M1779.988,698.006c-0.663-1.333-1.326-2.665-1.99-3.998
		c18.618-3.502,37.293-6.727,55.844-10.555c90.929-18.767,181.809-37.766,272.734-56.544c93.19-19.245,186.412-38.34,279.632-57.442
		c3.886-0.796,7.894-0.997,11.845-1.475c-11.341,14.327-22.486,28.815-34.063,42.952c-36.466,44.531-73.038,88.976-109.674,133.367
		c-39.18,47.473-78.548,94.787-117.702,142.279c-34.271,41.568-68.36,83.286-102.976,125.482c1.603,1.402,3.005,2.63,4.406,3.858
		c-2.038,0.04-4.076,0.08-6.113,0.119c-0.572-0.061-1.146-0.117-1.719-0.17c-11.013-14.527-21.802-29.23-33.079-43.548
		c-38.034-48.289-76.229-96.45-114.386-144.642C1848.511,784.45,1814.242,741.233,1779.988,698.006z"/>
	<path fill-rule="evenodd" clip-rule="evenodd" fill="#45284D" d="M2031.932,1016.052c2.037-0.04,4.075-0.08,6.113-0.12
		c26.016,3.693,52.036,7.352,78.045,11.09c53.345,7.668,106.692,15.319,160.022,23.088c47.407,6.905,94.786,13.994,142.188,20.935
		c34.562,5.061,69.142,9.991,103.705,15.042c3.276,0.479,6.489,1.4,9.729,2.118c-0.572,0.603-1.143,1.203-1.713,1.804
		c-23.418,14.671-46.867,29.292-70.245,44.024c-54.933,34.619-109.83,69.293-164.743,103.942
		c-42.227,26.645-84.479,53.25-126.672,79.947c-18.847,11.925-37.577,24.032-56.359,36.057c-0.6,0.066-1.2,0.115-1.804,0.145
		c-0.114-0.693-0.228-1.387-0.341-2.08c-3.99-17.495-7.862-35.018-11.989-52.48c-18.268-77.304-36.675-154.574-54.869-231.896
		C2038.969,1050.542,2035.603,1033.261,2031.932,1016.052z"/>
	<path fill-rule="evenodd" clip-rule="evenodd" fill="#8A4A89" d="M522.003,1598c-0.665-1.336-1.33-2.673-1.995-4.009
		C520.673,1595.327,521.338,1596.664,522.003,1598z"/>
	<path fill-rule="evenodd" clip-rule="evenodd" fill="#4A2E53" d="M2112.002,1353.979c18.782-12.024,37.513-24.132,56.359-36.057
		c42.193-26.697,84.445-53.303,126.672-79.947c54.913-34.649,109.811-69.323,164.743-103.942
		c23.378-14.732,46.827-29.354,70.245-44.024c-6.72,13.34-13.182,26.817-20.211,39.993c-17.373,32.562-35.042,64.965-52.526,97.468
		c-28.512,53.002-56.99,106.022-85.429,159.063c-3.93,7.33-7.113,15.095-11.467,22.149c-2.649,4.293-6.879,7.61-10.399,11.366
		c-75.111-21.13-150.22-42.272-225.345-63.355C2120.503,1355.53,2116.219,1354.872,2112.002,1353.979z"/>
	<path fill-rule="evenodd" clip-rule="evenodd" fill="#522753" d="M1071.979,1202.016c0.678,1.993,1.355,3.986,2.033,5.979
		c-1.341,2.455-3.483,4.779-3.901,7.382c-5.535,34.417-10.766,68.882-16.199,103.315c-5.227,33.117-10.602,66.212-15.911,99.316
		c-41.374,9.668-82.745,19.351-124.132,28.969c-2.564,0.596-5.248,0.68-7.877,1.001c3.736-6.246,7.194-12.68,11.252-18.709
		c35.981-53.472,72.06-106.878,108.13-160.29c13.383-19.819,26.786-39.625,40.27-59.376
		C1067.491,1206.895,1069.854,1204.536,1071.979,1202.016z"/>
	<path fill-rule="evenodd" clip-rule="evenodd" fill="#522A54" d="M1038,1418.008c5.31-33.104,10.685-66.199,15.911-99.316
		c5.434-34.434,10.664-68.898,16.199-103.315c0.418-2.603,2.561-4.927,3.901-7.382c8.745,17.558,17.673,35.025,26.184,52.695
		c9.389,19.491,18.223,39.25,27.601,58.747c20.927,43.51,42.118,86.891,63.058,130.395c22.814,47.398,45.463,94.876,68.188,142.318
		c15.244,31.828,30.511,63.646,45.711,95.496c1.28,2.684,2.131,5.572,3.181,8.365c-17.07-17.274-34.145-34.546-51.202-51.833
		c-1.401-1.421-2.635-3.008-4.031-4.435c-31.911-32.613-63.935-65.119-95.729-97.846c-38.513-39.64-76.839-79.461-115.222-119.228
		C1040.369,1421.241,1039.244,1419.567,1038,1418.008z"/>
	<path fill-rule="evenodd" clip-rule="evenodd" fill="#28142F" d="M2109.857,1352.043c0.113,0.693,0.227,1.387,0.341,2.08
		c-0.158,0.539-0.319,1.076-0.481,1.612c-18.311,10.796-36.715,21.436-54.91,32.42c-81.405,49.146-162.767,98.363-244.11,147.609
		c-28.727,17.392-57.326,34.991-86.07,52.351c-3.931,2.374-8.368,3.908-12.569,5.831c-22.081-78.524-44.174-157.047-66.239-235.575
		c-21.976-78.209-43.907-156.43-65.892-234.636c-9.19-32.693-18.479-65.358-27.689-98.046c-0.9-3.195-1.57-6.456-2.348-9.687
		c0.052-0.651,0.1-1.303,0.145-1.954c0.656-0.026,1.313-0.044,1.972-0.053c3.26,2.296,6.393,4.802,9.8,6.853
		c24.537,14.776,49.196,29.354,73.693,44.195c77.769,47.114,155.504,94.283,233.212,141.497
		c65.467,39.776,130.844,79.701,196.338,119.433C2079.819,1334.935,2094.912,1343.367,2109.857,1352.043z"/>
	<path fill-rule="evenodd" clip-rule="evenodd" fill="#311936" d="M2109.857,1352.043c-14.945-8.676-30.038-17.108-44.81-26.069
		c-65.494-39.731-130.871-79.656-196.338-119.433c-77.708-47.214-155.443-94.383-233.212-141.497
		c-24.497-14.842-49.156-29.419-73.693-44.195c-3.407-2.051-6.54-4.557-9.8-6.853c142.808,0.003,285.616-0.055,428.425,0.092
		c16.594,0.018,33.187,1.169,49.781,1.793c0.575,0.053,1.148,0.109,1.721,0.17c3.671,17.21,7.037,34.491,11.067,51.616
		c18.194,77.321,36.602,154.592,54.869,231.896C2101.995,1317.025,2105.867,1334.548,2109.857,1352.043z"/>
	<path fill-rule="evenodd" clip-rule="evenodd" fill="#482C51" d="M1679.984,1712.021c4.016-15.04,7.917-30.111,12.073-45.112
		c6.554-23.656,13.279-47.266,19.932-70.896c5.397,18.521,11.012,36.98,16.155,55.571c20.692,74.791,41.239,149.622,61.84,224.438
		c-1.936-2.254-4.121-4.34-5.769-6.789c-33.262-49.442-66.476-98.917-99.633-148.43
		C1682.755,1718.074,1681.504,1714.958,1679.984,1712.021z"/>
</g>
</svg>
